<svg width="1726" height="255" viewBox="0 0 1726 255" fill="none" xmlns="http://www.w3.org/2000/svg">
<g clip-path="url(#clip0_49_79)">
<path d="M663.386 88.0117V130.345C663.386 131.454 662.932 132.47 662.251 132.858L637.332 147.253C635.516 148.306 636.005 152.445 637.943 152.445H653.991C655.912 152.445 656.419 156.548 654.62 157.619L637.018 168.152C635.219 169.224 635.725 173.326 637.646 173.326H653.922C655.86 173.326 656.349 177.446 654.55 178.518L636.791 189.051C634.992 190.123 635.481 194.243 637.419 194.243H663.299" stroke="#C06520" stroke-width="2.23" stroke-linecap="round" stroke-linejoin="round"/>
<path d="M363.672 108.486V90.4326" stroke="#C06520" stroke-width="2.19" stroke-linecap="round" stroke-linejoin="round"/>
<path d="M363.672 119.813V142.079" stroke="#C06520" stroke-width="2.19" stroke-linecap="round" stroke-linejoin="round"/>
<path d="M266.439 89.4902H292.249" stroke="#C06520" stroke-width="2.19" stroke-linecap="round" stroke-linejoin="round"/>
<path d="M266.439 136.166H292.249" stroke="#C06520" stroke-width="2.19" stroke-linecap="round" stroke-linejoin="round"/>
<path d="M266.543 108.597V166.729C266.543 171.885 270.49 176.042 275.345 176.042H367.304C369.522 176.042 371.303 177.946 371.303 180.274V201.376C371.303 206.328 375.092 210.338 379.772 210.338H440.176" stroke="#C06520" stroke-width="2.19" stroke-linecap="round" stroke-linejoin="round"/>
<path d="M292.423 116.025L292.301 191.952C292.301 191.952 280.601 202.799 268.552 214.052C266.945 215.549 265.356 217.046 263.767 218.542" stroke="#C06520" stroke-width="2.19" stroke-linecap="round" stroke-linejoin="round"/>
<path d="M314.916 51.2217V134.522C314.916 138.698 318.111 142.079 322.058 142.079H435.549C443.075 142.079 444.909 138.605 444.909 132.175V84.6119C444.909 84.6119 443.914 75.7239 453.309 75.7239H467.96" stroke="#C06520" stroke-width="2.19" stroke-linecap="round" stroke-linejoin="round"/>
<path d="M341.354 142.079V95.5511C341.354 92.4653 343.712 89.9707 346.628 89.9707H432.475" stroke="#C06520" stroke-width="2.19" stroke-linejoin="round"/>
<path d="M363.672 116.025H411.747" stroke="#C06520" stroke-width="2.19" stroke-linecap="round" stroke-linejoin="round"/>
<path d="M392.416 142.079L391.315 253.152" stroke="#C06520" stroke-width="2.19" stroke-linecap="round" stroke-linejoin="round"/>
<path d="M393.376 176.061H438.151C439.286 176.061 440.194 177.04 440.194 178.222V214.089C440.194 215.29 441.119 216.251 442.237 216.251H485.475" stroke="#C06520" stroke-width="2.19" stroke-linejoin="round"/>
<path d="M314.916 73.4883H432.475" stroke="#C06520" stroke-width="2.19" stroke-linejoin="round"/>
<path d="M313.414 195.814V176.061" stroke="#C06520" stroke-width="2.19" stroke-linecap="round" stroke-linejoin="round"/>
<path d="M314.916 81.6553H432.475" stroke="#C06520" stroke-width="2.19" stroke-linejoin="round"/>
<path d="M445.607 104.347C445.607 104.347 453.012 103.201 453.012 112.181V126.336C453.012 131.196 455.055 136.148 462.284 136.148H472.745" stroke="#C06520" stroke-width="2.19" stroke-linejoin="round"/>
<path d="M364.143 129.459C364.283 129.921 417.056 129.57 429.734 129.477C431.235 129.477 432.44 128.165 432.44 126.576V58.4097C432.44 55.213 429.996 52.6445 426.992 52.6445H370.046C364.283 52.6445 359.62 57.5782 359.62 63.6761V73.488" stroke="#C06520" stroke-width="2.19" stroke-linecap="round" stroke-linejoin="round"/>
<path d="M292.581 59.7959H297.697C301.295 59.7959 304.193 62.8448 304.211 66.6513C304.298 91.6524 304.176 175.987 304.176 175.987" stroke="#C06520" stroke-width="2.19" stroke-linecap="round" stroke-linejoin="round"/>
<path d="M304.997 158.766H391.927" stroke="#C06520" stroke-width="2.19" stroke-linecap="round" stroke-linejoin="round"/>
<path d="M341.354 146.939V175.008" stroke="#C06520" stroke-width="2.19" stroke-linecap="round" stroke-linejoin="round"/>
<path d="M404.779 141.95V154.127C404.779 157.49 407.346 160.207 410.525 160.207H437.854C439.286 160.207 440.683 160.743 441.783 161.703L456.242 174.38C457.342 175.34 458.739 175.876 460.171 175.876H462.546" stroke="#C06520" stroke-width="2.19" stroke-linecap="round" stroke-linejoin="round"/>
<path d="M392.8 193.116H414.733C418.4 193.116 421.369 189.975 421.369 186.095V123.102C421.369 119.259 418.435 116.117 414.803 116.08L411.747 116.043" stroke="#C06520" stroke-width="2.19" stroke-linecap="round" stroke-linejoin="round"/>
<path d="M356.39 253.153L356.844 159.468" stroke="#C06520" stroke-width="2.19" stroke-linecap="round" stroke-linejoin="round"/>
<path d="M279.623 136.296V151.855C279.623 154.386 277.685 156.437 275.292 156.437H267.102" stroke="#C06520" stroke-width="2.19" stroke-linecap="round" stroke-linejoin="round"/>
<path d="M279.623 89.6196V103.792C279.623 106.324 277.685 108.375 275.292 108.375H267.102" stroke="#C06520" stroke-width="2.19" stroke-linecap="round" stroke-linejoin="round"/>
<path d="M382.881 210.172V158.895" stroke="#C06520" stroke-width="2.19" stroke-linecap="round" stroke-linejoin="round"/>
<path d="M387.561 229.297H357.123" stroke="#C06520" stroke-width="2.19" stroke-linecap="round" stroke-linejoin="round"/>
<path d="M313.414 208.157V223.79C313.414 227.024 315.894 229.647 318.95 229.647H341.354" stroke="#C06520" stroke-width="2.19" stroke-linejoin="round"/>
<path d="M341.354 146.939C343.891 146.939 345.947 144.763 345.947 142.08C345.947 139.396 343.891 137.22 341.354 137.22C338.818 137.22 336.762 139.396 336.762 142.08C336.762 144.763 338.818 146.939 341.354 146.939Z" fill="black" stroke="#C06520" stroke-width="2.19" stroke-miterlimit="10"/>
<path d="M314.793 54.1229C317.33 54.1229 319.386 51.9471 319.386 49.2631C319.386 46.5791 317.33 44.4033 314.793 44.4033C312.257 44.4033 310.201 46.5791 310.201 49.2631C310.201 51.9471 312.257 54.1229 314.793 54.1229Z" fill="black" stroke="#C06520" stroke-width="2.19" stroke-miterlimit="10"/>
<path d="M288.843 64.9325C291.38 64.9325 293.436 62.7567 293.436 60.0727C293.436 57.3887 291.38 55.2129 288.843 55.2129C286.307 55.2129 284.251 57.3887 284.251 60.0727C284.251 62.7567 286.307 64.9325 288.843 64.9325Z" fill="black" stroke="#C06520" stroke-width="2.19" stroke-miterlimit="10"/>
<path d="M404.779 146.939C407.316 146.939 409.372 144.763 409.372 142.08C409.372 139.396 407.316 137.22 404.779 137.22C402.243 137.22 400.187 139.396 400.187 142.08C400.187 144.763 402.243 146.939 404.779 146.939Z" fill="black" stroke="#C06520" stroke-width="2.19" stroke-miterlimit="10"/>
<path d="M266.543 113.456C269.08 113.456 271.136 111.281 271.136 108.597C271.136 105.913 269.08 103.737 266.543 103.737C264.007 103.737 261.951 105.913 261.951 108.597C261.951 111.281 264.007 113.456 266.543 113.456Z" fill="black" stroke="#C06520" stroke-width="2.19" stroke-miterlimit="10"/>
<path d="M392.154 234.156C394.69 234.156 396.746 231.98 396.746 229.296C396.746 226.612 394.69 224.437 392.154 224.437C389.617 224.437 387.561 226.612 387.561 229.296C387.561 231.98 389.617 234.156 392.154 234.156Z" fill="black" stroke="#C06520" stroke-width="2.19" stroke-miterlimit="10"/>
<path d="M367.252 112.255H360.109C360.878 114.713 360.878 117.355 360.109 119.813H367.252C366.483 117.355 366.483 114.713 367.252 112.255Z" fill="black" stroke="#C06520" stroke-width="2.19" stroke-linecap="round" stroke-linejoin="round"/>
<path d="M367.252 108.486H360.109" stroke="#C06520" stroke-width="2.19" stroke-linecap="round" stroke-linejoin="round"/>
<path d="M295.986 108.486H288.844C289.612 110.943 289.612 113.586 288.844 116.043H295.986C295.217 113.586 295.217 110.943 295.986 108.486Z" fill="black" stroke="#C06520" stroke-width="2.19" stroke-linecap="round" stroke-linejoin="round"/>
<path d="M295.986 104.698H288.844" stroke="#C06520" stroke-width="2.19" stroke-linecap="round" stroke-linejoin="round"/>
<path d="M313.623 193.079H313.187C310.525 193.079 308.367 195.362 308.367 198.179V203.796C308.367 206.613 310.525 208.897 313.187 208.897H313.623C316.285 208.897 318.443 206.613 318.443 203.796V198.179C318.443 195.362 316.285 193.079 313.623 193.079Z" fill="black" stroke="#C06520" stroke-width="2.19" stroke-miterlimit="10"/>
<path d="M204.428 170.277H244.523C245.658 170.277 246.566 171.257 246.566 172.439V208.306C246.566 209.507 247.492 210.468 248.609 210.468H268.884" stroke="#C06520" stroke-width="2.19" stroke-linecap="round" stroke-linejoin="round"/>
<path d="M266.98 199.565H266.107C260.716 199.565 256.345 204.19 256.345 209.895V210.819C256.345 216.523 260.716 221.148 266.107 221.148H266.98C272.371 221.148 276.742 216.523 276.742 210.819V209.895C276.742 204.19 272.371 199.565 266.98 199.565Z" fill="black" stroke="#C06520" stroke-width="2.19" stroke-miterlimit="10"/>
<path d="M266.805 203.741H266.282C262.973 203.741 260.292 206.579 260.292 210.079V210.634C260.292 214.134 262.973 216.972 266.282 216.972H266.805C270.113 216.972 272.795 214.134 272.795 210.634V210.079C272.795 206.579 270.113 203.741 266.805 203.741Z" fill="black" stroke="#C06520" stroke-width="2.19" stroke-miterlimit="10"/>
<path d="M467.942 75.7424H536.344V20.0674" stroke="#C06520" stroke-width="2.19" stroke-linecap="round" stroke-linejoin="round"/>
<path d="M467.942 136.092H536.344V73.3032" stroke="#C06520" stroke-width="2.19" stroke-linecap="round" stroke-linejoin="round"/>
<path d="M536.344 30.5259V117.632H467.942C463.332 117.632 458.844 115.193 458.844 108.005V66.8541C458.844 63.5096 456.277 60.7933 453.116 60.7933H433.104" stroke="#C06520" stroke-width="2.19" stroke-linecap="round" stroke-linejoin="round"/>
<path d="M484.619 156.123H507.059" stroke="#C06520" stroke-width="2.19" stroke-linejoin="round"/>
<path d="M484.619 175.729H507.059" stroke="#C06520" stroke-width="2.19" stroke-linejoin="round"/>
<path d="M445.887 126.317H536.344" stroke="#C06520" stroke-width="2.19" stroke-linecap="round" stroke-linejoin="round"/>
<path d="M536.24 75.8716H562.451V104.698" stroke="#C06520" stroke-width="2.19" stroke-linejoin="round"/>
<path d="M536.24 136.166H562.067" stroke="#C06520" stroke-width="2.19" stroke-linecap="round" stroke-linejoin="round"/>
<path d="M536.344 108.597V166.729C536.344 171.885 540.291 176.042 545.146 176.042H587.598" stroke="#C06520" stroke-width="2.19" stroke-linecap="round" stroke-linejoin="round"/>
<path d="M588.907 168.263H588.471C585.809 168.263 583.651 170.546 583.651 173.363V178.98C583.651 181.797 585.809 184.08 588.471 184.08H588.907C591.569 184.08 593.727 181.797 593.727 178.98V173.363C593.727 170.546 591.569 168.263 588.907 168.263Z" fill="black" stroke="#C06520" stroke-width="2.19" stroke-miterlimit="10"/>
<path d="M711.706 73.4883H623.658C611.627 73.4883 601.882 83.7992 601.882 96.5307V112.256" stroke="#C06520" stroke-width="2.19" stroke-linecap="round" stroke-linejoin="round"/>
<path d="M484.392 116.598V76.7217" stroke="#C06520" stroke-width="2.19" stroke-linecap="round" stroke-linejoin="round"/>
<path d="M485.318 100.91H499.218C502.693 100.91 505.522 97.9161 505.522 94.2389V75.7422" stroke="#C06520" stroke-width="2.19" stroke-linejoin="round"/>
<path d="M549.424 75.8716V103.792C549.424 106.324 547.486 108.375 545.093 108.375H536.903" stroke="#C06520" stroke-width="2.19" stroke-linecap="round" stroke-linejoin="round"/>
<path d="M613.705 143.779L627.972 156.733V194.687H599.665V156.825C607.593 149.434 613.705 143.779 613.705 143.779ZM613.705 143.779L613.827 112.255" stroke="#C06520" stroke-width="2.19" stroke-linecap="round" stroke-linejoin="round"/>
<path d="M523.282 136.093V179.443C523.282 181.66 524.976 183.453 527.071 183.453H562.102" stroke="#C06520" stroke-width="2.19" stroke-linejoin="round"/>
<path d="M485.667 175.857H462.529" stroke="#C06520" stroke-width="2.19" stroke-linecap="round" stroke-linejoin="round"/>
<path d="M485.614 253.152L485.493 136.406" stroke="#C06520" stroke-width="2.19" stroke-linecap="round" stroke-linejoin="round"/>
<path d="M526.146 214.532H514.481C510.499 214.532 507.269 217.951 507.269 222.164L506.57 255" stroke="#C06520" stroke-width="2.19" stroke-linejoin="round"/>
<path d="M463.262 220.741V230.978C463.262 236.799 465.742 241.474 473.216 241.474C480.69 241.474 485.475 241.529 485.475 241.529" stroke="#C06520" stroke-width="2.19" stroke-linejoin="round"/>
<path d="M506.867 141.432C509.404 141.432 511.46 139.257 511.46 136.573C511.46 133.889 509.404 131.713 506.867 131.713C504.331 131.713 502.274 133.889 502.274 136.573C502.274 139.257 504.331 141.432 506.867 141.432Z" fill="black" stroke="#C06520" stroke-width="2.19" stroke-miterlimit="10"/>
<path d="M463.367 221.037C465.904 221.037 467.96 218.861 467.96 216.177C467.96 213.493 465.904 211.317 463.367 211.317C460.831 211.317 458.774 213.493 458.774 216.177C458.774 218.861 460.831 221.037 463.367 221.037Z" fill="black" stroke="#C06520" stroke-width="2.19" stroke-miterlimit="10"/>
<path d="M536.344 113.456C538.881 113.456 540.937 111.281 540.937 108.597C540.937 105.913 538.881 103.737 536.344 103.737C533.808 103.737 531.752 105.913 531.752 108.597C531.752 111.281 533.808 113.456 536.344 113.456Z" fill="black" stroke="#C06520" stroke-width="2.19" stroke-miterlimit="10"/>
<path d="M536.344 28.1976C538.881 28.1976 540.937 26.0218 540.937 23.3378C540.937 20.6538 538.881 18.478 536.344 18.478C533.808 18.478 531.752 20.6538 531.752 23.3378C531.752 26.0218 533.808 28.1976 536.344 28.1976Z" fill="black" stroke="#C06520" stroke-width="2.19" stroke-miterlimit="10"/>
<path d="M562.224 112.255H635.673" stroke="#C06520" stroke-width="2.19" stroke-linejoin="round"/>
<path d="M565.804 108.486H558.662C559.43 110.943 559.43 113.586 558.662 116.043H565.804C565.036 113.586 565.036 110.943 565.804 108.486Z" fill="black" stroke="#C06520" stroke-width="2.19" stroke-linecap="round" stroke-linejoin="round"/>
<path d="M565.804 104.698H558.662" stroke="#C06520" stroke-width="2.19" stroke-linecap="round" stroke-linejoin="round"/>
<path d="M536.781 199.565H535.908C530.516 199.565 526.146 204.19 526.146 209.895V210.819C526.146 216.523 530.516 221.148 535.908 221.148H536.781C542.172 221.148 546.543 216.523 546.543 210.819V209.895C546.543 204.19 542.172 199.565 536.781 199.565Z" fill="black" stroke="#C06520" stroke-width="2.19" stroke-miterlimit="10"/>
<path d="M536.606 203.741H536.082C532.774 203.741 530.093 206.579 530.093 210.079V210.634C530.093 214.134 532.774 216.972 536.082 216.972H536.606C539.914 216.972 542.596 214.134 542.596 210.634V210.079C542.596 206.579 539.914 203.741 536.606 203.741Z" fill="black" stroke="#C06520" stroke-width="2.19" stroke-miterlimit="10"/>
<path d="M468.484 75.7422V152.076C468.484 154.053 470.003 155.642 471.854 155.642H485.65" stroke="#C06520" stroke-width="2.19" stroke-linejoin="round"/>
<path d="M714.483 71.3262V130.734H593.483C591.073 130.734 589.117 132.803 589.117 135.353V147.66C589.117 150.21 587.161 152.279 584.751 152.279H562.172" stroke="#C06520" stroke-width="2.19" stroke-miterlimit="10"/>
<path d="M663.648 150.302H684.551" stroke="#C06520" stroke-width="2.19" stroke-linecap="round" stroke-linejoin="round"/>
<path d="M663.561 170.48H684.447" stroke="#C06520" stroke-width="2.19" stroke-linejoin="round"/>
<path d="M663.614 224.751H684.237" stroke="#C06520" stroke-width="2.19" stroke-linecap="round" stroke-linejoin="round"/>
<path d="M714.36 130.826H740.188" stroke="#C06520" stroke-width="2.19" stroke-linecap="round" stroke-linejoin="round"/>
<path d="M740.345 130.826L740.223 186.612C740.223 186.612 728.523 197.459 716.473 208.712C714.867 210.209 713.278 211.706 711.689 213.202" stroke="#C06520" stroke-width="2.19" stroke-linecap="round" stroke-linejoin="round"/>
<path d="M789.276 136.739V79.1053C789.276 76.0195 791.634 73.5249 794.55 73.5249H882.074" stroke="#C06520" stroke-width="2.19" stroke-linecap="round" stroke-linejoin="round"/>
<path d="M663.648 242.878H714.483" stroke="#C06520" stroke-width="2.19" stroke-linecap="round" stroke-linejoin="round"/>
<path d="M764.06 183.027V154.108" stroke="#C06520" stroke-width="2.19" stroke-linecap="round" stroke-linejoin="round"/>
<path d="M764.06 194.373V217.674C764.06 221.407 761.196 224.437 757.668 224.437H714.797" stroke="#C06520" stroke-width="2.19" stroke-linecap="round" stroke-linejoin="round"/>
<path d="M776.685 76.3154V152.28" stroke="#C06520" stroke-width="2.19" stroke-linecap="round" stroke-linejoin="round"/>
<path d="M714.814 73.3032H745.636C749.234 73.3032 752.132 76.3521 752.15 80.1587C752.237 105.16 752.15 153.425 752.15 153.425H839.866" stroke="#C06520" stroke-width="2.19" stroke-linecap="round" stroke-linejoin="round"/>
<path d="M789.276 141.599V212.389" stroke="#C06520" stroke-width="2.19" stroke-linecap="round" stroke-linejoin="round"/>
<path d="M727.545 130.955V146.514C727.545 149.045 725.607 151.096 723.214 151.096H701.403" stroke="#C06520" stroke-width="2.19" stroke-linecap="round" stroke-linejoin="round"/>
<path d="M701.403 130.955V182.62C701.403 184.838 703.097 186.63 705.193 186.63H740.223L755.747 200.914V224.418" stroke="#C06520" stroke-width="2.19" stroke-linecap="round" stroke-linejoin="round"/>
<path d="M663.614 242.638V131.066" stroke="#C06520" stroke-width="2.19" stroke-linecap="round" stroke-linejoin="round"/>
<path d="M704.267 209.192H692.602C688.62 209.192 685.39 212.611 685.39 216.824V243.1" stroke="#C06520" stroke-width="2.19" stroke-linecap="round" stroke-linejoin="round"/>
<path d="M764.06 217.674V218.468C764.06 221.702 766.539 224.326 769.595 224.326H788.874" stroke="#C06520" stroke-width="2.19" stroke-linecap="round" stroke-linejoin="round"/>
<path d="M686.001 235.266H714.099" stroke="#C06520" stroke-width="2.19" stroke-linecap="round" stroke-linejoin="round"/>
<path d="M686.001 224.714H714.099" stroke="#C06520" stroke-width="2.19" stroke-linecap="round" stroke-linejoin="round"/>
<path d="M685.005 136.093C687.542 136.093 689.598 133.917 689.598 131.233C689.598 128.549 687.542 126.373 685.005 126.373C682.469 126.373 680.413 128.549 680.413 131.233C680.413 133.917 682.469 136.093 685.005 136.093Z" fill="black" stroke="#C06520" stroke-width="2.19" stroke-miterlimit="10"/>
<path d="M789.276 141.598C791.813 141.598 793.869 139.423 793.869 136.739C793.869 134.055 791.813 131.879 789.276 131.879C786.74 131.879 784.683 134.055 784.683 136.739C784.683 139.423 786.74 141.598 789.276 141.598Z" fill="black" stroke="#C06520" stroke-width="2.19" stroke-miterlimit="10"/>
<path d="M764.287 180.977H763.85C761.188 180.977 759.03 183.26 759.03 186.077V191.694C759.03 194.511 761.188 196.794 763.85 196.794H764.287C766.948 196.794 769.106 194.511 769.106 191.694V186.077C769.106 183.26 766.948 180.977 764.287 180.977Z" fill="black" stroke="#C06520" stroke-width="2.19" stroke-miterlimit="10"/>
<path d="M714.902 194.225H714.029C708.637 194.225 704.267 198.849 704.267 204.554V205.478C704.267 211.183 708.637 215.807 714.029 215.807H714.902C720.293 215.807 724.663 211.183 724.663 205.478V204.554C724.663 198.849 720.293 194.225 714.902 194.225Z" fill="black" stroke="#C06520" stroke-width="2.19" stroke-miterlimit="10"/>
<path d="M714.727 198.401H714.203C710.895 198.401 708.214 201.239 708.214 204.739V205.294C708.214 208.794 710.895 211.632 714.203 211.632H714.727C718.035 211.632 720.717 208.794 720.717 205.294V204.739C720.717 201.239 718.035 198.401 714.727 198.401Z" fill="black" stroke="#C06520" stroke-width="2.19" stroke-miterlimit="10"/>
<path d="M614.316 124.174H613.792C610.484 124.174 607.802 127.011 607.802 130.512V131.066C607.802 134.567 610.484 137.404 613.792 137.404H614.316C617.624 137.404 620.306 134.567 620.306 131.066V130.512C620.306 127.011 617.624 124.174 614.316 124.174Z" fill="black" stroke="#C06520" stroke-width="2.19" stroke-miterlimit="10"/>
<path d="M569.733 125.19H554.611C549.701 125.19 545.722 129.401 545.722 134.596V152.815C545.722 158.01 549.701 162.221 554.611 162.221H569.733C574.642 162.221 578.622 158.01 578.622 152.815V134.596C578.622 129.401 574.642 125.19 569.733 125.19Z" fill="black" stroke="#C06520" stroke-width="2.19" stroke-linecap="round" stroke-linejoin="round"/>
<path d="M782.741 216.392L782.149 217.019C778.527 220.851 778.527 227.063 782.149 230.895L782.741 231.522C786.363 235.354 792.234 235.354 795.855 231.522L796.448 230.895C800.069 227.063 800.069 220.851 796.448 217.019L795.855 216.392C792.234 212.56 786.363 212.56 782.741 216.392Z" fill="black" stroke="#C06520" stroke-width="2.19" stroke-miterlimit="10"/>
<path d="M795.248 231.071C795.248 227.578 792.576 224.751 789.276 224.751C785.975 224.751 783.304 227.578 783.304 231.071" fill="black"/>
<path d="M795.248 231.071C795.248 227.578 792.576 224.751 789.276 224.751C785.975 224.751 783.304 227.578 783.304 231.071" stroke="#C06520" stroke-width="2.19" stroke-miterlimit="10" stroke-linecap="round"/>
<path d="M789.276 229.001L785.19 220.501" stroke="#C06520" stroke-width="2.19" stroke-linecap="round" stroke-linejoin="round"/>
<path d="M635.673 130.752V74.7632" stroke="#C06520" stroke-width="2.19" stroke-linecap="round" stroke-linejoin="round"/>
<path d="M714.098 110.814H689.406C686.979 110.814 685.005 108.726 685.005 106.158V73.4883" stroke="#C06520" stroke-width="2.19" stroke-linejoin="round"/>
<path d="M664.033 86.7183H663.09C657.438 86.7183 652.856 91.5662 652.856 97.5465V98.5444C652.856 104.525 657.438 109.373 663.09 109.373H664.033C669.684 109.373 674.266 104.525 674.266 98.5444V97.5465C674.266 91.5662 669.684 86.7183 664.033 86.7183Z" fill="black" stroke="#C06520" stroke-width="2.19" stroke-linecap="round" stroke-linejoin="round"/>
<path d="M773.315 61.2002H752.377C746.822 61.2002 742.318 65.9654 742.318 71.8437V72.8045C742.318 78.6828 746.822 83.448 752.377 83.448H773.315C778.87 83.448 783.373 78.6828 783.373 72.8045V71.8437C783.373 65.9654 778.87 61.2002 773.315 61.2002Z" fill="black" stroke="#C06520" stroke-width="2.19" stroke-miterlimit="10"/>
<mask id="mask0_49_79" style="mask-type:luminance" maskUnits="userSpaceOnUse" x="549" y="130" width="26" height="28">
<path d="M562.172 157.084C569.155 157.084 574.815 151.094 574.815 143.705C574.815 136.317 569.155 130.327 562.172 130.327C555.189 130.327 549.529 136.317 549.529 143.705C549.529 151.094 555.189 157.084 562.172 157.084Z" fill="white"/>
</mask>
<g mask="url(#mask0_49_79)">
<path d="M570.1 96.9556L516.175 154.016" stroke="#C06520" stroke-width="0.45" stroke-miterlimit="10"/>
<path d="M572.492 99.4688L518.55 156.548" stroke="#C06520" stroke-width="0.45" stroke-miterlimit="10"/>
<path d="M574.867 101.981L520.925 159.061" stroke="#C06520" stroke-width="0.45" stroke-miterlimit="10"/>
<path d="M577.242 104.513L523.317 161.574" stroke="#C06520" stroke-width="0.45" stroke-miterlimit="10"/>
<path d="M579.617 107.026L525.692 164.087" stroke="#C06520" stroke-width="0.45" stroke-miterlimit="10"/>
<path d="M582.01 109.539L528.067 166.618" stroke="#C06520" stroke-width="0.45" stroke-miterlimit="10"/>
<path d="M584.385 112.052L530.442 169.132" stroke="#C06520" stroke-width="0.45" stroke-miterlimit="10"/>
<path d="M586.76 114.584L532.834 171.645" stroke="#C06520" stroke-width="0.45" stroke-miterlimit="10"/>
<path d="M589.134 117.097L535.209 174.158" stroke="#C06520" stroke-width="0.45" stroke-miterlimit="10"/>
<path d="M591.527 119.61L537.584 176.671" stroke="#C06520" stroke-width="0.45" stroke-miterlimit="10"/>
<path d="M593.902 122.123L539.959 179.202" stroke="#C06520" stroke-width="0.45" stroke-miterlimit="10"/>
<path d="M596.277 124.636L542.352 181.716" stroke="#C06520" stroke-width="0.45" stroke-miterlimit="10"/>
<path d="M598.652 127.168L544.726 184.229" stroke="#C06520" stroke-width="0.45" stroke-miterlimit="10"/>
<path d="M601.027 129.681L547.101 186.742" stroke="#C06520" stroke-width="0.45" stroke-miterlimit="10"/>
<path d="M603.419 132.193L549.476 189.273" stroke="#C06520" stroke-width="0.45" stroke-miterlimit="10"/>
<path d="M605.794 134.707L551.851 191.786" stroke="#C06520" stroke-width="0.45" stroke-miterlimit="10"/>
<path d="M608.169 137.238L554.244 194.299" stroke="#C06520" stroke-width="0.45" stroke-miterlimit="10"/>
<path d="M516.175 137.238L570.1 194.299" stroke="#C06520" stroke-width="0.45" stroke-miterlimit="10"/>
<path d="M518.55 134.707L572.492 191.786" stroke="#C06520" stroke-width="0.45" stroke-miterlimit="10"/>
<path d="M520.925 132.193L574.867 189.273" stroke="#C06520" stroke-width="0.45" stroke-miterlimit="10"/>
<path d="M523.317 129.681L577.242 186.742" stroke="#C06520" stroke-width="0.45" stroke-miterlimit="10"/>
<path d="M525.692 127.168L579.617 184.229" stroke="#C06520" stroke-width="0.45" stroke-miterlimit="10"/>
<path d="M528.067 124.636L582.01 181.716" stroke="#C06520" stroke-width="0.45" stroke-miterlimit="10"/>
<path d="M530.442 122.123L584.385 179.202" stroke="#C06520" stroke-width="0.45" stroke-miterlimit="10"/>
<path d="M532.834 119.61L586.76 176.671" stroke="#C06520" stroke-width="0.45" stroke-miterlimit="10"/>
<path d="M535.209 117.097L589.134 174.158" stroke="#C06520" stroke-width="0.45" stroke-miterlimit="10"/>
<path d="M537.584 114.584L591.527 171.645" stroke="#C06520" stroke-width="0.45" stroke-miterlimit="10"/>
<path d="M539.959 112.052L593.902 169.132" stroke="#C06520" stroke-width="0.45" stroke-miterlimit="10"/>
<path d="M542.352 109.539L596.277 166.618" stroke="#C06520" stroke-width="0.45" stroke-miterlimit="10"/>
<path d="M544.726 107.026L598.652 164.087" stroke="#C06520" stroke-width="0.45" stroke-miterlimit="10"/>
<path d="M547.101 104.513L601.027 161.574" stroke="#C06520" stroke-width="0.45" stroke-miterlimit="10"/>
<path d="M549.476 101.981L603.419 159.061" stroke="#C06520" stroke-width="0.45" stroke-miterlimit="10"/>
<path d="M551.851 99.4688L605.794 156.548" stroke="#C06520" stroke-width="0.45" stroke-miterlimit="10"/>
<path d="M554.244 96.9556L608.169 154.016" stroke="#C06520" stroke-width="0.45" stroke-miterlimit="10"/>
</g>
<path d="M562.172 157.084C569.155 157.084 574.815 151.094 574.815 143.705C574.815 136.317 569.155 130.327 562.172 130.327C555.189 130.327 549.529 136.317 549.529 143.705C549.529 151.094 555.189 157.084 562.172 157.084Z" stroke="#C06520" stroke-width="2.09" stroke-miterlimit="10"/>
<path d="M175.684 119.813V142.079" stroke="#C06520" stroke-width="2.19" stroke-linecap="round" stroke-linejoin="round"/>
<path d="M78.5561 37.252V136.092H4.12946V144.5" stroke="#C06520" stroke-width="2.19" stroke-linecap="round" stroke-linejoin="round"/>
<path d="M26.6041 108.597H78.5561V30.5078" stroke="#C06520" stroke-width="2.19" stroke-linejoin="round"/>
<path d="M78.5561 18.7925V117.633H16.79V136.462" stroke="#C06520" stroke-width="2.19" stroke-linejoin="round"/>
<path d="M28.071 156.123H49.2534" stroke="#C06520" stroke-width="2.19" stroke-linejoin="round"/>
<path d="M8.09351 175.729H49.2534" stroke="#C06520" stroke-width="2.19" stroke-linejoin="round"/>
<path d="M28.071 195.315H49.2534" stroke="#C06520" stroke-width="2.19" stroke-linejoin="round"/>
<path d="M78.4513 89.4902H104.261" stroke="#C06520" stroke-width="2.19" stroke-linecap="round" stroke-linejoin="round"/>
<path d="M78.4513 136.166H104.261" stroke="#C06520" stroke-width="2.19" stroke-linecap="round" stroke-linejoin="round"/>
<path d="M78.556 108.597V166.729C78.556 171.885 82.5026 176.042 87.3573 176.042H181.517C183.735 176.042 185.516 177.946 185.516 180.274V201.376C185.516 206.328 189.305 210.338 193.985 210.338H247.544" stroke="#C06520" stroke-width="2.19" stroke-linecap="round" stroke-linejoin="round"/>
<path d="M75.7794 218.542C77.3685 217.064 78.9751 215.549 80.5642 214.052C92.5961 202.799 104.314 191.952 104.314 191.952L104.436 116.025L92.2469 103.127" stroke="#C06520" stroke-width="2.19" stroke-linecap="round" stroke-linejoin="round"/>
<path d="M126.928 73.4883V134.54C126.928 138.717 130.124 142.098 134.07 142.098H247.561C255.088 142.098 256.921 138.624 256.921 132.194V84.6307C256.921 84.6307 255.926 75.7426 265.321 75.7426H304.246" stroke="#C06520" stroke-width="2.19" stroke-linecap="round" stroke-linejoin="round"/>
<path d="M153.367 142.079V95.5511C153.367 92.4653 155.724 89.9707 158.641 89.9707H244.715" stroke="#C06520" stroke-width="2.19" stroke-linejoin="round"/>
<path d="M175.684 116.025H223.76" stroke="#C06520" stroke-width="2.19" stroke-linecap="round" stroke-linejoin="round"/>
<path d="M204.428 142.079L204.463 253.152" stroke="#C06520" stroke-width="2.19" stroke-linecap="round" stroke-linejoin="round"/>
<path d="M126.928 73.4883H244.715" stroke="#C06520" stroke-width="2.19" stroke-linejoin="round"/>
<path d="M153.821 253.153L153.367 211.336C153.367 208.583 151.254 206.347 148.652 206.347H55.6973C52.0475 206.347 49.0789 203.206 49.0789 199.344V136.573" stroke="#C06520" stroke-width="2.19" stroke-linecap="round" stroke-linejoin="round"/>
<path d="M128.151 188.386V176.061" stroke="#C06520" stroke-width="2.19" stroke-linecap="round" stroke-linejoin="round"/>
<path d="M128.15 199.713V223.014C128.15 226.747 125.287 229.777 121.759 229.777H78.8878" stroke="#C06520" stroke-width="2.19" stroke-linecap="round" stroke-linejoin="round"/>
<path d="M26.6041 117.632C26.8137 117.632 26.6041 29.9346 26.6041 29.9346" stroke="#C06520" stroke-width="2.19" stroke-linecap="round" stroke-linejoin="round"/>
<path d="M126.928 81.6553H244.732" stroke="#C06520" stroke-width="2.19" stroke-linejoin="round"/>
<path d="M140.759 81.6553V157.619" stroke="#C06520" stroke-width="2.19" stroke-linecap="round" stroke-linejoin="round"/>
<path d="M165.381 90.3032V142.005" stroke="#C06520" stroke-width="2.19" stroke-linecap="round" stroke-linejoin="round"/>
<path d="M176.156 129.459C176.296 129.921 229.068 129.57 241.746 129.477C243.248 129.477 244.453 128.165 244.453 126.576V55.2315C244.453 52.0348 242.008 49.4663 239.005 49.4663H182.058C176.296 49.4663 171.633 54.4 171.633 60.4978V73.488" stroke="#C06520" stroke-width="2.19" stroke-linecap="round" stroke-linejoin="round"/>
<path d="M85.4015 20.3999H109.692C113.29 20.3999 116.188 23.4488 116.206 27.2553C116.293 52.2564 116.171 175.987 116.171 175.987" stroke="#C06520" stroke-width="2.19" stroke-linecap="round" stroke-linejoin="round"/>
<path d="M117.009 158.766H203.939" stroke="#C06520" stroke-width="2.19" stroke-linecap="round" stroke-linejoin="round"/>
<path d="M153.367 146.939V175.008" stroke="#C06520" stroke-width="2.19" stroke-linecap="round" stroke-linejoin="round"/>
<path d="M204.812 193.116H226.746C230.413 193.116 233.382 189.975 233.382 186.095V123.102C233.382 119.259 230.448 116.117 226.816 116.08L223.76 116.043" stroke="#C06520" stroke-width="2.19" stroke-linecap="round" stroke-linejoin="round"/>
<path d="M167.791 253.762V165.011" stroke="#C06520" stroke-width="2.19" stroke-linecap="round" stroke-linejoin="round"/>
<path d="M91.6357 136.296V151.855C91.6357 154.386 89.6973 156.437 87.3049 156.437H79.1149" stroke="#C06520" stroke-width="2.19" stroke-linecap="round" stroke-linejoin="round"/>
<path d="M91.6357 89.6196V103.792C91.6357 106.324 89.6973 108.375 87.3049 108.375H79.1149" stroke="#C06520" stroke-width="2.19" stroke-linecap="round" stroke-linejoin="round"/>
<path d="M133.25 195.186C133.145 195.296 168.542 195.186 168.542 195.186" stroke="#C06520" stroke-width="2.19" stroke-linecap="round" stroke-linejoin="round"/>
<path d="M197.076 210.172V158.895" stroke="#C06520" stroke-width="2.19" stroke-linecap="round" stroke-linejoin="round"/>
<path d="M199.573 229.297H169.136" stroke="#C06520" stroke-width="2.19" stroke-linecap="round" stroke-linejoin="round"/>
<path d="M65.4939 136.296V187.961C65.4939 190.179 67.1878 191.971 69.2833 191.971H104.314L119.838 206.255" stroke="#C06520" stroke-width="2.19" stroke-linecap="round" stroke-linejoin="round"/>
<path d="M28.0885 253.152L27.6868 136.406" stroke="#C06520" stroke-width="2.19" stroke-linecap="round" stroke-linejoin="round"/>
<path d="M39.0202 195.888L38.5662 255" stroke="#C06520" stroke-width="2.19" stroke-linejoin="round"/>
<path d="M68.3577 214.532H56.6925C52.711 214.532 49.4804 217.951 49.4804 222.164L49.0438 253.152" stroke="#C06520" stroke-width="2.19" stroke-linecap="round" stroke-linejoin="round"/>
<path d="M128.151 223.014V223.808C128.151 227.042 130.63 229.666 133.686 229.666H152.965" stroke="#C06520" stroke-width="2.19" stroke-linecap="round" stroke-linejoin="round"/>
<path d="M50.0742 240.605H78.1719" stroke="#C06520" stroke-width="2.19" stroke-linecap="round" stroke-linejoin="round"/>
<path d="M50.0742 230.979H78.1719" stroke="#C06520" stroke-width="2.19" stroke-linecap="round" stroke-linejoin="round"/>
<path d="M49.0788 141.432C51.6153 141.432 53.6715 139.257 53.6715 136.573C53.6715 133.889 51.6153 131.713 49.0788 131.713C46.5423 131.713 44.4861 133.889 44.4861 136.573C44.4861 139.257 46.5423 141.432 49.0788 141.432Z" fill="black" stroke="#C06520" stroke-width="2.19" stroke-miterlimit="10"/>
<path d="M153.367 146.939C155.903 146.939 157.96 144.763 157.96 142.08C157.96 139.396 155.903 137.22 153.367 137.22C150.83 137.22 148.774 139.396 148.774 142.08C148.774 144.763 150.83 146.939 153.367 146.939Z" fill="black" stroke="#C06520" stroke-width="2.19" stroke-miterlimit="10"/>
<path d="M204.411 146.939C206.947 146.939 209.003 144.763 209.003 142.08C209.003 139.396 206.947 137.22 204.411 137.22C201.874 137.22 199.818 139.396 199.818 142.08C199.818 144.763 201.874 146.939 204.411 146.939Z" fill="black" stroke="#C06520" stroke-width="2.19" stroke-miterlimit="10"/>
<path d="M78.5561 113.456C81.0926 113.456 83.1488 111.281 83.1488 108.597C83.1488 105.913 81.0926 103.737 78.5561 103.737C76.0196 103.737 73.9634 105.913 73.9634 108.597C73.9634 111.281 76.0196 113.456 78.5561 113.456Z" fill="black" stroke="#C06520" stroke-width="2.19" stroke-miterlimit="10"/>
<path d="M204.166 234.156C206.703 234.156 208.759 231.98 208.759 229.296C208.759 226.612 206.703 224.437 204.166 224.437C201.63 224.437 199.573 226.612 199.573 229.296C199.573 231.98 201.63 234.156 204.166 234.156Z" fill="black" stroke="#C06520" stroke-width="2.19" stroke-miterlimit="10"/>
<path d="M128.36 186.298H127.924C125.262 186.298 123.104 188.581 123.104 191.398V197.015C123.104 199.832 125.262 202.115 127.924 202.115H128.36C131.022 202.115 133.18 199.832 133.18 197.015V191.398C133.18 188.581 131.022 186.298 128.36 186.298Z" fill="black" stroke="#C06520" stroke-width="2.19" stroke-miterlimit="10"/>
<path d="M78.9927 199.565H78.1195C72.7283 199.565 68.3578 204.19 68.3578 209.895V210.819C68.3578 216.523 72.7283 221.148 78.1195 221.148H78.9927C84.3839 221.148 88.7544 216.523 88.7544 210.819V209.895C88.7544 204.19 84.3839 199.565 78.9927 199.565Z" fill="black" stroke="#C06520" stroke-width="2.19" stroke-miterlimit="10"/>
<path d="M78.818 203.741H78.2941C74.986 203.741 72.3043 206.579 72.3043 210.079V210.634C72.3043 214.134 74.986 216.972 78.2941 216.972H78.818C82.126 216.972 84.8077 214.134 84.8077 210.634V210.079C84.8077 206.579 82.126 203.741 78.818 203.741Z" fill="black" stroke="#C06520" stroke-width="2.19" stroke-miterlimit="10"/>
<path d="M0.549561 152.815H7.69186C6.9235 150.358 6.9235 147.715 7.69186 145.258H0.549561C1.31793 147.715 1.31793 150.358 0.549561 152.815Z" fill="black" stroke="#C06520" stroke-width="2.19" stroke-linecap="round" stroke-linejoin="round"/>
<path d="M0.549561 156.604H7.69186" stroke="#C06520" stroke-width="2.19" stroke-linecap="round" stroke-linejoin="round"/>
<path d="M4.74066 223.956H27.6344" stroke="#C06520" stroke-width="2.19" stroke-linecap="round" stroke-linejoin="round"/>
<path d="M27.6344 209.691C30.1709 209.691 32.2271 207.515 32.2271 204.831C32.2271 202.147 30.1709 199.972 27.6344 199.972C25.0979 199.972 23.0417 202.147 23.0417 204.831C23.0417 207.515 25.0979 209.691 27.6344 209.691Z" fill="black" stroke="#C06520" stroke-width="2.19" stroke-miterlimit="10"/>
<path d="M4.74066 224.308L3.6405 255" stroke="#C06520" stroke-width="2.19" stroke-miterlimit="10"/>
<path d="M4.74067 229.168C7.27717 229.168 9.3334 226.992 9.3334 224.308C9.3334 221.624 7.27717 219.448 4.74067 219.448C2.20418 219.448 0.147949 221.624 0.147949 224.308C0.147949 226.992 2.20418 229.168 4.74067 229.168Z" fill="black" stroke="#C06520" stroke-width="2.19" stroke-miterlimit="10"/>
<path d="M4.12946 156.604V167.635" stroke="#C06520" stroke-width="2.19" stroke-linecap="round" stroke-linejoin="round"/>
<path d="M609.217 194.373V224.899H577.644" stroke="#C06520" stroke-width="2.19" stroke-linejoin="round"/>
<path d="M619.921 194.373V224.899H663.613" stroke="#C06520" stroke-width="2.19" stroke-linejoin="round"/>
<path d="M616.708 219.577H611.4C608.738 219.577 606.58 221.86 606.58 224.677V225.139C606.58 227.956 608.738 230.239 611.4 230.239H616.708C619.37 230.239 621.528 227.956 621.528 225.139V224.677C621.528 221.86 619.37 219.577 616.708 219.577Z" fill="black" stroke="#C06520" stroke-width="2.19" stroke-linecap="round" stroke-linejoin="round"/>
<path d="M599.665 156.973H627.972" stroke="#C06520" stroke-width="2.19" stroke-linecap="round" stroke-linejoin="round"/>
<path d="M613.687 161.186H613.967" stroke="#C06520" stroke-width="2.19" stroke-linecap="round" stroke-linejoin="round"/>
<path d="M618.979 161.186H619.24" stroke="#C06520" stroke-width="2.19" stroke-linecap="round" stroke-linejoin="round"/>
<path d="M624.252 161.186H624.532" stroke="#C06520" stroke-width="2.19" stroke-linecap="round" stroke-linejoin="round"/>
<path d="M603.14 161.186H603.402" stroke="#C06520" stroke-width="2.19" stroke-linecap="round" stroke-linejoin="round"/>
<path d="M608.413 161.186H608.693" stroke="#C06520" stroke-width="2.19" stroke-linecap="round" stroke-linejoin="round"/>
<path d="M19.9437 12.1154L19.351 12.7426C15.7297 16.5744 15.7297 22.787 19.351 26.6188L19.9437 27.2459C23.5649 31.0777 29.4361 31.0777 33.0573 27.2459L33.6501 26.6188C37.2713 22.787 37.2713 16.5744 33.6501 12.7426L33.0573 12.1154C29.4361 8.28358 23.5649 8.28358 19.9437 12.1154Z" fill="black" stroke="#C06520" stroke-width="2.19" stroke-miterlimit="10"/>
<path d="M32.4542 26.7937C32.4542 23.3013 29.7823 20.4741 26.4819 20.4741C23.1814 20.4741 20.5096 23.3013 20.5096 26.7937" fill="black"/>
<path d="M32.4542 26.7937C32.4542 23.3013 29.7823 20.4741 26.4819 20.4741C23.1814 20.4741 20.5096 23.3013 20.5096 26.7937" stroke="#C06520" stroke-width="2.19" stroke-miterlimit="10" stroke-linecap="round"/>
<path d="M26.4819 24.7241L22.3781 16.2241" stroke="#C06520" stroke-width="2.19" stroke-linecap="round" stroke-linejoin="round"/>
<path d="M71.9984 12.1173L71.4057 12.7445C67.7845 16.5763 67.7845 22.7889 71.4057 26.6207L71.9984 27.2479C75.6197 31.0797 81.4908 31.0797 85.1121 27.2479L85.7048 26.6207C89.326 22.7889 89.326 16.5763 85.7048 12.7445L85.1121 12.1173C81.4908 8.28554 75.6197 8.28554 71.9984 12.1173Z" fill="black" stroke="#C06520" stroke-width="2.19" stroke-miterlimit="10"/>
<path d="M84.5283 26.7937C84.5283 23.3013 81.8565 20.4741 78.556 20.4741C75.2556 20.4741 72.5837 23.3013 72.5837 26.7937" fill="black"/>
<path d="M84.5283 26.7937C84.5283 23.3013 81.8565 20.4741 78.556 20.4741C75.2556 20.4741 72.5837 23.3013 72.5837 26.7937" stroke="#C06520" stroke-width="2.19" stroke-miterlimit="10" stroke-linecap="round"/>
<path d="M78.556 24.7238L79.1148 15.2075" stroke="#C06520" stroke-width="2.19" stroke-linecap="round" stroke-linejoin="round"/>
<path d="M52.6412 18.7925V117.633" stroke="#C06520" stroke-width="2.19" stroke-linecap="round" stroke-linejoin="round"/>
<path d="M46.1073 12.111L45.5146 12.7382C41.8934 16.57 41.8934 22.7826 45.5146 26.6144L46.1073 27.2415C49.7285 31.0734 55.5997 31.0734 59.221 27.2415L59.8137 26.6144C63.4349 22.7826 63.4349 16.57 59.8137 12.7382L59.221 12.111C55.5997 8.27919 49.7285 8.27919 46.1073 12.111Z" fill="black" stroke="#C06520" stroke-width="2.19" stroke-miterlimit="10"/>
<path d="M58.6135 26.7937C58.6135 23.3013 55.9417 20.4741 52.6412 20.4741C49.3408 20.4741 46.6689 23.3013 46.6689 26.7937" fill="black"/>
<path d="M58.6135 26.7937C58.6135 23.3013 55.9417 20.4741 52.6412 20.4741C49.3408 20.4741 46.6689 23.3013 46.6689 26.7937" stroke="#C06520" stroke-width="2.19" stroke-miterlimit="10" stroke-linecap="round"/>
<path d="M52.6412 24.7239L50.9298 15.3555" stroke="#C06520" stroke-width="2.19" stroke-linecap="round" stroke-linejoin="round"/>
<path d="M714.098 78.1629C716.635 78.1629 718.691 75.9871 718.691 73.3031C718.691 70.6192 716.635 68.4434 714.098 68.4434C711.562 68.4434 709.506 70.6192 709.506 73.3031C709.506 75.9871 711.562 78.1629 714.098 78.1629Z" fill="black" stroke="#C06520" stroke-width="2.19" stroke-miterlimit="10"/>
<path d="M1371.77 146.607H1440.19V83.8174" stroke="#C06520" stroke-width="2.19" stroke-linecap="round" stroke-linejoin="round"/>
<path d="M1440.19 65.3574V128.147H1372.03V146.957" stroke="#C06520" stroke-width="2.19" stroke-linecap="round" stroke-linejoin="round"/>
<path d="M1389.68 166.637H1410.88" stroke="#C06520" stroke-width="2.19" stroke-linejoin="round"/>
<path d="M1389.68 186.224H1410.88" stroke="#C06520" stroke-width="2.19" stroke-linejoin="round"/>
<path d="M1389.68 205.829H1410.88" stroke="#C06520" stroke-width="2.19" stroke-linejoin="round"/>
<path d="M1440.06 100.004H1476.96" stroke="#C06520" stroke-width="2.19" stroke-linecap="round" stroke-linejoin="round"/>
<path d="M1440.06 146.681H1465.89" stroke="#C06520" stroke-width="2.19" stroke-linecap="round" stroke-linejoin="round"/>
<path d="M1440.19 119.111V177.243C1440.19 182.399 1444.13 186.556 1448.99 186.556H1543.15C1545.36 186.556 1547.15 188.46 1547.15 190.788V211.89C1547.15 216.842 1550.93 220.852 1555.61 220.852H1613.82" stroke="#C06520" stroke-width="2.19" stroke-linecap="round" stroke-linejoin="round"/>
<path d="M1437.41 229.056C1439 227.578 1440.6 226.063 1442.19 224.566C1454.23 213.313 1465.94 202.466 1465.94 202.466L1466.07 126.539L1453.88 113.641" stroke="#C06520" stroke-width="2.19" stroke-linecap="round" stroke-linejoin="round"/>
<path d="M1489.17 65.9121H1582.11C1589.23 65.9121 1594.99 72.0284 1594.99 79.5491V133.598" stroke="#C06520" stroke-width="2.19" stroke-linecap="round" stroke-linejoin="round"/>
<path d="M1488.54 83.9839V145.036C1488.54 149.212 1491.74 152.594 1495.68 152.594H1609.17" stroke="#C06520" stroke-width="2.19" stroke-linecap="round" stroke-linejoin="round"/>
<path d="M1514.98 152.594V106.065C1514.98 102.979 1517.34 100.485 1520.25 100.485H1595.01" stroke="#C06520" stroke-width="2.19" stroke-linecap="round" stroke-linejoin="round"/>
<path d="M1585.39 126.539H1544.26C1540.44 126.539 1537.33 129.828 1537.33 133.875V152.575" stroke="#C06520" stroke-width="2.19" stroke-linecap="round" stroke-linejoin="round"/>
<path d="M1567 186.575H1611.78C1612.91 186.575 1613.82 187.555 1613.82 188.737V239.682" stroke="#C06520" stroke-width="2.19" stroke-linecap="round" stroke-linejoin="round"/>
<path d="M1488.54 83.9839H1595.01" stroke="#C06520" stroke-width="2.19" stroke-linecap="round" stroke-linejoin="round"/>
<path d="M1514.98 252.783V221.831C1514.98 219.078 1512.87 216.842 1510.26 216.842H1417.31C1413.66 216.842 1410.69 213.701 1410.69 209.839V147.068" stroke="#C06520" stroke-width="2.19" stroke-linecap="round" stroke-linejoin="round"/>
<path d="M1489.76 198.882V186.575" stroke="#C06520" stroke-width="2.19" stroke-linecap="round" stroke-linejoin="round"/>
<path d="M1489.76 210.228V233.529C1489.76 237.261 1486.9 240.292 1483.37 240.292H1440.5" stroke="#C06520" stroke-width="2.19" stroke-linecap="round" stroke-linejoin="round"/>
<path d="M1488.54 92.1694H1595.01" stroke="#C06520" stroke-width="2.19" stroke-linecap="round" stroke-linejoin="round"/>
<path d="M1502.39 92.1694V168.134" stroke="#C06520" stroke-width="2.19" stroke-linecap="round" stroke-linejoin="round"/>
<path d="M1526.99 100.817V152.52" stroke="#C06520" stroke-width="2.19" stroke-linecap="round" stroke-linejoin="round"/>
<path d="M1466.22 70.3096H1471.34C1474.94 70.3096 1477.84 73.3585 1477.85 77.165C1477.94 102.166 1477.82 186.501 1477.82 186.501" stroke="#C06520" stroke-width="2.19" stroke-linecap="round" stroke-linejoin="round"/>
<path d="M1478.64 169.279H1565.55" stroke="#C06520" stroke-width="2.19" stroke-linecap="round" stroke-linejoin="round"/>
<path d="M1514.98 157.453V185.522" stroke="#C06520" stroke-width="2.19" stroke-linecap="round" stroke-linejoin="round"/>
<path d="M1566.42 203.63H1588.36C1592.03 203.63 1594.99 200.489 1594.99 196.609V133.616C1594.99 129.773 1592.06 126.632 1588.43 126.595L1585.37 126.558" stroke="#C06520" stroke-width="2.19" stroke-linecap="round" stroke-linejoin="round"/>
<path d="M1453.25 146.81V162.368C1453.25 164.9 1451.31 166.951 1448.92 166.951H1440.73" stroke="#C06520" stroke-width="2.19" stroke-linecap="round" stroke-linejoin="round"/>
<path d="M1453.25 100.134V114.307C1453.25 116.838 1451.31 118.889 1448.92 118.889H1440.73" stroke="#C06520" stroke-width="2.19" stroke-linecap="round" stroke-linejoin="round"/>
<path d="M1494.86 205.7C1494.76 205.811 1530.15 205.7 1530.15 205.7" stroke="#C06520" stroke-width="2.19" stroke-linecap="round" stroke-linejoin="round"/>
<path d="M1558.71 220.686V169.391" stroke="#C06520" stroke-width="2.19" stroke-linecap="round" stroke-linejoin="round"/>
<path d="M1427.11 146.81V198.475C1427.11 200.692 1428.8 202.485 1430.9 202.485H1465.93L1481.45 216.768" stroke="#C06520" stroke-width="2.19" stroke-linecap="round" stroke-linejoin="round"/>
<path d="M1489.76 233.528V234.323C1489.76 237.557 1492.24 240.18 1495.3 240.18H1514.58" stroke="#C06520" stroke-width="2.19" stroke-linecap="round" stroke-linejoin="round"/>
<path d="M1411.7 240.568H1439.8" stroke="#C06520" stroke-width="2.19" stroke-linecap="round" stroke-linejoin="round"/>
<path d="M1410.71 151.947C1413.24 151.947 1415.3 149.771 1415.3 147.087C1415.3 144.403 1413.24 142.228 1410.71 142.228C1408.17 142.228 1406.12 144.403 1406.12 147.087C1406.12 149.771 1408.17 151.947 1410.71 151.947Z" fill="black" stroke="#C06520" stroke-width="2.19" stroke-miterlimit="10"/>
<path d="M1514.98 157.453C1517.52 157.453 1519.57 155.277 1519.57 152.593C1519.57 149.909 1517.52 147.733 1514.98 147.733C1512.44 147.733 1510.39 149.909 1510.39 152.593C1510.39 155.277 1512.44 157.453 1514.98 157.453Z" fill="black" stroke="#C06520" stroke-width="2.19" stroke-miterlimit="10"/>
<path d="M1566.04 157.453C1568.58 157.453 1570.63 155.277 1570.63 152.593C1570.63 149.909 1568.58 147.733 1566.04 147.733C1563.5 147.733 1561.45 149.909 1561.45 152.593C1561.45 155.277 1563.5 157.453 1566.04 157.453Z" fill="black" stroke="#C06520" stroke-width="2.19" stroke-miterlimit="10"/>
<path d="M1440.19 123.971C1442.72 123.971 1444.78 121.795 1444.78 119.111C1444.78 116.427 1442.72 114.251 1440.19 114.251C1437.65 114.251 1435.59 116.427 1435.59 119.111C1435.59 121.795 1437.65 123.971 1440.19 123.971Z" fill="black" stroke="#C06520" stroke-width="2.19" stroke-miterlimit="10"/>
<path d="M1489.99 196.812H1489.55C1486.89 196.812 1484.73 199.095 1484.73 201.912V207.529C1484.73 210.346 1486.89 212.629 1489.55 212.629H1489.99C1492.65 212.629 1494.81 210.346 1494.81 207.529V201.912C1494.81 199.095 1492.65 196.812 1489.99 196.812Z" fill="black" stroke="#C06520" stroke-width="2.19" stroke-miterlimit="10"/>
<path d="M1440.61 210.079H1439.73C1434.34 210.079 1429.97 214.704 1429.97 220.408V221.332C1429.97 227.037 1434.34 231.662 1439.73 231.662H1440.61C1446 231.662 1450.37 227.037 1450.37 221.332V220.408C1450.37 214.704 1446 210.079 1440.61 210.079Z" fill="black" stroke="#C06520" stroke-width="2.19" stroke-miterlimit="10"/>
<path d="M1440.43 214.256H1439.91C1436.6 214.256 1433.92 217.093 1433.92 220.594V221.148C1433.92 224.649 1436.6 227.486 1439.91 227.486H1440.43C1443.74 227.486 1446.42 224.649 1446.42 221.148V220.594C1446.42 217.093 1443.74 214.256 1440.43 214.256Z" fill="black" stroke="#C06520" stroke-width="2.19" stroke-miterlimit="10"/>
<path d="M1665.77 146.606V66.54H1723.73" stroke="#C06520" stroke-width="2.19" stroke-linecap="round" stroke-linejoin="round"/>
<path d="M1595.01 166.637H1636.47" stroke="#C06520" stroke-width="2.19" stroke-linejoin="round"/>
<path d="M1614.03 205.829H1636.47" stroke="#C06520" stroke-width="2.19" stroke-linejoin="round"/>
<path d="M1665.65 100.004H1691.48V66.9653" stroke="#C06520" stroke-width="2.19" stroke-linecap="round" stroke-linejoin="round"/>
<path d="M1665.65 146.681H1691.48" stroke="#C06520" stroke-width="2.19" stroke-linecap="round" stroke-linejoin="round"/>
<path d="M1665.77 119.111V177.243C1665.77 182.399 1669.72 186.556 1674.57 186.556H1717.02V234.452H1723.73" stroke="#C06520" stroke-width="2.19" stroke-linecap="round" stroke-linejoin="round"/>
<path d="M1691.63 126.539L1691.53 216.861" stroke="#C06520" stroke-width="2.19" stroke-linecap="round" stroke-linejoin="round"/>
<path d="M1717.02 216.861H1642.91C1639.26 216.861 1636.29 213.72 1636.29 209.858V168.374" stroke="#C06520" stroke-width="2.19" stroke-linecap="round" stroke-linejoin="round"/>
<path d="M1678.83 146.81V162.368C1678.83 164.9 1676.89 166.951 1674.5 166.951H1660.39" stroke="#C06520" stroke-width="2.19" stroke-linecap="round" stroke-linejoin="round"/>
<path d="M1678.83 100.134V114.307C1678.83 116.838 1676.89 118.889 1674.5 118.889H1666.31" stroke="#C06520" stroke-width="2.19" stroke-linecap="round" stroke-linejoin="round"/>
<path d="M1656.08 171.811C1658.62 171.811 1660.67 169.636 1660.67 166.952C1660.67 164.268 1658.62 162.092 1656.08 162.092C1653.54 162.092 1651.49 164.268 1651.49 166.952C1651.49 169.636 1653.54 171.811 1656.08 171.811Z" fill="black" stroke="#C06520" stroke-width="2.19" stroke-miterlimit="10"/>
<path d="M1632.8 99.228C1629.48 95.3106 1628.49 101.353 1628.89 104.143C1629.29 106.933 1632.64 132.008 1632.64 132.008H1621.69C1621.89 131.38 1624.42 108.153 1625.12 102.499C1626.41 91.9661 1632.78 99.228 1632.78 99.228H1632.8Z" fill="black" stroke="#C06520" stroke-width="2.19" stroke-miterlimit="10"/>
<path d="M1626.72 160.687C1635.36 160.687 1642.35 153.283 1642.35 144.149C1642.35 135.016 1635.36 127.611 1626.72 127.611C1618.09 127.611 1611.09 135.016 1611.09 144.149C1611.09 153.283 1618.09 160.687 1626.72 160.687Z" fill="black" stroke="#C06520" stroke-width="2.19" stroke-miterlimit="10"/>
<path d="M1645.57 140.73H1608.39V173.659H1645.57V140.73Z" fill="black" stroke="#C06520" stroke-width="2.19" stroke-miterlimit="10"/>
<path d="M1632.85 148.897H1621.12V158.987H1632.85V148.897Z" fill="black" stroke="#C06520" stroke-width="2.19" stroke-miterlimit="10"/>
<path d="M1628.44 97.2881C1637.32 97.2881 1637.32 115.859 1649.08 115.859H1664.58" stroke="#C06520" stroke-width="2.19" stroke-miterlimit="10"/>
<path d="M1665.77 120.719C1668.31 120.719 1670.36 118.543 1670.36 115.859C1670.36 113.175 1668.31 110.999 1665.77 110.999C1663.23 110.999 1661.18 113.175 1661.18 115.859C1661.18 118.543 1663.23 120.719 1665.77 120.719Z" fill="black" stroke="#C06520" stroke-width="2.19" stroke-miterlimit="10"/>
<path d="M1695.21 118.981H1688.07C1688.84 121.439 1688.84 124.081 1688.07 126.539H1695.21C1694.44 124.081 1694.44 121.439 1695.21 118.981Z" fill="black" stroke="#C06520" stroke-width="2.19" stroke-linecap="round" stroke-linejoin="round"/>
<path d="M1695.21 115.212H1688.07" stroke="#C06520" stroke-width="2.19" stroke-linecap="round" stroke-linejoin="round"/>
<path d="M1368.47 150.746H1375.61C1374.84 148.288 1374.84 145.646 1375.61 143.188H1368.47C1369.23 145.646 1369.23 148.288 1368.47 150.746Z" fill="black" stroke="#C06520" stroke-width="2.19" stroke-linecap="round" stroke-linejoin="round"/>
<path d="M1368.47 154.516H1375.59" stroke="#C06520" stroke-width="2.19" stroke-linecap="round" stroke-linejoin="round"/>
<path d="M911.254 141.34H948.118" stroke="#C06520" stroke-width="2.19" stroke-linecap="round" stroke-linejoin="round"/>
<path d="M911.376 126.982V171.903C911.376 177.059 915.323 181.216 920.177 181.216H1019.37" stroke="#C06520" stroke-width="2.19" stroke-linecap="round" stroke-linejoin="round"/>
<path d="M986.169 147.253H1075.46C1082.98 147.253 1084.82 143.779 1084.82 137.349V89.786C1084.82 89.786 1083.82 80.8979 1093.22 80.8979H1132.47" stroke="#C06520" stroke-width="2.19" stroke-linejoin="round"/>
<path d="M984.563 145.535V124.932" stroke="#C06520" stroke-width="2.19" stroke-linejoin="round"/>
<path d="M984.563 115.655V54.8804" stroke="#C06520" stroke-width="2.19" stroke-linejoin="round"/>
<path d="M1037.25 147.253V253.392" stroke="#C06520" stroke-width="2.19" stroke-linecap="round" stroke-linejoin="round"/>
<path d="M1038.19 181.234H1082.97C1084.1 181.234 1085.01 182.214 1085.01 183.396V219.263C1085.01 220.464 1085.93 221.425 1087.05 221.425H1107.33" stroke="#C06520" stroke-width="2.19" stroke-linecap="round" stroke-linejoin="round"/>
<path d="M960.953 193.541V181.234" stroke="#C06520" stroke-width="2.19" stroke-linecap="round" stroke-linejoin="round"/>
<path d="M960.953 204.887V228.188C960.953 231.92 958.089 234.951 954.562 234.951H911.69" stroke="#C06520" stroke-width="2.19" stroke-linecap="round" stroke-linejoin="round"/>
<path d="M1115.83 141.285H1105.37C1098.14 141.285 1096.1 136.351 1096.1 131.473V116.431C1096.1 107.451 1088.69 108.597 1088.69 108.597H984.51" stroke="#C06520" stroke-width="2.19" stroke-linejoin="round"/>
<path d="M949.043 126.982C949.131 151.984 949.009 181.142 949.009 181.142" stroke="#C06520" stroke-width="2.19" stroke-linecap="round" stroke-linejoin="round"/>
<path d="M949.829 163.939H1036.76" stroke="#C06520" stroke-width="2.19" stroke-linecap="round" stroke-linejoin="round"/>
<path d="M984.563 150.395V180.884" stroke="#C06520" stroke-width="2.19" stroke-linejoin="round"/>
<path d="M1049.61 147.105V159.283C1049.61 162.646 1052.18 165.362 1055.36 165.362H1082.69C1084.12 165.362 1085.52 165.898 1086.62 166.859L1101.07 179.535C1102.18 180.496 1103.57 181.032 1105 181.032H1107.38" stroke="#C06520" stroke-width="2.19" stroke-linecap="round" stroke-linejoin="round"/>
<path d="M1037.61 198.29H1059.55C1063.22 198.29 1066.18 195.149 1066.18 191.268V128.276C1066.18 124.433 1063.25 121.291 1059.62 121.254L1014.63 121.217C1011.25 121.217 1008.49 124.118 1008.49 127.722V147.272" stroke="#C06520" stroke-width="2.19" stroke-linecap="round" stroke-linejoin="round"/>
<path d="M1001.68 253.374V164.623" stroke="#C06520" stroke-width="2.19" stroke-linecap="round" stroke-linejoin="round"/>
<path d="M924.456 141.47V157.028C924.456 159.56 922.517 161.611 920.125 161.611H911.935" stroke="#C06520" stroke-width="2.19" stroke-linecap="round" stroke-linejoin="round"/>
<path d="M966.052 200.359C965.947 200.47 1001.34 200.359 1001.34 200.359" stroke="#C06520" stroke-width="2.19" stroke-linecap="round" stroke-linejoin="round"/>
<path d="M1032.39 234.452H1001.96" stroke="#C06520" stroke-width="2.19" stroke-linecap="round" stroke-linejoin="round"/>
<path d="M960.953 228.188V228.983C960.953 232.217 963.433 234.841 966.489 234.841H985.768" stroke="#C06520" stroke-width="2.19" stroke-linecap="round" stroke-linejoin="round"/>
<path d="M882.894 235.229H910.992" stroke="#C06520" stroke-width="2.19" stroke-linecap="round" stroke-linejoin="round"/>
<path d="M984.563 151.78C987.099 151.78 989.156 149.604 989.156 146.92C989.156 144.236 987.099 142.061 984.563 142.061C982.026 142.061 979.97 144.236 979.97 146.92C979.97 149.604 982.026 151.78 984.563 151.78Z" fill="black" stroke="#C06520" stroke-width="2.19" stroke-miterlimit="10"/>
<path d="M1049.61 152.113C1052.15 152.113 1054.2 149.937 1054.2 147.253C1054.2 144.569 1052.15 142.394 1049.61 142.394C1047.08 142.394 1045.02 144.569 1045.02 147.253C1045.02 149.937 1047.08 152.113 1049.61 152.113Z" fill="black" stroke="#C06520" stroke-width="2.19" stroke-miterlimit="10"/>
<path d="M1036.99 239.312C1039.52 239.312 1041.58 237.137 1041.58 234.453C1041.58 231.769 1039.52 229.593 1036.99 229.593C1034.45 229.593 1032.39 231.769 1032.39 234.453C1032.39 237.137 1034.45 239.312 1036.99 239.312Z" fill="black" stroke="#C06520" stroke-width="2.19" stroke-miterlimit="10"/>
<path d="M961.18 191.472H960.744C958.082 191.472 955.924 193.755 955.924 196.572V202.189C955.924 205.006 958.082 207.289 960.744 207.289H961.18C963.842 207.289 966 205.006 966 202.189V196.572C966 193.755 963.842 191.472 961.18 191.472Z" fill="black" stroke="#C06520" stroke-width="2.19" stroke-miterlimit="10"/>
<path d="M911.813 204.739H910.94C905.548 204.739 901.178 209.364 901.178 215.069V215.993C901.178 221.697 905.548 226.322 910.94 226.322H911.813C917.204 226.322 921.574 221.697 921.574 215.993V215.069C921.574 209.364 917.204 204.739 911.813 204.739Z" fill="black" stroke="#C06520" stroke-width="2.19" stroke-miterlimit="10"/>
<path d="M911.638 208.915H911.114C907.806 208.915 905.125 211.753 905.125 215.253V215.807C905.125 219.308 907.806 222.145 911.114 222.145H911.638C914.946 222.145 917.628 219.308 917.628 215.807V215.253C917.628 211.753 914.946 208.915 911.638 208.915Z" fill="black" stroke="#C06520" stroke-width="2.19" stroke-miterlimit="10"/>
<path d="M1112.77 141.248H1181.18V81.7109H1170.93" stroke="#C06520" stroke-width="2.19" stroke-linecap="round" stroke-linejoin="round"/>
<path d="M1129.43 180.884H1151.87" stroke="#C06520" stroke-width="2.19" stroke-linejoin="round"/>
<path d="M1181.07 141.34H1206.88" stroke="#C06520" stroke-width="2.19" stroke-linecap="round" stroke-linejoin="round"/>
<path d="M1181.18 113.771V171.903C1181.18 177.059 1185.12 181.216 1189.98 181.216H1281.94C1284.16 181.216 1285.94 183.119 1285.94 185.448V206.55C1285.94 211.502 1289.73 215.512 1294.41 215.512H1384.64" stroke="#C06520" stroke-width="2.19" stroke-linecap="round" stroke-linejoin="round"/>
<path d="M1307.07 253.392V82.8379H1331.3V159.282C1331.3 162.645 1333.87 165.362 1337.05 165.362H1354.7V215.53" stroke="#C06520" stroke-width="2.19" stroke-linecap="round" stroke-linejoin="round"/>
<path d="M1307.07 181.234H1354.77" stroke="#C06520" stroke-width="2.19" stroke-linecap="round" stroke-linejoin="round"/>
<path d="M1230.77 193.541V181.234" stroke="#C06520" stroke-width="2.19" stroke-linecap="round" stroke-linejoin="round"/>
<path d="M1230.77 204.887V228.188C1230.77 231.92 1227.91 234.951 1224.38 234.951H1181.51" stroke="#C06520" stroke-width="2.19" stroke-linecap="round" stroke-linejoin="round"/>
<path d="M1206.88 163.939H1306.56" stroke="#C06520" stroke-width="2.19" stroke-linecap="round" stroke-linejoin="round"/>
<path d="M1255.99 129.681V163.163" stroke="#C06520" stroke-width="2.19" stroke-linecap="round" stroke-linejoin="round"/>
<path d="M1307.43 198.29H1354.71" stroke="#C06520" stroke-width="2.19" stroke-linecap="round" stroke-linejoin="round"/>
<path d="M1271.48 253.374V164.623" stroke="#C06520" stroke-width="2.19" stroke-linecap="round" stroke-linejoin="round"/>
<path d="M1194.26 141.47V157.028C1194.26 159.56 1192.32 161.611 1189.93 161.611H1181.74" stroke="#C06520" stroke-width="2.19" stroke-linecap="round" stroke-linejoin="round"/>
<path d="M1235.87 200.359C1235.77 200.47 1271.16 200.359 1271.16 200.359" stroke="#C06520" stroke-width="2.19" stroke-linecap="round" stroke-linejoin="round"/>
<path d="M1297.51 215.345V164.05" stroke="#C06520" stroke-width="2.19" stroke-linecap="round" stroke-linejoin="round"/>
<path d="M1302.19 234.452H1271.76" stroke="#C06520" stroke-width="2.19" stroke-linecap="round" stroke-linejoin="round"/>
<path d="M1311.38 234.452H1389.26" stroke="#C06520" stroke-width="2.19" stroke-linecap="round" stroke-linejoin="round"/>
<path d="M1168.11 141.47V193.135C1168.11 195.352 1169.81 197.145 1171.9 197.145H1206.93L1222.46 211.428" stroke="#C06520" stroke-width="2.19" stroke-linecap="round" stroke-linejoin="round"/>
<path d="M1130.48 241.641H1107.36" stroke="#C06520" stroke-width="2.19" stroke-linejoin="round"/>
<path d="M1130.48 221.425H1107.36" stroke="#C06520" stroke-width="2.19" stroke-linejoin="round"/>
<path d="M1151.7 201.229H1107.36" stroke="#C06520" stroke-width="2.19" stroke-linejoin="round"/>
<path d="M1130.48 181.031H1107.36" stroke="#C06520" stroke-width="2.19" stroke-linecap="round" stroke-linejoin="round"/>
<path d="M1130.48 170.924H1111.64C1109.26 170.924 1107.36 172.956 1107.36 175.451V251.859" stroke="#C06520" stroke-width="2.19" stroke-linejoin="round"/>
<path d="M1130.48 150.709H1103.17C1100.24 150.709 1097.86 153.222 1097.86 156.326V209.895C1097.86 212.999 1095.49 215.512 1092.55 215.512H1001.34" stroke="#C06520" stroke-width="2.19" stroke-linejoin="round"/>
<path d="M1130.31 253.152V141.58" stroke="#C06520" stroke-width="2.19" stroke-linecap="round" stroke-linejoin="round"/>
<path d="M1170.98 219.706H1159.31C1155.33 219.706 1152.1 223.125 1152.1 227.338V253.614" stroke="#C06520" stroke-width="2.19" stroke-linecap="round" stroke-linejoin="round"/>
<path d="M1230.77 228.188V228.983C1230.77 232.217 1233.25 234.841 1236.31 234.841H1255.59" stroke="#C06520" stroke-width="2.19" stroke-linecap="round" stroke-linejoin="round"/>
<path d="M1152.69 245.779H1180.81" stroke="#C06520" stroke-width="2.19" stroke-linecap="round" stroke-linejoin="round"/>
<path d="M1152.69 235.229H1180.81" stroke="#C06520" stroke-width="2.19" stroke-linecap="round" stroke-linejoin="round"/>
<path d="M1151.7 146.606C1154.24 146.606 1156.29 144.43 1156.29 141.746C1156.29 139.063 1154.24 136.887 1151.7 136.887C1149.16 136.887 1147.11 139.063 1147.11 141.746C1147.11 144.43 1149.16 146.606 1151.7 146.606Z" fill="black" stroke="#C06520" stroke-width="2.19" stroke-miterlimit="10"/>
<path d="M1389.26 220.206C1391.8 220.206 1393.86 218.03 1393.86 215.346C1393.86 212.662 1391.8 210.486 1389.26 210.486C1386.73 210.486 1384.67 212.662 1384.67 215.346C1384.67 218.03 1386.73 220.206 1389.26 220.206Z" fill="black" stroke="#C06520" stroke-width="2.19" stroke-miterlimit="10"/>
<path d="M1306.79 239.312C1309.32 239.312 1311.38 237.137 1311.38 234.453C1311.38 231.769 1309.32 229.593 1306.79 229.593C1304.25 229.593 1302.19 231.769 1302.19 234.453C1302.19 237.137 1304.25 239.312 1306.79 239.312Z" fill="black" stroke="#C06520" stroke-width="2.19" stroke-miterlimit="10"/>
<path d="M1230.98 191.472H1230.54C1227.88 191.472 1225.72 193.755 1225.72 196.572V202.189C1225.72 205.006 1227.88 207.289 1230.54 207.289H1230.98C1233.64 207.289 1235.8 205.006 1235.8 202.189V196.572C1235.8 193.755 1233.64 191.472 1230.98 191.472Z" fill="black" stroke="#C06520" stroke-width="2.19" stroke-miterlimit="10"/>
<path d="M1181.61 204.739H1180.74C1175.35 204.739 1170.98 209.364 1170.98 215.069V215.993C1170.98 221.697 1175.35 226.322 1180.74 226.322H1181.61C1187 226.322 1191.38 221.697 1191.38 215.993V215.069C1191.38 209.364 1187 204.739 1181.61 204.739Z" fill="black" stroke="#C06520" stroke-width="2.19" stroke-miterlimit="10"/>
<path d="M1181.44 208.915H1180.92C1177.61 208.915 1174.93 211.753 1174.93 215.253V215.807C1174.93 219.308 1177.61 222.145 1180.92 222.145H1181.44C1184.75 222.145 1187.43 219.308 1187.43 215.807V215.253C1187.43 211.753 1184.75 208.915 1181.44 208.915Z" fill="black" stroke="#C06520" stroke-width="2.19" stroke-miterlimit="10"/>
<path d="M1113.32 80.9346V157.231C1113.32 159.208 1114.84 160.798 1116.69 160.798H1130.48" stroke="#C06520" stroke-width="2.19" stroke-linejoin="round"/>
<path d="M1366.35 234.821L1365.74 255" stroke="#C06520" stroke-width="2.19" stroke-miterlimit="10"/>
<path d="M1366.35 239.681C1368.89 239.681 1370.95 237.506 1370.95 234.822C1370.95 232.138 1368.89 229.962 1366.35 229.962C1363.82 229.962 1361.76 232.138 1361.76 234.822C1361.76 237.506 1363.82 239.681 1366.35 239.681Z" fill="black" stroke="#C06520" stroke-width="2.19" stroke-miterlimit="10"/>
<path d="M1054.05 177.982L1037.14 172.531C1037.14 172.531 1021.37 177.114 1020.45 177.982H1054.05Z" fill="black" stroke="#C06520" stroke-width="2.19" stroke-linecap="round" stroke-linejoin="round"/>
<path d="M1054.05 177.982H1020.45V210.43H1054.05V177.982Z" fill="black" stroke="#C06520" stroke-width="2.19" stroke-linecap="round" stroke-linejoin="round"/>
<path d="M910.992 121.328H886.3C883.872 121.328 881.899 119.24 881.899 116.672V16.7412H899.013" stroke="#C06520" stroke-width="2.19" stroke-linecap="round" stroke-linejoin="round"/>
<path d="M1206.88 124.932H1330.92" stroke="#C06520" stroke-width="2.19" stroke-linecap="round" stroke-linejoin="round"/>
<path d="M1113.32 124.932H1180.81" stroke="#C06520" stroke-width="2.19" stroke-linecap="round" stroke-linejoin="round"/>
<path d="M1151.87 124.396V104.532" stroke="#C06520" stroke-width="2.19" stroke-linejoin="round"/>
<path d="M1151.7 130.161C1154.24 130.161 1156.29 127.985 1156.29 125.301C1156.29 122.617 1154.24 120.441 1151.7 120.441C1149.16 120.441 1147.11 122.617 1147.11 125.301C1147.11 127.985 1149.16 130.161 1151.7 130.161Z" fill="black" stroke="#C06520" stroke-width="2.19" stroke-miterlimit="10"/>
<path d="M1230.77 163.163V125.301" stroke="#C06520" stroke-width="2.19" stroke-linecap="round" stroke-linejoin="round"/>
<path d="M1282.51 163.163V125.301" stroke="#C06520" stroke-width="2.19" stroke-linecap="round" stroke-linejoin="round"/>
<path d="M1376.6 128.146H1359.07C1356.66 128.146 1354.71 130.216 1354.71 132.766V171.626" stroke="#C06520" stroke-width="2.19" stroke-linecap="round" stroke-linejoin="round"/>
<path d="M1372.03 154.516V165.547" stroke="#C06520" stroke-width="2.19" stroke-linecap="round" stroke-linejoin="round"/>
<path d="M1375.64 175.044V168.872H1377.01V165.639H1367.05V168.872H1368.41V175.044H1361.24V204.351H1382.82V175.044H1375.64Z" stroke="#C06520" stroke-width="2.19" stroke-linecap="round" stroke-linejoin="round"/>
<path d="M1382.82 185.004H1361.24V191.305H1382.82V185.004Z" stroke="#C06520" stroke-width="2.19" stroke-linecap="round" stroke-linejoin="round"/>
<path d="M1206.88 197.126V98.1011H1181.51" stroke="#C06520" stroke-width="2.19" stroke-linecap="round" stroke-linejoin="round"/>
<path d="M836.443 211.059L844.616 219.706H844.93L853.103 211.059" stroke="#C06520" stroke-width="2.19" stroke-miterlimit="10" stroke-linecap="round"/>
<path d="M844.773 148.066C844.773 148.066 834.051 164.715 824.306 164.715H865.222C853.103 161.703 844.755 148.066 844.755 148.066H844.773Z" fill="black" stroke="#C06520" stroke-width="2.19" stroke-linecap="round" stroke-linejoin="round"/>
<path d="M844.773 211.133C853.731 211.133 861.782 208.509 867.457 204.333H822.089C827.764 208.509 835.814 211.133 844.773 211.133Z" fill="black" stroke="#C06520" stroke-width="2.19" stroke-linecap="round" stroke-linejoin="round"/>
<path d="M875.874 185.042C875.874 178.611 871.735 172.865 865.239 168.929H824.324C817.81 172.865 813.689 178.611 813.689 185.042C813.689 190.696 816.902 195.833 822.106 199.677H867.474C872.678 195.852 875.892 190.715 875.892 185.042H875.874Z" fill="black" stroke="#C06520" stroke-width="2.19" stroke-miterlimit="10"/>
<path d="M844.79 183.12C847.327 183.12 849.383 181.424 849.383 179.332C849.383 177.24 847.327 175.544 844.79 175.544C842.254 175.544 840.198 177.24 840.198 179.332C840.198 181.424 842.254 183.12 844.79 183.12Z" fill="black" stroke="#C06520" stroke-width="1.94" stroke-miterlimit="10"/>
<path d="M844.773 148.066V108.32C844.773 102.296 849.383 97.3989 855.093 97.3989H881.899" stroke="#C06520" stroke-width="2.19" stroke-linecap="round" stroke-linejoin="round"/>
<path d="M881.899 146.606C884.435 146.606 886.492 144.43 886.492 141.746C886.492 139.063 884.435 136.887 881.899 136.887C879.362 136.887 877.306 139.063 877.306 141.746C877.306 144.43 879.362 146.606 881.899 146.606Z" fill="black" stroke="#C06520" stroke-width="2.19" stroke-miterlimit="10"/>
<path d="M881.899 102.259C884.435 102.259 886.492 100.083 886.492 97.3988C886.492 94.7149 884.435 92.5391 881.899 92.5391C879.362 92.5391 877.306 94.7149 877.306 97.3988C877.306 100.083 879.362 102.259 881.899 102.259Z" fill="black" stroke="#C06520" stroke-width="2.19" stroke-miterlimit="10"/>
<path d="M1255.59 124.839V3.88037" stroke="#C06520" stroke-width="2.19" stroke-miterlimit="10" stroke-linecap="round"/>
<path d="M1253.98 16.353L1250.54 8.44434" stroke="#C06520" stroke-width="2.19" stroke-miterlimit="10" stroke-linecap="round"/>
<path d="M1253.42 20.677L1247.94 14.1172" stroke="#C06520" stroke-width="2.19" stroke-miterlimit="10" stroke-linecap="round"/>
<path d="M1254.38 27.8284L1247.45 21.1763" stroke="#C06520" stroke-width="2.19" stroke-miterlimit="10" stroke-linecap="round"/>
<path d="M1257.18 16.353L1260.62 8.44434" stroke="#C06520" stroke-width="2.19" stroke-miterlimit="10" stroke-linecap="round"/>
<path d="M1257.73 20.677L1263.23 14.1172" stroke="#C06520" stroke-width="2.19" stroke-miterlimit="10" stroke-linecap="round"/>
<path d="M1256.79 27.8284L1263.71 21.1763" stroke="#C06520" stroke-width="2.19" stroke-miterlimit="10" stroke-linecap="round"/>
<path d="M1255.81 12.2881H1255.38C1252.71 12.2881 1250.56 14.5714 1250.56 17.3881V23.0055C1250.56 25.8221 1252.71 28.1055 1255.38 28.1055H1255.81C1258.47 28.1055 1260.63 25.8221 1260.63 23.0055V17.3881C1260.63 14.5714 1258.47 12.2881 1255.81 12.2881Z" fill="black" stroke="#C06520" stroke-width="2.19" stroke-miterlimit="10" stroke-linecap="round"/>
<path d="M1250.54 19.7349L1257.96 27.5696" stroke="#C06520" stroke-width="2.19" stroke-miterlimit="10" stroke-linecap="round"/>
<path d="M1254.85 23.6522L1260.48 17.7207" stroke="#C06520" stroke-width="2.19" stroke-miterlimit="10" stroke-linecap="round"/>
<path d="M1257.89 20.437L1251.76 13.9326" stroke="#C06520" stroke-width="2.19" stroke-miterlimit="10" stroke-linecap="round"/>
<path d="M1230.77 124.839V3.88037" stroke="#C06520" stroke-width="2.19" stroke-miterlimit="10" stroke-linecap="round"/>
<path d="M1229.16 16.353L1225.72 8.44434" stroke="#C06520" stroke-width="2.19" stroke-miterlimit="10" stroke-linecap="round"/>
<path d="M1228.61 20.677L1223.12 14.1172" stroke="#C06520" stroke-width="2.19" stroke-miterlimit="10" stroke-linecap="round"/>
<path d="M1229.57 27.8284L1222.63 21.1763" stroke="#C06520" stroke-width="2.19" stroke-miterlimit="10" stroke-linecap="round"/>
<path d="M1232.36 16.353L1235.8 8.44434" stroke="#C06520" stroke-width="2.19" stroke-miterlimit="10" stroke-linecap="round"/>
<path d="M1232.92 20.677L1238.42 14.1172" stroke="#C06520" stroke-width="2.19" stroke-miterlimit="10" stroke-linecap="round"/>
<path d="M1231.98 27.8284L1238.89 21.1763" stroke="#C06520" stroke-width="2.19" stroke-miterlimit="10" stroke-linecap="round"/>
<path d="M1230.98 12.2881H1230.54C1227.88 12.2881 1225.72 14.5714 1225.72 17.3881V23.0055C1225.72 25.8221 1227.88 28.1055 1230.54 28.1055H1230.98C1233.64 28.1055 1235.8 25.8221 1235.8 23.0055V17.3881C1235.8 14.5714 1233.64 12.2881 1230.98 12.2881Z" fill="black" stroke="#C06520" stroke-width="2.19" stroke-miterlimit="10" stroke-linecap="round"/>
<path d="M1225.72 19.7349L1233.15 27.5696" stroke="#C06520" stroke-width="2.19" stroke-miterlimit="10" stroke-linecap="round"/>
<path d="M1230.04 23.6522L1235.64 17.7207" stroke="#C06520" stroke-width="2.19" stroke-miterlimit="10" stroke-linecap="round"/>
<path d="M1233.08 20.437L1226.95 13.9326" stroke="#C06520" stroke-width="2.19" stroke-miterlimit="10" stroke-linecap="round"/>
<path d="M1282.51 124.839V3.88037" stroke="#C06520" stroke-width="2.19" stroke-miterlimit="10" stroke-linecap="round"/>
<path d="M1280.92 16.353L1277.47 8.44434" stroke="#C06520" stroke-width="2.19" stroke-miterlimit="10" stroke-linecap="round"/>
<path d="M1280.35 20.677L1274.86 14.1172" stroke="#C06520" stroke-width="2.19" stroke-miterlimit="10" stroke-linecap="round"/>
<path d="M1281.31 27.8284L1274.39 21.1763" stroke="#C06520" stroke-width="2.19" stroke-miterlimit="10" stroke-linecap="round"/>
<path d="M1284.1 16.353L1287.54 8.44434" stroke="#C06520" stroke-width="2.19" stroke-miterlimit="10" stroke-linecap="round"/>
<path d="M1284.68 20.677L1290.16 14.1172" stroke="#C06520" stroke-width="2.19" stroke-miterlimit="10" stroke-linecap="round"/>
<path d="M1283.72 27.8284L1290.63 21.1763" stroke="#C06520" stroke-width="2.19" stroke-miterlimit="10" stroke-linecap="round"/>
<path d="M1282.74 12.2881H1282.3C1279.64 12.2881 1277.48 14.5714 1277.48 17.3881V23.0055C1277.48 25.8221 1279.64 28.1055 1282.3 28.1055H1282.74C1285.4 28.1055 1287.56 25.8221 1287.56 23.0055V17.3881C1287.56 14.5714 1285.4 12.2881 1282.74 12.2881Z" fill="black" stroke="#C06520" stroke-width="2.19" stroke-miterlimit="10" stroke-linecap="round"/>
<path d="M1277.47 19.7349L1284.89 27.5696" stroke="#C06520" stroke-width="2.19" stroke-miterlimit="10" stroke-linecap="round"/>
<path d="M1281.78 23.6522L1287.4 17.7207" stroke="#C06520" stroke-width="2.19" stroke-miterlimit="10" stroke-linecap="round"/>
<path d="M1284.84 20.437L1278.69 13.9326" stroke="#C06520" stroke-width="2.19" stroke-miterlimit="10" stroke-linecap="round"/>
<path d="M1255.99 129.699C1258.52 129.699 1260.58 127.523 1260.58 124.839C1260.58 122.155 1258.52 119.979 1255.99 119.979C1253.45 119.979 1251.4 122.155 1251.4 124.839C1251.4 127.523 1253.45 129.699 1255.99 129.699Z" fill="black" stroke="#C06520" stroke-width="2.19" stroke-miterlimit="10"/>
<path d="M923.845 12.3989H899.03V54.8805H923.845V12.3989Z" stroke="#C06520" stroke-width="2.19" stroke-linecap="round" stroke-linejoin="round"/>
<path d="M899.012 21.1577H923.74" stroke="#C06520" stroke-width="2.19" stroke-linecap="round" stroke-linejoin="round"/>
<path d="M902.33 27.3848H901.981" stroke="#C06520" stroke-width="2.84" stroke-miterlimit="10" stroke-linecap="round"/>
<path d="M911.498 27.3848H911.149" stroke="#C06520" stroke-width="2.84" stroke-miterlimit="10" stroke-linecap="round"/>
<path d="M902.33 38.4346H901.981" stroke="#C06520" stroke-width="2.84" stroke-miterlimit="10" stroke-linecap="round"/>
<path d="M911.498 38.4346H911.149" stroke="#C06520" stroke-width="2.84" stroke-miterlimit="10" stroke-linecap="round"/>
<path d="M902.33 49.4663H901.981" stroke="#C06520" stroke-width="2.84" stroke-miterlimit="10" stroke-linecap="round"/>
<path d="M920.3 27.3848H919.95" stroke="#C06520" stroke-width="2.84" stroke-miterlimit="10" stroke-linecap="round"/>
<path d="M920.3 38.4346H919.95" stroke="#C06520" stroke-width="2.84" stroke-miterlimit="10" stroke-linecap="round"/>
<path d="M920.3 49.4663H919.95" stroke="#C06520" stroke-width="2.84" stroke-miterlimit="10" stroke-linecap="round"/>
<path d="M911.498 49.4663H911.149" stroke="#C06520" stroke-width="2.84" stroke-miterlimit="10" stroke-linecap="round"/>
<path d="M906.906 32.7803H906.556" stroke="#C06520" stroke-width="2.84" stroke-miterlimit="10" stroke-linecap="round"/>
<path d="M916.074 32.7803H915.724" stroke="#C06520" stroke-width="2.84" stroke-miterlimit="10" stroke-linecap="round"/>
<path d="M906.906 43.8306H906.556" stroke="#C06520" stroke-width="2.84" stroke-miterlimit="10" stroke-linecap="round"/>
<path d="M916.074 43.8306H915.724" stroke="#C06520" stroke-width="2.84" stroke-miterlimit="10" stroke-linecap="round"/>
<path d="M960.534 12.3989H935.719V54.8805H960.534V12.3989Z" stroke="#C06520" stroke-width="2.19" stroke-linecap="round" stroke-linejoin="round"/>
<path d="M935.702 21.1577H960.412" stroke="#C06520" stroke-width="2.19" stroke-linecap="round" stroke-linejoin="round"/>
<path d="M939.02 27.3848H938.671" stroke="#C06520" stroke-width="2.84" stroke-miterlimit="10" stroke-linecap="round"/>
<path d="M948.188 27.3848H947.839" stroke="#C06520" stroke-width="2.84" stroke-miterlimit="10" stroke-linecap="round"/>
<path d="M939.02 38.4346H938.671" stroke="#C06520" stroke-width="2.84" stroke-miterlimit="10" stroke-linecap="round"/>
<path d="M948.188 38.4346H947.839" stroke="#C06520" stroke-width="2.84" stroke-miterlimit="10" stroke-linecap="round"/>
<path d="M939.02 49.4663H938.671" stroke="#C06520" stroke-width="2.84" stroke-miterlimit="10" stroke-linecap="round"/>
<path d="M956.972 27.3848H956.622" stroke="#C06520" stroke-width="2.84" stroke-miterlimit="10" stroke-linecap="round"/>
<path d="M956.972 38.4346H956.622" stroke="#C06520" stroke-width="2.84" stroke-miterlimit="10" stroke-linecap="round"/>
<path d="M956.972 49.4663H956.622" stroke="#C06520" stroke-width="2.84" stroke-miterlimit="10" stroke-linecap="round"/>
<path d="M948.188 49.4663H947.839" stroke="#C06520" stroke-width="2.84" stroke-miterlimit="10" stroke-linecap="round"/>
<path d="M943.578 32.7803H943.228" stroke="#C06520" stroke-width="2.84" stroke-miterlimit="10" stroke-linecap="round"/>
<path d="M952.746 32.7803H952.396" stroke="#C06520" stroke-width="2.84" stroke-miterlimit="10" stroke-linecap="round"/>
<path d="M943.578 43.8306H943.228" stroke="#C06520" stroke-width="2.84" stroke-miterlimit="10" stroke-linecap="round"/>
<path d="M952.746 43.8306H952.396" stroke="#C06520" stroke-width="2.84" stroke-miterlimit="10" stroke-linecap="round"/>
<path d="M997.206 12.3989H972.391V54.8805H997.206V12.3989Z" stroke="#C06520" stroke-width="2.19" stroke-linecap="round" stroke-linejoin="round"/>
<path d="M972.374 21.1577H997.101" stroke="#C06520" stroke-width="2.19" stroke-linecap="round" stroke-linejoin="round"/>
<path d="M975.692 27.3848H975.343" stroke="#C06520" stroke-width="2.84" stroke-miterlimit="10" stroke-linecap="round"/>
<path d="M984.86 27.3848H984.51" stroke="#C06520" stroke-width="2.84" stroke-miterlimit="10" stroke-linecap="round"/>
<path d="M975.692 38.4346H975.343" stroke="#C06520" stroke-width="2.84" stroke-miterlimit="10" stroke-linecap="round"/>
<path d="M984.86 38.4346H984.51" stroke="#C06520" stroke-width="2.84" stroke-miterlimit="10" stroke-linecap="round"/>
<path d="M975.692 49.4663H975.343" stroke="#C06520" stroke-width="2.84" stroke-miterlimit="10" stroke-linecap="round"/>
<path d="M993.661 27.3848H993.312" stroke="#C06520" stroke-width="2.84" stroke-miterlimit="10" stroke-linecap="round"/>
<path d="M993.661 38.4346H993.312" stroke="#C06520" stroke-width="2.84" stroke-miterlimit="10" stroke-linecap="round"/>
<path d="M993.661 49.4663H993.312" stroke="#C06520" stroke-width="2.84" stroke-miterlimit="10" stroke-linecap="round"/>
<path d="M984.86 49.4663H984.51" stroke="#C06520" stroke-width="2.84" stroke-miterlimit="10" stroke-linecap="round"/>
<path d="M980.267 32.7803H979.918" stroke="#C06520" stroke-width="2.84" stroke-miterlimit="10" stroke-linecap="round"/>
<path d="M989.435 32.7803H989.086" stroke="#C06520" stroke-width="2.84" stroke-miterlimit="10" stroke-linecap="round"/>
<path d="M980.267 43.8306H979.918" stroke="#C06520" stroke-width="2.84" stroke-miterlimit="10" stroke-linecap="round"/>
<path d="M989.435 43.8306H989.086" stroke="#C06520" stroke-width="2.84" stroke-miterlimit="10" stroke-linecap="round"/>
<path d="M1132.47 104.439V83.9652C1132.47 72.7489 1141.1 63.6206 1151.7 63.6206C1162.3 63.6206 1170.93 72.7489 1170.93 83.9652V104.439H1132.47Z" stroke="#C06520" stroke-width="2.19" stroke-linejoin="round"/>
<path d="M1151.05 68.2588H1152.35C1160.19 68.2588 1166.56 75.0034 1166.56 83.3001V104.458H1136.86V83.3001C1136.86 75.0034 1143.23 68.2588 1151.07 68.2588H1151.05Z" stroke="#C06520" stroke-width="2.19" stroke-linejoin="round"/>
<path d="M1147.58 64.1011L1148.68 68.5913" stroke="#C06520" stroke-width="2.19" stroke-linejoin="round"/>
<path d="M1155.1 64.1011L1154 68.5913" stroke="#C06520" stroke-width="2.19" stroke-linejoin="round"/>
<path d="M1151.7 68.2588V104.439" stroke="#C06520" stroke-width="2.19" stroke-linejoin="round"/>
<path d="M952.588 119.425H945.446C946.214 121.882 946.214 124.525 945.446 126.982H952.588C951.82 124.525 951.82 121.882 952.588 119.425Z" fill="black" stroke="#C06520" stroke-width="2.19" stroke-linecap="round" stroke-linejoin="round"/>
<path d="M952.588 115.655H945.446" stroke="#C06520" stroke-width="2.19" stroke-linecap="round" stroke-linejoin="round"/>
<path d="M914.572 119.425H907.43C908.198 121.882 908.198 124.525 907.43 126.982H914.572C913.803 124.525 913.803 121.882 914.572 119.425Z" fill="black" stroke="#C06520" stroke-width="2.19" stroke-linecap="round" stroke-linejoin="round"/>
<path d="M914.572 115.655H907.43" stroke="#C06520" stroke-width="2.19" stroke-linecap="round" stroke-linejoin="round"/>
<path d="M988.09 119.425H980.948C981.716 121.882 981.716 124.525 980.948 126.982H988.09C987.322 124.525 987.322 121.882 988.09 119.425Z" fill="black" stroke="#C06520" stroke-width="2.19" stroke-linecap="round" stroke-linejoin="round"/>
<path d="M988.09 115.655H980.948" stroke="#C06520" stroke-width="2.19" stroke-linecap="round" stroke-linejoin="round"/>
<path d="M949.009 115.655V54.8804" stroke="#C06520" stroke-width="2.19" stroke-linecap="round" stroke-linejoin="round"/>
<path d="M911.149 115.655V54.8804" stroke="#C06520" stroke-width="2.19" stroke-linecap="round" stroke-linejoin="round"/>
<ellipse cx="822.089" cy="196.405" rx="1.91218" ry="2.02337" fill="#C06520"/>
<ellipse cx="827.066" cy="196.405" rx="1.91218" ry="2.02337" fill="#C06520"/>
<ellipse cx="832.043" cy="196.405" rx="1.91218" ry="2.02337" fill="#C06520"/>
<ellipse cx="837.002" cy="196.405" rx="1.91218" ry="2.02337" fill="#C06520"/>
<ellipse cx="841.979" cy="196.405" rx="1.91218" ry="2.02337" fill="#C06520"/>
<ellipse cx="846.938" cy="196.405" rx="1.91218" ry="2.02337" fill="#C06520"/>
<ellipse cx="851.915" cy="196.405" rx="1.91218" ry="2.02337" fill="#C06520"/>
<ellipse cx="856.892" cy="196.405" rx="1.91218" ry="2.02337" fill="#C06520"/>
<ellipse cx="861.852" cy="196.405" rx="1.91218" ry="2.02337" fill="#C06520"/>
<ellipse cx="866.828" cy="196.405" rx="1.91218" ry="2.02337" fill="#C06520"/>
<ellipse cx="824.726" cy="171.589" rx="1.91218" ry="2.02337" fill="#C06520"/>
<ellipse cx="829.685" cy="171.589" rx="1.91218" ry="2.02337" fill="#C06520"/>
<ellipse cx="834.662" cy="171.589" rx="1.91218" ry="2.02337" fill="#C06520"/>
<ellipse cx="839.621" cy="171.589" rx="1.91218" ry="2.02337" fill="#C06520"/>
<ellipse cx="844.598" cy="171.589" rx="1.91218" ry="2.02337" fill="#C06520"/>
<ellipse cx="849.575" cy="171.589" rx="1.91218" ry="2.02337" fill="#C06520"/>
<ellipse cx="854.534" cy="171.589" rx="1.91218" ry="2.02337" fill="#C06520"/>
<ellipse cx="859.512" cy="171.589" rx="1.91218" ry="2.02337" fill="#C06520"/>
<ellipse cx="864.488" cy="171.589" rx="1.91218" ry="2.02337" fill="#C06520"/>
<path d="M1567 186.575H1636.17" stroke="#C06520" stroke-width="2.19" stroke-linecap="round" stroke-linejoin="round"/>
<path d="M1489.69 54.9175H1436.73C1430.64 54.9175 1425.71 60.1377 1425.71 66.5773V67.649C1425.71 74.0885 1430.64 79.3088 1436.73 79.3088H1489.69C1495.78 79.3088 1500.71 74.0885 1500.71 67.649V66.5773C1500.71 60.1377 1495.78 54.9175 1489.69 54.9175Z" fill="black" stroke="#C06520" stroke-width="2.19" stroke-miterlimit="10"/>
<path d="M1441.01 61.5693H1441.29" stroke="#C06520" stroke-width="2.19" stroke-linecap="round" stroke-linejoin="round"/>
<path d="M1446.56 61.5693H1446.3" stroke="#C06520" stroke-width="2.19" stroke-linecap="round" stroke-linejoin="round"/>
<path d="M1451.57 61.5693H1451.85" stroke="#C06520" stroke-width="2.19" stroke-linecap="round" stroke-linejoin="round"/>
<path d="M1430.44 61.5693H1430.72" stroke="#C06520" stroke-width="2.19" stroke-linecap="round" stroke-linejoin="round"/>
<path d="M1435.73 61.5693H1435.99" stroke="#C06520" stroke-width="2.19" stroke-linecap="round" stroke-linejoin="round"/>
<path d="M1467.83 61.5693H1468.09" stroke="#C06520" stroke-width="2.19" stroke-linecap="round" stroke-linejoin="round"/>
<path d="M1473.1 61.5693H1473.38" stroke="#C06520" stroke-width="2.19" stroke-linecap="round" stroke-linejoin="round"/>
<path d="M1478.38 61.5693H1478.66" stroke="#C06520" stroke-width="2.19" stroke-linecap="round" stroke-linejoin="round"/>
<path d="M1457.26 61.5693H1457.54" stroke="#C06520" stroke-width="2.19" stroke-linecap="round" stroke-linejoin="round"/>
<path d="M1462.54 61.5693H1462.82" stroke="#C06520" stroke-width="2.19" stroke-linecap="round" stroke-linejoin="round"/>
<path d="M1494.43 61.5693H1494.7" stroke="#C06520" stroke-width="2.19" stroke-linecap="round" stroke-linejoin="round"/>
<path d="M1483.88 61.5693H1484.14" stroke="#C06520" stroke-width="2.19" stroke-linecap="round" stroke-linejoin="round"/>
<path d="M1489.15 61.5693H1489.43" stroke="#C06520" stroke-width="2.19" stroke-linecap="round" stroke-linejoin="round"/>
<path d="M1500.14 65.6904H1425.71" stroke="#C06520" stroke-width="2.19" stroke-linecap="round" stroke-linejoin="round"/>
<mask id="mask1_49_79" style="mask-type:luminance" maskUnits="userSpaceOnUse" x="1307" y="82" width="25" height="30">
<path d="M1331.3 82.8379H1307.07V111.461H1331.3V82.8379Z" fill="white"/>
</mask>
<g mask="url(#mask1_49_79)">
<path d="M1316.02 91.3564L1305.46 102.536" stroke="#C06520" stroke-width="2.19" stroke-miterlimit="10" stroke-linecap="round"/>
<path d="M1323.32 91.3564L1312.74 102.536" stroke="#C06520" stroke-width="2.19" stroke-miterlimit="10" stroke-linecap="round"/>
<path d="M1330.62 91.3564L1320.04 102.536" stroke="#C06520" stroke-width="2.19" stroke-miterlimit="10" stroke-linecap="round"/>
<path d="M1337.91 91.3564L1327.34 102.536" stroke="#C06520" stroke-width="2.19" stroke-miterlimit="10" stroke-linecap="round"/>
<path d="M1311.87 94.6827L1301.3 83.4849" stroke="#C06520" stroke-width="2.19" stroke-miterlimit="10" stroke-linecap="round"/>
<path d="M1319.17 94.6827L1308.59 83.4849" stroke="#C06520" stroke-width="2.19" stroke-miterlimit="10" stroke-linecap="round"/>
<path d="M1326.47 94.6827L1315.89 83.4849" stroke="#C06520" stroke-width="2.19" stroke-miterlimit="10" stroke-linecap="round"/>
<path d="M1333.75 94.6827L1323.18 83.4849" stroke="#C06520" stroke-width="2.19" stroke-miterlimit="10" stroke-linecap="round"/>
<path d="M1341.05 94.6827L1330.48 83.4849" stroke="#C06520" stroke-width="2.19" stroke-miterlimit="10" stroke-linecap="round"/>
</g>
<path d="M1307.07 102.924H1331.3" stroke="#C06520" stroke-width="2.19" stroke-linecap="round" stroke-linejoin="round"/>
<path d="M1331.31 87.5132H1372.03V128.147" stroke="#C06520" stroke-width="2.19" stroke-miterlimit="10" stroke-linecap="round"/>
<path d="M1372.03 87.5132H1410.71V128.147" stroke="#C06520" stroke-width="2.19" stroke-miterlimit="10" stroke-linecap="round"/>
<path d="M1410.71 87.5133V80.6578C1410.71 72.398 1417.05 65.6904 1424.85 65.6904H1450.38" stroke="#C06520" stroke-width="2.19" stroke-miterlimit="10" stroke-linecap="round"/>
<path d="M1666.19 210.079H1665.32C1659.93 210.079 1655.55 214.704 1655.55 220.408V221.332C1655.55 227.037 1659.93 231.662 1665.32 231.662H1666.19C1671.58 231.662 1675.95 227.037 1675.95 221.332V220.408C1675.95 214.704 1671.58 210.079 1666.19 210.079Z" fill="black" stroke="#C06520" stroke-width="2.19" stroke-miterlimit="10"/>
<path d="M1666.02 214.256H1665.49C1662.18 214.256 1659.5 217.093 1659.5 220.594V221.148C1659.5 224.649 1662.18 227.486 1665.49 227.486H1666.02C1669.32 227.486 1672 224.649 1672 221.148V220.594C1672 217.093 1669.32 214.256 1666.02 214.256Z" fill="black" stroke="#C06520" stroke-width="2.19" stroke-miterlimit="10"/>
<path d="M1504.71 173.936V159.542L1493.66 147.863" stroke="#C06520" stroke-width="2.19" stroke-linecap="round" stroke-linejoin="round"/>
</g>
<defs>
<clipPath id="clip0_49_79">
<rect width="1728" height="255" fill="white" transform="translate(-2)"/>
</clipPath>
</defs>
</svg>
