<?xml version="1.0" encoding="UTF-8"?>
<svg id="Calque_1" xmlns="http://www.w3.org/2000/svg" xmlns:xlink="http://www.w3.org/1999/xlink"
     viewBox="0 0 1440.2 1515.27">
    <defs>
        <mask id="mask" x="1058.18" y="720.37" width="309.89" height="539.57" maskUnits="userSpaceOnUse">
            <g id="mask0_414_3">
                <path d="M1222.04,883.01h13.88c13.71,0,24.83-11.12,24.83-24.83v-112.98c0-13.71-11.12-24.83-24.83-24.83h-112.98c-13.71,0-24.83,11.12-24.83,24.83v112.98c0,13.71,11.12,24.83,24.83,24.83h99.1Z"
                      fill="#fff" stroke-width="0"/>
            </g>
        </mask>
        <mask id="mask-1" x="815.26" y="336.98" width="163.17" height="174.71" maskUnits="userSpaceOnUse">
            <g id="mask1_414_3">
                <path d="M815.26,396.97h163.17v29.29c0,13.65-11.08,24.73-24.73,24.73h-113.71c-13.65,0-24.73-11.08-24.73-24.73v-29.29Z"
                      fill="#fff" stroke-width="0"/>
            </g>
        </mask>
    </defs>
    <rect x="369" y="516" width="711" height="648" shape-rendering="crispEdges" fill="none" stroke-width="0"/>
    <path d="M984.01,1213.35h175.91c14.84,0,18.43-6.48,18.43-18.43v-88.55s-1.97-16.54,16.54-16.54h115.23" fill="none"
          stroke="#c06520" stroke-linejoin="round" stroke-width="3.9"/>
    <path d="M1239.44,1202.26h-20.6c-14.25,0-18.26-9.2-18.26-18.26v-28.01c0-16.72-14.58-14.58-14.58-14.58h-228.13c-7.65,0-13.85,6.2-13.85,13.85v12.55"
          fill="none" stroke="#c06520" stroke-linejoin="round" stroke-width="3.9"/>
    <path d="M1233.42,1202.19h134.78v-381.53c0-7.98-6.47-14.46-14.46-14.46h-89.05" fill="none" stroke="#c06520"
          stroke-linecap="round" stroke-linejoin="round" stroke-width="3.9"/>
    <path d="M1367.99,1202.35h50.87" fill="none" stroke="#c06520" stroke-linecap="round" stroke-linejoin="round"
          stroke-width="3.9"/>
    <path d="M787.2,1506.38v-38.21h-98c-6.12,0-11.07-4.96-11.07-11.07v-127.21c0-6.12,4.96-11.07,11.07-11.07h74.53c6.12,0,11.07-4.96,11.07-11.07v-96.25c0-5.13-4.16-9.29-9.29-9.29h-236.4c-7.2,0-13.03-5.83-13.03-13.03v-116.86H32.58c-16.92,0-30.63-13.72-30.63-30.63v-186.54c0-16.92,13.72-30.63,30.63-30.63h121.9"
          fill="none" stroke="#c06520" stroke-linecap="round" stroke-linejoin="round" stroke-width="3.9"/>
    <path d="M1393.97,1202.57v28.97c0,4.72-3.83,8.55-8.55,8.55h-118.54" fill="none" stroke="#c06520"
          stroke-linecap="round" stroke-linejoin="round" stroke-width="3.9"/>
    <path d="M1268.33,1219.8h-53.81c-5.78,0-10.46,4.68-10.46,10.46v74.23c0,5.78-4.68,10.46-10.46,10.46h-210.54"
          fill="none" stroke="#c06520" stroke-linecap="round" stroke-linejoin="round" stroke-width="3.9"/>
    <path d="M1267.99,1410.53v-207.74" fill="none" stroke="#c06520" stroke-linecap="round" stroke-linejoin="round"
          stroke-width="3.9"/>
    <path d="M1310.12,1212.14c4.99,0,9.04-4.05,9.04-9.04s-4.05-9.04-9.04-9.04-9.04,4.05-9.04,9.04,4.05,9.04,9.04,9.04Z"
          fill="#0b0505" stroke="#c06520" stroke-miterlimit="10" stroke-width="3.9"/>
    <path d="M1234.48,1089.89v142.07c0,3.67,2.98,6.65,6.65,6.65h27.2" fill="none" stroke="#c06520"
          stroke-linejoin="round" stroke-width="3.9"/>
    <path d="M1234.48,1171.79h132.98" fill="none" stroke="#c06520" stroke-linecap="round" stroke-linejoin="round"
          stroke-width="3.9"/>
    <path d="M1310.48,1170.78v-80.95" fill="none" stroke="#c06520" stroke-linejoin="round" stroke-width="3.9"/>
    <path d="M1310.12,1181.51c4.99,0,9.04-4.05,9.04-9.04s-4.05-9.04-9.04-9.04-9.04,4.05-9.04,9.04,4.05,9.04,9.04,9.04Z"
          fill="#0b0505" stroke="#c06520" stroke-miterlimit="10" stroke-width="3.9"/>
    <path d="M1310.11,1098.87c4.99,0,9.04-4.05,9.04-9.04s-4.05-9.04-9.04-9.04-9.04,4.05-9.04,9.04,4.05,9.04,9.04,9.04Z"
          fill="#0b0505" stroke="#c06520" stroke-miterlimit="10" stroke-width="3.9"/>
    <path d="M1268.7,1427.02c4.99,0,9.04-4.05,9.04-9.04s-4.05-9.04-9.04-9.04-9.04,4.05-9.04,9.04,4.05,9.04,9.04,9.04Z"
          fill="#0b0505" stroke="#c06520" stroke-miterlimit="10" stroke-width="3.9"/>
    <path d="M653.59,1210.62c4.99,0,9.04-4.05,9.04-9.04s-4.05-9.04-9.04-9.04-9.04,4.05-9.04,9.04,4.05,9.04,9.04,9.04Z"
          fill="#0b0505" stroke="#c06520" stroke-miterlimit="10" stroke-width="3.9"/>
    <path d="M786.84,1513.32c4.99,0,9.04-4.05,9.04-9.04s-4.05-9.04-9.04-9.04-9.04,4.05-9.04,9.04,4.05,9.04,9.04,9.04Z"
          fill="#0b0505" stroke="#c06520" stroke-miterlimit="10" stroke-width="3.9"/>
    <path d="M1418.4,1196.59v11.31c0,5.01,4.06,9.07,9.07,9.07h1.71c5.01,0,9.07-4.06,9.07-9.07v-11.31c0-5.01-4.06-9.07-9.07-9.07h-1.71c-5.01,0-9.07,4.06-9.07,9.07Z"
          fill="#0b0505" stroke="#c06520" stroke-linecap="round" stroke-linejoin="round" stroke-width="3.9"/>
    <path d="M1222.04,883.01h13.88c13.71,0,24.83-11.12,24.83-24.83v-112.98c0-13.71-11.12-24.83-24.83-24.83h-112.98c-13.71,0-24.83,11.12-24.83,24.83v112.98c0,13.71,11.12,24.83,24.83,24.83h99.1Z"
          fill="none" stroke="#c06520" stroke-linecap="round" stroke-miterlimit="10" stroke-width="3.13"/>
    <g mask="url(#mask)">
        <path d="M1148.78,844.36v7.84" fill="none" stroke="#c06520" stroke-linecap="round" stroke-linejoin="round"
              stroke-width="4.08"/>
        <path d="M1174.35,761.07h-51.12v82.7h51.12v-82.7Z" fill="none" stroke="#c06520" stroke-linecap="round"
              stroke-linejoin="round" stroke-width="4.08"/>
        <path d="M1123.23,778.12h50.92" fill="none" stroke="#c06520" stroke-linecap="round" stroke-linejoin="round"
              stroke-width="4.08"/>
        <path d="M1130.64,790.23h-.71" fill="none" stroke="#c06520" stroke-linecap="round" stroke-miterlimit="10"
              stroke-width="5.28"/>
        <path d="M1149.53,790.23h-.72" fill="none" stroke="#c06520" stroke-linecap="round" stroke-miterlimit="10"
              stroke-width="5.28"/>
        <path d="M1130.64,811.74h-.71" fill="none" stroke="#c06520" stroke-linecap="round" stroke-miterlimit="10"
              stroke-width="5.28"/>
        <path d="M1149.53,811.74h-.72" fill="none" stroke="#c06520" stroke-linecap="round" stroke-miterlimit="10"
              stroke-width="5.28"/>
        <path d="M1130.64,833.24h-.71" fill="none" stroke="#c06520" stroke-linecap="round" stroke-miterlimit="10"
              stroke-width="5.28"/>
        <path d="M1167.64,790.23h-.72" fill="none" stroke="#c06520" stroke-linecap="round" stroke-miterlimit="10"
              stroke-width="5.28"/>
        <path d="M1167.64,811.74h-.72" fill="none" stroke="#c06520" stroke-linecap="round" stroke-miterlimit="10"
              stroke-width="5.28"/>
        <path d="M1167.64,833.24h-.72" fill="none" stroke="#c06520" stroke-linecap="round" stroke-miterlimit="10"
              stroke-width="5.28"/>
        <path d="M1149.53,833.24h-.72" fill="none" stroke="#c06520" stroke-linecap="round" stroke-miterlimit="10"
              stroke-width="5.28"/>
        <path d="M1140.05,800.76h-.72" fill="none" stroke="#c06520" stroke-linecap="round" stroke-miterlimit="10"
              stroke-width="5.28"/>
        <path d="M1158.94,800.76h-.72" fill="none" stroke="#c06520" stroke-linecap="round" stroke-miterlimit="10"
              stroke-width="5.28"/>
        <path d="M1140.05,822.26h-.72" fill="none" stroke="#c06520" stroke-linecap="round" stroke-miterlimit="10"
              stroke-width="5.28"/>
        <path d="M1158.94,822.26h-.72" fill="none" stroke="#c06520" stroke-linecap="round" stroke-miterlimit="10"
              stroke-width="5.28"/>
        <path d="M1212.86,844.36v7.84" fill="none" stroke="#c06520" stroke-linecap="round" stroke-linejoin="round"
              stroke-width="4.08"/>
        <path d="M1237.35,761.07h-51.12v82.7h51.12v-82.7Z" fill="none" stroke="#c06520" stroke-linecap="round"
              stroke-linejoin="round" stroke-width="4.08"/>
        <path d="M1186.18,778.12h50.92" fill="none" stroke="#c06520" stroke-linecap="round" stroke-linejoin="round"
              stroke-width="4.08"/>
        <path d="M1193.02,790.23h-.72" fill="none" stroke="#c06520" stroke-linecap="round" stroke-miterlimit="10"
              stroke-width="5.28"/>
        <path d="M1211.91,790.23h-.72" fill="none" stroke="#c06520" stroke-linecap="round" stroke-miterlimit="10"
              stroke-width="5.28"/>
        <path d="M1193.02,811.74h-.72" fill="none" stroke="#c06520" stroke-linecap="round" stroke-miterlimit="10"
              stroke-width="5.28"/>
        <path d="M1211.91,811.74h-.72" fill="none" stroke="#c06520" stroke-linecap="round" stroke-miterlimit="10"
              stroke-width="5.28"/>
        <path d="M1193.02,833.24h-.72" fill="none" stroke="#c06520" stroke-linecap="round" stroke-miterlimit="10"
              stroke-width="5.28"/>
        <path d="M1230.02,790.23h-.72" fill="none" stroke="#c06520" stroke-linecap="round" stroke-miterlimit="10"
              stroke-width="5.28"/>
        <path d="M1230.02,811.74h-.72" fill="none" stroke="#c06520" stroke-linecap="round" stroke-miterlimit="10"
              stroke-width="5.28"/>
        <path d="M1230.02,833.24h-.72" fill="none" stroke="#c06520" stroke-linecap="round" stroke-miterlimit="10"
              stroke-width="5.28"/>
        <path d="M1211.91,833.24h-.72" fill="none" stroke="#c06520" stroke-linecap="round" stroke-miterlimit="10"
              stroke-width="5.28"/>
        <path d="M1202.43,800.76h-.72" fill="none" stroke="#c06520" stroke-linecap="round" stroke-miterlimit="10"
              stroke-width="5.28"/>
        <path d="M1221.32,800.76h-.72" fill="none" stroke="#c06520" stroke-linecap="round" stroke-miterlimit="10"
              stroke-width="5.28"/>
        <path d="M1202.43,822.26h-.72" fill="none" stroke="#c06520" stroke-linecap="round" stroke-miterlimit="10"
              stroke-width="5.28"/>
        <path d="M1221.32,822.26h-.72" fill="none" stroke="#c06520" stroke-linecap="round" stroke-miterlimit="10"
              stroke-width="5.28"/>
        <path d="M1300.33,761.07h-51.12v82.7h51.12v-82.7Z" fill="none" stroke="#c06520" stroke-linecap="round"
              stroke-linejoin="round" stroke-width="4.08"/>
        <path d="M1249.16,778.12h50.92" fill="none" stroke="#c06520" stroke-linecap="round" stroke-linejoin="round"
              stroke-width="4.08"/>
        <path d="M1256,790.23h-.72" fill="none" stroke="#c06520" stroke-linecap="round" stroke-miterlimit="10"
              stroke-width="5.28"/>
        <path d="M1255.28,811.74h110.15v445.56h-297.76" fill="none" stroke="#c06520" stroke-linecap="round"
              stroke-miterlimit="10" stroke-width="5.28"/>
        <path d="M1256,833.24h-.72" fill="none" stroke="#c06520" stroke-linecap="round" stroke-miterlimit="10"
              stroke-width="5.28"/>
        <path d="M1111.39,761.07h-51.12v82.7h51.12v-82.7Z" fill="none" stroke="#c06520" stroke-linecap="round"
              stroke-linejoin="round" stroke-width="4.08"/>
        <path d="M1060.22,778.12h50.92" fill="none" stroke="#c06520" stroke-linecap="round" stroke-linejoin="round"
              stroke-width="4.08"/>
        <path d="M1104.06,790.23h-.72" fill="none" stroke="#c06520" stroke-linecap="round" stroke-miterlimit="10"
              stroke-width="5.28"/>
        <path d="M1104.06,811.74h-.72" fill="none" stroke="#c06520" stroke-linecap="round" stroke-miterlimit="10"
              stroke-width="5.28"/>
        <path d="M1104.06,833.24h-.72" fill="none" stroke="#c06520" stroke-linecap="round" stroke-miterlimit="10"
              stroke-width="5.28"/>
    </g>
    <path d="M1100.12,853.61h159.65" fill="none" stroke="#c06520" stroke-linecap="round" stroke-miterlimit="10"
          stroke-width="3.13"/>
    <path d="M503.98,451.36h13.88c13.71,0,24.83-11.12,24.83-24.83v-112.98c0-13.71-11.12-24.83-24.83-24.83h-112.98c-13.71,0-24.83,11.12-24.83,24.83v112.98c0,13.71,11.12,24.83,24.83,24.83h17.22"
          fill="none" stroke="#c06520" stroke-linecap="round" stroke-miterlimit="10" stroke-width="3.13"/>
    <path d="M461.37,450.93v-118.58" fill="none" stroke="#c06520" stroke-linecap="round" stroke-miterlimit="10"
          stroke-width="3.13"/>
    <path d="M458.84,351.02l-5.45-11.85" fill="none" stroke="#c06520" stroke-linecap="round" stroke-miterlimit="10"
          stroke-width="3.13"/>
    <path d="M457.95,357.48l-8.69-9.82" fill="none" stroke="#c06520" stroke-linecap="round" stroke-miterlimit="10"
          stroke-width="3.13"/>
    <path d="M459.46,368.16l-10.95-9.93" fill="none" stroke="#c06520" stroke-linecap="round" stroke-miterlimit="10"
          stroke-width="3.13"/>
    <path d="M463.89,351.02l5.45-11.85" fill="none" stroke="#c06520" stroke-linecap="round" stroke-miterlimit="10"
          stroke-width="3.13"/>
    <path d="M464.78,357.48l8.69-9.82" fill="none" stroke="#c06520" stroke-linecap="round" stroke-miterlimit="10"
          stroke-width="3.13"/>
    <path d="M463.27,368.16l10.96-9.93" fill="none" stroke="#c06520" stroke-linecap="round" stroke-miterlimit="10"
          stroke-width="3.13"/>
    <path d="M453.4,352.22v9.09c0,4.02,3.26,7.28,7.28,7.28h1.39c4.02,0,7.28-3.26,7.28-7.28v-9.09c0-4.02-3.26-7.28-7.28-7.28h-1.39c-4.02,0-7.28,3.26-7.28,7.28Z"
          fill="#0b0505" stroke="#c06520" stroke-linecap="round" stroke-miterlimit="10" stroke-width="3.13"/>
    <path d="M453.39,356.05l11.73,11.73" fill="none" stroke="#c06520" stroke-linecap="round" stroke-miterlimit="10"
          stroke-width="3.13"/>
    <path d="M460.22,361.92l8.88-8.88" fill="none" stroke="#c06520" stroke-linecap="round" stroke-miterlimit="10"
          stroke-width="3.13"/>
    <path d="M465.03,357.11l-9.71-9.71" fill="none" stroke="#c06520" stroke-linecap="round" stroke-miterlimit="10"
          stroke-width="3.13"/>
    <path d="M422.1,450.93v-118.58" fill="none" stroke="#c06520" stroke-linecap="round" stroke-miterlimit="10"
          stroke-width="3.13"/>
    <path d="M419.57,351.02l-5.45-11.85" fill="none" stroke="#c06520" stroke-linecap="round" stroke-miterlimit="10"
          stroke-width="3.13"/>
    <path d="M418.68,357.48l-8.69-9.82" fill="none" stroke="#c06520" stroke-linecap="round" stroke-miterlimit="10"
          stroke-width="3.13"/>
    <path d="M420.19,368.16l-10.95-9.93" fill="none" stroke="#c06520" stroke-linecap="round" stroke-miterlimit="10"
          stroke-width="3.13"/>
    <path d="M424.62,351.02l5.45-11.85" fill="none" stroke="#c06520" stroke-linecap="round" stroke-miterlimit="10"
          stroke-width="3.13"/>
    <path d="M425.51,357.48l8.69-9.82" fill="none" stroke="#c06520" stroke-linecap="round" stroke-miterlimit="10"
          stroke-width="3.13"/>
    <path d="M424,368.16l10.96-9.93" fill="none" stroke="#c06520" stroke-linecap="round" stroke-miterlimit="10"
          stroke-width="3.13"/>
    <path d="M414.12,352.22v9.09c0,4.02,3.26,7.28,7.28,7.28h1.39c4.02,0,7.28-3.26,7.28-7.28v-9.09c0-4.02-3.26-7.28-7.28-7.28h-1.39c-4.02,0-7.28,3.26-7.28,7.28Z"
          fill="#0b0505" stroke="#c06520" stroke-linecap="round" stroke-miterlimit="10" stroke-width="3.13"/>
    <path d="M414.12,356.05l11.73,11.73" fill="none" stroke="#c06520" stroke-linecap="round" stroke-miterlimit="10"
          stroke-width="3.13"/>
    <path d="M420.95,361.92l8.88-8.88" fill="none" stroke="#c06520" stroke-linecap="round" stroke-miterlimit="10"
          stroke-width="3.13"/>
    <path d="M425.76,357.11l-9.71-9.71" fill="none" stroke="#c06520" stroke-linecap="round" stroke-miterlimit="10"
          stroke-width="3.13"/>
    <path d="M503.98,450.93v-118.58" fill="none" stroke="#c06520" stroke-linecap="round" stroke-miterlimit="10"
          stroke-width="3.13"/>
    <path d="M501.46,351.02l-5.45-11.85" fill="none" stroke="#c06520" stroke-linecap="round" stroke-miterlimit="10"
          stroke-width="3.13"/>
    <path d="M500.56,357.48l-8.69-9.82" fill="none" stroke="#c06520" stroke-linecap="round" stroke-miterlimit="10"
          stroke-width="3.13"/>
    <path d="M502.08,368.16l-10.96-9.93" fill="none" stroke="#c06520" stroke-linecap="round" stroke-miterlimit="10"
          stroke-width="3.13"/>
    <path d="M506.51,351.02l5.44-11.85" fill="none" stroke="#c06520" stroke-linecap="round" stroke-miterlimit="10"
          stroke-width="3.13"/>
    <path d="M507.4,357.48l8.69-9.82" fill="none" stroke="#c06520" stroke-linecap="round" stroke-miterlimit="10"
          stroke-width="3.13"/>
    <path d="M505.88,368.16l10.96-9.93" fill="none" stroke="#c06520" stroke-linecap="round" stroke-miterlimit="10"
          stroke-width="3.13"/>
    <path d="M496.01,352.22v9.09c0,4.02,3.26,7.28,7.28,7.28h1.39c4.02,0,7.28-3.26,7.28-7.28v-9.09c0-4.02-3.26-7.28-7.28-7.28h-1.39c-4.02,0-7.28,3.26-7.28,7.28Z"
          fill="#0b0505" stroke="#c06520" stroke-linecap="round" stroke-miterlimit="10" stroke-width="3.13"/>
    <path d="M496.01,356.05l11.72,11.73" fill="none" stroke="#c06520" stroke-linecap="round" stroke-miterlimit="10"
          stroke-width="3.13"/>
    <path d="M502.83,361.92l8.88-8.88" fill="none" stroke="#c06520" stroke-linecap="round" stroke-miterlimit="10"
          stroke-width="3.13"/>
    <path d="M507.64,357.11l-9.71-9.71" fill="none" stroke="#c06520" stroke-linecap="round" stroke-miterlimit="10"
          stroke-width="3.13"/>
    <path d="M926.78,288.72h27.03c13.71,0,24.83,11.12,24.83,24.83v112.98c0,13.71-11.12,24.83-24.83,24.83h-112.98c-13.71,0-24.83-11.12-24.83-24.83v-112.98c0-13.71,11.12-24.83,24.83-24.83h27.38"
          fill="none" stroke="#c06520" stroke-linecap="round" stroke-miterlimit="10" stroke-width="3.13"/>
    <path d="M856.5,391.87v-30.7" fill="none" stroke="#c06520" stroke-linecap="round" stroke-miterlimit="10"
          stroke-width="3.13"/>
    <path d="M848.03,385.06c0,4.02,3.26,7.28,7.28,7.28h1.39c4.02,0,7.28-3.26,7.28-7.28,0,0-.47-16.37-7.28-16.37s-8.67,16.37-8.67,16.37Z"
          fill="#0b0505" stroke="#c06520" stroke-linecap="round" stroke-miterlimit="10" stroke-width="3.13"/>
    <path d="M896.28,391.87v-30.7" fill="none" stroke="#c06520" stroke-linecap="round" stroke-miterlimit="10"
          stroke-width="3.13"/>
    <path d="M887.81,385.06c0,4.02,3.26,7.28,7.28,7.28h1.39c4.02,0,7.28-3.26,7.28-7.28,0,0-.47-16.37-7.28-16.37s-8.67,16.37-8.67,16.37Z"
          fill="#0b0505" stroke="#c06520" stroke-linecap="round" stroke-miterlimit="10" stroke-width="3.13"/>
    <path d="M936.06,391.87v-30.7" fill="none" stroke="#c06520" stroke-linecap="round" stroke-miterlimit="10"
          stroke-width="3.13"/>
    <path d="M927.58,385.06c0,4.02,3.26,7.28,7.28,7.28h1.39c4.02,0,7.28-3.26,7.28-7.28,0,0-.47-16.37-7.28-16.37s-8.67,16.37-8.67,16.37Z"
          fill="#0b0505" stroke="#c06520" stroke-linecap="round" stroke-miterlimit="10" stroke-width="3.13"/>
    <g mask="url(#mask-1)">
        <path d="M832.38,338.21c0,12.97-5.72,12.97-5.72,25.94s5.72,12.97,5.72,25.94-5.72,12.97-5.72,25.94,5.72,12.97,5.72,25.95-5.72,12.97-5.72,25.95"
              fill="none" stroke="#c06520" stroke-linecap="round" stroke-miterlimit="10" stroke-width="2.47"/>
        <path d="M845.98,342.46c0,12.97-5.72,12.97-5.72,25.94s5.72,12.97,5.72,25.94-5.72,12.97-5.72,25.94,5.72,12.97,5.72,25.95-5.72,12.97-5.72,25.95"
              fill="none" stroke="#c06520" stroke-linecap="round" stroke-miterlimit="10" stroke-width="2.47"/>
        <path d="M859.57,346.71c0,12.97-5.72,12.97-5.72,25.94s5.72,12.97,5.72,25.94-5.72,12.97-5.72,25.94,5.72,12.97,5.72,25.95-5.72,12.97-5.72,25.95"
              fill="none" stroke="#c06520" stroke-linecap="round" stroke-miterlimit="10" stroke-width="2.47"/>
        <path d="M873.17,350.97c0,12.97-5.72,12.97-5.72,25.94s5.72,12.97,5.72,25.94-5.72,12.97-5.72,25.94,5.72,12.97,5.72,25.95-5.72,12.97-5.72,25.95"
              fill="none" stroke="#c06520" stroke-linecap="round" stroke-miterlimit="10" stroke-width="2.47"/>
        <path d="M886.76,355.22c0,12.97-5.72,12.97-5.72,25.94s5.72,12.97,5.72,25.94-5.72,12.97-5.72,25.94,5.72,12.97,5.72,25.95-5.72,12.97-5.72,25.95"
              fill="none" stroke="#c06520" stroke-linecap="round" stroke-miterlimit="10" stroke-width="2.47"/>
        <path d="M900.35,359.47c0,12.97-5.72,12.97-5.72,25.94s5.72,12.97,5.72,25.94-5.72,12.97-5.72,25.94,5.72,12.97,5.72,25.95-5.72,12.97-5.72,25.95"
              fill="none" stroke="#c06520" stroke-linecap="round" stroke-miterlimit="10" stroke-width="2.47"/>
        <path d="M913.95,363.72c0,12.97-5.72,12.97-5.72,25.94s5.72,12.97,5.72,25.94-5.72,12.97-5.72,25.94,5.72,12.97,5.72,25.95-5.72,12.97-5.72,25.95"
              fill="none" stroke="#c06520" stroke-linecap="round" stroke-miterlimit="10" stroke-width="2.47"/>
        <path d="M927.54,367.97c0,12.97-5.72,12.97-5.72,25.94s5.72,12.97,5.72,25.94-5.72,12.97-5.72,25.94,5.72,12.97,5.72,25.95-5.72,12.97-5.72,25.95"
              fill="none" stroke="#c06520" stroke-linecap="round" stroke-miterlimit="10" stroke-width="2.47"/>
        <path d="M941.14,372.22c0,12.97-5.72,12.97-5.72,25.94s5.72,12.97,5.72,25.94-5.72,12.97-5.72,25.94,5.72,12.97,5.72,25.95-5.72,12.97-5.72,25.95"
              fill="none" stroke="#c06520" stroke-linecap="round" stroke-miterlimit="10" stroke-width="2.47"/>
        <path d="M954.73,376.48c0,12.97-5.72,12.97-5.72,25.94s5.72,12.97,5.72,25.94-5.72,12.97-5.72,25.94,5.72,12.97,5.72,25.95-5.72,12.97-5.72,25.95"
              fill="none" stroke="#c06520" stroke-linecap="round" stroke-miterlimit="10" stroke-width="2.47"/>
        <path d="M968.33,380.73c0,12.97-5.72,12.97-5.72,25.94s5.72,12.97,5.72,25.94-5.72,12.97-5.72,25.94,5.72,12.97,5.72,25.95-5.72,12.97-5.72,25.95"
              fill="none" stroke="#c06520" stroke-linecap="round" stroke-miterlimit="10" stroke-width="2.47"/>
    </g>
    <path d="M815.87,396.19h162.56" fill="none" stroke="#c06520" stroke-linecap="round" stroke-miterlimit="10"
          stroke-width="3.13"/>
    <path d="M190.55,719.61h-9.98c-13.71,0-24.83,11.12-24.83,24.83v112.98c0,13.71,11.12,24.83,24.83,24.83h112.98c13.71,0,24.83-11.12,24.83-24.83v-112.98c0-13.71-11.12-24.83-24.83-24.83h-63.01"
          fill="none" stroke="#c06520" stroke-linecap="round" stroke-miterlimit="10" stroke-width="3.13"/>
    <path d="M196.53,758.36h-11.3c1.21,3.67,1.21,7.63,0,11.3h11.3c-1.21-3.67-1.21-7.63,0-11.3Z" fill="#0b0505"
          stroke="#c06520" stroke-linecap="round" stroke-linejoin="round" stroke-width="3.13"/>
    <path d="M196.53,752.71h-11.3" fill="none" stroke="#c06520" stroke-linecap="round" stroke-linejoin="round"
          stroke-width="3.13"/>
    <path d="M236.06,758.36h-11.3c1.21,3.67,1.21,7.63,0,11.3h11.3c-1.21-3.67-1.21-7.63,0-11.3Z" fill="#0b0505"
          stroke="#c06520" stroke-linecap="round" stroke-linejoin="round" stroke-width="3.13"/>
    <path d="M236.06,752.71h-11.3" fill="none" stroke="#c06520" stroke-linecap="round" stroke-linejoin="round"
          stroke-width="3.13"/>
    <path d="M279.26,778.56v-14.13h-43.2" fill="none" stroke="#c06520" stroke-linecap="round" stroke-linejoin="round"
          stroke-width="3.13"/>
    <path d="M230.21,714.3v38.41" fill="none" stroke="#c06520" stroke-linecap="round" stroke-linejoin="round"
          stroke-width="3.13"/>
    <path d="M285.92,807.66v-10.83h2.51v-5.68h-18.46v5.68h2.51v10.83h-13.33v51.45h40.09v-51.45h-13.32Z" fill="none"
          stroke="#c06520" stroke-linecap="round" stroke-linejoin="round" stroke-width="3.15"/>
    <path d="M299.24,825.13h-40.09v11.05h40.09v-11.05Z" fill="none" stroke="#c06520" stroke-linecap="round"
          stroke-linejoin="round" stroke-width="3.15"/>
    <circle cx="265.35" cy="813.36" r="1.58" fill="#c47800" stroke-width="0"/>
    <circle cx="274.58" cy="813.36" r="1.58" fill="#c47800" stroke-width="0"/>
    <circle cx="283.81" cy="813.36" r="1.58" fill="#c47800" stroke-width="0"/>
    <circle cx="293.05" cy="813.36" r="1.58" fill="#c47800" stroke-width="0"/>
    <circle cx="269.98" cy="819.59" r="1.58" fill="#c47800" stroke-width="0"/>
    <circle cx="279.21" cy="819.59" r="1.58" fill="#c47800" stroke-width="0"/>
    <circle cx="288.44" cy="819.59" r="1.58" fill="#c47800" stroke-width="0"/>
    <circle cx="265.35" cy="845.05" r="1.58" fill="#c47800" stroke-width="0"/>
    <circle cx="274.58" cy="845.05" r="1.58" fill="#c47800" stroke-width="0"/>
    <circle cx="283.81" cy="845.05" r="1.58" fill="#c47800" stroke-width="0"/>
    <circle cx="293.05" cy="845.05" r="1.58" fill="#c47800" stroke-width="0"/>
    <circle cx="269.98" cy="851.28" r="1.58" fill="#c47800" stroke-width="0"/>
    <circle cx="279.21" cy="851.28" r="1.58" fill="#c47800" stroke-width="0"/>
    <circle cx="288.44" cy="851.28" r="1.58" fill="#c47800" stroke-width="0"/>
    <path d="M190.88,713.99v37.77" fill="none" stroke="#c06520" stroke-linecap="round" stroke-linejoin="round"
          stroke-width="3.13"/>
    <path d="M200.27,782.6v76.27h-15.88v-76.27" fill="none" stroke="#c06520" stroke-linecap="round"
          stroke-linejoin="round" stroke-width="3.13"/>
    <path d="M177.43,858.87h28.4" fill="none" stroke="#c06520" stroke-linecap="round" stroke-linejoin="round"
          stroke-width="3.13"/>
    <path d="M186.11,792.73h4.02" fill="none" stroke="#c06520" stroke-linecap="round" stroke-linejoin="round"
          stroke-width="3.13"/>
    <path d="M186.11,803.92h4.02" fill="none" stroke="#c06520" stroke-linecap="round" stroke-linejoin="round"
          stroke-width="3.13"/>
    <path d="M186.11,815.12h4.02" fill="none" stroke="#c06520" stroke-linecap="round" stroke-linejoin="round"
          stroke-width="3.13"/>
    <path d="M186.11,826.31h4.02" fill="none" stroke="#c06520" stroke-linecap="round" stroke-linejoin="round"
          stroke-width="3.13"/>
    <path d="M186.11,837.5h4.02" fill="none" stroke="#c06520" stroke-linecap="round" stroke-linejoin="round"
          stroke-width="3.13"/>
    <path d="M186.11,848.7h4.02" fill="none" stroke="#c06520" stroke-linecap="round" stroke-linejoin="round"
          stroke-width="3.13"/>
    <path d="M237.91,803.92v54.95h-15v-54.95" fill="none" stroke="#c06520" stroke-linecap="round"
          stroke-linejoin="round" stroke-width="3.13"/>
    <path d="M217.92,858.87h23.84" fill="none" stroke="#c06520" stroke-linecap="round" stroke-linejoin="round"
          stroke-width="3.13"/>
    <path d="M224.62,815.12h4.03" fill="none" stroke="#c06520" stroke-linecap="round" stroke-linejoin="round"
          stroke-width="3.13"/>
    <path d="M224.62,826.31h4.03" fill="none" stroke="#c06520" stroke-linecap="round" stroke-linejoin="round"
          stroke-width="3.13"/>
    <path d="M224.62,837.5h4.03" fill="none" stroke="#c06520" stroke-linecap="round" stroke-linejoin="round"
          stroke-width="3.13"/>
    <path d="M224.62,848.7h4.03" fill="none" stroke="#c06520" stroke-linecap="round" stroke-linejoin="round"
          stroke-width="3.13"/>
    <path d="M190.88,769.66v9.1" fill="none" stroke="#c06520" stroke-linecap="round" stroke-linejoin="round"
          stroke-width="3.13"/>
    <path d="M230.21,769.66v9.1" fill="none" stroke="#c06520" stroke-linecap="round" stroke-linejoin="round"
          stroke-width="3.13"/>
    <path d="M820.69,1244.07v61.88c0,13.71,11.12,24.83,24.83,24.83h112.98c13.71,0,24.83-11.12,24.83-24.83v-112.98c0-13.71-11.12-24.83-24.83-24.83h-60.11"
          fill="none" stroke="#c06520" stroke-linecap="round" stroke-miterlimit="10" stroke-width="3.13"/>
    <path d="M822.7,1301.97h159.66" fill="none" stroke="#c06520" stroke-linecap="round" stroke-miterlimit="10"
          stroke-width="3.13"/>
    <path d="M897.42,1238.21v63.35" fill="none" stroke="#c06520" stroke-linecap="round" stroke-linejoin="round"
          stroke-width="2.48"/>
    <path d="M886.98,1238.11l10.25,10.25h.39l10.25-10.25" fill="none" stroke="#c06520" stroke-linecap="round"
          stroke-miterlimit="10" stroke-width="2.48"/>
    <path d="M897.42,1163.52s-13.44,19.72-25.64,19.72h51.28c-15.2-3.56-25.64-19.72-25.64-19.72Z" fill="#0b0505"
          stroke="#c06520" stroke-linecap="round" stroke-linejoin="round" stroke-width="2.48"/>
    <path d="M897.42,1238.21c11.23,0,21.31-3.11,28.43-8.05h-56.85c7.11,4.95,17.2,8.05,28.42,8.05Z" fill="#0b0505"
          stroke="#c06520" stroke-linecap="round" stroke-linejoin="round" stroke-width="2.48"/>
    <path d="M936.4,1207.32c0-7.62-5.18-14.43-13.33-19.08h-51.28c-8.16,4.65-13.33,11.47-13.33,19.08,0,6.71,4.02,12.79,10.55,17.33h56.85c6.52-4.54,10.55-10.62,10.55-17.33h0Z"
          fill="#0b0505" stroke="#c06520" stroke-miterlimit="10" stroke-width="2.48"/>
    <path d="M897.44,1205.04c3.18,0,5.75-2.01,5.75-4.49s-2.57-4.49-5.75-4.49-5.75,2.01-5.75,4.49,2.57,4.49,5.75,4.49Z"
          fill="#0b0505" stroke="#c06520" stroke-miterlimit="10" stroke-width="2.19"/>
    <circle cx="869" cy="1220.76" r="1.24" fill="#c47800" stroke-width="0"/>
    <circle cx="875.23" cy="1220.76" r="1.24" fill="#c47800" stroke-width="0"/>
    <circle cx="881.46" cy="1220.76" r="1.24" fill="#c47800" stroke-width="0"/>
    <circle cx="887.68" cy="1220.76" r="1.24" fill="#c47800" stroke-width="0"/>
    <circle cx="893.91" cy="1220.76" r="1.24" fill="#c47800" stroke-width="0"/>
    <circle cx="900.14" cy="1220.76" r="1.24" fill="#c47800" stroke-width="0"/>
    <circle cx="906.37" cy="1220.76" r="1.24" fill="#c47800" stroke-width="0"/>
    <circle cx="912.6" cy="1220.76" r="1.24" fill="#c47800" stroke-width="0"/>
    <circle cx="918.82" cy="1220.76" r="1.24" fill="#c47800" stroke-width="0"/>
    <circle cx="925.05" cy="1220.76" r="1.24" fill="#c47800" stroke-width="0"/>
    <circle cx="872.29" cy="1191.39" r="1.24" fill="#c47800" stroke-width="0"/>
    <circle cx="878.52" cy="1191.39" r="1.24" fill="#c47800" stroke-width="0"/>
    <circle cx="884.75" cy="1191.39" r="1.24" fill="#c47800" stroke-width="0"/>
    <circle cx="890.97" cy="1191.39" r="1.24" fill="#c47800" stroke-width="0"/>
    <circle cx="897.2" cy="1191.39" r="1.24" fill="#c47800" stroke-width="0"/>
    <circle cx="903.43" cy="1191.39" r="1.24" fill="#c47800" stroke-width="0"/>
    <circle cx="909.66" cy="1191.39" r="1.24" fill="#c47800" stroke-width="0"/>
    <circle cx="915.89" cy="1191.39" r="1.24" fill="#c47800" stroke-width="0"/>
    <circle cx="922.11" cy="1191.39" r="1.24" fill="#c47800" stroke-width="0"/>
    <path d="M838.55,1234.16c-.37-2.62-.99-7-1.69-11.91-.19-1.32.13-2.68.96-3.72,1.46-1.82,2.34-4.12,2.34-6.64,0-3.2-1.42-6.06-3.66-8.01-1.77-1.53-2.8-3.76-3.13-6.07-.19-1.31-.33-2.27-.4-2.76-.57-3.77.79-14.14,4.91-11.26-2.84-2.32-9.27-3.28-10.85,8.8-.15,1.12-.34,2.71-.58,4.62-.32,2.59-1.73,4.86-3.73,6.53-2.33,1.95-3.81,4.87-3.81,8.14,0,2.87,1.14,5.47,2.98,7.38,1.06,1.1,1.6,2.6,1.42,4.12-.5,4.14-.94,7.77-1.26,10.2-10,3.17-17.25,12.52-17.25,23.57,0,13.66,11.07,24.72,24.72,24.72s24.72-11.07,24.72-24.72c0-10.47-6.51-19.39-15.7-23h.01Z"
          fill="#0b0505" stroke="#c06520" stroke-miterlimit="10" stroke-width="3.13"/>
    <path d="M859.36,1252.04h-58.84v49.24h58.84v-49.24Z" fill="#0b0505" stroke="#c06520" stroke-miterlimit="10"
          stroke-width="3.13"/>
    <path d="M839.22,1264.27h-18.56v15.08h18.56v-15.08Z" fill="#0b0505" stroke="#c06520" stroke-miterlimit="10"
          stroke-width="3.13"/>
    <path d="M936.37,1211.84l26.02,5.64v9.21" fill="none" stroke="#c06520" stroke-linecap="round"
          stroke-linejoin="round" stroke-width="3.13"/>
    <path d="M831.65,1185.36c11.8-9.32,12.28,15.21,26.04,20.95" fill="none" stroke="#c06520" stroke-linecap="round"
          stroke-miterlimit="10" stroke-width="3.13"/>
    <path d="M994.96,1233.89l-32.87-6.19s-30.67,4.36-32.48,6.19h65.35Z" fill="none" stroke="#c06520"
          stroke-linecap="round" stroke-linejoin="round" stroke-width="2.41"/>
    <path d="M994.96,1233.89h-65.35v68.09h65.35v-68.09Z" fill="#0b0505" stroke="#c06520" stroke-linecap="round"
          stroke-linejoin="round" stroke-width="2.41"/>
    <path d="M961.78,1234.8v7.91h-27.63l56.37,10.74-56.21-.04,56.21,10.71-56.21-.04,56.21,10.71-56.21-.04,56.21,10.71-56.21-.04,56.21,10.71h-56.06"
          fill="none" stroke="#c06520" stroke-linecap="round" stroke-linejoin="round" stroke-width="2.31"/>
    <path d="M543.76,373c3.66-1.22,269.69,0,269.69,0h-269.69Z" fill="#e0832f" stroke-width="0"/>
    <path d="M543.76,373c3.66-1.22,269.69,0,269.69,0" fill="none" stroke="#c06520" stroke-miterlimit="10"
          stroke-width="3.9"/>
    <path d="M542.54,399.84h100.06v-40.52c0-12.67,10.27-22.94,22.94-22.94h150.34" fill="none" stroke="#c06520"
          stroke-miterlimit="10" stroke-width="3.9"/>
    <path d="M642.6,381.54c4.99,0,9.04-4.05,9.04-9.04s-4.05-9.04-9.04-9.04-9.04,4.05-9.04,9.04,4.05,9.04,9.04,9.04Z"
          fill="#0b0505" stroke="#c06520" stroke-miterlimit="10" stroke-width="3.9"/>
    <path d="M701.18,338.83v32.95" fill="none" stroke="#c06520" stroke-miterlimit="10" stroke-width="3.9"/>
    <path d="M1212.48,447.03v270.9" fill="none" stroke="#c06520" stroke-miterlimit="10" stroke-width="3.9"/>
    <path d="M1249.18,327.19h20.19v110.86h-248.07v-100.12c0-9.84-7.98-17.81-17.81-17.81h-24.49" fill="none"
          stroke="#c06520" stroke-linecap="round" stroke-linejoin="round" stroke-width="3.9"/>
    <path d="M1211.65,447.03v-77.34" fill="none" stroke="#c06520" stroke-linejoin="round" stroke-width="3.9"/>
    <path d="M1173.41,369.52v-38.11c0-20.89,16.99-37.89,37.89-37.89s37.89,16.99,37.89,37.89v38.11h-75.78Z" fill="none"
          stroke="#c06520" stroke-linejoin="round" stroke-width="3.9"/>
    <path d="M1211.3,302.14c16.15,0,29.27,13.11,29.27,29.27v38.11h-58.54v-38.11c0-16.15,13.11-29.27,29.27-29.27Z"
          fill="none" stroke="#c06520" stroke-linejoin="round" stroke-width="3.9"/>
    <path d="M1203.17,294.41l2.18,8.34" fill="none" stroke="#c06520" stroke-linejoin="round" stroke-width="3.9"/>
    <path d="M1218,294.41l-2.17,8.34" fill="none" stroke="#c06520" stroke-linejoin="round" stroke-width="3.9"/>
    <path d="M1211.3,302.14v67.38" fill="none" stroke="#c06520" stroke-linejoin="round" stroke-width="3.9"/>
    <path d="M979.81,372.18h71.59v-24.25c0-12.22,9.91-22.12,22.12-22.12h99.88" fill="none" stroke="#c06520"
          stroke-miterlimit="10" stroke-width="3.9"/>
    <path d="M1004.28,285.34h27.14v-87.69" fill="none" stroke="#c06520" stroke-linecap="round" stroke-linejoin="round"
          stroke-width="3.9"/>
    <path d="M1054.71,162.17h50.87" fill="none" stroke="#c06520" stroke-linecap="round" stroke-linejoin="round"
          stroke-width="3.9"/>
    <path d="M751.8,522.28v-150.03" fill="none" stroke="#c06520" stroke-linecap="round" stroke-linejoin="round"
          stroke-width="3.9"/>
    <path d="M742.26,445.81v-73.63" fill="none" stroke="#c06520" stroke-linecap="round" stroke-linejoin="round"
          stroke-width="3.9"/>
    <path d="M1105.91,190.48v-116.52" fill="none" stroke="#c06520" stroke-linecap="round" stroke-linejoin="round"
          stroke-width="3.9"/>
    <path d="M1106.23,106.88h10.07c7.07,0,12.81,5.69,12.84,12.76.19,46.54-.05,237.08-.05,237.08" fill="none"
          stroke="#c06520" stroke-linecap="round" stroke-linejoin="round" stroke-width="3.9"/>
    <path d="M1081.56,75.48v41.21c0,4.72-3.83,8.55-8.55,8.55h-16.14" fill="none" stroke="#c06520" stroke-linecap="round"
          stroke-linejoin="round" stroke-width="3.9"/>
    <path d="M1080.69,162.98v113.89c0,4.72-3.83,8.55-8.55,8.55h-40.73" fill="none" stroke="#c06520"
          stroke-linecap="round" stroke-linejoin="round" stroke-width="3.9"/>
    <path d="M1004.28,292.1c4.99,0,9.04-4.05,9.04-9.04s-4.05-9.04-9.04-9.04-9.04,4.05-9.04,9.04,4.05,9.04,9.04,9.04Z"
          fill="#0b0505" stroke="#c06520" stroke-miterlimit="10" stroke-width="3.9"/>
    <path d="M1054.93,20.03v168.77c0,4.72-3.83,8.55-8.55,8.55h-14.96" fill="none" stroke="#c06520"
          stroke-linejoin="round" stroke-width="3.9"/>
    <path d="M1031.16,206.79c4.99,0,9.04-4.05,9.04-9.04s-4.05-9.04-9.04-9.04-9.04,4.05-9.04,9.04,4.05,9.04,9.04,9.04Z"
          fill="#0b0505" stroke="#c06520" stroke-miterlimit="10" stroke-width="3.9"/>
    <path d="M1112.94,198.38h-14.07c1.51,4.57,1.51,9.5,0,14.07h14.07c-1.51-4.57-1.51-9.5,0-14.07Z" fill="#0b0505"
          stroke="#c06520" stroke-linecap="round" stroke-linejoin="round" stroke-width="3.9"/>
    <path d="M1112.94,190.48h-14.06" fill="none" stroke="#c06520" stroke-linecap="round" stroke-linejoin="round"
          stroke-width="3.9"/>
    <path d="M751.8,541.47c4.99,0,9.04-4.05,9.04-9.04s-4.05-9.04-9.04-9.04-9.04,4.05-9.04,9.04,4.05,9.04,9.04,9.04Z"
          fill="#0b0505" stroke="#c06520" stroke-miterlimit="10" stroke-width="3.9"/>
    <path d="M1054.71,20.03c4.99,0,9.04-4.05,9.04-9.04s-4.05-9.04-9.04-9.04-9.04,4.05-9.04,9.04,4.05,9.04,9.04,9.04Z"
          fill="#0b0505" stroke="#c06520" stroke-miterlimit="10" stroke-width="3.9"/>
    <path d="M703.34,466.3h43.83c11.3,0,20.47-9.16,20.47-20.47s-9.17-20.47-20.47-20.47h-43.83c-11.31,0-20.47,9.17-20.47,20.47s9.16,20.47,20.47,20.47Z"
          fill="#0b0505" stroke="#c06520" stroke-linecap="round" stroke-linejoin="round" stroke-width="4.23"/>
    <path d="M1261.9,783.02h109.27c12.78,0,23.14,10.36,23.14,23.14v395.02" fill="none" stroke="#c06520"
          stroke-miterlimit="10" stroke-width="3.9"/>
    <path d="M1380.2,911.44h-3.49c-10.13,0-18.35,8.22-18.35,18.35v3.49c0,10.13,8.22,18.35,18.35,18.35h3.49c10.13,0,18.35-8.22,18.35-18.35v-3.49c0-10.13-8.22-18.35-18.35-18.35Z"
          fill="#0b0505" stroke="#c06520" stroke-miterlimit="10" stroke-width="3.9"/>
    <path d="M1390.21,934.52c0-6.5-5.27-11.77-11.77-11.77s-11.77,5.27-11.77,11.77" fill="none" stroke="#c06520"
          stroke-linecap="round" stroke-miterlimit="10" stroke-width="3.55"/>
    <path d="M501.73,1330.77h13.88c13.71,0,24.83-11.12,24.83-24.83v-112.98c0-13.71-11.12-24.83-24.83-24.83h-112.98c-13.71,0-24.83,11.12-24.83,24.83v112.98c0,13.71,11.12,24.83,24.83,24.83h99.1Z"
          fill="#0b0505" stroke="#c06520" stroke-linecap="round" stroke-miterlimit="10" stroke-width="3.13"/>
    <path d="M379.8,1288.3h159.66" fill="none" stroke="#c06520" stroke-linecap="round" stroke-miterlimit="10"
          stroke-width="3.13"/>
    <path d="M443.33,1292.82c6.78,0,12.28-5.5,12.28-12.28s-5.5-12.28-12.28-12.28-12.28,5.5-12.28,12.28,5.5,12.28,12.28,12.28Z"
          fill="#0b0505" stroke="#c06520" stroke-miterlimit="10" stroke-width="3.97"/>
    <path d="M467.88,1292.82c6.78,0,12.28-5.5,12.28-12.28s-5.5-12.28-12.28-12.28-12.28,5.5-12.28,12.28,5.5,12.28,12.28,12.28Z"
          fill="#0b0505" stroke="#c06520" stroke-miterlimit="10" stroke-width="3.97"/>
    <path d="M492.43,1292.82c6.78,0,12.28-5.5,12.28-12.28s-5.5-12.28-12.28-12.28-12.28,5.5-12.28,12.28,5.5,12.28,12.28,12.28Z"
          fill="#0b0505" stroke="#c06520" stroke-miterlimit="10" stroke-width="3.97"/>
    <path d="M516.99,1292.82c6.78,0,12.28-5.5,12.28-12.28s-5.5-12.28-12.28-12.28-12.28,5.5-12.28,12.28,5.5,12.28,12.28,12.28Z"
          fill="#0b0505" stroke="#c06520" stroke-miterlimit="10" stroke-width="3.97"/>
    <path d="M455.6,1271.2c6.78,0,12.28-5.5,12.28-12.28s-5.5-12.28-12.28-12.28-12.28,5.5-12.28,12.28,5.5,12.28,12.28,12.28Z"
          fill="#0b0505" stroke="#c06520" stroke-miterlimit="10" stroke-width="3.97"/>
    <path d="M480.16,1271.2c6.78,0,12.28-5.5,12.28-12.28s-5.5-12.28-12.28-12.28-12.28,5.5-12.28,12.28,5.5,12.28,12.28,12.28Z"
          fill="#0b0505" stroke="#c06520" stroke-miterlimit="10" stroke-width="3.97"/>
    <path d="M504.71,1271.2c6.78,0,12.28-5.5,12.28-12.28s-5.5-12.28-12.28-12.28-12.28,5.5-12.28,12.28,5.5,12.28,12.28,12.28Z"
          fill="#0b0505" stroke="#c06520" stroke-miterlimit="10" stroke-width="3.97"/>
    <path d="M467.88,1249.58c6.78,0,12.28-5.5,12.28-12.28s-5.5-12.28-12.28-12.28-12.28,5.5-12.28,12.28,5.5,12.28,12.28,12.28Z"
          fill="#0b0505" stroke="#c06520" stroke-miterlimit="10" stroke-width="3.97"/>
    <path d="M480.16,1227.96c6.78,0,12.28-5.5,12.28-12.28s-5.5-12.28-12.28-12.28-12.28,5.5-12.28,12.28,5.5,12.28,12.28,12.28Z"
          fill="#0b0505" stroke="#c06520" stroke-miterlimit="10" stroke-width="3.97"/>
    <path d="M492.43,1249.58c6.78,0,12.28-5.5,12.28-12.28s-5.5-12.28-12.28-12.28-12.28,5.5-12.28,12.28,5.5,12.28,12.28,12.28Z"
          fill="#0b0505" stroke="#c06520" stroke-miterlimit="10" stroke-width="3.97"/>
    <path d="M448.73,1307.58h-40.74c-1.87,0-3.45-1.58-3.69-3.68l-2.05-18.65c-1.38-12.53-1.38-25.21,0-37.75l2.05-18.65c.23-2.1,1.81-3.68,3.69-3.68h40.74c1.87,0,3.45,1.58,3.69,3.68l2.05,18.65c1.38,12.53,1.38,25.21,0,37.75l-2.05,18.65c-.23,2.1-1.81,3.68-3.69,3.68Z"
          fill="#0b0505" stroke="#c06520" stroke-miterlimit="10" stroke-width="3.92"/>
    <path d="M404.99,1235.44h46.73" fill="none" stroke="#c06520" stroke-miterlimit="10" stroke-width="3.81"/>
    <path d="M404.99,1298.53h46.73" fill="none" stroke="#c06520" stroke-miterlimit="10" stroke-width="3.81"/>
    <path d="M454.39,1260.69h-51.94v8.03h51.94v-8.03Z" fill="#0b0505" stroke="#c06520" stroke-miterlimit="10"
          stroke-width="3.81"/>
    <path d="M798.4,1279.27h-125.56c-10.63,0-19.25-8.62-19.25-19.25v-49.4" fill="none" stroke="#c06520"
          stroke-linecap="round" stroke-linejoin="round" stroke-width="3.9"/>
    <path d="M800.02,1265.44h-258.7" fill="none" stroke="#c06520" stroke-linecap="round" stroke-linejoin="round"
          stroke-width="3.9"/>
    <path d="M153.27,790.34h-85.68c-18.05,0-32.69,14.63-32.69,32.69v250.68c0,18.05,14.63,32.69,32.69,32.69h356.59v60.87"
          fill="none" stroke="#c06520" stroke-linecap="round" stroke-linejoin="round" stroke-width="3.9"/>
    <path d="M26.02,1065.38v11.31c0,5.01,4.06,9.07,9.07,9.07h1.71c5.01,0,9.07-4.06,9.07-9.07v-11.31c0-5.01-4.06-9.07-9.07-9.07h-1.71c-5.01,0-9.07,4.06-9.07,9.07Z"
          fill="#0b0505" stroke="#c06520" stroke-miterlimit="10" stroke-width="3.9"/>
    <path d="M239.8,1134.22h22.55c5.01,0,9.07-4.06,9.07-9.07v-73.42c0-5.01-4.06-9.07-9.07-9.07h-22.55c-5.01,0-9.07,4.06-9.07,9.07v73.42c0,5.01,4.06,9.07,9.07,9.07Z"
          fill="#0b0505" stroke="#c06520" stroke-miterlimit="10" stroke-width="3.9"/>
    <path d="M110.56,1072.23v115.92h266.85" fill="none" stroke="#c06520" stroke-linecap="round" stroke-linejoin="round"
          stroke-width="3.9"/>
    <path d="M110.96,1115.03c4.99,0,9.04-4.05,9.04-9.04s-4.05-9.04-9.04-9.04-9.04,4.05-9.04,9.04,4.05,9.04,9.04,9.04Z"
          fill="#0b0505" stroke="#c06520" stroke-miterlimit="10" stroke-width="3.9"/>
    <path d="M1314.99,580.94h-151.32" fill="none" stroke="#c06520" stroke-linecap="round" stroke-linejoin="round"
          stroke-width="3.9"/>
    <path d="M1314.99,589.98c4.99,0,9.04-4.05,9.04-9.04s-4.05-9.04-9.04-9.04-9.04,4.05-9.04,9.04,4.05,9.04,9.04,9.04Z"
          fill="#0b0505" stroke="#c06520" stroke-miterlimit="10" stroke-width="3.9"/>
    <path d="M1212.48,447.03c4.99,0,9.04-4.05,9.04-9.04s-4.05-9.04-9.04-9.04-9.04,4.05-9.04,9.04,4.05,9.04,9.04,9.04Z"
          fill="#0b0505" stroke="#c06520" stroke-miterlimit="10" stroke-width="3.9"/>
    <path d="M1162.45,447.03c4.99,0,9.04-4.05,9.04-9.04s-4.05-9.04-9.04-9.04-9.04,4.05-9.04,9.04,4.05,9.04,9.04,9.04Z"
          fill="#0b0505" stroke="#c06520" stroke-miterlimit="10" stroke-width="3.9"/>
    <path d="M1291.14,59.89h-275.45c-19.02,0-34.43,15.41-34.43,34.43s15.41,34.43,34.43,34.43h275.45c19.02,0,34.43-15.42,34.43-34.43s-15.41-34.43-34.43-34.43Z"
          fill="#0b0505" stroke-width="0"/>
    <path d="M1291.14,59.89h-275.45c-19.02,0-34.43,15.41-34.43,34.43s15.41,34.43,34.43,34.43h275.45c19.02,0,34.43-15.42,34.43-34.43s-15.41-34.43-34.43-34.43Z"
          fill="none" stroke="#c06520" stroke-linecap="round" stroke-miterlimit="10" stroke-width="3.13"/>
    <path d="M1022.64,85.44v15.12c0,2,.88,2.76,2.28,2.76s2.28-.76,2.28-2.76v-15.12c0-2-.88-2.76-2.28-2.76s-2.28.76-2.28,2.76ZM1018.24,100.28v-14.56c0-4.48,2.36-7.04,6.68-7.04s6.68,2.56,6.68,7.04v14.56c0,4.48-2.36,7.04-6.68,7.04s-6.68-2.56-6.68-7.04ZM1048.14,107h-4.48c-.24-.72-.4-1.16-.4-3.44v-4.4c0-2.6-.88-3.56-2.88-3.56h-1.52v11.4h-4.4v-28h6.64c4.56,0,6.52,2.12,6.52,6.44v2.2c0,2.88-.92,4.72-2.88,5.64v.08c2.2.92,2.92,3,2.92,5.92v4.32c0,1.36.04,2.36.48,3.4ZM1040.98,83h-2.12v8.6h1.72c1.64,0,2.64-.72,2.64-2.96v-2.76c0-2-.68-2.88-2.24-2.88ZM1057.15,95.4v-4h6.16v8.88c0,4.48-2.24,7.04-6.56,7.04s-6.56-2.56-6.56-7.04v-14.56c0-4.48,2.24-7.04,6.56-7.04s6.56,2.56,6.56,7.04v2.72h-4.16v-3c0-2-.88-2.76-2.28-2.76s-2.28.76-2.28,2.76v15.12c0,2,.88,2.72,2.28,2.72s2.28-.72,2.28-2.72v-5.16h-2ZM1070.54,83v7.8h6.04v4h-6.04v8.2h7.6v4h-12v-28h12v4h-7.6ZM1093.16,79l3.2,19.88h.08l2.96-19.88h6.12v28h-4.16v-20.08h-.08l-2.96,20.08h-4.16l-3.2-19.8h-.08v19.8h-3.84v-28h6.12ZM1118.48,79l4.48,28h-4.44l-.76-5.08h-5.4l-.76,5.08h-4.04l4.48-28h6.44ZM1115,83.96l-2.08,14.16h4.24l-2.08-14.16h-.08ZM1125.01,107v-28h4.4v24h7.24v4h-11.64ZM1135.29,83v-4h13.6v4h-4.6v24h-4.4v-24h-4.6ZM1155.23,83v7.8h6.04v4h-6.04v8.2h7.6v4h-12v-28h12v4h-7.6ZM1157.19,73.08h4.32l-4.08,4.44h-2.96l2.72-4.44ZM1169.95,83v7.8h6.04v4h-6.04v8.2h7.6v4h-12v-28h12v4h-7.6ZM1190.89,83v8.44h5.68v4h-5.68v11.56h-4.4v-28h11.64v4h-7.24ZM1213.92,107h-4.48c-.24-.72-.4-1.16-.4-3.44v-4.4c0-2.6-.88-3.56-2.88-3.56h-1.52v11.4h-4.4v-28h6.64c4.56,0,6.52,2.12,6.52,6.44v2.2c0,2.88-.92,4.72-2.88,5.64v.08c2.2.92,2.92,3,2.92,5.92v4.32c0,1.36.04,2.36.48,3.4ZM1206.76,83h-2.12v8.6h1.72c1.64,0,2.64-.72,2.64-2.96v-2.76c0-2-.68-2.88-2.24-2.88ZM1226.09,79l4.48,28h-4.44l-.76-5.08h-5.4l-.76,5.08h-4.04l4.48-28h6.44ZM1222.61,83.96l-2.08,14.16h4.24l-2.08-14.16h-.08ZM1242.02,107l-5.4-20.28h-.08v20.28h-3.96v-28h5.52l4.44,16.76h.08v-16.76h3.92v28h-4.52ZM1258.29,96.56h4.16v3.72c0,4.16-1.96,6.68-5.68,7v1.28c1.96,0,2.96.48,2.96,1.88,0,2.16-1.68,2.44-4.04,2.44-2.2,0-3.84-.48-3.84-2.32v-.4h2.96v.32c0,.6.44.8.88.8.68,0,1-.28,1-.96,0-.76-.48-1.04-1.44-1.04h-.4v-2.04c-3.64-.36-5.52-2.84-5.52-6.96v-14.56c0-4.48,2.24-7.04,6.56-7.04s6.56,2.56,6.56,7.04v2.72h-4.16v-3c0-2-.88-2.76-2.28-2.76s-2.28.76-2.28,2.76v15.12c0,2,.88,2.72,2.28,2.72s2.28-.72,2.28-2.72v-4ZM1274.88,79l4.48,28h-4.44l-.76-5.08h-5.4l-.76,5.08h-4.04l4.48-28h6.44ZM1271.4,83.96l-2.08,14.16h4.24l-2.08-14.16h-.08ZM1281.41,107v-28h4.4v28h-4.4ZM1288.47,85.72c0-4.48,2.2-7.04,6.48-7.04s6.48,2.56,6.48,7.04v.88h-4.16v-1.16c0-2-.8-2.76-2.2-2.76s-2.2.76-2.2,2.76.88,3.56,3.76,6.08c3.68,3.24,4.84,5.56,4.84,8.76,0,4.48-2.24,7.04-6.56,7.04s-6.56-2.56-6.56-7.04v-1.72h4.16v2c0,2,.88,2.72,2.28,2.72s2.28-.72,2.28-2.72-.88-3.56-3.76-6.08c-3.68-3.24-4.84-5.56-4.84-8.76Z"
          fill="#c06520" stroke-width="0"/>
    <path d="M1147.38,1375.84v-275.45c0-19.02-15.41-34.43-34.43-34.43s-34.43,15.41-34.43,34.43v275.45c0,19.02,15.41,34.43,34.43,34.43s34.43-15.41,34.43-34.43Z"
          fill="#0b0505" stroke="#c06520" stroke-linecap="round" stroke-miterlimit="10" stroke-width="3.13"/>
    <path d="M1098,1110.6h28v6.96c0,4.4-2.44,6.56-6.92,6.56h-14.16c-4.48,0-6.92-2.16-6.92-6.56v-6.96ZM1122,1117.48v-2.48h-20v2.48c0,1.4.72,2.24,2.72,2.24h14.56c2,0,2.72-.84,2.72-2.24ZM1119.56,1130.97h-15.12c-2,0-2.76.88-2.76,2.28s.76,2.28,2.76,2.28h15.12c2,0,2.76-.88,2.76-2.28s-.76-2.28-2.76-2.28ZM1104.72,1126.57h14.56c4.48,0,7.04,2.36,7.04,6.68s-2.56,6.68-7.04,6.68h-14.56c-4.48,0-7.04-2.36-7.04-6.68s2.56-6.68,7.04-6.68ZM1126,1142.59v4.4h-21.6c-2,0-2.72.88-2.72,2.28s.72,2.28,2.72,2.28h21.6v4.16h-21.32c-4.48,0-7.04-2.24-7.04-6.56s2.56-6.56,7.04-6.56h21.32ZM1126,1165.37c0,4.56-2.12,6.52-6.44,6.52h-1c-2.88,0-4.68-.88-5.6-2.84h-.08c-.92,2.36-3,3.28-5.96,3.28h-2.28c-4.32,0-6.64-2.28-6.64-6.68v-6.92h28v6.64ZM1110.6,1165.09v-1.96h-8.6v2.52c0,1.47.68,2.28,2.76,2.28h2.44c2.6,0,3.4-.84,3.4-2.84ZM1122,1165.25v-2.12h-7.4v1.72c0,1.64.72,2.64,2.96,2.64h1.56c2,0,2.88-.68,2.88-2.24ZM1098,1174.98h28v4.4h-24v7.24h-4v-11.64ZM1122,1192.93h-7.8v6.04h-4v-6.04h-8.2v7.6h-4v-12h28v12h-4v-7.6ZM1098,1209.47h28v6.96c0,4.4-2.44,6.56-6.92,6.56h-14.16c-4.48,0-6.92-2.16-6.92-6.56v-6.96ZM1122,1216.35v-2.48h-20v2.48c0,1.4.72,2.24,2.72,2.24h14.56c2,0,2.72-.84,2.72-2.24ZM1098,1225.8h28v4.4h-28v-4.4ZM1119.28,1232.85c4.48,0,7.04,2.2,7.04,6.48s-2.56,6.48-7.04,6.48h-.88v-4.16h1.16c2,0,2.76-.8,2.76-2.2s-.76-2.2-2.76-2.2-3.56.88-6.08,3.76c-3.24,3.68-5.56,4.84-8.76,4.84-4.48,0-7.04-2.24-7.04-6.56s2.56-6.56,7.04-6.56h1.72v4.16h-2c-2,0-2.72.88-2.72,2.28s.72,2.28,2.72,2.28,3.56-.88,6.08-3.76c3.24-3.68,5.56-4.84,8.76-4.84ZM1122,1247.09h4v13.6h-4v-4.6h-24v-4.4h24v-4.6ZM1098,1262.63h28v4.4h-28v-4.4ZM1098,1270.25h28v4.4h-24v7.24h-4v-11.64ZM1098,1283.8h28v4.4h-24v7.24h-4v-11.64ZM1126,1307.12l-28,4.48v-4.44l5.08-.76v-5.4l-5.08-.76v-4.04l28,4.48v6.44ZM1121.04,1303.64l-14.16-2.08v4.24l14.16-2.08v-.08ZM1122,1310.84h4v13.6h-4v-4.6h-24v-4.4h24v-4.6ZM1098,1326.38h28v4.4h-28v-4.4ZM1119.56,1338.04h-15.12c-2,0-2.76.88-2.76,2.28s.76,2.28,2.76,2.28h15.12c2,0,2.76-.88,2.76-2.28s-.76-2.28-2.76-2.28ZM1104.72,1333.64h14.56c4.48,0,7.04,2.36,7.04,6.68s-2.56,6.68-7.04,6.68h-14.56c-4.48,0-7.04-2.36-7.04-6.68s2.56-6.68,7.04-6.68ZM1098,1359.26l20.28-5.4v-.08h-20.28v-3.96h28v5.52l-16.76,4.44v.08h16.76v3.92h-28v-4.52Z"
          fill="#c06520" stroke-width="0"/>
    <path d="M433.05,489.05v18.9c0,2.5,1.1,3.45,2.85,3.45s2.85-.95,2.85-3.45v-18.9c0-2.5-1.1-3.45-2.85-3.45s-2.85.95-2.85,3.45ZM427.55,507.6v-18.2c0-5.6,2.95-8.8,8.35-8.8s8.35,3.2,8.35,8.8v18.2c0,5.6-2.95,8.8-8.35,8.8s-8.35-3.2-8.35-8.8ZM464.92,516h-5.6c-.3-.9-.5-1.45-.5-4.3v-5.5c0-3.25-1.1-4.45-3.6-4.45h-1.9v14.25h-5.5v-35h8.3c5.7,0,8.15,2.65,8.15,8.05v2.75c0,3.6-1.15,5.9-3.6,7.05v.1c2.75,1.15,3.65,3.75,3.65,7.4v5.4c0,1.7.05,2.95.6,4.25ZM455.97,486h-2.65v10.75h2.15c2.05,0,3.3-.9,3.3-3.7v-3.45c0-2.5-.85-3.6-2.8-3.6ZM476.19,501.5v-5h7.7v11.1c0,5.6-2.8,8.8-8.2,8.8s-8.2-3.2-8.2-8.8v-18.2c0-5.6,2.8-8.8,8.2-8.8s8.2,3.2,8.2,8.8v3.4h-5.2v-3.75c0-2.5-1.1-3.45-2.85-3.45s-2.85.95-2.85,3.45v18.9c0,2.5,1.1,3.4,2.85,3.4s2.85-.9,2.85-3.4v-6.45h-2.5ZM492.92,486v9.75h7.55v5h-7.55v10.25h9.5v5h-15v-35h15v5h-9.5Z"
          fill="#fff" stroke-width="0"/>
    <path d="M827.3,479c5.7,0,8.15,2.65,8.15,8.05v1.25c0,3.6-1.1,5.85-3.55,7v.1c2.95,1.15,4.1,3.75,4.1,7.45v2.85c0,5.4-2.85,8.3-8.35,8.3h-8.65v-35h8.3ZM826.95,498.25h-2.45v10.75h3.15c1.85,0,2.85-.85,2.85-3.45v-3.05c0-3.25-1.05-4.25-3.55-4.25ZM827.15,484h-2.65v9.25h2.15c2.05,0,3.3-.9,3.3-3.7v-1.95c0-2.5-.85-3.6-2.8-3.6ZM856.41,514h-5.6c-.3-.9-.5-1.45-.5-4.3v-5.5c0-3.25-1.1-4.45-3.6-4.45h-1.9v14.25h-5.5v-35h8.3c5.7,0,8.15,2.65,8.15,8.05v2.75c0,3.6-1.15,5.9-3.6,7.05v.1c2.75,1.15,3.65,3.75,3.65,7.4v5.4c0,1.7.05,2.95.6,4.25ZM847.46,484h-2.65v10.75h2.15c2.05,0,3.3-.9,3.3-3.7v-3.45c0-2.5-.85-3.6-2.8-3.6ZM871.63,479l5.6,35h-5.55l-.95-6.35h-6.75l-.95,6.35h-5.05l5.6-35h8.05ZM867.28,485.2l-2.6,17.7h5.3l-2.6-17.7h-.1ZM879.09,487.4c0-5.6,2.75-8.8,8.1-8.8s8.1,3.2,8.1,8.8v1.1h-5.2v-1.45c0-2.5-1-3.45-2.75-3.45s-2.75.95-2.75,3.45,1.1,4.45,4.7,7.6c4.6,4.05,6.05,6.95,6.05,10.95,0,5.6-2.8,8.8-8.2,8.8s-8.2-3.2-8.2-8.8v-2.15h5.2v2.5c0,2.5,1.1,3.4,2.85,3.4s2.85-.9,2.85-3.4-1.1-4.45-4.7-7.6c-4.6-4.05-6.05-6.95-6.05-10.95ZM897.79,487.4c0-5.6,2.75-8.8,8.1-8.8s8.1,3.2,8.1,8.8v1.1h-5.2v-1.45c0-2.5-1-3.45-2.75-3.45s-2.75.95-2.75,3.45,1.1,4.45,4.7,7.6c4.6,4.05,6.05,6.95,6.05,10.95,0,5.6-2.8,8.8-8.2,8.8s-8.2-3.2-8.2-8.8v-2.15h5.2v2.5c0,2.5,1.1,3.4,2.85,3.4s2.85-.9,2.85-3.4-1.1-4.45-4.7-7.6c-4.6-4.05-6.05-6.95-6.05-10.95ZM929.39,479l5.6,35h-5.55l-.95-6.35h-6.75l-.95,6.35h-5.05l5.6-35h8.05ZM925.04,485.2l-2.6,17.7h5.3l-2.6-17.7h-.1ZM945.76,499.5v-5h7.7v11.1c0,5.6-2.8,8.8-8.2,8.8s-8.2-3.2-8.2-8.8v-18.2c0-5.6,2.8-8.8,8.2-8.8s8.2,3.2,8.2,8.8v3.4h-5.2v-3.75c0-2.5-1.1-3.45-2.85-3.45s-2.85.95-2.85,3.45v18.9c0,2.5,1.1,3.4,2.85,3.4s2.85-.9,2.85-3.4v-6.45h-2.5ZM962.49,484v9.75h7.55v5h-7.55v10.25h9.5v5h-15v-35h15v5h-9.5Z"
          fill="#fff" stroke-width="0"/>
    <path d="M156.2,910l5.6,35h-5.55l-.95-6.35h-6.75l-.95,6.35h-5.05l5.6-35h8.05ZM151.85,916.2l-2.6,17.7h5.3l-2.6-17.7h-.1ZM163.66,918.4c0-5.6,2.75-8.8,8.1-8.8s8.1,3.2,8.1,8.8v1.1h-5.2v-1.45c0-2.5-1-3.45-2.75-3.45s-2.75.95-2.75,3.45,1.1,4.45,4.7,7.6c4.6,4.05,6.05,6.95,6.05,10.95,0,5.6-2.8,8.8-8.2,8.8s-8.2-3.2-8.2-8.8v-2.15h5.2v2.5c0,2.5,1.1,3.4,2.85,3.4s2.85-.9,2.85-3.4-1.1-4.45-4.7-7.6c-4.6-4.05-6.05-6.95-6.05-10.95ZM182.36,918.4c0-5.6,2.75-8.8,8.1-8.8s8.1,3.2,8.1,8.8v1.1h-5.2v-1.45c0-2.5-1-3.45-2.75-3.45s-2.75.95-2.75,3.45,1.1,4.45,4.7,7.6c4.6,4.05,6.05,6.95,6.05,10.95,0,5.6-2.8,8.8-8.2,8.8s-8.2-3.2-8.2-8.8v-2.15h5.2v2.5c0,2.5,1.1,3.4,2.85,3.4s2.85-.9,2.85-3.4-1.1-4.45-4.7-7.6c-4.6-4.05-6.05-6.95-6.05-10.95ZM207.26,915v9.75h7.55v5h-7.55v10.25h9.5v5h-15v-35h15v5h-9.5ZM227.77,910l4,24.85h.1l3.7-24.85h7.65v35h-5.2v-25.1h-.1l-3.7,25.1h-5.2l-4-24.75h-.1v24.75h-4.8v-35h7.65ZM255.52,910c5.7,0,8.15,2.65,8.15,8.05v1.25c0,3.6-1.1,5.85-3.55,7v.1c2.95,1.15,4.1,3.75,4.1,7.45v2.85c0,5.4-2.85,8.3-8.35,8.3h-8.65v-35h8.3ZM255.17,929.25h-2.45v10.75h3.15c1.85,0,2.85-.85,2.85-3.45v-3.05c0-3.25-1.05-4.25-3.55-4.25ZM255.37,915h-2.65v9.25h2.15c2.05,0,3.3-.9,3.3-3.7v-1.95c0-2.5-.85-3.6-2.8-3.6ZM267.54,945v-35h5.5v30h9.05v5h-14.55ZM296.68,910l5.6,35h-5.55l-.95-6.35h-6.75l-.95,6.35h-5.05l5.6-35h8.05ZM292.33,916.2l-2.6,17.7h5.3l-2.6-17.7h-.1ZM313.04,930.5v-5h7.7v11.1c0,5.6-2.8,8.8-8.2,8.8s-8.2-3.2-8.2-8.8v-18.2c0-5.6,2.8-8.8,8.2-8.8s8.2,3.2,8.2,8.8v3.4h-5.2v-3.75c0-2.5-1.1-3.45-2.85-3.45s-2.85.95-2.85,3.45v18.9c0,2.5,1.1,3.4,2.85,3.4s2.85-.9,2.85-3.4v-6.45h-2.5ZM329.77,915v9.75h7.55v5h-7.55v10.25h9.5v5h-15v-35h15v5h-9.5Z"
          fill="#fff" stroke-width="0"/>
    <path d="M1074.5,911v10.55h7.1v5h-7.1v14.45h-5.5v-35h14.55v5h-9.05ZM1091.69,911v9.75h7.55v5h-7.55v10.25h9.5v5h-15v-35h15v5h-9.5ZM1121.7,941h-5.6c-.3-.9-.5-1.45-.5-4.3v-5.5c0-3.25-1.1-4.45-3.6-4.45h-1.9v14.25h-5.5v-35h8.3c5.7,0,8.15,2.65,8.15,8.05v2.75c0,3.6-1.15,5.9-3.6,7.05v.1c2.75,1.15,3.65,3.75,3.65,7.4v5.4c0,1.7.05,2.95.6,4.25ZM1112.75,911h-2.65v10.75h2.15c2.05,0,3.3-.9,3.3-3.7v-3.45c0-2.5-.85-3.6-2.8-3.6ZM1132.31,906l4,24.85h.1l3.7-24.85h7.65v35h-5.2v-25.1h-.1l-3.7,25.1h-5.2l-4-24.75h-.1v24.75h-4.8v-35h7.65ZM1157.26,911v9.75h7.55v5h-7.55v10.25h9.5v5h-15v-35h15v5h-9.5ZM1181.92,941l-6.75-25.35h-.1v25.35h-4.95v-35h6.9l5.55,20.95h.1v-20.95h4.9v35h-5.65ZM1189.91,911v-5h17v5h-5.75v30h-5.5v-30h-5.75ZM1219.63,906l5.6,35h-5.55l-.95-6.35h-6.75l-.95,6.35h-5.05l5.6-35h8.05ZM1215.28,912.2l-2.6,17.7h5.3l-2.6-17.7h-.1ZM1224.28,911v-5h17v5h-5.75v30h-5.5v-30h-5.75ZM1243.71,941v-35h5.5v35h-5.5ZM1258.28,914.05v18.9c0,2.5,1.1,3.45,2.85,3.45s2.85-.95,2.85-3.45v-18.9c0-2.5-1.1-3.45-2.85-3.45s-2.85.95-2.85,3.45ZM1252.78,932.6v-18.2c0-5.6,2.95-8.8,8.35-8.8s8.35,3.2,8.35,8.8v18.2c0,5.6-2.95,8.8-8.35,8.8s-8.35-3.2-8.35-8.8ZM1284.8,941l-6.75-25.35h-.1v25.35h-4.95v-35h6.9l5.55,20.95h.1v-20.95h4.9v35h-5.65Z"
          fill="#fff" stroke-width="0"/>
    <path d="M350.1,1365l4.15,28.55h.1l4.15-28.55h5.05l-5.4,35h-8.2l-5.4-35h5.55ZM366.12,1400v-35h5.5v35h-5.5ZM381.14,1370v9.75h7.55v5h-7.55v10.25h9.5v5h-15v-35h15v5h-9.5ZM394.05,1400v-35h5.5v35h-5.5ZM403.57,1400v-35h5.5v30h9.05v5h-14.55ZM420.51,1400v-35h5.5v30h9.05v5h-14.55ZM437.46,1400v-35h5.5v35h-5.5ZM446.28,1373.4c0-5.6,2.75-8.8,8.1-8.8s8.1,3.2,8.1,8.8v1.1h-5.2v-1.45c0-2.5-1-3.45-2.75-3.45s-2.75.95-2.75,3.45,1.1,4.45,4.7,7.6c4.6,4.05,6.05,6.95,6.05,10.95,0,5.6-2.8,8.8-8.2,8.8s-8.2-3.2-8.2-8.8v-2.15h5.2v2.5c0,2.5,1.1,3.4,2.85,3.4s2.85-.9,2.85-3.4-1.1-4.45-4.7-7.6c-4.6-4.05-6.05-6.95-6.05-10.95ZM464.98,1373.4c0-5.6,2.75-8.8,8.1-8.8s8.1,3.2,8.1,8.8v1.1h-5.2v-1.45c0-2.5-1-3.45-2.75-3.45s-2.75.95-2.75,3.45,1.1,4.45,4.7,7.6c4.6,4.05,6.05,6.95,6.05,10.95,0,5.6-2.8,8.8-8.2,8.8s-8.2-3.2-8.2-8.8v-2.15h5.2v2.5c0,2.5,1.1,3.4,2.85,3.4s2.85-.9,2.85-3.4-1.1-4.45-4.7-7.6c-4.6-4.05-6.05-6.95-6.05-10.95ZM489.88,1370v9.75h7.55v5h-7.55v10.25h9.5v5h-15v-35h15v5h-9.5ZM510.39,1365l4,24.85h.1l3.7-24.85h7.65v35h-5.2v-25.1h-.1l-3.7,25.1h-5.2l-4-24.75h-.1v24.75h-4.8v-35h7.65ZM535.34,1370v9.75h7.55v5h-7.55v10.25h9.5v5h-15v-35h15v5h-9.5ZM560,1400l-6.75-25.35h-.1v25.35h-4.95v-35h6.9l5.55,20.95h.1v-20.95h4.9v35h-5.65ZM567.98,1370v-5h17v5h-5.75v30h-5.5v-30h-5.75Z"
          fill="#fff" stroke-width="0"/>
    <path d="M811,1400v-35h8.7c5.5,0,8.2,3.05,8.2,8.65v17.7c0,5.6-2.7,8.65-8.2,8.65h-8.7ZM819.6,1370h-3.1v25h3.1c1.75,0,2.8-.9,2.8-3.4v-18.2c0-2.5-1.05-3.4-2.8-3.4ZM831.41,1400v-35h5.5v35h-5.5ZM840.23,1373.4c0-5.6,2.75-8.8,8.1-8.8s8.1,3.2,8.1,8.8v1.1h-5.2v-1.45c0-2.5-1-3.45-2.75-3.45s-2.75.95-2.75,3.45,1.1,4.45,4.7,7.6c4.6,4.05,6.05,6.95,6.05,10.95,0,5.6-2.8,8.8-8.2,8.8s-8.2-3.2-8.2-8.8v-2.15h5.2v2.5c0,2.5,1.1,3.4,2.85,3.4s2.85-.9,2.85-3.4-1.1-4.45-4.7-7.6c-4.6-4.05-6.05-6.95-6.05-10.95ZM858.03,1370v-5h17v5h-5.75v30h-5.5v-30h-5.75ZM877.46,1400v-35h5.5v35h-5.5ZM886.98,1400v-35h5.5v30h9.05v5h-14.55ZM903.92,1400v-35h5.5v30h9.05v5h-14.55ZM933.06,1365l5.6,35h-5.55l-.95-6.35h-6.75l-.95,6.35h-5.05l5.6-35h8.05ZM928.71,1371.2l-2.6,17.7h5.3l-2.6-17.7h-.1ZM937.72,1370v-5h17v5h-5.75v30h-5.5v-30h-5.75ZM957.14,1400v-35h5.5v35h-5.5ZM971.71,1373.05v18.9c0,2.5,1.1,3.45,2.85,3.45s2.85-.95,2.85-3.45v-18.9c0-2.5-1.1-3.45-2.85-3.45s-2.85.95-2.85,3.45ZM966.21,1391.6v-18.2c0-5.6,2.95-8.8,8.35-8.8s8.35,3.2,8.35,8.8v18.2c0,5.6-2.95,8.8-8.35,8.8s-8.35-3.2-8.35-8.8ZM998.24,1400l-6.75-25.35h-.1v25.35h-4.95v-35h6.9l5.55,20.95h.1v-20.95h4.9v35h-5.65Z"
          fill="#fff" stroke-width="0"/>
</svg>
