<svg width="304" height="1216" viewBox="0 0 304 1216" fill="none" xmlns="http://www.w3.org/2000/svg">
<g clip-path="url(#clip0_445_3)">
<path d="M131 585.405L138.25 584.565C139.29 584.438 139.71 584.438 140.46 584.427V584.3C139.2 584.3 138.79 584.268 137.8 584.172L131 583.567V581.909L142.82 583.365V585.288L136.39 585.978C135.72 586.053 135.07 586.053 134.33 586.053V586.212C134.97 586.212 135.84 586.212 136.21 586.244L142.82 586.924V588.805L131 590.207V588.592L138.41 587.955C139.3 587.87 139.73 587.87 140.47 587.848V587.742C139.4 587.742 138.88 587.721 138.24 587.657L130.99 586.892V585.394L131 585.405Z" fill="#C06520"/>
<path d="M131 574.142H135.8V572.591H131V570.933H142.82V572.602H137.33V574.132H142.82V575.789H131V574.132V574.142Z" fill="#C06520"/>
<path d="M132.44 560.234L143.9 563.336L143.52 564.92L132.07 561.817L132.45 560.234H132.44Z" fill="#C06520"/>
<path d="M144.56 555.612C144.91 555.825 145.55 556.218 145.95 555.485C146.32 554.805 145.68 554.39 145.14 554.061C144.18 553.466 143.65 553.381 141.75 553.53C140.11 553.668 138.89 553.763 137.57 552.945C137.02 552.605 136.63 552.191 136.37 551.713C135.95 550.873 136.13 550.098 136.53 549.365C137.27 548.005 138.23 547.962 139.28 548.621L141.11 549.747L140.39 551.054L138.58 549.938C138.26 549.736 137.86 549.556 137.57 550.076C137.2 550.735 137.69 551.118 138.2 551.436C139.24 552.085 139.91 552.042 141.94 551.872C143.29 551.776 144.44 551.691 145.76 552.51C146.44 552.935 146.99 553.519 147.23 554.103C147.59 555.006 147.23 555.75 147.02 556.154C145.88 558.226 144.19 557.185 143.67 556.866L141.96 555.814L142.69 554.486L144.56 555.644V555.612Z" fill="#C06520"/>
<path d="M145.79 538.006L146.96 536.891L149.44 542.894L155.15 545.954L153.97 547.08L149.58 544.668C149.45 544.594 148.89 544.254 148.75 544.169L152.45 548.536L151.29 549.641L143.38 540.312L144.55 539.196L147.69 542.894C147.95 543.202 148.07 543.372 148.27 543.606C148.04 543.181 147.84 542.724 147.78 542.564L145.8 537.996L145.79 538.006Z" fill="#C06520"/>
<path d="M154.45 531.727L156.28 534.022C156.87 534.766 157.22 535.393 157.59 536.041L157.7 535.988C157.56 535.605 157.21 534.691 156.99 533.501L156.49 530.664L157.9 529.921L159.18 537.39L161.37 542.118L159.85 542.915L157.66 538.198L152.99 532.481L154.43 531.727H154.45Z" fill="#C06520"/>
<path d="M174.38 526.064L178.43 526L178.45 527.562L175.95 527.604L176 531.249L178.26 531.206L178.28 532.736L176.04 532.768L176.12 538.601L174.55 538.623L174.37 526.053L174.38 526.064Z" fill="#C06520"/>
<path d="M186.43 527.116L188.89 527.806C190.74 528.327 190.81 528.922 190.21 531.323C189.68 533.459 189.41 534.319 188.18 533.958L188.16 534.033C189.21 534.479 189.19 535.169 188.79 536.784L188.46 538.113C188.09 539.579 188.07 539.802 188.15 540.599L186.58 540.153C186.63 539.409 186.66 538.782 186.98 537.539L187.19 536.678C187.31 536.211 187.53 535.244 187.45 534.798C187.36 534.383 187.19 534.341 186.29 534.086L184.89 539.674L183.39 539.249L186.43 527.105V527.116ZM187.59 529.007L186.65 532.758L187.36 532.959C188.12 533.172 188.24 532.821 188.75 530.813C189.08 529.474 189.01 529.411 188.36 529.23L187.59 529.007Z" fill="#C06520"/>
<path d="M201.3 533.512L196.82 545.306L195.51 544.477L196.36 542.32L194.83 541.353L193.49 543.202L192.19 542.384L199.66 532.481L201.29 533.512H201.3ZM199.29 534.989C198.46 536.37 198.37 536.519 198.24 536.689L195.73 540.131L196.94 540.896L198.53 536.838C198.7 536.381 198.92 535.966 199.4 535.063L199.29 534.989Z" fill="#C06520"/>
<path d="M210.26 541.279L205.86 548.079C205.59 548.483 205.39 548.77 205.16 549.12L205.23 549.195C205.59 548.748 205.96 548.291 206.35 547.866L207.12 547.016L211.47 542.692L212.45 543.829L203.73 552.297L202.57 550.948L207.79 543.085L207.72 543.011L207.02 543.808L206.31 544.594L201.37 549.577L200.39 548.44L209.11 539.972L210.24 541.289L210.26 541.279Z" fill="#C06520"/>
<path d="M210.97 560.361C210.42 560.627 208.66 561.413 207.53 559.522L206.98 559.48C207.24 560.191 207.31 560.903 206.68 561.201C206.21 561.435 205.26 561.435 204.28 558.916L204.75 558.693C205.32 560.255 205.8 560.021 205.89 559.979C206.3 559.777 206.07 559.193 205.84 558.555L207.2 558.725C206.58 556.547 208.14 555.793 209.04 555.368L214.22 552.881C215.18 552.414 217.31 551.394 218.4 553.955C219.41 556.313 217.53 557.216 216.77 557.588L215.4 558.247L214.76 556.738L216.42 555.941C216.77 555.771 217.53 555.41 217.13 554.465C216.72 553.508 215.93 553.891 215.36 554.156L209.41 557.015C208.82 557.301 208.16 557.62 208.55 558.545C208.96 559.501 209.69 559.15 210.22 558.895L212.32 557.886L212.97 559.405L210.96 560.372L210.97 560.361Z" fill="#C06520"/>
<path d="M221.72 568.277L210.15 571.454L210 569.839L212.13 569.286L211.95 567.406L209.76 567.353L209.61 565.759L221.53 566.258L221.72 568.256V568.277ZM219.4 567.438C217.86 567.544 217.7 567.565 217.49 567.555L213.39 567.448L213.53 568.936L217.55 567.884C217.99 567.767 218.44 567.703 219.41 567.576L219.39 567.438H219.4Z" fill="#C06520"/>
<path d="M221.84 578.498H210.02V576.862H221.84V578.498Z" fill="#C06520"/>
<path d="M212.18 586.478C211.78 586.478 211.04 586.478 211.04 587.328C211.04 588.114 211.79 588.135 212.41 588.135C213.51 588.135 214.02 587.923 215.59 586.786C216.95 585.787 217.95 585.065 219.47 585.065C220.11 585.065 220.64 585.203 221.09 585.49C221.85 585.989 222.06 586.754 222.06 587.604C222.06 589.166 221.26 589.718 220.03 589.718H217.92V588.21H220.01C220.38 588.21 220.81 588.157 220.81 587.551C220.81 586.786 220.21 586.712 219.62 586.712C218.42 586.712 217.86 587.105 216.19 588.327C215.07 589.134 214.11 589.825 212.59 589.825C211.8 589.825 211.05 589.612 210.56 589.24C209.82 588.656 209.77 587.817 209.77 587.36C209.77 584.958 211.73 584.958 212.33 584.958H214.31V586.488H212.15L212.18 586.478Z" fill="#C06520"/>
<path d="M197.66 655.838V569.786C197.65 558.895 188.45 550.066 177.1 550.055C165.75 550.066 156.55 558.895 156.54 569.786V676.61C156.53 677.885 155.18 678.002 155.18 678.002V680.127H168.61V678.002C168.61 678.002 167.25 677.896 167.25 676.6V599.09L186.96 595.668V655.859H197.67L197.66 655.838ZM167.25 588.805V569.786C167.25 564.569 171.66 560.33 177.1 560.33C182.54 560.33 186.95 564.558 186.95 569.786V585.383L167.24 588.805H167.25Z" fill="#C06520"/>
</g>
<g clip-path="url(#clip1_445_3)">
<path d="M2.79999 248.414C5.07999 248.414 5.48999 250.284 5.48999 252.706V274.573C5.48999 279.705 9.39999 283.87 14.22 283.87H107.16" stroke="#C06520" stroke-width="2.19" stroke-linecap="round" stroke-linejoin="round"/>
<path d="M27.21 29.357V323.119" stroke="#C06520" stroke-width="2.19" stroke-linecap="round" stroke-linejoin="round"/>
<path d="M27.21 248.318H150.82" stroke="#C06520" stroke-width="2.19" stroke-linecap="round" stroke-linejoin="round"/>
<path d="M84.44 427.765L2.85999 427.819" stroke="#C06520" stroke-width="2.19" stroke-linecap="round" stroke-linejoin="round"/>
<path d="M2.85999 370.071H11.65C18.51 370.071 24.07 375.989 24.07 383.299V427.765" stroke="#C06520" stroke-width="2.19" stroke-linecap="round" stroke-linejoin="round"/>
<path d="M2.89001 353.506H17.88C29.95 353.506 39.73 363.919 39.73 376.775V427.52" stroke="#C06520" stroke-width="2.19" stroke-linecap="round" stroke-linejoin="round"/>
<path d="M2.84003 323.119H71.62V375.288" stroke="#C06520" stroke-width="2.19" stroke-linecap="round" stroke-linejoin="round"/>
<path d="M28.15 427.935C28.15 429.805 28.15 441.854 28.15 441.854" stroke="#C06520" stroke-width="2.19" stroke-linecap="round" stroke-linejoin="round"/>
<path d="M28.15 454.051V472.05" stroke="#C06520" stroke-width="2.19" stroke-linecap="round" stroke-linejoin="round"/>
<path d="M2.84003 230.404H26.7" stroke="#C06520" stroke-width="2.19" stroke-linecap="round" stroke-linejoin="round"/>
<path d="M52.1801 190.189V225.581C52.1801 229.055 54.8301 231.881 58.0901 231.881H76.2801V283.88" stroke="#C06520" stroke-width="2.19" stroke-linecap="round" stroke-linejoin="round"/>
<path d="M27.6 265.998H76.28" stroke="#C06520" stroke-width="2.19" stroke-linecap="round" stroke-linejoin="round"/>
<path d="M17.39 283.689V230.521" stroke="#C06520" stroke-width="2.19" stroke-linecap="round" stroke-linejoin="round"/>
<path d="M22.21 303.494H2.85999" stroke="#C06520" stroke-width="2.19" stroke-linecap="round" stroke-linejoin="round"/>
<path d="M31.66 303.494H83.58" stroke="#C06520" stroke-width="2.19" stroke-linecap="round" stroke-linejoin="round"/>
<path d="M5.5 323.947V353.198" stroke="#C06520" stroke-width="2.19" stroke-linecap="round" stroke-linejoin="round"/>
<path d="M5.83002 338.461H24.78C41.54 338.461 55.13 352.933 55.13 370.783V427.34" stroke="#C06520" stroke-width="2.19" stroke-linecap="round" stroke-linejoin="round"/>
<path d="M5.83002 370.485V426.809" stroke="#C06520" stroke-width="2.19" stroke-linecap="round" stroke-linejoin="round"/>
<path d="M41.96 324.064V324.298C41.96 341.192 54.82 354.877 70.68 354.877H111.88" stroke="#C06520" stroke-width="2.19" stroke-linecap="round" stroke-linejoin="round"/>
<path d="M70.45 337.441H45.55" stroke="#C06520" stroke-width="2.19" stroke-linecap="round" stroke-linejoin="round"/>
<path d="M2.85999 472.762L70.45 472.581V519.438" stroke="#C06520" stroke-width="2.19" stroke-linecap="round" stroke-linejoin="round"/>
<path d="M111.87 288.725C114.477 288.725 116.59 286.47 116.59 283.689C116.59 280.908 114.477 278.653 111.87 278.653C109.263 278.653 107.15 280.908 107.15 283.689C107.15 286.47 109.263 288.725 111.87 288.725Z" fill="black" stroke="#C06520" stroke-width="2.19" stroke-miterlimit="10"/>
<path d="M148.78 253.354C151.387 253.354 153.5 251.1 153.5 248.318C153.5 245.537 151.387 243.282 148.78 243.282C146.173 243.282 144.06 245.537 144.06 248.318C144.06 251.1 146.173 253.354 148.78 253.354Z" fill="black" stroke="#C06520" stroke-width="2.19" stroke-miterlimit="10"/>
<path d="M111.87 359.924C114.477 359.924 116.59 357.669 116.59 354.888C116.59 352.106 114.477 349.851 111.87 349.851C109.263 349.851 107.15 352.106 107.15 354.888C107.15 357.669 109.263 359.924 111.87 359.924Z" fill="black" stroke="#C06520" stroke-width="2.19" stroke-miterlimit="10"/>
<path d="M171.25 472.475C173.857 472.475 175.97 470.22 175.97 467.439C175.97 464.657 173.857 462.402 171.25 462.402C168.643 462.402 166.53 464.657 166.53 467.439C166.53 470.22 168.643 472.475 171.25 472.475Z" fill="black" stroke="#C06520" stroke-width="2.19" stroke-miterlimit="10"/>
<path d="M179.23 490.23C181.837 490.23 183.95 487.975 183.95 485.193C183.95 482.412 181.837 480.157 179.23 480.157C176.623 480.157 174.51 482.412 174.51 485.193C174.51 487.975 176.623 490.23 179.23 490.23Z" fill="black" stroke="#C06520" stroke-width="2.19" stroke-miterlimit="10"/>
<path d="M70.45 525.94C73.0568 525.94 75.17 523.686 75.17 520.904C75.17 518.123 73.0568 515.868 70.45 515.868C67.8432 515.868 65.73 518.123 65.73 520.904C65.73 523.686 67.8432 525.94 70.45 525.94Z" fill="black" stroke="#C06520" stroke-width="2.19" stroke-miterlimit="10"/>
<path d="M28.17 499.048C30.7768 499.048 32.89 496.794 32.89 494.012C32.89 491.231 30.7768 488.976 28.17 488.976C25.5632 488.976 23.45 491.231 23.45 494.012C23.45 496.794 25.5632 499.048 28.17 499.048Z" fill="black" stroke="#C06520" stroke-width="2.19" stroke-miterlimit="10"/>
<path d="M111.86 449.684V488.986" stroke="#C06520" stroke-width="2.19" stroke-linejoin="round"/>
<path d="M111.87 499.048C114.477 499.048 116.59 496.794 116.59 494.012C116.59 491.231 114.477 488.976 111.87 488.976C109.263 488.976 107.15 491.231 107.15 494.012C107.15 496.794 109.263 499.048 111.87 499.048Z" fill="black" stroke="#C06520" stroke-width="2.19" stroke-miterlimit="10"/>
<path d="M26.93 308.53C29.5368 308.53 31.65 306.276 31.65 303.494C31.65 300.713 29.5368 298.458 26.93 298.458C24.3232 298.458 22.21 300.713 22.21 303.494C22.21 306.276 24.3232 308.53 26.93 308.53Z" fill="black" stroke="#C06520" stroke-width="2.19" stroke-miterlimit="10"/>
<path d="M71.62 385.126C74.2268 385.126 76.34 382.872 76.34 380.09C76.34 377.309 74.2268 375.054 71.62 375.054C69.0132 375.054 66.9 377.309 66.9 380.09C66.9 382.872 69.0132 385.126 71.62 385.126Z" fill="black" stroke="#C06520" stroke-width="2.19" stroke-miterlimit="10"/>
<path d="M88.12 299.52H80.77C81.56 302.06 81.56 304.812 80.77 307.351H88.12C87.33 304.812 87.33 302.06 88.12 299.52Z" fill="black" stroke="#C06520" stroke-width="2.19" stroke-linecap="round" stroke-linejoin="round"/>
<path d="M88.12 295.61H80.76" stroke="#C06520" stroke-width="2.19" stroke-linecap="round" stroke-linejoin="round"/>
<path d="M200.65 443.256H193.3" stroke="#C06520" stroke-width="2.19" stroke-linecap="round" stroke-linejoin="round"/>
<path d="M31.83 445.764H24.48C25.27 448.303 25.27 451.055 24.48 453.594H31.83C31.04 451.055 31.04 448.303 31.83 445.764Z" fill="black" stroke="#C06520" stroke-width="2.19" stroke-linecap="round" stroke-linejoin="round"/>
<path d="M31.83 441.854H24.48" stroke="#C06520" stroke-width="2.19" stroke-linecap="round" stroke-linejoin="round"/>
<path d="M79.25 424.524V431.016C79.25 433.751 81.3364 435.967 83.91 435.967H84.97C87.5436 435.967 89.63 433.751 89.63 431.016V424.524C89.63 421.79 87.5436 419.573 84.97 419.573H83.91C81.3364 419.573 79.25 421.79 79.25 424.524Z" fill="black" stroke="#C06520" stroke-width="2.19" stroke-miterlimit="10"/>
<path d="M1.77002 190.635L76.28 189.976" stroke="#C06520" stroke-width="2.19" stroke-linejoin="round"/>
<path d="M80.59 186.438H73.24C74.03 188.977 74.03 191.729 73.24 194.269H80.59C79.8 191.729 79.8 188.977 80.59 186.438Z" fill="black" stroke="#C06520" stroke-width="2.19" stroke-linecap="round" stroke-linejoin="round"/>
<path d="M80.59 182.517H73.24" stroke="#C06520" stroke-width="2.19" stroke-linecap="round" stroke-linejoin="round"/>
<path d="M2.98999 144.288H5.49999V190.348V229.586" stroke="#C06520" stroke-width="2.19" stroke-linecap="round" stroke-linejoin="round"/>
<path d="M28.17 472.05V488.296" stroke="#C06520" stroke-width="2.19" stroke-linecap="round" stroke-linejoin="round"/>
<path d="M196.98 442.789V427.765H148.78V380.09H76.35" stroke="#C06520" stroke-width="2.19" stroke-linecap="round" stroke-linejoin="round"/>
<path d="M148.78 449.684V467.439H166.53" stroke="#C06520" stroke-width="2.19" stroke-linejoin="round"/>
<path d="M148.78 467.439V485.193H174.51" stroke="#C06520" stroke-width="2.19" stroke-linejoin="round"/>
<path d="M111.87 359.913V449.684H148.78" stroke="#C06520" stroke-width="2.19" stroke-linecap="round" stroke-linejoin="round"/>
<path d="M152.46 445.764H145.11C145.9 448.303 145.9 451.055 145.11 453.594H152.46C151.67 451.055 151.67 448.303 152.46 445.764Z" fill="black" stroke="#C06520" stroke-width="2.19" stroke-linecap="round" stroke-linejoin="round"/>
<path d="M148.78 424.099V441.854" stroke="#C06520" stroke-width="2.19" stroke-linejoin="round"/>
<path d="M152.46 441.854H145.1" stroke="#C06520" stroke-width="2.19" stroke-linecap="round" stroke-linejoin="round"/>
<mask id="mask0_445_3" style="mask-type:luminance" maskUnits="userSpaceOnUse" x="183" y="453" width="27" height="29">
<path d="M196.98 481.304C204.171 481.304 210 475.097 210 467.439C210 459.781 204.171 453.573 196.98 453.573C189.789 453.573 183.96 459.781 183.96 467.439C183.96 475.097 189.789 481.304 196.98 481.304Z" fill="white"/>
</mask>
<g mask="url(#mask0_445_3)">
<path d="M205.15 418.978L149.6 478.128" stroke="#C06520" stroke-width="0.45" stroke-miterlimit="10"/>
<path d="M207.6 421.592L152.28 480.741" stroke="#C06520" stroke-width="0.45" stroke-miterlimit="10"/>
<path d="M210.05 424.195L154.96 483.344" stroke="#C06520" stroke-width="0.45" stroke-miterlimit="10"/>
<path d="M212.5 426.809L157.64 485.958" stroke="#C06520" stroke-width="0.45" stroke-miterlimit="10"/>
<path d="M214.95 429.412L160.32 488.561" stroke="#C06520" stroke-width="0.45" stroke-miterlimit="10"/>
<path d="M217.4 432.025L163 491.175" stroke="#C06520" stroke-width="0.45" stroke-miterlimit="10"/>
<path d="M219.85 434.629L165.68 493.778" stroke="#C06520" stroke-width="0.45" stroke-miterlimit="10"/>
<path d="M222.3 437.242L168.36 496.392" stroke="#C06520" stroke-width="0.45" stroke-miterlimit="10"/>
<path d="M224.75 439.846L171.04 499.006" stroke="#C06520" stroke-width="0.45" stroke-miterlimit="10"/>
<path d="M227.2 442.459L173.72 501.609" stroke="#C06520" stroke-width="0.45" stroke-miterlimit="10"/>
<path d="M229.65 445.073L176.4 504.223" stroke="#C06520" stroke-width="0.45" stroke-miterlimit="10"/>
<path d="M232.1 447.676L179.08 506.826" stroke="#C06520" stroke-width="0.45" stroke-miterlimit="10"/>
<path d="M234.55 450.29L181.76 509.44" stroke="#C06520" stroke-width="0.45" stroke-miterlimit="10"/>
<path d="M237 452.893L184.44 512.043" stroke="#C06520" stroke-width="0.45" stroke-miterlimit="10"/>
<path d="M239.45 455.507L187.12 514.657" stroke="#C06520" stroke-width="0.45" stroke-miterlimit="10"/>
<path d="M241.9 458.11L189.8 517.26" stroke="#C06520" stroke-width="0.45" stroke-miterlimit="10"/>
<path d="M244.35 460.724L192.48 519.873" stroke="#C06520" stroke-width="0.45" stroke-miterlimit="10"/>
<path d="M149.6 460.724L208.83 519.873" stroke="#C06520" stroke-width="0.45" stroke-miterlimit="10"/>
<path d="M152.05 458.11L211.05 517.26" stroke="#C06520" stroke-width="0.45" stroke-miterlimit="10"/>
<path d="M154.5 455.507L213.27 514.657" stroke="#C06520" stroke-width="0.45" stroke-miterlimit="10"/>
<path d="M156.95 452.893L215.49 512.043" stroke="#C06520" stroke-width="0.45" stroke-miterlimit="10"/>
<path d="M159.4 450.29L217.71 509.44" stroke="#C06520" stroke-width="0.45" stroke-miterlimit="10"/>
<path d="M161.85 447.676L219.93 506.826" stroke="#C06520" stroke-width="0.45" stroke-miterlimit="10"/>
<path d="M164.3 445.073L222.15 504.223" stroke="#C06520" stroke-width="0.45" stroke-miterlimit="10"/>
<path d="M166.75 442.459L224.37 501.609" stroke="#C06520" stroke-width="0.45" stroke-miterlimit="10"/>
<path d="M169.2 439.846L226.59 499.006" stroke="#C06520" stroke-width="0.45" stroke-miterlimit="10"/>
<path d="M171.65 437.242L228.81 496.392" stroke="#C06520" stroke-width="0.45" stroke-miterlimit="10"/>
<path d="M174.1 434.629L231.03 493.778" stroke="#C06520" stroke-width="0.45" stroke-miterlimit="10"/>
<path d="M176.55 432.025L233.25 491.175" stroke="#C06520" stroke-width="0.45" stroke-miterlimit="10"/>
<path d="M179 429.412L235.47 488.561" stroke="#C06520" stroke-width="0.45" stroke-miterlimit="10"/>
<path d="M181.45 426.809L237.69 485.958" stroke="#C06520" stroke-width="0.45" stroke-miterlimit="10"/>
<path d="M183.9 424.195L239.91 483.344" stroke="#C06520" stroke-width="0.45" stroke-miterlimit="10"/>
<path d="M186.35 421.592L242.13 480.741" stroke="#C06520" stroke-width="0.45" stroke-miterlimit="10"/>
<path d="M188.8 418.978L244.35 478.128" stroke="#C06520" stroke-width="0.45" stroke-miterlimit="10"/>
</g>
<path d="M196.98 481.304C204.171 481.304 210 475.097 210 467.439C210 459.781 204.171 453.573 196.98 453.573C189.789 453.573 183.96 459.781 183.96 467.439C183.96 475.097 189.789 481.304 196.98 481.304Z" stroke="#C06520" stroke-width="2.09" stroke-miterlimit="10"/>
<path d="M34.85 10.7419L33.25 9.03131C29.79 5.35504 24.19 5.35504 20.74 9.03131L19.14 10.7419C15.68 14.4182 15.68 20.3895 19.14 24.0658L20.74 25.7764C24.2 29.4527 29.8 29.4527 33.25 25.7764L34.85 24.0658C38.31 20.3895 38.31 14.4182 34.85 10.7419Z" fill="black" stroke="#C06520" stroke-width="2.19" stroke-miterlimit="10"/>
<path d="M33.14 24.7776C33.14 21.1651 30.39 18.2326 26.99 18.2326C23.59 18.2326 20.84 21.1651 20.84 24.7776" fill="black"/>
<path d="M33.14 24.7776C33.14 21.1651 30.39 18.2326 26.99 18.2326C23.59 18.2326 20.84 21.1651 20.84 24.7776" stroke="#C06520" stroke-width="2.19" stroke-miterlimit="10" stroke-linecap="round"/>
<path d="M26.99 22.6314L22.76 13.8232" stroke="#C06520" stroke-width="2.19" stroke-linecap="round" stroke-linejoin="round"/>
</g>
<g clip-path="url(#clip2_445_3)">
<path d="M297.53 906.659C299.855 906.659 301.74 904.657 301.74 902.186C301.74 899.716 299.855 897.713 297.53 897.713C295.205 897.713 293.32 899.716 293.32 902.186C293.32 904.657 295.205 906.659 297.53 906.659Z" fill="black" stroke="#C06520" stroke-width="2.19" stroke-miterlimit="10"/>
<path d="M240.1 1081.65V1074.3C240.1 1070.1 243.31 1066.69 247.26 1066.69C251.21 1066.69 254.42 1070.1 254.42 1074.3V1081.65C254.42 1085.85 251.21 1089.26 247.26 1089.26C243.31 1089.26 240.1 1085.85 240.1 1081.65Z" fill="black" stroke="#C06520" stroke-width="2.19" stroke-linecap="round" stroke-linejoin="round"/>
<path d="M82.3199 972.726V1033.2" stroke="#C06520" stroke-width="2.19" stroke-linecap="round" stroke-linejoin="round"/>
<path d="M74.67 972.651L82.17 980.62H82.46L89.96 972.651" stroke="#C06520" stroke-width="2.19" stroke-miterlimit="10" stroke-linecap="round"/>
<path d="M82.32 972.726C90.54 972.726 97.92 970.303 103.13 966.457H61.52C66.73 970.303 74.11 972.726 82.33 972.726H82.32Z" fill="black" stroke="#C06520" stroke-width="2.19" stroke-linecap="round" stroke-linejoin="round"/>
<path d="M103.12 966.468C103.12 966.468 110.84 961.803 110.84 948.703C110.84 935.602 103.17 930.683 95.14 925.795C87.11 920.907 82.48 914.639 82.48 914.639H82.15C82.15 914.639 77.52 920.907 69.49 925.795C61.46 930.683 53.79 935.613 53.79 948.703C53.79 961.793 61.51 966.468 61.51 966.468H103.12Z" fill="black" stroke="#C06520" stroke-width="2.19" stroke-miterlimit="10"/>
<path d="M82.33 948.671C84.6551 948.671 86.54 947.106 86.54 945.175C86.54 943.244 84.6551 941.679 82.33 941.679C80.0049 941.679 78.12 943.244 78.12 945.175C78.12 947.106 80.0049 948.671 82.33 948.671Z" fill="black" stroke="#C06520" stroke-width="1.94" stroke-miterlimit="10"/>
<path d="M82.3199 914.639V904.555C82.3199 898.999 86.5599 894.504 91.7799 894.504H121.99" stroke="#C06520" stroke-width="2.19" stroke-linecap="round" stroke-linejoin="round"/>
<ellipse cx="61.51" cy="962.568" rx="1.095" ry="1.16344" fill="#C06520"/>
<ellipse cx="66.07" cy="962.568" rx="1.095" ry="1.16344" fill="#C06520"/>
<ellipse cx="70.63" cy="962.568" rx="1.095" ry="1.16344" fill="#C06520"/>
<ellipse cx="75.19" cy="962.568" rx="1.095" ry="1.16344" fill="#C06520"/>
<ellipse cx="79.75" cy="962.568" rx="1.095" ry="1.16344" fill="#C06520"/>
<ellipse cx="84.3" cy="962.568" rx="1.095" ry="1.16344" fill="#C06520"/>
<ellipse cx="88.86" cy="962.568" rx="1.095" ry="1.16344" fill="#C06520"/>
<ellipse cx="93.42" cy="962.568" rx="1.095" ry="1.16344" fill="#C06520"/>
<ellipse cx="97.98" cy="962.568" rx="1.095" ry="1.16344" fill="#C06520"/>
<ellipse cx="102.54" cy="962.568" rx="1.095" ry="1.16344" fill="#C06520"/>
<ellipse cx="61.51" cy="937.079" rx="1.095" ry="1.16344" fill="#C06520"/>
<ellipse cx="66.07" cy="937.079" rx="1.095" ry="1.16344" fill="#C06520"/>
<ellipse cx="70.63" cy="937.079" rx="1.095" ry="1.16344" fill="#C06520"/>
<ellipse cx="75.19" cy="937.079" rx="1.095" ry="1.16344" fill="#C06520"/>
<ellipse cx="79.75" cy="937.079" rx="1.095" ry="1.16344" fill="#C06520"/>
<ellipse cx="84.3" cy="937.079" rx="1.095" ry="1.16344" fill="#C06520"/>
<ellipse cx="88.86" cy="937.079" rx="1.095" ry="1.16344" fill="#C06520"/>
<ellipse cx="93.42" cy="937.079" rx="1.095" ry="1.16344" fill="#C06520"/>
<ellipse cx="97.98" cy="937.079" rx="1.095" ry="1.16344" fill="#C06520"/>
<ellipse cx="102.54" cy="937.079" rx="1.095" ry="1.16344" fill="#C06520"/>
<path d="M59.12 933.615H105.18" stroke="#C06520" stroke-width="2.19" stroke-linecap="round" stroke-linejoin="round"/>
<path d="M76.91 920.227H87.72" stroke="#C06520" stroke-width="1.94" stroke-miterlimit="10"/>
<path d="M13.25 1118.6V1176.42L0.73999 1176.1" stroke="#C06520" stroke-width="2.19" stroke-linecap="round" stroke-linejoin="round"/>
<path d="M42.08 1032.2V1071.39" stroke="#C06520" stroke-width="2.19" stroke-linejoin="round"/>
<path d="M42.32 1079.62C44.6451 1079.62 46.53 1077.62 46.53 1075.15C46.53 1072.68 44.6451 1070.68 42.32 1070.68C39.9949 1070.68 38.11 1072.68 38.11 1075.15C38.11 1077.62 39.9949 1079.62 42.32 1079.62Z" fill="black" stroke="#C06520" stroke-width="2.19" stroke-miterlimit="10"/>
<path d="M51.65 1120.68H45.1C45.8 1122.94 45.8 1125.38 45.1 1127.64H51.65C50.95 1125.38 50.95 1122.94 51.65 1120.68Z" fill="black" stroke="#C06520" stroke-width="2.19" stroke-linecap="round" stroke-linejoin="round"/>
<path d="M51.65 1117.21H45.1" stroke="#C06520" stroke-width="2.19" stroke-linecap="round" stroke-linejoin="round"/>
<path d="M38.12 1140.08C41.59 1143.77 41.59 1149.75 38.12 1153.44C34.65 1157.12 29.02 1157.12 25.55 1153.44C22.08 1149.75 22.08 1143.77 25.55 1140.08C29.02 1136.39 34.65 1136.39 38.12 1140.08Z" fill="black" stroke="#C06520" stroke-width="2.19" stroke-miterlimit="10"/>
<path d="M37.31 1153.32C37.31 1150.1 34.86 1147.5 31.83 1147.5C28.8 1147.5 26.35 1150.1 26.35 1153.32" fill="black"/>
<path d="M37.31 1153.32C37.31 1150.1 34.86 1147.5 31.83 1147.5C28.8 1147.5 26.35 1150.1 26.35 1153.32" stroke="#C06520" stroke-width="2.19" stroke-miterlimit="10" stroke-linecap="round"/>
<path d="M31.83 1151.42L28.07 1143.59" stroke="#C06520" stroke-width="2.19" stroke-linecap="round" stroke-linejoin="round"/>
<path d="M48.37 1134.36V1207.04" stroke="#C06520" stroke-width="2.19" stroke-linecap="round" stroke-linejoin="round"/>
<path d="M32.28 1156.19V1197.72C32.28 1202.86 36.2 1207.04 41.05 1207.04H105.44" stroke="#C06520" stroke-width="2.19" stroke-linecap="round" stroke-linejoin="round"/>
<path d="M22.94 1146.76H13.25" stroke="#C06520" stroke-width="2.19" stroke-linecap="round" stroke-linejoin="round"/>
<path d="M40.72 1146.76H48.37" stroke="#C06520" stroke-width="2.19" stroke-linecap="round" stroke-linejoin="round"/>
<path d="M178.65 911.069V968.89H110.37V976.636" stroke="#C06520" stroke-width="2.19" stroke-linecap="round" stroke-linejoin="round"/>
<path d="M130.99 943.571H178.65V904.864" stroke="#C06520" stroke-width="2.19" stroke-linejoin="round"/>
<path d="M178.65 870.587V951.89H121.99V969.23" stroke="#C06520" stroke-width="2.19" stroke-linejoin="round"/>
<path d="M132.34 987.346H151.77" stroke="#C06520" stroke-width="2.19" stroke-linejoin="round"/>
<path d="M114.02 1005.4H151.77" stroke="#C06520" stroke-width="2.19" stroke-linejoin="round"/>
<path d="M132.34 1023.44H151.77" stroke="#C06520" stroke-width="2.19" stroke-linejoin="round"/>
<path d="M247.26 1066.69V1038.19C247.26 1035.65 245.32 1033.6 242.94 1033.6H157.68C154.33 1033.6 151.61 1030.71 151.61 1027.15V969.336" stroke="#C06520" stroke-width="2.19" stroke-linecap="round" stroke-linejoin="round"/>
<path d="M130.99 951.89C131.19 951.89 130.99 904.332 130.99 904.332" stroke="#C06520" stroke-width="2.19" stroke-linecap="round" stroke-linejoin="round"/>
<path d="M131.99 969.188V1071.34C131.99 1075.92 135.48 1079.62 139.79 1079.62H162.22" stroke="#C06520" stroke-width="2.19" stroke-linecap="round" stroke-linejoin="round"/>
<path d="M151.61 973.82C153.935 973.82 155.82 971.817 155.82 969.347C155.82 966.877 153.935 964.874 151.61 964.874C149.285 964.874 147.4 966.877 147.4 969.347C147.4 971.817 149.285 973.82 151.61 973.82Z" fill="black" stroke="#C06520" stroke-width="2.19" stroke-miterlimit="10"/>
<path d="M107.1 984.307H113.65C112.95 982.044 112.95 979.611 113.65 977.348H107.1C107.8 979.611 107.8 982.044 107.1 984.307Z" fill="black" stroke="#C06520" stroke-width="2.19" stroke-linecap="round" stroke-linejoin="round"/>
<path d="M107.1 987.782H113.65" stroke="#C06520" stroke-width="2.19" stroke-linecap="round" stroke-linejoin="round"/>
<path d="M110.93 1049.81H131.94" stroke="#C06520" stroke-width="2.19" stroke-linecap="round" stroke-linejoin="round"/>
<path d="M136.149 1032.56C136.314 1030.09 134.567 1027.95 132.248 1027.78C129.929 1027.6 127.915 1029.46 127.75 1031.92C127.585 1034.39 129.331 1036.52 131.651 1036.7C133.97 1036.88 135.984 1035.02 136.149 1032.56Z" fill="black" stroke="#C06520" stroke-width="2.19" stroke-miterlimit="10"/>
<path d="M82.36 1211.51C84.6851 1211.51 86.57 1209.51 86.57 1207.04C86.57 1204.57 84.6851 1202.57 82.36 1202.57C80.0349 1202.57 78.15 1204.57 78.15 1207.04C78.15 1209.51 80.0349 1211.51 82.36 1211.51Z" fill="black" stroke="#C06520" stroke-width="2.19" stroke-miterlimit="10"/>
<path d="M110.93 1054.62C113.255 1054.62 115.14 1052.62 115.14 1050.15C115.14 1047.68 113.255 1045.68 110.93 1045.68C108.605 1045.68 106.72 1047.68 106.72 1050.15C106.72 1052.62 108.605 1054.62 110.93 1054.62Z" fill="black" stroke="#C06520" stroke-width="2.19" stroke-miterlimit="10"/>
<path d="M110.37 987.782V997.939" stroke="#C06520" stroke-width="2.19" stroke-linecap="round" stroke-linejoin="round"/>
<path d="M137.17 888.204C140.64 891.89 140.64 897.872 137.17 901.559C133.7 905.246 128.07 905.246 124.6 901.559C121.13 897.872 121.13 891.89 124.6 888.204C128.07 884.517 133.7 884.517 137.17 888.204Z" fill="black" stroke="#C06520" stroke-width="2.19" stroke-miterlimit="10"/>
<path d="M136.36 901.442C136.36 898.223 133.91 895.62 130.88 895.62C127.85 895.62 125.4 898.223 125.4 901.442" fill="black"/>
<path d="M136.36 901.442C136.36 898.223 133.91 895.62 130.88 895.62C127.85 895.62 125.4 898.223 125.4 901.442" stroke="#C06520" stroke-width="2.19" stroke-miterlimit="10" stroke-linecap="round"/>
<path d="M130.88 899.54L127.12 891.71" stroke="#C06520" stroke-width="2.19" stroke-linecap="round" stroke-linejoin="round"/>
<path d="M17.29 1083.73C15.15 1081.2 14.51 1085.1 14.77 1086.9C15.03 1088.71 17.19 1104.94 17.19 1104.94H10.13C10.26 1104.54 11.89 1089.5 12.34 1085.84C13.18 1079.03 17.28 1083.73 17.28 1083.73H17.29Z" fill="black" stroke="#C06520" stroke-width="2.19" stroke-linecap="round" stroke-linejoin="round"/>
<path d="M23.4394 1112.94C23.487 1107.03 19.0128 1102.19 13.446 1102.14C7.87917 1102.09 3.32778 1106.84 3.28017 1112.76C3.23256 1118.67 7.70676 1123.51 13.2736 1123.56C18.8404 1123.61 23.3918 1118.85 23.4394 1112.94Z" fill="black" stroke="#C06520" stroke-width="2.19" stroke-linecap="round" stroke-linejoin="round"/>
<path d="M25.53 1110.6H1.54999V1131.92H25.53V1110.6Z" fill="black" stroke="#C06520" stroke-width="2.19" stroke-linecap="round" stroke-linejoin="round"/>
<path d="M17.32 1115.89H9.75V1122.42H17.32V1115.89Z" fill="black" stroke="#C06520" stroke-width="2.19" stroke-linecap="round" stroke-linejoin="round"/>
<path d="M48.37 1117.21V1095.21H28.22C20.64 1095.21 20.64 1083.18 14.91 1083.18" stroke="#C06520" stroke-width="2.19" stroke-linecap="round" stroke-linejoin="round"/>
<path d="M18.43 968.89V895.152H73.44C78.34 895.152 82.31 899.371 82.31 904.577V914.639" stroke="#C06520" stroke-width="2.19" stroke-linecap="round" stroke-linejoin="round"/>
<path d="M18.33 925.976H42.02V895.545" stroke="#C06520" stroke-width="2.19" stroke-linecap="round" stroke-linejoin="round"/>
<path d="M18.33 968.975H42.02" stroke="#C06520" stroke-width="2.19" stroke-linecap="round" stroke-linejoin="round"/>
<path d="M18.43 943.571V997.121C18.43 1001.86 22.05 1005.71 26.51 1005.71H65.44V1049.81H106.72" stroke="#C06520" stroke-width="2.19" stroke-linecap="round" stroke-linejoin="round"/>
<path d="M42.1701 950.424L42.0601 1033.6" stroke="#C06520" stroke-width="2.19" stroke-linecap="round" stroke-linejoin="round"/>
<path d="M65.45 1033.6L0.73999 1033.72" stroke="#C06520" stroke-width="2.19" stroke-linecap="round" stroke-linejoin="round"/>
<path d="M30.43 969.081V983.415C30.43 985.752 28.65 987.643 26.45 987.643H13.51" stroke="#C06520" stroke-width="2.19" stroke-linecap="round" stroke-linejoin="round"/>
<path d="M30.43 926.092V939.151C30.43 941.488 28.65 943.379 26.45 943.379H18.94" stroke="#C06520" stroke-width="2.19" stroke-linecap="round" stroke-linejoin="round"/>
<path d="M9.54002 992.117C11.8651 992.117 13.75 990.114 13.75 987.643C13.75 985.173 11.8651 983.17 9.54002 983.17C7.2149 983.17 5.33002 985.173 5.33002 987.643C5.33002 990.114 7.2149 992.117 9.54002 992.117Z" fill="black" stroke="#C06520" stroke-width="2.19" stroke-miterlimit="10"/>
<path d="M82.1499 1010.29C84.4751 1010.29 86.3599 1008.28 86.3599 1005.81C86.3599 1003.34 84.4751 1001.34 82.1499 1001.34C79.8248 1001.34 77.9399 1003.34 77.9399 1005.81C77.9399 1008.28 79.8248 1010.29 82.1499 1010.29Z" fill="black" stroke="#C06520" stroke-width="2.19" stroke-miterlimit="10"/>
<path d="M-0.26001 940.224L17.36 940.574" stroke="#C06520" stroke-width="2.19" stroke-miterlimit="10"/>
<path d="M18.43 945.048C20.7551 945.048 22.64 943.045 22.64 940.574C22.64 938.104 20.7551 936.101 18.43 936.101C16.1049 936.101 14.22 938.104 14.22 940.574C14.22 943.045 16.1049 945.048 18.43 945.048Z" fill="black" stroke="#C06520" stroke-width="2.19" stroke-miterlimit="10"/>
<path d="M45.44 943.464H38.89C39.59 945.728 39.59 948.161 38.89 950.424H45.44C44.74 948.161 44.74 945.728 45.44 943.464Z" fill="black" stroke="#C06520" stroke-width="2.19" stroke-linecap="round" stroke-linejoin="round"/>
<path d="M45.44 939.979H38.89" stroke="#C06520" stroke-width="2.19" stroke-linecap="round" stroke-linejoin="round"/>
<path d="M61.99 778.192H25.98C17.37 778.192 18.28 786.373 18.28 786.373V830.18C18.28 836.088 6.64999 839.286 -0.26001 839.286" stroke="#C06520" stroke-width="2.19" stroke-linejoin="round"/>
<path d="M45.4399 838.234H106.67V778.192H89.7699" stroke="#C06520" stroke-width="2.19" stroke-linecap="round" stroke-linejoin="round"/>
<path d="M106.67 808.462V862.013C106.67 866.752 110.29 870.598 114.75 870.598H199.11C201.14 870.598 202.78 872.34 202.78 874.497V893.93C202.78 898.489 206.26 902.197 210.56 902.197H293.33" stroke="#C06520" stroke-width="2.19" stroke-linecap="round" stroke-linejoin="round"/>
<path d="M222.13 937.058V779.977H244.37V850.378C244.37 853.47 246.73 855.978 249.64 855.978H265.84V902.186" stroke="#C06520" stroke-width="2.19" stroke-linecap="round" stroke-linejoin="round"/>
<path d="M175.29 823.114V869.695" stroke="#C06520" stroke-width="2.19" stroke-linecap="round" stroke-linejoin="round"/>
<path d="M44.42 778.224V848.498C44.42 850.315 45.81 851.791 47.52 851.791H55.87C58.25 851.791 60.18 853.842 60.18 856.371V895.545" stroke="#C06520" stroke-width="2.19" stroke-linejoin="round"/>
<path d="M130.25 818.737H244.01" stroke="#C06520" stroke-width="2.19" stroke-linecap="round" stroke-linejoin="round"/>
<path d="M152.15 869.695V819.077" stroke="#C06520" stroke-width="2.19" stroke-linecap="round" stroke-linejoin="round"/>
<path d="M199.62 869.695V819.077" stroke="#C06520" stroke-width="2.19" stroke-linecap="round" stroke-linejoin="round"/>
<path d="M130.25 885.239V794.023H106.98" stroke="#C06520" stroke-width="2.19" stroke-linecap="round" stroke-linejoin="round"/>
<path d="M174.92 818.652V697.154" stroke="#C06520" stroke-width="2.19" stroke-miterlimit="10" stroke-linecap="round"/>
<path d="M173.45 708.651L170.3 701.351" stroke="#C06520" stroke-width="2.19" stroke-miterlimit="10" stroke-linecap="round"/>
<path d="M172.94 712.624L167.9 706.579" stroke="#C06520" stroke-width="2.19" stroke-miterlimit="10" stroke-linecap="round"/>
<path d="M173.81 719.212L167.46 713.092" stroke="#C06520" stroke-width="2.19" stroke-miterlimit="10" stroke-linecap="round"/>
<path d="M176.38 708.651L179.54 701.351" stroke="#C06520" stroke-width="2.19" stroke-miterlimit="10" stroke-linecap="round"/>
<path d="M176.9 712.624L181.94 706.579" stroke="#C06520" stroke-width="2.19" stroke-miterlimit="10" stroke-linecap="round"/>
<path d="M176.02 719.212L182.37 713.092" stroke="#C06520" stroke-width="2.19" stroke-miterlimit="10" stroke-linecap="round"/>
<path d="M170.3 714.569V709.819C170.3 707.11 172.37 704.911 174.92 704.911C177.47 704.911 179.54 707.11 179.54 709.819V714.569C179.54 717.278 177.47 719.478 174.92 719.478C172.37 719.478 170.3 717.278 170.3 714.569Z" fill="black" stroke="#C06520" stroke-width="2.19" stroke-miterlimit="10" stroke-linecap="round"/>
<path d="M170.3 711.753L177.09 718.968" stroke="#C06520" stroke-width="2.19" stroke-miterlimit="10" stroke-linecap="round"/>
<path d="M174.25 715.366L179.4 709.894" stroke="#C06520" stroke-width="2.19" stroke-miterlimit="10" stroke-linecap="round"/>
<path d="M177.04 712.401L171.41 706.419" stroke="#C06520" stroke-width="2.19" stroke-miterlimit="10" stroke-linecap="round"/>
<path d="M152.15 818.652V697.154" stroke="#C06520" stroke-width="2.19" stroke-miterlimit="10" stroke-linecap="round"/>
<path d="M150.69 708.651L147.53 701.351" stroke="#C06520" stroke-width="2.19" stroke-miterlimit="10" stroke-linecap="round"/>
<path d="M150.17 712.624L145.14 706.579" stroke="#C06520" stroke-width="2.19" stroke-miterlimit="10" stroke-linecap="round"/>
<path d="M151.05 719.212L144.7 713.092" stroke="#C06520" stroke-width="2.19" stroke-miterlimit="10" stroke-linecap="round"/>
<path d="M153.62 708.651L156.78 701.351" stroke="#C06520" stroke-width="2.19" stroke-miterlimit="10" stroke-linecap="round"/>
<path d="M154.13 712.624L159.17 706.579" stroke="#C06520" stroke-width="2.19" stroke-miterlimit="10" stroke-linecap="round"/>
<path d="M153.26 719.212L159.61 713.092" stroke="#C06520" stroke-width="2.19" stroke-miterlimit="10" stroke-linecap="round"/>
<path d="M147.54 714.558V709.809C147.54 707.099 149.61 704.9 152.16 704.9C154.71 704.9 156.78 707.099 156.78 709.809V714.558C156.78 717.268 154.71 719.467 152.16 719.467C149.61 719.467 147.54 717.268 147.54 714.558Z" fill="black" stroke="#C06520" stroke-width="2.19" stroke-miterlimit="10" stroke-linecap="round"/>
<path d="M147.53 711.753L154.33 718.968" stroke="#C06520" stroke-width="2.19" stroke-miterlimit="10" stroke-linecap="round"/>
<path d="M151.49 715.366L156.64 709.894" stroke="#C06520" stroke-width="2.19" stroke-miterlimit="10" stroke-linecap="round"/>
<path d="M154.28 712.401L148.65 706.419" stroke="#C06520" stroke-width="2.19" stroke-miterlimit="10" stroke-linecap="round"/>
<path d="M199.62 818.652V697.154" stroke="#C06520" stroke-width="2.19" stroke-miterlimit="10" stroke-linecap="round"/>
<path d="M198.15 708.651L195 701.351" stroke="#C06520" stroke-width="2.19" stroke-miterlimit="10" stroke-linecap="round"/>
<path d="M197.64 712.624L192.6 706.579" stroke="#C06520" stroke-width="2.19" stroke-miterlimit="10" stroke-linecap="round"/>
<path d="M198.52 719.212L192.16 713.092" stroke="#C06520" stroke-width="2.19" stroke-miterlimit="10" stroke-linecap="round"/>
<path d="M201.08 708.651L204.24 701.351" stroke="#C06520" stroke-width="2.19" stroke-miterlimit="10" stroke-linecap="round"/>
<path d="M201.6 712.624L206.64 706.579" stroke="#C06520" stroke-width="2.19" stroke-miterlimit="10" stroke-linecap="round"/>
<path d="M200.72 719.212L207.07 713.092" stroke="#C06520" stroke-width="2.19" stroke-miterlimit="10" stroke-linecap="round"/>
<path d="M195 714.569V709.819C195 707.11 197.07 704.911 199.62 704.911C202.17 704.911 204.24 707.11 204.24 709.819V714.569C204.24 717.278 202.17 719.478 199.62 719.478C197.07 719.478 195 717.278 195 714.569Z" fill="black" stroke="#C06520" stroke-width="2.19" stroke-miterlimit="10" stroke-linecap="round"/>
<path d="M195 711.753L201.79 718.968" stroke="#C06520" stroke-width="2.19" stroke-miterlimit="10" stroke-linecap="round"/>
<path d="M198.95 715.366L204.1 709.894" stroke="#C06520" stroke-width="2.19" stroke-miterlimit="10" stroke-linecap="round"/>
<path d="M201.74 712.401L196.11 706.419" stroke="#C06520" stroke-width="2.19" stroke-miterlimit="10" stroke-linecap="round"/>
<path d="M175.29 823.125C177.615 823.125 179.5 821.122 179.5 818.652C179.5 816.181 177.615 814.179 175.29 814.179C172.965 814.179 171.08 816.181 171.08 818.652C171.08 821.122 172.965 823.125 175.29 823.125Z" fill="black" stroke="#C06520" stroke-width="2.19" stroke-miterlimit="10"/>
<mask id="mask1_445_3" style="mask-type:luminance" maskUnits="userSpaceOnUse" x="222" y="779" width="23" height="28">
<path d="M244.37 779.977H222.13V806.348H244.37V779.977Z" fill="white"/>
</mask>
<g mask="url(#mask1_445_3)">
<path d="M230.36 787.818L220.66 798.124" stroke="#C06520" stroke-width="2.19" stroke-miterlimit="10" stroke-linecap="round"/>
<path d="M237.05 787.818L227.35 798.124" stroke="#C06520" stroke-width="2.19" stroke-miterlimit="10" stroke-linecap="round"/>
<path d="M243.74 787.818L234.04 798.124" stroke="#C06520" stroke-width="2.19" stroke-miterlimit="10" stroke-linecap="round"/>
<path d="M250.43 787.818L240.73 798.124" stroke="#C06520" stroke-width="2.19" stroke-miterlimit="10" stroke-linecap="round"/>
<path d="M226.55 790.878L216.85 780.572" stroke="#C06520" stroke-width="2.19" stroke-miterlimit="10" stroke-linecap="round"/>
<path d="M233.24 790.878L223.54 780.572" stroke="#C06520" stroke-width="2.19" stroke-miterlimit="10" stroke-linecap="round"/>
<path d="M239.93 790.878L230.23 780.572" stroke="#C06520" stroke-width="2.19" stroke-miterlimit="10" stroke-linecap="round"/>
<path d="M246.62 790.878L236.92 780.572" stroke="#C06520" stroke-width="2.19" stroke-miterlimit="10" stroke-linecap="round"/>
<path d="M253.31 790.878L243.61 780.572" stroke="#C06520" stroke-width="2.19" stroke-miterlimit="10" stroke-linecap="round"/>
</g>
<path d="M222.13 798.464H244.37" stroke="#C06520" stroke-width="2.19" stroke-linecap="round" stroke-linejoin="round"/>
<path d="M10.14 1041.17L0.73999 1041.16" stroke="#C06520" stroke-width="2.19" stroke-linecap="round" stroke-linejoin="round"/>
<path d="M18.44 1027.36C23.61 1027.36 27.79 1031.81 27.79 1037.3C27.79 1042.8 23.6 1047.24 18.44 1047.24C13.27 1047.24 9.09003 1042.79 9.09003 1037.29C9.09003 1031.8 13.28 1027.36 18.44 1027.36Z" fill="black" stroke="#C06520" stroke-width="2.19" stroke-miterlimit="10"/>
<path d="M18.43 1031.21C21.6 1031.21 24.17 1033.94 24.17 1037.29C24.17 1040.66 21.6 1043.39 18.43 1043.39C15.26 1043.39 12.7 1040.66 12.7 1037.3C12.7 1033.94 15.27 1031.21 18.43 1031.21Z" fill="black" stroke="#C06520" stroke-width="2.19" stroke-miterlimit="10"/>
<path d="M82.36 1022.08V1201.44" stroke="#C06520" stroke-width="2.19" stroke-linecap="round" stroke-linejoin="round"/>
<path d="M114.02 994.061V1029.07C114.02 1031.21 112.39 1032.95 110.37 1032.95C108.36 1032.95 106.72 1031.22 106.72 1029.07V994.061" fill="black"/>
<path d="M114.02 994.061V1029.07C114.02 1031.21 112.39 1032.95 110.37 1032.95C108.36 1032.95 106.72 1031.22 106.72 1029.07V994.061" stroke="#C06520" stroke-width="2.19" stroke-miterlimit="10"/>
<path d="M88.0401 1096.32C91.5101 1100 91.5101 1105.99 88.0401 1109.67C84.5701 1113.36 78.9401 1113.36 75.4701 1109.67C72.0001 1105.99 72.0001 1100 75.4701 1096.32C78.9401 1092.63 84.5701 1092.63 88.0401 1096.32Z" fill="black" stroke="#C06520" stroke-width="2.19" stroke-miterlimit="10"/>
<path d="M87.22 1109.56C87.22 1106.34 84.77 1103.73 81.74 1103.73C78.71 1103.73 76.26 1106.34 76.26 1109.56" fill="black"/>
<path d="M87.22 1109.56C87.22 1106.34 84.77 1103.73 81.74 1103.73C78.71 1103.73 76.26 1106.34 76.26 1109.56" stroke="#C06520" stroke-width="2.19" stroke-miterlimit="10" stroke-linecap="round"/>
<path d="M157.6 1141.58V1136.83C157.6 1134.12 159.67 1131.92 162.22 1131.92C164.77 1131.92 166.84 1134.12 166.84 1136.83V1141.58C166.84 1144.29 164.77 1146.49 162.22 1146.49C159.67 1146.49 157.6 1144.29 157.6 1141.58Z" fill="black" stroke="#C06520" stroke-width="2.19" stroke-miterlimit="10"/>
<path d="M162.22 1146.49V1152.3H143.33V1155.48" stroke="#C06520" stroke-width="2.19" stroke-linejoin="round"/>
<path d="M151.88 1196.35H134.78C133.99 1196.35 133.33 1195.65 133.23 1194.7L132.37 1186.39C131.79 1180.8 131.79 1175.14 132.37 1169.56L133.23 1161.24C133.33 1160.3 133.99 1159.59 134.78 1159.59H151.88C152.67 1159.59 153.33 1160.29 153.43 1161.24L154.29 1169.56C154.87 1175.14 154.87 1180.8 154.29 1186.39L153.43 1194.7C153.33 1195.64 152.67 1196.35 151.88 1196.35Z" fill="black" stroke="#C06520" stroke-width="1.98" stroke-miterlimit="10"/>
<path d="M133.53 1164.17H153.14" stroke="#C06520" stroke-width="1.93" stroke-miterlimit="10"/>
<path d="M133.53 1192.3H153.14" stroke="#C06520" stroke-width="1.93" stroke-miterlimit="10"/>
<path d="M154.26 1175.43H132.46V1179.01H154.26V1175.43Z" fill="black" stroke="#C06520" stroke-width="1.93" stroke-miterlimit="10"/>
<path d="M185.66 1196.35H168.56C167.77 1196.35 167.11 1195.65 167.01 1194.7L166.15 1186.39C165.57 1180.8 165.57 1175.14 166.15 1169.56L167.01 1161.24C167.11 1160.3 167.77 1159.59 168.56 1159.59H185.66C186.45 1159.59 187.11 1160.29 187.21 1161.24L188.07 1169.56C188.65 1175.14 188.65 1180.8 188.07 1186.39L187.21 1194.7C187.11 1195.64 186.45 1196.35 185.66 1196.35Z" fill="black" stroke="#C06520" stroke-width="1.98" stroke-miterlimit="10"/>
<path d="M167.3 1164.17H186.92" stroke="#C06520" stroke-width="1.93" stroke-miterlimit="10"/>
<path d="M167.3 1192.3H186.92" stroke="#C06520" stroke-width="1.93" stroke-miterlimit="10"/>
<path d="M188.04 1175.43H166.24V1179.01H188.04V1175.43Z" fill="black" stroke="#C06520" stroke-width="1.93" stroke-miterlimit="10"/>
<path d="M162.22 1089.87C167.544 1089.87 171.86 1085.28 171.86 1079.62C171.86 1073.97 167.544 1069.38 162.22 1069.38C156.896 1069.38 152.58 1073.97 152.58 1079.62C152.58 1085.28 156.896 1089.87 162.22 1089.87Z" fill="black" stroke="#C06520" stroke-width="2.19" stroke-miterlimit="10"/>
<path d="M153.26 1079.62L156.45 1077.8L167.98 1081.46L171.18 1079.62" fill="black"/>
<path d="M153.26 1079.62L156.45 1077.8L167.98 1081.46L171.18 1079.62" stroke="#C06520" stroke-width="2.19" stroke-miterlimit="10" stroke-linecap="round"/>
<path d="M162.22 1152.3H178.7V1155.48" stroke="#C06520" stroke-width="2.19" stroke-linejoin="round"/>
<path d="M162.62 1131.92V1089.88" stroke="#C06520" stroke-width="2.19" stroke-linecap="round" stroke-linejoin="round"/>
<path d="M214.5 945.717V1003.54H152V1020.88" stroke="#C06520" stroke-width="2.19" stroke-linecap="round" stroke-linejoin="round"/>
<path d="M236.56 950.275H241.25C244.54 950.275 247.22 953.091 247.23 956.586C247.32 979.611 247.21 1057.28 247.21 1057.28" stroke="#C06520" stroke-width="2.19" stroke-linecap="round" stroke-linejoin="round"/>
<path d="M259.45 936.101H211.8C205.962 936.101 201.23 941.129 201.23 947.332V947.343C201.23 953.545 205.962 958.573 211.8 958.573H259.45C265.288 958.573 270.02 953.545 270.02 947.343V947.332C270.02 941.129 265.288 936.101 259.45 936.101Z" fill="black" stroke="#C06520" stroke-width="2.19" stroke-miterlimit="10"/>
<path d="M215.27 942.232H215.52" stroke="#C06520" stroke-width="2.19" stroke-linecap="round" stroke-linejoin="round"/>
<path d="M220.36 942.232H220.11" stroke="#C06520" stroke-width="2.19" stroke-linecap="round" stroke-linejoin="round"/>
<path d="M224.95 942.232H225.2" stroke="#C06520" stroke-width="2.19" stroke-linecap="round" stroke-linejoin="round"/>
<path d="M205.58 942.232H205.83" stroke="#C06520" stroke-width="2.19" stroke-linecap="round" stroke-linejoin="round"/>
<path d="M210.42 942.232H210.67" stroke="#C06520" stroke-width="2.19" stroke-linecap="round" stroke-linejoin="round"/>
<path d="M239.86 942.232H240.11" stroke="#C06520" stroke-width="2.19" stroke-linecap="round" stroke-linejoin="round"/>
<path d="M244.71 942.232H244.96" stroke="#C06520" stroke-width="2.19" stroke-linecap="round" stroke-linejoin="round"/>
<path d="M249.55 942.232H249.8" stroke="#C06520" stroke-width="2.19" stroke-linecap="round" stroke-linejoin="round"/>
<path d="M230.18 942.232H230.43" stroke="#C06520" stroke-width="2.19" stroke-linecap="round" stroke-linejoin="round"/>
<path d="M235.02 942.232H235.27" stroke="#C06520" stroke-width="2.19" stroke-linecap="round" stroke-linejoin="round"/>
<path d="M264.27 942.232H264.52" stroke="#C06520" stroke-width="2.19" stroke-linecap="round" stroke-linejoin="round"/>
<path d="M254.58 942.232H254.83" stroke="#C06520" stroke-width="2.19" stroke-linecap="round" stroke-linejoin="round"/>
<path d="M259.42 942.232H259.67" stroke="#C06520" stroke-width="2.19" stroke-linecap="round" stroke-linejoin="round"/>
<path d="M269.5 946.025H201.23" stroke="#C06520" stroke-width="2.19" stroke-linecap="round" stroke-linejoin="round"/>
<path d="M84.68 750.046H64.68C61.8688 750.046 59.59 752.467 59.59 755.454V778.734C59.59 781.72 61.8688 784.142 64.68 784.142H84.68C87.4911 784.142 89.77 781.72 89.77 778.734V755.454C89.77 752.467 87.4911 750.046 84.68 750.046Z" fill="black" stroke="#C06520" stroke-width="2.19" stroke-linecap="round" stroke-linejoin="round"/>
<mask id="mask2_445_3" style="mask-type:luminance" maskUnits="userSpaceOnUse" x="63" y="754" width="24" height="26">
<path d="M74.68 779.414C81.0865 779.414 86.28 773.895 86.28 767.089C86.28 760.282 81.0865 754.763 74.68 754.763C68.2735 754.763 63.08 760.282 63.08 767.089C63.08 773.895 68.2735 779.414 74.68 779.414Z" fill="white"/>
</mask>
<g mask="url(#mask2_445_3)">
<path d="M81.96 724.025L32.49 776.587" stroke="#C06520" stroke-width="0.45" stroke-miterlimit="10"/>
<path d="M84.14 726.352L34.67 778.914" stroke="#C06520" stroke-width="0.45" stroke-miterlimit="10"/>
<path d="M86.32 728.668L36.85 781.23" stroke="#C06520" stroke-width="0.45" stroke-miterlimit="10"/>
<path d="M88.5 730.985L39.03 783.547" stroke="#C06520" stroke-width="0.45" stroke-miterlimit="10"/>
<path d="M90.69 733.301L41.22 785.863" stroke="#C06520" stroke-width="0.45" stroke-miterlimit="10"/>
<path d="M92.87 735.617L43.4 788.179" stroke="#C06520" stroke-width="0.45" stroke-miterlimit="10"/>
<path d="M95.05 737.944L45.58 790.506" stroke="#C06520" stroke-width="0.45" stroke-miterlimit="10"/>
<path d="M97.23 740.26L47.76 792.822" stroke="#C06520" stroke-width="0.45" stroke-miterlimit="10"/>
<path d="M99.4099 742.577L49.9399 795.139" stroke="#C06520" stroke-width="0.45" stroke-miterlimit="10"/>
<path d="M101.6 744.893L52.13 797.455" stroke="#C06520" stroke-width="0.45" stroke-miterlimit="10"/>
<path d="M103.78 747.209L54.3099 799.771" stroke="#C06520" stroke-width="0.45" stroke-miterlimit="10"/>
<path d="M105.96 749.536L56.49 802.098" stroke="#C06520" stroke-width="0.45" stroke-miterlimit="10"/>
<path d="M108.14 751.852L58.67 804.414" stroke="#C06520" stroke-width="0.45" stroke-miterlimit="10"/>
<path d="M110.32 754.168L60.85 806.731" stroke="#C06520" stroke-width="0.45" stroke-miterlimit="10"/>
<path d="M112.51 756.485L63.04 809.047" stroke="#C06520" stroke-width="0.45" stroke-miterlimit="10"/>
<path d="M114.69 758.801L65.22 811.363" stroke="#C06520" stroke-width="0.45" stroke-miterlimit="10"/>
<path d="M116.87 761.128L67.4 813.69" stroke="#C06520" stroke-width="0.45" stroke-miterlimit="10"/>
<path d="M32.49 761.128L81.96 813.69" stroke="#C06520" stroke-width="0.45" stroke-miterlimit="10"/>
<path d="M34.67 758.801L84.14 811.363" stroke="#C06520" stroke-width="0.45" stroke-miterlimit="10"/>
<path d="M36.85 756.485L86.32 809.047" stroke="#C06520" stroke-width="0.45" stroke-miterlimit="10"/>
<path d="M39.03 754.168L88.5 806.731" stroke="#C06520" stroke-width="0.45" stroke-miterlimit="10"/>
<path d="M41.22 751.852L90.69 804.414" stroke="#C06520" stroke-width="0.45" stroke-miterlimit="10"/>
<path d="M43.4 749.536L92.87 802.098" stroke="#C06520" stroke-width="0.45" stroke-miterlimit="10"/>
<path d="M45.58 747.209L95.05 799.771" stroke="#C06520" stroke-width="0.45" stroke-miterlimit="10"/>
<path d="M47.76 744.893L97.23 797.455" stroke="#C06520" stroke-width="0.45" stroke-miterlimit="10"/>
<path d="M49.9399 742.577L99.4099 795.139" stroke="#C06520" stroke-width="0.45" stroke-miterlimit="10"/>
<path d="M52.13 740.26L101.6 792.822" stroke="#C06520" stroke-width="0.45" stroke-miterlimit="10"/>
<path d="M54.3099 737.944L103.78 790.506" stroke="#C06520" stroke-width="0.45" stroke-miterlimit="10"/>
<path d="M56.49 735.617L105.96 788.179" stroke="#C06520" stroke-width="0.45" stroke-miterlimit="10"/>
<path d="M58.67 733.301L108.14 785.863" stroke="#C06520" stroke-width="0.45" stroke-miterlimit="10"/>
<path d="M60.85 730.985L110.32 783.547" stroke="#C06520" stroke-width="0.45" stroke-miterlimit="10"/>
<path d="M63.04 728.668L112.51 781.23" stroke="#C06520" stroke-width="0.45" stroke-miterlimit="10"/>
<path d="M65.22 726.352L114.69 778.914" stroke="#C06520" stroke-width="0.45" stroke-miterlimit="10"/>
<path d="M67.4 724.025L116.87 776.587" stroke="#C06520" stroke-width="0.45" stroke-miterlimit="10"/>
</g>
<path d="M74.68 779.414C81.0865 779.414 86.28 773.895 86.28 767.089C86.28 760.282 81.0865 754.763 74.68 754.763C68.2735 754.763 63.08 760.282 63.08 767.089C63.08 773.895 68.2735 779.414 74.68 779.414Z" stroke="#C06520" stroke-width="2.09" stroke-miterlimit="10"/>
<path d="M59.22 837.214C62.3183 837.214 64.83 834.545 64.83 831.253C64.83 827.961 62.3183 825.293 59.22 825.293C56.1217 825.293 53.61 827.961 53.61 831.253C53.61 834.545 56.1217 837.214 59.22 837.214Z" fill="black" stroke="#C06520" stroke-width="2.19" stroke-miterlimit="10"/>
<path d="M70.45 837.214C73.5483 837.214 76.06 834.545 76.06 831.253C76.06 827.961 73.5483 825.293 70.45 825.293C67.3516 825.293 64.84 827.961 64.84 831.253C64.84 834.545 67.3516 837.214 70.45 837.214Z" fill="black" stroke="#C06520" stroke-width="2.19" stroke-miterlimit="10"/>
<path d="M81.6701 837.214C84.7684 837.214 87.2801 834.545 87.2801 831.253C87.2801 827.961 84.7684 825.293 81.6701 825.293C78.5717 825.293 76.0601 827.961 76.0601 831.253C76.0601 834.545 78.5717 837.214 81.6701 837.214Z" fill="black" stroke="#C06520" stroke-width="2.19" stroke-miterlimit="10"/>
<path d="M92.89 837.214C95.9883 837.214 98.5 834.545 98.5 831.253C98.5 827.961 95.9883 825.293 92.89 825.293C89.7917 825.293 87.28 827.961 87.28 831.253C87.28 834.545 89.7917 837.214 92.89 837.214Z" fill="black" stroke="#C06520" stroke-width="2.19" stroke-miterlimit="10"/>
<path d="M64.84 826.716C67.9383 826.716 70.45 824.048 70.45 820.756C70.45 817.464 67.9383 814.795 64.84 814.795C61.7417 814.795 59.23 817.464 59.23 820.756C59.23 824.048 61.7417 826.716 64.84 826.716Z" fill="black" stroke="#C06520" stroke-width="2.19" stroke-miterlimit="10"/>
<path d="M76.06 826.716C79.1583 826.716 81.67 824.048 81.67 820.756C81.67 817.464 79.1583 814.795 76.06 814.795C72.9616 814.795 70.45 817.464 70.45 820.756C70.45 824.048 72.9616 826.716 76.06 826.716Z" fill="black" stroke="#C06520" stroke-width="2.19" stroke-miterlimit="10"/>
<path d="M87.28 826.716C90.3784 826.716 92.89 824.048 92.89 820.756C92.89 817.464 90.3784 814.795 87.28 814.795C84.1817 814.795 81.67 817.464 81.67 820.756C81.67 824.048 84.1817 826.716 87.28 826.716Z" fill="black" stroke="#C06520" stroke-width="2.19" stroke-miterlimit="10"/>
<path d="M70.45 816.219C73.5483 816.219 76.06 813.55 76.06 810.258C76.06 806.966 73.5483 804.297 70.45 804.297C67.3516 804.297 64.84 806.966 64.84 810.258C64.84 813.55 67.3516 816.219 70.45 816.219Z" fill="black" stroke="#C06520" stroke-width="2.19" stroke-miterlimit="10"/>
<path d="M76.06 805.721C79.1583 805.721 81.67 803.053 81.67 799.761C81.67 796.469 79.1583 793.8 76.06 793.8C72.9616 793.8 70.45 796.469 70.45 799.761C70.45 803.053 72.9616 805.721 76.06 805.721Z" fill="black" stroke="#C06520" stroke-width="2.19" stroke-miterlimit="10"/>
<path d="M81.6701 816.219C84.7684 816.219 87.2801 813.55 87.2801 810.258C87.2801 806.966 84.7684 804.297 81.6701 804.297C78.5717 804.297 76.0601 806.966 76.0601 810.258C76.0601 813.55 78.5717 816.219 81.6701 816.219Z" fill="black" stroke="#C06520" stroke-width="2.19" stroke-miterlimit="10"/>
</g>
<defs>
<clipPath id="clip0_445_3">
<rect width="91.07" height="154.127" fill="white" transform="translate(131 526)"/>
</clipPath>
<clipPath id="clip1_445_3">
<rect width="250" height="531.253" fill="white" transform="translate(2)"/>
</clipPath>
<clipPath id="clip2_445_3">
<rect width="303.79" height="522.03" fill="white" transform="translate(0 693)"/>
</clipPath>
</defs>
</svg>
