<svg width="474" height="424" viewBox="0 0 474 424" fill="none" xmlns="http://www.w3.org/2000/svg">
<g clip-path="url(#clip0_235_14303)">
<path d="M173.068 198.346C173.068 281.302 239.442 348.552 321.319 348.552C403.195 348.552 469.569 281.302 469.569 198.346C469.569 115.389 403.195 48.1396 321.319 48.1396C239.442 48.1396 173.068 115.389 173.068 198.346Z" fill="black"/>
<mask id="mask0_235_14303" style="mask-type:luminance" maskUnits="userSpaceOnUse" x="229" y="100" width="185" height="196">
<path d="M413.6 225.672C404.107 221.17 397.442 210.635 397.43 198.349C397.442 186.06 404.104 175.524 413.6 171.023C401.939 130.53 365.05 100.937 321.319 100.937C277.587 100.937 240.707 130.527 229.04 171.014C238.548 175.509 245.225 186.051 245.238 198.349C245.225 210.647 238.548 221.189 229.04 225.684C240.704 266.171 277.59 295.761 321.319 295.761C365.047 295.761 401.939 266.168 413.6 225.675V225.672Z" fill="white"/>
</mask>
<g mask="url(#mask0_235_14303)">
<path d="M299.929 452.252L299.929 402.549C302.101 402.154 303.822 400.48 304.318 398.317H315.689L315.689 440.603C315.689 441.151 316.127 441.597 316.67 441.597C317.214 441.597 317.652 441.154 317.652 440.603L317.652 398.317H331.834L331.834 446.457C331.834 447.004 332.272 447.451 332.816 447.451C333.36 447.451 333.798 447.007 333.798 446.457L333.798 398.317H347.808L347.808 445.205C347.808 445.753 348.246 446.2 348.79 446.2C349.333 446.2 349.771 445.756 349.771 445.205L349.771 398.317H379.619V408.73H369.336C365.654 408.73 362.67 411.753 362.667 415.486V445.147C362.667 445.695 363.105 446.141 363.649 446.141C364.192 446.141 364.63 445.698 364.63 445.147V415.486C364.636 412.852 366.738 410.722 369.339 410.719H379.622V440.606C379.622 441.154 380.06 441.6 380.604 441.6C381.148 441.6 381.586 441.157 381.586 440.606V410.193C381.661 410.052 381.715 409.899 381.715 409.727C381.715 409.556 381.661 409.403 381.586 409.262L381.586 369.47H391.452C391.452 369.501 391.449 369.522 391.446 369.559C391.338 371.747 391.301 378.779 391.301 387.689C391.301 409.027 391.516 440.949 391.516 440.952C391.519 441.499 391.963 441.943 392.503 441.937C393.044 441.934 393.482 441.484 393.476 440.936C393.476 440.93 393.464 438.941 393.443 435.615C393.382 425.636 393.262 403.681 393.262 387.689C393.262 382.359 393.274 377.689 393.31 374.351C393.328 372.683 393.349 371.346 393.376 370.431C393.388 370.012 393.403 369.693 393.416 369.47H400.477V372.059C400.477 372.377 400.628 372.677 400.884 372.864C401.138 373.05 401.467 373.102 401.766 373.001C402.5 372.757 403.255 372.628 404.013 372.555V442.448C404.013 442.996 404.451 443.443 404.995 443.443C405.538 443.443 405.976 442.999 405.976 442.448V372.555C406.737 372.628 407.493 372.757 408.226 373.001C408.525 373.102 408.855 373.05 409.108 372.864C409.362 372.677 409.513 372.377 409.513 372.059V364.892C409.513 364.574 409.362 364.274 409.108 364.088C408.855 363.901 408.525 363.849 408.226 363.95C407.178 364.302 406.088 364.476 404.998 364.476C403.908 364.476 402.817 364.302 401.769 363.95C401.47 363.849 401.141 363.901 400.887 364.088C400.634 364.274 400.483 364.574 400.483 364.892V367.481H381.592V359.118L428.404 359.118V367.481L413.05 367.481V364.892C413.05 364.345 412.612 363.898 412.068 363.898C411.524 363.898 411.087 364.342 411.087 364.892V372.059C411.087 372.607 411.524 373.053 412.068 373.053C412.612 373.053 413.05 372.61 413.05 372.059V369.47H415.735C415.735 369.501 415.732 369.522 415.728 369.559C415.62 371.747 415.584 378.779 415.584 387.689C415.584 409.027 415.798 440.949 415.798 440.952C415.801 441.499 416.245 441.943 416.786 441.937C417.326 441.934 417.764 441.484 417.758 440.936C417.758 440.93 417.746 438.941 417.725 435.615C417.664 425.636 417.544 403.681 417.544 387.689C417.544 382.359 417.556 377.689 417.592 374.351C417.61 372.683 417.631 371.346 417.658 370.431C417.67 370.012 417.686 369.693 417.698 369.47L428.404 369.47V439.073C428.404 439.621 428.842 440.067 429.386 440.067C429.929 440.067 430.367 439.624 430.367 439.073V351.361C430.367 347.891 427.592 345.076 424.164 345.076L386.037 345.076C385.63 342.784 383.854 340.985 381.592 340.571V334.409L436.175 334.409V439.07C436.175 439.618 436.613 440.064 437.157 440.064C437.7 440.064 438.138 439.621 438.138 439.07V320.519H443.837V439.07C443.837 439.618 444.275 440.064 444.819 440.064C445.362 440.064 445.8 439.621 445.8 439.07V395.63H454.921C457.023 395.633 458.727 397.359 458.73 399.489V438.804C458.73 439.351 459.168 439.798 459.711 439.798C460.255 439.798 460.693 439.354 460.693 438.804V431.42C461.375 431.398 462.396 431.389 463.58 431.389C467.108 431.389 471.946 431.463 473.196 431.481V438.146C473.196 438.693 473.634 439.14 474.178 439.14C474.721 439.14 475.159 438.697 475.159 438.146V381.055H480.167C482.513 381.058 484.413 382.983 484.416 385.361V437.818C484.416 438.366 484.854 438.813 485.398 438.813C485.941 438.813 486.379 438.369 486.379 437.818V385.361C486.379 381.885 483.601 379.069 480.17 379.069H475.15V365.385H486.059C488.644 365.385 490.979 366.444 492.673 368.16C494.368 369.88 495.413 372.242 495.413 374.862V437.491C495.413 438.039 495.85 438.485 496.394 438.485C496.938 438.485 497.376 438.042 497.376 437.491V399.455H507.904V439.131C507.904 439.679 508.342 440.125 508.885 440.125C509.429 440.125 509.867 439.682 509.867 439.131V344.017C509.867 343.968 509.846 343.928 509.84 343.879V284.105C509.84 283.845 509.734 283.588 509.553 283.405C509.372 283.218 509.118 283.114 508.861 283.114H491.634C489.804 283.111 488.321 281.608 488.318 279.754V271.975H510.945C511.486 271.975 511.927 271.532 511.927 270.981C511.927 270.43 511.489 269.986 510.945 269.986H474.601C474.471 269.922 474.329 269.876 474.172 269.876C474.015 269.876 473.876 269.922 473.743 269.986H455.099V260.253C455.102 258.233 456.715 256.602 458.705 256.599H505.011C505.551 256.599 505.992 256.155 505.992 255.604C505.992 255.054 505.554 254.61 505.011 254.61H458.705C455.631 254.61 453.139 257.134 453.139 260.253V269.986H443.674V246.238C443.958 246.232 444.329 246.226 444.773 246.219C447.579 246.183 453.456 246.17 460.554 246.17C470.321 246.17 482.411 246.195 492.06 246.219C496.883 246.232 501.096 246.244 504.105 246.253C507.113 246.262 508.91 246.268 508.913 246.268C509.453 246.268 509.894 245.828 509.897 245.28C509.897 244.732 509.462 244.286 508.922 244.282C508.922 244.282 508.417 244.282 507.511 244.276V228.193C507.511 227.933 507.406 227.676 507.224 227.492C507.043 227.306 506.789 227.202 506.533 227.202H494.932V211.697H506.533C507.073 211.697 507.514 211.253 507.514 210.702C507.514 210.151 507.076 209.708 506.533 209.708H494.932V202.859C494.932 202.312 494.494 201.865 493.951 201.865C493.407 201.865 492.969 202.308 492.969 202.859V209.708H482.347V206.785C482.347 204.276 482.704 201.779 483.401 199.371L485.232 193.067C485.984 190.478 486.367 187.792 486.367 185.093V180.368H501.87C506.282 180.368 509.861 176.745 509.861 172.271V73.2224C509.861 73.1734 509.84 73.1336 509.834 73.0846V13.3137C509.834 13.0536 509.728 12.7965 509.547 12.6129C509.366 12.4263 509.112 12.3222 508.855 12.3222H491.628C489.798 12.3192 488.315 10.8167 488.312 8.96236V1.18383L510.939 1.18383C511.48 1.18383 511.921 0.740136 511.921 0.189332C511.921 -0.361464 511.483 -0.805167 510.939 -0.805167L474.601 -0.805167C474.471 -0.869429 474.329 -0.915336 474.172 -0.915336C474.015 -0.915336 473.876 -0.869429 473.743 -0.805167H455.099V-10.539C455.102 -12.5586 456.715 -14.1896 458.705 -14.1927L505.011 -14.1927C505.551 -14.1927 505.992 -14.6364 505.992 -15.1872C505.992 -15.738 505.554 -16.1817 505.011 -16.1817L458.705 -16.1817C455.631 -16.1817 453.139 -13.6572 453.139 -10.539V-0.805167H443.674V-24.5538C443.958 -24.5599 444.329 -24.5661 444.773 -24.5722C447.579 -24.6089 453.456 -24.6211 460.554 -24.6211C470.321 -24.6211 482.411 -24.5967 492.06 -24.5722C496.883 -24.5599 501.096 -24.5477 504.105 -24.5385C507.113 -24.5293 508.91 -24.5232 508.913 -24.5232C509.453 -24.5232 509.894 -24.9639 509.897 -25.5116C509.897 -26.0593 509.462 -26.5061 508.922 -26.5092C508.922 -26.5092 508.417 -26.5092 507.511 -26.5153V-42.5986C507.511 -42.8587 507.406 -43.1158 507.224 -43.2994C507.043 -43.486 506.789 -43.5901 506.533 -43.5901H494.932V-59.0951L506.533 -59.0951C507.073 -59.0951 507.514 -59.5388 507.514 -60.0896C507.514 -60.6404 507.076 -61.0841 506.533 -61.0841L494.932 -61.0841V-67.9324C494.932 -68.4801 494.494 -68.9269 493.951 -68.9269C493.407 -68.9269 492.969 -68.4832 492.969 -67.9324V-60.775C492.8 -60.5976 492.694 -60.3589 492.694 -60.0927C492.694 -59.8264 492.8 -59.5878 492.969 -59.4103V-43.2841C492.8 -43.1066 492.694 -42.8679 492.694 -42.6017C492.694 -42.3355 492.8 -42.0968 492.969 -41.9193V-26.5581C489.674 -26.5673 486.071 -26.5765 482.35 -26.5826V-67.9324C482.35 -68.4801 481.912 -68.9269 481.369 -68.9269C480.825 -68.9269 480.387 -68.4832 480.387 -67.9324V-26.5857C476.86 -26.5918 473.266 -26.5979 469.768 -26.601V-67.9324C469.768 -68.4801 469.33 -68.9269 468.787 -68.9269C468.243 -68.9269 467.805 -68.4832 467.805 -67.9324V-26.604C465.301 -26.604 462.858 -26.6071 460.551 -26.6071C459.391 -26.6071 458.271 -26.6071 457.186 -26.6071V-67.9324C457.186 -68.4801 456.748 -68.9269 456.205 -68.9269C455.661 -68.9269 455.223 -68.4832 455.223 -67.9324V-26.604C452.553 -26.604 450.149 -26.5948 448.228 -26.5857C446.664 -26.5765 445.39 -26.5673 444.483 -26.5551C444.16 -26.552 443.901 -26.5459 443.671 -26.5398V-68.4709C443.671 -69.0187 443.233 -69.4654 442.69 -69.4654C442.146 -69.4654 441.708 -69.0217 441.708 -68.4709V-52.9476C440.331 -52.9414 436.755 -52.92 432.267 -52.9017C426.507 -52.8772 419.31 -52.8527 413.554 -52.8527C413.134 -52.8527 412.742 -52.8527 412.337 -52.8527C412.213 -52.9108 412.074 -52.9476 411.929 -52.9476C411.784 -52.9476 411.645 -52.9108 411.521 -52.8527C409.495 -52.8527 407.722 -52.8619 406.363 -52.8741C405.563 -52.8802 404.931 -52.8894 404.454 -52.9017V-68.4709C404.454 -69.0187 404.016 -69.4654 403.473 -69.4654C402.929 -69.4654 402.491 -69.0217 402.491 -68.4709V-0.805167H396.318V-68.4709C396.318 -69.0187 395.88 -69.4654 395.336 -69.4654C394.793 -69.4654 394.355 -69.0217 394.355 -68.4709V-0.805167H387.17V-24.0183C389.517 -24.664 391.253 -26.8152 391.253 -29.3978C391.253 -31.9804 389.517 -34.1316 387.17 -34.7773V-68.4679C387.17 -69.0156 386.732 -69.4624 386.188 -69.4624C385.645 -69.4624 385.207 -69.0187 385.207 -68.4679V-51.8551L378.309 -51.8551V-73.9024C378.309 -74.4502 377.871 -74.8969 377.327 -74.8969C376.783 -74.8969 376.346 -74.4532 376.346 -73.9024V-51.8551H368.85V-73.9024C368.85 -74.4502 368.412 -74.8969 367.868 -74.8969C367.324 -74.8969 366.886 -74.4532 366.886 -73.9024V-52.5467C366.657 -52.3906 366.5 -52.1458 366.464 -51.8551L359.387 -51.8551V-73.9024C359.387 -74.4502 358.949 -74.8969 358.406 -74.8969C357.862 -74.8969 357.424 -74.4532 357.424 -73.9024V-51.8551H350.028C350.013 -51.9775 349.983 -52.0908 349.928 -52.1948V-73.9024C349.928 -74.4502 349.49 -74.8969 348.947 -74.8969C348.403 -74.8969 347.965 -74.4532 347.965 -73.9024V-51.8551H340.469V-73.9024C340.469 -74.4502 340.031 -74.8969 339.488 -74.8969C338.944 -74.8969 338.506 -74.4532 338.506 -73.9024V-51.8551L331.68 -51.8551C331.632 -52.2468 331.369 -52.5589 331.01 -52.6722V-73.9024C331.01 -74.4502 330.572 -74.8969 330.028 -74.8969C329.485 -74.8969 329.047 -74.4532 329.047 -73.9024V-51.8551H321.551V-73.9024C321.551 -74.4502 321.113 -74.8969 320.569 -74.8969C320.026 -74.8969 319.588 -74.4532 319.588 -73.9024V-51.8551L312.092 -51.8551V-73.9024C312.092 -74.4502 311.654 -74.8969 311.11 -74.8969C310.566 -74.8969 310.128 -74.4532 310.128 -73.9024V-51.8551H302.632V-73.9024C302.632 -74.4502 302.195 -74.8969 301.651 -74.8969C301.107 -74.8969 300.669 -74.4532 300.669 -73.9024V-51.8551H293.173V-73.9024C293.173 -74.4502 292.735 -74.8969 292.192 -74.8969C291.648 -74.8969 291.21 -74.4532 291.21 -73.9024V-51.8551H282.165V-73.9024C282.165 -74.4502 281.727 -74.8969 281.183 -74.8969C280.64 -74.8969 280.202 -74.4532 280.202 -73.9024V-40.0741C280.081 -39.9089 279.996 -39.7131 279.996 -39.4927C279.996 -39.2724 280.081 -39.0766 280.202 -38.9113V-30.3892H264.476V-85.1908C264.476 -85.7385 264.038 -86.1853 263.494 -86.1853C262.951 -86.1853 262.513 -85.7416 262.513 -85.1908V-40.6647H256.798V-93.5721H255.624V-40.0068H253.718V-93.5721H252.543V-40.6647H250.239C250.033 -42.6751 248.819 -44.3704 247.101 -45.218V-46.8367C247.101 -49.7284 244.787 -52.0724 241.933 -52.0724H239.007V-93.4987C239.007 -94.0464 238.569 -94.4932 238.025 -94.4932C237.481 -94.4932 237.044 -94.0495 237.044 -93.4987V-52.0724L220.227 -52.0724V-85.1908C220.227 -85.7385 219.789 -86.1853 219.246 -86.1853C218.702 -86.1853 218.264 -85.7416 218.264 -85.1908V-52.0724L198.237 -52.0724V-101.014C198.237 -101.562 197.8 -102.009 197.256 -102.009C196.712 -102.009 196.274 -101.565 196.274 -101.014V-79.8847L146.288 -79.8847V-109.502C146.288 -110.05 145.85 -110.497 145.306 -110.497C144.762 -110.497 144.325 -110.053 144.325 -109.502V-67.6386H138.831C138.29 -67.6386 137.849 -67.1949 137.849 -66.6441C137.849 -66.0933 138.287 -65.6496 138.831 -65.6496H144.325V-52.0693H137.535C136.995 -52.0693 136.554 -51.6256 136.554 -51.0748C136.554 -50.524 136.992 -50.0803 137.535 -50.0803H144.325V-46.2064H138.831C138.29 -46.2064 137.849 -45.7627 137.849 -45.2119C137.849 -44.6611 138.287 -44.2174 138.831 -44.2174H144.325V-30.3801H136.24C135.699 -30.3801 135.258 -29.9364 135.258 -29.3856C135.258 -28.8348 135.696 -28.3911 136.24 -28.3911H144.364C144.457 -27.9412 144.832 -27.5985 145.303 -27.5985C145.774 -27.5985 146.149 -27.9443 146.242 -28.3911L188.935 -28.3911C189.271 -25.5453 191.632 -23.3329 194.532 -23.3329H196.271V-15.3646C196.19 -15.2698 196.123 -15.1566 196.081 -15.0281C195.969 -14.6915 196.063 -14.3457 196.271 -14.0917V-0.792922H176.927V-6.52431C176.927 -12.2557 172.343 -16.9008 166.686 -16.9008L131.924 -16.9008C131.383 -16.9008 130.942 -16.4571 130.942 -15.9063C130.942 -15.3555 131.38 -14.9118 131.924 -14.9118L166.686 -14.9118C168.975 -14.9118 171.041 -13.9754 172.542 -12.4546C174.043 -10.9338 174.967 -8.84073 174.967 -6.52125V-0.789862L129.332 -0.789862C128.792 -0.789862 128.351 -0.34616 128.351 0.204637C128.351 0.755441 128.789 1.19914 129.332 1.19914L297.459 1.19914V12.0101L166.71 12.0101C166.64 11.9948 166.574 11.9673 166.502 11.9673C166.429 11.9673 166.363 11.9948 166.293 12.0101L133.648 12.0101C133.108 12.0101 132.667 12.4538 132.667 13.0046C132.667 13.5554 133.105 13.9991 133.648 13.9991H145.185L145.185 235.372H143.446C140.317 235.372 137.783 237.942 137.783 241.109V241.733C137.783 244.904 140.317 247.471 143.446 247.471H148.885C151.784 247.471 154.143 245.259 154.481 242.413H185.668V269.726C185.668 269.827 185.698 269.922 185.725 270.014H176.927V264.283C176.927 258.551 172.343 253.906 166.686 253.906H131.924C131.383 253.906 130.942 254.35 130.942 254.901C130.942 255.451 131.38 255.895 131.924 255.895H166.686C168.975 255.895 171.041 256.832 172.542 258.352C174.043 259.873 174.967 261.966 174.967 264.286V270.017H129.332C128.792 270.017 128.351 270.461 128.351 271.012C128.351 271.562 128.789 272.006 129.332 272.006L297.459 272.006V282.817L166.71 282.817C166.64 282.802 166.574 282.774 166.502 282.774C166.429 282.774 166.363 282.802 166.293 282.817H133.648C133.108 282.817 132.667 283.261 132.667 283.812C132.667 284.362 133.105 284.806 133.648 284.806H145.185V442.95C145.185 443.498 145.623 443.944 146.167 443.944C146.71 443.944 147.148 443.501 147.148 442.95V399.265H162.337V401.854C162.337 402.172 162.488 402.472 162.741 402.659C162.995 402.846 163.324 402.898 163.623 402.797C164.671 402.445 165.762 402.27 166.852 402.27C167.942 402.27 169.032 402.445 170.08 402.797C170.379 402.898 170.709 402.846 170.962 402.659C171.216 402.472 171.37 402.172 171.37 401.854V399.265H172.947V401.854C172.947 402.402 173.385 402.849 173.928 402.849C174.472 402.849 174.91 402.405 174.91 401.854V399.265H185.674V443.706C185.674 444.253 186.112 444.7 186.655 444.7C187.199 444.7 187.637 444.256 187.637 443.706V440.652H252.214C252.301 440.676 252.386 440.707 252.483 440.707C252.579 440.707 252.664 440.676 252.751 440.652H280.199C280.208 441.193 280.64 441.631 281.177 441.631C281.715 441.631 282.159 441.187 282.159 440.637L282.159 398.35H293.53C294.025 400.511 295.746 402.185 297.918 402.582L297.918 452.286C297.918 452.834 298.356 453.28 298.9 453.28C299.443 453.28 299.881 452.837 299.881 452.286L299.929 452.252ZM407.535 366.15V370.795C407.012 370.682 406.487 370.608 405.958 370.566C405.632 370.538 405.306 370.486 404.98 370.486C404.654 370.486 404.327 370.538 403.998 370.566C403.47 370.608 402.944 370.682 402.422 370.795V366.15C403.267 366.334 404.119 366.459 404.977 366.459C405.834 366.459 406.689 366.334 407.532 366.15H407.535ZM494.929 -41.6041H505.548V-26.5183C503.057 -26.5275 499.339 -26.5367 494.929 -26.5489V-41.6041ZM295.623 398.317C295.475 397.922 295.384 397.5 295.384 397.05C295.384 396.802 295.411 396.563 295.457 396.331C295.789 394.681 297.223 393.442 298.948 393.439C300.672 393.439 302.107 394.681 302.439 396.331C302.484 396.563 302.512 396.805 302.512 397.05C302.512 397.497 302.421 397.922 302.273 398.317C301.766 399.681 300.473 400.658 298.948 400.661C297.423 400.661 296.13 399.681 295.623 398.317ZM304.399 396.331C304.088 393.91 302.276 391.983 299.926 391.554V362.613H347.799V372.129C347.799 373.797 346.461 375.149 344.815 375.153H325.066C319.887 375.153 315.689 379.406 315.689 384.654V396.331H304.399ZM187.688 408.528V395.248H226.866C234.005 395.248 239.792 389.385 239.795 382.148V376.943C239.867 376.805 239.919 376.655 239.919 376.487C239.919 376.318 239.867 376.168 239.795 376.031V360.324C239.867 360.186 239.919 360.036 239.919 359.868C239.919 359.7 239.867 359.55 239.795 359.412V354.4C239.795 353.43 239.882 352.634 240.067 352.025C240.36 351.113 240.761 350.602 241.652 350.155C242.549 349.718 244.014 349.455 246.167 349.458H271.241C272.549 353.396 276.022 356.281 280.247 356.679V360.333H255.624C254.062 360.333 252.797 361.615 252.794 363.2V375.428C252.597 375.608 252.471 375.862 252.471 376.15C252.471 376.444 252.597 376.701 252.794 376.881V388.222C252.794 393.831 250.553 398.898 246.926 402.576C243.295 406.251 238.294 408.522 232.758 408.522H187.688V408.528ZM187.688 377.481L237.835 377.481V382.148C237.835 385.22 236.609 387.992 234.621 390.006C232.634 392.019 229.898 393.262 226.866 393.262H187.688V377.481ZM174.964 319.222C174.964 318.674 174.526 318.227 173.983 318.227C173.439 318.227 173.001 318.671 173.001 319.222V321.811H171.424V319.222C171.424 318.904 171.273 318.604 171.017 318.417C170.763 318.23 170.434 318.178 170.135 318.279C169.289 318.564 168.416 318.702 167.537 318.757V284.775H207.244V295.828H192.27C188.654 295.828 185.722 298.796 185.722 302.462V321.814H174.958V319.225L174.964 319.222ZM164.354 325.128V320.483C165.2 320.666 166.052 320.792 166.909 320.792C167.767 320.792 168.622 320.666 169.464 320.483V325.128C168.619 324.944 167.767 324.819 166.909 324.819C166.052 324.819 165.197 324.944 164.354 325.128ZM297.519 310.847V314.341C297.519 316.991 298.903 319.295 300.968 320.605C298.984 321.722 297.628 323.839 297.628 326.303V345.073H291.709C291.237 339.956 287.257 335.923 282.207 335.446V310.847H297.519ZM198.289 247.45H200.028C202.928 247.45 205.287 245.237 205.625 242.391H218.101V255.145C214.196 255.161 210.074 255.173 206.516 255.173C203.9 255.173 201.593 255.167 199.92 255.152C199.258 255.145 198.733 255.139 198.289 255.13V247.453V247.45ZM187.688 127.442V124.45H226.866C234.005 124.45 239.792 118.587 239.795 111.35V106.145C239.867 106.007 239.919 105.857 239.919 105.689C239.919 105.521 239.867 105.371 239.795 105.233L239.795 89.526C239.867 89.3883 239.919 89.2384 239.919 89.0701C239.919 88.9018 239.867 88.7518 239.795 88.6141V83.6019C239.795 82.6318 239.882 81.8362 240.067 81.2273C240.36 80.3154 240.761 79.8044 241.652 79.3577C242.549 78.9201 244.014 78.6569 246.167 78.66H271.241C272.549 82.5982 276.022 85.4838 280.247 85.8816V89.5352L255.624 89.5352C254.062 89.5352 252.797 90.8173 252.794 92.4024L252.794 104.63C252.597 104.811 252.471 105.065 252.471 105.352C252.471 105.646 252.597 105.903 252.794 106.084V117.424C252.794 123.033 250.553 128.1 246.926 131.779C243.295 135.454 238.294 137.724 232.758 137.724H187.688V127.436V127.442ZM174.964 48.4241C174.964 47.8764 174.526 47.4296 173.983 47.4296C173.439 47.4296 173.001 47.8733 173.001 48.4241V51.0129H171.424V48.4241C171.424 48.1059 171.273 47.806 171.017 47.6193C170.763 47.4327 170.434 47.3807 170.135 47.4816C169.289 47.7662 168.416 47.9039 167.537 47.959V13.9777H207.244V25.0304H192.27C188.654 25.0304 185.722 27.9986 185.722 31.6645V51.0159H174.958V48.4272L174.964 48.4241ZM164.354 54.3299V49.6848C165.2 49.8684 166.052 49.9939 166.909 49.9939C167.767 49.9939 168.622 49.8684 169.464 49.6848V54.3299C168.619 54.1463 167.767 54.0208 166.909 54.0208C166.052 54.0208 165.197 54.1463 164.354 54.3299ZM297.519 40.0519V43.5465C297.519 46.1964 298.903 48.5006 300.968 49.8103C298.984 50.9272 297.628 53.0447 297.628 55.508V74.278H291.709C291.237 69.1617 287.257 65.1287 282.207 64.6513V40.0519H297.519ZM222.649 -15.6706H222.604C221.792 -15.6676 220.922 -15.6645 220.064 -15.6615V-28.4064H237.095V-0.808219H233.443V-4.73114C233.443 -10.7777 228.611 -15.6737 222.649 -15.6737V-15.6706ZM196.329 -25.3341H194.589C192.774 -25.3372 191.273 -26.6591 190.956 -28.4064C190.917 -28.6267 190.886 -28.8531 190.886 -29.0857V-29.7099C190.886 -29.9425 190.914 -30.1689 190.956 -30.3892C191.276 -32.1334 192.774 -33.4554 194.589 -33.4615H200.028C201.844 -33.4584 203.345 -32.1365 203.662 -30.3892C203.701 -30.1689 203.731 -29.9425 203.731 -29.7099V-29.0857C203.731 -28.8531 203.704 -28.6267 203.662 -28.4064C203.342 -26.6622 201.841 -25.3372 200.028 -25.3341H196.329ZM247.146 -42.8557C247.762 -42.2957 248.185 -41.5338 248.321 -40.6678C248.351 -40.475 248.381 -40.2822 248.381 -40.0803V-39.456C248.381 -39.1898 248.351 -38.9328 248.3 -38.6818C248.134 -37.8924 247.717 -37.2008 247.146 -36.6806C246.611 -36.191 245.935 -35.8636 245.186 -35.7565C245.02 -35.732 244.854 -35.7045 244.679 -35.7045H239.239C239.176 -35.7045 239.118 -35.7198 239.055 -35.7228C238.324 -35.7626 237.654 -36.0043 237.095 -36.4083C236.355 -36.9438 235.814 -37.7455 235.618 -38.6818C235.567 -38.9328 235.536 -39.1898 235.536 -39.456V-40.0803C235.536 -40.2822 235.567 -40.475 235.597 -40.6678C235.757 -41.6806 236.307 -42.5558 237.095 -43.128C237.654 -43.5319 238.324 -43.7767 239.055 -43.8135C239.118 -43.8165 239.176 -43.8318 239.239 -43.8318H244.679C244.854 -43.8318 245.02 -43.8012 245.186 -43.7798C245.935 -43.6727 246.611 -43.3453 247.146 -42.8557ZM289.338 -0.805167V-28.0055H297.251V-0.805167H289.338ZM287.378 -28.0055V-0.805167H282.207V-14.3824C282.28 -14.4711 282.343 -14.5721 282.382 -14.6884C282.491 -15.0189 282.406 -15.3524 282.207 -15.6064V-28.0024H287.378V-28.0055ZM239.052 -0.805167V-6.13875L280.244 -6.13875V-0.805167L239.052 -0.805167ZM245.077 -28.4033V-25.0067C245.077 -18.9601 249.909 -14.0641 255.871 -14.0641H255.917C260.936 -14.0856 267.004 -14.107 271.963 -14.107C274.587 -14.107 276.904 -14.1009 278.586 -14.0856C279.259 -14.0794 279.797 -14.0703 280.244 -14.0641V-8.12469L239.052 -8.12469V-28.4033H245.077ZM280.247 -28.4033V-16.0501C278.625 -16.0807 275.596 -16.0929 271.966 -16.0929C267.001 -16.0929 260.93 -16.0715 255.917 -16.0501H255.874C253.431 -16.0501 251.229 -17.0507 249.629 -18.6725C248.028 -20.2974 247.043 -22.5281 247.04 -25.0067V-27.6903C247.104 -27.8219 247.149 -27.9657 247.149 -28.1248V-28.4064L280.247 -28.4064V-28.4033ZM239.052 -30.3892V-33.7338C239.115 -33.7338 239.173 -33.7155 239.236 -33.7155H244.675C244.851 -33.7155 245.014 -33.7522 245.183 -33.7675V-30.3892H239.049H239.052ZM226.256 -38.6818H233.652C233.93 -36.6255 235.259 -34.9119 237.095 -34.15V-30.3923H220.279V-41.5154C221.725 -39.7957 223.851 -38.6818 226.256 -38.6818ZM299.211 -0.805167V-28.0055L305.622 -28.0055C309.026 -27.9994 311.777 -25.2087 311.784 -21.7631V-10.9429C308.289 -10.4533 305.589 -7.44842 305.589 -3.77336V-0.808219L299.211 -0.808219V-0.805167ZM318.18 9.43053H312.762C309.881 9.42442 307.552 7.06516 307.546 4.14592V-3.77336C307.552 -6.6926 309.881 -9.05186 312.762 -9.05799H320.578C320.865 -9.05799 321.14 -9.01821 321.415 -8.9723C323.894 -8.56227 325.788 -6.4019 325.794 -3.77336V4.14592C325.788 6.77446 323.894 8.93176 321.415 9.34486C321.206 9.37852 320.992 9.40299 320.775 9.41217C320.708 9.41217 320.645 9.43359 320.578 9.43359H318.18V9.43053ZM385.222 -11.9344V-0.805167H357.509C352.148 -0.805167 347.802 3.59817 347.802 9.02966V25.0732L334.873 25.0518V-9.11919C334.873 -10.6737 336.117 -11.9313 337.651 -11.9344L385.225 -11.9344H385.222ZM507.874 63.2498V77.4757H480.13C479.693 75.0063 477.66 73.1244 475.15 72.9164V63.2467H507.874V63.2498ZM474.706 82.0811C474.163 82.0811 473.652 81.9464 473.193 81.7261C471.985 81.1477 471.145 79.9146 471.142 78.4702C471.142 77.0259 471.985 75.7928 473.193 75.2144C473.655 74.9941 474.163 74.8594 474.706 74.8594C474.86 74.8594 475.005 74.887 475.153 74.9054C476.576 75.0889 477.726 76.111 478.116 77.4757C478.207 77.794 478.27 78.1214 478.27 78.4702C478.27 78.816 478.207 79.1465 478.116 79.4647C477.726 80.8295 476.576 81.8516 475.153 82.0351C475.005 82.0535 474.86 82.0811 474.706 82.0811ZM473.19 73.1122C470.88 73.7823 469.179 75.9121 469.179 78.4702C469.179 81.0253 470.88 83.1582 473.19 83.8283V92.6044L461.119 92.6044V63.2498L473.19 63.2498V73.1122ZM495.413 127.666V161.219C495.409 163.694 493.431 165.699 490.988 165.702H486.367V114.563C486.367 111.087 483.589 108.272 480.158 108.272H475.15V94.5873H486.059C488.644 94.5873 490.979 95.646 492.673 97.3627C494.368 99.0824 495.413 101.445 495.413 104.064L495.413 127.663V127.666ZM410.954 265.488C408.692 265.901 406.916 267.701 406.508 269.993H404.46V219.836H410.954V265.491V265.488ZM363.987 309.776V345.471C363.86 345.639 363.773 345.838 363.773 346.064C363.773 346.291 363.86 346.493 363.987 346.658V360.624H349.762V309.751C351.749 309.751 356.917 309.76 363.987 309.77V309.776ZM380.592 342.456C380.933 342.456 381.259 342.521 381.573 342.612C382.748 342.955 383.663 343.882 384.002 345.073C384.092 345.391 384.156 345.718 384.156 346.067C384.156 346.413 384.092 346.744 384.002 347.062C383.663 348.252 382.748 349.179 381.573 349.522C381.259 349.614 380.936 349.678 380.592 349.678C380.251 349.678 379.924 349.614 379.61 349.522C378.124 349.087 377.028 347.717 377.025 346.067C377.025 344.421 378.121 343.047 379.61 342.612C379.924 342.521 380.248 342.456 380.592 342.456ZM317.649 386.756V384.654C317.649 382.576 318.476 380.703 319.82 379.339C321.164 377.977 323.013 377.138 325.066 377.138H344.815C347.545 377.138 349.759 374.896 349.759 372.129V362.613H363.984V386.756H317.646H317.649ZM282.207 356.685C287.257 356.208 291.237 352.175 291.709 347.059H315.764C318.884 347.059 321.415 344.497 321.415 341.333V321.743H323.469C323.804 324.589 326.166 326.801 329.065 326.801H329.892V360.627H282.207V356.685ZM230.396 310.847V314.748C226.742 315.204 223.876 318.108 223.426 321.811H187.688V310.847H230.396ZM231.378 316.636C234.404 316.642 236.893 318.882 237.367 321.814C237.418 322.138 237.466 322.465 237.466 322.808C237.466 323.148 237.418 323.475 237.367 323.803C236.893 326.734 234.404 328.974 231.378 328.98C228.352 328.974 225.863 326.734 225.389 323.803C225.337 323.478 225.289 323.151 225.289 322.808C225.289 322.469 225.337 322.141 225.389 321.814C225.863 318.882 228.352 316.642 231.378 316.636ZM232.359 330.859C236.011 330.403 238.88 327.496 239.327 323.797H280.244V334.17H235.062C233.573 334.17 232.362 332.94 232.359 331.425C232.359 331.217 232.359 331.04 232.359 330.859ZM272.606 346.067C272.606 343.653 273.569 341.474 275.131 339.892C276.475 338.534 278.263 337.664 280.247 337.435C280.573 337.398 280.89 337.334 281.229 337.334C281.567 337.334 281.884 337.395 282.21 337.435C284.194 337.664 285.982 338.534 287.326 339.892C288.667 341.254 289.525 343.065 289.751 345.076C289.788 345.406 289.851 345.728 289.851 346.07C289.851 346.41 289.791 346.734 289.751 347.065C289.525 349.075 288.667 350.887 287.326 352.248C285.762 353.83 283.614 354.807 281.232 354.807C278.849 354.807 276.698 353.83 275.137 352.248C273.575 350.663 272.612 348.488 272.612 346.073L272.606 346.067ZM334.504 316.688C336.319 316.691 337.82 318.013 338.137 319.76C338.177 319.981 338.207 320.207 338.207 320.44V321.064C338.207 321.297 338.18 321.523 338.137 321.743C337.817 323.487 336.316 324.812 334.504 324.816H329.065C327.25 324.812 325.749 323.491 325.432 321.743C325.392 321.523 325.362 321.297 325.362 321.064V320.44C325.362 320.207 325.389 319.981 325.432 319.76C325.752 318.016 327.253 316.691 329.065 316.688H334.504ZM331.849 360.627V326.801H334.504C337.404 326.801 339.762 324.589 340.101 321.743H347.802V360.627H331.849ZM373.247 307.802C366.159 307.793 360.061 307.787 355.736 307.781C352.906 307.777 350.858 307.774 349.762 307.771V297.86L403.998 297.949V300.541C403.998 300.859 404.149 301.159 404.403 301.345C404.657 301.532 404.986 301.584 405.285 301.483C406.333 301.131 407.423 300.957 408.513 300.957C409.604 300.957 410.694 301.131 411.742 301.483C412.041 301.584 412.37 301.532 412.624 301.345C412.877 301.159 413.028 300.859 413.028 300.541V293.374C413.028 293.056 412.877 292.756 412.621 292.569C412.367 292.383 412.038 292.331 411.739 292.432C410.691 292.783 409.601 292.958 408.51 292.958C407.42 292.958 406.33 292.783 405.282 292.432C404.983 292.331 404.654 292.383 404.4 292.569C404.146 292.756 403.995 293.056 403.995 293.374V295.963L387.1 295.935V271.979H406.508C406.928 274.338 408.8 276.165 411.159 276.504V279.76C411.159 282.713 413.521 285.106 416.435 285.106L428.842 285.106V295.966L416.568 295.966V293.377C416.568 292.829 416.13 292.383 415.587 292.383C415.043 292.383 414.605 292.826 414.605 293.377V300.544C414.605 301.091 415.043 301.538 415.587 301.538C416.13 301.538 416.568 301.094 416.568 300.544V297.955L456.64 297.955V302.251C456.64 305.311 454.214 307.79 451.197 307.802C444.638 307.829 433.705 307.839 421.373 307.839C405.551 307.839 387.421 307.823 373.247 307.808V307.802ZM318.18 280.228H312.762C309.881 280.222 307.552 277.863 307.546 274.944V267.024C307.552 264.105 309.881 261.746 312.762 261.74H320.578C320.865 261.74 321.14 261.78 321.415 261.825C323.894 262.235 325.788 264.396 325.794 267.024V274.944C325.788 277.572 323.894 279.729 321.415 280.143C321.206 280.176 320.992 280.201 320.775 280.21C320.708 280.21 320.645 280.231 320.578 280.231H318.18V280.228ZM313.744 249.035C313.744 244.487 310.107 240.806 305.622 240.806H282.207V232.296H329.775V240.405H326.984C322.825 240.405 319.452 243.82 319.452 248.037V259.754H313.741V249.035H313.744ZM222.649 255.127H222.604C221.792 255.13 220.922 255.133 220.064 255.136V242.391L237.095 242.391V269.99L233.443 269.99V266.067C233.443 260.02 228.611 255.124 222.649 255.124V255.127ZM198.289 245.464H194.589C192.774 245.461 191.273 244.139 190.956 242.391C190.917 242.171 190.886 241.945 190.886 241.712V241.088C190.886 240.855 190.914 240.629 190.956 240.408C191.276 238.664 192.777 237.339 194.589 237.336H200.028C201.844 237.339 203.345 238.664 203.662 240.408C203.701 240.629 203.731 240.855 203.731 241.088V241.712C203.731 241.945 203.704 242.171 203.662 242.391C203.342 244.136 201.841 245.461 200.028 245.464H198.289ZM198.289 180.341C198.289 180.341 198.292 180.341 198.295 180.341H218.319V218.719H198.292V180.341H198.289ZM254.754 117.433V106.365C256.946 106.377 261.613 106.402 266.39 106.417V124.162C266.39 132.06 263.234 139.199 258.127 144.377C253.017 149.551 245.971 152.749 238.176 152.749L220.279 152.749V139.716H232.758C244.905 139.716 254.754 129.741 254.754 117.43V117.433ZM254.754 92.4085C254.754 91.922 255.143 91.5303 255.621 91.5303L280.244 91.5303V104.391C280.141 104.398 279.927 104.407 279.604 104.413C278.42 104.437 276.07 104.447 273.255 104.447C269.254 104.447 264.304 104.428 260.353 104.41C257.976 104.398 255.98 104.388 254.754 104.379L254.754 92.4085ZM282.207 85.8908C287.257 85.4134 291.237 81.3803 291.709 76.264H315.764C318.884 76.264 321.415 73.7028 321.415 70.5387V50.9486H323.469C323.804 53.7944 326.166 56.0068 329.065 56.0068H329.892V89.832H282.207V85.8908ZM230.396 40.0519V43.9535C226.742 44.4094 223.876 47.3133 223.426 51.0159H187.688V40.0519H230.396ZM231.378 45.8384C234.404 45.8445 236.893 48.0844 237.367 51.0159C237.418 51.3403 237.466 51.6677 237.466 52.0104C237.466 52.3501 237.418 52.6775 237.367 53.0049C236.893 55.9364 234.404 58.1763 231.378 58.1824C228.352 58.1763 225.863 55.9364 225.389 53.0049C225.337 52.6806 225.289 52.3532 225.289 52.0104C225.289 51.6708 225.337 51.3433 225.389 51.0159C225.863 48.0844 228.352 45.8445 231.378 45.8384ZM232.359 60.0644C236.011 59.6084 238.88 56.7014 239.327 53.0019L280.244 53.0019V63.3753L235.062 63.3753C233.573 63.3753 232.362 62.1451 232.359 60.6305C232.359 60.4224 232.359 60.2449 232.359 60.0644ZM272.606 75.2695C272.606 72.8552 273.569 70.6764 275.131 69.0944C276.475 67.7358 278.263 66.8667 280.247 66.6372C280.573 66.6005 280.89 66.5362 281.229 66.5362C281.567 66.5362 281.884 66.5974 282.21 66.6372C284.194 66.8667 285.982 67.7358 287.326 69.0944C288.667 70.4561 289.525 72.2676 289.751 74.278C289.788 74.6085 289.851 74.9298 289.851 75.2726C289.851 75.6122 289.791 75.9366 289.751 76.267C289.525 78.2775 288.667 80.089 287.326 81.4507C285.762 83.0327 283.614 84.0089 281.232 84.0089C278.849 84.0089 276.698 83.0327 275.137 81.4507C273.575 79.8656 272.612 77.6899 272.612 75.2756L272.606 75.2695ZM363.987 38.9779V74.275H349.762V38.9595C351.749 38.9595 356.917 38.9687 363.987 38.9779ZM459.158 63.2498V76.9341H445.794V63.2498H459.158ZM445.794 92.6044V78.9201H459.158V92.6044H445.794ZM443.834 62.2584L443.834 165.705H438.135L438.135 49.7216H443.834V62.2584ZM473.19 110.261L473.19 142.739C471.894 142.718 467.098 142.648 463.574 142.648C462.547 142.648 461.629 142.654 460.931 142.669C460.832 142.669 460.774 142.675 460.684 142.678V128.694C460.684 125.466 458.101 122.849 454.915 122.849H445.794V110.264L473.19 110.264V110.261ZM404.717 195.384C403.207 197.214 402.603 199.548 402.53 201.874H396.327V186.586H409.431C412.992 186.605 415.239 185.277 416.423 183.581C417.19 182.492 417.51 181.351 417.658 180.377L436.915 180.377C437.619 180.543 438.383 180.824 439.065 181.298C440.455 182.278 441.69 183.967 441.711 187.62V192.198L412.497 192.198C408.924 192.186 406.321 193.431 404.714 195.387L404.717 195.384ZM402.5 269.993H396.327V203.86H402.5V269.993ZM411.935 267.373C412.276 267.373 412.603 267.437 412.917 267.529C414.092 267.872 415.007 268.799 415.345 269.99C415.436 270.308 415.499 270.635 415.499 270.984C415.499 271.33 415.436 271.66 415.345 271.979C415.025 273.098 414.197 273.986 413.122 274.374C412.751 274.509 412.355 274.595 411.935 274.598C411.669 274.598 411.41 274.561 411.162 274.506C409.888 274.218 408.885 273.239 408.525 271.979C408.435 271.66 408.371 271.333 408.371 270.984C408.371 270.638 408.435 270.308 408.525 269.99C408.864 268.799 409.779 267.872 410.954 267.529C411.268 267.437 411.591 267.373 411.935 267.373ZM428.842 271.979V283.117L416.435 283.117C414.605 283.114 413.122 281.611 413.119 279.757V276.446C415.285 275.966 416.964 274.2 417.359 271.979L428.842 271.979ZM387.182 246.779C389.529 246.134 391.265 243.983 391.265 241.4C391.265 238.817 389.529 236.666 387.182 236.02V203.86H394.367V269.993H387.182V246.779ZM280.247 262.67H239.055V242.391H245.08V245.788C245.08 251.835 249.912 256.731 255.874 256.731H255.92C260.939 256.709 267.007 256.688 271.966 256.688C274.59 256.688 276.907 256.694 278.589 256.709C279.262 256.715 279.8 256.724 280.247 256.731V262.67ZM220.279 240.405V230.127C220.454 230.289 220.611 230.47 220.804 230.607C222.29 231.675 224.211 232.113 226.256 232.116L233.652 232.116C233.93 234.172 235.259 235.886 237.095 236.648V240.405L220.279 240.405ZM239.013 154.692C255.285 154.239 268.348 140.76 268.348 124.162V106.423C270.048 106.426 271.721 106.429 273.255 106.429C275.258 106.429 277.027 106.426 278.317 106.414C278.963 106.408 279.489 106.402 279.869 106.393C280.023 106.39 280.135 106.384 280.244 106.381V139.906H280.153C264.705 139.906 252.15 152.323 251.601 167.838H239.049V154.891C239.049 154.82 239.022 154.759 239.01 154.692H239.013ZM363.987 76.2609V89.829H349.762V76.2609H363.987ZM381.57 63.6109H436.175L436.175 165.705H430.346L430.346 80.5602C430.346 77.0902 427.571 74.275 424.143 74.275H386.016C385.608 71.9831 383.833 70.1838 381.57 69.7707V63.6078V63.6109ZM415.78 170.148V178.202H389.858C386.934 178.208 384.878 177.734 383.621 176.592C382.981 176.017 382.486 175.255 382.126 174.153C381.77 173.055 381.57 171.626 381.573 169.805V156.58H391.368C391.386 159.646 391.401 162.213 391.413 163.979C391.425 166.038 393.083 167.691 395.11 167.688H415.768C415.777 169.251 415.783 170.145 415.783 170.145L415.78 170.148ZM385.222 235.855C382.745 236.094 380.749 237.96 380.314 240.405H368.421V220.925H376.817C376.971 221.026 377.143 221.103 377.342 221.103C377.542 221.103 377.714 221.029 377.868 220.925H385.222V235.855ZM385.222 244.956C383.833 244.748 382.715 243.735 382.332 242.391C382.241 242.073 382.178 241.746 382.178 241.397C382.178 241.051 382.241 240.721 382.332 240.402C382.715 239.059 383.83 238.046 385.222 237.838C385.394 237.814 385.563 237.786 385.741 237.783C386.255 237.783 386.741 237.899 387.182 238.098C388.429 238.661 389.302 239.919 389.305 241.394C389.305 242.866 388.429 244.126 387.182 244.689C386.741 244.888 386.255 245.005 385.741 245.005C385.563 245.005 385.394 244.977 385.222 244.95V244.956ZM350.079 240.405V220.925H357.907C358.062 221.026 358.234 221.103 358.433 221.103C358.632 221.103 358.804 221.029 358.958 220.925H366.464V240.405H350.079ZM247.146 240.405V236.483C248.81 235.659 250.003 234.047 250.263 232.113H262.558V240.402H247.146V240.405ZM349.762 101.331V91.8149H363.987V115.958H317.649V113.856C317.649 111.778 318.476 109.906 319.82 108.541C321.164 107.179 323.013 106.341 325.066 106.341H344.815C347.545 106.341 349.759 104.098 349.759 101.331H349.762ZM363.987 117.947V125.536H317.649V117.947H363.987ZM381.57 88.3173H428.383V96.6803H413.028V94.0915C413.028 93.5438 412.591 93.097 412.047 93.097C411.503 93.097 411.065 93.5407 411.065 94.0915V101.258C411.065 101.806 411.503 102.253 412.047 102.253C412.591 102.253 413.028 101.809 413.028 101.258V98.6693H415.713C415.713 98.6999 415.71 98.7213 415.707 98.758C415.599 100.946 415.562 107.978 415.562 116.889C415.562 133.385 415.692 156.2 415.75 165.705H395.104C394.143 165.705 393.373 164.934 393.367 163.967C393.355 162.204 393.34 159.64 393.322 156.58H398.357C402.497 156.58 405.868 153.205 405.916 149.009L405.952 145.934C405.952 145.934 405.952 145.931 405.952 145.928C405.952 145.925 405.952 145.925 405.952 145.922V101.751C406.713 101.824 407.468 101.953 408.202 102.197C408.501 102.298 408.83 102.246 409.084 102.06C409.338 101.873 409.489 101.573 409.489 101.255V94.0885C409.489 93.7703 409.338 93.4704 409.084 93.2837C408.83 93.097 408.501 93.045 408.202 93.146C407.154 93.4979 406.064 93.6723 404.974 93.6723C403.883 93.6723 402.793 93.4979 401.745 93.146C401.446 93.045 401.117 93.097 400.863 93.2837C400.61 93.4704 400.459 93.7703 400.459 94.0885V96.6773H381.567V88.3143L381.57 88.3173ZM380.592 71.6587C380.933 71.6587 381.259 71.7229 381.573 71.8147C382.748 72.1575 383.663 73.0846 384.002 74.275C384.092 74.5932 384.156 74.9207 384.156 75.2695C384.156 75.6153 384.092 75.9458 384.002 76.264C383.663 77.4543 382.748 78.3815 381.573 78.7242C381.259 78.816 380.936 78.8803 380.592 78.8803C380.251 78.8803 379.924 78.816 379.61 78.7242C378.124 78.2897 377.028 76.9188 377.025 75.2695C377.025 73.6232 378.121 72.2493 379.61 71.8147C379.924 71.7229 380.248 71.6587 380.592 71.6587ZM381.57 80.7652C383.833 80.3521 385.608 78.5529 386.016 76.2609H424.143C426.486 76.264 428.38 78.1857 428.386 80.5602V86.3314H381.573V80.7652H381.57ZM407.535 95.3523V99.9973C407.012 99.8841 406.487 99.8107 405.958 99.7679C405.632 99.7403 405.306 99.6883 404.98 99.6883C404.654 99.6883 404.327 99.7403 403.998 99.7679C403.47 99.8107 402.944 99.8841 402.422 99.9973V95.3523C403.267 95.5359 404.119 95.6613 404.977 95.6613C405.834 95.6613 406.689 95.5359 407.532 95.3523H407.535ZM393.328 98.6693H400.462V101.258C400.462 101.576 400.613 101.876 400.869 102.063C401.123 102.25 401.452 102.302 401.751 102.201C402.485 101.956 403.24 101.827 403.998 101.754V145.922L403.962 148.985C403.926 152.091 401.428 154.591 398.363 154.591H393.316C393.252 143.89 393.177 128.143 393.177 115.989C393.177 110.912 393.189 106.469 393.225 103.29C393.243 101.702 393.265 100.429 393.292 99.5598C393.304 99.1711 393.319 98.8743 393.331 98.6663L393.328 98.6693ZM391.365 98.6693C391.365 98.6907 391.365 98.703 391.362 98.7244C391.253 100.814 391.217 107.51 391.217 115.995C391.217 128.152 391.295 143.893 391.356 154.597H381.573V144.429C384.156 143.957 386.116 141.684 386.119 138.933C386.119 136.182 384.156 133.905 381.573 133.437V98.6754H391.365V98.6693ZM383.854 179.111C385.527 179.934 387.532 180.185 389.858 180.188H394.367V184.658C392.262 184.793 390.142 185.35 388.429 186.751C386.445 188.37 385.17 191.063 385.183 194.897V201.874H378.321L378.321 192.697C378.321 189.206 375.527 186.375 372.081 186.375H355.075L362.987 176.696C364.038 175.411 364.615 173.792 364.615 172.125V156.58H379.604V169.805C379.604 171.767 379.813 173.401 380.257 174.771C380.909 176.828 382.171 178.294 383.848 179.111H383.854ZM340.496 218.94L340.496 197.884H347.992L347.992 218.94H340.496ZM331.711 218.94C331.662 218.548 331.4 218.236 331.04 218.123L331.04 197.884H338.536L338.536 218.94H331.711ZM321.584 218.94L321.584 197.884H329.08L329.08 218.94H321.584ZM312.125 218.94L312.125 197.884H319.621L319.621 218.94H312.125ZM302.669 218.94L302.669 197.884H310.165L310.165 218.94H302.669ZM293.213 218.94L293.213 197.884H300.709L300.709 218.94H293.213ZM317.649 169.805V127.519H331.831V148.918C331.831 153.15 335.217 156.577 339.391 156.577H347.799V172.415C347.799 173.003 347.328 173.48 346.748 173.48H317.649V169.802V169.805ZM347.802 127.522V154.594H339.394C336.301 154.588 333.801 152.054 333.794 148.921V127.522H347.805H347.802ZM380.592 135.316C380.933 135.316 381.259 135.38 381.573 135.472C383.059 135.906 384.156 137.28 384.159 138.927C384.159 140.573 383.062 141.947 381.573 142.381C381.259 142.473 380.936 142.537 380.592 142.537C380.251 142.537 379.924 142.473 379.61 142.381C378.436 142.039 377.52 141.111 377.182 139.921C377.092 139.603 377.028 139.275 377.028 138.927C377.028 138.581 377.092 138.25 377.182 137.932C377.52 136.742 378.439 135.815 379.61 135.472C379.924 135.38 380.248 135.316 380.592 135.316ZM375.165 139.921C375.572 142.213 377.348 144.012 379.61 144.425V154.594H364.621V144.689C364.627 142.054 366.729 139.924 369.33 139.921L375.168 139.921H375.165ZM362.661 156.58V172.125C362.661 173.333 362.244 174.502 361.486 175.432L352.538 186.378H321.931C319.57 186.375 317.658 184.438 317.652 182.042V175.472H346.751C348.415 175.472 349.762 174.107 349.762 172.421V156.583H362.661V156.58ZM315.689 175.469V182.039C315.689 185.53 318.482 188.361 321.928 188.361H350.91L349.617 189.94C348.566 191.225 347.989 192.844 347.989 194.515V195.901H312.122V176.537C312.122 175.95 312.593 175.472 313.173 175.472H315.686L315.689 175.469ZM366.908 206.256V218.248C366.678 218.404 366.521 218.649 366.485 218.94H359.409L359.409 201.195C359.409 198.269 357.071 195.901 354.184 195.901H349.952V194.515C349.952 193.306 350.369 192.137 351.127 191.207L353.453 188.361H372.081C374.443 188.364 376.355 190.301 376.361 192.697L376.361 201.874H371.229C368.84 201.874 366.905 203.835 366.905 206.256H366.908ZM350.055 218.94C350.04 218.817 350.01 218.704 349.952 218.6L349.952 197.887H354.184C355.987 197.89 357.445 199.368 357.448 201.195L357.448 218.94H350.052H350.055ZM368.868 218.94V206.256C368.868 204.934 369.928 203.863 371.232 203.86H376.364V218.94H368.868ZM379.61 133.431C377.348 133.844 375.572 135.643 375.165 137.935L369.327 137.935C365.645 137.935 362.661 140.959 362.658 144.692V154.597H349.759V127.525L379.607 127.525V133.434L379.61 133.431ZM315.689 169.805V173.483H313.176C311.512 173.483 310.165 174.848 310.165 176.534V195.898H282.66C282.494 195.898 282.343 195.95 282.204 196.026V190.019H291.473C295.085 190.038 297.365 188.719 298.576 187.021C299.79 185.332 299.975 183.453 299.981 182.339C299.981 181.874 299.948 181.54 299.926 181.387V131.748C302.098 131.353 303.819 129.679 304.315 127.516H315.686V169.802L315.689 169.805ZM298.948 129.866C297.423 129.866 296.13 128.887 295.623 127.522C295.475 127.127 295.384 126.705 295.384 126.255C295.384 126.007 295.411 125.769 295.457 125.536C295.789 123.887 297.223 122.647 298.948 122.644C300.672 122.644 302.107 123.887 302.439 125.536C302.484 125.769 302.512 126.01 302.512 126.255C302.512 126.702 302.421 127.127 302.273 127.522C301.766 128.887 300.473 129.863 298.948 129.866ZM293.578 127.522C294.073 129.682 295.795 131.356 297.966 131.754V181.458L297.978 181.611V181.641C297.993 181.73 298.021 181.984 298.021 182.342C298.024 183.226 297.845 184.692 296.997 185.849C296.148 186.993 294.662 188.021 291.473 188.04H282.204V127.525H293.575L293.578 127.522ZM244.679 235.093H239.239C239.176 235.093 239.118 235.078 239.055 235.075C238.324 235.035 237.654 234.793 237.095 234.389C236.355 233.854 235.814 233.052 235.618 232.116C235.567 231.865 235.536 231.608 235.536 231.342V230.717C235.536 230.516 235.567 230.323 235.597 230.13C235.757 229.117 236.307 228.242 237.095 227.67C237.654 227.266 238.324 227.021 239.055 226.984C239.118 226.981 239.176 226.966 239.239 226.966H244.679C244.854 226.966 245.02 226.997 245.186 227.018C245.935 227.125 246.611 227.452 247.146 227.942C247.762 228.502 248.185 229.264 248.321 230.13C248.351 230.323 248.381 230.516 248.381 230.717V231.342C248.381 231.608 248.351 231.865 248.3 232.116C248.134 232.905 247.717 233.597 247.146 234.117C246.611 234.607 245.935 234.934 245.186 235.041C245.02 235.066 244.854 235.093 244.679 235.093ZM253.512 230.13V190.023H262.558L262.558 230.13H253.512ZM262.558 188.037H253.512V180.344H257.363C258.698 180.344 259.637 180.628 260.329 181.026C261.359 181.623 261.903 182.519 262.214 183.413C262.522 184.297 262.561 185.148 262.558 185.445V185.537V185.552V185.607V188.04V188.037ZM264.518 188.037V185.604L264.521 185.442C264.515 184.857 264.455 183.18 263.509 181.525C263.035 180.702 262.322 179.888 261.301 179.3C260.281 178.71 258.976 178.355 257.363 178.355H253.512V169.82H280.247V188.034H264.521L264.518 188.037ZM280.247 141.889V167.834H269.269V144.392C269.269 144.349 269.251 144.312 269.245 144.272C272.579 142.752 276.263 141.886 280.156 141.886H280.247V141.889ZM267.306 167.834H253.564C253.833 160.796 256.72 154.45 261.317 149.793C263.083 148.003 265.104 146.47 267.306 145.236V167.834ZM251.552 169.82V178.355H239.055V169.82H251.552ZM251.552 180.344V188.037H239.055V180.344H251.552ZM251.552 190.023V230.13H250.284C250.079 228.12 248.864 226.424 247.146 225.577V223.958C247.146 221.066 244.833 218.722 241.979 218.722H239.052V190.023H251.549H251.552ZM241.979 220.708C243.748 220.711 245.183 222.165 245.186 223.958V225.032C245.017 225.017 244.851 224.98 244.679 224.98H239.239C239.176 224.98 239.118 224.995 239.055 224.998V220.708H241.982H241.979ZM264.518 230.13L264.518 190.023H280.244L280.244 230.13H264.518ZM282.207 197.758C282.346 197.832 282.494 197.887 282.663 197.887H291.255L291.255 218.943H282.21L282.21 197.761L282.207 197.758ZM378.324 218.94V203.86H385.186V205.39C385.186 205.454 385.21 205.512 385.222 205.573V218.94H378.324ZM387.146 201.874V194.897C387.158 191.47 388.2 189.515 389.664 188.294C390.912 187.262 392.588 186.776 394.367 186.644V201.871H387.146V201.874ZM396.327 184.6V180.188H415.707C415.584 180.91 415.339 181.715 414.835 182.421C414.004 183.56 412.563 184.582 409.434 184.6H396.33H396.327ZM417.713 165.705C417.713 165.417 417.71 165.126 417.707 164.814C417.646 154.836 417.526 132.88 417.526 116.889C417.526 111.558 417.538 106.888 417.574 103.55C417.592 101.882 417.613 100.545 417.64 99.6301C417.652 99.2109 417.667 98.8927 417.68 98.6693H428.386L428.386 165.705L417.713 165.705ZM375.165 76.2609C375.572 78.5529 377.348 80.3521 379.61 80.7652V125.533L365.947 125.533V76.2609L375.165 76.2609ZM347.802 101.331C347.802 102.999 346.464 104.352 344.818 104.355H325.069C319.89 104.355 315.692 108.608 315.692 113.856V125.533H304.402C304.091 123.113 302.279 121.185 299.929 120.756V91.8149H347.802V101.331ZM297.966 91.818V120.759C295.617 121.188 293.805 123.116 293.493 125.536H282.204V91.818H297.966ZM237.092 169.82V178.355L220.276 178.355V169.82L237.092 169.82ZM237.092 180.344V188.037L220.327 188.037C220.309 188.037 220.294 188.046 220.276 188.046V180.344L237.092 180.344ZM220.33 190.023L237.095 190.023V218.722L220.279 218.722V190.013C220.297 190.013 220.312 190.023 220.33 190.023ZM237.092 220.708V225.411C235.201 226.198 233.851 227.991 233.631 230.13L226.256 230.13C224.486 230.13 222.954 229.729 221.943 228.989C220.937 228.239 220.348 227.238 220.33 225.574V224.123C220.33 224.031 220.3 223.946 220.279 223.86V220.705L237.095 220.705L237.092 220.708ZM239.052 237.061C239.115 237.061 239.173 237.079 239.236 237.079H244.675C244.851 237.079 245.014 237.042 245.183 237.027V240.405H239.049V237.061H239.052ZM255.914 254.748H255.871C253.428 254.748 251.226 253.747 249.626 252.125C248.025 250.5 247.04 248.27 247.037 245.791V243.107C247.101 242.976 247.146 242.832 247.146 242.673V242.391H280.244V254.745C278.622 254.714 275.593 254.702 271.963 254.702C266.998 254.702 260.927 254.723 255.914 254.745V254.748ZM264.518 240.405V232.116H280.244V240.405H264.518ZM283.192 230.31C283.038 230.206 282.859 230.13 282.66 230.13H282.204V220.925H291.705C291.86 221.026 292.032 221.103 292.231 221.103C292.43 221.103 292.602 221.029 292.756 220.925H301.165C301.319 221.026 301.491 221.103 301.69 221.103C301.889 221.103 302.062 221.029 302.216 220.925H310.624C310.778 221.026 310.95 221.103 311.149 221.103C311.349 221.103 311.521 221.029 311.675 220.925H320.083C320.237 221.026 320.409 221.103 320.608 221.103C320.808 221.103 320.98 221.029 321.134 220.925H329.542C329.618 220.974 329.693 221.014 329.781 221.045V230.31H283.198H283.192ZM331.735 220.925H338.992C339.146 221.026 339.318 221.103 339.518 221.103C339.717 221.103 339.889 221.029 340.043 220.925H348.119V240.405H331.735V220.925ZM385.143 271.979V283.117H371.444C369.614 283.114 368.131 281.611 368.128 279.757V271.979H385.143ZM437.102 178.391C436.29 178.226 435.562 178.174 435.058 178.171C434.671 178.171 434.444 178.193 434.345 178.202L417.752 178.202C417.749 178.168 417.746 178.128 417.743 178.104V170.133C417.743 170.133 417.737 169.242 417.728 167.688L428.389 167.688V168.269C428.389 168.817 428.827 169.264 429.371 169.264C429.914 169.264 430.352 168.82 430.352 168.269V167.688H436.181V168.269C436.181 168.817 436.619 169.264 437.163 169.264C437.706 169.264 438.144 168.82 438.144 168.269V167.688H443.843V168.269C443.843 168.817 444.281 169.264 444.825 169.264C445.368 169.264 445.806 168.82 445.806 168.269V167.688H458.739V168.006C458.739 168.554 459.177 169 459.72 169C460.264 169 460.702 168.557 460.702 168.006V167.688H473.19V178.388H437.099L437.102 178.391ZM463.574 144.634C467.101 144.634 471.94 144.707 473.19 144.725V158.7C471.894 158.679 467.098 158.609 463.574 158.609C462.547 158.609 461.629 158.615 460.931 158.63C460.832 158.63 460.774 158.636 460.684 158.639V144.664C461.366 144.643 462.387 144.634 463.571 144.634H463.574ZM460.687 165.705V160.628C461.369 160.607 462.39 160.598 463.574 160.598C467.101 160.598 471.94 160.671 473.19 160.689V165.705H460.687ZM458.727 165.705H445.794L445.794 124.835H454.915C457.017 124.838 458.721 126.564 458.724 128.694V165.705H458.727ZM475.15 165.705L475.15 110.261H480.158C482.504 110.264 484.404 112.188 484.407 114.566V165.705H475.15ZM436.175 49.7216V61.6249H381.57V55.8997C381.577 52.4878 384.301 49.7277 387.668 49.7216H436.175ZM366.044 63.6109L379.61 63.6109V69.7737C377.348 70.1868 375.572 71.9861 375.165 74.278L365.947 74.278V63.5925C365.98 63.5956 366.011 63.6109 366.044 63.6109ZM347.802 89.832H331.849V56.0068H334.504C337.404 56.0068 339.762 53.7944 340.101 50.9486H347.802V89.832ZM334.504 45.8904C336.319 45.8935 337.82 47.2154 338.137 48.9627C338.177 49.183 338.207 49.4094 338.207 49.642V50.2662C338.207 50.4988 338.18 50.7252 338.137 50.9456C337.817 52.6898 336.316 54.0147 334.504 54.0178H329.065C327.25 54.0147 325.749 52.6928 325.432 50.9456C325.392 50.7252 325.362 50.4988 325.362 50.2662V49.642C325.362 49.4094 325.389 49.183 325.432 48.9627C325.752 47.2185 327.253 45.8935 329.065 45.8904H334.504ZM237.125 154.735C237.116 154.787 237.095 154.836 237.095 154.891V167.838L220.279 167.838V154.738L237.125 154.738V154.735ZM218.319 169.82V178.355H198.295C198.295 178.355 198.292 178.355 198.289 178.355V169.817H218.316L218.319 169.82ZM218.319 220.708V240.405H205.628C205.293 237.56 202.931 235.347 200.031 235.347H198.292V220.705H218.319V220.708ZM239.052 269.993V264.659H280.244V269.993H239.052ZM282.207 256.415C282.28 256.327 282.343 256.226 282.382 256.109C282.491 255.779 282.406 255.445 282.207 255.191V242.795H287.378V269.996H282.207V256.418V256.415ZM289.338 269.993V242.792H297.251V269.993H289.338ZM322.312 281.976C325.432 281.186 327.754 278.349 327.754 274.944V267.024C327.754 263.3 324.979 260.265 321.415 259.839V248.037C321.421 244.919 323.909 242.398 326.987 242.391H330.225C330.379 242.495 330.557 242.572 330.756 242.572C330.956 242.572 331.134 242.495 331.288 242.391H348.566C348.72 242.495 348.898 242.572 349.098 242.572C349.297 242.572 349.475 242.495 349.629 242.391H366.908C367.062 242.495 367.24 242.572 367.439 242.572C367.638 242.572 367.817 242.495 367.971 242.391H380.314C380.749 244.836 382.745 246.706 385.222 246.942V256.874H337.648C335.03 256.874 332.91 259.022 332.91 261.675V294.197C330.792 291.752 326.899 287.257 322.309 281.972L322.312 281.976ZM334.873 295.85V261.679C334.873 260.124 336.117 258.866 337.651 258.863H385.225V269.993H357.512C352.151 269.993 347.805 274.396 347.805 279.827V295.871L334.876 295.85H334.873ZM349.762 279.827C349.762 277.658 350.629 275.703 352.03 274.277C353.435 272.854 355.364 271.979 357.509 271.979H366.165V279.757C366.165 282.71 368.526 285.103 371.441 285.103H385.14V295.929L349.759 295.871V279.824L349.762 279.827ZM411.071 294.635V299.28C410.226 299.096 409.374 298.971 408.516 298.971C407.659 298.971 406.804 299.096 405.961 299.28V294.635C406.807 294.818 407.659 294.944 408.516 294.944C409.374 294.944 410.229 294.818 411.071 294.635ZM430.802 295.963V271.979H447.416V279.757C447.416 282.71 449.778 285.103 452.692 285.103H473.19V295.963H430.802ZM452.692 283.117C450.862 283.114 449.379 281.611 449.376 279.757V271.979H473.19V283.117H452.692ZM441.714 219.833V239.056H430.977C428.069 239.05 425.719 236.666 425.713 233.722V219.833H441.714ZM411.935 217.847H404.463V203.86L441.717 203.86V217.847L411.938 217.847H411.935ZM441.714 201.874L404.49 201.874C404.563 199.891 405.088 198.021 406.218 196.663C407.438 195.206 409.344 194.196 412.5 194.184L441.714 194.184V201.874ZM443.674 192.198V187.62C443.692 184.147 442.56 181.813 441.047 180.377H473.19V187.44C473.184 190.068 471.088 192.192 468.494 192.198H443.674ZM475.15 178.391V167.691H484.407V178.391H475.15ZM473.19 108.275L445.794 108.275V94.5903L473.19 94.5903V108.275ZM445.794 61.2639V49.7216L473.19 49.7216V61.2639L445.794 61.2639ZM475.15 47.7356V27.151H485.537C488.487 27.1571 490.873 29.5745 490.879 32.5641V47.7356H475.15ZM473.19 47.7356L387.668 47.7356C383.219 47.7356 379.61 51.3893 379.61 55.8997V61.6249L366.044 61.6249C366.011 61.6249 365.98 61.6402 365.947 61.6433V38.9809C380.746 38.9993 402.648 39.0207 421.343 39.0207C433.689 39.0207 444.634 39.0115 451.206 38.984C455.305 38.9656 458.6 35.5966 458.6 31.4472V27.151L473.19 27.151V47.7356ZM430.802 25.165V1.18078L447.416 1.18078V8.95929C447.416 11.9122 449.778 14.3051 452.692 14.3051H473.19V25.165L430.802 25.165ZM411.935 -3.42453C412.276 -3.42453 412.603 -3.36027 412.917 -3.26847C414.092 -2.92575 415.007 -1.99856 415.345 -0.808219C415.436 -0.489982 415.499 -0.162558 415.499 0.18628C415.499 0.53206 415.436 0.862542 415.345 1.18078C415.025 2.30074 414.197 3.18813 413.122 3.57675C412.751 3.7114 412.355 3.79708 411.935 3.80014C411.669 3.80014 411.41 3.76341 411.162 3.70833C409.888 3.42069 408.885 2.4415 408.525 1.18078C408.435 0.862542 408.371 0.535119 408.371 0.18628C408.371 -0.159499 408.435 -0.489982 408.525 -0.808219C408.864 -1.99856 409.779 -2.92575 410.954 -3.26847C411.268 -3.36027 411.591 -3.42453 411.935 -3.42453ZM413.122 5.64837C415.288 5.16795 416.967 3.40234 417.362 1.18078H428.845V12.3192H416.438C414.608 12.3161 413.125 10.8137 413.122 8.95929V5.64837ZM452.692 12.3192C450.862 12.3161 449.379 10.8137 449.376 8.95929V1.18078H473.19V12.3192H452.692ZM395.348 1.18078L406.511 1.18078C406.931 3.54004 408.803 5.36685 411.162 5.70651V8.96236C411.162 11.9153 413.524 14.3082 416.438 14.3082H428.845V25.1681H416.571V22.5794C416.571 22.0316 416.133 21.5849 415.59 21.5849C415.046 21.5849 414.608 22.0286 414.608 22.5794V29.7459C414.608 30.2936 415.046 30.7404 415.59 30.7404C416.133 30.7404 416.571 30.2967 416.571 29.7459V27.1571H456.64V31.4534C456.64 34.5134 454.214 36.9919 451.197 37.0042C444.631 37.0317 433.689 37.0409 421.343 37.0409C405.523 37.0409 387.399 37.0256 373.232 37.0103C366.149 37.0011 360.052 36.995 355.73 36.9889C352.903 36.9858 350.855 36.9828 349.762 36.9797V27.0684L403.998 27.1571V29.7489C403.998 30.0672 404.149 30.3671 404.403 30.5537C404.657 30.7404 404.986 30.7924 405.285 30.6914C406.333 30.3395 407.423 30.1651 408.513 30.1651C409.604 30.1651 410.694 30.3395 411.742 30.6914C412.041 30.7924 412.37 30.7404 412.624 30.5537C412.877 30.3671 413.028 30.0672 413.028 29.7489V22.5824C413.028 22.2642 412.877 21.9643 412.621 21.7776C412.367 21.591 412.038 21.5389 411.739 21.6399C410.691 21.9918 409.601 22.1663 408.51 22.1663C407.42 22.1663 406.33 21.9918 405.282 21.6399C404.983 21.5389 404.654 21.591 404.4 21.7776C404.146 21.9643 403.995 22.2642 403.995 22.5824V25.1712L387.1 25.1436V1.1869H395.345L395.348 1.18078ZM385.143 1.18078V12.3192H371.444C369.614 12.3161 368.131 10.8137 368.128 8.95929V1.18078H385.143ZM366.165 1.18078V8.95929C366.165 11.9122 368.526 14.3051 371.441 14.3051H385.14V25.1314L349.759 25.0732V9.02661C349.759 6.85707 350.626 4.90174 352.027 3.47578C353.432 2.05288 355.361 1.17771 357.506 1.17771H366.162L366.165 1.18078ZM411.071 23.837V28.4821C410.226 28.2985 409.374 28.173 408.516 28.173C407.659 28.173 406.804 28.2985 405.961 28.4821V23.837C406.807 24.0206 407.659 24.1461 408.516 24.1461C409.374 24.1461 410.229 24.0206 411.071 23.837ZM332.589 26.0463L321.412 39.0636V13.1515C323.357 15.3914 325.175 17.4845 326.761 19.3143C328.687 21.5389 330.285 23.3841 331.403 24.6724C331.907 25.2538 332.296 25.7067 332.589 26.0433V26.0463ZM321.415 42.0899L334.338 27.0378L347.802 27.0592V48.9627H340.101C339.765 46.1169 337.404 43.9045 334.504 43.9045H329.065C326.166 43.9045 323.807 46.1169 323.469 48.9627H321.415V42.0899ZM319.455 70.5387C319.452 72.6042 317.803 74.2719 315.764 74.278H299.588V55.508C299.594 52.9927 301.603 50.9547 304.085 50.9517H319.455V70.5418V70.5387ZM280.247 51.0159L239.33 51.0159C238.88 47.3133 236.014 44.4094 232.359 43.9535V40.0519L280.247 40.0519V51.0159ZM187.688 38.066V31.6645C187.694 29.0972 189.742 27.0225 192.276 27.0163H207.531C207.709 27.2 207.953 27.3162 208.228 27.3162C208.503 27.3162 208.748 27.2 208.926 27.0163H226.089C226.268 27.2 226.512 27.3162 226.787 27.3162C227.062 27.3162 227.307 27.2 227.485 27.0163H244.648C244.827 27.2 245.071 27.3162 245.346 27.3162C245.621 27.3162 245.865 27.2 246.044 27.0163H263.207C263.385 27.2 263.63 27.3162 263.905 27.3162C264.18 27.3162 264.424 27.2 264.603 27.0163H275.656C278.19 27.0225 280.238 29.0972 280.244 31.6645V38.066L187.685 38.066H187.688ZM227.766 25.0304V13.9777H244.364V25.0304H227.766ZM225.806 13.9777V25.0304H209.207V13.9777L225.806 13.9777ZM246.328 25.0304V13.9777L262.926 13.9777V25.0304H246.328ZM223.426 53.0019C223.876 56.7045 226.745 59.6115 230.399 60.0644C230.399 60.2479 230.399 60.4224 230.399 60.6305C230.399 63.2406 232.486 65.3581 235.062 65.3581H277.206C274.515 66.4812 272.404 68.6997 271.365 71.4628H187.688V53.0019H223.426ZM270.824 73.4518C270.724 74.0455 270.643 74.6483 270.643 75.2695C270.643 75.753 270.721 76.215 270.785 76.6801H246.167C243.117 76.6893 241.042 77.1147 239.62 78.3478C238.919 78.9629 238.454 79.7677 238.191 80.652C237.925 81.5425 237.835 82.5186 237.835 83.6049V88.0786H187.688V73.4457H270.827L270.824 73.4518ZM187.688 90.0676H237.835L237.835 104.701H187.688L187.688 90.0676ZM237.835 106.687V111.353C237.835 114.425 236.609 117.198 234.621 119.211C232.634 121.225 229.898 122.467 226.866 122.467H187.688V106.687H237.835ZM218.319 139.716V152.749H187.688V139.716H218.319ZM218.319 154.735V167.834H187.73C187.73 167.834 187.703 167.844 187.688 167.844V154.735H218.319ZM187.73 169.82H196.332V190.91H187.688V169.814C187.688 169.814 187.715 169.823 187.73 169.823V169.82ZM196.329 192.896V218.722H187.685V192.896H196.329ZM196.329 220.708V235.35H194.589C191.69 235.35 189.331 237.563 188.993 240.408H187.685V220.711H196.329V220.708ZM222.607 257.113H222.646C225.09 257.113 227.291 258.114 228.892 259.735C230.493 261.36 231.48 263.591 231.48 266.07V269.993H198.289V257.116C199.908 257.147 202.91 257.159 206.516 257.159C211.49 257.159 217.576 257.137 222.607 257.113ZM299.211 269.993V242.792H305.622C309.026 242.798 311.777 245.589 311.784 249.035V259.855C308.289 260.344 305.589 263.349 305.589 267.024V269.99H299.211V269.993ZM326.761 290.112C328.687 292.337 330.285 294.182 331.403 295.47C331.907 296.052 332.296 296.504 332.589 296.841L321.412 309.858V283.946C323.357 286.186 325.175 288.279 326.761 290.109V290.112ZM321.415 312.885L334.338 297.832L347.802 297.854V319.757H340.101C339.765 316.912 337.404 314.699 334.504 314.699H329.065C326.166 314.699 323.807 316.912 323.469 319.757H321.415V312.885ZM319.455 341.333C319.452 343.399 317.803 345.067 315.764 345.073H299.588V326.303C299.594 323.787 301.603 321.749 304.085 321.746H319.455V341.336V341.333ZM280.247 321.811H239.33C238.88 318.108 236.014 315.204 232.359 314.748V310.847L280.247 310.847V321.811ZM187.688 308.861V302.459C187.694 299.892 189.742 297.817 192.276 297.811H207.531C207.709 297.995 207.953 298.111 208.228 298.111C208.503 298.111 208.748 297.995 208.926 297.811H226.089C226.268 297.995 226.512 298.111 226.787 298.111C227.062 298.111 227.307 297.995 227.485 297.811L244.648 297.811C244.827 297.995 245.071 298.111 245.346 298.111C245.621 298.111 245.865 297.995 246.044 297.811H263.207C263.385 297.995 263.63 298.111 263.905 298.111C264.18 298.111 264.424 297.995 264.603 297.811H275.656C278.19 297.817 280.238 299.892 280.244 302.459V308.861L187.685 308.861H187.688ZM227.766 295.825V284.772L244.364 284.772V295.825L227.766 295.825ZM225.806 284.772V295.825H209.207V284.772H225.806ZM246.328 295.825V284.772H262.926V295.825H246.328ZM223.426 323.797C223.876 327.499 226.745 330.406 230.399 330.859C230.399 331.043 230.399 331.217 230.399 331.425C230.399 334.035 232.486 336.153 235.062 336.153H277.206C274.515 337.276 272.404 339.494 271.365 342.258L187.688 342.258V323.793H223.426V323.797ZM270.824 344.247C270.724 344.84 270.643 345.443 270.643 346.067C270.643 346.551 270.721 347.013 270.785 347.478H246.167C243.117 347.487 241.042 347.912 239.62 349.146C238.919 349.761 238.454 350.565 238.191 351.45C237.925 352.34 237.835 353.316 237.835 354.403V358.876L187.688 358.876V344.243L270.827 344.243L270.824 344.247ZM187.688 360.865L237.835 360.865V375.498L187.688 375.498V360.865ZM280.247 375.186C280.144 375.192 279.93 375.201 279.607 375.208C278.423 375.232 276.073 375.241 273.258 375.241C269.257 375.241 264.307 375.223 260.356 375.205C257.979 375.192 255.983 375.183 254.757 375.174V363.203C254.757 362.717 255.146 362.325 255.624 362.325H280.247V375.186ZM317.649 388.742H363.987V396.331H317.649V388.742ZM379.61 368.473V396.331H365.947V347.059H375.165C375.572 349.351 377.348 351.15 379.61 351.563V368.473ZM424.143 347.059C426.486 347.062 428.38 348.983 428.386 351.358V357.129L381.573 357.129V351.563C383.836 351.15 385.611 349.351 386.019 347.059L424.146 347.059H424.143ZM379.61 340.568C377.348 340.981 375.572 342.781 375.165 345.073H365.947V309.779C380.755 309.797 402.672 309.818 421.373 309.818C433.708 309.818 444.641 309.809 451.206 309.782C455.305 309.763 458.6 306.394 458.6 302.245V297.949H473.19V318.533L387.668 318.533C383.219 318.533 379.61 322.187 379.61 326.697V332.429C379.085 332.447 378.662 332.879 378.662 333.414C378.662 333.95 379.085 334.384 379.61 334.399V340.568ZM475.15 318.533V297.949H485.537C488.487 297.955 490.873 300.372 490.879 303.362V318.533H475.15ZM436.175 332.423L381.57 332.423V326.697C381.577 323.286 384.301 320.525 387.668 320.519L436.175 320.519V332.423ZM473.19 320.519V332.062H445.794V320.519H473.19ZM507.874 334.048V348.273H480.13C479.693 345.804 477.66 343.922 475.15 343.714V334.044H507.874V334.048ZM474.706 352.879C474.163 352.879 473.652 352.744 473.193 352.524C471.985 351.945 471.145 350.712 471.142 349.268C471.142 347.824 471.985 346.59 473.193 346.012C473.655 345.792 474.163 345.657 474.706 345.657C474.86 345.657 475.005 345.685 475.153 345.703C476.576 345.887 477.726 346.909 478.116 348.273C478.207 348.592 478.27 348.919 478.27 349.268C478.27 349.614 478.207 349.944 478.116 350.262C477.726 351.627 476.576 352.649 475.153 352.833C475.005 352.851 474.86 352.879 474.706 352.879ZM473.19 343.91C470.88 344.58 469.179 346.71 469.179 349.268C469.179 351.823 470.88 353.956 473.19 354.626V363.402H461.119V334.048H473.19V343.91ZM459.158 334.048V347.732H445.794V334.048H459.158ZM459.158 349.718V363.402H445.794V349.718H459.158ZM460.934 429.428C460.835 429.428 460.777 429.434 460.687 429.437V415.462C461.369 415.44 462.39 415.431 463.574 415.431C467.101 415.431 471.94 415.505 473.19 415.523V429.498C471.894 429.477 467.098 429.406 463.574 429.406C462.547 429.406 461.629 429.412 460.931 429.428H460.934ZM473.19 413.537C471.894 413.516 467.098 413.445 463.574 413.445C462.547 413.445 461.629 413.451 460.931 413.467C460.832 413.467 460.774 413.473 460.684 413.476V399.492C460.684 396.263 458.101 393.647 454.915 393.647H445.794V381.061H473.19V413.54V413.537ZM473.19 379.072H445.794V365.388H473.19V379.072ZM507.901 397.472H497.373V374.865C497.373 368.534 492.308 363.402 486.059 363.402H475.15V354.819C477.66 354.611 479.693 352.729 480.13 350.259H507.901V397.472ZM475.15 332.062V320.519H507.874V332.062H475.15ZM486.349 279.757C486.349 282.71 488.711 285.103 491.625 285.103H507.871V318.53H492.839V303.359C492.839 299.271 489.568 295.96 485.537 295.96H475.15V271.975H486.349V279.754V279.757ZM430.249 269.993C430.12 269.928 429.978 269.882 429.821 269.882C429.664 269.882 429.525 269.928 429.392 269.993L417.356 269.993C416.949 267.701 415.173 265.901 412.911 265.488V219.833L423.75 219.833V233.722C423.75 237.765 426.985 241.042 430.974 241.042H441.711V269.99H430.246L430.249 269.993ZM443.674 203.86H464.842C466.479 203.86 467.802 205.203 467.805 206.862V209.714H460.783C457.712 209.714 455.223 212.235 455.223 215.347V244.194C452.553 244.194 450.149 244.203 448.228 244.212C446.664 244.221 445.39 244.23 444.483 244.243C444.16 244.246 443.901 244.252 443.671 244.258V203.86H443.674ZM480.387 211.7V244.212C476.86 244.206 473.266 244.2 469.768 244.197V211.7H480.387ZM467.808 244.194C465.304 244.194 462.861 244.191 460.554 244.191C459.394 244.191 458.274 244.191 457.189 244.191V215.347C457.192 213.334 458.802 211.703 460.789 211.7H467.811V244.194H467.808ZM505.548 229.194V244.279C503.057 244.27 499.339 244.261 494.929 244.249V229.194H505.548ZM492.969 211.7V227.517C492.8 227.694 492.694 227.933 492.694 228.199C492.694 228.465 492.8 228.704 492.969 228.881V244.243C489.674 244.233 486.071 244.224 482.35 244.218V211.7H492.969ZM484.407 185.102C484.407 187.611 484.051 190.108 483.353 192.516L481.523 198.82C480.771 201.409 480.387 204.095 480.387 206.794V209.717H469.768V206.865C469.768 204.108 467.564 201.877 464.845 201.877H443.677V194.187H468.497C472.172 194.187 475.15 191.17 475.153 187.443V180.38H484.41V185.105L484.407 185.102ZM507.901 172.281C507.895 175.656 505.201 178.385 501.87 178.391H486.367V167.691H490.988C494.516 167.691 497.373 164.796 497.373 161.222V128.663H507.901V172.284V172.281ZM507.901 126.674H497.373V104.067C497.373 97.736 492.308 92.6044 486.059 92.6044H475.15V84.0211C477.66 83.813 479.693 81.9311 480.13 79.4617H507.901L507.901 126.671V126.674ZM475.15 61.2639V49.7216H507.874V61.2639H475.15ZM486.349 8.95929C486.349 11.9122 488.711 14.3051 491.625 14.3051H507.871V47.7356H492.839V32.5641C492.839 28.476 489.568 25.165 485.537 25.165H475.15V1.18078H486.349V8.95929ZM441.714 -0.805167H430.249C430.12 -0.869429 429.978 -0.915336 429.821 -0.915336C429.664 -0.915336 429.525 -0.869429 429.392 -0.805167H417.356C416.949 -3.09711 415.173 -4.89638 412.911 -5.30949V-50.8668C413.128 -50.8668 413.334 -50.8668 413.557 -50.8668C416.686 -50.8668 420.235 -50.8729 423.75 -50.8851V-37.0753C423.75 -33.0331 426.985 -29.7558 430.974 -29.7558H441.711V-0.808219L441.714 -0.805167ZM441.714 -31.7418H430.977C428.069 -31.7479 425.719 -34.1316 425.713 -37.0753V-50.8912C432.98 -50.9157 439.687 -50.9494 441.714 -50.9616V-31.7418ZM404.463 -50.9127C405.726 -50.8851 408.048 -50.8729 410.957 -50.8698V-5.30949C408.695 -4.89638 406.919 -3.09711 406.511 -0.805167H404.463V-50.9127ZM332.913 -9.11919V23.4025C330.795 20.9576 326.902 16.4624 322.312 11.1778C325.432 10.3883 327.754 7.5517 327.754 4.14592V-3.77336C327.754 -7.49738 324.979 -10.5329 321.415 -10.9582V-22.7607C321.421 -25.8788 323.909 -28.4002 326.987 -28.4064H330.225C330.379 -28.3023 330.557 -28.2258 330.756 -28.2258C330.956 -28.2258 331.134 -28.3023 331.288 -28.4064H348.566C348.72 -28.3023 348.898 -28.2258 349.098 -28.2258C349.297 -28.2258 349.475 -28.3023 349.629 -28.4064H366.908C367.062 -28.3023 367.24 -28.2258 367.439 -28.2258C367.638 -28.2258 367.817 -28.3023 367.971 -28.4064H380.314C380.749 -25.9614 382.745 -24.0918 385.222 -23.8561V-13.9234L337.648 -13.9234C335.03 -13.9234 332.91 -11.7753 332.91 -9.12224L332.913 -9.11919ZM331.735 -49.8692L338.992 -49.8692C339.146 -49.7682 339.318 -49.6917 339.518 -49.6917C339.717 -49.6917 339.889 -49.7652 340.043 -49.8692H348.119V-30.3892H331.735V-49.8692ZM357.904 -49.8692C358.058 -49.7682 358.231 -49.6917 358.43 -49.6917C358.629 -49.6917 358.801 -49.7652 358.955 -49.8692L366.461 -49.8692V-30.3892H350.076V-49.8692H357.904ZM385.741 -33.0086C386.255 -33.0086 386.741 -32.8923 387.182 -32.6934C388.429 -32.1304 389.302 -30.8727 389.305 -29.3978C389.305 -27.9259 388.429 -26.6652 387.182 -26.1022C386.741 -25.9033 386.255 -25.787 385.741 -25.787C385.563 -25.787 385.394 -25.8145 385.222 -25.8421C383.833 -26.0502 382.715 -27.063 382.332 -28.4064C382.241 -28.7246 382.178 -29.052 382.178 -29.4009C382.178 -29.7466 382.241 -30.0771 382.332 -30.3954C382.715 -31.7387 383.83 -32.7516 385.222 -32.9596C385.394 -32.9841 385.563 -33.0117 385.741 -33.0147V-33.0086ZM385.222 -34.9425C382.745 -34.7038 380.749 -32.8372 380.314 -30.3923H368.421V-49.8723H376.817C376.971 -49.7713 377.143 -49.6948 377.342 -49.6948C377.542 -49.6948 377.714 -49.7682 377.868 -49.8723L385.222 -49.8723V-34.9425ZM291.705 -49.8692C291.86 -49.7682 292.032 -49.6917 292.231 -49.6917C292.43 -49.6917 292.602 -49.7652 292.756 -49.8692H301.165C301.319 -49.7682 301.491 -49.6917 301.69 -49.6917C301.889 -49.6917 302.062 -49.7652 302.216 -49.8692H310.624C310.778 -49.7682 310.95 -49.6917 311.149 -49.6917C311.349 -49.6917 311.521 -49.7652 311.675 -49.8692L320.083 -49.8692C320.237 -49.7682 320.409 -49.6917 320.608 -49.6917C320.808 -49.6917 320.98 -49.7652 321.134 -49.8692H329.542C329.618 -49.8202 329.693 -49.7805 329.781 -49.7499V-40.4842L282.213 -40.4842V-49.8692L291.715 -49.8692H291.705ZM282.207 -38.5013L329.775 -38.5013V-30.3923H326.984C322.825 -30.3923 319.452 -26.9773 319.452 -22.7607V-11.0439H313.741V-21.7631C313.741 -26.3103 310.104 -29.9914 305.619 -29.9914L282.204 -29.9914V-38.5013H282.207ZM262.558 -30.3892L247.146 -30.3892V-34.3122C248.81 -35.1353 250.003 -36.7479 250.263 -38.6818L262.558 -38.6818V-30.3923V-30.3892ZM241.979 -50.0895C243.748 -50.0865 245.183 -48.633 245.186 -46.8398V-45.7657C245.017 -45.781 244.851 -45.8178 244.679 -45.8178H239.239C239.176 -45.8178 239.118 -45.8025 239.055 -45.7994V-50.0895H241.982H241.979ZM237.092 -50.0895V-45.3863C235.201 -44.5999 233.851 -42.8067 233.631 -40.6678H226.256C222.985 -40.6739 220.336 -43.3575 220.33 -46.6715C220.33 -46.7633 220.3 -46.849 220.279 -46.9347V-50.0895L237.095 -50.0895H237.092ZM218.319 -50.0895V-30.3923L205.628 -30.3923C205.293 -33.2381 202.931 -35.4474 200.031 -35.4505H198.292V-50.0926L218.319 -50.0926V-50.0895ZM146.342 -77.9019L196.329 -77.9019V-52.0755H176.985V-57.2652C176.985 -62.9966 172.4 -67.6417 166.743 -67.6417H146.339V-77.9019H146.342ZM146.342 -65.6557H166.746C169.036 -65.6557 171.101 -64.7194 172.602 -63.1986C174.103 -61.6777 175.028 -59.5847 175.028 -57.2652V-52.0755L146.342 -52.0755V-65.6557ZM146.342 -50.0895L175.481 -50.0895C175.635 -49.9885 175.807 -49.912 176.006 -49.912C176.205 -49.912 176.378 -49.9855 176.532 -50.0895H196.329V-35.4474H194.589C191.693 -35.4474 189.331 -33.235 188.993 -30.3892H176.985V-35.836C176.985 -41.5674 172.4 -46.2125 166.743 -46.2125L146.339 -46.2125V-50.0865L146.342 -50.0895ZM146.342 -44.2296L166.746 -44.2296C169.036 -44.2296 171.101 -43.2933 172.602 -41.7724C174.103 -40.2516 175.028 -38.1586 175.028 -35.8391V-30.3923L146.342 -30.3923V-44.2296ZM205.625 -28.4033L218.101 -28.4033V-15.6492C214.196 -15.6339 210.074 -15.6217 206.516 -15.6217C203.9 -15.6217 201.593 -15.6278 199.92 -15.6431C199.258 -15.6492 198.733 -15.6553 198.289 -15.6645V-23.3421H200.028C202.928 -23.3421 205.287 -25.5544 205.625 -28.4002V-28.4033ZM198.289 -13.6816C199.908 -13.651 202.91 -13.6388 206.516 -13.6388C211.49 -13.6388 217.576 -13.6602 222.607 -13.6847H222.646C225.09 -13.6847 227.291 -12.6841 228.892 -11.0623C230.493 -9.43742 231.48 -7.20668 231.48 -4.72808V-0.805167L198.289 -0.805167V-13.6816ZM299.479 1.18078L305.586 1.18078V4.14592C305.586 8.16064 308.8 11.4165 312.762 11.4165H319.452V48.9627H304.822C301.871 48.9565 299.482 46.5361 299.476 43.5465V1.18078H299.479ZM297.519 38.066H282.207V31.6645C282.207 28.0017 279.275 25.0304 275.659 25.0304H264.886V13.9777H297.519V38.066ZM165.583 13.9777V47.9009C164.94 47.8152 164.303 47.6897 163.684 47.4816C163.385 47.3807 163.056 47.4327 162.802 47.6193C162.548 47.806 162.397 48.1059 162.397 48.4241V51.0129H147.209V13.9746L165.586 13.9746L165.583 13.9777ZM154.203 53.0019H162.394V55.5906C162.394 55.9089 162.545 56.2088 162.799 56.3954C163.053 56.5821 163.382 56.6341 163.681 56.5331C164.729 56.1812 165.819 56.0068 166.909 56.0068C168 56.0068 169.09 56.1812 170.138 56.5331C170.437 56.6341 170.766 56.5821 171.02 56.3954C171.273 56.2088 171.424 55.9089 171.424 55.5906V53.0019H173.001V55.5906C173.001 56.1384 173.439 56.5851 173.983 56.5851C174.526 56.5851 174.964 56.1414 174.964 55.5906V53.0019H185.728V88.7335H174.964V86.1447C174.964 85.597 174.526 85.1502 173.983 85.1502C173.439 85.1502 173.001 85.5939 173.001 86.1447V88.7335H171.424V86.1447C171.424 85.8265 171.273 85.5266 171.02 85.3399C170.766 85.1533 170.437 85.1013 170.138 85.2023C169.09 85.5542 168 85.7286 166.909 85.7286C165.819 85.7286 164.729 85.5542 163.681 85.2023C163.382 85.1013 163.053 85.1533 162.799 85.3399C162.545 85.5266 162.394 85.8265 162.394 86.1447V88.7335H147.206V53.0019H154.203ZM164.354 92.0475V87.4024C165.2 87.586 166.052 87.7114 166.909 87.7114C167.767 87.7114 168.622 87.586 169.464 87.4024V92.0475C168.619 91.8639 167.767 91.7384 166.909 91.7384C166.052 91.7384 165.197 91.8639 164.354 92.0475ZM154.203 90.7194H162.394V93.3082C162.394 93.6264 162.545 93.9263 162.799 94.113C163.053 94.2996 163.382 94.3516 163.681 94.2507C164.729 93.8988 165.819 93.7244 166.909 93.7244C168 93.7244 169.09 93.8988 170.138 94.2507C170.437 94.3516 170.766 94.2996 171.02 94.113C171.273 93.9263 171.428 93.6264 171.428 93.3082V90.7194H173.004V93.3082C173.004 93.8559 173.442 94.3027 173.986 94.3027C174.529 94.3027 174.967 93.859 174.967 93.3082V90.7194H185.731L185.731 126.451H174.967V123.862C174.967 123.315 174.529 122.868 173.986 122.868C173.442 122.868 173.004 123.311 173.004 123.862V126.451H171.428V123.862C171.428 123.544 171.276 123.244 171.023 123.057C170.769 122.871 170.44 122.819 170.141 122.92C169.093 123.272 168.003 123.446 166.912 123.446C165.822 123.446 164.732 123.272 163.684 122.92C163.385 122.819 163.056 122.871 162.802 123.057C162.548 123.244 162.397 123.544 162.397 123.862V126.451H147.209L147.209 90.7194H154.207H154.203ZM164.354 129.765V125.12C165.2 125.304 166.052 125.429 166.909 125.429C167.767 125.429 168.622 125.304 169.464 125.12V129.765C168.619 129.581 167.767 129.456 166.909 129.456C166.052 129.456 165.197 129.581 164.354 129.765ZM147.206 172.118V128.434H162.394V131.023C162.394 131.341 162.545 131.641 162.799 131.827C163.053 132.014 163.382 132.066 163.681 131.965C164.729 131.613 165.819 131.439 166.909 131.439C168 131.439 169.09 131.613 170.138 131.965C170.437 132.066 170.766 132.014 171.02 131.827C171.273 131.641 171.428 131.341 171.428 131.023V128.434H173.004V131.023C173.004 131.57 173.442 132.017 173.986 132.017C174.529 132.017 174.967 131.573 174.967 131.023V128.434H185.731V190.907H147.242C147.242 190.907 147.221 190.913 147.209 190.913V172.115L147.206 172.118ZM147.206 192.89C147.206 192.89 147.227 192.896 147.239 192.896H185.728V218.722H176.988V213.533C176.988 207.801 172.403 203.156 166.746 203.156H147.239C147.239 203.156 147.218 203.162 147.206 203.162V192.89ZM147.206 205.133C147.206 205.133 147.227 205.139 147.239 205.139H166.746C169.036 205.139 171.101 206.075 172.602 207.596C174.103 209.117 175.028 211.21 175.028 213.529V218.719H147.239C147.239 218.719 147.218 218.725 147.206 218.725V205.13V205.133ZM147.206 226.562C147.206 226.562 147.227 226.568 147.239 226.568H166.746C169.036 226.568 171.101 227.504 172.602 229.025C174.103 230.546 175.028 232.639 175.028 234.959V240.405H154.542C154.207 237.56 151.845 235.347 148.945 235.347H147.206V226.559V226.562ZM143.506 245.464C141.461 245.461 139.806 243.784 139.803 241.712V241.088C139.806 239.016 141.461 237.339 143.506 237.336H148.945C150.76 237.339 152.262 238.664 152.579 240.408C152.618 240.629 152.648 240.855 152.648 241.088V241.712C152.648 241.945 152.621 242.171 152.579 242.391C152.259 244.136 150.757 245.461 148.945 245.464H143.506ZM176.988 240.405V234.959C176.988 229.227 172.403 224.582 166.746 224.582H147.239C147.239 224.582 147.218 224.588 147.206 224.588V220.699C147.206 220.699 147.227 220.705 147.239 220.705H185.728V240.402H176.988V240.405ZM187.688 269.705V242.391H188.996C189.331 245.237 191.693 247.45 194.592 247.45H196.332V255.418C196.25 255.513 196.184 255.626 196.141 255.754C196.03 256.091 196.123 256.437 196.332 256.691V269.99H187.631C187.658 269.898 187.688 269.803 187.688 269.702V269.705ZM299.479 271.979H305.586V274.944C305.586 278.958 308.8 282.214 312.762 282.214H319.452V319.76H304.822C301.871 319.754 299.482 317.334 299.476 314.344V271.979H299.479ZM297.519 308.861H282.207V302.459C282.207 298.796 279.275 295.825 275.659 295.825H264.886V284.772H297.519V308.861ZM165.583 284.772V318.699C164.94 318.613 164.303 318.487 163.684 318.279C163.385 318.178 163.056 318.23 162.802 318.417C162.548 318.604 162.397 318.904 162.397 319.222V321.811H147.209V284.772H165.586H165.583ZM154.203 323.797H162.394V326.385C162.394 326.704 162.545 327.003 162.799 327.19C163.053 327.377 163.382 327.429 163.681 327.328C164.729 326.976 165.819 326.801 166.909 326.801C168 326.801 169.09 326.976 170.138 327.328C170.437 327.429 170.766 327.377 171.02 327.19C171.273 327.003 171.424 326.704 171.424 326.385V323.797H173.001V326.385C173.001 326.933 173.439 327.38 173.983 327.38C174.526 327.38 174.964 326.936 174.964 326.385V323.797H185.728V359.528H174.964V356.939C174.964 356.392 174.526 355.945 173.983 355.945C173.439 355.945 173.001 356.389 173.001 356.939V359.528H171.424V356.939C171.424 356.621 171.273 356.321 171.02 356.135C170.766 355.948 170.437 355.896 170.138 355.997C169.09 356.349 168 356.523 166.909 356.523C165.819 356.523 164.729 356.349 163.681 355.997C163.382 355.896 163.053 355.948 162.799 356.135C162.545 356.321 162.394 356.621 162.394 356.939V359.528H147.206V323.797H154.203ZM164.354 362.845V358.2C165.2 358.384 166.052 358.509 166.909 358.509C167.767 358.509 168.622 358.384 169.464 358.2V362.845C168.619 362.662 167.767 362.536 166.909 362.536C166.052 362.536 165.197 362.662 164.354 362.845ZM164.354 400.563V395.918C165.2 396.101 166.052 396.227 166.909 396.227C167.767 396.227 168.622 396.101 169.464 395.918V400.563C168.619 400.379 167.767 400.254 166.909 400.254C166.052 400.254 165.197 400.379 164.354 400.563ZM177.942 397.249H174.964V394.66C174.964 394.112 174.526 393.666 173.983 393.666C173.439 393.666 173.001 394.109 173.001 394.66V397.249H171.424V394.66C171.424 394.342 171.273 394.042 171.02 393.855C170.766 393.669 170.437 393.617 170.138 393.718C169.09 394.069 168 394.244 166.909 394.244C165.819 394.244 164.729 394.069 163.681 393.718C163.382 393.617 163.053 393.669 162.799 393.855C162.545 394.042 162.394 394.342 162.394 394.66V397.249H147.206V361.517H162.394V364.106C162.394 364.424 162.545 364.724 162.799 364.911C163.053 365.097 163.382 365.149 163.681 365.048C164.729 364.697 165.819 364.522 166.909 364.522C168 364.522 169.09 364.697 170.138 365.048C170.437 365.149 170.766 365.097 171.02 364.911C171.273 364.724 171.428 364.424 171.428 364.106V361.517H173.004V364.106C173.004 364.654 173.442 365.1 173.986 365.1C174.529 365.1 174.967 364.657 174.967 364.106V361.517H185.731V397.249H177.945H177.942ZM254.754 388.228V377.16C256.946 377.172 261.613 377.197 266.39 377.212V394.957C266.39 402.855 263.234 409.994 258.127 415.171C253.017 420.346 245.971 423.543 238.176 423.543H187.688V410.511H232.758C244.905 410.511 254.754 400.535 254.754 388.225V388.228ZM253.564 438.632C253.833 431.594 256.72 425.248 261.317 420.591C263.083 418.8 265.104 417.267 267.306 416.034V438.632H253.564ZM269.266 438.632V415.19C269.266 415.147 269.248 415.11 269.242 415.07C272.576 413.549 276.26 412.683 280.153 412.683H280.244V438.629H269.266V438.632ZM280.247 410.701H280.156C264.708 410.701 252.153 423.118 251.604 438.632H187.688V425.532H238.176C254.841 425.532 268.351 411.845 268.351 394.96V377.221C270.051 377.224 271.724 377.227 273.258 377.227C275.261 377.227 277.031 377.224 278.32 377.212C278.966 377.206 279.492 377.2 279.872 377.19C280.027 377.187 280.138 377.181 280.247 377.178L280.247 410.704V410.701ZM282.207 362.613H297.969V391.554C295.62 391.983 293.808 393.91 293.496 396.331H282.207V362.613Z" fill="#C06520"/>
<path d="M319.454 277.685C320.182 277.373 320.832 276.924 321.414 276.4C322.894 275.069 323.846 273.147 323.846 270.984C323.846 268.821 322.894 266.899 321.414 265.568C320.832 265.045 320.182 264.595 319.454 264.283C318.6 263.919 317.657 263.714 316.67 263.714C313.758 263.714 311.264 265.479 310.14 268.004C309.862 268.625 309.69 269.292 309.594 269.993C309.578 270.106 309.569 270.222 309.56 270.338C309.542 270.556 309.497 270.764 309.497 270.987C309.497 271.327 309.551 271.651 309.597 271.982C310.068 275.449 312.925 278.123 316.446 278.236C316.522 278.236 316.594 278.261 316.673 278.261C317.41 278.261 318.104 278.117 318.772 277.906C319.001 277.835 319.237 277.783 319.454 277.692V277.685ZM311.838 272.946C311.714 272.636 311.617 272.312 311.554 271.979C311.493 271.657 311.454 271.327 311.454 270.984C311.454 270.644 311.493 270.314 311.554 269.99C311.572 269.892 311.602 269.8 311.626 269.705C312.194 267.41 314.226 265.702 316.67 265.696C317.697 265.696 318.648 266.012 319.454 266.529C320.309 267.08 320.995 267.869 321.414 268.815C321.71 269.475 321.886 270.207 321.886 270.981C321.886 271.755 321.71 272.487 321.414 273.147C320.992 274.09 320.309 274.882 319.454 275.433C318.814 275.843 318.08 276.103 317.292 276.201C317.087 276.226 316.881 276.266 316.67 276.266C315.74 276.266 314.879 275.996 314.124 275.562C313.097 274.974 312.281 274.059 311.838 272.942V272.946Z" fill="#C06520"/>
</g>
<path d="M174.713 198.346C174.713 280.381 240.35 346.884 321.318 346.884C402.286 346.884 467.923 280.381 467.923 198.346C467.923 116.31 402.286 49.8073 321.318 49.8073C240.35 49.8073 174.713 116.31 174.713 198.346Z" stroke="#C06520" stroke-width="2.31" stroke-miterlimit="10"/>
<path d="M191.523 228.003C204.899 288.126 257.997 333.185 321.321 333.185C384.644 333.185 437.739 288.126 451.115 228.003" stroke="#C06520" stroke-width="2.31" stroke-miterlimit="10"/>
<path d="M451.119 168.691C437.743 108.568 384.642 63.5099 321.319 63.5099C257.995 63.5099 204.897 108.565 191.521 168.691" stroke="#C06520" stroke-width="2.31" stroke-miterlimit="10"/>
<path d="M465.015 168.691H423.868C409.271 168.71 397.448 181.975 397.432 198.349C397.448 214.72 409.275 227.985 423.868 228.003L465.015 228.003" stroke="#C06520" stroke-width="2.31" stroke-miterlimit="10"/>
<path d="M177.625 228.003H218.802C233.395 227.985 245.222 214.72 245.237 198.349C245.222 181.975 233.395 168.713 218.802 168.691L177.731 168.691" stroke="#C06520" stroke-width="2.31" stroke-miterlimit="10"/>
<path d="M209.98 152.44L211.777 148.269C212.834 145.827 213.912 146.075 214.912 146.522L223.136 150.169C224.763 150.894 225.017 151.705 224.22 153.56L222.335 157.923L209.98 152.44ZM212.465 150.839L221.792 154.979L222.444 153.468C222.728 152.807 222.477 152.611 222.079 152.43L214.29 148.976C213.821 148.768 213.423 148.624 213.036 149.523L212.468 150.839H212.465Z" fill="#C06520"/>
<path d="M217.578 136.782L229.306 143.535L228.116 145.662L216.385 138.908L217.578 136.782Z" fill="#C06520"/>
<path d="M231.71 135.059C232.082 135.325 232.767 135.821 233.495 134.777C234.163 133.823 233.477 133.299 232.903 132.883C231.876 132.146 231.23 132.072 228.796 132.403C226.688 132.715 225.129 132.932 223.716 131.916C223.127 131.491 222.749 130.955 222.574 130.307C222.296 129.193 222.749 128.116 223.477 127.075C224.809 125.163 226.026 125.028 227.165 125.845L229.125 127.256L227.832 129.104L225.89 127.703C225.549 127.458 225.099 127.231 224.583 127.969C223.927 128.899 224.429 129.389 224.975 129.78C226.093 130.588 226.941 130.478 229.542 130.105C231.266 129.875 232.746 129.667 234.16 130.686C234.89 131.212 235.407 131.977 235.54 132.755C235.727 133.969 235.06 135.019 234.664 135.588C232.616 138.517 230.798 137.21 230.239 136.803L228.403 135.481L229.708 133.618L231.713 135.059H231.71Z" fill="#C06520"/>
<path d="M229.203 119.863L234.664 113.676L235.845 114.75L233.918 116.931L242.785 124.976L241.124 126.858L232.257 118.813L230.387 120.934L229.203 119.863Z" fill="#C06520"/>
<path d="M240.637 107.852L249.818 117.865L248.049 119.535L238.867 109.52L240.637 107.852Z" fill="#C06520"/>
<path d="M248.571 101.12L255.765 110.674L258.979 108.195L259.976 109.52L254.799 113.516L246.608 102.635L248.571 101.12Z" fill="#C06520"/>
<path d="M259.317 93.6754L265.451 103.966L268.912 101.849L269.761 103.275L264.189 106.687L257.209 94.9698L259.317 93.6754Z" fill="#C06520"/>
<path d="M268.498 88.5407L274.049 85.9153L274.771 87.4728L271.485 89.0273L273.149 92.6473L276.1 91.2488L276.803 92.7758L273.85 94.1742L275.749 98.296L279.056 96.7293L279.778 98.2868L274.206 100.928L268.498 88.5407Z" fill="#C06520"/>
<path d="M281.087 83.1062L284.883 81.8516C287.728 80.9122 288.238 81.3773 289.063 83.9507C289.8 86.2304 290.026 87.1943 288.121 87.8033L288.145 87.8767C289.866 87.4728 290.316 88.097 290.869 89.829L291.325 91.2427C291.829 92.8033 291.956 93.0267 292.603 93.6662L290.183 94.468C289.739 93.7795 289.356 93.1919 288.933 91.87L288.637 90.952C288.48 90.4594 288.121 89.4343 287.71 89.1007C287.311 88.807 287.036 88.8988 285.662 89.3516L287.586 95.3278L285.267 96.0959L281.09 83.1123L281.087 83.1062ZM283.935 83.8926L285.227 87.9012L286.324 87.5401C287.501 87.1546 287.426 86.7476 286.734 84.5964C286.272 83.1613 286.136 83.1643 285.134 83.4948L283.935 83.8926Z" fill="#C06520"/>
<path d="M297.646 78.4519L300.482 91.8088L298.124 92.3229L295.285 78.963L297.646 78.4519Z" fill="#C06520"/>
<path d="M305.456 77.1055L311.545 76.4109L311.735 78.1215L308.129 78.5284L308.573 82.4881L311.813 82.1148L312.001 83.7886L308.763 84.1558L309.264 88.6662L312.898 88.2501L313.088 89.9606L306.975 90.6552L305.459 77.1055H305.456Z" fill="#C06520"/>
<path d="M326.96 76.0927L335.133 76.6741L335.018 78.2744L332.137 78.0664L331.285 90.0769L328.797 89.8963L329.648 77.8889L326.845 77.6869L326.96 76.0896V76.0927Z" fill="#C06520"/>
<path d="M341.227 77.5951L347.246 78.7243L346.938 80.4165L343.368 79.7433L342.649 83.657L345.851 84.2567L345.549 85.9092L342.344 85.3094L341.526 89.7709L345.117 90.4471L344.806 92.1332L338.759 91.001L341.224 77.5921L341.227 77.5951Z" fill="#C06520"/>
<path d="M352.933 91.7262C352.797 92.1699 352.549 92.9808 353.751 93.3602C354.857 93.706 355.135 92.8829 355.343 92.2005C355.715 90.9826 355.582 90.3339 354.507 88.097C353.558 86.1662 352.867 84.7372 353.38 83.0603C353.594 82.3565 353.975 81.8271 354.531 81.4569C355.488 80.8418 356.639 80.9428 357.844 81.3192C360.052 82.0107 360.559 83.1368 360.148 84.4893L359.435 86.8149L357.303 86.1478L358.007 83.8406C358.131 83.4336 358.203 82.9318 357.349 82.6625C356.267 82.3259 355.965 82.9593 355.769 83.6019C355.364 84.933 355.73 85.7164 356.899 88.1001C357.651 89.6913 358.306 91.053 357.795 92.7268C357.53 93.5959 356.977 94.3303 356.285 94.7036C355.21 95.2544 354.014 94.9423 353.362 94.7372C349.973 93.6754 350.635 91.5181 350.837 90.8541L351.501 88.6785L353.658 89.3517L352.933 91.7293V91.7262Z" fill="#C06520"/>
<path d="M365.078 96.1754C364.89 96.5977 364.549 97.378 365.703 97.8951C366.76 98.3725 367.134 97.5861 367.421 96.9312C367.932 95.7623 367.877 95.1075 367.071 92.7513C366.355 90.7164 365.836 89.2109 366.542 87.6044C366.838 86.9312 367.279 86.4569 367.871 86.1478C368.892 85.6582 370.025 85.8938 371.178 86.4079C373.292 87.3657 373.664 88.5438 373.099 89.8351L372.124 92.0628L370.082 91.1448L371.051 88.9324C371.224 88.5499 371.353 88.0511 370.535 87.687C369.502 87.2219 369.128 87.8155 368.856 88.4336C368.297 89.7096 368.569 90.5267 369.448 93.042C370.006 94.7127 370.502 96.1448 369.795 97.7544C369.433 98.5836 368.792 99.2477 368.064 99.5322C366.932 99.9545 365.778 99.4986 365.153 99.2171C361.909 97.7605 362.821 95.6889 363.099 95.0524L364.014 92.9655L366.08 93.8957L365.081 96.1785L365.078 96.1754Z" fill="#C06520"/>
<path d="M380.682 91.5151L385.949 94.6699L385.085 96.154L381.966 94.2813L379.966 97.7177L382.769 99.3976L381.923 100.845L379.118 99.1681L376.834 103.079L379.978 104.964L379.115 106.445L373.823 103.275L380.685 91.5089L380.682 91.5151Z" fill="#C06520"/>
<path d="M394.331 100.606L391.25 109.232C391.06 109.747 390.909 110.111 390.746 110.548L390.87 110.643C391.172 110.074 391.474 109.505 391.827 108.954L392.512 107.877L396.575 102.363L398.387 103.78L390.163 114.581L388.019 112.904L391.767 102.926L391.64 102.828L391.033 103.844L390.407 104.841L385.835 111.197L384.023 109.783L392.247 98.9815L394.331 100.606Z" fill="#C06520"/>
<path d="M404.529 109.288L407.701 112.516C409.555 114.401 408.933 115.331 408.166 116.108L401.817 122.525C400.561 123.801 399.724 123.743 398.314 122.308L394.998 118.933L404.529 109.288ZM405.091 112.216L397.894 119.502L399.045 120.671C399.546 121.182 399.818 121.017 400.126 120.701L406.133 114.621C406.498 114.254 406.776 113.933 406.091 113.232L405.088 112.216H405.091Z" fill="#C06520"/>
<path d="M416.069 122.103L405.595 130.689L404.073 128.789L414.547 120.203L416.069 122.103Z" fill="#C06520"/>
<path d="M420.842 128.584L424.209 133.755L422.793 134.707L420.796 131.638L417.516 133.832L419.307 136.583L417.921 137.51L416.13 134.753L412.388 137.256L414.399 140.343L412.983 141.292L409.603 136.093L420.842 128.587V128.584Z" fill="#C06520"/>
<path d="M427.987 140.337L429.769 143.954C431.107 146.665 430.73 147.244 428.341 148.456C426.227 149.533 425.318 149.9 424.445 148.082L424.375 148.119C425.022 149.781 424.481 150.322 422.877 151.136L421.563 151.803C420.111 152.538 419.914 152.7 419.386 153.443L418.247 151.136C418.854 150.591 419.371 150.123 420.597 149.499L421.449 149.064C421.911 148.832 422.853 148.324 423.116 147.859C423.345 147.418 423.216 147.155 422.572 145.848L417.027 148.661L415.937 146.445L427.987 140.337ZM427.637 143.309L423.916 145.197L424.433 146.24C424.985 147.36 425.366 147.225 427.362 146.213C428.694 145.539 428.667 145.402 428.199 144.45L427.634 143.309H427.637Z" fill="#C06520"/>
<path d="M424.336 261.761L416.628 258.487C415.517 258.022 415.109 257.774 414.36 257.343L414.267 257.505C415.49 258.258 415.87 258.551 416.767 259.258L422.935 264.105L421.666 266.223L411.253 257.272L412.72 254.812L419.525 257.777C420.228 258.089 420.866 258.475 421.585 258.919L421.708 258.713C421.086 258.334 420.241 257.811 419.908 257.542L413.974 252.713L415.417 250.295L428.021 255.583L426.785 257.655L419.06 254.032C418.123 253.612 417.701 253.352 416.967 252.933L416.885 253.068C417.93 253.713 418.422 254.044 418.99 254.515L425.475 259.84L424.333 261.755L424.336 261.761Z" fill="#C06520"/>
<path d="M412.714 277.731L408.616 274.056L407.097 275.791L411.195 279.469L409.573 281.324L399.486 272.278L401.129 270.403L405.816 274.604L407.317 272.894L402.63 268.689L404.252 266.838L414.339 275.883L412.714 277.734V277.731Z" fill="#C06520"/>
<path d="M398.68 291.636L389.982 281.214L391.824 279.635L400.525 290.054L398.68 291.636Z" fill="#C06520"/>
<path d="M381.341 290.749C381.096 290.354 380.646 289.638 379.58 290.32C378.605 290.948 379.042 291.694 379.423 292.3C380.097 293.38 380.67 293.702 383.053 294.323C385.122 294.855 386.647 295.253 387.574 296.74C387.964 297.361 388.115 297.995 388.037 298.668C387.876 299.8 387.055 300.626 385.989 301.309C384.038 302.563 382.86 302.217 382.114 301.021L380.821 298.962L382.709 297.75L383.986 299.791C384.213 300.152 384.545 300.538 385.3 300.054C386.255 299.439 385.974 298.793 385.614 298.218C384.877 297.04 384.053 296.814 381.498 296.159C379.816 295.703 378.366 295.329 377.436 293.836C376.959 293.068 376.759 292.162 376.928 291.388C377.212 290.201 378.221 289.488 378.798 289.112C381.791 287.193 382.987 289.108 383.358 289.696L384.566 291.624L382.661 292.848L381.341 290.736V290.749Z" fill="#C06520"/>
<path d="M367.632 310.602L365.361 311.587L365.545 304.148L359.553 299.258L361.846 298.264L366.421 302.089C366.551 302.202 367.119 302.735 367.258 302.86L364.79 296.991L367.037 296.018L372.316 308.576L370.045 309.562L367.952 304.577C367.78 304.17 367.717 303.943 367.581 303.625C367.638 304.17 367.647 304.73 367.644 304.926L367.635 310.602H367.632Z" fill="#C06520"/>
<path d="M353.277 315.55L351.459 312.75C350.876 311.844 350.608 311.095 350.306 310.336L350.127 310.382C350.185 310.825 350.342 311.884 350.197 313.234L349.81 316.447L347.418 317.065L348.463 308.619L347.068 303.074L349.638 302.407L351.03 307.937L355.718 314.923L353.274 315.553L353.277 315.55Z" fill="#C06520"/>
<path d="M322.393 319.812L316.036 319.693L316.069 317.995L319.98 318.065L320.052 314.109L316.507 314.038L316.537 312.377L320.055 312.447L320.17 306.113L322.641 306.156L322.393 319.812Z" fill="#C06520"/>
<path d="M304.75 318.601L300.817 317.918C297.87 317.401 297.637 316.749 298.09 314.087C298.495 311.722 298.736 310.764 300.699 311.122L300.712 311.046C299.002 310.593 298.896 309.828 299.201 308.035L299.449 306.569C299.727 304.947 299.715 304.69 299.44 303.815L301.95 304.259C302.022 305.072 302.089 305.773 301.853 307.144L301.696 308.099C301.606 308.613 301.451 309.684 301.66 310.177C301.877 310.623 302.161 310.672 303.587 310.92L304.644 304.73L307.048 305.146L304.753 318.601H304.75ZM302.596 316.557L303.303 312.398L302.164 312.202C300.953 311.985 300.829 312.383 300.449 314.611C300.195 316.095 300.319 316.159 301.352 316.339L302.593 316.557H302.596Z" fill="#C06520"/>
<path d="M281.473 312.775L283.107 298.91L285.372 299.696L285.022 302.227L287.659 303.142L288.858 300.899L291.096 301.676L284.285 313.751L281.473 312.775ZM283.808 310.865C284.448 309.207 284.509 309.02 284.636 308.824L286.88 304.632L284.793 303.907L284.152 308.696C284.083 309.222 283.941 309.724 283.612 310.795L283.811 310.865H283.808Z" fill="#C06520"/>
<path d="M266.049 305.984L267.695 296.948C267.801 296.413 267.889 296.021 267.982 295.568L267.843 295.492C267.635 296.104 267.429 296.716 267.173 297.318L266.668 298.5L263.546 304.626L261.531 303.53L267.901 291.483L270.29 292.774L268.206 303.261L268.342 303.337L268.776 302.236L269.236 301.143L272.721 294.093L274.738 295.189L268.366 307.242L266.049 305.984Z" fill="#C06520"/>
<path d="M251.742 283.836C252.162 283.288 253.545 281.584 256.363 283.325L257.034 283.135C256.161 282.41 255.518 281.596 255.989 280.966C256.351 280.488 257.435 280.063 260.57 282.612L260.214 283.089C258.308 281.492 257.946 281.97 257.879 282.061C257.565 282.477 258.308 283.074 259.075 283.72L257.39 284.118C259.839 286.431 258.659 287.998 257.973 288.903L254.029 294.124C253.295 295.094 251.673 297.242 248.375 294.687C245.325 292.331 246.753 290.443 247.333 289.675L248.378 288.291L250.32 289.797L249.051 291.471C248.789 291.823 248.206 292.591 249.417 293.53C250.646 294.482 251.25 293.683 251.679 293.117L256.206 287.129C256.659 286.526 257.158 285.865 255.968 284.944C254.738 283.986 254.18 284.727 253.772 285.262L252.168 287.386L250.208 285.865L251.739 283.836H251.742Z" fill="#C06520"/>
<path d="M233.809 281.088L241.55 269.57L243.202 271.324L241.74 273.405L243.67 275.443L245.748 274.013L247.385 275.745L235.869 283.264L233.812 281.088H233.809ZM236.748 280.488C238.071 279.316 238.206 279.182 238.412 279.062L242.302 276.4L240.774 274.782L238.037 278.723C237.738 279.16 237.385 279.54 236.606 280.335L236.748 280.488Z" fill="#C06520"/>
<path d="M223.528 268.377L234.437 260.351L235.859 262.333L224.951 270.357L223.528 268.377Z" fill="#C06520"/>
<path d="M225.736 250.938C226.141 250.721 226.881 250.323 226.292 249.194C225.745 248.16 224.975 248.542 224.353 248.879C223.242 249.475 222.882 250.032 222.085 252.392C221.411 254.439 220.907 255.947 219.373 256.777C218.73 257.122 218.092 257.22 217.44 257.092C216.335 256.844 215.586 255.95 214.994 254.824C213.909 252.753 214.332 251.593 215.561 250.932L217.688 249.784L218.736 251.783L216.631 252.915C216.259 253.117 215.86 253.426 216.28 254.221C216.812 255.234 217.467 254.999 218.056 254.68C219.267 254.029 219.557 253.212 220.388 250.684C220.958 249.022 221.439 247.584 222.976 246.761C223.767 246.333 224.676 246.207 225.422 246.44C226.573 246.816 227.201 247.893 227.521 248.505C229.188 251.682 227.216 252.74 226.612 253.065L224.619 254.139L223.559 252.119L225.733 250.944L225.736 250.938Z" fill="#C06520"/>
</g>
<g clip-path="url(#clip1_235_14303)">
<path d="M110.919 4.00819V43.3586H13.0082C6.89376 43.3586 1.94824 48.4666 1.94824 54.759V185.766C1.94824 192.068 6.90375 197.166 13.0082 197.166H87.4707C93.5852 197.166 98.5307 202.274 98.5307 208.567V421.992H329.052V346.483" stroke="#C06520" stroke-width="3.9" stroke-linecap="round" stroke-linejoin="round"/>
</g>
<path d="M108.481 2H108.072C104.667 2 101.907 5.03321 101.907 8.77488V9.22511C101.907 12.9668 104.667 16 108.072 16H108.481C111.886 16 114.646 12.9668 114.646 9.22511V8.77488C114.646 5.03321 111.886 2 108.481 2Z" fill="black" stroke="#C06520" stroke-width="2.19" stroke-miterlimit="10"/>
<defs>
<clipPath id="clip0_235_14303">
<rect width="306" height="302.016" fill="white" transform="matrix(0 1 -1 0 473.495 45)"/>
</clipPath>
<clipPath id="clip1_235_14303">
<rect width="331" height="422" fill="white" transform="translate(0 2)"/>
</clipPath>
</defs>
</svg>
