<svg width="622" height="1019" viewBox="0 0 622 1019" fill="none" xmlns="http://www.w3.org/2000/svg">
<g clip-path="url(#clip0_218_36)">
<path d="M618.63 18.0201H588.12C582.84 18.0201 578.56 22.5676 578.56 28.1776V123.708" stroke="#C06520" stroke-width="2.59" stroke-linecap="round" stroke-linejoin="round"/>
<path d="M613.78 8.51068H612.9C609.58 8.51068 606.89 11.3696 606.89 14.8963V22.4614C606.89 25.9881 609.58 28.847 612.9 28.847H613.78C617.099 28.847 619.79 25.9881 619.79 22.4614V14.8963C619.79 11.3696 617.099 8.51068 613.78 8.51068Z" fill="black" stroke="#C06520" stroke-width="2.59" stroke-linecap="round" stroke-linejoin="round"/>
<path d="M228.31 145.361H219.17C220.15 148.517 220.15 151.917 219.17 155.073H228.31C227.33 151.917 227.33 148.517 228.31 145.361Z" fill="black" stroke="#C06520" stroke-width="2.59" stroke-linecap="round" stroke-linejoin="round"/>
<path d="M228.31 140.506H219.17" stroke="#C06520" stroke-width="2.59" stroke-linecap="round" stroke-linejoin="round"/>
<path d="M312.88 26.3714H9.21043C5.24043 26.3714 2.01043 22.9501 2.01043 18.7214L1.94043 10.8163" stroke="#C06520" stroke-width="2.59" stroke-linecap="round" stroke-linejoin="round"/>
<path d="M206.88 122.039H241.43" stroke="#C06520" stroke-width="2.59" stroke-linecap="round" stroke-linejoin="round"/>
<path d="M276.78 9.3288V80.5698" stroke="#C06520" stroke-width="2.59" stroke-linecap="round" stroke-linejoin="round"/>
<path d="M578.56 26.3714H354.67C350.7 26.3714 347.47 22.9501 347.47 18.7214L347.77 11.8044" stroke="#C06520" stroke-width="2.59" stroke-linecap="round" stroke-linejoin="round"/>
<path d="M476.86 10.9438L476.8 26.637" stroke="#C06520" stroke-width="2.59" stroke-linecap="round" stroke-linejoin="round"/>
<path d="M279.93 11.8044H185.41" stroke="#C06520" stroke-width="2.59" stroke-linecap="round" stroke-linejoin="round"/>
<path d="M276.78 11.8044H314.52L314.94 152.204H228.31" stroke="#C06520" stroke-width="2.59" stroke-linecap="round" stroke-linejoin="round"/>
<path d="M380.62 26.3714L380.52 10.7101" stroke="#C06520" stroke-width="2.59" stroke-linecap="round" stroke-linejoin="round"/>
<path d="M380.62 26.3714V48.7053" stroke="#C06520" stroke-width="2.59" stroke-linecap="round" stroke-linejoin="round"/>
<path d="M428.74 26.3714V48.7053" stroke="#C06520" stroke-width="2.59" stroke-linecap="round" stroke-linejoin="round"/>
<path d="M476.86 26.3714V48.7053" stroke="#C06520" stroke-width="2.59" stroke-linecap="round" stroke-linejoin="round"/>
<path d="M380.62 58.9691V81.3029" stroke="#C06520" stroke-width="2.59" stroke-linecap="round" stroke-linejoin="round"/>
<path d="M428.74 58.9691V81.3029" stroke="#C06520" stroke-width="2.59" stroke-linecap="round" stroke-linejoin="round"/>
<path d="M476.86 58.9691V81.3029" stroke="#C06520" stroke-width="2.59" stroke-linecap="round" stroke-linejoin="round"/>
<path d="M331.4 11.8044L330.84 152.204" stroke="#C06520" stroke-width="2.59" stroke-linecap="round" stroke-linejoin="round"/>
<path d="M331.4 11.8044H347.85" stroke="#C06520" stroke-width="2.59" stroke-linejoin="round"/>
<path d="M428.76 10.9119V25.1708" stroke="#C06520" stroke-width="2.59" stroke-linecap="round" stroke-linejoin="round"/>
<path d="M249.11 12.4313V80.5698" stroke="#C06520" stroke-width="2.59" stroke-linecap="round" stroke-linejoin="round"/>
<path d="M376.05 54.0284L331.37 53.9221" stroke="#C06520" stroke-width="2.59" stroke-linecap="round" stroke-linejoin="round"/>
<path d="M249.11 41.0659H235.54C228.93 41.0659 223.57 46.7609 223.57 53.784V140.506" stroke="#C06520" stroke-width="2.59" stroke-linecap="round" stroke-linejoin="round"/>
<path d="M313.62 112.7H302.57C295.96 112.7 290.6 118.395 290.6 125.418V152.204" stroke="#C06520" stroke-width="2.59" stroke-linecap="round" stroke-linejoin="round"/>
<path d="M275.44 81.9617H174.58" stroke="#C06520" stroke-width="2.59" stroke-linecap="round" stroke-linejoin="round"/>
<path d="M213.63 12.6119V80.5698" stroke="#C06520" stroke-width="2.59" stroke-linecap="round" stroke-linejoin="round"/>
<path d="M331.34 81.9617H510.4" stroke="#C06520" stroke-width="2.59" stroke-linecap="round" stroke-linejoin="round"/>
<path d="M562.67 26.3714C560.71 26.722 533.84 56.8228 533.84 56.8228V219.163" stroke="#C06520" stroke-width="2.59" stroke-linecap="round" stroke-linejoin="round"/>
<path d="M407.13 36.0827C412.178 36.0827 416.27 31.7348 416.27 26.3714C416.27 21.008 412.178 16.6601 407.13 16.6601C402.082 16.6601 397.99 21.008 397.99 26.3714C397.99 31.7348 402.082 36.0827 407.13 36.0827Z" fill="black" stroke="#C06520" stroke-width="2.59" stroke-miterlimit="10"/>
<path d="M385.19 48.6946H376.05C377.03 51.8503 377.03 55.2503 376.05 58.4059H385.19C384.21 55.2503 384.21 51.8503 385.19 48.6946Z" fill="black" stroke="#C06520" stroke-width="2.59" stroke-linecap="round" stroke-linejoin="round"/>
<path d="M385.19 43.839H376.05" stroke="#C06520" stroke-width="2.59" stroke-linecap="round" stroke-linejoin="round"/>
<path d="M433.31 48.6946H424.17C425.15 51.8503 425.15 55.2503 424.17 58.4059H433.31C432.33 55.2503 432.33 51.8503 433.31 48.6946Z" fill="black" stroke="#C06520" stroke-width="2.59" stroke-linecap="round" stroke-linejoin="round"/>
<path d="M433.31 43.839H424.17" stroke="#C06520" stroke-width="2.59" stroke-linecap="round" stroke-linejoin="round"/>
<path d="M481.43 48.6946H472.29C473.27 51.8503 473.27 55.2503 472.29 58.4059H481.43C480.45 55.2503 480.45 51.8503 481.43 48.6946Z" fill="black" stroke="#C06520" stroke-width="2.59" stroke-linecap="round" stroke-linejoin="round"/>
<path d="M481.43 43.839H472.28" stroke="#C06520" stroke-width="2.59" stroke-linecap="round" stroke-linejoin="round"/>
<path d="M277.21 1.63626H276.33C273.011 1.63626 270.32 4.49522 270.32 8.02192V15.587C270.32 19.1137 273.011 21.9726 276.33 21.9726H277.21C280.53 21.9726 283.22 19.1137 283.22 15.587V8.02192C283.22 4.49522 280.53 1.63626 277.21 1.63626Z" fill="black" stroke="#C06520" stroke-width="2.59" stroke-linecap="round" stroke-linejoin="round"/>
<path d="M277.22 71.7829H276.34C273.021 71.7829 270.33 74.6418 270.33 78.1685V85.7336C270.33 89.2603 273.021 92.1192 276.34 92.1192H277.22C280.539 92.1192 283.23 89.2603 283.23 85.7336V78.1685C283.23 74.6418 280.539 71.7829 277.22 71.7829Z" fill="black" stroke="#C06520" stroke-width="2.59" stroke-linecap="round" stroke-linejoin="round"/>
<path d="M135.76 53.5503H213.63" stroke="#C06520" stroke-width="2.59" stroke-linecap="round" stroke-linejoin="round"/>
<path d="M197.62 26.3714V36.2314C197.62 38.8983 199.66 41.0659 202.17 41.0659H213.63" stroke="#C06520" stroke-width="2.59" stroke-linecap="round" stroke-linejoin="round"/>
<path d="M323.03 139.018H321.35C314.96 139.018 309.78 144.522 309.78 151.311V153.096C309.78 159.886 314.96 165.39 321.35 165.39H323.03C329.42 165.39 334.6 159.886 334.6 153.096V151.311C334.6 144.522 329.42 139.018 323.03 139.018Z" fill="black" stroke="#C06520" stroke-width="2.59" stroke-miterlimit="10"/>
<path d="M322.2 146.86C324.98 146.86 327.23 149.25 327.23 152.215C327.23 155.168 324.98 157.57 322.2 157.57C319.42 157.57 317.17 155.179 317.17 152.215C317.17 149.261 319.42 146.86 322.2 146.86Z" fill="black" stroke="#C06520" stroke-width="2.59" stroke-miterlimit="10"/>
<path d="M380.62 81.3029V111.499" stroke="#C06520" stroke-width="2.59" stroke-linecap="round" stroke-linejoin="round"/>
<path d="M427.91 81.3029V111.499" stroke="#C06520" stroke-width="2.59" stroke-linecap="round" stroke-linejoin="round"/>
<path d="M476.87 81.3029V111.499" stroke="#C06520" stroke-width="2.59" stroke-linecap="round" stroke-linejoin="round"/>
<path d="M276.78 92.1299V195.363" stroke="#C06520" stroke-width="2.59" stroke-miterlimit="10"/>
<path d="M385.25 130.954V123.017H386.99V118.863H374.26V123.017H375.99V130.954H366.81V168.63H394.44V130.954H385.25Z" stroke="#C06520" stroke-width="2.59" stroke-linecap="round" stroke-linejoin="round"/>
<path d="M394.44 143.746H366.81V151.832H394.44V143.746Z" stroke="#C06520" stroke-width="2.59" stroke-linecap="round" stroke-linejoin="round"/>
<ellipse cx="371.54" cy="135.119" rx="1.295" ry="1.37594" fill="#C06520"/>
<ellipse cx="377.9" cy="135.119" rx="1.295" ry="1.37594" fill="#C06520"/>
<ellipse cx="384.27" cy="135.119" rx="1.295" ry="1.37594" fill="#C06520"/>
<ellipse cx="390.63" cy="135.119" rx="1.295" ry="1.37594" fill="#C06520"/>
<ellipse cx="374.73" cy="139.688" rx="1.295" ry="1.37594" fill="#C06520"/>
<ellipse cx="381.09" cy="139.688" rx="1.295" ry="1.37594" fill="#C06520"/>
<ellipse cx="387.46" cy="139.688" rx="1.295" ry="1.37594" fill="#C06520"/>
<ellipse cx="371.54" cy="158.335" rx="1.295" ry="1.37594" fill="#C06520"/>
<ellipse cx="377.9" cy="158.335" rx="1.295" ry="1.37594" fill="#C06520"/>
<ellipse cx="384.27" cy="158.335" rx="1.295" ry="1.37594" fill="#C06520"/>
<ellipse cx="390.63" cy="158.335" rx="1.295" ry="1.37594" fill="#C06520"/>
<ellipse cx="374.73" cy="162.893" rx="1.295" ry="1.37594" fill="#C06520"/>
<ellipse cx="381.09" cy="162.893" rx="1.295" ry="1.37594" fill="#C06520"/>
<ellipse cx="387.46" cy="162.893" rx="1.295" ry="1.37594" fill="#C06520"/>
<path d="M432.52 130.975V123.049H434.25V118.884H421.52V123.049H423.26V130.975H414.07V168.652H441.7V130.975H432.52Z" stroke="#C06520" stroke-width="2.59" stroke-linecap="round" stroke-linejoin="round"/>
<path d="M441.7 143.768H414.07V151.853H441.7V143.768Z" stroke="#C06520" stroke-width="2.59" stroke-linecap="round" stroke-linejoin="round"/>
<ellipse cx="418.19" cy="135.119" rx="1.295" ry="1.37594" fill="#C06520"/>
<ellipse cx="424.56" cy="135.119" rx="1.295" ry="1.37594" fill="#C06520"/>
<ellipse cx="430.92" cy="135.119" rx="1.295" ry="1.37594" fill="#C06520"/>
<ellipse cx="437.28" cy="135.119" rx="1.295" ry="1.37594" fill="#C06520"/>
<ellipse cx="421.38" cy="139.688" rx="1.295" ry="1.37594" fill="#C06520"/>
<ellipse cx="427.75" cy="139.688" rx="1.295" ry="1.37594" fill="#C06520"/>
<ellipse cx="434.11" cy="139.688" rx="1.295" ry="1.37594" fill="#C06520"/>
<ellipse cx="418.19" cy="158.335" rx="1.295" ry="1.37594" fill="#C06520"/>
<ellipse cx="424.56" cy="158.335" rx="1.295" ry="1.37594" fill="#C06520"/>
<ellipse cx="430.92" cy="158.335" rx="1.295" ry="1.37594" fill="#C06520"/>
<ellipse cx="437.28" cy="158.335" rx="1.295" ry="1.37594" fill="#C06520"/>
<ellipse cx="421.38" cy="162.893" rx="1.295" ry="1.37594" fill="#C06520"/>
<ellipse cx="427.75" cy="162.893" rx="1.295" ry="1.37594" fill="#C06520"/>
<ellipse cx="434.11" cy="162.893" rx="1.295" ry="1.37594" fill="#C06520"/>
<path d="M481.5 130.954V123.017H483.24V118.863H470.51V123.017H472.24V130.954H463.06V168.63H490.69V130.954H481.5Z" stroke="#C06520" stroke-width="2.59" stroke-linecap="round" stroke-linejoin="round"/>
<path d="M490.69 143.746H463.06V151.832H490.69V143.746Z" stroke="#C06520" stroke-width="2.59" stroke-linecap="round" stroke-linejoin="round"/>
<ellipse cx="467.33" cy="135.119" rx="1.295" ry="1.37594" fill="#C06520"/>
<ellipse cx="473.69" cy="135.119" rx="1.295" ry="1.37594" fill="#C06520"/>
<ellipse cx="480.06" cy="135.119" rx="1.295" ry="1.37594" fill="#C06520"/>
<ellipse cx="486.42" cy="135.119" rx="1.295" ry="1.37594" fill="#C06520"/>
<ellipse cx="470.52" cy="139.688" rx="1.295" ry="1.37594" fill="#C06520"/>
<ellipse cx="476.88" cy="139.688" rx="1.295" ry="1.37594" fill="#C06520"/>
<ellipse cx="483.25" cy="139.688" rx="1.295" ry="1.37594" fill="#C06520"/>
<ellipse cx="467.33" cy="158.335" rx="1.295" ry="1.37594" fill="#C06520"/>
<ellipse cx="473.69" cy="158.335" rx="1.295" ry="1.37594" fill="#C06520"/>
<ellipse cx="480.06" cy="158.335" rx="1.295" ry="1.37594" fill="#C06520"/>
<ellipse cx="486.42" cy="158.335" rx="1.295" ry="1.37594" fill="#C06520"/>
<ellipse cx="470.52" cy="162.893" rx="1.295" ry="1.37594" fill="#C06520"/>
<ellipse cx="476.88" cy="162.893" rx="1.295" ry="1.37594" fill="#C06520"/>
<ellipse cx="483.25" cy="162.893" rx="1.295" ry="1.37594" fill="#C06520"/>
<path d="M578.56 32.7039C576.6 33.0545 555.87 56.8122 555.87 56.8122V226.972H533.85" stroke="#C06520" stroke-width="2.59" stroke-linecap="round" stroke-linejoin="round"/>
<path d="M534.52 32.7039C532.56 33.0545 511.83 56.8122 511.83 56.8122V262.025C511.83 271.513 504.59 279.205 495.66 279.205H474.27" stroke="#C06520" stroke-width="2.59" stroke-linecap="round" stroke-linejoin="round"/>
<path d="M511.83 88.1986C515.072 88.1986 517.7 85.4062 517.7 81.9617C517.7 78.5171 515.072 75.7248 511.83 75.7248C508.588 75.7248 505.96 78.5171 505.96 81.9617C505.96 85.4062 508.588 88.1986 511.83 88.1986Z" fill="black" stroke="#C06520" stroke-width="2.59" stroke-miterlimit="10"/>
<path d="M533.85 88.1986C537.092 88.1986 539.72 85.4062 539.72 81.9617C539.72 78.5171 537.092 75.7248 533.85 75.7248C530.609 75.7248 527.98 78.5171 527.98 81.9617C527.98 85.4062 530.609 88.1986 533.85 88.1986Z" fill="black" stroke="#C06520" stroke-width="2.59" stroke-miterlimit="10"/>
<path d="M533.85 231.626C537.092 231.626 539.72 228.834 539.72 225.389C539.72 221.945 537.092 219.152 533.85 219.152C530.609 219.152 527.98 221.945 527.98 225.389C527.98 228.834 530.609 231.626 533.85 231.626Z" fill="black" stroke="#C06520" stroke-width="2.59" stroke-miterlimit="10"/>
<path d="M490.69 349.66C493.932 349.66 496.56 346.868 496.56 343.423C496.56 339.979 493.932 337.186 490.69 337.186C487.448 337.186 484.82 339.979 484.82 343.423C484.82 346.868 487.448 349.66 490.69 349.66Z" fill="black" stroke="#C06520" stroke-width="2.59" stroke-miterlimit="10"/>
<path d="M528.01 418.861C531.252 418.861 533.88 416.069 533.88 412.624C533.88 409.18 531.252 406.387 528.01 406.387C524.768 406.387 522.14 409.18 522.14 412.624C522.14 416.069 524.768 418.861 528.01 418.861Z" fill="black" stroke="#C06520" stroke-width="2.59" stroke-miterlimit="10"/>
<path d="M578.56 188.308C581.802 188.308 584.43 185.516 584.43 182.071C584.43 178.626 581.802 175.834 578.56 175.834C575.319 175.834 572.69 178.626 572.69 182.071C572.69 185.516 575.319 188.308 578.56 188.308Z" fill="black" stroke="#C06520" stroke-width="2.59" stroke-miterlimit="10"/>
<path d="M534.96 16.2032H534.08C530.761 16.2032 528.07 19.0622 528.07 22.5889V30.1539C528.07 33.6806 530.761 36.5396 534.08 36.5396H534.96C538.28 36.5396 540.97 33.6806 540.97 30.1539V22.5889C540.97 19.0622 538.28 16.2032 534.96 16.2032Z" fill="black" stroke="#C06520" stroke-width="2.59" stroke-miterlimit="10"/>
<path d="M252.66 132.208C258.862 132.208 263.89 126.865 263.89 120.276C263.89 113.686 258.862 108.344 252.66 108.344C246.458 108.344 241.43 113.686 241.43 120.276C241.43 126.865 246.458 132.208 252.66 132.208Z" stroke="#C06520" stroke-width="2.59" stroke-linecap="round" stroke-linejoin="round"/>
<path d="M578.56 128.839V176.833" stroke="#C06520" stroke-width="2.81" stroke-linejoin="round"/>
<path d="M577.779 189.868L577.002 550" stroke="#C06520" stroke-width="2.81" stroke-linejoin="round"/>
<path d="M554.89 100.566H583.38C590.73 100.566 596.68 106.888 596.68 114.697C596.68 122.507 590.73 128.829 583.38 128.829H554.89C547.54 128.829 541.59 122.507 541.59 114.697C541.59 106.888 547.54 100.566 554.89 100.566Z" fill="black" stroke="#C06520" stroke-width="2.81" stroke-linecap="round" stroke-linejoin="round"/>
<path d="M276.78 201.6C280.022 201.6 282.65 198.807 282.65 195.363C282.65 191.918 280.022 189.126 276.78 189.126C273.538 189.126 270.91 191.918 270.91 195.363C270.91 198.807 273.538 201.6 276.78 201.6Z" fill="black" stroke="#C06520" stroke-width="2.59" stroke-miterlimit="10"/>
<path d="M223.58 155.073V162.893" stroke="#C06520" stroke-width="2.59" stroke-linecap="round" stroke-linejoin="round"/>
<path d="M468.4 285.442C471.642 285.442 474.27 282.65 474.27 279.205C474.27 275.761 471.642 272.968 468.4 272.968C465.158 272.968 462.53 275.761 462.53 279.205C462.53 282.65 465.158 285.442 468.4 285.442Z" fill="black" stroke="#C06520" stroke-width="2.59" stroke-miterlimit="10"/>
<path d="M496.56 343.009H547.35C552.06 343.009 555.87 338.961 555.87 333.956V226.558" stroke="#C06520" stroke-width="2.59" stroke-miterlimit="10"/>
<path d="M533.88 412.624H577.26" stroke="#C06520" stroke-width="2.81" stroke-linejoin="round"/>
</g>
<defs>
<clipPath id="clip0_218_36">
<rect width="621.96" height="1018.1" fill="white"/>
</clipPath>
</defs>
</svg>
