<svg width="250" height="532" viewBox="0 0 250 532" fill="none" xmlns="http://www.w3.org/2000/svg">
<g clip-path="url(#clip0_322_3167)">
<path d="M0.799805 248.414C3.0798 248.414 3.4898 250.284 3.4898 252.706V274.573C3.4898 279.705 7.3998 283.87 12.2198 283.87H105.16" stroke="#C06520" stroke-width="2.19" stroke-linecap="round" stroke-linejoin="round"/>
<path d="M25.21 29.357V323.119" stroke="#C06520" stroke-width="2.19" stroke-linecap="round" stroke-linejoin="round"/>
<path d="M25.21 248.318H148.82" stroke="#C06520" stroke-width="2.19" stroke-linecap="round" stroke-linejoin="round"/>
<path d="M82.4399 427.765L0.859863 427.819" stroke="#C06520" stroke-width="2.19" stroke-linecap="round" stroke-linejoin="round"/>
<path d="M0.859863 370.071H9.64986C16.5099 370.071 22.0699 375.989 22.0699 383.299V427.765" stroke="#C06520" stroke-width="2.19" stroke-linecap="round" stroke-linejoin="round"/>
<path d="M0.890137 353.506H15.8801C27.9501 353.506 37.7301 363.919 37.7301 376.775V427.52" stroke="#C06520" stroke-width="2.19" stroke-linecap="round" stroke-linejoin="round"/>
<path d="M0.839844 323.119H69.6199V375.288" stroke="#C06520" stroke-width="2.19" stroke-linecap="round" stroke-linejoin="round"/>
<path d="M26.1499 427.935C26.1499 429.805 26.1499 441.854 26.1499 441.854" stroke="#C06520" stroke-width="2.19" stroke-linecap="round" stroke-linejoin="round"/>
<path d="M26.1499 454.051V472.05" stroke="#C06520" stroke-width="2.19" stroke-linecap="round" stroke-linejoin="round"/>
<path d="M0.839844 230.404H24.6998" stroke="#C06520" stroke-width="2.19" stroke-linecap="round" stroke-linejoin="round"/>
<path d="M50.1802 190.189V225.581C50.1802 229.055 52.8302 231.881 56.0902 231.881H74.2802V283.88" stroke="#C06520" stroke-width="2.19" stroke-linecap="round" stroke-linejoin="round"/>
<path d="M25.6001 265.998H74.2801" stroke="#C06520" stroke-width="2.19" stroke-linecap="round" stroke-linejoin="round"/>
<path d="M15.3901 283.689V230.521" stroke="#C06520" stroke-width="2.19" stroke-linecap="round" stroke-linejoin="round"/>
<path d="M20.2099 303.494H0.859863" stroke="#C06520" stroke-width="2.19" stroke-linecap="round" stroke-linejoin="round"/>
<path d="M29.6602 303.494H81.5802" stroke="#C06520" stroke-width="2.19" stroke-linecap="round" stroke-linejoin="round"/>
<path d="M3.5 323.947V353.198" stroke="#C06520" stroke-width="2.19" stroke-linecap="round" stroke-linejoin="round"/>
<path d="M3.83008 338.461H22.7801C39.5401 338.461 53.1301 352.933 53.1301 370.783V427.34" stroke="#C06520" stroke-width="2.19" stroke-linecap="round" stroke-linejoin="round"/>
<path d="M3.83008 370.485V426.809" stroke="#C06520" stroke-width="2.19" stroke-linecap="round" stroke-linejoin="round"/>
<path d="M39.96 324.064V324.298C39.96 341.192 52.82 354.877 68.68 354.877H109.88" stroke="#C06520" stroke-width="2.19" stroke-linecap="round" stroke-linejoin="round"/>
<path d="M68.4498 337.441H43.5498" stroke="#C06520" stroke-width="2.19" stroke-linecap="round" stroke-linejoin="round"/>
<path d="M0.859863 472.762L68.4499 472.581V519.438" stroke="#C06520" stroke-width="2.19" stroke-linecap="round" stroke-linejoin="round"/>
<path d="M109.87 288.725C112.477 288.725 114.59 286.47 114.59 283.689C114.59 280.908 112.477 278.653 109.87 278.653C107.263 278.653 105.15 280.908 105.15 283.689C105.15 286.47 107.263 288.725 109.87 288.725Z" fill="black" stroke="#C06520" stroke-width="2.19" stroke-miterlimit="10"/>
<path d="M146.78 253.354C149.387 253.354 151.5 251.1 151.5 248.318C151.5 245.537 149.387 243.282 146.78 243.282C144.173 243.282 142.06 245.537 142.06 248.318C142.06 251.1 144.173 253.354 146.78 253.354Z" fill="black" stroke="#C06520" stroke-width="2.19" stroke-miterlimit="10"/>
<path d="M109.87 359.924C112.477 359.924 114.59 357.669 114.59 354.888C114.59 352.106 112.477 349.851 109.87 349.851C107.263 349.851 105.15 352.106 105.15 354.888C105.15 357.669 107.263 359.924 109.87 359.924Z" fill="black" stroke="#C06520" stroke-width="2.19" stroke-miterlimit="10"/>
<path d="M169.25 472.475C171.857 472.475 173.97 470.22 173.97 467.439C173.97 464.657 171.857 462.402 169.25 462.402C166.643 462.402 164.53 464.657 164.53 467.439C164.53 470.22 166.643 472.475 169.25 472.475Z" fill="black" stroke="#C06520" stroke-width="2.19" stroke-miterlimit="10"/>
<path d="M177.23 490.23C179.837 490.23 181.95 487.975 181.95 485.193C181.95 482.412 179.837 480.157 177.23 480.157C174.623 480.157 172.51 482.412 172.51 485.193C172.51 487.975 174.623 490.23 177.23 490.23Z" fill="black" stroke="#C06520" stroke-width="2.19" stroke-miterlimit="10"/>
<path d="M68.45 525.94C71.0568 525.94 73.17 523.686 73.17 520.904C73.17 518.123 71.0568 515.868 68.45 515.868C65.8432 515.868 63.73 518.123 63.73 520.904C63.73 523.686 65.8432 525.94 68.45 525.94Z" fill="black" stroke="#C06520" stroke-width="2.19" stroke-miterlimit="10"/>
<path d="M26.1702 499.048C28.777 499.048 30.8902 496.794 30.8902 494.012C30.8902 491.231 28.777 488.976 26.1702 488.976C23.5634 488.976 21.4502 491.231 21.4502 494.012C21.4502 496.794 23.5634 499.048 26.1702 499.048Z" fill="black" stroke="#C06520" stroke-width="2.19" stroke-miterlimit="10"/>
<path d="M109.86 449.684V488.986" stroke="#C06520" stroke-width="2.19" stroke-linejoin="round"/>
<path d="M109.87 499.048C112.477 499.048 114.59 496.794 114.59 494.012C114.59 491.231 112.477 488.976 109.87 488.976C107.263 488.976 105.15 491.231 105.15 494.012C105.15 496.794 107.263 499.048 109.87 499.048Z" fill="black" stroke="#C06520" stroke-width="2.19" stroke-miterlimit="10"/>
<path d="M24.93 308.53C27.5367 308.53 29.65 306.276 29.65 303.494C29.65 300.713 27.5367 298.458 24.93 298.458C22.3232 298.458 20.21 300.713 20.21 303.494C20.21 306.276 22.3232 308.53 24.93 308.53Z" fill="black" stroke="#C06520" stroke-width="2.19" stroke-miterlimit="10"/>
<path d="M69.6199 385.126C72.2267 385.126 74.3399 382.872 74.3399 380.09C74.3399 377.309 72.2267 375.054 69.6199 375.054C67.0131 375.054 64.8999 377.309 64.8999 380.09C64.8999 382.872 67.0131 385.126 69.6199 385.126Z" fill="black" stroke="#C06520" stroke-width="2.19" stroke-miterlimit="10"/>
<path d="M86.12 299.52H78.77C79.56 302.06 79.56 304.812 78.77 307.351H86.12C85.33 304.812 85.33 302.06 86.12 299.52Z" fill="black" stroke="#C06520" stroke-width="2.19" stroke-linecap="round" stroke-linejoin="round"/>
<path d="M86.1198 295.61H78.7598" stroke="#C06520" stroke-width="2.19" stroke-linecap="round" stroke-linejoin="round"/>
<path d="M198.65 443.256H191.3" stroke="#C06520" stroke-width="2.19" stroke-linecap="round" stroke-linejoin="round"/>
<path d="M29.83 445.764H22.48C23.27 448.303 23.27 451.055 22.48 453.594H29.83C29.04 451.055 29.04 448.303 29.83 445.764Z" fill="black" stroke="#C06520" stroke-width="2.19" stroke-linecap="round" stroke-linejoin="round"/>
<path d="M29.83 441.854H22.48" stroke="#C06520" stroke-width="2.19" stroke-linecap="round" stroke-linejoin="round"/>
<path d="M77.25 424.524V431.016C77.25 433.751 79.3364 435.967 81.91 435.967H82.97C85.5436 435.967 87.63 433.751 87.63 431.016V424.524C87.63 421.79 85.5436 419.573 82.97 419.573H81.91C79.3364 419.573 77.25 421.79 77.25 424.524Z" fill="black" stroke="#C06520" stroke-width="2.19" stroke-miterlimit="10"/>
<path d="M-0.22998 190.635L74.28 189.976" stroke="#C06520" stroke-width="2.19" stroke-linejoin="round"/>
<path d="M78.5902 186.438H71.2402C72.0302 188.977 72.0302 191.729 71.2402 194.269H78.5902C77.8002 191.729 77.8002 188.977 78.5902 186.438Z" fill="black" stroke="#C06520" stroke-width="2.19" stroke-linecap="round" stroke-linejoin="round"/>
<path d="M78.5902 182.517H71.2402" stroke="#C06520" stroke-width="2.19" stroke-linecap="round" stroke-linejoin="round"/>
<path d="M0.990234 144.288H3.50023V190.348V229.586" stroke="#C06520" stroke-width="2.19" stroke-linecap="round" stroke-linejoin="round"/>
<path d="M26.1699 472.05V488.296" stroke="#C06520" stroke-width="2.19" stroke-linecap="round" stroke-linejoin="round"/>
<path d="M194.98 442.789V427.765H146.78V380.09H74.3501" stroke="#C06520" stroke-width="2.19" stroke-linecap="round" stroke-linejoin="round"/>
<path d="M146.78 449.684V467.439H164.53" stroke="#C06520" stroke-width="2.19" stroke-linejoin="round"/>
<path d="M146.78 467.439V485.193H172.51" stroke="#C06520" stroke-width="2.19" stroke-linejoin="round"/>
<path d="M109.87 359.913V449.684H146.78" stroke="#C06520" stroke-width="2.19" stroke-linecap="round" stroke-linejoin="round"/>
<path d="M150.46 445.764H143.11C143.9 448.303 143.9 451.055 143.11 453.594H150.46C149.67 451.055 149.67 448.303 150.46 445.764Z" fill="black" stroke="#C06520" stroke-width="2.19" stroke-linecap="round" stroke-linejoin="round"/>
<path d="M146.78 424.099V441.854" stroke="#C06520" stroke-width="2.19" stroke-linejoin="round"/>
<path d="M150.46 441.854H143.1" stroke="#C06520" stroke-width="2.19" stroke-linecap="round" stroke-linejoin="round"/>
<mask id="mask0_322_3167" style="mask-type:luminance" maskUnits="userSpaceOnUse" x="181" y="453" width="27" height="29">
<path d="M194.98 481.304C202.171 481.304 208 475.097 208 467.439C208 459.781 202.171 453.573 194.98 453.573C187.789 453.573 181.96 459.781 181.96 467.439C181.96 475.097 187.789 481.304 194.98 481.304Z" fill="white"/>
</mask>
<g mask="url(#mask0_322_3167)">
<path d="M203.15 418.978L147.6 478.128" stroke="#C06520" stroke-width="0.45" stroke-miterlimit="10"/>
<path d="M205.6 421.592L150.28 480.741" stroke="#C06520" stroke-width="0.45" stroke-miterlimit="10"/>
<path d="M208.05 424.195L152.96 483.344" stroke="#C06520" stroke-width="0.45" stroke-miterlimit="10"/>
<path d="M210.5 426.809L155.64 485.958" stroke="#C06520" stroke-width="0.45" stroke-miterlimit="10"/>
<path d="M212.95 429.412L158.32 488.561" stroke="#C06520" stroke-width="0.45" stroke-miterlimit="10"/>
<path d="M215.4 432.025L161 491.175" stroke="#C06520" stroke-width="0.45" stroke-miterlimit="10"/>
<path d="M217.85 434.629L163.68 493.778" stroke="#C06520" stroke-width="0.45" stroke-miterlimit="10"/>
<path d="M220.3 437.242L166.36 496.392" stroke="#C06520" stroke-width="0.45" stroke-miterlimit="10"/>
<path d="M222.75 439.846L169.04 499.006" stroke="#C06520" stroke-width="0.45" stroke-miterlimit="10"/>
<path d="M225.2 442.459L171.72 501.609" stroke="#C06520" stroke-width="0.45" stroke-miterlimit="10"/>
<path d="M227.65 445.073L174.4 504.223" stroke="#C06520" stroke-width="0.45" stroke-miterlimit="10"/>
<path d="M230.1 447.676L177.08 506.826" stroke="#C06520" stroke-width="0.45" stroke-miterlimit="10"/>
<path d="M232.55 450.29L179.76 509.44" stroke="#C06520" stroke-width="0.45" stroke-miterlimit="10"/>
<path d="M235 452.893L182.44 512.043" stroke="#C06520" stroke-width="0.45" stroke-miterlimit="10"/>
<path d="M237.45 455.507L185.12 514.657" stroke="#C06520" stroke-width="0.45" stroke-miterlimit="10"/>
<path d="M239.9 458.11L187.8 517.26" stroke="#C06520" stroke-width="0.45" stroke-miterlimit="10"/>
<path d="M242.35 460.724L190.48 519.873" stroke="#C06520" stroke-width="0.45" stroke-miterlimit="10"/>
<path d="M147.6 460.724L206.83 519.873" stroke="#C06520" stroke-width="0.45" stroke-miterlimit="10"/>
<path d="M150.05 458.11L209.05 517.26" stroke="#C06520" stroke-width="0.45" stroke-miterlimit="10"/>
<path d="M152.5 455.507L211.27 514.657" stroke="#C06520" stroke-width="0.45" stroke-miterlimit="10"/>
<path d="M154.95 452.893L213.49 512.043" stroke="#C06520" stroke-width="0.45" stroke-miterlimit="10"/>
<path d="M157.4 450.29L215.71 509.44" stroke="#C06520" stroke-width="0.45" stroke-miterlimit="10"/>
<path d="M159.85 447.676L217.93 506.826" stroke="#C06520" stroke-width="0.45" stroke-miterlimit="10"/>
<path d="M162.3 445.073L220.15 504.223" stroke="#C06520" stroke-width="0.45" stroke-miterlimit="10"/>
<path d="M164.75 442.459L222.37 501.609" stroke="#C06520" stroke-width="0.45" stroke-miterlimit="10"/>
<path d="M167.2 439.846L224.59 499.006" stroke="#C06520" stroke-width="0.45" stroke-miterlimit="10"/>
<path d="M169.65 437.242L226.81 496.392" stroke="#C06520" stroke-width="0.45" stroke-miterlimit="10"/>
<path d="M172.1 434.629L229.03 493.778" stroke="#C06520" stroke-width="0.45" stroke-miterlimit="10"/>
<path d="M174.55 432.025L231.25 491.175" stroke="#C06520" stroke-width="0.45" stroke-miterlimit="10"/>
<path d="M177 429.412L233.47 488.561" stroke="#C06520" stroke-width="0.45" stroke-miterlimit="10"/>
<path d="M179.45 426.809L235.69 485.958" stroke="#C06520" stroke-width="0.45" stroke-miterlimit="10"/>
<path d="M181.9 424.195L237.91 483.344" stroke="#C06520" stroke-width="0.45" stroke-miterlimit="10"/>
<path d="M184.35 421.592L240.13 480.741" stroke="#C06520" stroke-width="0.45" stroke-miterlimit="10"/>
<path d="M186.8 418.978L242.35 478.128" stroke="#C06520" stroke-width="0.45" stroke-miterlimit="10"/>
</g>
<path d="M194.98 481.304C202.171 481.304 208 475.097 208 467.439C208 459.781 202.171 453.573 194.98 453.573C187.789 453.573 181.96 459.781 181.96 467.439C181.96 475.097 187.789 481.304 194.98 481.304Z" stroke="#C06520" stroke-width="2.09" stroke-miterlimit="10"/>
<path d="M32.8499 10.7419L31.2499 9.03131C27.7899 5.35504 22.1899 5.35504 18.7399 9.03131L17.1399 10.7419C13.6799 14.4182 13.6799 20.3895 17.1399 24.0658L18.7399 25.7764C22.1999 29.4527 27.7999 29.4527 31.2499 25.7764L32.8499 24.0658C36.3099 20.3895 36.3099 14.4182 32.8499 10.7419Z" fill="black" stroke="#C06520" stroke-width="2.19" stroke-miterlimit="10"/>
<path d="M31.1398 24.7776C31.1398 21.1651 28.3898 18.2326 24.9898 18.2326C21.5898 18.2326 18.8398 21.1651 18.8398 24.7776" fill="black"/>
<path d="M31.1398 24.7776C31.1398 21.1651 28.3898 18.2326 24.9898 18.2326C21.5898 18.2326 18.8398 21.1651 18.8398 24.7776" stroke="#C06520" stroke-width="2.19" stroke-miterlimit="10" stroke-linecap="round"/>
<path d="M24.9898 22.6314L20.7598 13.8232" stroke="#C06520" stroke-width="2.19" stroke-linecap="round" stroke-linejoin="round"/>
</g>
<defs>
<clipPath id="clip0_322_3167">
<rect width="250" height="531.253" fill="white"/>
</clipPath>
</defs>
</svg>
