<svg width="304" height="523" viewBox="0 0 304 523" fill="none" xmlns="http://www.w3.org/2000/svg">
<g clip-path="url(#clip0_264_9318)">
<path d="M297.53 213.659C299.855 213.659 301.74 211.657 301.74 209.186C301.74 206.716 299.855 204.713 297.53 204.713C295.205 204.713 293.32 206.716 293.32 209.186C293.32 211.657 295.205 213.659 297.53 213.659Z" fill="black" stroke="#C06520" stroke-width="2.19" stroke-miterlimit="10"/>
<path d="M240.1 388.654V381.301C240.1 377.104 243.31 373.694 247.26 373.694C251.21 373.694 254.42 377.104 254.42 381.301V388.654C254.42 392.851 251.21 396.261 247.26 396.261C243.31 396.261 240.1 392.851 240.1 388.654Z" fill="black" stroke="#C06520" stroke-width="2.19" stroke-linecap="round" stroke-linejoin="round"/>
<path d="M82.3199 279.726V340.204" stroke="#C06520" stroke-width="2.19" stroke-linecap="round" stroke-linejoin="round"/>
<path d="M74.67 279.651L82.17 287.62H82.46L89.96 279.651" stroke="#C06520" stroke-width="2.19" stroke-miterlimit="10" stroke-linecap="round"/>
<path d="M82.32 279.726C90.54 279.726 97.92 277.303 103.13 273.457H61.52C66.73 277.303 74.11 279.726 82.33 279.726H82.32Z" fill="black" stroke="#C06520" stroke-width="2.19" stroke-linecap="round" stroke-linejoin="round"/>
<path d="M103.12 273.468C103.12 273.468 110.84 268.803 110.84 255.703C110.84 242.602 103.17 237.683 95.14 232.795C87.11 227.907 82.48 221.639 82.48 221.639H82.15C82.15 221.639 77.52 227.907 69.49 232.795C61.46 237.683 53.79 242.613 53.79 255.703C53.79 268.793 61.51 273.468 61.51 273.468H103.12Z" fill="black" stroke="#C06520" stroke-width="2.19" stroke-miterlimit="10"/>
<path d="M82.33 255.671C84.6551 255.671 86.54 254.106 86.54 252.175C86.54 250.244 84.6551 248.679 82.33 248.679C80.0049 248.679 78.12 250.244 78.12 252.175C78.12 254.106 80.0049 255.671 82.33 255.671Z" fill="black" stroke="#C06520" stroke-width="1.94" stroke-miterlimit="10"/>
<path d="M82.3199 221.639V211.555C82.3199 205.999 86.5599 201.504 91.7799 201.504H121.99" stroke="#C06520" stroke-width="2.19" stroke-linecap="round" stroke-linejoin="round"/>
<ellipse cx="61.51" cy="269.568" rx="1.095" ry="1.16344" fill="#C06520"/>
<ellipse cx="66.07" cy="269.568" rx="1.095" ry="1.16344" fill="#C06520"/>
<ellipse cx="70.63" cy="269.568" rx="1.095" ry="1.16344" fill="#C06520"/>
<ellipse cx="75.19" cy="269.568" rx="1.095" ry="1.16344" fill="#C06520"/>
<ellipse cx="79.75" cy="269.568" rx="1.095" ry="1.16344" fill="#C06520"/>
<ellipse cx="84.3" cy="269.568" rx="1.095" ry="1.16344" fill="#C06520"/>
<ellipse cx="88.86" cy="269.568" rx="1.095" ry="1.16344" fill="#C06520"/>
<ellipse cx="93.42" cy="269.568" rx="1.095" ry="1.16344" fill="#C06520"/>
<ellipse cx="97.98" cy="269.568" rx="1.095" ry="1.16344" fill="#C06520"/>
<ellipse cx="102.54" cy="269.568" rx="1.095" ry="1.16344" fill="#C06520"/>
<ellipse cx="61.51" cy="244.079" rx="1.095" ry="1.16344" fill="#C06520"/>
<ellipse cx="66.07" cy="244.079" rx="1.095" ry="1.16344" fill="#C06520"/>
<ellipse cx="70.63" cy="244.079" rx="1.095" ry="1.16344" fill="#C06520"/>
<ellipse cx="75.19" cy="244.079" rx="1.095" ry="1.16344" fill="#C06520"/>
<ellipse cx="79.75" cy="244.079" rx="1.095" ry="1.16344" fill="#C06520"/>
<ellipse cx="84.3" cy="244.079" rx="1.095" ry="1.16344" fill="#C06520"/>
<ellipse cx="88.86" cy="244.079" rx="1.095" ry="1.16344" fill="#C06520"/>
<ellipse cx="93.42" cy="244.079" rx="1.095" ry="1.16344" fill="#C06520"/>
<ellipse cx="97.98" cy="244.079" rx="1.095" ry="1.16344" fill="#C06520"/>
<ellipse cx="102.54" cy="244.079" rx="1.095" ry="1.16344" fill="#C06520"/>
<path d="M59.12 240.615H105.18" stroke="#C06520" stroke-width="2.19" stroke-linecap="round" stroke-linejoin="round"/>
<path d="M76.91 227.227H87.72" stroke="#C06520" stroke-width="1.94" stroke-miterlimit="10"/>
<path d="M13.25 425.597V483.419L0.73999 483.1" stroke="#C06520" stroke-width="2.19" stroke-linecap="round" stroke-linejoin="round"/>
<path d="M42.08 339.205V378.39" stroke="#C06520" stroke-width="2.19" stroke-linejoin="round"/>
<path d="M42.32 386.625C44.6451 386.625 46.53 384.622 46.53 382.151C46.53 379.681 44.6451 377.678 42.32 377.678C39.9949 377.678 38.11 379.681 38.11 382.151C38.11 384.622 39.9949 386.625 42.32 386.625Z" fill="black" stroke="#C06520" stroke-width="2.19" stroke-miterlimit="10"/>
<path d="M51.65 427.68H45.1C45.8 429.943 45.8 432.376 45.1 434.639H51.65C50.95 432.376 50.95 429.943 51.65 427.68Z" fill="black" stroke="#C06520" stroke-width="2.19" stroke-linecap="round" stroke-linejoin="round"/>
<path d="M51.65 424.205H45.1" stroke="#C06520" stroke-width="2.19" stroke-linecap="round" stroke-linejoin="round"/>
<path d="M38.12 447.081C41.59 450.768 41.59 456.75 38.12 460.437C34.65 464.124 29.02 464.124 25.55 460.437C22.08 456.75 22.08 450.768 25.55 447.081C29.02 443.394 34.65 443.394 38.12 447.081Z" fill="black" stroke="#C06520" stroke-width="2.19" stroke-miterlimit="10"/>
<path d="M37.31 460.32C37.31 457.101 34.86 454.497 31.83 454.497C28.8 454.497 26.35 457.101 26.35 460.32" fill="black"/>
<path d="M37.31 460.32C37.31 457.101 34.86 454.497 31.83 454.497C28.8 454.497 26.35 457.101 26.35 460.32" stroke="#C06520" stroke-width="2.19" stroke-miterlimit="10" stroke-linecap="round"/>
<path d="M31.83 458.418L28.07 450.587" stroke="#C06520" stroke-width="2.19" stroke-linecap="round" stroke-linejoin="round"/>
<path d="M48.37 441.365V514.04" stroke="#C06520" stroke-width="2.19" stroke-linecap="round" stroke-linejoin="round"/>
<path d="M32.28 463.189V504.722C32.28 509.865 36.2 514.04 41.05 514.04H105.44" stroke="#C06520" stroke-width="2.19" stroke-linecap="round" stroke-linejoin="round"/>
<path d="M22.94 453.764H13.25" stroke="#C06520" stroke-width="2.19" stroke-linecap="round" stroke-linejoin="round"/>
<path d="M40.72 453.764H48.37" stroke="#C06520" stroke-width="2.19" stroke-linecap="round" stroke-linejoin="round"/>
<path d="M178.65 218.069V275.89H110.37V283.636" stroke="#C06520" stroke-width="2.19" stroke-linecap="round" stroke-linejoin="round"/>
<path d="M130.99 250.571H178.65V211.864" stroke="#C06520" stroke-width="2.19" stroke-linejoin="round"/>
<path d="M178.65 177.587V258.89H121.99V276.23" stroke="#C06520" stroke-width="2.19" stroke-linejoin="round"/>
<path d="M132.34 294.346H151.77" stroke="#C06520" stroke-width="2.19" stroke-linejoin="round"/>
<path d="M114.02 312.398H151.77" stroke="#C06520" stroke-width="2.19" stroke-linejoin="round"/>
<path d="M132.34 330.439H151.77" stroke="#C06520" stroke-width="2.19" stroke-linejoin="round"/>
<path d="M247.26 373.694V345.187C247.26 342.647 245.32 340.597 242.94 340.597H157.68C154.33 340.597 151.61 337.707 151.61 334.147V276.336" stroke="#C06520" stroke-width="2.19" stroke-linecap="round" stroke-linejoin="round"/>
<path d="M130.99 258.89C131.19 258.89 130.99 211.332 130.99 211.332" stroke="#C06520" stroke-width="2.19" stroke-linecap="round" stroke-linejoin="round"/>
<path d="M131.99 276.188V378.337C131.99 382.916 135.48 386.625 139.79 386.625H162.22" stroke="#C06520" stroke-width="2.19" stroke-linecap="round" stroke-linejoin="round"/>
<path d="M151.61 280.82C153.935 280.82 155.82 278.817 155.82 276.347C155.82 273.877 153.935 271.874 151.61 271.874C149.285 271.874 147.4 273.877 147.4 276.347C147.4 278.817 149.285 280.82 151.61 280.82Z" fill="black" stroke="#C06520" stroke-width="2.19" stroke-miterlimit="10"/>
<path d="M107.1 291.307H113.65C112.95 289.044 112.95 286.611 113.65 284.348H107.1C107.8 286.611 107.8 289.044 107.1 291.307Z" fill="black" stroke="#C06520" stroke-width="2.19" stroke-linecap="round" stroke-linejoin="round"/>
<path d="M107.1 294.782H113.65" stroke="#C06520" stroke-width="2.19" stroke-linecap="round" stroke-linejoin="round"/>
<path d="M110.93 356.811H131.94" stroke="#C06520" stroke-width="2.19" stroke-linecap="round" stroke-linejoin="round"/>
<path d="M136.149 339.556C136.314 337.092 134.567 334.952 132.248 334.777C129.929 334.601 127.915 336.457 127.75 338.921C127.585 341.385 129.331 343.525 131.651 343.7C133.97 343.876 135.984 342.02 136.149 339.556Z" fill="black" stroke="#C06520" stroke-width="2.19" stroke-miterlimit="10"/>
<path d="M82.36 518.513C84.6851 518.513 86.57 516.511 86.57 514.04C86.57 511.57 84.6851 509.567 82.36 509.567C80.0349 509.567 78.15 511.57 78.15 514.04C78.15 516.511 80.0349 518.513 82.36 518.513Z" fill="black" stroke="#C06520" stroke-width="2.19" stroke-miterlimit="10"/>
<path d="M110.93 361.624C113.255 361.624 115.14 359.621 115.14 357.151C115.14 354.68 113.255 352.677 110.93 352.677C108.605 352.677 106.72 354.68 106.72 357.151C106.72 359.621 108.605 361.624 110.93 361.624Z" fill="black" stroke="#C06520" stroke-width="2.19" stroke-miterlimit="10"/>
<path d="M110.37 294.782V304.939" stroke="#C06520" stroke-width="2.19" stroke-linecap="round" stroke-linejoin="round"/>
<path d="M137.17 195.204C140.64 198.89 140.64 204.872 137.17 208.559C133.7 212.246 128.07 212.246 124.6 208.559C121.13 204.872 121.13 198.89 124.6 195.204C128.07 191.517 133.7 191.517 137.17 195.204Z" fill="black" stroke="#C06520" stroke-width="2.19" stroke-miterlimit="10"/>
<path d="M136.36 208.442C136.36 205.223 133.91 202.62 130.88 202.62C127.85 202.62 125.4 205.223 125.4 208.442" fill="black"/>
<path d="M136.36 208.442C136.36 205.223 133.91 202.62 130.88 202.62C127.85 202.62 125.4 205.223 125.4 208.442" stroke="#C06520" stroke-width="2.19" stroke-miterlimit="10" stroke-linecap="round"/>
<path d="M130.88 206.54L127.12 198.71" stroke="#C06520" stroke-width="2.19" stroke-linecap="round" stroke-linejoin="round"/>
<path d="M17.29 390.726C15.15 388.197 14.51 392.096 14.77 393.903C15.03 395.709 17.19 411.944 17.19 411.944H10.13C10.26 411.54 11.89 396.495 12.34 392.84C13.18 386.03 17.28 390.726 17.28 390.726H17.29Z" fill="black" stroke="#C06520" stroke-width="2.19" stroke-linecap="round" stroke-linejoin="round"/>
<path d="M23.4394 419.94C23.487 414.025 19.0128 409.189 13.446 409.139C7.87917 409.088 3.32778 413.842 3.28017 419.757C3.23256 425.672 7.70676 430.508 13.2736 430.558C18.8404 430.609 23.3918 425.855 23.4394 419.94Z" fill="black" stroke="#C06520" stroke-width="2.19" stroke-linecap="round" stroke-linejoin="round"/>
<path d="M25.53 417.597H1.54999V438.921H25.53V417.597Z" fill="black" stroke="#C06520" stroke-width="2.19" stroke-linecap="round" stroke-linejoin="round"/>
<path d="M17.32 422.888H9.75V429.422H17.32V422.888Z" fill="black" stroke="#C06520" stroke-width="2.19" stroke-linecap="round" stroke-linejoin="round"/>
<path d="M48.37 424.205V402.211H28.22C20.64 402.211 20.64 390.184 14.91 390.184" stroke="#C06520" stroke-width="2.19" stroke-linecap="round" stroke-linejoin="round"/>
<path d="M18.43 275.89V202.152H73.44C78.34 202.152 82.31 206.371 82.31 211.577V221.639" stroke="#C06520" stroke-width="2.19" stroke-linecap="round" stroke-linejoin="round"/>
<path d="M18.33 232.976H42.02V202.545" stroke="#C06520" stroke-width="2.19" stroke-linecap="round" stroke-linejoin="round"/>
<path d="M18.33 275.975H42.02" stroke="#C06520" stroke-width="2.19" stroke-linecap="round" stroke-linejoin="round"/>
<path d="M18.43 250.571V304.121C18.43 308.86 22.05 312.706 26.51 312.706H65.44V356.811H106.72" stroke="#C06520" stroke-width="2.19" stroke-linecap="round" stroke-linejoin="round"/>
<path d="M42.1701 257.424L42.0601 340.597" stroke="#C06520" stroke-width="2.19" stroke-linecap="round" stroke-linejoin="round"/>
<path d="M65.45 340.597L0.73999 340.724" stroke="#C06520" stroke-width="2.19" stroke-linecap="round" stroke-linejoin="round"/>
<path d="M30.43 276.081V290.415C30.43 292.752 28.65 294.643 26.45 294.643H13.51" stroke="#C06520" stroke-width="2.19" stroke-linecap="round" stroke-linejoin="round"/>
<path d="M30.43 233.092V246.151C30.43 248.488 28.65 250.379 26.45 250.379H18.94" stroke="#C06520" stroke-width="2.19" stroke-linecap="round" stroke-linejoin="round"/>
<path d="M9.54002 299.117C11.8651 299.117 13.75 297.114 13.75 294.643C13.75 292.173 11.8651 290.17 9.54002 290.17C7.2149 290.17 5.33002 292.173 5.33002 294.643C5.33002 297.114 7.2149 299.117 9.54002 299.117Z" fill="black" stroke="#C06520" stroke-width="2.19" stroke-miterlimit="10"/>
<path d="M82.1499 317.285C84.4751 317.285 86.3599 315.283 86.3599 312.812C86.3599 310.342 84.4751 308.339 82.1499 308.339C79.8248 308.339 77.9399 310.342 77.9399 312.812C77.9399 315.283 79.8248 317.285 82.1499 317.285Z" fill="black" stroke="#C06520" stroke-width="2.19" stroke-miterlimit="10"/>
<path d="M-0.26001 247.224L17.36 247.574" stroke="#C06520" stroke-width="2.19" stroke-miterlimit="10"/>
<path d="M18.43 252.048C20.7551 252.048 22.64 250.045 22.64 247.574C22.64 245.104 20.7551 243.101 18.43 243.101C16.1049 243.101 14.22 245.104 14.22 247.574C14.22 250.045 16.1049 252.048 18.43 252.048Z" fill="black" stroke="#C06520" stroke-width="2.19" stroke-miterlimit="10"/>
<path d="M45.44 250.464H38.89C39.59 252.728 39.59 255.161 38.89 257.424H45.44C44.74 255.161 44.74 252.728 45.44 250.464Z" fill="black" stroke="#C06520" stroke-width="2.19" stroke-linecap="round" stroke-linejoin="round"/>
<path d="M45.44 246.979H38.89" stroke="#C06520" stroke-width="2.19" stroke-linecap="round" stroke-linejoin="round"/>
<path d="M61.99 85.1917H25.98C17.37 85.1917 18.28 93.373 18.28 93.373V137.18C18.28 143.088 6.64999 146.286 -0.26001 146.286" stroke="#C06520" stroke-width="2.19" stroke-linejoin="round"/>
<path d="M45.4399 145.234H106.67V85.1917H89.7699" stroke="#C06520" stroke-width="2.19" stroke-linecap="round" stroke-linejoin="round"/>
<path d="M106.67 115.462V169.013C106.67 173.752 110.29 177.598 114.75 177.598H199.11C201.14 177.598 202.78 179.34 202.78 181.497V200.93C202.78 205.489 206.26 209.197 210.56 209.197H293.33" stroke="#C06520" stroke-width="2.19" stroke-linecap="round" stroke-linejoin="round"/>
<path d="M222.13 244.058V86.9767H244.37V157.378C244.37 160.47 246.73 162.978 249.64 162.978H265.84V209.186" stroke="#C06520" stroke-width="2.19" stroke-linecap="round" stroke-linejoin="round"/>
<path d="M175.29 130.114V176.695" stroke="#C06520" stroke-width="2.19" stroke-linecap="round" stroke-linejoin="round"/>
<path d="M44.42 85.2236V155.498C44.42 157.315 45.81 158.791 47.52 158.791H55.87C58.25 158.791 60.18 160.842 60.18 163.371V202.545" stroke="#C06520" stroke-width="2.19" stroke-linejoin="round"/>
<path d="M130.25 125.737H244.01" stroke="#C06520" stroke-width="2.19" stroke-linecap="round" stroke-linejoin="round"/>
<path d="M152.15 176.695V126.077" stroke="#C06520" stroke-width="2.19" stroke-linecap="round" stroke-linejoin="round"/>
<path d="M199.62 176.695V126.077" stroke="#C06520" stroke-width="2.19" stroke-linecap="round" stroke-linejoin="round"/>
<path d="M130.25 192.239V101.023H106.98" stroke="#C06520" stroke-width="2.19" stroke-linecap="round" stroke-linejoin="round"/>
<path d="M174.92 125.652V4.15439" stroke="#C06520" stroke-width="2.19" stroke-miterlimit="10" stroke-linecap="round"/>
<path d="M173.45 15.6507L170.3 8.35129" stroke="#C06520" stroke-width="2.19" stroke-miterlimit="10" stroke-linecap="round"/>
<path d="M172.94 19.6245L167.9 13.5788" stroke="#C06520" stroke-width="2.19" stroke-miterlimit="10" stroke-linecap="round"/>
<path d="M173.81 26.212L167.46 20.092" stroke="#C06520" stroke-width="2.19" stroke-miterlimit="10" stroke-linecap="round"/>
<path d="M176.38 15.6507L179.54 8.35129" stroke="#C06520" stroke-width="2.19" stroke-miterlimit="10" stroke-linecap="round"/>
<path d="M176.9 19.6245L181.94 13.5788" stroke="#C06520" stroke-width="2.19" stroke-miterlimit="10" stroke-linecap="round"/>
<path d="M176.02 26.212L182.37 20.092" stroke="#C06520" stroke-width="2.19" stroke-miterlimit="10" stroke-linecap="round"/>
<path d="M170.3 21.5689V16.8195C170.3 14.1101 172.37 11.9107 174.92 11.9107C177.47 11.9107 179.54 14.1101 179.54 16.8195V21.5689C179.54 24.2782 177.47 26.4776 174.92 26.4776C172.37 26.4776 170.3 24.2782 170.3 21.5689Z" fill="black" stroke="#C06520" stroke-width="2.19" stroke-miterlimit="10" stroke-linecap="round"/>
<path d="M170.3 18.7532L177.09 25.9676" stroke="#C06520" stroke-width="2.19" stroke-miterlimit="10" stroke-linecap="round"/>
<path d="M174.25 22.3657L179.4 16.8938" stroke="#C06520" stroke-width="2.19" stroke-miterlimit="10" stroke-linecap="round"/>
<path d="M177.04 19.4013L171.41 13.4194" stroke="#C06520" stroke-width="2.19" stroke-miterlimit="10" stroke-linecap="round"/>
<path d="M152.15 125.652V4.15439" stroke="#C06520" stroke-width="2.19" stroke-miterlimit="10" stroke-linecap="round"/>
<path d="M150.69 15.6507L147.53 8.35129" stroke="#C06520" stroke-width="2.19" stroke-miterlimit="10" stroke-linecap="round"/>
<path d="M150.17 19.6245L145.14 13.5788" stroke="#C06520" stroke-width="2.19" stroke-miterlimit="10" stroke-linecap="round"/>
<path d="M151.05 26.212L144.7 20.092" stroke="#C06520" stroke-width="2.19" stroke-miterlimit="10" stroke-linecap="round"/>
<path d="M153.62 15.6507L156.78 8.35129" stroke="#C06520" stroke-width="2.19" stroke-miterlimit="10" stroke-linecap="round"/>
<path d="M154.13 19.6245L159.17 13.5788" stroke="#C06520" stroke-width="2.19" stroke-miterlimit="10" stroke-linecap="round"/>
<path d="M153.26 26.212L159.61 20.092" stroke="#C06520" stroke-width="2.19" stroke-miterlimit="10" stroke-linecap="round"/>
<path d="M147.54 21.5582V16.8088C147.54 14.0994 149.61 11.9001 152.16 11.9001C154.71 11.9001 156.78 14.0994 156.78 16.8088V21.5582C156.78 24.2676 154.71 26.467 152.16 26.467C149.61 26.467 147.54 24.2676 147.54 21.5582Z" fill="black" stroke="#C06520" stroke-width="2.19" stroke-miterlimit="10" stroke-linecap="round"/>
<path d="M147.53 18.7532L154.33 25.9676" stroke="#C06520" stroke-width="2.19" stroke-miterlimit="10" stroke-linecap="round"/>
<path d="M151.49 22.3657L156.64 16.8938" stroke="#C06520" stroke-width="2.19" stroke-miterlimit="10" stroke-linecap="round"/>
<path d="M154.28 19.4013L148.65 13.4194" stroke="#C06520" stroke-width="2.19" stroke-miterlimit="10" stroke-linecap="round"/>
<path d="M199.62 125.652V4.15439" stroke="#C06520" stroke-width="2.19" stroke-miterlimit="10" stroke-linecap="round"/>
<path d="M198.15 15.6507L195 8.35129" stroke="#C06520" stroke-width="2.19" stroke-miterlimit="10" stroke-linecap="round"/>
<path d="M197.64 19.6245L192.6 13.5788" stroke="#C06520" stroke-width="2.19" stroke-miterlimit="10" stroke-linecap="round"/>
<path d="M198.52 26.212L192.16 20.092" stroke="#C06520" stroke-width="2.19" stroke-miterlimit="10" stroke-linecap="round"/>
<path d="M201.08 15.6507L204.24 8.35129" stroke="#C06520" stroke-width="2.19" stroke-miterlimit="10" stroke-linecap="round"/>
<path d="M201.6 19.6245L206.64 13.5788" stroke="#C06520" stroke-width="2.19" stroke-miterlimit="10" stroke-linecap="round"/>
<path d="M200.72 26.212L207.07 20.092" stroke="#C06520" stroke-width="2.19" stroke-miterlimit="10" stroke-linecap="round"/>
<path d="M195 21.5689V16.8195C195 14.1101 197.07 11.9107 199.62 11.9107C202.17 11.9107 204.24 14.1101 204.24 16.8195V21.5689C204.24 24.2782 202.17 26.4776 199.62 26.4776C197.07 26.4776 195 24.2782 195 21.5689Z" fill="black" stroke="#C06520" stroke-width="2.19" stroke-miterlimit="10" stroke-linecap="round"/>
<path d="M195 18.7532L201.79 25.9676" stroke="#C06520" stroke-width="2.19" stroke-miterlimit="10" stroke-linecap="round"/>
<path d="M198.95 22.3657L204.1 16.8938" stroke="#C06520" stroke-width="2.19" stroke-miterlimit="10" stroke-linecap="round"/>
<path d="M201.74 19.4013L196.11 13.4194" stroke="#C06520" stroke-width="2.19" stroke-miterlimit="10" stroke-linecap="round"/>
<path d="M175.29 130.125C177.615 130.125 179.5 128.122 179.5 125.652C179.5 123.181 177.615 121.179 175.29 121.179C172.965 121.179 171.08 123.181 171.08 125.652C171.08 128.122 172.965 130.125 175.29 130.125Z" fill="black" stroke="#C06520" stroke-width="2.19" stroke-miterlimit="10"/>
<mask id="mask0_264_9318" style="mask-type:luminance" maskUnits="userSpaceOnUse" x="222" y="86" width="23" height="28">
<path d="M244.37 86.9767H222.13V113.348H244.37V86.9767Z" fill="white"/>
</mask>
<g mask="url(#mask0_264_9318)">
<path d="M230.36 94.818L220.66 105.124" stroke="#C06520" stroke-width="2.19" stroke-miterlimit="10" stroke-linecap="round"/>
<path d="M237.05 94.818L227.35 105.124" stroke="#C06520" stroke-width="2.19" stroke-miterlimit="10" stroke-linecap="round"/>
<path d="M243.74 94.818L234.04 105.124" stroke="#C06520" stroke-width="2.19" stroke-miterlimit="10" stroke-linecap="round"/>
<path d="M250.43 94.818L240.73 105.124" stroke="#C06520" stroke-width="2.19" stroke-miterlimit="10" stroke-linecap="round"/>
<path d="M226.55 97.878L216.85 87.5717" stroke="#C06520" stroke-width="2.19" stroke-miterlimit="10" stroke-linecap="round"/>
<path d="M233.24 97.878L223.54 87.5717" stroke="#C06520" stroke-width="2.19" stroke-miterlimit="10" stroke-linecap="round"/>
<path d="M239.93 97.878L230.23 87.5717" stroke="#C06520" stroke-width="2.19" stroke-miterlimit="10" stroke-linecap="round"/>
<path d="M246.62 97.878L236.92 87.5717" stroke="#C06520" stroke-width="2.19" stroke-miterlimit="10" stroke-linecap="round"/>
<path d="M253.31 97.878L243.61 87.5717" stroke="#C06520" stroke-width="2.19" stroke-miterlimit="10" stroke-linecap="round"/>
</g>
<path d="M222.13 105.464H244.37" stroke="#C06520" stroke-width="2.19" stroke-linecap="round" stroke-linejoin="round"/>
<path d="M10.14 348.172L0.73999 348.162" stroke="#C06520" stroke-width="2.19" stroke-linecap="round" stroke-linejoin="round"/>
<path d="M18.44 334.36C23.61 334.36 27.79 338.812 27.79 344.305C27.79 349.798 23.6 354.239 18.44 354.239C13.27 354.239 9.09003 349.787 9.09003 344.294C9.09003 338.801 13.28 334.36 18.44 334.36Z" fill="black" stroke="#C06520" stroke-width="2.19" stroke-miterlimit="10"/>
<path d="M18.43 338.206C21.6 338.206 24.17 340.937 24.17 344.294C24.17 347.662 21.6 350.393 18.43 350.393C15.26 350.393 12.7 347.662 12.7 344.305C12.7 340.937 15.27 338.206 18.43 338.206Z" fill="black" stroke="#C06520" stroke-width="2.19" stroke-miterlimit="10"/>
<path d="M82.36 329.079V508.441" stroke="#C06520" stroke-width="2.19" stroke-linecap="round" stroke-linejoin="round"/>
<path d="M114.02 301.061V336.071C114.02 338.206 112.39 339.949 110.37 339.949C108.36 339.949 106.72 338.217 106.72 336.071V301.061" fill="black"/>
<path d="M114.02 301.061V336.071C114.02 338.206 112.39 339.949 110.37 339.949C108.36 339.949 106.72 338.217 106.72 336.071V301.061" stroke="#C06520" stroke-width="2.19" stroke-miterlimit="10"/>
<path d="M88.0401 403.317C91.5101 407.003 91.5101 412.985 88.0401 416.672C84.5701 420.359 78.9401 420.359 75.4701 416.672C72.0001 412.985 72.0001 407.003 75.4701 403.317C78.9401 399.63 84.5701 399.63 88.0401 403.317Z" fill="black" stroke="#C06520" stroke-width="2.19" stroke-miterlimit="10"/>
<path d="M87.22 416.555C87.22 413.336 84.77 410.733 81.74 410.733C78.71 410.733 76.26 413.336 76.26 416.555" fill="black"/>
<path d="M87.22 416.555C87.22 413.336 84.77 410.733 81.74 410.733C78.71 410.733 76.26 413.336 76.26 416.555" stroke="#C06520" stroke-width="2.19" stroke-miterlimit="10" stroke-linecap="round"/>
<path d="M157.6 448.579V443.83C157.6 441.12 159.67 438.921 162.22 438.921C164.77 438.921 166.84 441.12 166.84 443.83V448.579C166.84 451.289 164.77 453.488 162.22 453.488C159.67 453.488 157.6 451.289 157.6 448.579Z" fill="black" stroke="#C06520" stroke-width="2.19" stroke-miterlimit="10"/>
<path d="M162.22 453.488V459.3H143.33V462.477" stroke="#C06520" stroke-width="2.19" stroke-linejoin="round"/>
<path d="M151.88 503.351H134.78C133.99 503.351 133.33 502.65 133.23 501.705L132.37 493.385C131.79 487.796 131.79 482.144 132.37 476.555L133.23 468.236C133.33 467.301 133.99 466.589 134.78 466.589H151.88C152.67 466.589 153.33 467.29 153.43 468.236L154.29 476.555C154.87 482.144 154.87 487.796 154.29 493.385L153.43 501.705C153.33 502.64 152.67 503.351 151.88 503.351Z" fill="black" stroke="#C06520" stroke-width="1.98" stroke-miterlimit="10"/>
<path d="M133.53 471.168H153.14" stroke="#C06520" stroke-width="1.93" stroke-miterlimit="10"/>
<path d="M133.53 499.303H153.14" stroke="#C06520" stroke-width="1.93" stroke-miterlimit="10"/>
<path d="M154.26 482.431H132.46V486.011H154.26V482.431Z" fill="black" stroke="#C06520" stroke-width="1.93" stroke-miterlimit="10"/>
<path d="M185.66 503.351H168.56C167.77 503.351 167.11 502.65 167.01 501.705L166.15 493.385C165.57 487.796 165.57 482.144 166.15 476.555L167.01 468.236C167.11 467.301 167.77 466.589 168.56 466.589H185.66C186.45 466.589 187.11 467.29 187.21 468.236L188.07 476.555C188.65 482.144 188.65 487.796 188.07 493.385L187.21 501.705C187.11 502.64 186.45 503.351 185.66 503.351Z" fill="black" stroke="#C06520" stroke-width="1.98" stroke-miterlimit="10"/>
<path d="M167.3 471.168H186.92" stroke="#C06520" stroke-width="1.93" stroke-miterlimit="10"/>
<path d="M167.3 499.303H186.92" stroke="#C06520" stroke-width="1.93" stroke-miterlimit="10"/>
<path d="M188.04 482.431H166.24V486.011H188.04V482.431Z" fill="black" stroke="#C06520" stroke-width="1.93" stroke-miterlimit="10"/>
<path d="M162.22 396.867C167.544 396.867 171.86 392.281 171.86 386.625C171.86 380.968 167.544 376.382 162.22 376.382C156.896 376.382 152.58 380.968 152.58 386.625C152.58 392.281 156.896 396.867 162.22 396.867Z" fill="black" stroke="#C06520" stroke-width="2.19" stroke-miterlimit="10"/>
<path d="M153.26 386.625L156.45 384.797L167.98 388.463L171.18 386.625" fill="black"/>
<path d="M153.26 386.625L156.45 384.797L167.98 388.463L171.18 386.625" stroke="#C06520" stroke-width="2.19" stroke-miterlimit="10" stroke-linecap="round"/>
<path d="M162.22 459.3H178.7V462.477" stroke="#C06520" stroke-width="2.19" stroke-linejoin="round"/>
<path d="M162.62 438.921V396.878" stroke="#C06520" stroke-width="2.19" stroke-linecap="round" stroke-linejoin="round"/>
<path d="M214.5 252.717V310.539H152V327.879" stroke="#C06520" stroke-width="2.19" stroke-linecap="round" stroke-linejoin="round"/>
<path d="M236.56 257.275H241.25C244.54 257.275 247.22 260.091 247.23 263.586C247.32 286.611 247.21 364.28 247.21 364.28" stroke="#C06520" stroke-width="2.19" stroke-linecap="round" stroke-linejoin="round"/>
<path d="M259.45 243.101H211.8C205.962 243.101 201.23 248.129 201.23 254.332V254.343C201.23 260.545 205.962 265.573 211.8 265.573H259.45C265.288 265.573 270.02 260.545 270.02 254.343V254.332C270.02 248.129 265.288 243.101 259.45 243.101Z" fill="black" stroke="#C06520" stroke-width="2.19" stroke-miterlimit="10"/>
<path d="M215.27 249.232H215.52" stroke="#C06520" stroke-width="2.19" stroke-linecap="round" stroke-linejoin="round"/>
<path d="M220.36 249.232H220.11" stroke="#C06520" stroke-width="2.19" stroke-linecap="round" stroke-linejoin="round"/>
<path d="M224.95 249.232H225.2" stroke="#C06520" stroke-width="2.19" stroke-linecap="round" stroke-linejoin="round"/>
<path d="M205.58 249.232H205.83" stroke="#C06520" stroke-width="2.19" stroke-linecap="round" stroke-linejoin="round"/>
<path d="M210.42 249.232H210.67" stroke="#C06520" stroke-width="2.19" stroke-linecap="round" stroke-linejoin="round"/>
<path d="M239.86 249.232H240.11" stroke="#C06520" stroke-width="2.19" stroke-linecap="round" stroke-linejoin="round"/>
<path d="M244.71 249.232H244.96" stroke="#C06520" stroke-width="2.19" stroke-linecap="round" stroke-linejoin="round"/>
<path d="M249.55 249.232H249.8" stroke="#C06520" stroke-width="2.19" stroke-linecap="round" stroke-linejoin="round"/>
<path d="M230.18 249.232H230.43" stroke="#C06520" stroke-width="2.19" stroke-linecap="round" stroke-linejoin="round"/>
<path d="M235.02 249.232H235.27" stroke="#C06520" stroke-width="2.19" stroke-linecap="round" stroke-linejoin="round"/>
<path d="M264.27 249.232H264.52" stroke="#C06520" stroke-width="2.19" stroke-linecap="round" stroke-linejoin="round"/>
<path d="M254.58 249.232H254.83" stroke="#C06520" stroke-width="2.19" stroke-linecap="round" stroke-linejoin="round"/>
<path d="M259.42 249.232H259.67" stroke="#C06520" stroke-width="2.19" stroke-linecap="round" stroke-linejoin="round"/>
<path d="M269.5 253.025H201.23" stroke="#C06520" stroke-width="2.19" stroke-linecap="round" stroke-linejoin="round"/>
<path d="M84.68 57.0459H64.68C61.8688 57.0459 59.59 59.4672 59.59 62.4541V85.7336C59.59 88.7204 61.8688 91.1417 64.68 91.1417H84.68C87.4911 91.1417 89.77 88.7204 89.77 85.7336V62.4541C89.77 59.4672 87.4911 57.0459 84.68 57.0459Z" fill="black" stroke="#C06520" stroke-width="2.19" stroke-linecap="round" stroke-linejoin="round"/>
<mask id="mask1_264_9318" style="mask-type:luminance" maskUnits="userSpaceOnUse" x="63" y="61" width="24" height="26">
<path d="M74.68 86.4136C81.0865 86.4136 86.28 80.8955 86.28 74.0885C86.28 67.2816 81.0865 61.7635 74.68 61.7635C68.2735 61.7635 63.08 67.2816 63.08 74.0885C63.08 80.8955 68.2735 86.4136 74.68 86.4136Z" fill="white"/>
</mask>
<g mask="url(#mask1_264_9318)">
<path d="M81.96 31.0252L32.49 83.5873" stroke="#C06520" stroke-width="0.45" stroke-miterlimit="10"/>
<path d="M84.14 33.3521L34.67 85.9142" stroke="#C06520" stroke-width="0.45" stroke-miterlimit="10"/>
<path d="M86.32 35.6683L36.85 88.2305" stroke="#C06520" stroke-width="0.45" stroke-miterlimit="10"/>
<path d="M88.5 37.9846L39.03 90.5467" stroke="#C06520" stroke-width="0.45" stroke-miterlimit="10"/>
<path d="M90.69 40.3008L41.22 92.863" stroke="#C06520" stroke-width="0.45" stroke-miterlimit="10"/>
<path d="M92.87 42.6171L43.4 95.1793" stroke="#C06520" stroke-width="0.45" stroke-miterlimit="10"/>
<path d="M95.05 44.944L45.58 97.5061" stroke="#C06520" stroke-width="0.45" stroke-miterlimit="10"/>
<path d="M97.23 47.2603L47.76 99.8224" stroke="#C06520" stroke-width="0.45" stroke-miterlimit="10"/>
<path d="M99.4099 49.5765L49.9399 102.139" stroke="#C06520" stroke-width="0.45" stroke-miterlimit="10"/>
<path d="M101.6 51.8928L52.13 104.455" stroke="#C06520" stroke-width="0.45" stroke-miterlimit="10"/>
<path d="M103.78 54.209L54.3099 106.771" stroke="#C06520" stroke-width="0.45" stroke-miterlimit="10"/>
<path d="M105.96 56.5359L56.49 109.098" stroke="#C06520" stroke-width="0.45" stroke-miterlimit="10"/>
<path d="M108.14 58.8522L58.67 111.414" stroke="#C06520" stroke-width="0.45" stroke-miterlimit="10"/>
<path d="M110.32 61.1685L60.85 113.731" stroke="#C06520" stroke-width="0.45" stroke-miterlimit="10"/>
<path d="M112.51 63.4847L63.04 116.047" stroke="#C06520" stroke-width="0.45" stroke-miterlimit="10"/>
<path d="M114.69 65.801L65.22 118.363" stroke="#C06520" stroke-width="0.45" stroke-miterlimit="10"/>
<path d="M116.87 68.1279L67.4 120.69" stroke="#C06520" stroke-width="0.45" stroke-miterlimit="10"/>
<path d="M32.49 68.1279L81.96 120.69" stroke="#C06520" stroke-width="0.45" stroke-miterlimit="10"/>
<path d="M34.67 65.801L84.14 118.363" stroke="#C06520" stroke-width="0.45" stroke-miterlimit="10"/>
<path d="M36.85 63.4847L86.32 116.047" stroke="#C06520" stroke-width="0.45" stroke-miterlimit="10"/>
<path d="M39.03 61.1685L88.5 113.731" stroke="#C06520" stroke-width="0.45" stroke-miterlimit="10"/>
<path d="M41.22 58.8522L90.69 111.414" stroke="#C06520" stroke-width="0.45" stroke-miterlimit="10"/>
<path d="M43.4 56.5359L92.87 109.098" stroke="#C06520" stroke-width="0.45" stroke-miterlimit="10"/>
<path d="M45.58 54.209L95.05 106.771" stroke="#C06520" stroke-width="0.45" stroke-miterlimit="10"/>
<path d="M47.76 51.8928L97.23 104.455" stroke="#C06520" stroke-width="0.45" stroke-miterlimit="10"/>
<path d="M49.9399 49.5765L99.4099 102.139" stroke="#C06520" stroke-width="0.45" stroke-miterlimit="10"/>
<path d="M52.13 47.2603L101.6 99.8224" stroke="#C06520" stroke-width="0.45" stroke-miterlimit="10"/>
<path d="M54.3099 44.944L103.78 97.5061" stroke="#C06520" stroke-width="0.45" stroke-miterlimit="10"/>
<path d="M56.49 42.6171L105.96 95.1793" stroke="#C06520" stroke-width="0.45" stroke-miterlimit="10"/>
<path d="M58.67 40.3008L108.14 92.863" stroke="#C06520" stroke-width="0.45" stroke-miterlimit="10"/>
<path d="M60.85 37.9846L110.32 90.5467" stroke="#C06520" stroke-width="0.45" stroke-miterlimit="10"/>
<path d="M63.04 35.6683L112.51 88.2305" stroke="#C06520" stroke-width="0.45" stroke-miterlimit="10"/>
<path d="M65.22 33.3521L114.69 85.9142" stroke="#C06520" stroke-width="0.45" stroke-miterlimit="10"/>
<path d="M67.4 31.0252L116.87 83.5873" stroke="#C06520" stroke-width="0.45" stroke-miterlimit="10"/>
</g>
<path d="M74.68 86.4136C81.0865 86.4136 86.28 80.8955 86.28 74.0885C86.28 67.2816 81.0865 61.7635 74.68 61.7635C68.2735 61.7635 63.08 67.2816 63.08 74.0885C63.08 80.8955 68.2735 86.4136 74.68 86.4136Z" stroke="#C06520" stroke-width="2.09" stroke-miterlimit="10"/>
<path d="M59.22 144.214C62.3183 144.214 64.83 141.545 64.83 138.253C64.83 134.961 62.3183 132.293 59.22 132.293C56.1217 132.293 53.61 134.961 53.61 138.253C53.61 141.545 56.1217 144.214 59.22 144.214Z" fill="black" stroke="#C06520" stroke-width="2.19" stroke-miterlimit="10"/>
<path d="M70.45 144.214C73.5483 144.214 76.06 141.545 76.06 138.253C76.06 134.961 73.5483 132.293 70.45 132.293C67.3516 132.293 64.84 134.961 64.84 138.253C64.84 141.545 67.3516 144.214 70.45 144.214Z" fill="black" stroke="#C06520" stroke-width="2.19" stroke-miterlimit="10"/>
<path d="M81.6701 144.214C84.7684 144.214 87.2801 141.545 87.2801 138.253C87.2801 134.961 84.7684 132.293 81.6701 132.293C78.5717 132.293 76.0601 134.961 76.0601 138.253C76.0601 141.545 78.5717 144.214 81.6701 144.214Z" fill="black" stroke="#C06520" stroke-width="2.19" stroke-miterlimit="10"/>
<path d="M92.89 144.214C95.9883 144.214 98.5 141.545 98.5 138.253C98.5 134.961 95.9883 132.293 92.89 132.293C89.7917 132.293 87.28 134.961 87.28 138.253C87.28 141.545 89.7917 144.214 92.89 144.214Z" fill="black" stroke="#C06520" stroke-width="2.19" stroke-miterlimit="10"/>
<path d="M64.84 133.716C67.9383 133.716 70.45 131.048 70.45 127.756C70.45 124.464 67.9383 121.795 64.84 121.795C61.7417 121.795 59.23 124.464 59.23 127.756C59.23 131.048 61.7417 133.716 64.84 133.716Z" fill="black" stroke="#C06520" stroke-width="2.19" stroke-miterlimit="10"/>
<path d="M76.06 133.716C79.1583 133.716 81.67 131.048 81.67 127.756C81.67 124.464 79.1583 121.795 76.06 121.795C72.9616 121.795 70.45 124.464 70.45 127.756C70.45 131.048 72.9616 133.716 76.06 133.716Z" fill="black" stroke="#C06520" stroke-width="2.19" stroke-miterlimit="10"/>
<path d="M87.28 133.716C90.3784 133.716 92.89 131.048 92.89 127.756C92.89 124.464 90.3784 121.795 87.28 121.795C84.1817 121.795 81.67 124.464 81.67 127.756C81.67 131.048 84.1817 133.716 87.28 133.716Z" fill="black" stroke="#C06520" stroke-width="2.19" stroke-miterlimit="10"/>
<path d="M70.45 123.219C73.5483 123.219 76.06 120.55 76.06 117.258C76.06 113.966 73.5483 111.297 70.45 111.297C67.3516 111.297 64.84 113.966 64.84 117.258C64.84 120.55 67.3516 123.219 70.45 123.219Z" fill="black" stroke="#C06520" stroke-width="2.19" stroke-miterlimit="10"/>
<path d="M76.06 112.721C79.1583 112.721 81.67 110.053 81.67 106.761C81.67 103.469 79.1583 100.8 76.06 100.8C72.9616 100.8 70.45 103.469 70.45 106.761C70.45 110.053 72.9616 112.721 76.06 112.721Z" fill="black" stroke="#C06520" stroke-width="2.19" stroke-miterlimit="10"/>
<path d="M81.6701 123.219C84.7684 123.219 87.2801 120.55 87.2801 117.258C87.2801 113.966 84.7684 111.297 81.6701 111.297C78.5717 111.297 76.0601 113.966 76.0601 117.258C76.0601 120.55 78.5717 123.219 81.6701 123.219Z" fill="black" stroke="#C06520" stroke-width="2.19" stroke-miterlimit="10"/>
</g>
<defs>
<clipPath id="clip0_264_9318">
<rect width="303.79" height="522.03" fill="white"/>
</clipPath>
</defs>
</svg>
