<svg width="92" height="155" viewBox="0 0 92 155" fill="none" xmlns="http://www.w3.org/2000/svg">
<g clip-path="url(#clip0_25_3346)">
<path d="M-9.76585e-06 59.4047L7.24999 58.5653C8.28999 58.4378 8.70999 58.4378 9.45999 58.4272V58.2997C8.19999 58.2997 7.78999 58.2678 6.79999 58.1722L-9.76585e-06 57.5666V55.9091L11.82 57.3647V59.2878L5.38999 59.9785C4.71999 60.0528 4.06999 60.0528 3.32999 60.0528V60.2122C3.96999 60.2122 4.83999 60.2122 5.20999 60.2441L11.82 60.9241V62.8047L-9.76585e-06 64.2072V62.5922L7.40999 61.9547C8.29999 61.8697 8.72999 61.8697 9.46999 61.8485V61.7422C8.39999 61.7422 7.87999 61.721 7.23999 61.6572L-0.0100098 60.8922V59.3941L-9.76585e-06 59.4047Z" fill="#C06520"/>
<path d="M0 48.1421H4.8V46.5909H0V44.9334H11.82V46.6015H6.33V48.1315H11.82V49.789H0V48.1315V48.1421Z" fill="#C06520"/>
<path d="M1.43995 34.2339L12.8999 37.3365L12.5199 38.9196L1.06995 35.8171L1.44995 34.2339H1.43995Z" fill="#C06520"/>
<path d="M13.56 29.612C13.91 29.8246 14.55 30.2177 14.95 29.4845C15.32 28.8045 14.68 28.3902 14.14 28.0608C13.18 27.4658 12.65 27.3808 10.75 27.5295C9.10996 27.6677 7.88996 27.7633 6.56996 26.9452C6.01996 26.6052 5.62996 26.1908 5.36996 25.7127C4.94996 24.8733 5.12996 24.0976 5.52996 23.3645C6.26996 22.0045 7.22996 21.962 8.27996 22.6208L10.11 23.747L9.38996 25.0539L7.57996 23.9383C7.25996 23.7364 6.85996 23.5558 6.56996 24.0764C6.19996 24.7351 6.68996 25.1177 7.19996 25.4364C8.23996 26.0845 8.90996 26.042 10.94 25.872C12.29 25.7764 13.44 25.6914 14.76 26.5095C15.44 26.9345 15.99 27.5189 16.23 28.1033C16.59 29.0064 16.23 29.7502 16.02 30.1539C14.88 32.2258 13.19 31.1846 12.67 30.8658L10.96 29.8139L11.69 28.4858L13.56 29.6439V29.612Z" fill="#C06520"/>
<path d="M14.79 12.0063L15.96 10.8907L18.44 16.8938L24.15 19.9539L22.97 21.0801L18.58 18.6682C18.45 18.5939 17.89 18.2539 17.75 18.1689L21.45 22.5357L20.29 23.6408L12.38 14.312L13.55 13.1963L16.69 16.8938C16.95 17.202 17.07 17.372 17.27 17.6057C17.04 17.1807 16.84 16.7238 16.78 16.5645L14.8 11.9957L14.79 12.0063Z" fill="#C06520"/>
<path d="M23.45 5.7269L25.28 8.02191C25.87 8.76567 26.22 9.39254 26.59 10.0407L26.7 9.98755C26.56 9.60504 26.21 8.69129 25.99 7.50128L25.49 4.66439L26.9 3.92064L28.18 11.3901L30.37 16.1182L28.85 16.9151L26.66 12.1976L21.99 6.48128L23.43 5.7269H23.45Z" fill="#C06520"/>
<path d="M43.38 0.0637503L47.43 0L47.45 1.56188L44.95 1.60438L45 5.24878L47.26 5.20628L47.28 6.73629L45.04 6.76816L45.12 12.6013L43.55 12.6226L43.37 0.0531253L43.38 0.0637503Z" fill="#C06520"/>
<path d="M55.43 1.11564L57.89 1.80626C59.74 2.32689 59.81 2.9219 59.21 5.32316C58.68 7.4588 58.41 8.31942 57.18 7.95817L57.16 8.03255C58.21 8.4788 58.19 9.16943 57.79 10.7844L57.46 12.1126C57.09 13.5788 57.07 13.802 57.15 14.5988L55.58 14.1526C55.63 13.4088 55.66 12.7819 55.98 11.5388L56.19 10.6782C56.31 10.2107 56.53 9.2438 56.45 8.79755C56.36 8.38317 56.19 8.34068 55.29 8.08567L53.89 13.6745L52.39 13.2495L55.43 1.10501V1.11564ZM56.59 3.0069L55.65 6.75754L56.36 6.95942C57.12 7.17192 57.24 6.82129 57.75 4.81316C58.08 3.4744 58.01 3.41065 57.36 3.23002L56.59 3.0069Z" fill="#C06520"/>
<path d="M70.2999 7.51191L65.8199 19.3057L64.5099 18.477L65.3599 16.3201L63.8299 15.3532L62.4899 17.202L61.1899 16.3838L68.6599 6.48128L70.2899 7.51191H70.2999ZM68.2899 8.98879C67.4599 10.37 67.3699 10.5188 67.2399 10.6888L64.7299 14.1313L65.9399 14.8963L67.5299 10.8376C67.6999 10.3807 67.9199 9.9663 68.3999 9.06317L68.2899 8.98879Z" fill="#C06520"/>
<path d="M79.26 15.2788L74.86 22.0789C74.59 22.4826 74.39 22.7695 74.16 23.1201L74.23 23.1945C74.59 22.7483 74.96 22.2914 75.35 21.8664L76.12 21.0164L80.47 16.692L81.45 17.8289L72.73 26.297L71.57 24.9476L76.79 17.0851L76.72 17.0107L76.02 17.8076L75.31 18.5939L70.37 23.577L69.39 22.4401L78.11 13.972L79.24 15.2895L79.26 15.2788Z" fill="#C06520"/>
<path d="M79.97 34.3614C79.42 34.6271 77.66 35.4133 76.53 33.5221L75.98 33.4796C76.24 34.1914 76.31 34.9033 75.68 35.2008C75.21 35.4346 74.26 35.4346 73.28 32.9164L73.75 32.6933C74.32 34.2552 74.8 34.0214 74.89 33.9789C75.3 33.7771 75.07 33.1927 74.84 32.5552L76.2 32.7252C75.58 30.547 77.14 29.7927 78.04 29.3677L83.22 26.8814C84.18 26.4139 86.31 25.3939 87.4 27.9545C88.41 30.3133 86.53 31.2164 85.77 31.5883L84.4 32.247L83.76 30.7383L85.42 29.9414C85.77 29.7714 86.53 29.4102 86.13 28.4645C85.72 27.5083 84.93 27.8908 84.36 28.1564L78.41 31.0145C77.82 31.3014 77.16 31.6202 77.55 32.5445C77.96 33.5008 78.69 33.1502 79.22 32.8952L81.32 31.8858L81.97 33.4052L79.96 34.3721L79.97 34.3614Z" fill="#C06520"/>
<path d="M90.72 42.2771L79.15 45.454L79 43.839L81.13 43.2865L80.95 41.4059L78.76 41.3527L78.61 39.759L90.53 40.2584L90.72 42.2559V42.2771ZM88.4 41.4377C86.86 41.544 86.7 41.5652 86.49 41.5546L82.39 41.4484L82.53 42.9359L86.55 41.884C86.99 41.7671 87.44 41.7034 88.41 41.5759L88.39 41.4377H88.4Z" fill="#C06520"/>
<path d="M90.84 52.4984H79.02V50.8622H90.84V52.4984Z" fill="#C06520"/>
<path d="M81.18 60.4778C80.78 60.4778 80.04 60.4778 80.04 61.3278C80.04 62.1141 80.79 62.1353 81.41 62.1353C82.51 62.1353 83.02 61.9228 84.59 60.7859C85.95 59.7872 86.95 59.0647 88.47 59.0647C89.11 59.0647 89.64 59.2028 90.09 59.4897C90.85 59.9891 91.06 60.7541 91.06 61.6041C91.06 63.166 90.26 63.7185 89.03 63.7185H86.92V62.2097H89.01C89.38 62.2097 89.81 62.1566 89.81 61.5509C89.81 60.7859 89.21 60.7116 88.62 60.7116C87.42 60.7116 86.86 61.1047 85.19 62.3266C84.07 63.1341 83.11 63.8247 81.59 63.8247C80.8 63.8247 80.05 63.6122 79.56 63.2403C78.82 62.656 78.77 61.8166 78.77 61.3597C78.77 58.9584 80.73 58.9584 81.33 58.9584H83.31V60.4884H81.15L81.18 60.4778Z" fill="#C06520"/>
<path d="M66.6601 129.838V43.7858C66.6501 32.8952 57.4501 24.0657 46.1001 24.0551C34.7501 24.0657 25.5501 32.8952 25.5401 43.7858V150.61C25.5301 151.885 24.1801 152.002 24.1801 152.002V154.127H37.6101V152.002C37.6101 152.002 36.2501 151.896 36.2501 150.6V73.0898L55.9601 69.6685V129.859H66.6701L66.6601 129.838ZM36.2501 62.8047V43.7858C36.2501 38.5689 40.6601 34.3295 46.1001 34.3295C51.5401 34.3295 55.9501 38.5583 55.9501 43.7858V59.3834L36.2401 62.8047H36.2501Z" fill="#C06520"/>
</g>
<defs>
<clipPath id="clip0_25_3346">
<rect width="91.07" height="154.127" fill="white"/>
</clipPath>
</defs>
</svg>
