<svg width="309" height="306" viewBox="0 0 309 306" fill="none" xmlns="http://www.w3.org/2000/svg">
<g clip-path="url(#clip0_36_4788)">
<path d="M2.52532 153.346C2.52532 236.302 70.0671 303.552 153.384 303.552C236.701 303.552 304.243 236.302 304.243 153.346C304.243 70.3893 236.701 3.13965 153.384 3.13965C70.0671 3.13965 2.52532 70.3893 2.52532 153.346Z" fill="black"/>
<mask id="mask0_36_4788" style="mask-type:luminance" maskUnits="userSpaceOnUse" x="59" y="55" width="189" height="196">
<path d="M247.288 180.672C237.629 176.171 230.846 165.635 230.834 153.349C230.846 141.06 237.626 130.525 247.288 126.023C235.422 85.5303 197.885 55.937 153.384 55.937C108.883 55.937 71.3547 85.5272 59.4826 126.014C69.1573 130.509 75.9524 141.051 75.9647 153.349C75.9524 165.647 69.1573 176.189 59.4826 180.684C71.3516 221.171 108.886 250.761 153.384 250.761C197.882 250.761 235.422 221.168 247.288 180.675V180.672Z" fill="white"/>
</mask>
<g mask="url(#mask0_36_4788)">
<path d="M131.619 407.252V357.549C133.829 357.154 135.58 355.48 136.084 353.317H147.655L147.655 395.603C147.655 396.151 148.101 396.598 148.654 396.598C149.207 396.598 149.653 396.154 149.653 395.603L149.653 353.317H164.085L164.085 401.457C164.085 402.005 164.531 402.451 165.084 402.451C165.637 402.451 166.083 402.008 166.083 401.457L166.083 353.317H180.34L180.34 400.205C180.34 400.753 180.786 401.2 181.339 401.2C181.892 401.2 182.338 400.756 182.338 400.205L182.338 353.317H212.711L212.711 363.73H202.246C198.5 363.73 195.464 366.753 195.46 370.487V400.147C195.46 400.695 195.906 401.142 196.459 401.142C197.013 401.142 197.458 400.698 197.458 400.147V370.487C197.464 367.852 199.603 365.722 202.249 365.719H212.714V395.606C212.714 396.154 213.16 396.601 213.713 396.601C214.266 396.601 214.712 396.157 214.712 395.606V365.193C214.788 365.052 214.844 364.899 214.844 364.728C214.844 364.556 214.788 364.403 214.712 364.262L214.712 324.47H224.752C224.752 324.501 224.749 324.522 224.746 324.559C224.635 326.747 224.598 333.779 224.598 342.69C224.598 364.027 224.817 395.949 224.817 395.952C224.82 396.5 225.271 396.943 225.822 396.937C226.372 396.934 226.817 396.484 226.811 395.937C226.811 395.93 226.799 393.941 226.777 390.615C226.716 380.637 226.593 358.681 226.593 342.69C226.593 337.359 226.605 332.689 226.642 329.351C226.661 327.683 226.682 326.346 226.71 325.431C226.722 325.012 226.737 324.694 226.75 324.47H233.935V327.059C233.935 327.377 234.089 327.677 234.35 327.864C234.608 328.05 234.943 328.102 235.247 328.002C235.994 327.757 236.762 327.628 237.534 327.555V397.448C237.534 397.996 237.979 398.443 238.533 398.443C239.086 398.443 239.532 397.999 239.532 397.448V327.555C240.306 327.628 241.074 327.757 241.821 328.002C242.125 328.102 242.46 328.05 242.719 327.864C242.977 327.677 243.13 327.377 243.13 327.059V319.893C243.13 319.574 242.977 319.274 242.719 319.088C242.46 318.901 242.125 318.849 241.821 318.95C240.755 319.302 239.645 319.476 238.536 319.476C237.426 319.476 236.317 319.302 235.25 318.95C234.946 318.849 234.611 318.901 234.353 319.088C234.095 319.274 233.941 319.574 233.941 319.893V322.481H214.718V314.118L262.354 314.118V322.481L246.729 322.481V319.893C246.729 319.345 246.284 318.898 245.73 318.898C245.177 318.898 244.732 319.342 244.732 319.893V327.059C244.732 327.607 245.177 328.053 245.73 328.053C246.284 328.053 246.729 327.61 246.729 327.059V324.47H249.461C249.461 324.501 249.458 324.522 249.455 324.559C249.345 326.747 249.308 333.779 249.308 342.69C249.308 364.027 249.526 395.949 249.526 395.952C249.529 396.5 249.981 396.943 250.531 396.937C251.081 396.934 251.527 396.484 251.52 395.937C251.52 395.93 251.508 393.941 251.487 390.615C251.425 380.637 251.302 358.681 251.302 342.69C251.302 337.359 251.315 332.689 251.351 329.351C251.37 327.683 251.391 326.346 251.419 325.431C251.431 325.012 251.447 324.694 251.459 324.47L262.354 324.47V394.073C262.354 394.621 262.799 395.068 263.353 395.068C263.906 395.068 264.351 394.624 264.351 394.073V306.361C264.351 302.891 261.527 300.076 258.039 300.076L219.242 300.076C218.827 297.784 217.02 295.985 214.718 295.572V289.409L270.261 289.409V394.07C270.261 394.618 270.707 395.064 271.26 395.064C271.813 395.064 272.259 394.621 272.259 394.07V275.519H278.058V394.07C278.058 394.618 278.504 395.064 279.057 395.064C279.61 395.064 280.056 394.621 280.056 394.07V350.63H289.337C291.476 350.633 293.21 352.359 293.213 354.489V393.804C293.213 394.351 293.658 394.798 294.212 394.798C294.765 394.798 295.21 394.355 295.21 393.804V386.42C295.905 386.399 296.944 386.389 298.148 386.389C301.738 386.389 306.661 386.463 307.934 386.481V393.146C307.934 393.694 308.379 394.14 308.933 394.14C309.486 394.14 309.931 393.697 309.931 393.146V336.055H315.027C317.415 336.058 319.348 337.983 319.351 340.361V392.818C319.351 393.366 319.797 393.813 320.35 393.813C320.903 393.813 321.349 393.369 321.349 392.818V340.361C321.349 336.885 318.521 334.069 315.03 334.069H309.922V320.385H321.023C323.654 320.385 326.029 321.444 327.753 323.161C329.478 324.88 330.541 327.243 330.541 329.862V392.491C330.541 393.039 330.987 393.486 331.54 393.486C332.093 393.486 332.539 393.042 332.539 392.491V354.455H343.252V394.131C343.252 394.679 343.698 395.126 344.251 395.126C344.804 395.126 345.25 394.682 345.25 394.131V299.017C345.25 298.968 345.228 298.928 345.222 298.879V239.105C345.222 238.845 345.114 238.588 344.93 238.405C344.746 238.218 344.488 238.114 344.226 238.114H326.696C324.834 238.111 323.325 236.608 323.322 234.754V226.976H346.347C346.897 226.976 347.346 226.532 347.346 225.981C347.346 225.43 346.9 224.987 346.347 224.987H309.363C309.231 224.922 309.086 224.876 308.926 224.876C308.767 224.876 308.625 224.922 308.49 224.987H289.519V215.253C289.522 213.233 291.163 211.602 293.188 211.599H340.308C340.858 211.599 341.307 211.155 341.307 210.605C341.307 210.054 340.861 209.61 340.308 209.61H293.188C290.06 209.61 287.524 212.135 287.524 215.253V224.987H277.892V201.238C278.181 201.232 278.559 201.226 279.011 201.22C281.866 201.183 287.847 201.171 295.069 201.171C305.008 201.171 317.31 201.195 327.13 201.22C332.038 201.232 336.325 201.244 339.386 201.253C342.447 201.262 344.275 201.269 344.279 201.269C344.829 201.269 345.277 200.828 345.28 200.28C345.28 199.732 344.838 199.286 344.288 199.283C344.288 199.283 343.775 199.283 342.853 199.276V183.193C342.853 182.933 342.745 182.676 342.561 182.492C342.376 182.306 342.118 182.202 341.857 182.202H330.052V166.697H341.857C342.407 166.697 342.856 166.253 342.856 165.702C342.856 165.151 342.41 164.708 341.857 164.708H330.052V157.859C330.052 157.312 329.607 156.865 329.053 156.865C328.5 156.865 328.055 157.309 328.055 157.859V164.708H317.246V161.785C317.246 159.276 317.609 156.779 318.318 154.371L320.181 148.067C320.946 145.479 321.336 142.792 321.336 140.093V135.368H337.112C341.602 135.368 345.244 131.745 345.244 127.272V28.2225C345.244 28.1735 345.222 28.1338 345.216 28.0848V-31.6862C345.216 -31.9463 345.108 -32.2033 344.924 -32.3869C344.74 -32.5736 344.481 -32.6776 344.22 -32.6776H326.69C324.828 -32.6807 323.319 -34.1831 323.316 -36.0375V-43.816L346.341 -43.816C346.891 -43.816 347.34 -44.2597 347.34 -44.8105C347.34 -45.3613 346.894 -45.805 346.341 -45.805L309.363 -45.805C309.231 -45.8693 309.086 -45.9152 308.926 -45.9152C308.767 -45.9152 308.625 -45.8693 308.49 -45.805H289.519V-55.5389C289.522 -57.5585 291.163 -59.1895 293.188 -59.1925L340.308 -59.1925C340.858 -59.1925 341.307 -59.6362 341.307 -60.187C341.307 -60.7378 340.861 -61.1815 340.308 -61.1815L293.188 -61.1815C290.06 -61.1815 287.524 -58.657 287.524 -55.5389V-45.805H277.892V-69.5537C278.181 -69.5598 278.559 -69.5659 279.011 -69.572C281.866 -69.6088 287.847 -69.621 295.069 -69.621C305.008 -69.621 317.31 -69.5965 327.13 -69.572C332.038 -69.5598 336.325 -69.5476 339.386 -69.5384C342.447 -69.5292 344.275 -69.5231 344.279 -69.5231C344.829 -69.5231 345.277 -69.9637 345.28 -70.5114C345.28 -71.0592 344.838 -71.506 344.288 -71.509C344.288 -71.509 343.775 -71.509 342.853 -71.5151V-87.5985C342.853 -87.8586 342.745 -88.1156 342.561 -88.2992C342.376 -88.4859 342.118 -88.5899 341.857 -88.5899H330.052V-104.095H341.857C342.407 -104.095 342.856 -104.539 342.856 -105.089C342.856 -105.64 342.41 -106.084 341.857 -106.084H330.052V-112.932C330.052 -113.48 329.607 -113.927 329.053 -113.927C328.5 -113.927 328.055 -113.483 328.055 -112.932V-105.775C327.883 -105.597 327.775 -105.359 327.775 -105.093C327.775 -104.826 327.883 -104.588 328.055 -104.41V-88.2839C327.883 -88.1065 327.775 -87.8678 327.775 -87.6016C327.775 -87.3353 327.883 -87.0966 328.055 -86.9192V-71.558C324.702 -71.5672 321.035 -71.5763 317.249 -71.5824V-112.932C317.249 -113.48 316.803 -113.927 316.25 -113.927C315.697 -113.927 315.251 -113.483 315.251 -112.932V-71.5855C311.662 -71.5916 308.004 -71.5978 304.446 -71.6008V-112.932C304.446 -113.48 304 -113.927 303.447 -113.927C302.894 -113.927 302.448 -113.483 302.448 -112.932V-71.6039C299.9 -71.6039 297.414 -71.6069 295.066 -71.6069C293.886 -71.6069 292.746 -71.6069 291.642 -71.6069V-112.932C291.642 -113.48 291.197 -113.927 290.643 -113.927C290.09 -113.927 289.645 -113.483 289.645 -112.932V-71.6039C286.928 -71.6039 284.481 -71.5947 282.527 -71.5855C280.935 -71.5763 279.638 -71.5672 278.716 -71.5549C278.387 -71.5518 278.123 -71.5457 277.889 -71.5396V-113.471C277.889 -114.019 277.444 -114.465 276.89 -114.465C276.337 -114.465 275.892 -114.022 275.892 -113.471V-97.9474C274.49 -97.9413 270.851 -97.9199 266.285 -97.9015C260.424 -97.877 253.1 -97.8526 247.242 -97.8526C246.815 -97.8526 246.416 -97.8526 246.004 -97.8526C245.878 -97.9107 245.736 -97.9474 245.589 -97.9474C245.441 -97.9474 245.3 -97.9107 245.174 -97.8526C243.112 -97.8526 241.308 -97.8617 239.925 -97.874C239.11 -97.8801 238.468 -97.8893 237.983 -97.9015V-113.471C237.983 -114.019 237.537 -114.465 236.984 -114.465C236.431 -114.465 235.985 -114.022 235.985 -113.471V-45.805H229.703V-113.471C229.703 -114.019 229.257 -114.465 228.704 -114.465C228.151 -114.465 227.705 -114.022 227.705 -113.471V-45.805H220.394V-69.0182C222.782 -69.6638 224.549 -71.815 224.549 -74.3977C224.549 -76.9803 222.782 -79.1315 220.394 -79.7771V-113.468C220.394 -114.015 219.948 -114.462 219.395 -114.462C218.842 -114.462 218.396 -114.019 218.396 -113.468V-96.855L211.377 -96.855V-118.902C211.377 -119.45 210.931 -119.897 210.378 -119.897C209.825 -119.897 209.379 -119.453 209.379 -118.902V-96.855H201.752V-118.902C201.752 -119.45 201.306 -119.897 200.753 -119.897C200.2 -119.897 199.754 -119.453 199.754 -118.902V-97.5466C199.52 -97.3905 199.36 -97.1457 199.324 -96.855L192.123 -96.855V-118.902C192.123 -119.45 191.677 -119.897 191.124 -119.897C190.571 -119.897 190.125 -119.453 190.125 -118.902V-96.855H182.599C182.583 -96.9774 182.553 -97.0906 182.497 -97.1947V-118.902C182.497 -119.45 182.052 -119.897 181.499 -119.897C180.945 -119.897 180.5 -119.453 180.5 -118.902V-96.855H172.872V-118.902C172.872 -119.45 172.426 -119.897 171.873 -119.897C171.32 -119.897 170.874 -119.453 170.874 -118.902V-96.855H163.928C163.879 -97.2467 163.612 -97.5588 163.246 -97.672V-118.902C163.246 -119.45 162.801 -119.897 162.247 -119.897C161.694 -119.897 161.249 -119.453 161.249 -118.902V-96.855H153.621V-118.902C153.621 -119.45 153.175 -119.897 152.622 -119.897C152.069 -119.897 151.623 -119.453 151.623 -118.902V-96.855H143.995V-118.902C143.995 -119.45 143.549 -119.897 142.996 -119.897C142.443 -119.897 141.997 -119.453 141.997 -118.902V-96.855H134.37V-118.902C134.37 -119.45 133.924 -119.897 133.371 -119.897C132.818 -119.897 132.372 -119.453 132.372 -118.902V-96.855H124.744V-118.902C124.744 -119.45 124.298 -119.897 123.745 -119.897C123.192 -119.897 122.746 -119.453 122.746 -118.902V-96.855H113.542V-118.902C113.542 -119.45 113.096 -119.897 112.543 -119.897C111.99 -119.897 111.544 -119.453 111.544 -118.902V-85.074C111.421 -84.9087 111.335 -84.7129 111.335 -84.4926C111.335 -84.2723 111.421 -84.0764 111.544 -83.9112V-75.3891H95.5416V-130.191C95.5416 -130.738 95.0959 -131.185 94.5428 -131.185C93.9896 -131.185 93.5439 -130.741 93.5439 -130.191V-85.6646H87.7293V-138.572H86.5338V-85.0067H84.5945V-138.572H83.399V-85.6646H81.0541C80.8451 -87.675 79.6096 -89.3702 77.8609 -90.2178V-91.8366C77.8609 -94.7283 75.5068 -97.0723 72.6025 -97.0723H69.6245V-138.499C69.6245 -139.046 69.1789 -139.493 68.6257 -139.493C68.0725 -139.493 67.6269 -139.049 67.6269 -138.499V-97.0723H50.5148V-130.191C50.5148 -130.738 50.0691 -131.185 49.5159 -131.185C48.9628 -131.185 48.5171 -130.741 48.5171 -130.191V-97.0723L28.1381 -97.0723V-146.014C28.1381 -146.562 27.6925 -147.008 27.1393 -147.008C26.5861 -147.008 26.1405 -146.565 26.1405 -146.014V-124.885L-24.7256 -124.885V-154.502C-24.7256 -155.05 -25.1712 -155.497 -25.7244 -155.497C-26.2776 -155.497 -26.7232 -155.053 -26.7232 -154.502V-112.638H-32.3135C-32.8637 -112.638 -33.3124 -112.195 -33.3124 -111.644C-33.3124 -111.093 -32.8667 -110.649 -32.3135 -110.649H-26.7232V-97.0692H-33.632C-34.1821 -97.0692 -34.6308 -96.6255 -34.6308 -96.0747C-34.6308 -95.5239 -34.1852 -95.0802 -33.632 -95.0802H-26.7232V-91.2062H-32.3135C-32.8637 -91.2062 -33.3124 -90.7625 -33.3124 -90.2117C-33.3124 -89.6609 -32.8667 -89.2172 -32.3135 -89.2172H-26.7232V-75.3799H-34.9504C-35.5006 -75.3799 -35.9493 -74.9362 -35.9493 -74.3854C-35.9493 -73.8346 -35.5036 -73.3909 -34.9504 -73.3909H-26.6833C-26.588 -72.9411 -26.2069 -72.5984 -25.7275 -72.5984C-25.2481 -72.5984 -24.867 -72.9442 -24.7717 -73.3909L18.6724 -73.3909C19.0135 -70.5451 21.4169 -68.3327 24.3672 -68.3327H26.1374V-60.3645C26.0545 -60.2696 25.9868 -60.1564 25.9438 -60.0279C25.8301 -59.6913 25.9254 -59.3455 26.1374 -59.0915V-45.7928H6.45296V-51.5242C6.45296 -57.2555 1.78771 -61.9006 -3.96858 -61.9006L-39.3422 -61.9006C-39.8923 -61.9006 -40.341 -61.4569 -40.341 -60.9061C-40.341 -60.3553 -39.8954 -59.9116 -39.3422 -59.9116L-3.96858 -59.9116C-1.63902 -59.9116 0.463125 -58.9752 1.99056 -57.4544C3.51796 -55.9336 4.45839 -53.8406 4.45839 -51.5211V-45.7897L-41.9791 -45.7897C-42.5292 -45.7897 -42.9779 -45.346 -42.9779 -44.7952C-42.9779 -44.2444 -42.5323 -43.8007 -41.9791 -43.8007L129.105 -43.8007V-32.9897L-3.94401 -32.9897C-4.01469 -33.005 -4.08228 -33.0326 -4.15605 -33.0326C-4.22981 -33.0326 -4.2974 -33.005 -4.36808 -32.9897L-37.5873 -32.9897C-38.1375 -32.9897 -38.5862 -32.546 -38.5862 -31.9952C-38.5862 -31.4444 -38.1405 -31.0007 -37.5873 -31.0007H-25.8474L-25.8474 190.372H-27.6176C-30.8015 190.372 -33.38 192.942 -33.38 196.109V196.734C-33.38 199.904 -30.8015 202.471 -27.6176 202.471H-22.0826C-19.1322 202.471 -16.732 200.259 -16.3878 197.413H15.3471V224.727C15.3471 224.827 15.3778 224.922 15.4054 225.014H6.45296V219.283C6.45296 213.551 1.78771 208.906 -3.96858 208.906H-39.3422C-39.8923 208.906 -40.341 209.35 -40.341 209.901C-40.341 210.452 -39.8954 210.895 -39.3422 210.895H-3.96858C-1.63902 210.895 0.463125 211.832 1.99056 213.352C3.51796 214.873 4.45839 216.966 4.45839 219.286V225.017H-41.9791C-42.5292 225.017 -42.9779 225.461 -42.9779 226.012C-42.9779 226.563 -42.5323 227.006 -41.9791 227.006L129.105 227.006V237.817L-3.94401 237.817C-4.01469 237.802 -4.08228 237.774 -4.15605 237.774C-4.22981 237.774 -4.2974 237.802 -4.36808 237.817H-37.5873C-38.1375 237.817 -38.5862 238.261 -38.5862 238.812C-38.5862 239.362 -38.1405 239.806 -37.5873 239.806H-25.8474V397.95C-25.8474 398.498 -25.4017 398.945 -24.8485 398.945C-24.2954 398.945 -23.8497 398.501 -23.8497 397.95V354.265H-8.39411V356.854C-8.39411 357.172 -8.24046 357.472 -7.98231 357.659C-7.72416 357.846 -7.38917 357.898 -7.08491 357.797C-6.01847 357.445 -4.90904 357.27 -3.79957 357.27C-2.6901 357.27 -1.58064 357.445 -0.5142 357.797C-0.20994 357.898 0.125051 357.846 0.38323 357.659C0.641378 357.472 0.798116 357.172 0.798116 356.854V354.265H2.40236V356.854C2.40236 357.402 2.84798 357.849 3.40117 357.849C3.95437 357.849 4.39998 357.405 4.39998 356.854V354.265H15.3532V398.706C15.3532 399.254 15.7988 399.7 16.352 399.7C16.9052 399.7 17.3508 399.257 17.3508 398.706V395.652H83.064C83.1532 395.676 83.2392 395.707 83.3375 395.707C83.4359 395.707 83.5219 395.676 83.611 395.652H111.541C111.55 396.194 111.99 396.631 112.537 396.631C113.084 396.631 113.536 396.187 113.536 395.637L113.536 353.351H125.107C125.611 355.511 127.362 357.185 129.572 357.582V407.286C129.572 407.834 130.018 408.281 130.571 408.281C131.124 408.281 131.57 407.837 131.57 407.286L131.619 407.252ZM241.117 321.15V325.795C240.586 325.682 240.051 325.609 239.513 325.566C239.181 325.538 238.849 325.486 238.517 325.486C238.185 325.486 237.853 325.538 237.519 325.566C236.981 325.609 236.446 325.682 235.914 325.795V321.15C236.775 321.334 237.641 321.459 238.514 321.459C239.387 321.459 240.257 321.334 241.114 321.15H241.117ZM330.049 -86.604H340.855V-71.5182C338.319 -71.5274 334.536 -71.5366 330.049 -71.5488V-86.604ZM127.236 353.317C127.086 352.922 126.994 352.5 126.994 352.05C126.994 351.802 127.021 351.564 127.067 351.331C127.405 349.682 128.865 348.442 130.62 348.439C132.375 348.439 133.835 349.682 134.173 351.331C134.219 351.564 134.247 351.805 134.247 352.05C134.247 352.497 134.154 352.922 134.004 353.317C133.488 354.682 132.172 355.658 130.62 355.661C129.068 355.661 127.753 354.682 127.236 353.317ZM136.167 351.331C135.851 348.91 134.007 346.983 131.616 346.554V317.613H180.331V327.129C180.331 328.797 178.969 330.15 177.294 330.153H157.198C151.927 330.153 147.655 334.406 147.655 339.654V351.331H136.167ZM17.4031 363.528V350.248H57.2699C64.5351 350.248 70.4236 344.385 70.4266 337.148V331.943C70.5004 331.805 70.5526 331.655 70.5526 331.487C70.5526 331.319 70.5004 331.169 70.4266 331.031V315.324C70.5004 315.186 70.5526 315.036 70.5526 314.868C70.5526 314.7 70.5004 314.55 70.4266 314.412V309.4C70.4266 308.43 70.5157 307.634 70.7032 307.025C71.0013 306.113 71.4101 305.602 72.3167 305.156C73.2295 304.718 74.72 304.455 76.9113 304.458H102.426C103.756 308.396 107.291 311.282 111.59 311.679V315.333H86.5338C84.9449 315.333 83.6572 316.615 83.6541 318.2V330.428C83.4543 330.609 83.3252 330.863 83.3252 331.15C83.3252 331.444 83.4543 331.701 83.6541 331.882V343.222C83.6541 348.831 81.3737 353.898 77.6827 357.576C73.9886 361.251 68.8992 363.522 63.2659 363.522H17.4031V363.528ZM17.4031 332.481L68.4321 332.481V337.148C68.4321 340.22 67.1843 342.992 65.1621 345.006C63.1398 347.019 60.3555 348.262 57.2699 348.262H17.4031V332.481ZM4.45534 274.222C4.45534 273.674 4.00969 273.228 3.4565 273.228C2.90331 273.228 2.45769 273.671 2.45769 274.222V276.811H0.853445V274.222C0.853445 273.904 0.699758 273.604 0.438528 273.417C0.180349 273.231 -0.154612 273.179 -0.458872 273.28C-1.31938 273.564 -2.20759 273.702 -3.10191 273.757V239.776H37.3027V250.828H22.0653C18.3866 250.828 15.4024 253.797 15.4024 257.462V276.814H4.44918V274.225L4.45534 274.222ZM-6.3412 280.128V275.483C-5.48066 275.666 -4.61396 275.792 -3.74116 275.792C-2.86833 275.792 -1.99858 275.666 -1.14112 275.483V280.128C-2.00166 279.944 -2.86833 279.819 -3.74116 279.819C-4.61396 279.819 -5.48374 279.944 -6.3412 280.128ZM129.166 265.847V269.341C129.166 271.991 130.574 274.295 132.676 275.605C130.657 276.722 129.277 278.84 129.277 281.303V300.073H123.253C122.774 294.957 118.723 290.923 113.585 290.446V265.847H129.166ZM28.1904 202.45H29.9606C32.9109 202.45 35.3112 200.237 35.6554 197.392H48.3512V210.146C44.3774 210.161 40.1824 210.173 36.562 210.173C33.9005 210.173 31.5525 210.167 29.8499 210.152C29.1769 210.146 28.6421 210.139 28.1904 210.13V202.453V202.45ZM17.4031 82.4426V79.45H57.2699C64.5351 79.45 70.4236 73.587 70.4266 66.3501V61.145C70.5004 61.0073 70.5526 60.8574 70.5526 60.6891C70.5526 60.5208 70.5004 60.3709 70.4266 60.2332L70.4266 44.5262C70.5004 44.3885 70.5526 44.2385 70.5526 44.0702C70.5526 43.9019 70.5004 43.752 70.4266 43.6143V38.602C70.4266 37.632 70.5157 36.8364 70.7032 36.2275C71.0013 35.3156 71.4101 34.8046 72.3167 34.3578C73.2295 33.9202 74.72 33.6571 76.9113 33.6601H102.426C103.756 37.5983 107.291 40.4839 111.59 40.8817V44.5354L86.5338 44.5354C84.9449 44.5354 83.6572 45.8175 83.6541 47.4026L83.6541 59.6303C83.4543 59.8109 83.3252 60.0649 83.3252 60.3525C83.3252 60.6463 83.4543 60.9033 83.6541 61.0838V72.4242C83.6541 78.0332 81.3737 83.1005 77.6827 86.7787C73.9886 90.4537 68.8992 92.7242 63.2659 92.7242H17.4031V82.4365V82.4426ZM4.45534 3.42426C4.45534 2.87652 4.00969 2.42975 3.4565 2.42975C2.90331 2.42975 2.45769 2.87345 2.45769 3.42426V6.01302H0.853445V3.42426C0.853445 3.10601 0.699758 2.80616 0.438528 2.6195C0.180349 2.43284 -0.154612 2.3808 -0.458872 2.48179C-1.31938 2.76636 -2.20759 2.90407 -3.10191 2.95914V-31.0222H37.3027V-19.9694H22.0653C18.3866 -19.9694 15.4024 -17.0012 15.4024 -13.3354V6.01609H4.44918V3.42731L4.45534 3.42426ZM-6.3412 9.33007V4.68499C-5.48066 4.8686 -4.61396 4.99404 -3.74116 4.99404C-2.86833 4.99404 -1.99858 4.8686 -1.14112 4.68499V9.33007C-2.00166 9.14647 -2.86833 9.021 -3.74116 9.021C-4.61396 9.021 -5.48374 9.14647 -6.3412 9.33007ZM129.166 -4.9479V-1.45338C129.166 1.19658 130.574 3.50077 132.676 4.81045C130.657 5.92734 129.277 8.04487 129.277 10.5082V29.2782H123.253C122.774 24.1619 118.723 20.1288 113.585 19.6514V-4.9479H129.166ZM52.9795 -60.6705H52.9335C52.1067 -60.6674 51.2216 -60.6644 50.3488 -60.6613V-73.4062H67.6791V-45.8081H63.9635V-49.731C63.9635 -55.7775 59.0462 -60.6736 52.9795 -60.6736V-60.6705ZM26.1958 -70.334H24.4256C22.5785 -70.337 21.0511 -71.6589 20.7284 -73.4062C20.6885 -73.6265 20.6577 -73.853 20.6577 -74.0855V-74.7098C20.6577 -74.9423 20.6854 -75.1688 20.7284 -75.3891C21.0542 -77.1333 22.5785 -78.4552 24.4256 -78.4613H29.9606C31.8076 -78.4583 33.335 -77.1363 33.6578 -75.3891C33.6977 -75.1688 33.7284 -74.9423 33.7284 -74.7098V-74.0855C33.7284 -73.853 33.7008 -73.6265 33.6578 -73.4062C33.332 -71.662 31.8046 -70.337 29.9606 -70.334H26.1958ZM77.907 -87.8555C78.534 -87.2955 78.9642 -86.5336 79.1025 -85.6676C79.1333 -85.4749 79.164 -85.2821 79.164 -85.0801V-84.4559C79.164 -84.1896 79.1333 -83.9326 79.081 -83.6817C78.912 -82.8922 78.4879 -82.2006 77.907 -81.6804C77.3631 -81.1908 76.6746 -80.8634 75.9125 -80.7563C75.7434 -80.7319 75.5744 -80.7043 75.3961 -80.7043H69.8611C69.7966 -80.7043 69.7382 -80.7196 69.6737 -80.7227C68.9299 -80.7624 68.2477 -81.0042 67.6791 -81.4081C66.9262 -81.9436 66.376 -82.7453 66.1763 -83.6817C66.124 -83.9326 66.0933 -84.1896 66.0933 -84.4559V-85.0801C66.0933 -85.2821 66.124 -85.4749 66.1547 -85.6676C66.3176 -86.6805 66.877 -87.5557 67.6791 -88.1279C68.2477 -88.5318 68.9299 -88.7766 69.6737 -88.8133C69.7382 -88.8164 69.7966 -88.8317 69.8611 -88.8317H75.3961C75.5744 -88.8317 75.7434 -88.8011 75.9125 -88.7797C76.6746 -88.6726 77.3631 -88.3451 77.907 -87.8555ZM120.841 -45.805L120.841 -73.0053H128.893L128.893 -45.805H120.841ZM118.846 -73.0053L118.846 -45.805H113.585L113.585 -59.3822C113.659 -59.471 113.723 -59.572 113.763 -59.6882C113.874 -60.0187 113.788 -60.3523 113.585 -60.6062V-73.0023H118.846V-73.0053ZM69.6706 -45.805V-51.1386L111.587 -51.1386V-45.805L69.6706 -45.805ZM75.8018 -73.4031V-70.0066C75.8018 -63.96 80.7191 -59.064 86.7858 -59.064H86.8319C91.9397 -59.0854 98.1139 -59.1068 103.16 -59.1068C105.831 -59.1068 108.188 -59.1007 109.9 -59.0854C110.585 -59.0793 111.132 -59.0701 111.587 -59.064L111.587 -53.1245L69.6706 -53.1245V-73.4031H75.8018ZM111.59 -73.4031V-61.0499C109.94 -61.0805 106.857 -61.0928 103.163 -61.0928C98.1108 -61.0928 91.9335 -61.0713 86.8319 -61.0499H86.7888C84.3025 -61.0499 82.0621 -62.0506 80.4333 -63.6723C78.8044 -65.2972 77.8025 -67.528 77.7995 -70.0066V-72.6902C77.864 -72.8218 77.9101 -72.9656 77.9101 -73.1247V-73.4062L111.59 -73.4062V-73.4031ZM69.6706 -75.3891V-78.7337C69.7351 -78.7337 69.7935 -78.7153 69.858 -78.7153H75.3931C75.5713 -78.7153 75.7373 -78.752 75.9094 -78.7673V-75.3891H69.6675H69.6706ZM56.6491 -83.6817H64.1756C64.4583 -81.6254 65.8105 -79.9118 67.6791 -79.1498V-75.3922H50.567V-86.5153C52.0391 -84.7955 54.2027 -83.6817 56.6491 -83.6817ZM130.888 -45.805L130.888 -73.0053L137.412 -73.0053C140.876 -72.9992 143.676 -70.2085 143.682 -66.763V-55.9428C140.126 -55.4532 137.378 -52.4483 137.378 -48.7732V-45.8081L130.888 -45.8081V-45.805ZM150.191 -35.5693H144.677C141.745 -35.5754 139.376 -37.9347 139.37 -40.8539V-48.7732C139.376 -51.6925 141.745 -54.0517 144.677 -54.0578H152.631C152.923 -54.0578 153.203 -54.0181 153.482 -53.9722C156.006 -53.5621 157.933 -51.4017 157.939 -48.7732V-40.8539C157.933 -38.2254 156.006 -36.0681 153.482 -35.655C153.27 -35.6213 153.052 -35.5969 152.831 -35.5877C152.763 -35.5877 152.699 -35.5663 152.631 -35.5663H150.191V-35.5693ZM218.412 -56.9342L218.412 -45.805H190.211C184.756 -45.805 180.334 -41.4017 180.334 -35.9702V-19.9266L167.177 -19.948L167.177 -54.119C167.177 -55.6735 168.443 -56.9312 170.004 -56.9342L218.415 -56.9342H218.412ZM343.221 18.25V32.4759H314.99C314.544 30.0065 312.476 28.1246 309.922 27.9165V18.2469H343.221V18.25ZM309.47 37.0812C308.917 37.0812 308.398 36.9466 307.931 36.7262C306.701 36.1479 305.847 34.9147 305.844 33.4704C305.844 32.0261 306.701 30.7929 307.931 30.2146C308.401 29.9943 308.917 29.8596 309.47 29.8596C309.627 29.8596 309.775 29.8872 309.925 29.9055C311.373 30.0891 312.544 31.1111 312.94 32.4759C313.032 32.7941 313.097 33.1216 313.097 33.4704C313.097 33.8162 313.032 34.1467 312.94 34.4649C312.544 35.8297 311.373 36.8517 309.925 37.0353C309.775 37.0537 309.627 37.0812 309.47 37.0812ZM307.928 28.1124C305.577 28.7825 303.846 30.9122 303.846 33.4704C303.846 36.0255 305.577 38.1583 307.928 38.8284V47.6045L295.644 47.6045V18.25L307.928 18.25V28.1124ZM330.541 82.666V116.219C330.538 118.694 328.525 120.699 326.039 120.702H321.336V69.5631C321.336 66.0869 318.509 63.2717 315.018 63.2717H309.922V49.5874H321.023C323.654 49.5874 326.029 50.6462 327.753 52.3628C329.478 54.0826 330.541 56.4449 330.541 59.0642L330.541 82.663V82.666ZM244.596 220.488C242.294 220.901 240.487 222.701 240.072 224.993H237.989V174.836H244.596V220.491V220.488ZM196.804 264.776V300.471C196.674 300.639 196.585 300.838 196.585 301.064C196.585 301.291 196.674 301.493 196.804 301.658V315.624H182.328V264.751C184.351 264.751 189.609 264.761 196.804 264.77V264.776ZM213.7 297.457C214.048 297.457 214.38 297.521 214.699 297.613C215.895 297.955 216.826 298.883 217.17 300.073C217.262 300.391 217.327 300.719 217.327 301.067C217.327 301.413 217.262 301.744 217.17 302.062C216.826 303.252 215.895 304.179 214.699 304.522C214.38 304.614 214.051 304.678 213.7 304.678C213.353 304.678 213.021 304.614 212.702 304.522C211.19 304.088 210.074 302.717 210.071 301.067C210.071 299.421 211.187 298.047 212.702 297.613C213.021 297.521 213.35 297.457 213.7 297.457ZM149.65 341.756V339.654C149.65 337.576 150.492 335.704 151.86 334.339C153.227 332.977 155.108 332.139 157.198 332.139H177.294C180.073 332.139 182.325 329.896 182.325 327.129V317.613H196.8V341.756H149.647H149.65ZM113.585 311.686C118.723 311.208 122.774 307.175 123.253 302.059H147.732C150.907 302.059 153.482 299.498 153.482 296.334V276.743H155.572C155.913 279.589 158.317 281.802 161.267 281.802H162.109V315.627H113.585V311.686ZM60.8625 265.847V269.748C57.1439 270.204 54.2273 273.108 53.7694 276.811H17.4031V265.847H60.8625ZM61.8614 271.636C64.9408 271.642 67.4732 273.882 67.9557 276.814C68.008 277.138 68.0571 277.466 68.0571 277.808C68.0571 278.148 68.008 278.475 67.9557 278.803C67.4732 281.734 64.9408 283.974 61.8614 283.98C58.7819 283.974 56.2495 281.734 55.767 278.803C55.7148 278.478 55.6656 278.151 55.6656 277.808C55.6656 277.469 55.7148 277.141 55.767 276.814C56.2495 273.882 58.7819 271.642 61.8614 271.636ZM62.8602 285.859C66.5758 285.403 69.4954 282.496 69.9503 278.797H111.587V289.17H65.6108C64.0957 289.17 62.8633 287.94 62.8602 286.425C62.8602 286.217 62.8602 286.04 62.8602 285.859ZM103.815 301.067C103.815 298.653 104.795 296.474 106.384 294.892C107.752 293.534 109.571 292.665 111.59 292.435C111.922 292.398 112.245 292.334 112.589 292.334C112.933 292.334 113.256 292.395 113.588 292.435C115.607 292.665 117.427 293.534 118.794 294.892C120.159 296.254 121.031 298.066 121.262 300.076C121.299 300.406 121.363 300.728 121.363 301.07C121.363 301.41 121.302 301.734 121.262 302.065C121.031 304.075 120.159 305.887 118.794 307.249C117.202 308.831 115.017 309.807 112.592 309.807C110.167 309.807 107.979 308.831 106.39 307.249C104.801 305.663 103.821 303.488 103.821 301.074L103.815 301.067ZM166.802 271.688C168.649 271.691 170.177 273.013 170.499 274.761C170.539 274.981 170.57 275.207 170.57 275.44V276.064C170.57 276.297 170.542 276.523 170.499 276.743C170.173 278.488 168.646 279.813 166.802 279.816H161.267C159.42 279.813 157.893 278.491 157.57 276.743C157.53 276.523 157.499 276.297 157.499 276.064V275.44C157.499 275.207 157.527 274.981 157.57 274.761C157.896 273.016 159.423 271.691 161.267 271.688H166.802ZM164.101 315.627V281.802H166.802C169.752 281.802 172.153 279.589 172.497 276.743H180.334V315.627H164.101ZM206.226 262.802C199.013 262.793 192.808 262.787 188.407 262.781C185.528 262.778 183.444 262.775 182.328 262.771V252.86L237.519 252.949V255.541C237.519 255.859 237.672 256.159 237.93 256.345C238.188 256.532 238.523 256.584 238.828 256.483C239.894 256.131 241.004 255.957 242.113 255.957C243.223 255.957 244.332 256.131 245.398 256.483C245.703 256.584 246.038 256.532 246.296 256.345C246.554 256.159 246.708 255.859 246.708 255.541V248.374C246.708 248.056 246.554 247.756 246.293 247.569C246.035 247.383 245.7 247.331 245.395 247.432C244.329 247.784 243.219 247.958 242.11 247.958C241.001 247.958 239.891 247.784 238.825 247.432C238.52 247.331 238.185 247.383 237.927 247.569C237.669 247.756 237.515 248.056 237.515 248.374V250.963L220.323 250.935V226.979H240.072C240.5 229.338 242.405 231.165 244.805 231.504V234.76C244.805 237.713 247.209 240.106 250.174 240.106L262.799 240.106V250.966L250.31 250.966V248.377C250.31 247.83 249.864 247.383 249.311 247.383C248.758 247.383 248.312 247.826 248.312 248.377V255.544C248.312 256.091 248.758 256.538 249.311 256.538C249.864 256.538 250.31 256.095 250.31 255.544V252.955L291.086 252.955V257.251C291.086 260.311 288.618 262.79 285.548 262.802C278.873 262.83 267.747 262.839 255.199 262.839C239.098 262.839 220.649 262.823 206.226 262.808V262.802ZM150.191 235.228H144.677C141.745 235.222 139.376 232.863 139.37 229.944V222.025C139.376 219.105 141.745 216.746 144.677 216.74H152.631C152.923 216.74 153.203 216.78 153.482 216.826C156.006 217.236 157.933 219.396 157.939 222.025V229.944C157.933 232.572 156.006 234.73 153.482 235.143C153.27 235.176 153.052 235.201 152.831 235.21C152.763 235.21 152.699 235.231 152.631 235.231H150.191V235.228ZM145.676 204.035C145.676 199.488 141.976 195.806 137.412 195.806H113.585V187.297H161.989V195.406H159.15C154.918 195.406 151.485 198.821 151.485 203.037V214.754H145.673V204.035H145.676ZM52.9795 210.127H52.9335C52.1067 210.13 51.2216 210.133 50.3488 210.136V197.392L67.6791 197.392V224.99L63.9635 224.99V221.067C63.9635 215.02 59.0462 210.124 52.9795 210.124V210.127ZM28.1904 200.464H24.4256C22.5785 200.461 21.0511 199.139 20.7284 197.392C20.6885 197.171 20.6577 196.945 20.6577 196.712V196.088C20.6577 195.855 20.6854 195.629 20.7284 195.409C21.0542 193.664 22.5816 192.339 24.4256 192.336H29.9606C31.8076 192.339 33.335 193.664 33.6578 195.409C33.6977 195.629 33.7284 195.855 33.7284 196.088V196.712C33.7284 196.945 33.7008 197.171 33.6578 197.392C33.332 199.136 31.8046 200.461 29.9606 200.464H28.1904ZM28.1904 135.341C28.1904 135.341 28.1934 135.341 28.1965 135.341H48.5724V173.719H28.1934V135.341H28.1904ZM85.6486 72.4334V61.3654C87.8799 61.3776 92.6281 61.4021 97.4901 61.4174V79.1623C97.4901 87.0602 94.2785 94.1992 89.0815 99.3767C83.8815 104.551 76.7115 107.749 68.7793 107.749L50.567 107.749V94.7163H63.2659C75.6267 94.7163 85.6486 84.7407 85.6486 72.4303V72.4334ZM85.6486 47.4087C85.6486 46.9222 86.0451 46.5305 86.5307 46.5305L111.587 46.5305V59.3916C111.483 59.3978 111.265 59.407 110.936 59.4131C109.731 59.4376 107.34 59.4467 104.476 59.4467C100.404 59.4467 95.3664 59.4284 91.3465 59.41C88.9279 59.3978 86.8964 59.3886 85.6486 59.3794L85.6486 47.4087ZM113.585 40.8909C118.723 40.4135 122.774 36.3805 123.253 31.2641H147.732C150.907 31.2641 153.482 28.7029 153.482 25.5389V5.94875H155.572C155.913 8.79456 158.317 11.0069 161.267 11.0069H162.109V44.8322H113.585V40.8909ZM60.8625 -4.9479V-1.0464C57.1439 -0.590463 54.2273 2.31348 53.7694 6.01609H17.4031V-4.9479H60.8625ZM61.8614 0.838553C64.9408 0.844687 67.4732 3.0846 67.9557 6.01609C68.008 6.34044 68.0571 6.66787 68.0571 7.01058C68.0571 7.35024 68.008 7.67766 67.9557 8.00509C67.4732 10.9366 64.9408 13.1765 61.8614 13.1826C58.7819 13.1765 56.2495 10.9366 55.767 8.00509C55.7148 7.68073 55.6656 7.35331 55.6656 7.01058C55.6656 6.67092 55.7148 6.3435 55.767 6.01609C56.2495 3.0846 58.7819 0.844687 61.8614 0.838553ZM62.8602 15.0645C66.5758 14.6086 69.4954 11.7016 69.9503 8.00202L111.587 8.00202V18.3754L65.6108 18.3754C64.0957 18.3754 62.8633 17.1453 62.8602 15.6306C62.8602 15.4225 62.8602 15.245 62.8602 15.0645ZM103.815 30.2696C103.815 27.8553 104.795 25.6766 106.384 24.0946C107.752 22.7359 109.571 21.8669 111.59 21.6374C111.922 21.6007 112.245 21.5364 112.589 21.5364C112.933 21.5364 113.256 21.5976 113.588 21.6374C115.607 21.8669 117.427 22.7359 118.794 24.0946C120.159 25.4563 121.031 27.2678 121.262 29.2782C121.299 29.6087 121.363 29.93 121.363 30.2727C121.363 30.6124 121.302 30.9367 121.262 31.2672C121.031 33.2776 120.159 35.0891 118.794 36.4509C117.202 38.0329 115.017 39.009 112.592 39.009C110.167 39.009 107.979 38.0329 106.39 36.4509C104.801 34.8658 103.821 32.6901 103.821 30.2757L103.815 30.2696ZM196.804 -6.02195V29.2752H182.328V-6.04031C184.351 -6.04031 189.609 -6.03114 196.804 -6.02195ZM293.649 18.25V31.9343H280.05V18.25H293.649ZM280.05 47.6045V33.9202H293.649V47.6045H280.05ZM278.055 17.2585L278.055 120.705H272.256L272.256 4.72172H278.055V17.2585ZM307.928 65.2607L307.928 97.7396C306.609 97.7182 301.729 97.6478 298.142 97.6478C297.097 97.6478 296.163 97.6539 295.453 97.6692C295.352 97.6692 295.293 97.6753 295.201 97.6784V83.6942C295.201 80.4659 292.573 77.8496 289.331 77.8496H280.05V65.2638L307.928 65.2638V65.2607ZM238.25 150.384C236.713 152.214 236.099 154.548 236.025 156.874H229.712V141.586H243.047C246.671 141.605 248.957 140.277 250.162 138.581C250.943 137.492 251.268 136.351 251.419 135.378L271.014 135.378C271.73 135.543 272.508 135.824 273.203 136.299C274.616 137.278 275.873 138.967 275.895 142.621V147.198L246.167 147.198C242.531 147.186 239.882 148.432 238.247 150.387L238.25 150.384ZM235.994 224.993H229.712V158.86H235.994V224.993ZM245.595 222.373C245.942 222.373 246.274 222.438 246.594 222.529C247.789 222.872 248.721 223.799 249.065 224.99C249.157 225.308 249.222 225.635 249.222 225.984C249.222 226.33 249.157 226.66 249.065 226.979C248.739 228.099 247.897 228.986 246.803 229.375C246.425 229.509 246.022 229.595 245.595 229.598C245.325 229.598 245.06 229.561 244.808 229.506C243.511 229.219 242.491 228.239 242.125 226.979C242.033 226.66 241.969 226.333 241.969 225.984C241.969 225.638 242.033 225.308 242.125 224.99C242.47 223.799 243.401 222.872 244.596 222.529C244.916 222.438 245.245 222.373 245.595 222.373ZM262.799 226.979V238.117L250.174 238.117C248.312 238.114 246.803 236.612 246.8 234.757V231.446C249.003 230.966 250.712 229.2 251.115 226.979L262.799 226.979ZM220.406 201.78C222.794 201.134 224.562 198.983 224.562 196.4C224.562 193.817 222.794 191.666 220.406 191.021V158.86H227.718V224.993H220.406V201.78ZM111.59 217.67H69.6737V197.392H75.8049V200.788C75.8049 206.835 80.7222 211.731 86.7888 211.731H86.8349C91.9428 211.709 98.117 211.688 103.163 211.688C105.834 211.688 108.191 211.694 109.903 211.709C110.588 211.715 111.135 211.725 111.59 211.731V217.67ZM50.567 195.406V185.127C50.7453 185.289 50.9051 185.47 51.1018 185.607C52.6138 186.675 54.5684 187.113 56.6491 187.116L64.1756 187.116C64.4583 189.172 65.8105 190.886 67.6791 191.648V195.406L50.567 195.406ZM69.6306 109.692C86.1896 109.239 99.4815 95.7598 99.4815 79.1623V61.4235C101.212 61.4266 102.914 61.4296 104.476 61.4296C106.513 61.4296 108.314 61.4265 109.626 61.4143C110.284 61.4082 110.819 61.4021 111.206 61.3929C111.363 61.3898 111.477 61.3837 111.587 61.3807V94.906H111.495C95.7752 94.906 82.9995 107.323 82.4401 122.838H69.6675V109.891C69.6675 109.82 69.6398 109.759 69.6276 109.692H69.6306ZM196.804 31.2611V44.8291H182.328V31.2611H196.804ZM214.696 18.611H270.261L270.261 120.705H264.33L264.33 35.5604C264.33 32.0903 261.506 29.2752 258.017 29.2752H219.22C218.805 26.9832 216.998 25.1839 214.696 24.7708V18.608V18.611ZM249.507 125.148V133.202H223.129C220.154 133.208 218.061 132.734 216.783 131.592C216.131 131.017 215.627 130.255 215.262 129.154C214.899 128.055 214.696 126.626 214.699 124.805V111.58H224.666C224.684 114.646 224.7 117.213 224.712 118.979C224.724 121.038 226.412 122.691 228.474 122.688H249.495C249.504 124.251 249.51 125.145 249.51 125.145L249.507 125.148ZM218.412 190.855C215.892 191.094 213.86 192.961 213.418 195.406H201.315V175.926H209.859C210.016 176.027 210.191 176.103 210.394 176.103C210.596 176.103 210.772 176.03 210.928 175.926H218.412V190.855ZM218.412 199.956C216.998 199.748 215.861 198.735 215.471 197.392C215.379 197.073 215.314 196.746 215.314 196.397C215.314 196.051 215.379 195.721 215.471 195.403C215.861 194.059 216.995 193.046 218.412 192.838C218.587 192.814 218.759 192.786 218.94 192.783C219.463 192.783 219.958 192.899 220.406 193.098C221.676 193.661 222.564 194.919 222.567 196.394C222.567 197.866 221.676 199.127 220.406 199.69C219.958 199.888 219.463 200.005 218.94 200.005C218.759 200.005 218.587 199.977 218.412 199.95V199.956ZM182.651 195.406V175.926H190.617C190.774 176.027 190.949 176.103 191.152 176.103C191.355 176.103 191.53 176.03 191.686 175.926H199.324V195.406H182.651ZM77.907 195.406V191.483C79.6004 190.66 80.8143 189.047 81.0787 187.113H93.59V195.403H77.907V195.406ZM182.328 56.3317V46.8151H196.804V70.9585H149.65V68.8562C149.65 66.7785 150.492 64.9058 151.86 63.541C153.227 62.1793 155.108 61.3409 157.198 61.3409H177.294C180.073 61.3409 182.325 59.0979 182.325 56.3317H182.328ZM196.804 72.9475V80.5362H149.65V72.9475H196.804ZM214.696 43.3175H262.332V51.6805H246.708V49.0917C246.708 48.5439 246.262 48.0972 245.709 48.0972C245.156 48.0972 244.71 48.5409 244.71 49.0917V56.2582C244.71 56.806 245.156 57.2527 245.709 57.2527C246.262 57.2527 246.708 56.809 246.708 56.2582V53.6695H249.44C249.44 53.7001 249.437 53.7215 249.434 53.7582C249.323 55.9461 249.286 62.978 249.286 71.8887C249.286 88.3851 249.418 111.201 249.477 120.705H228.468C227.49 120.705 226.707 119.934 226.701 118.967C226.688 117.204 226.673 114.64 226.654 111.58H231.778C235.991 111.58 239.421 108.205 239.47 104.01L239.507 100.934C239.507 100.934 239.507 100.931 239.507 100.928C239.507 100.925 239.507 100.925 239.507 100.922L239.507 56.7509C240.281 56.8243 241.05 56.9528 241.797 57.1976C242.101 57.2986 242.436 57.2466 242.694 57.0599C242.952 56.8733 243.106 56.5734 243.106 56.2552V49.0886C243.106 48.7704 242.952 48.4705 242.694 48.2839C242.436 48.0972 242.101 48.0452 241.797 48.1462C240.73 48.4981 239.621 48.6725 238.511 48.6725C237.402 48.6725 236.292 48.4981 235.226 48.1462C234.922 48.0452 234.587 48.0972 234.328 48.2839C234.07 48.4705 233.917 48.7704 233.917 49.0886V51.6774H214.693V43.3144L214.696 43.3175ZM213.7 26.6588C214.048 26.6588 214.38 26.7231 214.699 26.8149C215.895 27.1576 216.826 28.0848 217.17 29.2752C217.262 29.5934 217.327 29.9208 217.327 30.2696C217.327 30.6154 217.262 30.9459 217.17 31.2641C216.826 32.4545 215.895 33.3817 214.699 33.7244C214.38 33.8162 214.051 33.8804 213.7 33.8804C213.353 33.8804 213.021 33.8162 212.702 33.7244C211.19 33.2899 210.074 31.919 210.071 30.2696C210.071 28.6234 211.187 27.2494 212.702 26.8149C213.021 26.7231 213.35 26.6588 213.7 26.6588ZM214.696 35.7654C216.998 35.3523 218.805 33.553 219.22 31.2611H258.017C260.402 31.2641 262.329 33.1858 262.335 35.5604V41.3315H214.699V35.7654H214.696ZM241.117 50.3524V54.9975C240.586 54.8843 240.051 54.8108 239.513 54.768C239.181 54.7405 238.849 54.6884 238.517 54.6884C238.185 54.6884 237.853 54.7405 237.519 54.768C236.981 54.8108 236.446 54.8843 235.914 54.9975V50.3524C236.775 50.536 237.641 50.6615 238.514 50.6615C239.387 50.6615 240.257 50.536 241.114 50.3524H241.117ZM226.661 53.6695H233.92V56.2582C233.92 56.5765 234.073 56.8763 234.335 57.063C234.593 57.2497 234.928 57.3017 235.232 57.2007C235.979 56.9559 236.747 56.8274 237.519 56.7539L237.519 100.922L237.482 103.985C237.445 107.091 234.903 109.591 231.784 109.591H226.648C226.584 98.8902 226.507 83.1434 226.507 70.9891C226.507 65.9125 226.519 61.4694 226.556 58.2901C226.575 56.7019 226.596 55.429 226.624 54.5599C226.636 54.1713 226.651 53.8745 226.664 53.6664L226.661 53.6695ZM224.663 53.6695C224.663 53.6909 224.663 53.7031 224.66 53.7245C224.549 55.8145 224.512 62.5098 224.512 70.9952C224.512 83.1525 224.592 98.8932 224.654 109.597H214.699V99.4287C217.327 98.9574 219.322 96.6839 219.325 93.9329C219.325 91.182 217.327 88.9054 214.699 88.4372V53.6756H224.663V53.6695ZM217.02 134.111C218.722 134.934 220.763 135.185 223.129 135.188H227.718V139.659C225.576 139.793 223.418 140.35 221.676 141.752C219.657 143.37 218.36 146.063 218.372 149.897L218.372 156.874H211.389L211.389 147.697C211.389 144.206 208.547 141.375 205.04 141.375H187.734L195.786 131.696C196.856 130.411 197.443 128.792 197.443 127.125V111.58H212.696V124.805C212.696 126.767 212.908 128.401 213.359 129.772C214.023 131.828 215.308 133.294 217.013 134.111H217.02ZM172.899 173.94V152.884H180.527V173.94H172.899ZM163.959 173.94C163.91 173.548 163.643 173.236 163.277 173.123V152.884H170.905V173.94H163.959ZM153.654 173.94V152.884H161.282V173.94H153.654ZM144.029 173.94V152.884H151.657V173.94H144.029ZM134.406 173.94V152.884H142.034V173.94H134.406ZM124.784 173.94V152.884H132.412V173.94H124.784ZM149.65 124.805V82.5191H164.082V103.918C164.082 108.15 167.527 111.577 171.775 111.577H180.331V127.415C180.331 128.003 179.851 128.48 179.261 128.48H149.65V124.802V124.805ZM180.334 82.5222V109.594H171.778C168.631 109.588 166.086 107.054 166.08 103.921V82.5222H180.337H180.334ZM213.7 90.316C214.048 90.316 214.38 90.3803 214.699 90.4721C216.211 90.9066 217.327 92.2805 217.33 93.9268C217.33 95.5731 216.214 96.947 214.699 97.3816C214.38 97.4734 214.051 97.5376 213.7 97.5376C213.353 97.5376 213.021 97.4734 212.702 97.3816C211.506 97.0388 210.575 96.1116 210.231 94.9213C210.139 94.6031 210.074 94.2757 210.074 93.9268C210.074 93.581 210.139 93.2505 210.231 92.9323C210.575 91.742 211.509 90.8148 212.702 90.4721C213.021 90.3803 213.35 90.316 213.7 90.316ZM208.178 94.9213C208.593 97.2133 210.4 99.0125 212.702 99.4256V109.594H197.449V99.6888C197.455 97.0541 199.594 94.9244 202.24 94.9213L208.181 94.9213H208.178ZM195.454 111.58V127.125C195.454 128.333 195.03 129.502 194.259 130.433L185.153 141.378H154.008C151.605 141.375 149.659 139.438 149.653 137.042V130.472H179.264C180.958 130.472 182.328 129.108 182.328 127.422V111.583H195.454V111.58ZM147.655 130.469V137.039C147.655 140.531 150.498 143.361 154.005 143.361H183.496L182.181 144.94C181.111 146.225 180.524 147.844 180.524 149.515L180.524 150.901H144.026L144.026 131.537C144.026 130.95 144.505 130.472 145.095 130.472H147.652L147.655 130.469ZM199.775 161.256V173.248C199.542 173.404 199.382 173.649 199.345 173.94H192.144V156.195C192.144 153.269 189.766 150.901 186.828 150.901H182.522L182.522 149.515C182.522 148.306 182.946 147.137 183.717 146.207L186.084 143.361H205.04C207.443 143.364 209.389 145.301 209.395 147.697L209.395 156.874H204.173C201.742 156.874 199.772 158.836 199.772 161.256H199.775ZM182.626 173.94C182.611 173.817 182.58 173.704 182.522 173.6V152.887H186.828C188.662 152.89 190.147 154.368 190.15 156.195V173.94H182.623H182.626ZM201.77 173.94V161.256C201.77 159.934 202.849 158.863 204.176 158.86H209.398V173.94H201.77ZM212.702 88.4311C210.4 88.8442 208.593 90.6434 208.178 92.9354L202.237 92.9354C198.491 92.9354 195.454 95.9587 195.451 99.6919V109.597H182.325V82.5253L212.699 82.5253V88.4341L212.702 88.4311ZM147.655 124.805V128.483H145.098C143.405 128.483 142.034 129.848 142.034 131.534L142.034 150.898H114.046C113.877 150.898 113.723 150.95 113.582 151.026L113.582 145.02H123.014C126.689 145.038 129.01 143.719 130.242 142.021C131.478 140.332 131.665 138.453 131.671 137.339C131.671 136.874 131.637 136.54 131.616 136.387V86.7481C133.826 86.3533 135.577 84.6795 136.081 82.5161H147.652V124.802L147.655 124.805ZM130.62 84.8662C129.068 84.8662 127.753 83.8869 127.236 82.5222C127.086 82.1274 126.994 81.7052 126.994 81.2554C126.994 81.0075 127.021 80.7688 127.067 80.5362C127.405 78.8869 128.865 77.6476 130.62 77.6446C132.375 77.6446 133.835 78.8869 134.173 80.5362C134.219 80.7688 134.247 81.0106 134.247 81.2554C134.247 81.7021 134.154 82.1274 134.004 82.5222C133.488 83.8869 132.172 84.8631 130.62 84.8662ZM125.156 82.5222C125.66 84.6825 127.412 86.3564 129.621 86.7542V136.458L129.634 136.611V136.641C129.649 136.73 129.677 136.984 129.677 137.342C129.68 138.226 129.498 139.692 128.635 140.849C127.771 141.993 126.259 143.021 123.014 143.04H113.582V82.5253H125.153L125.156 82.5222ZM75.3961 190.093H69.8611C69.7966 190.093 69.7382 190.078 69.6737 190.075C68.9299 190.035 68.2477 189.794 67.6791 189.39C66.9262 188.854 66.376 188.052 66.1763 187.116C66.124 186.865 66.0933 186.608 66.0933 186.342V185.718C66.0933 185.516 66.124 185.323 66.1547 185.13C66.3176 184.117 66.877 183.242 67.6791 182.67C68.2477 182.266 68.9299 182.021 69.6737 181.984C69.7382 181.981 69.7966 181.966 69.8611 181.966H75.3961C75.5744 181.966 75.7434 181.997 75.9125 182.018C76.6746 182.125 77.3631 182.453 77.907 182.942C78.534 183.502 78.9642 184.264 79.1025 185.13C79.1333 185.323 79.164 185.516 79.164 185.718V186.342C79.164 186.608 79.1333 186.865 79.081 187.116C78.912 187.906 78.4879 188.597 77.907 189.117C77.3631 189.607 76.6746 189.934 75.9125 190.041C75.7434 190.066 75.5744 190.093 75.3961 190.093ZM84.3855 185.13V145.023H93.59L93.59 185.13H84.3855ZM93.59 143.037H84.3855V135.344H88.304C89.6624 135.344 90.6182 135.628 91.3219 136.026C92.3699 136.623 92.9231 137.52 93.2397 138.413C93.5532 139.297 93.5931 140.148 93.59 140.445V140.537V140.552V140.607V143.04V143.037ZM95.5846 143.037V140.604L95.5877 140.442C95.5815 139.857 95.5201 138.181 94.5581 136.525C94.0756 135.702 93.3503 134.888 92.3115 134.3C91.2728 133.71 89.9451 133.355 88.304 133.355H84.3855V124.821H111.59V143.034H95.5877L95.5846 143.037ZM111.59 96.8889V122.835H100.419V99.392C100.419 99.3491 100.4 99.3124 100.394 99.2726C103.787 97.7518 107.537 96.8858 111.498 96.8858H111.59V96.8889ZM98.4212 122.835H84.4378C84.7113 115.797 87.6494 109.45 92.3269 104.793C94.1248 103.003 96.1808 101.47 98.4212 100.237V122.835ZM82.3909 124.821V133.355H69.6737V124.821H82.3909ZM82.3909 135.344V143.037H69.6737V135.344H82.3909ZM82.3909 145.023V185.13H81.1002C80.8912 183.12 79.6557 181.424 77.907 180.577V178.958C77.907 176.066 75.5529 173.722 72.6486 173.722H69.6706V145.023H82.3879H82.3909ZM72.6486 175.708C74.4496 175.711 75.9094 177.165 75.9125 178.958V180.032C75.7403 180.017 75.5713 179.98 75.3961 179.98H69.8611C69.7966 179.98 69.7382 179.995 69.6737 179.998V175.708H72.6517H72.6486ZM95.5846 185.13L95.5846 145.023H111.587L111.587 185.13H95.5846ZM113.585 152.758C113.726 152.832 113.877 152.887 114.049 152.887H122.792V173.943H113.588V152.761L113.585 152.758ZM211.392 173.94V158.86H218.375V160.39C218.375 160.454 218.4 160.512 218.412 160.574V173.94H211.392ZM220.37 156.874V149.897C220.382 146.47 221.442 144.515 222.933 143.294C224.202 142.263 225.908 141.776 227.718 141.644V156.871H220.37V156.874ZM229.712 139.6V135.188H249.434C249.308 135.91 249.059 136.715 248.545 137.422C247.7 138.56 246.234 139.582 243.05 139.6H229.715H229.712ZM251.474 120.705C251.474 120.417 251.471 120.127 251.468 119.814C251.407 109.836 251.284 87.8802 251.284 71.8887C251.284 66.5582 251.296 61.8886 251.333 58.5502C251.351 56.8825 251.373 55.5452 251.401 54.6303C251.413 54.2111 251.428 53.8928 251.441 53.6695H262.335L262.335 120.705L251.474 120.705ZM208.178 31.2611C208.593 33.553 210.4 35.3523 212.702 35.7654V80.5332L198.798 80.5332V31.2611L208.178 31.2611ZM180.334 56.3317C180.334 57.9994 178.972 59.3519 177.297 59.3549H157.201C151.93 59.3549 147.658 63.6083 147.658 68.8562V80.5332H136.171C135.854 78.1127 134.01 76.1849 131.619 75.7565V46.8151H180.334V56.3317ZM129.621 46.8181V75.7596C127.23 76.188 125.386 78.1158 125.07 80.5362H113.582V46.8181H129.621ZM67.676 124.821V133.355L50.564 133.355V124.821L67.676 124.821ZM67.676 135.344V143.037L50.6162 143.037C50.5977 143.037 50.5824 143.046 50.564 143.046V135.344L67.676 135.344ZM50.6192 145.023L67.6791 145.023V173.722L50.567 173.722V145.014C50.5855 145.014 50.6008 145.023 50.6192 145.023ZM67.676 175.708V180.412C65.7522 181.198 64.3784 182.991 64.154 185.13L56.6491 185.13C54.8481 185.13 53.29 184.729 52.2604 183.989C51.237 183.239 50.6377 182.238 50.6192 180.574V179.123C50.6192 179.032 50.5885 178.946 50.567 178.86V175.705L67.6791 175.705L67.676 175.708ZM69.6706 192.061C69.7351 192.061 69.7935 192.079 69.858 192.079H75.3931C75.5713 192.079 75.7373 192.043 75.9094 192.027V195.406H69.6675V192.061H69.6706ZM86.8288 209.748H86.7858C84.2995 209.748 82.059 208.747 80.4302 207.125C78.8013 205.501 77.7995 203.27 77.7964 200.791V198.108C77.8609 197.976 77.907 197.832 77.907 197.673V197.392H111.587V209.745C109.937 209.714 106.854 209.702 103.16 209.702C98.1078 209.702 91.9305 209.723 86.8288 209.745V209.748ZM95.5846 195.406V187.116H111.587V195.406H95.5846ZM114.587 185.311C114.43 185.207 114.249 185.13 114.046 185.13H113.582V175.926H123.25C123.407 176.027 123.582 176.103 123.785 176.103C123.988 176.103 124.163 176.03 124.32 175.926H132.876C133.033 176.027 133.208 176.103 133.411 176.103C133.614 176.103 133.789 176.03 133.945 175.926H142.501C142.658 176.027 142.833 176.103 143.036 176.103C143.239 176.103 143.414 176.03 143.571 175.926H152.127C152.284 176.027 152.459 176.103 152.662 176.103C152.865 176.103 153.04 176.03 153.197 175.926H161.753C161.829 175.975 161.906 176.014 161.995 176.045V185.311H114.593H114.587ZM163.984 175.926H171.369C171.526 176.027 171.701 176.103 171.904 176.103C172.107 176.103 172.282 176.03 172.438 175.926H180.656V195.406H163.984V175.926ZM218.332 226.979V238.117H204.391C202.529 238.114 201.02 236.612 201.017 234.757V226.979H218.332ZM271.205 133.392C270.378 133.226 269.637 133.174 269.124 133.171C268.731 133.171 268.5 133.193 268.399 133.202L251.514 133.202C251.511 133.168 251.508 133.128 251.505 133.104V125.133C251.505 125.133 251.499 124.242 251.49 122.688L262.338 122.688V123.269C262.338 123.817 262.784 124.264 263.337 124.264C263.89 124.264 264.336 123.82 264.336 123.269V122.688H270.268V123.269C270.268 123.817 270.713 124.264 271.266 124.264C271.82 124.264 272.265 123.82 272.265 123.269V122.688H278.064V123.269C278.064 123.817 278.51 124.264 279.063 124.264C279.616 124.264 280.062 123.82 280.062 123.269V122.688H293.222V123.006C293.222 123.554 293.668 124.001 294.221 124.001C294.774 124.001 295.22 123.557 295.22 123.006V122.688H307.928V133.389H271.202L271.205 133.392ZM298.142 99.6337C301.732 99.6337 306.655 99.7072 307.928 99.7255V113.701C306.609 113.679 301.729 113.609 298.142 113.609C297.097 113.609 296.163 113.615 295.453 113.63C295.352 113.63 295.293 113.636 295.201 113.639V99.6643C295.896 99.6429 296.934 99.6337 298.139 99.6337H298.142ZM295.204 120.705V115.628C295.899 115.607 296.938 115.598 298.142 115.598C301.732 115.598 306.655 115.671 307.928 115.69V120.705H295.204ZM293.21 120.705H280.05L280.05 79.8355H289.331C291.47 79.8386 293.203 81.5644 293.207 83.6942V120.705H293.21ZM309.922 120.705L309.922 65.2607H315.018C317.406 65.2638 319.339 67.1885 319.342 69.5661V120.705H309.922ZM270.261 4.72172V16.6251H214.696V10.8998C214.702 7.48795 217.474 4.72783 220.901 4.72172H270.261ZM198.896 18.611L212.702 18.611V24.7739C210.4 25.187 208.593 26.9863 208.178 29.2782L198.798 29.2782V18.5927C198.832 18.5957 198.863 18.611 198.896 18.611ZM180.334 44.8322H164.101V11.0069H166.802C169.752 11.0069 172.153 8.79456 172.497 5.94875H180.334V44.8322ZM166.802 0.890585C168.649 0.893637 170.177 2.21555 170.499 3.96282C170.539 4.18314 170.57 4.40958 170.57 4.64214V5.26638C170.57 5.49894 170.542 5.72539 170.499 5.94571C170.173 7.68992 168.646 9.01488 166.802 9.01795H161.267C159.42 9.01488 157.893 7.69297 157.57 5.94571C157.53 5.72539 157.499 5.49894 157.499 5.26638V4.64214C157.499 4.40958 157.527 4.18314 157.57 3.96282C157.896 2.21862 159.423 0.893637 161.267 0.890585H166.802ZM67.7098 109.735C67.7006 109.787 67.6791 109.836 67.6791 109.891V122.838L50.567 122.838V109.738L67.7098 109.738V109.735ZM48.5724 124.821V133.355H28.1965C28.1965 133.355 28.1934 133.355 28.1904 133.355V124.818H48.5694L48.5724 124.821ZM48.5724 175.708V195.406H35.6585C35.3173 192.56 32.914 190.347 29.9637 190.347H28.1934V175.705H48.5724V175.708ZM69.6706 224.993V219.659H111.587V224.993H69.6706ZM113.585 211.416C113.659 211.327 113.723 211.226 113.763 211.11C113.874 210.779 113.788 210.446 113.585 210.192V197.795H118.846V224.996H113.585V211.419V211.416ZM120.841 224.993V197.792H128.893V224.993H120.841ZM154.395 236.976C157.57 236.186 159.933 233.35 159.933 229.944V222.025C159.933 218.3 157.109 215.265 153.482 214.84V203.037C153.489 199.919 156.021 197.398 159.153 197.392H162.447C162.604 197.496 162.785 197.572 162.988 197.572C163.191 197.572 163.372 197.496 163.529 197.392H181.111C181.268 197.496 181.449 197.572 181.652 197.572C181.855 197.572 182.036 197.496 182.193 197.392H199.775C199.932 197.496 200.113 197.572 200.316 197.572C200.519 197.572 200.7 197.496 200.857 197.392H213.418C213.86 199.836 215.892 201.706 218.412 201.942V211.875H170.001C167.337 211.875 165.179 214.023 165.179 216.676V249.197C163.025 246.752 159.063 242.257 154.392 236.973L154.395 236.976ZM167.177 250.85V216.679C167.177 215.124 168.443 213.867 170.004 213.864H218.415V224.993H190.214C184.759 224.993 180.337 229.396 180.337 234.828V250.871L167.18 250.85H167.177ZM182.328 234.828C182.328 232.658 183.21 230.703 184.636 229.277C186.065 227.854 188.029 226.979 190.211 226.979H199.019V234.757C199.019 237.71 201.423 240.103 204.388 240.103H218.329V250.929L182.325 250.871V234.825L182.328 234.828ZM244.716 249.635V254.28C243.856 254.096 242.989 253.971 242.116 253.971C241.243 253.971 240.374 254.096 239.516 254.28V249.635C240.377 249.818 241.243 249.944 242.116 249.944C242.989 249.944 243.859 249.818 244.716 249.635ZM264.794 250.963V226.979H281.7V234.757C281.7 237.71 284.103 240.103 287.069 240.103H307.928V250.963H264.794ZM287.069 238.117C285.207 238.114 283.698 236.612 283.695 234.757V226.979H307.928V238.117H287.069ZM275.898 174.833V194.056H264.972C262.013 194.05 259.622 191.666 259.615 188.723V174.833H275.898ZM245.595 172.847H237.992V158.86L275.901 158.86V172.847L245.598 172.847H245.595ZM275.898 156.874L238.019 156.874C238.093 154.891 238.628 153.022 239.777 151.663C241.019 150.206 242.958 149.197 246.17 149.184L275.898 149.184V156.874ZM277.892 147.198V142.621C277.911 139.147 276.758 136.813 275.219 135.378H307.928V142.44C307.921 145.069 305.789 147.192 303.149 147.198H277.892ZM309.922 133.392V122.691H319.342V133.392H309.922ZM307.928 63.2748L280.05 63.2748V49.5905L307.928 49.5905V63.2748ZM280.05 16.264V4.72172L307.928 4.72172V16.264L280.05 16.264ZM309.922 2.73575V-17.8489H320.491C323.494 -17.8427 325.922 -15.4253 325.928 -12.4357V2.73575H309.922ZM307.928 2.73575L220.901 2.73575C216.374 2.73575 212.702 6.38941 212.702 10.8998V16.6251L198.896 16.6251C198.863 16.6251 198.832 16.6404 198.798 16.6435V-6.0189C213.857 -6.00054 236.145 -5.97912 255.168 -5.97912C267.732 -5.97912 278.87 -5.98831 285.557 -6.01583C289.728 -6.0342 293.081 -9.40325 293.081 -13.5526V-17.8489L307.928 -17.8489V2.73575ZM264.794 -19.8348V-43.8191L281.7 -43.8191V-36.0406C281.7 -33.0877 284.103 -30.6947 287.069 -30.6947H307.928V-19.8348L264.794 -19.8348ZM245.595 -48.4244C245.942 -48.4244 246.274 -48.3601 246.594 -48.2683C247.789 -47.9256 248.721 -46.9984 249.065 -45.8081C249.157 -45.4898 249.222 -45.1624 249.222 -44.8136C249.222 -44.4678 249.157 -44.1373 249.065 -43.8191C248.739 -42.6991 247.897 -41.8117 246.803 -41.4231C246.425 -41.2885 246.022 -41.2028 245.595 -41.1997C245.325 -41.1997 245.06 -41.2364 244.808 -41.2915C243.511 -41.5792 242.491 -42.5583 242.125 -43.8191C242.033 -44.1373 241.969 -44.4647 241.969 -44.8136C241.969 -45.1593 242.033 -45.4898 242.125 -45.8081C242.47 -46.9984 243.401 -47.9256 244.596 -48.2683C244.916 -48.3601 245.245 -48.4244 245.595 -48.4244ZM246.803 -39.3515C249.006 -39.8319 250.715 -41.5975 251.118 -43.8191H262.802V-32.6807H250.177C248.315 -32.6837 246.806 -34.1862 246.803 -36.0406V-39.3515ZM287.069 -32.6807C285.207 -32.6837 283.698 -34.1862 283.695 -36.0406V-43.8191H307.928V-32.6807H287.069ZM228.717 -43.8191L240.075 -43.8191C240.503 -41.4598 242.408 -39.633 244.808 -39.2933V-36.0375C244.808 -33.0846 247.212 -30.6917 250.177 -30.6917H262.802V-19.8317H250.313V-22.4205C250.313 -22.9682 249.867 -23.415 249.314 -23.415C248.761 -23.415 248.315 -22.9713 248.315 -22.4205V-15.254C248.315 -14.7062 248.761 -14.2595 249.314 -14.2595C249.867 -14.2595 250.313 -14.7032 250.313 -15.254V-17.8427H291.086V-13.5465C291.086 -10.4865 288.618 -8.0079 285.548 -7.99566C278.867 -7.96812 267.732 -7.95893 255.168 -7.95893C239.071 -7.95893 220.628 -7.97424 206.211 -7.98954C199.004 -7.99873 192.799 -8.00483 188.401 -8.01095C185.525 -8.01402 183.441 -8.01707 182.328 -8.02014V-17.9315L237.519 -17.8427V-15.2509C237.519 -14.9327 237.672 -14.6328 237.93 -14.4461C238.188 -14.2595 238.523 -14.2075 238.828 -14.3084C239.894 -14.6603 241.004 -14.8348 242.113 -14.8348C243.223 -14.8348 244.332 -14.6603 245.398 -14.3084C245.703 -14.2075 246.038 -14.2595 246.296 -14.4461C246.554 -14.6328 246.708 -14.9327 246.708 -15.2509V-22.4174C246.708 -22.7357 246.554 -23.0355 246.293 -23.2222C246.035 -23.4089 245.7 -23.4609 245.395 -23.3599C244.329 -23.008 243.219 -22.8336 242.11 -22.8336C241.001 -22.8336 239.891 -23.008 238.825 -23.3599C238.52 -23.4609 238.185 -23.4089 237.927 -23.2222C237.669 -23.0355 237.515 -22.7357 237.515 -22.4174V-19.8287L220.323 -19.8562V-43.8129H228.714L228.717 -43.8191ZM218.332 -43.8191V-32.6807H204.391C202.529 -32.6837 201.02 -34.1862 201.017 -36.0406V-43.8191H218.332ZM199.019 -43.8191V-36.0406C199.019 -33.0877 201.423 -30.6947 204.388 -30.6947H218.329V-19.8684L182.325 -19.9266V-35.9732C182.325 -38.1428 183.207 -40.0981 184.633 -41.5241C186.062 -42.947 188.026 -43.8221 190.208 -43.8221H199.016L199.019 -43.8191ZM244.716 -21.1628V-16.5178C243.856 -16.7014 242.989 -16.8268 242.116 -16.8268C241.243 -16.8268 240.374 -16.7014 239.516 -16.5178V-21.1628C240.377 -20.9792 241.243 -20.8538 242.116 -20.8538C242.989 -20.8538 243.859 -20.9792 244.716 -21.1628ZM164.854 -18.9535L153.479 -5.93627V-31.8484C155.459 -29.6084 157.309 -27.5154 158.922 -25.6855C160.883 -23.4609 162.509 -21.6157 163.646 -20.3274C164.159 -19.7461 164.555 -19.2932 164.854 -18.9566V-18.9535ZM153.482 -2.90994L166.633 -17.9621L180.334 -17.9407V3.96282H172.497C172.156 1.11701 169.752 -1.09535 166.802 -1.09535H161.267C158.317 -1.09535 155.916 1.11701 155.572 3.96282H153.482V-2.90994ZM151.488 25.5389C151.485 27.6044 149.807 29.2721 147.732 29.2782H131.272V10.5082C131.278 7.99283 133.322 5.95487 135.848 5.95182H151.488V25.5419V25.5389ZM111.59 6.01609L69.9533 6.01609C69.4954 2.31348 66.5789 -0.590463 62.8602 -1.0464V-4.9479L111.59 -4.9479V6.01609ZM17.4031 -6.93383V-13.3354C17.4092 -15.9027 19.4929 -17.9774 22.0714 -17.9835H37.5946C37.776 -17.7999 38.0249 -17.6836 38.3046 -17.6836C38.5842 -17.6836 38.8332 -17.7999 39.0145 -17.9835H56.48C56.6614 -17.7999 56.9103 -17.6836 57.19 -17.6836C57.4696 -17.6836 57.7186 -17.7999 57.8999 -17.9835H75.3654C75.5467 -17.7999 75.7957 -17.6836 76.0753 -17.6836C76.355 -17.6836 76.604 -17.7999 76.7853 -17.9835H94.2508C94.4321 -17.7999 94.6811 -17.6836 94.9607 -17.6836C95.2404 -17.6836 95.4893 -17.7999 95.6707 -17.9835H106.919C109.497 -17.9774 111.581 -15.9027 111.587 -13.3354V-6.93383L17.4 -6.93383H17.4031ZM58.1857 -19.9694V-31.0222H75.0765V-19.9694H58.1857ZM56.1911 -31.0222V-19.9694H39.3003V-31.0222L56.1911 -31.0222ZM77.0742 -19.9694V-31.0222L93.965 -31.0222V-19.9694H77.0742ZM53.7694 8.00202C54.2273 11.7046 57.1469 14.6116 60.8656 15.0645C60.8656 15.2481 60.8656 15.4225 60.8656 15.6306C60.8656 18.2408 62.9893 20.3583 65.6108 20.3583H108.496C105.757 21.4813 103.609 23.6998 102.552 26.463H17.4031V8.00202H53.7694ZM102.002 28.452C101.9 29.0456 101.817 29.6485 101.817 30.2696C101.817 30.7531 101.897 31.2152 101.962 31.6803H76.9113C73.8072 31.6895 71.6959 32.1148 70.2484 33.348C69.5354 33.9631 69.0621 34.7678 68.7947 35.6522C68.5243 36.5426 68.4321 37.5188 68.4321 38.6051V43.0788H17.4031V28.4459H102.005L102.002 28.452ZM17.4031 45.0678H68.4321L68.4321 59.7007H17.4031L17.4031 45.0678ZM68.4321 61.6867V66.3532C68.4321 69.4254 67.1843 72.1978 65.1621 74.2112C63.1398 76.2247 60.3555 77.4671 57.2699 77.4671H17.4031V61.6867H68.4321ZM48.5724 94.7163V107.749H17.4031V94.7163H48.5724ZM48.5724 109.735V122.835H17.4462C17.4462 122.835 17.4184 122.844 17.4031 122.844V109.735H48.5724ZM17.4462 124.821H26.1989V145.91H17.4031V124.814C17.4031 124.814 17.4308 124.824 17.4462 124.824V124.821ZM26.1958 147.896V173.722H17.4V147.896H26.1958ZM26.1958 175.708V190.35H24.4256C21.4752 190.35 19.075 192.563 18.7308 195.409H17.4V175.711H26.1958V175.708ZM52.9365 212.113H52.9765C55.4628 212.113 57.7032 213.114 59.332 214.736C60.9609 216.36 61.9658 218.591 61.9658 221.07V224.993H28.1904V212.116C29.8377 212.147 32.8925 212.159 36.562 212.159C41.6237 212.159 47.8164 212.138 52.9365 212.113ZM130.888 224.993V197.792H137.412C140.876 197.799 143.676 200.589 143.682 204.035V214.855C140.126 215.345 137.378 218.349 137.378 222.025V224.99H130.888V224.993ZM158.922 245.112C160.883 247.337 162.509 249.182 163.646 250.47C164.159 251.052 164.555 251.505 164.854 251.841L153.479 264.858V238.946C155.459 241.186 157.309 243.279 158.922 245.109V245.112ZM153.482 267.885L166.633 252.833L180.334 252.854V274.758H172.497C172.156 271.912 169.752 269.699 166.802 269.699H161.267C158.317 269.699 155.916 271.912 155.572 274.758H153.482V267.885ZM151.488 296.334C151.485 298.399 149.807 300.067 147.732 300.073H131.272V281.303C131.278 278.788 133.322 276.75 135.848 276.747H151.488V296.337V296.334ZM111.59 276.811H69.9533C69.4954 273.108 66.5789 270.204 62.8602 269.748V265.847L111.59 265.847V276.811ZM17.4031 263.861V257.459C17.4092 254.892 19.4929 252.817 22.0714 252.811H37.5946C37.776 252.995 38.0249 253.111 38.3046 253.111C38.5842 253.111 38.8332 252.995 39.0145 252.811H56.48C56.6614 252.995 56.9103 253.111 57.19 253.111C57.4696 253.111 57.7186 252.995 57.8999 252.811L75.3654 252.811C75.5467 252.995 75.7957 253.111 76.0753 253.111C76.355 253.111 76.604 252.995 76.7853 252.811H94.2508C94.4321 252.995 94.6811 253.111 94.9607 253.111C95.2404 253.111 95.4893 252.995 95.6707 252.811H106.919C109.497 252.817 111.581 254.892 111.587 257.459V263.861L17.4 263.861H17.4031ZM58.1857 250.825V239.773L75.0765 239.773V250.825L58.1857 250.825ZM56.1911 239.773V250.825H39.3003V239.773H56.1911ZM77.0742 250.825V239.773H93.965V250.825H77.0742ZM53.7694 278.797C54.2273 282.499 57.1469 285.406 60.8656 285.859C60.8656 286.043 60.8656 286.217 60.8656 286.425C60.8656 289.035 62.9893 291.153 65.6108 291.153H108.496C105.757 292.276 103.609 294.494 102.552 297.258L17.4031 297.258V278.794H53.7694V278.797ZM102.002 299.247C101.9 299.84 101.817 300.443 101.817 301.067C101.817 301.551 101.897 302.013 101.962 302.478H76.9113C73.8072 302.487 71.6959 302.913 70.2484 304.146C69.5354 304.761 69.0621 305.566 68.7947 306.45C68.5243 307.34 68.4321 308.317 68.4321 309.403V313.877L17.4031 313.877V299.244L102.005 299.244L102.002 299.247ZM17.4031 315.866L68.4321 315.866V330.498L17.4031 330.498V315.866ZM111.59 330.186C111.486 330.192 111.268 330.202 110.939 330.208C109.734 330.232 107.343 330.241 104.479 330.241C100.407 330.241 95.3695 330.223 91.3496 330.205C88.9309 330.192 86.8995 330.183 85.6517 330.174V318.203C85.6517 317.717 86.0482 317.325 86.5338 317.325H111.59V330.186ZM149.65 343.742H196.804V351.331H149.65V343.742ZM212.702 323.473V351.331H198.798V302.059H208.178C208.593 304.351 210.4 306.15 212.702 306.563V323.473ZM258.017 302.059C260.402 302.062 262.329 303.984 262.335 306.358V312.129L214.699 312.129V306.563C217.001 306.15 218.808 304.351 219.223 302.059L258.02 302.059H258.017ZM212.702 295.569C210.4 295.982 208.593 297.781 208.178 300.073H198.798V264.779C213.866 264.797 236.169 264.819 255.199 264.819C267.75 264.819 278.876 264.809 285.557 264.782C289.728 264.764 293.081 261.394 293.081 257.245V252.949H307.928V273.534L220.901 273.534C216.374 273.534 212.702 277.187 212.702 281.698V287.429C212.167 287.447 211.737 287.879 211.737 288.414C211.737 288.95 212.167 289.384 212.702 289.4V295.569ZM309.922 273.534V252.949H320.491C323.494 252.955 325.922 255.372 325.928 258.362V273.534H309.922ZM270.261 287.423L214.696 287.423V281.698C214.702 278.286 217.474 275.526 220.901 275.519L270.261 275.519V287.423ZM307.928 275.519V287.062H280.05V275.519H307.928ZM343.221 289.048V303.274H314.99C314.544 300.804 312.476 298.922 309.922 298.714V289.045H343.221V289.048ZM309.47 307.879C308.917 307.879 308.398 307.744 307.931 307.524C306.701 306.946 305.847 305.712 305.844 304.268C305.844 302.824 306.701 301.591 307.931 301.012C308.401 300.792 308.917 300.657 309.47 300.657C309.627 300.657 309.775 300.685 309.925 300.703C311.373 300.887 312.544 301.909 312.94 303.274C313.032 303.592 313.097 303.919 313.097 304.268C313.097 304.614 313.032 304.944 312.94 305.263C312.544 306.627 311.373 307.649 309.925 307.833C309.775 307.851 309.627 307.879 309.47 307.879ZM307.928 298.91C305.577 299.58 303.846 301.71 303.846 304.268C303.846 306.823 305.577 308.956 307.928 309.626V318.402H295.644V289.048H307.928V298.91ZM293.649 289.048V302.732H280.05V289.048H293.649ZM293.649 304.718V318.402H280.05V304.718H293.649ZM295.456 384.428C295.355 384.428 295.296 384.434 295.204 384.437V370.462C295.899 370.441 296.938 370.431 298.142 370.431C301.732 370.431 306.655 370.505 307.928 370.523V384.498C306.609 384.477 301.729 384.406 298.142 384.406C297.097 384.406 296.163 384.413 295.453 384.428H295.456ZM307.928 368.537C306.609 368.516 301.729 368.446 298.142 368.446C297.097 368.446 296.163 368.452 295.453 368.467C295.352 368.467 295.293 368.473 295.201 368.476V354.492C295.201 351.264 292.573 348.647 289.331 348.647H280.05V336.062H307.928V368.54V368.537ZM307.928 334.073H280.05V320.388H307.928V334.073ZM343.249 352.472H332.536V329.865C332.536 323.534 327.382 318.402 321.023 318.402H309.922V309.819C312.476 309.611 314.544 307.729 314.99 305.26H343.249V352.472ZM309.922 287.062V275.519H343.221V287.062H309.922ZM321.318 234.757C321.318 237.71 323.721 240.103 326.687 240.103H343.218V273.53H327.922V258.359C327.922 254.271 324.594 250.96 320.491 250.96H309.922V226.976H321.318V234.754V234.757ZM264.232 224.993C264.099 224.928 263.955 224.883 263.795 224.883C263.635 224.883 263.494 224.928 263.359 224.993L251.112 224.993C250.697 222.701 248.89 220.901 246.588 220.488V174.833L257.618 174.833V188.723C257.618 192.765 260.909 196.042 264.969 196.042H275.895V224.99H264.228L264.232 224.993ZM277.892 158.86H299.433C301.099 158.86 302.445 160.203 302.448 161.862V164.714H295.303C292.177 164.714 289.645 167.235 289.645 170.347V199.194C286.928 199.194 284.481 199.203 282.527 199.212C280.935 199.221 279.638 199.231 278.716 199.243C278.387 199.246 278.123 199.252 277.889 199.258V158.86H277.892ZM315.251 166.7V199.212C311.662 199.206 308.004 199.2 304.446 199.197V166.7H315.251ZM302.451 199.194C299.903 199.194 297.417 199.191 295.069 199.191C293.889 199.191 292.749 199.191 291.645 199.191V170.347C291.648 168.334 293.286 166.703 295.309 166.7H302.454V199.194H302.451ZM340.855 184.194V199.28C338.319 199.27 334.536 199.261 330.049 199.249V184.194H340.855ZM328.055 166.7V182.517C327.883 182.694 327.775 182.933 327.775 183.199C327.775 183.465 327.883 183.704 328.055 183.882V199.243C324.702 199.234 321.035 199.224 317.249 199.218V166.7H328.055ZM319.342 140.102C319.342 142.611 318.979 145.108 318.269 147.517L316.407 153.82C315.642 156.409 315.251 159.096 315.251 161.795V164.717H304.446V161.865C304.446 159.108 302.202 156.877 299.436 156.877H277.895V149.187H303.152C306.892 149.187 309.922 146.17 309.925 142.443V135.381H319.345V140.105L319.342 140.102ZM343.249 127.281C343.243 130.656 340.501 133.386 337.112 133.392H321.336V122.691H326.039C329.628 122.691 332.536 119.796 332.536 116.222V83.6636H343.249V127.284V127.281ZM343.249 81.6746H332.536V59.0673C332.536 52.7362 327.382 47.6045 321.023 47.6045H309.922V39.0212C312.476 38.8132 314.544 36.9313 314.99 34.4618H343.249L343.249 81.6715V81.6746ZM309.922 16.264V4.72172H343.221V16.264H309.922ZM321.318 -36.0406C321.318 -33.0877 323.721 -30.6947 326.687 -30.6947H343.218V2.73575H327.922V-12.4357C327.922 -16.5239 324.594 -19.8348 320.491 -19.8348H309.922V-43.8191H321.318V-36.0406ZM275.898 -45.805H264.232C264.099 -45.8693 263.955 -45.9152 263.795 -45.9152C263.635 -45.9152 263.494 -45.8693 263.359 -45.805H251.112C250.697 -48.097 248.89 -49.8962 246.588 -50.3093V-95.8666C246.809 -95.8666 247.018 -95.8666 247.245 -95.8666C250.429 -95.8666 254.041 -95.8727 257.618 -95.885V-82.0752C257.618 -78.0329 260.909 -74.7557 264.969 -74.7557H275.895V-45.8081L275.898 -45.805ZM275.898 -76.7416H264.972C262.013 -76.7477 259.622 -79.1315 259.615 -82.0752V-95.8911C267.01 -95.9156 273.836 -95.9492 275.898 -95.9615V-76.7416ZM237.992 -95.9125C239.276 -95.885 241.64 -95.8727 244.599 -95.8697V-50.3093C242.297 -49.8962 240.49 -48.097 240.075 -45.805H237.992V-95.9125ZM165.182 -54.119L165.182 -21.5974C163.028 -24.0423 159.067 -28.5374 154.395 -33.8221C157.57 -34.6115 159.933 -37.4482 159.933 -40.8539V-48.7732C159.933 -52.4972 157.109 -55.5328 153.482 -55.9581V-67.7605C153.489 -70.8787 156.021 -73.4001 159.153 -73.4062H162.447C162.604 -73.3022 162.785 -73.2257 162.988 -73.2257C163.191 -73.2257 163.372 -73.3022 163.529 -73.4062H181.111C181.268 -73.3022 181.449 -73.2257 181.652 -73.2257C181.855 -73.2257 182.036 -73.3022 182.193 -73.4062H199.775C199.932 -73.3022 200.113 -73.2257 200.316 -73.2257C200.519 -73.2257 200.7 -73.3022 200.857 -73.4062H213.418C213.86 -70.9613 215.892 -69.0916 218.412 -68.856V-58.9232L170.001 -58.9232C167.337 -58.9232 165.179 -56.7751 165.179 -54.1221L165.182 -54.119ZM163.984 -94.869H171.369C171.526 -94.7681 171.701 -94.6916 171.904 -94.6916C172.107 -94.6916 172.282 -94.765 172.438 -94.869H180.656V-75.3891H163.984V-94.869ZM190.614 -94.869C190.771 -94.7681 190.946 -94.6916 191.149 -94.6916C191.351 -94.6916 191.527 -94.765 191.683 -94.869L199.321 -94.869V-75.3891H182.648V-94.869H190.614ZM218.94 -78.0085C219.463 -78.0085 219.958 -77.8922 220.406 -77.6933C221.676 -77.1302 222.564 -75.8726 222.567 -74.3977C222.567 -72.9258 221.676 -71.6651 220.406 -71.102C219.958 -70.9031 219.463 -70.7868 218.94 -70.7868C218.759 -70.7868 218.587 -70.8144 218.412 -70.8419C216.998 -71.05 215.861 -72.0629 215.471 -73.4062C215.379 -73.7244 215.314 -74.0519 215.314 -74.4007C215.314 -74.7465 215.379 -75.077 215.471 -75.3952C215.861 -76.7385 216.995 -77.7514 218.412 -77.9595C218.587 -77.984 218.759 -78.0115 218.94 -78.0146V-78.0085ZM218.412 -79.9424C215.892 -79.7037 213.86 -77.8371 213.418 -75.3922H201.315V-94.8721H209.859C210.016 -94.7711 210.191 -94.6946 210.394 -94.6946C210.596 -94.6946 210.772 -94.7681 210.928 -94.8721L218.412 -94.8721V-79.9424ZM123.25 -94.869C123.407 -94.7681 123.582 -94.6916 123.785 -94.6916C123.988 -94.6916 124.163 -94.765 124.32 -94.869H132.876C133.033 -94.7681 133.208 -94.6916 133.411 -94.6916C133.614 -94.6916 133.789 -94.765 133.945 -94.869H142.501C142.658 -94.7681 142.833 -94.6916 143.036 -94.6916C143.239 -94.6916 143.414 -94.765 143.571 -94.869H152.127C152.284 -94.7681 152.459 -94.6916 152.662 -94.6916C152.865 -94.6916 153.04 -94.765 153.197 -94.869H161.753C161.829 -94.8201 161.906 -94.7803 161.995 -94.7497V-85.484L113.591 -85.484V-94.869L123.26 -94.869H123.25ZM113.585 -83.5011L161.989 -83.5011V-75.3922H159.15C154.918 -75.3922 151.485 -71.9772 151.485 -67.7605V-56.0438H145.673V-66.763C145.673 -71.3101 141.973 -74.9913 137.409 -74.9913L113.582 -74.9913V-83.5011H113.585ZM93.59 -75.3891L77.907 -75.3891V-79.312C79.6004 -80.1352 80.8143 -81.7478 81.0787 -83.6817L93.59 -83.6817V-75.3922V-75.3891ZM72.6486 -95.0894C74.4496 -95.0863 75.9094 -93.6328 75.9125 -91.8397V-90.7656C75.7403 -90.7809 75.5713 -90.8176 75.3961 -90.8176H69.8611C69.7966 -90.8176 69.7382 -90.8023 69.6737 -90.7993V-95.0894H72.6517H72.6486ZM67.676 -95.0894V-90.3862C65.7522 -89.5997 64.3784 -87.8066 64.154 -85.6676H56.6491C53.3207 -85.6737 50.6254 -88.3574 50.6192 -91.6713C50.6192 -91.7631 50.5885 -91.8488 50.567 -91.9345V-95.0894H67.6791H67.676ZM48.5724 -95.0894V-75.3922L35.6585 -75.3922C35.3173 -78.238 32.914 -80.4473 29.9637 -80.4503H28.1934V-95.0924L48.5724 -95.0924V-95.0894ZM-24.6703 -122.902L26.1958 -122.902V-97.0753H6.51134V-102.265C6.51134 -107.996 1.84612 -112.642 -3.91017 -112.642H-24.6733V-122.902H-24.6703ZM-24.6703 -110.656H-3.90708C-1.57752 -110.656 0.524557 -109.719 2.05199 -108.198C3.57943 -106.678 4.51986 -104.585 4.51986 -102.265V-97.0753H-24.6703V-110.656ZM-24.6703 -95.0894H4.98086C5.13759 -94.9884 5.31276 -94.9119 5.51561 -94.9119C5.71843 -94.9119 5.89361 -94.9853 6.05034 -95.0894H26.1958V-80.4473H24.4256C21.4783 -80.4473 19.075 -78.2349 18.7308 -75.3891H6.51134V-80.8359C6.51134 -86.5673 1.84612 -91.2123 -3.91017 -91.2123L-24.6733 -91.2123V-95.0863L-24.6703 -95.0894ZM-24.6703 -89.2295L-3.90708 -89.2295C-1.57752 -89.2295 0.524557 -88.2931 2.05199 -86.7723C3.57943 -85.2515 4.51986 -83.1584 4.51986 -80.8389V-75.3922L-24.6703 -75.3922V-89.2295ZM35.6554 -73.4031L48.3512 -73.4031V-60.6491C44.3774 -60.6338 40.1824 -60.6215 36.562 -60.6215C33.9005 -60.6215 31.5525 -60.6277 29.8499 -60.6429C29.1769 -60.6491 28.6421 -60.6552 28.1904 -60.6644V-68.3419H29.9606C32.9109 -68.3419 35.3112 -70.5543 35.6554 -73.4001V-73.4031ZM28.1904 -58.6815C29.8377 -58.6509 32.8925 -58.6387 36.562 -58.6387C41.6237 -58.6387 47.8164 -58.6601 52.9365 -58.6846H52.9765C55.4628 -58.6846 57.7032 -57.6839 59.332 -56.0621C60.9609 -54.4373 61.9658 -52.2065 61.9658 -49.7279V-45.805L28.1904 -45.805V-58.6815ZM131.161 -43.8191L137.375 -43.8191V-40.8539C137.375 -36.8392 140.645 -33.5834 144.677 -33.5834H151.485V3.96282H136.598C133.595 3.9567 131.164 1.53625 131.158 -1.45338V-43.8191H131.161ZM129.166 -6.93383H113.585V-13.3354C113.585 -16.9982 110.601 -19.9694 106.922 -19.9694H95.9596V-31.0222H129.166V-6.93383ZM-5.09034 -31.0222V2.90101C-5.74494 2.81533 -6.39341 2.68987 -7.02345 2.48179C-7.32771 2.3808 -7.66267 2.43284 -7.92082 2.6195C-8.17899 2.80616 -8.33265 3.10601 -8.33265 3.42426V6.01302H-23.7882V-31.0252L-5.08726 -31.0252L-5.09034 -31.0222ZM-16.6705 8.00202H-8.3357V10.5908C-8.3357 10.909 -8.18205 11.2089 -7.9239 11.3956C-7.66575 11.5822 -7.33073 11.6342 -7.0265 11.5333C-5.96006 11.1814 -4.85063 11.0069 -3.74116 11.0069C-2.63169 11.0069 -1.52223 11.1814 -0.45579 11.5333C-0.15153 11.6342 0.183431 11.5822 0.44158 11.3956C0.699758 11.2089 0.853445 10.909 0.853445 10.5908V8.00202H2.45769V10.5908C2.45769 11.1385 2.90331 11.5853 3.4565 11.5853C4.00969 11.5853 4.45534 11.1416 4.45534 10.5908V8.00202H15.4085V43.7336H4.45534V41.1449C4.45534 40.5971 4.00969 40.1504 3.4565 40.1504C2.90331 40.1504 2.45769 40.5941 2.45769 41.1449V43.7336H0.853445V41.1449C0.853445 40.8266 0.699758 40.5268 0.44158 40.3401C0.183431 40.1534 -0.15153 40.1014 -0.45579 40.2024C-1.52223 40.5543 -2.63169 40.7287 -3.74116 40.7287C-4.85063 40.7287 -5.96006 40.5543 -7.0265 40.2024C-7.33073 40.1014 -7.66575 40.1534 -7.9239 40.3401C-8.18205 40.5268 -8.3357 40.8266 -8.3357 41.1449V43.7336H-23.7913V8.00202H-16.6705ZM-6.3412 47.0476V42.4025C-5.48066 42.5861 -4.61396 42.7116 -3.74116 42.7116C-2.86833 42.7116 -1.99858 42.5861 -1.14112 42.4025V47.0476C-2.00166 46.864 -2.86833 46.7386 -3.74116 46.7386C-4.61396 46.7386 -5.48374 46.864 -6.3412 47.0476ZM-16.6705 45.7196H-8.3357V48.3084C-8.3357 48.6266 -8.18205 48.9265 -7.9239 49.1131C-7.66575 49.2998 -7.33073 49.3518 -7.0265 49.2508C-5.96006 48.8989 -4.85063 48.7245 -3.74116 48.7245C-2.63169 48.7245 -1.52223 48.8989 -0.45579 49.2508C-0.15153 49.3518 0.183431 49.2998 0.44158 49.1131C0.699758 48.9265 0.856527 48.6266 0.856527 48.3084V45.7196H2.46077V48.3084C2.46077 48.8561 2.90639 49.3028 3.45958 49.3028C4.01278 49.3028 4.45839 48.8591 4.45839 48.3084V45.7196H15.4116L15.4116 81.4512H4.45839V78.8624C4.45839 78.3147 4.01278 77.8679 3.45958 77.8679C2.90639 77.8679 2.46077 78.3116 2.46077 78.8624V81.4512H0.856527V78.8624C0.856527 78.5442 0.70284 78.2443 0.444662 78.0576C0.186514 77.871 -0.148447 77.819 -0.452708 77.92C-1.51914 78.2719 -2.62861 78.4463 -3.73808 78.4463C-4.84754 78.4463 -5.95701 78.2719 -7.02345 77.92C-7.32771 77.819 -7.66267 77.871 -7.92082 78.0576C-8.17899 78.2443 -8.33265 78.5442 -8.33265 78.8624V81.4512H-23.7882L-23.7882 45.7196H-16.6674H-16.6705ZM-6.3412 84.7652V80.1201C-5.48066 80.3037 -4.61396 80.4292 -3.74116 80.4292C-2.86833 80.4292 -1.99858 80.3037 -1.14112 80.1201V84.7652C-2.00166 84.5816 -2.86833 84.4561 -3.74116 84.4561C-4.61396 84.4561 -5.48374 84.5816 -6.3412 84.7652ZM-23.7913 127.119V83.4341H-8.3357V86.0228C-8.3357 86.3411 -8.18205 86.641 -7.9239 86.8276C-7.66575 87.0143 -7.33073 87.0663 -7.0265 86.9653C-5.96006 86.6134 -4.85063 86.439 -3.74116 86.439C-2.63169 86.439 -1.52223 86.6134 -0.45579 86.9653C-0.15153 87.0663 0.183431 87.0143 0.44158 86.8276C0.699758 86.641 0.856527 86.3411 0.856527 86.0228V83.4341H2.46077V86.0228C2.46077 86.5706 2.90639 87.0174 3.45958 87.0174C4.01278 87.0174 4.45839 86.5736 4.45839 86.0228V83.4341H15.4116V145.907H-23.7544C-23.7544 145.907 -23.7759 145.913 -23.7882 145.913V127.116L-23.7913 127.119ZM-23.7913 147.89C-23.7913 147.89 -23.7698 147.896 -23.7575 147.896H15.4085V173.722H6.51442V168.533C6.51442 162.801 1.8492 158.156 -3.90708 158.156H-23.7575C-23.7575 158.156 -23.779 158.162 -23.7913 158.162V147.89ZM-23.7913 160.133C-23.7913 160.133 -23.7698 160.139 -23.7575 160.139H-3.90708C-1.57752 160.139 0.524557 161.075 2.05199 162.596C3.57943 164.117 4.51986 166.21 4.51986 168.53V173.719H-23.7575C-23.7575 173.719 -23.779 173.726 -23.7913 173.726V160.13V160.133ZM-23.7913 181.562C-23.7913 181.562 -23.7698 181.568 -23.7575 181.568H-3.90708C-1.57752 181.568 0.524557 182.505 2.05199 184.025C3.57943 185.546 4.51986 187.639 4.51986 189.959V195.406H-16.3263C-16.6674 192.56 -19.0707 190.347 -22.0211 190.347H-23.7913V181.559V181.562ZM-27.5561 200.464C-29.6367 200.461 -31.3209 198.784 -31.324 196.712V196.088C-31.3209 194.016 -29.6367 192.339 -27.5561 192.336H-22.0211C-20.1741 192.339 -18.6466 193.664 -18.3239 195.409C-18.284 195.629 -18.2532 195.855 -18.2532 196.088V196.712C-18.2532 196.945 -18.2809 197.171 -18.3239 197.392C-18.6497 199.136 -20.1771 200.461 -22.0211 200.464H-27.5561ZM6.51442 195.406V189.959C6.51442 184.227 1.8492 179.582 -3.90708 179.582H-23.7575C-23.7575 179.582 -23.779 179.588 -23.7913 179.588V175.699C-23.7913 175.699 -23.7698 175.705 -23.7575 175.705H15.4085V195.403H6.51442V195.406ZM17.4031 224.705V197.392H18.7338C19.075 200.237 21.4783 202.45 24.4287 202.45H26.1989V210.418C26.1159 210.513 26.0482 210.626 26.0052 210.755C25.8915 211.091 25.9868 211.437 26.1989 211.691V224.99H17.3447C17.3724 224.898 17.4031 224.803 17.4031 224.702V224.705ZM131.161 226.979H137.375V229.944C137.375 233.959 140.645 237.214 144.677 237.214H151.485V274.761H136.598C133.595 274.754 131.164 272.334 131.158 269.344V226.979H131.161ZM129.166 263.861H113.585V257.459C113.585 253.797 110.601 250.825 106.922 250.825H95.9596V239.773H129.166V263.861ZM-5.09034 239.773V273.699C-5.74494 273.613 -6.39341 273.488 -7.02345 273.28C-7.32771 273.179 -7.66267 273.231 -7.92082 273.417C-8.17899 273.604 -8.33265 273.904 -8.33265 274.222V276.811H-23.7882V239.773H-5.08726H-5.09034ZM-16.6705 278.797H-8.3357V281.385C-8.3357 281.704 -8.18205 282.004 -7.9239 282.19C-7.66575 282.377 -7.33073 282.429 -7.0265 282.328C-5.96006 281.976 -4.85063 281.802 -3.74116 281.802C-2.63169 281.802 -1.52223 281.976 -0.45579 282.328C-0.15153 282.429 0.183431 282.377 0.44158 282.19C0.699758 282.004 0.853445 281.704 0.853445 281.385V278.797H2.45769V281.385C2.45769 281.933 2.90331 282.38 3.4565 282.38C4.00969 282.38 4.45534 281.936 4.45534 281.385V278.797H15.4085V314.528H4.45534V311.94C4.45534 311.392 4.00969 310.945 3.4565 310.945C2.90331 310.945 2.45769 311.389 2.45769 311.94V314.528H0.853445V311.94C0.853445 311.621 0.699758 311.321 0.44158 311.135C0.183431 310.948 -0.15153 310.896 -0.45579 310.997C-1.52223 311.349 -2.63169 311.523 -3.74116 311.523C-4.85063 311.523 -5.96006 311.349 -7.0265 310.997C-7.33073 310.896 -7.66575 310.948 -7.9239 311.135C-8.18205 311.321 -8.3357 311.621 -8.3357 311.94V314.528H-23.7913V278.797H-16.6705ZM-6.3412 317.845V313.2C-5.48066 313.384 -4.61396 313.509 -3.74116 313.509C-2.86833 313.509 -1.99858 313.384 -1.14112 313.2V317.845C-2.00166 317.662 -2.86833 317.536 -3.74116 317.536C-4.61396 317.536 -5.48374 317.662 -6.3412 317.845ZM-6.3412 355.563V350.918C-5.48066 351.101 -4.61396 351.227 -3.74116 351.227C-2.86833 351.227 -1.99858 351.101 -1.14112 350.918V355.563C-2.00166 355.379 -2.86833 355.254 -3.74116 355.254C-4.61396 355.254 -5.48374 355.379 -6.3412 355.563ZM7.48559 352.249H4.45534V349.66C4.45534 349.112 4.00969 348.666 3.4565 348.666C2.90331 348.666 2.45769 349.109 2.45769 349.66V352.249H0.853445V349.66C0.853445 349.342 0.699758 349.042 0.44158 348.855C0.183431 348.669 -0.15153 348.617 -0.45579 348.718C-1.52223 349.07 -2.63169 349.244 -3.74116 349.244C-4.85063 349.244 -5.96006 349.07 -7.0265 348.718C-7.33073 348.617 -7.66575 348.669 -7.9239 348.855C-8.18205 349.042 -8.3357 349.342 -8.3357 349.66V352.249H-23.7913V316.517H-8.3357V319.106C-8.3357 319.424 -8.18205 319.724 -7.9239 319.911C-7.66575 320.098 -7.33073 320.15 -7.0265 320.049C-5.96006 319.697 -4.85063 319.522 -3.74116 319.522C-2.63169 319.522 -1.52223 319.697 -0.45579 320.049C-0.15153 320.15 0.183431 320.098 0.44158 319.911C0.699758 319.724 0.856527 319.424 0.856527 319.106V316.517H2.46077V319.106C2.46077 319.654 2.90639 320.101 3.45958 320.101C4.01278 320.101 4.45839 319.657 4.45839 319.106V316.517H15.4116V352.249H7.48864H7.48559ZM85.6486 343.228V332.16C87.8799 332.172 92.6281 332.197 97.4901 332.212V349.957C97.4901 357.855 94.2785 364.994 89.0815 370.171C83.8815 375.346 76.7115 378.543 68.7793 378.543H17.4031V365.511H63.2659C75.6267 365.511 85.6486 355.535 85.6486 343.225V343.228ZM84.4378 393.632C84.7113 386.594 87.6494 380.248 92.3269 375.591C94.1248 373.801 96.1808 372.267 98.4212 371.034V393.632H84.4378ZM100.416 393.632V370.19C100.416 370.147 100.397 370.11 100.391 370.07C103.784 368.55 107.534 367.684 111.495 367.684H111.587V393.629H100.416V393.632ZM111.59 365.701H111.498C95.7782 365.701 83.0025 378.118 82.4432 393.632H17.4031V380.532H68.7793C85.7378 380.532 99.4846 366.845 99.4846 349.96V332.221C101.215 332.224 102.917 332.227 104.479 332.227C106.516 332.227 108.317 332.224 109.63 332.212C110.287 332.206 110.822 332.2 111.209 332.191C111.366 332.188 111.48 332.181 111.59 332.178L111.59 365.704V365.701ZM113.585 317.613H129.624V346.554C127.233 346.983 125.389 348.91 125.073 351.331H113.585V317.613Z" fill="#C06520"/>
<path d="M151.488 232.686C152.229 232.374 152.889 231.924 153.482 231.401C154.988 230.07 155.956 228.148 155.956 225.984C155.956 223.821 154.988 221.899 153.482 220.568C152.889 220.045 152.229 219.595 151.488 219.283C150.618 218.919 149.659 218.714 148.654 218.714C145.692 218.714 143.153 220.479 142.01 223.004C141.727 223.625 141.552 224.292 141.454 224.993C141.438 225.106 141.429 225.222 141.42 225.339C141.401 225.556 141.355 225.764 141.355 225.987C141.355 226.327 141.411 226.652 141.457 226.982C141.936 230.449 144.843 233.123 148.427 233.237C148.504 233.237 148.577 233.261 148.657 233.261C149.407 233.261 150.114 233.117 150.793 232.906C151.027 232.836 151.267 232.784 151.488 232.692V232.686ZM143.737 227.946C143.611 227.637 143.513 227.312 143.448 226.979C143.387 226.658 143.347 226.327 143.347 225.984C143.347 225.645 143.387 225.314 143.448 224.99C143.467 224.892 143.497 224.8 143.522 224.705C144.1 222.41 146.168 220.703 148.654 220.697C149.699 220.697 150.667 221.012 151.488 221.529C152.358 222.08 153.055 222.869 153.482 223.815C153.784 224.476 153.962 225.207 153.962 225.981C153.962 226.756 153.784 227.487 153.482 228.148C153.052 229.09 152.358 229.883 151.488 230.434C150.836 230.844 150.09 231.104 149.287 231.202C149.078 231.226 148.869 231.266 148.654 231.266C147.708 231.266 146.832 230.997 146.063 230.562C145.019 229.975 144.189 229.06 143.737 227.943V227.946Z" fill="#C06520"/>
</g>
<path d="M4.20027 153.346C4.20027 235.381 70.9921 301.884 153.384 301.884C235.776 301.884 302.568 235.381 302.568 153.346C302.568 71.3101 235.776 4.80713 153.384 4.80713C70.9921 4.80713 4.20027 71.3101 4.20027 153.346Z" stroke="#C06520" stroke-width="2.31" stroke-miterlimit="10"/>
<path d="M21.3062 183.003C34.9178 243.126 88.9494 288.185 153.387 288.185C217.825 288.185 271.853 243.126 285.465 183.003" stroke="#C06520" stroke-width="2.31" stroke-miterlimit="10"/>
<path d="M285.468 123.691C271.856 63.5683 217.822 18.5098 153.384 18.5098C88.9463 18.5098 34.9147 63.5652 21.3031 123.691" stroke="#C06520" stroke-width="2.31" stroke-miterlimit="10"/>
<path d="M299.608 123.691L257.738 123.691C242.885 123.71 230.853 136.975 230.837 153.349C230.853 169.72 242.888 182.985 257.738 183.003L299.608 183.003" stroke="#C06520" stroke-width="2.31" stroke-miterlimit="10"/>
<path d="M7.16292 183.003H49.0642C63.9144 182.985 75.9494 169.72 75.9647 153.349C75.9494 136.975 63.9144 123.713 49.0642 123.691H7.27049" stroke="#C06520" stroke-width="2.31" stroke-miterlimit="10"/>
<path d="M40.087 107.44L41.9156 103.269C42.9913 100.827 44.0885 101.075 45.1057 101.522L53.4743 105.169C55.1308 105.894 55.389 106.705 54.5776 108.56L52.6599 112.923L40.087 107.44ZM42.6164 105.839L52.1067 109.979L52.7705 108.468C53.0594 107.807 52.8043 107.611 52.3986 107.43L44.4726 103.976C43.9963 103.768 43.5906 103.624 43.1972 104.523L42.6194 105.839H42.6164Z" fill="#C06520"/>
<path d="M47.8195 91.7817L59.7531 98.5352L58.5422 100.662L46.6055 93.9084L47.8195 91.7817Z" fill="#C06520"/>
<path d="M62.1995 90.0589C62.5775 90.3252 63.2751 90.8209 64.0158 89.7774C64.695 88.8227 63.9973 88.2995 63.4134 87.8833C62.3685 87.1458 61.7108 87.0724 59.2337 87.4029C57.0886 87.715 55.5028 87.9322 54.0645 86.9163C53.4652 86.491 53.081 85.9555 52.9027 85.3068C52.62 84.1929 53.081 83.1158 53.8217 82.0754C55.177 80.1629 56.4155 80.0283 57.5742 80.8453L59.5687 82.2559L58.2534 84.1042L56.2772 82.7027C55.9299 82.4579 55.472 82.2315 54.9465 82.9689C54.2796 83.8992 54.7897 84.3888 55.346 84.7804C56.4831 85.5883 57.3467 85.4781 59.9928 85.1048C61.7477 84.8753 63.2536 84.6672 64.6919 85.6862C65.4356 86.2125 65.9612 86.9775 66.0964 87.7548C66.2869 88.9696 65.6077 90.0192 65.2051 90.5883C63.1215 93.5167 61.2713 92.2101 60.7028 91.8031L58.8342 90.4812L60.1619 88.6177L62.2025 90.0589H62.1995Z" fill="#C06520"/>
<path d="M59.6487 74.8631L65.2052 68.6758L66.4068 69.7498L64.4461 71.9316L73.4692 79.9764L71.7789 81.8583L62.7557 73.8135L60.8534 75.9341L59.6487 74.8631Z" fill="#C06520"/>
<path d="M71.284 62.8525L80.6268 72.8649L78.8259 74.5356L69.4831 64.5202L71.284 62.8525Z" fill="#C06520"/>
<path d="M79.3576 56.1206L86.6782 65.6739L89.9482 63.1953L90.9624 64.5203L85.6948 68.5167L77.36 57.6353L79.3576 56.1206Z" fill="#C06520"/>
<path d="M90.2924 48.6753L96.5342 58.9661L100.056 56.8486L100.92 58.2745L95.2496 61.6864L88.1472 49.9697L90.2924 48.6753Z" fill="#C06520"/>
<path d="M99.6353 43.5405L105.284 40.915L106.018 42.4726L102.675 44.0271L104.368 47.647L107.371 46.2486L108.087 47.7756L105.081 49.174L107.014 53.2958L110.379 51.7291L111.114 53.2866L105.444 55.9274L99.6353 43.5405Z" fill="#C06520"/>
<path d="M112.445 38.1062L116.308 36.8516C119.203 35.9122 119.722 36.3773 120.561 38.9507C121.311 41.2304 121.542 42.1943 119.602 42.8033L119.627 42.8767C121.379 42.4728 121.837 43.097 122.399 44.829L122.863 46.2427C123.376 47.8033 123.506 48.0267 124.163 48.6662L121.701 49.468C121.25 48.7795 120.859 48.1919 120.429 46.87L120.128 45.952C119.968 45.4594 119.602 44.4343 119.184 44.1007C118.779 43.807 118.499 43.8988 117.101 44.3516L119.058 50.3278L116.698 51.0959L112.448 38.1123L112.445 38.1062ZM115.343 38.8926L116.658 42.9012L117.774 42.5401C118.972 42.1546 118.896 41.7476 118.192 39.5964C117.722 38.1613 117.583 38.1643 116.563 38.4948L115.343 38.8926Z" fill="#C06520"/>
<path d="M129.296 33.4521L132.181 46.809L129.781 47.3231L126.892 33.9632L129.296 33.4521Z" fill="#C06520"/>
<path d="M137.243 32.1058L143.439 31.4111L143.632 33.1217L139.963 33.5287L140.415 37.4883L143.712 37.115L143.903 38.7888L140.608 39.156L141.118 43.6664L144.816 43.2503L145.009 44.9608L138.789 45.6554L137.246 32.1058H137.243Z" fill="#C06520"/>
<path d="M159.125 31.0929L167.441 31.6743L167.324 33.2747L164.393 33.0666L163.526 45.0771L160.994 44.8966L161.86 32.8891L159.008 32.6872L159.125 31.0898V31.0929Z" fill="#C06520"/>
<path d="M173.643 32.5953L179.768 33.7245L179.455 35.4167L175.822 34.7435L175.091 38.6572L178.348 39.257L178.041 40.9094L174.78 40.3096L173.947 44.7711L177.602 45.4473L177.285 47.1334L171.132 46.0012L173.64 32.5923L173.643 32.5953Z" fill="#C06520"/>
<path d="M185.555 46.7262C185.417 47.1699 185.165 47.9808 186.388 48.3603C187.513 48.7061 187.796 47.8829 188.008 47.2005C188.386 45.9827 188.251 45.3339 187.156 43.0971C186.191 41.1662 185.488 39.7372 186.01 38.0603C186.228 37.3565 186.616 36.8271 187.181 36.4569C188.155 35.8418 189.326 35.9428 190.552 36.3192C192.799 37.0107 193.315 38.1368 192.897 39.4893L192.172 41.8149L190.002 41.1479L190.718 38.8406C190.844 38.4336 190.918 37.9318 190.048 37.6625C188.948 37.3259 188.641 37.9593 188.441 38.6019C188.029 39.933 188.401 40.7164 189.591 43.1001C190.356 44.6913 191.023 46.053 190.503 47.7269C190.233 48.5959 189.67 49.3303 188.967 49.7036C187.873 50.2544 186.656 49.9423 185.992 49.7373C182.543 48.6755 183.217 46.5182 183.422 45.8541L184.099 43.6785L186.293 44.3517L185.555 46.7293V46.7262Z" fill="#C06520"/>
<path d="M197.913 51.1755C197.722 51.5978 197.375 52.3781 198.549 52.8952C199.625 53.3726 200.006 52.5862 200.298 51.9313C200.817 50.7624 200.762 50.1076 199.941 47.7514C199.213 45.7165 198.684 44.211 199.404 42.6045C199.705 41.9313 200.153 41.457 200.756 41.1479C201.795 40.6583 202.947 40.8939 204.121 41.408C206.272 42.3658 206.65 43.5439 206.076 44.8352L205.083 47.0629L203.005 46.1449L203.992 43.9325C204.167 43.55 204.299 43.0512 203.466 42.6871C202.415 42.222 202.034 42.8156 201.758 43.4337C201.189 44.7097 201.466 45.5268 202.36 48.0421C202.929 49.7128 203.433 51.1449 202.713 52.7545C202.345 53.5837 201.693 54.2478 200.952 54.5323C199.8 54.9546 198.626 54.4987 197.99 54.2172C194.689 52.7606 195.617 50.689 195.9 50.0525L196.831 47.9656L198.933 48.8958L197.916 51.1786L197.913 51.1755Z" fill="#C06520"/>
<path d="M213.793 46.5149L219.152 49.6698L218.273 51.1539L215.099 49.2811L213.064 52.7175L215.916 54.3975L215.056 55.8448L212.201 54.168L209.877 58.0786L213.077 59.9636L212.198 61.4446L206.813 58.2745L213.796 46.5088L213.793 46.5149Z" fill="#C06520"/>
<path d="M227.681 55.6063L224.546 64.2324C224.353 64.7465 224.199 65.1107 224.033 65.5482L224.159 65.6431C224.466 65.0739 224.774 64.5048 225.133 63.954L225.831 62.8769L229.964 57.3627L231.808 58.7795L223.44 69.5813L221.258 67.9044L225.072 57.9258L224.943 57.8279L224.325 58.8438L223.689 59.8413L219.036 66.197L217.192 64.7832L225.56 53.9814L227.681 55.6063Z" fill="#C06520"/>
<path d="M238.059 64.2876L241.286 67.5159C243.173 69.4009 242.54 70.3311 241.76 71.1083L235.3 77.5252C234.021 78.8012 233.17 78.743 231.735 77.3079L228.36 73.9327L238.059 64.2876ZM238.631 67.216L231.307 74.5019L232.478 75.6708C232.989 76.1818 233.265 76.0166 233.579 75.7014L239.691 69.6212C240.063 69.254 240.346 68.9327 239.648 68.2319L238.628 67.216H238.631Z" fill="#C06520"/>
<path d="M249.802 77.1029L239.144 85.6893L237.595 83.789L248.254 75.2026L249.802 77.1029Z" fill="#C06520"/>
<path d="M254.658 83.584L258.085 88.7554L256.644 89.707L254.612 86.6379L251.275 88.8319L253.097 91.5828L251.686 92.51L249.864 89.7529L246.056 92.256L248.103 95.3436L246.662 96.2922L243.223 91.0932L254.658 83.587V83.584Z" fill="#C06520"/>
<path d="M261.93 95.3374L263.743 98.9543C265.104 101.665 264.72 102.244 262.289 103.456C260.138 104.533 259.213 104.9 258.325 103.082L258.254 103.119C258.912 104.781 258.362 105.322 256.73 106.136L255.393 106.803C253.914 107.538 253.715 107.7 253.177 108.443L252.018 106.136C252.636 105.591 253.161 105.123 254.409 104.499L255.276 104.065C255.746 103.832 256.705 103.324 256.972 102.859C257.206 102.418 257.074 102.155 256.419 100.848L250.777 103.661L249.667 101.445L261.93 95.3374ZM261.573 98.3087L257.787 100.197L258.312 101.24C258.875 102.36 259.262 102.225 261.293 101.213C262.649 100.539 262.621 100.402 262.145 99.45L261.57 98.3087H261.573Z" fill="#C06520"/>
<path d="M258.214 216.761L250.371 213.487C249.24 213.022 248.825 212.774 248.063 212.343L247.968 212.505C249.212 213.258 249.6 213.551 250.512 214.258L256.788 219.105L255.497 221.223L244.901 212.272L246.394 209.812L253.318 212.777C254.034 213.089 254.683 213.475 255.414 213.918L255.54 213.713C254.907 213.334 254.047 212.811 253.709 212.541L247.67 207.713L249.139 205.295L261.964 210.583L260.707 212.655L252.845 209.032C251.892 208.612 251.462 208.352 250.715 207.933L250.632 208.068C251.696 208.713 252.197 209.044 252.774 209.515L259.373 214.84L258.211 216.755L258.214 216.761Z" fill="#C06520"/>
<path d="M246.388 232.731L242.218 229.056L240.672 230.791L244.842 234.47L243.192 236.324L232.927 227.279L234.599 225.403L239.369 229.604L240.896 227.894L236.126 223.689L237.777 221.838L248.042 230.883L246.388 232.735V232.731Z" fill="#C06520"/>
<path d="M232.106 246.636L223.255 236.214L225.13 234.635L233.984 245.054L232.106 246.636Z" fill="#C06520"/>
<path d="M214.463 245.749C214.214 245.354 213.756 244.638 212.671 245.32C211.678 245.948 212.124 246.694 212.511 247.3C213.196 248.38 213.78 248.702 216.205 249.323C218.31 249.855 219.862 250.253 220.806 251.74C221.202 252.361 221.356 252.995 221.276 253.668C221.113 254.8 220.277 255.626 219.192 256.309C217.207 257.563 216.009 257.217 215.249 256.021L213.934 253.962L215.855 252.75L217.155 254.791C217.385 255.152 217.723 255.538 218.492 255.054C219.463 254.439 219.177 253.793 218.811 253.218C218.062 252.04 217.223 251.814 214.622 251.159C212.911 250.703 211.435 250.329 210.489 248.836C210.003 248.068 209.8 247.162 209.973 246.388C210.261 245.201 211.288 244.488 211.875 244.112C214.921 242.193 216.138 244.108 216.516 244.696L217.745 246.624L215.806 247.848L214.463 245.736V245.749Z" fill="#C06520"/>
<path d="M200.513 265.602L198.202 266.587L198.389 259.148L192.292 254.259L194.625 253.264L199.281 257.089C199.413 257.202 199.991 257.735 200.132 257.86L197.621 251.991L199.908 251.018L205.28 263.576L202.969 264.562L200.839 259.577C200.664 259.17 200.599 258.943 200.461 258.625C200.519 259.17 200.528 259.73 200.525 259.926L200.516 265.602H200.513Z" fill="#C06520"/>
<path d="M185.906 270.55L184.055 267.75C183.462 266.844 183.189 266.095 182.881 265.336L182.7 265.382C182.759 265.825 182.918 266.884 182.771 268.234L182.377 271.447L179.943 272.065L181.007 263.619L179.587 258.074L182.202 257.407L183.619 262.937L188.389 269.923L185.903 270.553L185.906 270.55Z" fill="#C06520"/>
<path d="M154.478 274.812L148.009 274.693L148.043 272.995L152.023 273.065L152.096 269.109L148.488 269.038L148.519 267.377L152.099 267.447L152.216 261.113L154.73 261.156L154.478 274.812Z" fill="#C06520"/>
<path d="M136.524 273.601L132.522 272.918C129.523 272.401 129.286 271.75 129.747 269.087C130.159 266.722 130.405 265.764 132.403 266.122L132.415 266.046C130.675 265.593 130.568 264.828 130.878 263.035L131.13 261.569C131.413 259.947 131.401 259.69 131.121 258.815L133.675 259.259C133.749 260.073 133.816 260.773 133.577 262.144L133.417 263.099C133.325 263.613 133.168 264.684 133.38 265.177C133.601 265.623 133.89 265.672 135.341 265.92L136.416 259.73L138.863 260.146L136.527 273.601H136.524ZM134.333 271.557L135.052 267.398L133.893 267.202C132.661 266.985 132.535 267.383 132.148 269.611C131.889 271.095 132.015 271.159 133.066 271.34L134.33 271.557H134.333Z" fill="#C06520"/>
<path d="M112.838 267.775L114.501 253.91L116.806 254.696L116.449 257.227L119.132 258.142L120.352 255.899L122.63 256.676L115.699 268.751L112.838 267.775ZM115.214 265.865C115.865 264.207 115.927 264.02 116.056 263.824L118.339 259.632L116.216 258.907L115.564 263.696C115.493 264.222 115.349 264.724 115.014 265.795L115.217 265.865H115.214Z" fill="#C06520"/>
<path d="M97.1427 260.984L98.8177 251.948C98.9253 251.413 99.0144 251.021 99.1097 250.568L98.9683 250.492C98.7562 251.104 98.5472 251.716 98.286 252.318L97.7728 253.499L94.595 259.626L92.5451 258.53L99.0267 246.483L101.458 247.774L99.3371 258.261L99.4754 258.337L99.9179 257.236L100.385 256.143L103.932 249.093L105.985 250.189L99.5 262.242L97.1427 260.984Z" fill="#C06520"/>
<path d="M82.5845 238.836C83.0117 238.288 84.4193 236.584 87.2867 238.325L87.9689 238.135C87.0808 237.41 86.4261 236.596 86.9056 235.966C87.2744 235.489 88.3777 235.063 91.5677 237.612L91.2051 238.09C89.2659 236.492 88.8971 236.97 88.8295 237.061C88.5098 237.478 89.2658 238.074 90.0465 238.72L88.3316 239.118C90.824 241.431 89.6224 242.998 88.9247 243.904L84.911 249.124C84.1642 250.094 82.5138 252.242 79.1578 249.687C76.0538 247.331 77.5074 245.443 78.0975 244.675L79.1609 243.292L81.137 244.797L79.8462 246.471C79.5788 246.823 78.9857 247.591 80.2181 248.53C81.4689 249.482 82.0836 248.683 82.52 248.117L87.1268 242.129C87.5878 241.526 88.0949 240.865 86.8841 239.944C85.6332 238.986 85.0647 239.727 84.6498 240.262L83.0178 242.386L81.0233 240.865L82.5814 238.836H82.5845Z" fill="#C06520"/>
<path d="M64.3353 236.088L72.2122 224.57L73.8933 226.324L72.4058 228.404L74.3696 230.442L76.484 229.013L78.1498 230.745L66.4313 238.264L64.3384 236.088H64.3353ZM67.3256 235.488C68.6717 234.316 68.81 234.182 69.019 234.062L72.9774 231.4L71.4223 229.781L68.6379 233.723C68.3337 234.16 67.9741 234.54 67.1812 235.335L67.3256 235.488Z" fill="#C06520"/>
<path d="M53.8739 223.377L64.9746 215.351L66.4221 217.333L55.3214 225.357L53.8739 223.377Z" fill="#C06520"/>
<path d="M56.1205 205.938C56.5323 205.721 57.2852 205.323 56.6859 204.194C56.1297 203.16 55.346 203.542 54.7129 203.879C53.5819 204.475 53.2162 205.032 52.4048 207.392C51.7195 209.439 51.2063 210.947 49.645 211.777C48.9904 212.122 48.3419 212.22 47.6781 212.092C46.5533 211.844 45.7911 210.95 45.1887 209.824C44.0854 207.753 44.5157 206.593 45.7665 205.932L47.9301 204.785L48.9965 206.783L46.8545 207.915C46.4765 208.117 46.0708 208.426 46.498 209.222C47.0389 210.234 47.7058 209.999 48.3051 209.681C49.5374 209.029 49.8325 208.212 50.6776 205.684C51.2585 204.023 51.7472 202.584 53.3115 201.761C54.1167 201.333 55.0417 201.207 55.8008 201.44C56.9717 201.816 57.611 202.893 57.9368 203.505C59.6332 206.682 57.6264 207.741 57.0117 208.065L54.9833 209.139L53.9046 207.119L56.1174 205.944L56.1205 205.938Z" fill="#C06520"/>
</g>
<defs>
<clipPath id="clip0_36_4788">
<rect width="306" height="307.329" fill="white" transform="matrix(0 1 -1 0 308.238 0)"/>
</clipPath>
</defs>
</svg>
