<svg width="303" height="530" viewBox="0 0 303 530" fill="none" xmlns="http://www.w3.org/2000/svg">
<g clip-path="url(#clip0_462_715)">
<path d="M132.845 119.896H162.724" stroke="#C06520" stroke-width="2.19" stroke-linecap="round" stroke-linejoin="round"/>
<path d="M132.933 109.312V142.431C132.933 146.225 136.128 149.306 140.078 149.306H220.502" stroke="#C06520" stroke-width="2.19" stroke-linecap="round" stroke-linejoin="round"/>
<path d="M109.027 381.97V182.087C109.027 179.647 111.079 177.673 113.615 177.673H125.143" stroke="#C06520" stroke-width="2.19" stroke-linecap="round" stroke-linejoin="round"/>
<path d="M193.592 124.254H265.991C272.095 124.254 273.576 121.687 273.576 116.956V81.891C273.576 81.891 272.77 75.3406 280.384 75.3406H303" stroke="#C06520" stroke-width="2.19" stroke-linejoin="round"/>
<path d="M192.287 122.999V107.797" stroke="#C06520" stroke-width="2.19" stroke-linejoin="round"/>
<path d="M192.287 100.957V32.6182" stroke="#C06520" stroke-width="2.19" stroke-linejoin="round"/>
<path d="M235.005 124.254V202.507" stroke="#C06520" stroke-width="2.19" stroke-linecap="round" stroke-linejoin="round"/>
<path d="M235.775 149.306H272.081C272.997 149.306 273.744 150.025 273.744 150.907V177.348C273.744 178.23 274.492 178.949 275.408 178.949H291.853" stroke="#C06520" stroke-width="2.19" stroke-linecap="round" stroke-linejoin="round"/>
<path d="M302.267 276.952H158.363C155.849 276.952 153.805 274.991 153.805 272.566V214.895C153.805 212.477 155.842 210.509 158.363 210.509L189.348 210.03C191.862 210.03 193.592 208.57 193.592 206.145V175.311C193.592 173.28 191.877 171.63 189.766 171.63H114.392C111.431 171.63 109.027 169.317 109.027 166.468V120.192" stroke="#C06520" stroke-width="2.19" stroke-linecap="round" stroke-linejoin="round"/>
<path d="M193.526 201.216V229.956C193.526 234.8 195.475 235.914 199.726 235.914H222.745C228.146 235.914 232.528 240.124 232.528 245.327V276.275" stroke="#C06520" stroke-width="2.19" stroke-linecap="round" stroke-linejoin="round"/>
<path d="M206.16 202.506H302.267" stroke="#C06520" stroke-width="2.19" stroke-linecap="round" stroke-linejoin="round"/>
<path d="M132.933 174.598V268.596" stroke="#C06520" stroke-width="2.19" stroke-linecap="round" stroke-linejoin="round"/>
<path d="M166.205 276.952V210.361" stroke="#C06520" stroke-width="2.19" stroke-linecap="round" stroke-linejoin="round"/>
<path d="M205.273 236.323V520.552" stroke="#C06520" stroke-width="2.19" stroke-linecap="round" stroke-linejoin="round"/>
<path d="M173.138 158.388V149.306" stroke="#C06520" stroke-width="2.19" stroke-linecap="round" stroke-linejoin="round"/>
<path d="M173.138 166.743V183.927C173.138 186.677 170.822 188.912 167.956 188.912H133.197" stroke="#C06520" stroke-width="2.19" stroke-linecap="round" stroke-linejoin="round"/>
<path d="M303 119.861H290.241C284.378 119.861 282.722 116.216 282.722 112.627V101.535C282.722 94.9143 276.72 95.7604 276.72 95.7604H192.243" stroke="#C06520" stroke-width="2.19" stroke-linejoin="round"/>
<path d="M163.471 109.312C163.552 127.744 163.449 149.25 163.449 149.25" stroke="#C06520" stroke-width="2.19" stroke-linecap="round" stroke-linejoin="round"/>
<path d="M164.116 136.558H234.595" stroke="#C06520" stroke-width="2.19" stroke-linecap="round" stroke-linejoin="round"/>
<path d="M192.287 126.573V149.059" stroke="#C06520" stroke-width="2.19" stroke-linejoin="round"/>
<path d="M245.024 124.148V133.124C245.024 135.599 247.105 137.601 249.677 137.601H271.839C273.004 137.601 274.125 137.989 275.02 138.708L286.745 148.051C287.639 148.763 288.768 149.158 289.926 149.158H291.846" stroke="#C06520" stroke-width="2.19" stroke-linecap="round" stroke-linejoin="round"/>
<path d="M235.306 161.885H253.092C256.068 161.885 258.479 159.565 258.479 156.703V110.264C258.479 107.423 256.104 105.117 253.158 105.082L216.677 105.054C213.928 105.054 211.693 107.197 211.693 109.841V124.254" stroke="#C06520" stroke-width="2.19" stroke-linecap="round" stroke-linejoin="round"/>
<path d="M206.16 202.5V137.066" stroke="#C06520" stroke-width="2.19" stroke-linecap="round" stroke-linejoin="round"/>
<path d="M143.538 119.988V131.46C143.538 133.328 141.962 134.844 140.02 134.844H133.38" stroke="#C06520" stroke-width="2.19" stroke-linecap="round" stroke-linejoin="round"/>
<path d="M177.278 163.408C177.19 163.492 205.896 163.408 205.896 163.408" stroke="#C06520" stroke-width="2.19" stroke-linecap="round" stroke-linejoin="round"/>
<path d="M231.063 188.552H206.38" stroke="#C06520" stroke-width="2.19" stroke-linecap="round" stroke-linejoin="round"/>
<path d="M238.501 188.552H279.38C279.38 188.552 285.499 187.629 285.499 194.44V202.513" stroke="#C06520" stroke-width="2.19" stroke-linecap="round" stroke-linejoin="round"/>
<path d="M217.908 203.099C218.04 203.479 217.908 235.914 217.908 235.914" stroke="#C06520" stroke-width="2.19" stroke-linecap="round" stroke-linejoin="round"/>
<path d="M218.172 213.421H233.093C246.291 213.421 256.991 223.716 256.991 236.415V276.268" stroke="#C06520" stroke-width="2.19" stroke-linecap="round" stroke-linejoin="round"/>
<path d="M143.625 215.297H154.047" stroke="#C06520" stroke-width="2.19" stroke-linejoin="round"/>
<path d="M143.625 229.914H154.047" stroke="#C06520" stroke-width="2.19" stroke-linejoin="round"/>
<path d="M143.625 244.531H154.047" stroke="#C06520" stroke-width="2.19" stroke-linejoin="round"/>
<path d="M78.9361 171.355V219.768" stroke="#C06520" stroke-width="2.19" stroke-linecap="round" stroke-linejoin="round"/>
<path d="M173.138 183.927V184.512C173.138 186.895 175.146 188.827 177.623 188.827H193.262" stroke="#C06520" stroke-width="2.19" stroke-linecap="round" stroke-linejoin="round"/>
<path d="M169.012 241.767H154.047" stroke="#C06520" stroke-width="2.19" stroke-linecap="round" stroke-linejoin="round"/>
<path d="M109.174 230.203H112.574C117.03 230.203 120.636 226.727 120.614 222.44V197.733" stroke="#C06520" stroke-width="2.19" stroke-linecap="round" stroke-linejoin="round"/>
<path d="M120.878 268.786C120.995 268.455 120.958 256.807 120.922 248.677C120.9 244.39 124.505 240.914 128.961 240.914H132.361" stroke="#C06520" stroke-width="2.19" stroke-linejoin="round"/>
<path d="M109.027 236.493H132.317" stroke="#C06520" stroke-width="2.19" stroke-linecap="round" stroke-linejoin="round"/>
<path d="M109.533 251.455H120.834" stroke="#C06520" stroke-width="2.19" stroke-linecap="round" stroke-linejoin="round"/>
<path d="M108.47 220.057H30.78" stroke="#C06520" stroke-width="2.19" stroke-linecap="round" stroke-linejoin="round"/>
<path d="M78.9434 196.894H5.02008" stroke="#C06520" stroke-width="2.19" stroke-linecap="round" stroke-linejoin="round"/>
<path d="M108.47 230.203H55.9243C53.5206 230.203 51.5712 232.079 51.5712 234.391V247.267" stroke="#C06520" stroke-width="2.19" stroke-linecap="round" stroke-linejoin="round"/>
<path d="M110.061 230.118H94.9417C93.051 230.118 91.512 231.592 91.512 233.418V381.963L302.604 382.428" stroke="#C06520" stroke-width="2.19" stroke-linecap="round" stroke-linejoin="round"/>
<path d="M109.841 196.894H132.625" stroke="#C06520" stroke-width="2.19" stroke-linecap="round" stroke-linejoin="round"/>
<path d="M109.841 189.116H132.625" stroke="#C06520" stroke-width="2.19" stroke-linecap="round" stroke-linejoin="round"/>
<path d="M143.266 189.074L143.252 381.97" stroke="#C06520" stroke-width="2.19" stroke-linecap="round" stroke-linejoin="round"/>
<path d="M30.824 223.638C32.8801 223.638 34.5469 222.035 34.5469 220.057C34.5469 218.078 32.8801 216.475 30.824 216.475C28.7679 216.475 27.1011 218.078 27.1011 220.057C27.1011 222.035 28.7679 223.638 30.824 223.638Z" fill="black" stroke="#C06520" stroke-width="2.19" stroke-miterlimit="10"/>
<path d="M1.29718 196.894C1.29718 198.868 2.96077 200.476 5.0201 200.476C7.07943 200.476 8.74301 198.875 8.74301 196.894C8.74301 194.912 7.07943 193.312 5.0201 193.312C2.96077 193.312 1.29718 194.912 1.29718 196.894Z" fill="black" stroke="#C06520" stroke-width="2.19" stroke-miterlimit="10"/>
<path d="M192.287 127.603C194.343 127.603 196.01 125.999 196.01 124.021C196.01 122.043 194.343 120.439 192.287 120.439C190.231 120.439 188.564 122.043 188.564 124.021C188.564 125.999 190.231 127.603 192.287 127.603Z" fill="black" stroke="#C06520" stroke-width="2.19" stroke-miterlimit="10"/>
<path d="M245.024 127.836C247.08 127.836 248.747 126.232 248.747 124.254C248.747 122.276 247.08 120.672 245.024 120.672C242.968 120.672 241.301 122.276 241.301 124.254C241.301 126.232 242.968 127.836 245.024 127.836Z" fill="black" stroke="#C06520" stroke-width="2.19" stroke-miterlimit="10"/>
<path d="M234.786 192.134C236.842 192.134 238.509 190.531 238.509 188.552C238.509 186.574 236.842 184.97 234.786 184.97C232.729 184.97 231.063 186.574 231.063 188.552C231.063 190.531 232.729 192.134 234.786 192.134Z" fill="black" stroke="#C06520" stroke-width="2.19" stroke-miterlimit="10"/>
<path d="M166.205 247.337C169.402 247.337 171.994 244.843 171.994 241.767C171.994 238.69 169.402 236.197 166.205 236.197C163.007 236.197 160.415 238.69 160.415 241.767C160.415 244.843 163.007 247.337 166.205 247.337Z" fill="black" stroke="#C06520" stroke-width="2.19" stroke-miterlimit="10"/>
<path d="M205.273 529.133C208.471 529.133 211.063 526.639 211.063 523.562C211.063 520.486 208.471 517.992 205.273 517.992C202.076 517.992 199.484 520.486 199.484 523.562C199.484 526.639 202.076 529.133 205.273 529.133Z" fill="black" stroke="#C06520" stroke-width="2.19" stroke-miterlimit="10"/>
<path d="M173.497 156.865H172.786C170.726 156.865 169.056 158.472 169.056 160.454V164.938C169.056 166.921 170.726 168.527 172.786 168.527H173.497C175.557 168.527 177.227 166.921 177.227 164.938V160.454C177.227 158.472 175.557 156.865 173.497 156.865Z" fill="black" stroke="#C06520" stroke-width="2.19" stroke-miterlimit="10"/>
<path d="M101.01 224.936H100.299C98.2387 224.936 96.5687 226.543 96.5687 228.525V233.009C96.5687 234.991 98.2387 236.598 100.299 236.598H101.01C103.07 236.598 104.74 234.991 104.74 233.009V228.525C104.74 226.543 103.07 224.936 101.01 224.936Z" fill="black" stroke="#C06520" stroke-width="2.19" stroke-miterlimit="10"/>
<path d="M133.651 166.638H132.207C128.039 166.638 124.659 169.889 124.659 173.9V175.289C124.659 179.3 128.039 182.552 132.207 182.552H133.651C137.82 182.552 141.2 179.3 141.2 175.289V173.9C141.2 169.889 137.82 166.638 133.651 166.638Z" fill="black" stroke="#C06520" stroke-width="2.19" stroke-miterlimit="10"/>
<path d="M133.373 169.719H132.493C129.935 169.719 127.862 171.714 127.862 174.175V175.021C127.862 177.483 129.935 179.478 132.493 179.478H133.373C135.931 179.478 138.004 177.483 138.004 175.021V174.175C138.004 171.714 135.931 169.719 133.373 169.719Z" fill="black" stroke="#C06520" stroke-width="2.19" stroke-miterlimit="10"/>
<path d="M303.015 126.764L291.853 126.806H288.46C286.086 126.806 284.158 128.661 284.158 130.945V170.445C284.158 172.73 282.231 174.584 279.856 174.584H205.896" stroke="#C06520" stroke-width="2.19" stroke-linejoin="round"/>
<path d="M100.651 220.057V224.936" stroke="#C06520" stroke-width="2.19" stroke-linecap="round" stroke-linejoin="round"/>
<path d="M54.466 250.059H48.6764C49.2993 251.871 49.2993 253.824 48.6764 255.629H54.466C53.843 253.817 53.843 251.864 54.466 250.059Z" fill="black" stroke="#C06520" stroke-width="2.19" stroke-linecap="round" stroke-linejoin="round"/>
<path d="M54.466 247.274H48.6764" stroke="#C06520" stroke-width="2.19" stroke-linecap="round" stroke-linejoin="round"/>
<path d="M87.723 230.203H35.1771C32.7734 230.203 30.824 232.079 30.824 234.391V247.267" stroke="#C06520" stroke-width="2.19" stroke-linecap="round" stroke-linejoin="round"/>
<path d="M96.5687 230.203H76.5617C74.1579 230.203 72.2085 232.079 72.2085 234.391V247.267" stroke="#C06520" stroke-width="2.19" stroke-linecap="round" stroke-linejoin="round"/>
<path d="M33.7188 250.059H27.9292C28.5521 251.871 28.5521 253.824 27.9292 255.629H33.7188C33.0958 253.817 33.0958 251.864 33.7188 250.059Z" fill="black" stroke="#C06520" stroke-width="2.19" stroke-linecap="round" stroke-linejoin="round"/>
<path d="M33.7188 247.274H27.9292" stroke="#C06520" stroke-width="2.19" stroke-linecap="round" stroke-linejoin="round"/>
<path d="M75.0739 250.059H69.2844C69.9073 251.871 69.9073 253.824 69.2844 255.629H75.0739C74.451 253.817 74.451 251.864 75.0739 250.059Z" fill="black" stroke="#C06520" stroke-width="2.19" stroke-linecap="round" stroke-linejoin="round"/>
<path d="M75.0739 247.274H69.2844" stroke="#C06520" stroke-width="2.19" stroke-linecap="round" stroke-linejoin="round"/>
<path d="M248.629 146.909L234.925 142.883C234.925 142.883 222.136 146.267 221.382 146.909H248.629Z" fill="black" stroke="#C06520" stroke-width="2.19" stroke-linecap="round" stroke-linejoin="round"/>
<path d="M248.629 146.909H221.382V170.84H248.629V146.909Z" fill="black" stroke="#C06520" stroke-width="2.19" stroke-linecap="round" stroke-linejoin="round"/>
<path d="M132.625 105.138H112.604C110.632 105.138 109.035 103.601 109.035 101.704V23.7197H122.915" stroke="#C06520" stroke-width="2.19" stroke-linecap="round" stroke-linejoin="round"/>
<path d="M72.1791 171.292L78.8115 177.673H79.0607L85.693 171.292" stroke="#C06520" stroke-width="2.19" stroke-miterlimit="10" stroke-linecap="round"/>
<path d="M78.9361 124.853C78.9361 124.853 70.2371 137.129 62.3442 137.129H95.528C85.693 134.915 78.9361 124.853 78.9361 124.853Z" fill="black" stroke="#C06520" stroke-width="2.19" stroke-linecap="round" stroke-linejoin="round"/>
<path d="M78.9361 171.355C86.1987 171.355 92.7285 169.416 97.3308 166.342H60.5414C65.1437 169.423 71.6735 171.355 78.9361 171.355Z" fill="black" stroke="#C06520" stroke-width="2.19" stroke-linecap="round" stroke-linejoin="round"/>
<path d="M104.154 152.12C104.154 147.381 100.805 143.137 95.528 140.239H62.3442C57.0676 143.137 53.7184 147.374 53.7184 152.12C53.7184 156.294 56.3201 160.08 60.5413 162.908H97.3308C101.552 160.08 104.154 156.294 104.154 152.12Z" fill="black" stroke="#C06520" stroke-width="2.19" stroke-miterlimit="10"/>
<path d="M78.9434 150.702C80.9995 150.702 82.6664 149.449 82.6664 147.903C82.6664 146.357 80.9995 145.104 78.9434 145.104C76.8873 145.104 75.2205 146.357 75.2205 147.903C75.2205 149.449 76.8873 150.702 78.9434 150.702Z" fill="black" stroke="#C06520" stroke-width="1.94" stroke-miterlimit="10"/>
<path d="M78.9361 124.853V95.5489C78.9361 91.1068 82.681 87.5037 87.298 87.5037H109.027" stroke="#C06520" stroke-width="2.19" stroke-linecap="round" stroke-linejoin="round"/>
<path d="M109.027 123.781C111.083 123.781 112.75 122.178 112.75 120.199C112.75 118.221 111.083 116.617 109.027 116.617C106.971 116.617 105.304 118.221 105.304 120.199C105.304 122.178 106.971 123.781 109.027 123.781Z" fill="black" stroke="#C06520" stroke-width="2.19" stroke-miterlimit="10"/>
<path d="M109.027 91.0855C111.083 91.0855 112.75 89.4818 112.75 87.5036C112.75 85.5253 111.083 83.9216 109.027 83.9216C106.971 83.9216 105.304 85.5253 105.304 87.5036C105.304 89.4818 106.971 91.0855 109.027 91.0855Z" fill="black" stroke="#C06520" stroke-width="2.19" stroke-miterlimit="10"/>
<path d="M143.054 1.29736H122.93V32.6252H143.054V1.29736Z" fill="black" stroke="#C06520" stroke-width="2.19" stroke-linecap="round" stroke-linejoin="round"/>
<path d="M122.908 7.7561H142.959" stroke="#C06520" stroke-width="2.19" stroke-linecap="round" stroke-linejoin="round"/>
<path d="M125.604 12.3394H125.319" stroke="#C06520" stroke-width="2.84" stroke-miterlimit="10" stroke-linecap="round"/>
<path d="M133.036 12.3394H132.757" stroke="#C06520" stroke-width="2.84" stroke-miterlimit="10" stroke-linecap="round"/>
<path d="M125.604 20.4834H125.319" stroke="#C06520" stroke-width="2.84" stroke-miterlimit="10" stroke-linecap="round"/>
<path d="M133.036 20.4834H132.757" stroke="#C06520" stroke-width="2.84" stroke-miterlimit="10" stroke-linecap="round"/>
<path d="M125.604 28.6343H125.319" stroke="#C06520" stroke-width="2.84" stroke-miterlimit="10" stroke-linecap="round"/>
<path d="M140.166 12.3394H139.888" stroke="#C06520" stroke-width="2.84" stroke-miterlimit="10" stroke-linecap="round"/>
<path d="M140.166 20.4834H139.888" stroke="#C06520" stroke-width="2.84" stroke-miterlimit="10" stroke-linecap="round"/>
<path d="M140.166 28.6343H139.888" stroke="#C06520" stroke-width="2.84" stroke-miterlimit="10" stroke-linecap="round"/>
<path d="M133.036 28.6343H132.757" stroke="#C06520" stroke-width="2.84" stroke-miterlimit="10" stroke-linecap="round"/>
<path d="M129.305 16.3303H129.027" stroke="#C06520" stroke-width="2.84" stroke-miterlimit="10" stroke-linecap="round"/>
<path d="M136.744 16.3303H136.458" stroke="#C06520" stroke-width="2.84" stroke-miterlimit="10" stroke-linecap="round"/>
<path d="M129.305 24.4741H129.027" stroke="#C06520" stroke-width="2.84" stroke-miterlimit="10" stroke-linecap="round"/>
<path d="M136.744 24.4741H136.458" stroke="#C06520" stroke-width="2.84" stroke-miterlimit="10" stroke-linecap="round"/>
<path d="M172.801 1.29736H152.676V32.6252H172.801V1.29736Z" fill="black" stroke="#C06520" stroke-width="2.19" stroke-linecap="round" stroke-linejoin="round"/>
<path d="M152.654 7.7561H172.698" stroke="#C06520" stroke-width="2.19" stroke-linecap="round" stroke-linejoin="round"/>
<path d="M155.344 12.3394H155.065" stroke="#C06520" stroke-width="2.84" stroke-miterlimit="10" stroke-linecap="round"/>
<path d="M162.782 12.3394H162.497" stroke="#C06520" stroke-width="2.84" stroke-miterlimit="10" stroke-linecap="round"/>
<path d="M155.344 20.4834H155.065" stroke="#C06520" stroke-width="2.84" stroke-miterlimit="10" stroke-linecap="round"/>
<path d="M162.782 20.4834H162.497" stroke="#C06520" stroke-width="2.84" stroke-miterlimit="10" stroke-linecap="round"/>
<path d="M155.344 28.6343H155.065" stroke="#C06520" stroke-width="2.84" stroke-miterlimit="10" stroke-linecap="round"/>
<path d="M169.913 12.3394H169.627" stroke="#C06520" stroke-width="2.84" stroke-miterlimit="10" stroke-linecap="round"/>
<path d="M169.913 20.4834H169.627" stroke="#C06520" stroke-width="2.84" stroke-miterlimit="10" stroke-linecap="round"/>
<path d="M169.913 28.6343H169.627" stroke="#C06520" stroke-width="2.84" stroke-miterlimit="10" stroke-linecap="round"/>
<path d="M162.782 28.6343H162.497" stroke="#C06520" stroke-width="2.84" stroke-miterlimit="10" stroke-linecap="round"/>
<path d="M159.052 16.3303H158.766" stroke="#C06520" stroke-width="2.84" stroke-miterlimit="10" stroke-linecap="round"/>
<path d="M166.483 16.3303H166.205" stroke="#C06520" stroke-width="2.84" stroke-miterlimit="10" stroke-linecap="round"/>
<path d="M159.052 24.4741H158.766" stroke="#C06520" stroke-width="2.84" stroke-miterlimit="10" stroke-linecap="round"/>
<path d="M166.483 24.4741H166.205" stroke="#C06520" stroke-width="2.84" stroke-miterlimit="10" stroke-linecap="round"/>
<path d="M202.54 1.29736H182.416V32.6252H202.54V1.29736Z" fill="black" stroke="#C06520" stroke-width="2.19" stroke-linecap="round" stroke-linejoin="round"/>
<path d="M182.401 7.7561H202.445" stroke="#C06520" stroke-width="2.19" stroke-linecap="round" stroke-linejoin="round"/>
<path d="M185.091 12.3394H184.812" stroke="#C06520" stroke-width="2.84" stroke-miterlimit="10" stroke-linecap="round"/>
<path d="M192.529 12.3394H192.243" stroke="#C06520" stroke-width="2.84" stroke-miterlimit="10" stroke-linecap="round"/>
<path d="M185.091 20.4834H184.812" stroke="#C06520" stroke-width="2.84" stroke-miterlimit="10" stroke-linecap="round"/>
<path d="M192.529 20.4834H192.243" stroke="#C06520" stroke-width="2.84" stroke-miterlimit="10" stroke-linecap="round"/>
<path d="M185.091 28.6343H184.812" stroke="#C06520" stroke-width="2.84" stroke-miterlimit="10" stroke-linecap="round"/>
<path d="M199.652 12.3394H199.374" stroke="#C06520" stroke-width="2.84" stroke-miterlimit="10" stroke-linecap="round"/>
<path d="M199.652 20.4834H199.374" stroke="#C06520" stroke-width="2.84" stroke-miterlimit="10" stroke-linecap="round"/>
<path d="M199.652 28.6343H199.374" stroke="#C06520" stroke-width="2.84" stroke-miterlimit="10" stroke-linecap="round"/>
<path d="M192.529 28.6343H192.243" stroke="#C06520" stroke-width="2.84" stroke-miterlimit="10" stroke-linecap="round"/>
<path d="M188.791 16.3303H188.513" stroke="#C06520" stroke-width="2.84" stroke-miterlimit="10" stroke-linecap="round"/>
<path d="M196.23 16.3303H195.944" stroke="#C06520" stroke-width="2.84" stroke-miterlimit="10" stroke-linecap="round"/>
<path d="M188.791 24.4741H188.513" stroke="#C06520" stroke-width="2.84" stroke-miterlimit="10" stroke-linecap="round"/>
<path d="M196.23 24.4741H195.944" stroke="#C06520" stroke-width="2.84" stroke-miterlimit="10" stroke-linecap="round"/>
<path d="M166.344 103.742H160.554C161.177 105.554 161.177 107.507 160.554 109.313H166.344C165.721 107.5 165.721 105.547 166.344 103.742Z" fill="black" stroke="#C06520" stroke-width="2.19" stroke-linecap="round" stroke-linejoin="round"/>
<path d="M166.344 100.957H160.554" stroke="#C06520" stroke-width="2.19" stroke-linecap="round" stroke-linejoin="round"/>
<path d="M135.52 103.742H129.73C130.353 105.554 130.353 107.507 129.73 109.313H135.52C134.897 107.5 134.897 105.547 135.52 103.742Z" fill="black" stroke="#C06520" stroke-width="2.19" stroke-linecap="round" stroke-linejoin="round"/>
<path d="M135.52 100.957H129.73" stroke="#C06520" stroke-width="2.19" stroke-linecap="round" stroke-linejoin="round"/>
<path d="M195.138 103.742H189.348C189.971 105.554 189.971 107.507 189.348 109.313H195.138C194.515 107.5 194.515 105.547 195.138 103.742Z" fill="black" stroke="#C06520" stroke-width="2.19" stroke-linecap="round" stroke-linejoin="round"/>
<path d="M195.138 100.957H189.348" stroke="#C06520" stroke-width="2.19" stroke-linecap="round" stroke-linejoin="round"/>
<path d="M163.449 100.957V32.6182" stroke="#C06520" stroke-width="2.19" stroke-linecap="round" stroke-linejoin="round"/>
<path d="M132.757 100.957V32.6182" stroke="#C06520" stroke-width="2.19" stroke-linecap="round" stroke-linejoin="round"/>
<ellipse cx="60.5414" cy="160.489" rx="0.802479" ry="0.772091" fill="#C06520"/>
<ellipse cx="64.5721" cy="160.489" rx="0.802479" ry="0.772091" fill="#C06520"/>
<ellipse cx="68.6028" cy="160.489" rx="0.802479" ry="0.772091" fill="#C06520"/>
<ellipse cx="72.6335" cy="160.489" rx="0.802479" ry="0.772091" fill="#C06520"/>
<ellipse cx="76.6642" cy="160.489" rx="0.802479" ry="0.772091" fill="#C06520"/>
<ellipse cx="80.6949" cy="160.489" rx="0.802479" ry="0.772091" fill="#C06520"/>
<ellipse cx="84.7184" cy="160.489" rx="0.802479" ry="0.772091" fill="#C06520"/>
<ellipse cx="88.7491" cy="160.489" rx="0.802479" ry="0.772091" fill="#C06520"/>
<ellipse cx="92.7798" cy="160.489" rx="0.802479" ry="0.772091" fill="#C06520"/>
<ellipse cx="96.8105" cy="160.489" rx="0.802479" ry="0.772091" fill="#C06520"/>
<ellipse cx="62.6667" cy="142.199" rx="0.802479" ry="0.772091" fill="#C06520"/>
<ellipse cx="66.6974" cy="142.199" rx="0.802479" ry="0.772091" fill="#C06520"/>
<ellipse cx="70.7281" cy="142.199" rx="0.802479" ry="0.772091" fill="#C06520"/>
<ellipse cx="74.7588" cy="142.199" rx="0.802479" ry="0.772091" fill="#C06520"/>
<ellipse cx="78.7895" cy="142.199" rx="0.802479" ry="0.772091" fill="#C06520"/>
<ellipse cx="82.8202" cy="142.199" rx="0.802479" ry="0.772091" fill="#C06520"/>
<ellipse cx="86.8509" cy="142.199" rx="0.802479" ry="0.772091" fill="#C06520"/>
<ellipse cx="90.8817" cy="142.199" rx="0.802479" ry="0.772091" fill="#C06520"/>
<ellipse cx="94.9124" cy="142.199" rx="0.802479" ry="0.772091" fill="#C06520"/>
<path d="M252.044 381.97V334.805" stroke="#C06520" stroke-width="2.19" stroke-miterlimit="10" stroke-linecap="round"/>
<path d="M250.755 344.007L247.962 338.169" stroke="#C06520" stroke-width="2.19" stroke-miterlimit="10" stroke-linecap="round"/>
<path d="M250.293 347.194L245.844 342.35" stroke="#C06520" stroke-width="2.19" stroke-miterlimit="10" stroke-linecap="round"/>
<path d="M251.07 352.461L245.456 347.561" stroke="#C06520" stroke-width="2.19" stroke-miterlimit="10" stroke-linecap="round"/>
<path d="M253.342 344.007L256.134 338.169" stroke="#C06520" stroke-width="2.19" stroke-miterlimit="10" stroke-linecap="round"/>
<path d="M253.796 347.194L258.252 342.35" stroke="#C06520" stroke-width="2.19" stroke-miterlimit="10" stroke-linecap="round"/>
<path d="M253.019 352.461L258.633 347.561" stroke="#C06520" stroke-width="2.19" stroke-miterlimit="10" stroke-linecap="round"/>
<path d="M252.404 341.01H251.693C249.632 341.01 247.962 342.617 247.962 344.599V349.084C247.962 351.066 249.632 352.673 251.693 352.673H252.404C254.464 352.673 256.134 351.066 256.134 349.084V344.599C256.134 342.617 254.464 341.01 252.404 341.01Z" fill="black" stroke="#C06520" stroke-width="2.19" stroke-miterlimit="10" stroke-linecap="round"/>
<path d="M247.962 346.489L253.972 352.271" stroke="#C06520" stroke-width="2.19" stroke-miterlimit="10" stroke-linecap="round"/>
<path d="M251.458 349.38L256.009 345.001" stroke="#C06520" stroke-width="2.19" stroke-miterlimit="10" stroke-linecap="round"/>
<path d="M253.921 347.011L248.944 342.223" stroke="#C06520" stroke-width="2.19" stroke-miterlimit="10" stroke-linecap="round"/>
<path d="M231.92 381.97V334.805" stroke="#C06520" stroke-width="2.19" stroke-miterlimit="10" stroke-linecap="round"/>
<path d="M230.63 344.007L227.838 338.169" stroke="#C06520" stroke-width="2.19" stroke-miterlimit="10" stroke-linecap="round"/>
<path d="M230.169 347.194L225.72 342.35" stroke="#C06520" stroke-width="2.19" stroke-miterlimit="10" stroke-linecap="round"/>
<path d="M230.945 352.461L225.332 347.561" stroke="#C06520" stroke-width="2.19" stroke-miterlimit="10" stroke-linecap="round"/>
<path d="M233.217 344.007L236.009 338.169" stroke="#C06520" stroke-width="2.19" stroke-miterlimit="10" stroke-linecap="round"/>
<path d="M233.672 347.194L238.127 342.35" stroke="#C06520" stroke-width="2.19" stroke-miterlimit="10" stroke-linecap="round"/>
<path d="M232.895 352.461L238.516 347.561" stroke="#C06520" stroke-width="2.19" stroke-miterlimit="10" stroke-linecap="round"/>
<path d="M232.279 341.01H231.568C229.508 341.01 227.838 342.617 227.838 344.599V349.084C227.838 351.066 229.508 352.673 231.568 352.673H232.279C234.339 352.673 236.009 351.066 236.009 349.084V344.599C236.009 342.617 234.339 341.01 232.279 341.01Z" fill="black" stroke="#C06520" stroke-width="2.19" stroke-miterlimit="10" stroke-linecap="round"/>
<path d="M227.838 346.489L233.848 352.271" stroke="#C06520" stroke-width="2.19" stroke-miterlimit="10" stroke-linecap="round"/>
<path d="M231.334 349.38L235.885 345.001" stroke="#C06520" stroke-width="2.19" stroke-miterlimit="10" stroke-linecap="round"/>
<path d="M233.796 347.011L228.82 342.223" stroke="#C06520" stroke-width="2.19" stroke-miterlimit="10" stroke-linecap="round"/>
<path d="M273.884 381.97V334.805" stroke="#C06520" stroke-width="2.19" stroke-miterlimit="10" stroke-linecap="round"/>
<path d="M272.586 344.007L269.794 338.169" stroke="#C06520" stroke-width="2.19" stroke-miterlimit="10" stroke-linecap="round"/>
<path d="M272.132 347.194L267.676 342.35" stroke="#C06520" stroke-width="2.19" stroke-miterlimit="10" stroke-linecap="round"/>
<path d="M272.909 352.461L267.295 347.561" stroke="#C06520" stroke-width="2.19" stroke-miterlimit="10" stroke-linecap="round"/>
<path d="M275.173 344.007L277.966 338.169" stroke="#C06520" stroke-width="2.19" stroke-miterlimit="10" stroke-linecap="round"/>
<path d="M275.635 347.194L280.083 342.35" stroke="#C06520" stroke-width="2.19" stroke-miterlimit="10" stroke-linecap="round"/>
<path d="M274.858 352.461L280.472 347.561" stroke="#C06520" stroke-width="2.19" stroke-miterlimit="10" stroke-linecap="round"/>
<path d="M274.235 341.003H273.524C271.464 341.003 269.794 342.61 269.794 344.592V349.077C269.794 351.059 271.464 352.666 273.524 352.666H274.235C276.295 352.666 277.966 351.059 277.966 349.077V344.592C277.966 342.61 276.295 341.003 274.235 341.003Z" fill="black" stroke="#C06520" stroke-width="2.19" stroke-miterlimit="10" stroke-linecap="round"/>
<path d="M269.794 346.489L275.804 352.271" stroke="#C06520" stroke-width="2.19" stroke-miterlimit="10" stroke-linecap="round"/>
<path d="M273.297 349.38L277.841 345.001" stroke="#C06520" stroke-width="2.19" stroke-miterlimit="10" stroke-linecap="round"/>
<path d="M275.76 347.011L270.784 342.223" stroke="#C06520" stroke-width="2.19" stroke-miterlimit="10" stroke-linecap="round"/>
</g>
<defs>
<clipPath id="clip0_462_715">
<path d="M0 0H303V505C303 518.807 291.807 530 278 530H0V0Z" fill="white"/>
</clipPath>
</defs>
</svg>
