<svg width="304" height="520" viewBox="0 0 304 520" fill="none" xmlns="http://www.w3.org/2000/svg">
<path d="M132.845 117.634H162.724" stroke="#C06520" stroke-width="2.19" stroke-linecap="round" stroke-linejoin="round"/>
<path d="M132.933 107.25V139.744C132.933 143.466 136.128 146.489 140.078 146.489H220.502" stroke="#C06520" stroke-width="2.19" stroke-linecap="round" stroke-linejoin="round"/>
<path d="M109.027 374.763V178.651C109.027 176.257 111.079 174.32 113.615 174.32H125.143" stroke="#C06520" stroke-width="2.19" stroke-linecap="round" stroke-linejoin="round"/>
<path d="M193.592 121.909H265.991C272.095 121.909 273.576 119.391 273.576 114.749V80.3458C273.576 80.3458 272.77 73.9189 280.384 73.9189H303" stroke="#C06520" stroke-width="2.19" stroke-linejoin="round"/>
<path d="M192.287 120.678V105.763" stroke="#C06520" stroke-width="2.19" stroke-linejoin="round"/>
<path d="M192.287 99.0522V32.0027" stroke="#C06520" stroke-width="2.19" stroke-linejoin="round"/>
<path d="M235.005 121.909V198.686" stroke="#C06520" stroke-width="2.19" stroke-linecap="round" stroke-linejoin="round"/>
<path d="M235.775 146.489H272.081C272.997 146.489 273.744 147.195 273.744 148.059V174.002C273.744 174.867 274.492 175.572 275.408 175.572H291.853" stroke="#C06520" stroke-width="2.19" stroke-linecap="round" stroke-linejoin="round"/>
<path d="M302.267 271.726H158.363C155.849 271.726 153.805 269.803 153.805 267.423V210.84C153.805 208.468 155.842 206.537 158.363 206.537L189.348 206.067C191.862 206.067 193.592 204.635 193.592 202.255V172.003C193.592 170.01 191.877 168.392 189.766 168.392H114.392C111.431 168.392 109.027 166.122 109.027 163.328V117.925" stroke="#C06520" stroke-width="2.19" stroke-linecap="round" stroke-linejoin="round"/>
<path d="M193.526 197.42V225.618C193.526 230.37 195.475 231.463 199.726 231.463H222.745C228.146 231.463 232.528 235.593 232.528 240.699V271.062" stroke="#C06520" stroke-width="2.19" stroke-linecap="round" stroke-linejoin="round"/>
<path d="M206.16 198.686H302.267" stroke="#C06520" stroke-width="2.19" stroke-linecap="round" stroke-linejoin="round"/>
<path d="M132.933 171.304V263.528" stroke="#C06520" stroke-width="2.19" stroke-linecap="round" stroke-linejoin="round"/>
<path d="M166.205 271.726V206.392" stroke="#C06520" stroke-width="2.19" stroke-linecap="round" stroke-linejoin="round"/>
<path d="M205.637 231.864V374.793" stroke="#C06520" stroke-width="2.19" stroke-linecap="round" stroke-linejoin="round"/>
<path d="M173.138 155.399V146.489" stroke="#C06520" stroke-width="2.19" stroke-linecap="round" stroke-linejoin="round"/>
<path d="M173.138 163.597V180.457C173.138 183.155 170.822 185.348 167.956 185.348H133.197" stroke="#C06520" stroke-width="2.19" stroke-linecap="round" stroke-linejoin="round"/>
<path d="M303 117.599H290.241C284.378 117.599 282.722 114.023 282.722 110.501V99.6195C282.722 93.1234 276.72 93.9536 276.72 93.9536H192.243" stroke="#C06520" stroke-width="2.19" stroke-linejoin="round"/>
<path d="M163.471 107.25C163.552 125.334 163.449 146.434 163.449 146.434" stroke="#C06520" stroke-width="2.19" stroke-linecap="round" stroke-linejoin="round"/>
<path d="M164.116 133.981H234.595" stroke="#C06520" stroke-width="2.19" stroke-linecap="round" stroke-linejoin="round"/>
<path d="M192.287 124.185V146.247" stroke="#C06520" stroke-width="2.19" stroke-linejoin="round"/>
<path d="M245.024 121.806V130.612C245.024 133.041 247.105 135.005 249.677 135.005H271.839C273.004 135.005 274.125 135.386 275.02 136.091L286.745 145.258C287.639 145.956 288.768 146.344 289.926 146.344H291.846" stroke="#C06520" stroke-width="2.19" stroke-linecap="round" stroke-linejoin="round"/>
<path d="M235.306 158.831H253.092C256.068 158.831 258.479 156.555 258.479 153.746V108.184C258.479 105.396 256.104 103.134 253.158 103.099L216.677 103.072C213.928 103.072 211.693 105.175 211.693 107.769V121.909" stroke="#C06520" stroke-width="2.19" stroke-linecap="round" stroke-linejoin="round"/>
<path d="M206.16 198.679V134.479" stroke="#C06520" stroke-width="2.19" stroke-linecap="round" stroke-linejoin="round"/>
<path d="M143.538 117.724V128.98C143.538 130.813 141.962 132.3 140.02 132.3H133.38" stroke="#C06520" stroke-width="2.19" stroke-linecap="round" stroke-linejoin="round"/>
<path d="M177.278 160.325C177.19 160.407 205.896 160.325 205.896 160.325" stroke="#C06520" stroke-width="2.19" stroke-linecap="round" stroke-linejoin="round"/>
<path d="M231.063 184.995H206.38" stroke="#C06520" stroke-width="2.19" stroke-linecap="round" stroke-linejoin="round"/>
<path d="M238.501 184.995H279.38C279.38 184.995 285.499 184.089 285.499 190.771V198.693" stroke="#C06520" stroke-width="2.19" stroke-linecap="round" stroke-linejoin="round"/>
<path d="M217.908 199.267C218.04 199.64 217.908 231.463 217.908 231.463" stroke="#C06520" stroke-width="2.19" stroke-linecap="round" stroke-linejoin="round"/>
<path d="M218.172 209.395H233.093C246.291 209.395 256.991 219.495 256.991 231.954V271.055" stroke="#C06520" stroke-width="2.19" stroke-linecap="round" stroke-linejoin="round"/>
<path d="M143.625 211.235H154.047" stroke="#C06520" stroke-width="2.19" stroke-linejoin="round"/>
<path d="M143.625 225.576H154.047" stroke="#C06520" stroke-width="2.19" stroke-linejoin="round"/>
<path d="M143.625 239.917H154.047" stroke="#C06520" stroke-width="2.19" stroke-linejoin="round"/>
<path d="M78.9361 168.122V215.621" stroke="#C06520" stroke-width="2.19" stroke-linecap="round" stroke-linejoin="round"/>
<path d="M173.138 180.457V181.031C173.138 183.369 175.146 185.265 177.623 185.265H193.262" stroke="#C06520" stroke-width="2.19" stroke-linecap="round" stroke-linejoin="round"/>
<path d="M169.012 237.205H154.047" stroke="#C06520" stroke-width="2.19" stroke-linecap="round" stroke-linejoin="round"/>
<path d="M109.174 225.86H112.574C117.03 225.86 120.636 222.449 120.614 218.243V194.002" stroke="#C06520" stroke-width="2.19" stroke-linecap="round" stroke-linejoin="round"/>
<path d="M120.878 263.715C120.995 263.39 120.958 251.961 120.922 243.985C120.9 239.779 124.505 236.368 128.961 236.368H132.361" stroke="#C06520" stroke-width="2.19" stroke-linejoin="round"/>
<path d="M109.027 232.031H132.317" stroke="#C06520" stroke-width="2.19" stroke-linecap="round" stroke-linejoin="round"/>
<path d="M109.533 246.71H120.834" stroke="#C06520" stroke-width="2.19" stroke-linecap="round" stroke-linejoin="round"/>
<path d="M108.47 215.905H30.78" stroke="#C06520" stroke-width="2.19" stroke-linecap="round" stroke-linejoin="round"/>
<path d="M78.9434 193.179H5.02008" stroke="#C06520" stroke-width="2.19" stroke-linecap="round" stroke-linejoin="round"/>
<path d="M108.47 225.86H55.9243C53.5206 225.86 51.5712 227.7 51.5712 229.969V242.601" stroke="#C06520" stroke-width="2.19" stroke-linecap="round" stroke-linejoin="round"/>
<path d="M110.061 225.777H94.9417C93.051 225.777 91.512 227.222 91.512 229.014V374.756L302.604 375.213" stroke="#C06520" stroke-width="2.19" stroke-linecap="round" stroke-linejoin="round"/>
<path d="M109.841 193.179H132.625" stroke="#C06520" stroke-width="2.19" stroke-linecap="round" stroke-linejoin="round"/>
<path d="M109.841 185.548H132.625" stroke="#C06520" stroke-width="2.19" stroke-linecap="round" stroke-linejoin="round"/>
<path d="M143.266 185.507L143.252 374.763" stroke="#C06520" stroke-width="2.19" stroke-linecap="round" stroke-linejoin="round"/>
<path d="M30.824 219.419C32.8801 219.419 34.5469 217.845 34.5469 215.904C34.5469 213.964 32.8801 212.39 30.824 212.39C28.7679 212.39 27.1011 213.964 27.1011 215.904C27.1011 217.845 28.7679 219.419 30.824 219.419Z" fill="black" stroke="#C06520" stroke-width="2.19" stroke-miterlimit="10"/>
<path d="M1.29718 193.179C1.29718 195.116 2.96077 196.693 5.0201 196.693C7.07943 196.693 8.74301 195.123 8.74301 193.179C8.74301 191.235 7.07943 189.665 5.0201 189.665C2.96077 189.665 1.29718 191.235 1.29718 193.179Z" fill="black" stroke="#C06520" stroke-width="2.19" stroke-miterlimit="10"/>
<path d="M192.287 125.195C194.343 125.195 196.01 123.622 196.01 121.681C196.01 119.74 194.343 118.167 192.287 118.167C190.231 118.167 188.564 119.74 188.564 121.681C188.564 123.622 190.231 125.195 192.287 125.195Z" fill="black" stroke="#C06520" stroke-width="2.19" stroke-miterlimit="10"/>
<path d="M245.024 125.424C247.08 125.424 248.747 123.85 248.747 121.909C248.747 119.968 247.08 118.395 245.024 118.395C242.968 118.395 241.301 119.968 241.301 121.909C241.301 123.85 242.968 125.424 245.024 125.424Z" fill="black" stroke="#C06520" stroke-width="2.19" stroke-miterlimit="10"/>
<path d="M234.786 188.509C236.842 188.509 238.509 186.936 238.509 184.995C238.509 183.054 236.842 181.48 234.786 181.48C232.729 181.48 231.063 183.054 231.063 184.995C231.063 186.936 232.729 188.509 234.786 188.509Z" fill="black" stroke="#C06520" stroke-width="2.19" stroke-miterlimit="10"/>
<path d="M166.205 242.67C169.402 242.67 171.994 240.224 171.994 237.205C171.994 234.187 169.402 231.74 166.205 231.74C163.007 231.74 160.415 234.187 160.415 237.205C160.415 240.224 163.007 242.67 166.205 242.67Z" fill="black" stroke="#C06520" stroke-width="2.19" stroke-miterlimit="10"/>
<path d="M173.497 153.905H172.786C170.726 153.905 169.056 155.482 169.056 157.427V161.826C169.056 163.771 170.726 165.348 172.786 165.348H173.497C175.557 165.348 177.227 163.771 177.227 161.826V157.427C177.227 155.482 175.557 153.905 173.497 153.905Z" fill="black" stroke="#C06520" stroke-width="2.19" stroke-miterlimit="10"/>
<path d="M101.01 220.692H100.299C98.2387 220.692 96.5687 222.268 96.5687 224.213V228.613C96.5687 230.558 98.2387 232.134 100.299 232.134H101.01C103.07 232.134 104.74 230.558 104.74 228.613V224.213C104.74 222.268 103.07 220.692 101.01 220.692Z" fill="black" stroke="#C06520" stroke-width="2.19" stroke-miterlimit="10"/>
<path d="M133.651 163.494H132.207C128.039 163.494 124.659 166.684 124.659 170.619V171.982C124.659 175.917 128.039 179.108 132.207 179.108H133.651C137.82 179.108 141.2 175.917 141.2 171.982V170.619C141.2 166.684 137.82 163.494 133.651 163.494Z" fill="black" stroke="#C06520" stroke-width="2.19" stroke-miterlimit="10"/>
<path d="M133.373 166.517H132.493C129.935 166.517 127.862 168.474 127.862 170.889V171.719C127.862 174.134 129.935 176.091 132.493 176.091H133.373C135.931 176.091 138.004 174.134 138.004 171.719V170.889C138.004 168.474 135.931 166.517 133.373 166.517Z" fill="black" stroke="#C06520" stroke-width="2.19" stroke-miterlimit="10"/>
<path d="M303.015 124.372L291.853 124.414H288.46C286.086 124.414 284.158 126.233 284.158 128.475V167.229C284.158 169.471 282.231 171.29 279.856 171.29H205.896" stroke="#C06520" stroke-width="2.19" stroke-linejoin="round"/>
<path d="M100.651 215.905V220.692" stroke="#C06520" stroke-width="2.19" stroke-linecap="round" stroke-linejoin="round"/>
<path d="M54.466 245.341H48.6764C49.2993 247.119 49.2993 249.035 48.6764 250.806H54.466C53.843 249.028 53.843 247.112 54.466 245.341Z" fill="black" stroke="#C06520" stroke-width="2.19" stroke-linecap="round" stroke-linejoin="round"/>
<path d="M54.466 242.608H48.6764" stroke="#C06520" stroke-width="2.19" stroke-linecap="round" stroke-linejoin="round"/>
<path d="M87.723 225.86H35.1771C32.7734 225.86 30.824 227.7 30.824 229.969V242.601" stroke="#C06520" stroke-width="2.19" stroke-linecap="round" stroke-linejoin="round"/>
<path d="M96.5687 225.86H76.5617C74.1579 225.86 72.2085 227.7 72.2085 229.969V242.601" stroke="#C06520" stroke-width="2.19" stroke-linecap="round" stroke-linejoin="round"/>
<path d="M33.7188 245.341H27.9292C28.5521 247.119 28.5521 249.035 27.9292 250.806H33.7188C33.0958 249.028 33.0958 247.112 33.7188 245.341Z" fill="black" stroke="#C06520" stroke-width="2.19" stroke-linecap="round" stroke-linejoin="round"/>
<path d="M33.7188 242.608H27.9292" stroke="#C06520" stroke-width="2.19" stroke-linecap="round" stroke-linejoin="round"/>
<path d="M75.0739 245.341H69.2844C69.9073 247.119 69.9073 249.035 69.2844 250.806H75.0739C74.451 249.028 74.451 247.112 75.0739 245.341Z" fill="black" stroke="#C06520" stroke-width="2.19" stroke-linecap="round" stroke-linejoin="round"/>
<path d="M75.0739 242.608H69.2844" stroke="#C06520" stroke-width="2.19" stroke-linecap="round" stroke-linejoin="round"/>
<path d="M248.629 144.137L234.925 140.187C234.925 140.187 222.136 143.507 221.382 144.137H248.629Z" fill="black" stroke="#C06520" stroke-width="2.19" stroke-linecap="round" stroke-linejoin="round"/>
<path d="M248.629 144.137H221.382V167.617H248.629V144.137Z" fill="black" stroke="#C06520" stroke-width="2.19" stroke-linecap="round" stroke-linejoin="round"/>
<path d="M132.625 103.155H112.604C110.632 103.155 109.035 101.646 109.035 99.7855V23.2722H122.915" stroke="#C06520" stroke-width="2.19" stroke-linecap="round" stroke-linejoin="round"/>
<path d="M72.1791 168.06L78.8115 174.32H79.0607L85.693 168.06" stroke="#C06520" stroke-width="2.19" stroke-miterlimit="10" stroke-linecap="round"/>
<path d="M78.9361 122.497C78.9361 122.497 70.2371 134.542 62.3442 134.542H95.528C85.693 132.369 78.9361 122.497 78.9361 122.497Z" fill="black" stroke="#C06520" stroke-width="2.19" stroke-linecap="round" stroke-linejoin="round"/>
<path d="M78.9361 168.122C86.1987 168.122 92.7285 166.219 97.3308 163.203H60.5414C65.1437 166.226 71.6735 168.122 78.9361 168.122Z" fill="black" stroke="#C06520" stroke-width="2.19" stroke-linecap="round" stroke-linejoin="round"/>
<path d="M104.154 149.249C104.154 144.6 100.805 140.436 95.528 137.593H62.3442C57.0676 140.436 53.7184 144.594 53.7184 149.249C53.7184 153.345 56.3201 157.06 60.5413 159.834H97.3308C101.552 157.06 104.154 153.345 104.154 149.249Z" fill="black" stroke="#C06520" stroke-width="2.19" stroke-miterlimit="10"/>
<path d="M78.9434 147.859C80.9995 147.859 82.6664 146.629 82.6664 145.112C82.6664 143.596 80.9995 142.366 78.9434 142.366C76.8873 142.366 75.2205 143.596 75.2205 145.112C75.2205 146.629 76.8873 147.859 78.9434 147.859Z" fill="black" stroke="#C06520" stroke-width="1.94" stroke-miterlimit="10"/>
<path d="M78.9361 122.497V93.746C78.9361 89.3876 82.681 85.8525 87.298 85.8525H109.027" stroke="#C06520" stroke-width="2.19" stroke-linecap="round" stroke-linejoin="round"/>
<path d="M109.027 121.446C111.083 121.446 112.75 119.873 112.75 117.932C112.75 115.991 111.083 114.417 109.027 114.417C106.971 114.417 105.304 115.991 105.304 117.932C105.304 119.873 106.971 121.446 109.027 121.446Z" fill="black" stroke="#C06520" stroke-width="2.19" stroke-miterlimit="10"/>
<path d="M109.027 89.3671C111.083 89.3671 112.75 87.7937 112.75 85.8527C112.75 83.9118 111.083 82.3384 109.027 82.3384C106.971 82.3384 105.304 83.9118 105.304 85.8527C105.304 87.7937 106.971 89.3671 109.027 89.3671Z" fill="black" stroke="#C06520" stroke-width="2.19" stroke-miterlimit="10"/>
<path d="M143.054 1.27295H122.93V32.0097H143.054V1.27295Z" fill="black" stroke="#C06520" stroke-width="2.19" stroke-linecap="round" stroke-linejoin="round"/>
<path d="M122.908 7.60986H142.959" stroke="#C06520" stroke-width="2.19" stroke-linecap="round" stroke-linejoin="round"/>
<path d="M125.604 12.1064H125.319" stroke="#C06520" stroke-width="2.84" stroke-miterlimit="10" stroke-linecap="round"/>
<path d="M133.036 12.1064H132.757" stroke="#C06520" stroke-width="2.84" stroke-miterlimit="10" stroke-linecap="round"/>
<path d="M125.604 20.0969H125.319" stroke="#C06520" stroke-width="2.84" stroke-miterlimit="10" stroke-linecap="round"/>
<path d="M133.036 20.0969H132.757" stroke="#C06520" stroke-width="2.84" stroke-miterlimit="10" stroke-linecap="round"/>
<path d="M125.604 28.094H125.319" stroke="#C06520" stroke-width="2.84" stroke-miterlimit="10" stroke-linecap="round"/>
<path d="M140.166 12.1064H139.888" stroke="#C06520" stroke-width="2.84" stroke-miterlimit="10" stroke-linecap="round"/>
<path d="M140.166 20.0969H139.888" stroke="#C06520" stroke-width="2.84" stroke-miterlimit="10" stroke-linecap="round"/>
<path d="M140.166 28.094H139.888" stroke="#C06520" stroke-width="2.84" stroke-miterlimit="10" stroke-linecap="round"/>
<path d="M133.036 28.094H132.757" stroke="#C06520" stroke-width="2.84" stroke-miterlimit="10" stroke-linecap="round"/>
<path d="M129.305 16.0222H129.027" stroke="#C06520" stroke-width="2.84" stroke-miterlimit="10" stroke-linecap="round"/>
<path d="M136.744 16.0222H136.458" stroke="#C06520" stroke-width="2.84" stroke-miterlimit="10" stroke-linecap="round"/>
<path d="M129.305 24.0125H129.027" stroke="#C06520" stroke-width="2.84" stroke-miterlimit="10" stroke-linecap="round"/>
<path d="M136.744 24.0125H136.458" stroke="#C06520" stroke-width="2.84" stroke-miterlimit="10" stroke-linecap="round"/>
<path d="M172.801 1.27295H152.676V32.0097H172.801V1.27295Z" fill="black" stroke="#C06520" stroke-width="2.19" stroke-linecap="round" stroke-linejoin="round"/>
<path d="M152.654 7.60986H172.698" stroke="#C06520" stroke-width="2.19" stroke-linecap="round" stroke-linejoin="round"/>
<path d="M155.344 12.1064H155.065" stroke="#C06520" stroke-width="2.84" stroke-miterlimit="10" stroke-linecap="round"/>
<path d="M162.782 12.1064H162.497" stroke="#C06520" stroke-width="2.84" stroke-miterlimit="10" stroke-linecap="round"/>
<path d="M155.344 20.0969H155.065" stroke="#C06520" stroke-width="2.84" stroke-miterlimit="10" stroke-linecap="round"/>
<path d="M162.782 20.0969H162.497" stroke="#C06520" stroke-width="2.84" stroke-miterlimit="10" stroke-linecap="round"/>
<path d="M155.344 28.094H155.065" stroke="#C06520" stroke-width="2.84" stroke-miterlimit="10" stroke-linecap="round"/>
<path d="M169.913 12.1064H169.627" stroke="#C06520" stroke-width="2.84" stroke-miterlimit="10" stroke-linecap="round"/>
<path d="M169.913 20.0969H169.627" stroke="#C06520" stroke-width="2.84" stroke-miterlimit="10" stroke-linecap="round"/>
<path d="M169.913 28.094H169.627" stroke="#C06520" stroke-width="2.84" stroke-miterlimit="10" stroke-linecap="round"/>
<path d="M162.782 28.094H162.497" stroke="#C06520" stroke-width="2.84" stroke-miterlimit="10" stroke-linecap="round"/>
<path d="M159.052 16.0222H158.766" stroke="#C06520" stroke-width="2.84" stroke-miterlimit="10" stroke-linecap="round"/>
<path d="M166.483 16.0222H166.205" stroke="#C06520" stroke-width="2.84" stroke-miterlimit="10" stroke-linecap="round"/>
<path d="M159.052 24.0125H158.766" stroke="#C06520" stroke-width="2.84" stroke-miterlimit="10" stroke-linecap="round"/>
<path d="M166.483 24.0125H166.205" stroke="#C06520" stroke-width="2.84" stroke-miterlimit="10" stroke-linecap="round"/>
<path d="M202.54 1.27295H182.416V32.0097H202.54V1.27295Z" fill="black" stroke="#C06520" stroke-width="2.19" stroke-linecap="round" stroke-linejoin="round"/>
<path d="M182.401 7.60986H202.445" stroke="#C06520" stroke-width="2.19" stroke-linecap="round" stroke-linejoin="round"/>
<path d="M185.091 12.1064H184.812" stroke="#C06520" stroke-width="2.84" stroke-miterlimit="10" stroke-linecap="round"/>
<path d="M192.529 12.1064H192.243" stroke="#C06520" stroke-width="2.84" stroke-miterlimit="10" stroke-linecap="round"/>
<path d="M185.091 20.0969H184.812" stroke="#C06520" stroke-width="2.84" stroke-miterlimit="10" stroke-linecap="round"/>
<path d="M192.529 20.0969H192.243" stroke="#C06520" stroke-width="2.84" stroke-miterlimit="10" stroke-linecap="round"/>
<path d="M185.091 28.094H184.812" stroke="#C06520" stroke-width="2.84" stroke-miterlimit="10" stroke-linecap="round"/>
<path d="M199.652 12.1064H199.374" stroke="#C06520" stroke-width="2.84" stroke-miterlimit="10" stroke-linecap="round"/>
<path d="M199.652 20.0969H199.374" stroke="#C06520" stroke-width="2.84" stroke-miterlimit="10" stroke-linecap="round"/>
<path d="M199.652 28.094H199.374" stroke="#C06520" stroke-width="2.84" stroke-miterlimit="10" stroke-linecap="round"/>
<path d="M192.529 28.094H192.243" stroke="#C06520" stroke-width="2.84" stroke-miterlimit="10" stroke-linecap="round"/>
<path d="M188.791 16.0222H188.513" stroke="#C06520" stroke-width="2.84" stroke-miterlimit="10" stroke-linecap="round"/>
<path d="M196.23 16.0222H195.944" stroke="#C06520" stroke-width="2.84" stroke-miterlimit="10" stroke-linecap="round"/>
<path d="M188.791 24.0125H188.513" stroke="#C06520" stroke-width="2.84" stroke-miterlimit="10" stroke-linecap="round"/>
<path d="M196.23 24.0125H195.944" stroke="#C06520" stroke-width="2.84" stroke-miterlimit="10" stroke-linecap="round"/>
<path d="M166.344 101.785H160.554C161.177 103.563 161.177 105.479 160.554 107.25H166.344C165.721 105.472 165.721 103.556 166.344 101.785Z" fill="black" stroke="#C06520" stroke-width="2.19" stroke-linecap="round" stroke-linejoin="round"/>
<path d="M166.344 99.0522H160.554" stroke="#C06520" stroke-width="2.19" stroke-linecap="round" stroke-linejoin="round"/>
<path d="M135.52 101.785H129.73C130.353 103.563 130.353 105.479 129.73 107.25H135.52C134.897 105.472 134.897 103.556 135.52 101.785Z" fill="black" stroke="#C06520" stroke-width="2.19" stroke-linecap="round" stroke-linejoin="round"/>
<path d="M135.52 99.0522H129.73" stroke="#C06520" stroke-width="2.19" stroke-linecap="round" stroke-linejoin="round"/>
<path d="M195.138 101.785H189.348C189.971 103.563 189.971 105.479 189.348 107.25H195.138C194.515 105.472 194.515 103.556 195.138 101.785Z" fill="black" stroke="#C06520" stroke-width="2.19" stroke-linecap="round" stroke-linejoin="round"/>
<path d="M195.138 99.0522H189.348" stroke="#C06520" stroke-width="2.19" stroke-linecap="round" stroke-linejoin="round"/>
<path d="M163.449 99.0522V32.0027" stroke="#C06520" stroke-width="2.19" stroke-linecap="round" stroke-linejoin="round"/>
<path d="M132.757 99.0522V32.0027" stroke="#C06520" stroke-width="2.19" stroke-linecap="round" stroke-linejoin="round"/>
<ellipse cx="60.5414" cy="157.461" rx="0.802479" ry="0.757523" fill="#C06520"/>
<ellipse cx="64.5721" cy="157.461" rx="0.802479" ry="0.757523" fill="#C06520"/>
<ellipse cx="68.6028" cy="157.461" rx="0.802479" ry="0.757523" fill="#C06520"/>
<ellipse cx="72.6335" cy="157.461" rx="0.802479" ry="0.757523" fill="#C06520"/>
<ellipse cx="76.6642" cy="157.461" rx="0.802479" ry="0.757523" fill="#C06520"/>
<ellipse cx="80.6949" cy="157.461" rx="0.802479" ry="0.757523" fill="#C06520"/>
<ellipse cx="84.7184" cy="157.461" rx="0.802479" ry="0.757523" fill="#C06520"/>
<ellipse cx="88.7491" cy="157.461" rx="0.802479" ry="0.757523" fill="#C06520"/>
<ellipse cx="92.7798" cy="157.461" rx="0.802479" ry="0.757523" fill="#C06520"/>
<ellipse cx="96.8105" cy="157.461" rx="0.802479" ry="0.757523" fill="#C06520"/>
<ellipse cx="62.6667" cy="139.516" rx="0.802479" ry="0.757523" fill="#C06520"/>
<ellipse cx="66.6974" cy="139.516" rx="0.802479" ry="0.757523" fill="#C06520"/>
<ellipse cx="70.7281" cy="139.516" rx="0.802479" ry="0.757523" fill="#C06520"/>
<ellipse cx="74.7588" cy="139.516" rx="0.802479" ry="0.757523" fill="#C06520"/>
<ellipse cx="78.7895" cy="139.516" rx="0.802479" ry="0.757523" fill="#C06520"/>
<ellipse cx="82.8202" cy="139.516" rx="0.802479" ry="0.757523" fill="#C06520"/>
<ellipse cx="86.8509" cy="139.516" rx="0.802479" ry="0.757523" fill="#C06520"/>
<ellipse cx="90.8817" cy="139.516" rx="0.802479" ry="0.757523" fill="#C06520"/>
<ellipse cx="94.9124" cy="139.516" rx="0.802479" ry="0.757523" fill="#C06520"/>
<path d="M252.044 374.763V328.488" stroke="#C06520" stroke-width="2.19" stroke-miterlimit="10" stroke-linecap="round"/>
<path d="M250.755 337.516L247.962 331.788" stroke="#C06520" stroke-width="2.19" stroke-miterlimit="10" stroke-linecap="round"/>
<path d="M250.293 340.643L245.844 335.891" stroke="#C06520" stroke-width="2.19" stroke-miterlimit="10" stroke-linecap="round"/>
<path d="M251.07 345.811L245.456 341.003" stroke="#C06520" stroke-width="2.19" stroke-miterlimit="10" stroke-linecap="round"/>
<path d="M253.342 337.516L256.134 331.788" stroke="#C06520" stroke-width="2.19" stroke-miterlimit="10" stroke-linecap="round"/>
<path d="M253.796 340.643L258.252 335.891" stroke="#C06520" stroke-width="2.19" stroke-miterlimit="10" stroke-linecap="round"/>
<path d="M253.019 345.811L258.633 341.003" stroke="#C06520" stroke-width="2.19" stroke-miterlimit="10" stroke-linecap="round"/>
<path d="M252.404 334.576H251.693C249.632 334.576 247.962 336.153 247.962 338.098V342.497C247.962 344.442 249.632 346.019 251.693 346.019H252.404C254.464 346.019 256.134 344.442 256.134 342.497V338.098C256.134 336.153 254.464 334.576 252.404 334.576Z" fill="black" stroke="#C06520" stroke-width="2.19" stroke-miterlimit="10" stroke-linecap="round"/>
<path d="M247.962 339.952L253.972 345.624" stroke="#C06520" stroke-width="2.19" stroke-miterlimit="10" stroke-linecap="round"/>
<path d="M251.458 342.788L256.009 338.492" stroke="#C06520" stroke-width="2.19" stroke-miterlimit="10" stroke-linecap="round"/>
<path d="M253.921 340.463L248.944 335.766" stroke="#C06520" stroke-width="2.19" stroke-miterlimit="10" stroke-linecap="round"/>
<path d="M231.92 374.763V328.488" stroke="#C06520" stroke-width="2.19" stroke-miterlimit="10" stroke-linecap="round"/>
<path d="M230.63 337.516L227.838 331.788" stroke="#C06520" stroke-width="2.19" stroke-miterlimit="10" stroke-linecap="round"/>
<path d="M230.169 340.643L225.72 335.891" stroke="#C06520" stroke-width="2.19" stroke-miterlimit="10" stroke-linecap="round"/>
<path d="M230.945 345.811L225.332 341.003" stroke="#C06520" stroke-width="2.19" stroke-miterlimit="10" stroke-linecap="round"/>
<path d="M233.217 337.516L236.009 331.788" stroke="#C06520" stroke-width="2.19" stroke-miterlimit="10" stroke-linecap="round"/>
<path d="M233.672 340.643L238.127 335.891" stroke="#C06520" stroke-width="2.19" stroke-miterlimit="10" stroke-linecap="round"/>
<path d="M232.895 345.811L238.516 341.003" stroke="#C06520" stroke-width="2.19" stroke-miterlimit="10" stroke-linecap="round"/>
<path d="M232.279 334.576H231.568C229.508 334.576 227.838 336.153 227.838 338.098V342.497C227.838 344.442 229.508 346.019 231.568 346.019H232.279C234.339 346.019 236.009 344.442 236.009 342.497V338.098C236.009 336.153 234.339 334.576 232.279 334.576Z" fill="black" stroke="#C06520" stroke-width="2.19" stroke-miterlimit="10" stroke-linecap="round"/>
<path d="M227.838 339.952L233.848 345.624" stroke="#C06520" stroke-width="2.19" stroke-miterlimit="10" stroke-linecap="round"/>
<path d="M231.334 342.788L235.885 338.492" stroke="#C06520" stroke-width="2.19" stroke-miterlimit="10" stroke-linecap="round"/>
<path d="M233.796 340.463L228.82 335.766" stroke="#C06520" stroke-width="2.19" stroke-miterlimit="10" stroke-linecap="round"/>
<path d="M273.884 374.763V328.488" stroke="#C06520" stroke-width="2.19" stroke-miterlimit="10" stroke-linecap="round"/>
<path d="M272.586 337.516L269.794 331.788" stroke="#C06520" stroke-width="2.19" stroke-miterlimit="10" stroke-linecap="round"/>
<path d="M272.132 340.643L267.676 335.891" stroke="#C06520" stroke-width="2.19" stroke-miterlimit="10" stroke-linecap="round"/>
<path d="M272.909 345.811L267.295 341.003" stroke="#C06520" stroke-width="2.19" stroke-miterlimit="10" stroke-linecap="round"/>
<path d="M275.173 337.516L277.966 331.788" stroke="#C06520" stroke-width="2.19" stroke-miterlimit="10" stroke-linecap="round"/>
<path d="M275.635 340.643L280.083 335.891" stroke="#C06520" stroke-width="2.19" stroke-miterlimit="10" stroke-linecap="round"/>
<path d="M274.858 345.811L280.472 341.003" stroke="#C06520" stroke-width="2.19" stroke-miterlimit="10" stroke-linecap="round"/>
<path d="M274.235 334.569H273.524C271.464 334.569 269.794 336.146 269.794 338.091V342.49C269.794 344.435 271.464 346.012 273.524 346.012H274.235C276.295 346.012 277.966 344.435 277.966 342.49V338.091C277.966 336.146 276.295 334.569 274.235 334.569Z" fill="black" stroke="#C06520" stroke-width="2.19" stroke-miterlimit="10" stroke-linecap="round"/>
<path d="M269.794 339.952L275.804 345.624" stroke="#C06520" stroke-width="2.19" stroke-miterlimit="10" stroke-linecap="round"/>
<path d="M273.297 342.788L277.841 338.492" stroke="#C06520" stroke-width="2.19" stroke-miterlimit="10" stroke-linecap="round"/>
<path d="M275.76 340.463L270.784 335.766" stroke="#C06520" stroke-width="2.19" stroke-miterlimit="10" stroke-linecap="round"/>
</svg>
