<svg width="550" height="892" viewBox="0 0 550 892" fill="none" xmlns="http://www.w3.org/2000/svg">
<g clip-path="url(#clip0_220_9007)">
<path d="M458.916 168.499H506.822V192.703" stroke="#C06520" stroke-width="2.19" stroke-linecap="round" stroke-linejoin="round"/>
<path d="M506.822 22.0638V82.5343H548.833" stroke="#C06520" stroke-width="2.19" stroke-linecap="round" stroke-linejoin="round"/>
<path d="M-55.7544 148.376H-15.9573V329.217C-15.9573 335.958 -10.5014 341.429 -3.77874 341.429H89.0015" stroke="#C06520" stroke-width="2.19" stroke-linecap="round" stroke-linejoin="round"/>
<path d="M-15.9471 147.606L-55.7642 107.679V186.202C-55.7642 186.202 312.295 185.232 312.295 186.202C312.295 187.172 312.295 56.1797 312.295 56.1797H431.068V168.499H466.167V195.544" stroke="#C06520" stroke-width="2.19" stroke-linecap="round" stroke-linejoin="round"/>
<path d="M372.299 78.8737V249.113" stroke="#C06520" stroke-width="2.19" stroke-miterlimit="10"/>
<path d="M322.179 219.898L292.655 249.513" stroke="#C06520" stroke-width="2.19" stroke-miterlimit="10"/>
<path d="M435.905 745.949H450.427V603.375" stroke="#C06520" stroke-width="2.19" stroke-linecap="round" stroke-linejoin="round"/>
<path d="M462.995 558.417H451.734C449.041 558.417 446.857 556.226 447.246 553.136V503.737" stroke="#C06520" stroke-width="2.19" stroke-linecap="round" stroke-linejoin="round"/>
<path d="M446.906 537.033H548.933" stroke="#C06520" stroke-width="2.19" stroke-linecap="round" stroke-linejoin="round"/>
<path d="M462.885 584.341H490.095" stroke="#C06520" stroke-width="2.19" stroke-linecap="round" stroke-linejoin="round"/>
<path d="M462.885 725.746H490.095" stroke="#C06520" stroke-width="2.19" stroke-linecap="round" stroke-linejoin="round"/>
<path d="M518.142 537.033V833.075C513.963 837.245 517.334 840.626 521.494 840.626" stroke="#C06520" stroke-width="2.19" stroke-linecap="round" stroke-linejoin="round"/>
<path d="M490.265 599.524V537.033" stroke="#C06520" stroke-width="2.19" stroke-linecap="round" stroke-linejoin="round"/>
<path d="M436.005 738.428C435.775 737.268 436.005 488.865 436.005 488.865" stroke="#C06520" stroke-width="2.19" stroke-linecap="round" stroke-linejoin="round"/>
<path d="M477.238 537.843V559.947C477.238 562.478 475.193 564.528 472.67 564.528H464.042" stroke="#C06520" stroke-width="2.19" stroke-linecap="round" stroke-linejoin="round"/>
<path d="M476.779 725.866V741.409C476.779 743.939 474.734 745.989 472.211 745.989H450.427" stroke="#C06520" stroke-width="2.19" stroke-linecap="round" stroke-linejoin="round"/>
<path d="M435.905 749.58C438.577 749.58 440.742 747.408 440.742 744.729C440.742 742.05 438.577 739.878 435.905 739.878C433.233 739.878 431.067 742.05 431.067 744.729C431.067 747.408 433.233 749.58 435.905 749.58Z" fill="black" stroke="#C06520" stroke-width="2.19" stroke-miterlimit="10"/>
<path d="M462.995 508.098V598.614C462.995 601.144 460.95 603.195 458.427 603.195H436.224" stroke="#C06520" stroke-width="2.19" stroke-linejoin="round"/>
<path d="M450.278 608.275C452.95 608.275 455.115 606.104 455.115 603.425C455.115 600.746 452.95 598.574 450.278 598.574C447.606 598.574 445.44 600.746 445.44 603.425C445.44 606.104 447.606 608.275 450.278 608.275Z" fill="black" stroke="#C06520" stroke-width="2.19" stroke-miterlimit="10"/>
<path d="M494.024 603.765H486.504C487.312 606.215 487.312 608.856 486.504 611.306H494.024C493.217 608.856 493.217 606.215 494.024 603.765Z" fill="black" stroke="#C06520" stroke-width="2.19" stroke-linecap="round" stroke-linejoin="round"/>
<path d="M494.024 599.524H486.504" stroke="#C06520" stroke-width="2.19" stroke-linecap="round" stroke-linejoin="round"/>
<path d="M518.142 842.246C520.814 842.246 522.98 840.074 522.98 837.395C522.98 834.716 520.814 832.544 518.142 832.544C515.47 832.544 513.305 834.716 513.305 837.395C513.305 840.074 515.47 842.246 518.142 842.246Z" fill="black" stroke="#C06520" stroke-width="2.19" stroke-miterlimit="10"/>
<path d="M390.901 287.1H462.995V224.399" stroke="#C06520" stroke-width="2.19" stroke-linecap="round" stroke-linejoin="round"/>
<path d="M462.995 205.966V268.667H391.181V287.46" stroke="#C06520" stroke-width="2.19" stroke-linecap="round" stroke-linejoin="round"/>
<path d="M409.792 307.113H432.125" stroke="#C06520" stroke-width="2.19" stroke-linejoin="round"/>
<path d="M409.792 326.677H432.125" stroke="#C06520" stroke-width="2.19" stroke-linejoin="round"/>
<path d="M409.792 346.25H432.125" stroke="#C06520" stroke-width="2.19" stroke-linejoin="round"/>
<path d="M462.885 240.562H501.755" stroke="#C06520" stroke-width="2.19" stroke-linecap="round" stroke-linejoin="round"/>
<path d="M462.885 287.18H490.095" stroke="#C06520" stroke-width="2.19" stroke-linecap="round" stroke-linejoin="round"/>
<path d="M460.083 369.444C461.748 367.964 463.444 366.464 465.129 364.973C477.817 353.731 490.155 342.899 490.155 342.899L490.274 267.066L477.438 254.194" stroke="#C06520" stroke-width="2.19" stroke-linecap="round" stroke-linejoin="round"/>
<path d="M541.831 393.148V362.243C541.831 359.492 539.607 357.262 536.864 357.262H438.907C435.057 357.262 431.935 354.131 431.935 350.271V287.59" stroke="#C06520" stroke-width="2.19" stroke-linecap="round" stroke-linejoin="round"/>
<path d="M476.979 536.993V405.03C476.979 401.75 479.632 399.089 482.903 399.089H531.298C534.57 399.089 537.223 396.429 537.223 393.148" stroke="#C06520" stroke-width="2.19" stroke-linecap="round" stroke-linejoin="round"/>
<path d="M462.995 399.089H385.196" stroke="#C06520" stroke-width="2.19" stroke-linecap="round" stroke-linejoin="round"/>
<path d="M462.995 361.273V500.887" stroke="#C06520" stroke-width="2.19" stroke-linecap="round" stroke-linejoin="round"/>
<path d="M496.927 399.089V474.322H520.446" stroke="#C06520" stroke-width="2.19" stroke-linecap="round" stroke-linejoin="round"/>
<path d="M515.25 350.641V373.915C515.25 377.646 512.237 380.666 508.517 380.666H463.344" stroke="#C06520" stroke-width="2.19" stroke-linecap="round" stroke-linejoin="round"/>
<path d="M476.779 287.3V302.843C476.779 305.373 474.735 307.423 472.211 307.423H463.583" stroke="#C06520" stroke-width="2.19" stroke-linecap="round" stroke-linejoin="round"/>
<path d="M476.779 240.682V254.844C476.779 257.375 474.735 259.425 472.211 259.425H463.583" stroke="#C06520" stroke-width="2.19" stroke-linecap="round" stroke-linejoin="round"/>
<path d="M463.284 417.562H476.829" stroke="#C06520" stroke-width="2.19" stroke-linecap="round" stroke-linejoin="round"/>
<path d="M463.284 437.356H476.829" stroke="#C06520" stroke-width="2.19" stroke-linecap="round" stroke-linejoin="round"/>
<path d="M463.284 457.159H476.829" stroke="#C06520" stroke-width="2.19" stroke-linecap="round" stroke-linejoin="round"/>
<path d="M463.284 476.963H476.829" stroke="#C06520" stroke-width="2.19" stroke-linecap="round" stroke-linejoin="round"/>
<path d="M449.23 287.3V338.889C449.23 341.099 451.016 342.899 453.23 342.899H490.155L506.522 357.172" stroke="#C06520" stroke-width="2.19" stroke-linecap="round" stroke-linejoin="round"/>
<path d="M409.394 398.849V287.42" stroke="#C06520" stroke-width="2.19" stroke-linecap="round" stroke-linejoin="round"/>
<path d="M421.333 346.81V399.309" stroke="#C06520" stroke-width="2.19" stroke-linejoin="round"/>
<path d="M452.243 365.443H439.945C435.745 365.443 432.344 368.854 432.344 373.065V399.309" stroke="#C06520" stroke-width="2.19" stroke-linecap="round" stroke-linejoin="round"/>
<path d="M515.25 373.905V374.695C515.25 377.926 517.863 380.536 521.075 380.536H541.402" stroke="#C06520" stroke-width="2.19" stroke-linecap="round" stroke-linejoin="round"/>
<path d="M538.879 408.971V474.322H522.98" stroke="#C06520" stroke-width="2.19" stroke-linecap="round" stroke-linejoin="round"/>
<path d="M496.927 445.727H476.979" stroke="#C06520" stroke-width="2.19" stroke-linejoin="round"/>
<path d="M447.046 398.849C446.896 399.299 446.946 415.072 446.986 426.084C447.016 431.885 442.328 436.606 436.543 436.606H422.41" stroke="#C06520" stroke-width="2.19" stroke-linecap="round" stroke-linejoin="round"/>
<path d="M447.335 509.368C447.485 508.918 447.435 472.642 447.395 461.62C447.365 455.819 452.053 451.098 457.838 451.098H462.257" stroke="#C06520" stroke-width="2.19" stroke-linecap="round" stroke-linejoin="round"/>
<path d="M421.343 445.117H462.197" stroke="#C06520" stroke-width="2.19" stroke-linecap="round" stroke-linejoin="round"/>
<path d="M455.305 399.309V444.887" stroke="#C06520" stroke-width="2.19" stroke-linecap="round" stroke-linejoin="round"/>
<path d="M390.183 465.381H447.276" stroke="#C06520" stroke-width="2.19" stroke-linecap="round" stroke-linejoin="round"/>
<path d="M446.587 417.953H384.538" stroke="#C06520" stroke-width="2.19" stroke-linecap="round" stroke-linejoin="round"/>
<path d="M413.792 465.471C417.851 465.471 421.143 462.17 421.143 458.099V417.953" stroke="#C06520" stroke-width="2.19" stroke-linecap="round" stroke-linejoin="round"/>
<path d="M432.982 391.478H462.596" stroke="#C06520" stroke-width="2.19" stroke-linecap="round" stroke-linejoin="round"/>
<path d="M432.982 380.946H462.596" stroke="#C06520" stroke-width="2.19" stroke-linecap="round" stroke-linejoin="round"/>
<path d="M431.935 292.441C434.607 292.441 436.773 290.269 436.773 287.59C436.773 284.911 434.607 282.739 431.935 282.739C429.263 282.739 427.098 284.911 427.098 287.59C427.098 290.269 429.263 292.441 431.935 292.441Z" fill="black" stroke="#C06520" stroke-width="2.19" stroke-miterlimit="10"/>
<path d="M385.196 403.94C387.868 403.94 390.033 401.768 390.033 399.089C390.033 396.41 387.868 394.238 385.196 394.238C382.524 394.238 380.358 396.41 380.358 399.089C380.358 401.768 382.524 403.94 385.196 403.94Z" fill="black" stroke="#C06520" stroke-width="2.19" stroke-miterlimit="10"/>
<path d="M385.196 422.803C387.868 422.803 390.033 420.632 390.033 417.953C390.033 415.273 387.868 413.102 385.196 413.102C382.524 413.102 380.358 415.273 380.358 417.953C380.358 420.632 382.524 422.803 385.196 422.803Z" fill="black" stroke="#C06520" stroke-width="2.19" stroke-miterlimit="10"/>
<path d="M446.906 541.884C449.578 541.884 451.744 539.712 451.744 537.033C451.744 534.354 449.578 532.182 446.906 532.182C444.235 532.182 442.069 534.354 442.069 537.033C442.069 539.712 444.235 541.884 446.906 541.884Z" fill="black" stroke="#C06520" stroke-width="2.19" stroke-miterlimit="10"/>
<path d="M462.885 508.098C465.557 508.098 467.723 505.926 467.723 503.247C467.723 500.568 465.557 498.396 462.885 498.396C460.214 498.396 458.048 500.568 458.048 503.247C458.048 505.926 460.214 508.098 462.885 508.098Z" fill="black" stroke="#C06520" stroke-width="2.19" stroke-miterlimit="10"/>
<path d="M496.927 450.578C499.599 450.578 501.765 448.406 501.765 445.727C501.765 443.048 499.599 440.876 496.927 440.876C494.256 440.876 492.09 443.048 492.09 445.727C492.09 448.406 494.256 450.578 496.927 450.578Z" fill="black" stroke="#C06520" stroke-width="2.19" stroke-miterlimit="10"/>
<path d="M462.995 264.496C465.666 264.496 467.832 262.324 467.832 259.645C467.832 256.966 465.666 254.794 462.995 254.794C460.323 254.794 458.157 256.966 458.157 259.645C458.157 262.324 460.323 264.496 462.995 264.496Z" fill="black" stroke="#C06520" stroke-width="2.19" stroke-miterlimit="10"/>
<path d="M542.31 389.858H541.362C535.688 389.858 531.089 394.47 531.089 400.159V401.11C531.089 406.799 535.688 411.411 541.362 411.411H542.31C547.984 411.411 552.583 406.799 552.583 401.11V400.159C552.583 394.47 547.984 389.858 542.31 389.858Z" fill="black" stroke="#C06520" stroke-width="2.19" stroke-miterlimit="10"/>
<path d="M548.125 402.24C548.125 398.759 545.302 395.929 541.831 395.929C538.36 395.929 535.537 398.759 535.537 402.24" stroke="#C06520" stroke-width="1.99" stroke-miterlimit="10" stroke-linecap="round"/>
<path d="M515.489 337.249H515.02C512.216 337.249 509.943 339.528 509.943 342.339V347.95C509.943 350.762 512.216 353.041 515.02 353.041H515.489C518.293 353.041 520.566 350.762 520.566 347.95V342.339C520.566 339.528 518.293 337.249 515.489 337.249Z" fill="black" stroke="#C06520" stroke-width="2.19" stroke-miterlimit="10"/>
<path d="M518.512 466.291H518.043C515.239 466.291 512.966 468.57 512.966 471.382V476.993C512.966 479.804 515.239 482.084 518.043 482.084H518.512C521.315 482.084 523.588 479.804 523.588 476.993V471.382C523.588 468.57 521.315 466.291 518.512 466.291Z" fill="black" stroke="#C06520" stroke-width="2.19" stroke-miterlimit="10"/>
<path d="M421.273 433.085H420.804C418 433.085 415.727 435.364 415.727 438.176V443.787C415.727 446.599 418 448.878 420.804 448.878H421.273C424.077 448.878 426.35 446.599 426.35 443.787V438.176C426.35 435.364 424.077 433.085 421.273 433.085Z" fill="black" stroke="#C06520" stroke-width="2.19" stroke-miterlimit="10"/>
<path d="M440.364 488.095H415.249C410.9 488.095 407.379 491.625 407.379 495.986V570.199" stroke="#C06520" stroke-width="2.19" stroke-linecap="round" stroke-linejoin="round"/>
<path d="M436.244 480.703H435.775C432.971 480.703 430.698 482.983 430.698 485.794V491.405C430.698 494.217 432.971 496.496 435.775 496.496H436.244C439.048 496.496 441.321 494.217 441.321 491.405V485.794C441.321 482.983 439.048 480.703 436.244 480.703Z" fill="black" stroke="#C06520" stroke-width="2.19" stroke-linecap="round" stroke-linejoin="round"/>
<path d="M463.464 350.491H462.516C456.842 350.491 452.243 355.103 452.243 360.793V361.743C452.243 367.432 456.842 372.045 462.516 372.045H463.464C469.138 372.045 473.737 367.432 473.737 361.743V360.793C473.737 355.103 469.138 350.491 463.464 350.491Z" fill="black" stroke="#C06520" stroke-width="2.19" stroke-miterlimit="10"/>
<path d="M463.284 354.661H462.706C459.224 354.661 456.402 357.492 456.402 360.983V361.563C456.402 365.054 459.224 367.884 462.706 367.884H463.284C466.765 367.884 469.588 365.054 469.588 361.563V360.983C469.588 357.492 466.765 354.661 463.284 354.661Z" fill="black" stroke="#C06520" stroke-width="2.19" stroke-miterlimit="10"/>
<path d="M376.897 4.55078C373.406 0.640106 372.359 6.66115 372.778 9.45163C373.197 12.2421 376.738 37.2865 376.738 37.2865H365.208C365.417 36.6563 368.09 13.4623 368.818 7.82135C370.185 -2.69047 376.897 4.56079 376.897 4.56079V4.55078Z" fill="black" stroke="#C06520" stroke-width="2.19" stroke-miterlimit="10"/>
<path d="M370.484 65.9114C379.579 65.9114 386.951 58.5184 386.951 49.3986C386.951 40.2788 379.579 32.8857 370.484 32.8857C361.389 32.8857 354.017 40.2788 354.017 49.3986C354.017 58.5184 361.389 65.9114 370.484 65.9114Z" fill="black" stroke="#C06520" stroke-width="2.19" stroke-miterlimit="10"/>
<path d="M390.353 45.988H351.164V78.8737H390.353V45.988Z" fill="black" stroke="#C06520" stroke-width="2.19" stroke-miterlimit="10"/>
<path d="M376.947 54.1494H364.579V64.2211H376.947V54.1494Z" fill="black" stroke="#C06520" stroke-width="2.19" stroke-miterlimit="10"/>
<path d="M372.299 2.59045C381.665 2.59045 381.665 21.1337 394.053 21.1337H549.88" stroke="#C06520" stroke-width="2.19" stroke-miterlimit="10"/>
<path d="M387.41 291.241H394.931C394.123 288.79 394.123 286.15 394.931 283.699H387.41C388.218 286.15 388.218 288.79 387.41 291.241Z" fill="black" stroke="#C06520" stroke-width="2.19" stroke-linecap="round" stroke-linejoin="round"/>
<path d="M387.41 295.011H394.941" stroke="#C06520" stroke-width="2.19" stroke-linecap="round" stroke-linejoin="round"/>
<path d="M386.134 468.481H393.654C392.846 466.031 392.846 463.39 393.654 460.94H386.134C386.942 463.39 386.942 466.031 386.134 468.481Z" fill="black" stroke="#C06520" stroke-width="2.19" stroke-linecap="round" stroke-linejoin="round"/>
<path d="M386.134 472.262H393.654" stroke="#C06520" stroke-width="2.19" stroke-linecap="round" stroke-linejoin="round"/>
<path d="M92.7618 587.012H85.2412C86.0491 589.462 86.0491 592.103 85.2412 594.553H92.7618C91.9539 592.103 91.9539 589.462 92.7618 587.012Z" fill="black" stroke="#C06520" stroke-width="2.19" stroke-linecap="round" stroke-linejoin="round"/>
<path d="M92.7618 583.241H85.2412" stroke="#C06520" stroke-width="2.19" stroke-linecap="round" stroke-linejoin="round"/>
<path d="M119.094 587.012H111.573C112.381 589.462 112.381 592.103 111.573 594.553H119.094C118.286 592.103 118.286 589.462 119.094 587.012Z" fill="black" stroke="#C06520" stroke-width="2.19" stroke-linecap="round" stroke-linejoin="round"/>
<path d="M119.094 583.241H111.573" stroke="#C06520" stroke-width="2.19" stroke-linecap="round" stroke-linejoin="round"/>
<path d="M-15.4482 287.75H78.6386C86.578 287.75 88.4931 284.269 88.4931 277.868V230.37C88.4931 230.37 87.4458 221.498 97.3402 221.498H138.713" stroke="#C06520" stroke-width="2.19" stroke-linejoin="round"/>
<path d="M112.252 361.833H90.877C89.6801 361.833 88.7126 360.863 88.7126 359.662V323.846C88.7126 322.646 87.7451 321.676 86.5482 321.676H26.9422C22.384 321.676 18.6836 317.965 18.6836 313.394V288.23" stroke="#C06520" stroke-width="2.19" stroke-linecap="round" stroke-linejoin="round"/>
<path d="M188.704 494.576H-61.2399C-64.5114 494.576 -67.1646 491.915 -67.1646 488.635V410.521C-67.1646 407.241 -64.5114 404.58 -61.2399 404.58L-20.964 403.93C-17.6924 403.93 -15.4482 401.95 -15.4482 398.669L-15.3585 355.932" stroke="#C06520" stroke-width="2.19" stroke-linecap="round" stroke-linejoin="round"/>
<path d="M-15.4482 393.748H112.252" stroke="#C06520" stroke-width="2.19" stroke-linecap="round" stroke-linejoin="round"/>
<path d="M121.178 281.799H110.157C102.536 281.799 100.392 276.868 100.392 272.007V256.985C100.392 248.013 92.5921 249.163 92.5921 249.163H-17.2041" stroke="#C06520" stroke-width="2.19" stroke-linejoin="round"/>
<path d="M51.3887 287.61V299.762C51.3887 303.113 54.1017 305.833 57.443 305.833H86.2486C87.7547 305.833 89.2209 306.363 90.3879 307.323L105.628 319.976C106.795 320.946 108.252 321.466 109.768 321.466H112.261" stroke="#C06520" stroke-width="2.19" stroke-linecap="round" stroke-linejoin="round"/>
<path d="M42.9209 374.845H96.0436C96.0436 374.845 103.993 373.595 103.993 382.816V458.71" stroke="#C06520" stroke-width="2.19" stroke-linecap="round" stroke-linejoin="round"/>
<path d="M82.7876 394.548V493.486" stroke="#C06520" stroke-width="2.19" stroke-linecap="round" stroke-linejoin="round"/>
<path d="M53.4536 394.658V394.888C53.4536 411.161 66.6096 424.354 82.8377 424.354" stroke="#C06520" stroke-width="2.19" stroke-linecap="round" stroke-linejoin="round"/>
<path d="M82.6179 407.551H57.1338" stroke="#C06520" stroke-width="2.19" stroke-linecap="round" stroke-linejoin="round"/>
<path d="M101.459 568.899H129.896" stroke="#C06520" stroke-width="2.19" stroke-linecap="round" stroke-linejoin="round"/>
<path d="M117.957 281.759H190.05V222.299H179.248" stroke="#C06520" stroke-width="2.19" stroke-linecap="round" stroke-linejoin="round"/>
<path d="M135.531 321.346H159.18" stroke="#C06520" stroke-width="2.19" stroke-linejoin="round"/>
<path d="M189.94 281.849H217.15" stroke="#C06520" stroke-width="2.19" stroke-linecap="round" stroke-linejoin="round"/>
<path d="M190.05 254.304V312.364C190.05 317.505 194.21 321.676 199.336 321.676H296.256C298.59 321.676 300.475 323.566 300.475 325.907V346.98C300.475 351.931 304.475 355.942 309.412 355.942H404.506" stroke="#C06520" stroke-width="2.19" stroke-linecap="round" stroke-linejoin="round"/>
<path d="M158.991 393.968V536.683" stroke="#C06520" stroke-width="2.19" stroke-linecap="round" stroke-linejoin="round"/>
<path d="M322.708 393.748V164.579H348.251V299.762C348.251 303.113 350.964 305.833 354.306 305.833H372.918V355.942" stroke="#C06520" stroke-width="2.19" stroke-linecap="round" stroke-linejoin="round"/>
<path d="M322.708 321.676H372.988" stroke="#C06520" stroke-width="2.19" stroke-linecap="round" stroke-linejoin="round"/>
<path d="M407.379 494.576H223.095C219.823 494.576 217.17 491.915 217.17 488.635V420.403C217.17 417.122 219.823 414.462 223.095 414.462H262.962C266.234 414.462 268.887 411.801 268.887 408.521V356.892C268.887 354.141 266.662 351.911 263.919 351.911H165.963C162.113 351.911 158.991 348.78 158.991 344.92V282.239" stroke="#C06520" stroke-width="2.19" stroke-linecap="round" stroke-linejoin="round"/>
<path d="M231.763 438.996H306.779C313.801 438.996 319.486 444.707 319.486 451.738V494.576" stroke="#C06520" stroke-width="2.19" stroke-linecap="round" stroke-linejoin="round"/>
<path d="M284.915 393.738V421.063C284.915 422.153 285.793 423.033 286.88 423.033H313.152C325.5 423.033 335.504 433.075 335.504 445.447V494.336" stroke="#C06520" stroke-width="2.19" stroke-linecap="round" stroke-linejoin="round"/>
<path d="M269.884 393.748H368.15V444.017" stroke="#C06520" stroke-width="2.19" stroke-linecap="round" stroke-linejoin="round"/>
<path d="M190.05 393.748H112.251" stroke="#C06520" stroke-width="2.19" stroke-linecap="round" stroke-linejoin="round"/>
<path d="M161.584 483.264H83.7852" stroke="#C06520" stroke-width="2.19" stroke-linecap="round" stroke-linejoin="round"/>
<path d="M190.05 355.932V483.264" stroke="#C06520" stroke-width="2.19" stroke-linecap="round" stroke-linejoin="round"/>
<path d="M158.991 483.264H190.05L190.399 592.333H119.094" stroke="#C06520" stroke-width="2.19" stroke-linecap="round" stroke-linejoin="round"/>
<path d="M244.46 494.576V415.072" stroke="#C06520" stroke-width="2.19" stroke-linecap="round" stroke-linejoin="round"/>
<path d="M244.46 494.576V511.919" stroke="#C06520" stroke-width="2.19" stroke-linecap="round" stroke-linejoin="round"/>
<path d="M284.067 494.576V511.919" stroke="#C06520" stroke-width="2.19" stroke-linecap="round" stroke-linejoin="round"/>
<path d="M323.665 494.576V511.919" stroke="#C06520" stroke-width="2.19" stroke-linecap="round" stroke-linejoin="round"/>
<path d="M244.46 519.9V537.243" stroke="#C06520" stroke-width="2.19" stroke-linecap="round" stroke-linejoin="round"/>
<path d="M284.067 519.9V537.243" stroke="#C06520" stroke-width="2.19" stroke-linecap="round" stroke-linejoin="round"/>
<path d="M323.665 519.9V537.243" stroke="#C06520" stroke-width="2.19" stroke-linecap="round" stroke-linejoin="round"/>
<path d="M242.305 333.978V321.676" stroke="#C06520" stroke-width="2.19" stroke-linecap="round" stroke-linejoin="round"/>
<path d="M242.305 345.3V368.574C242.305 372.305 239.293 375.325 235.573 375.325H190.399" stroke="#C06520" stroke-width="2.19" stroke-linecap="round" stroke-linejoin="round"/>
<path d="M217.15 304.413H322.179" stroke="#C06520" stroke-width="2.19" stroke-linecap="round" stroke-linejoin="round"/>
<path d="M268.887 270.207V303.633" stroke="#C06520" stroke-width="2.19" stroke-linecap="round" stroke-linejoin="round"/>
<path d="M323.097 338.719H372.918" stroke="#C06520" stroke-width="2.19" stroke-linecap="round" stroke-linejoin="round"/>
<path d="M285.214 393.738V305.103" stroke="#C06520" stroke-width="2.19" stroke-linecap="round" stroke-linejoin="round"/>
<path d="M203.835 281.969V297.512C203.835 300.042 201.79 302.092 199.266 302.092H190.639" stroke="#C06520" stroke-width="2.19" stroke-linecap="round" stroke-linejoin="round"/>
<path d="M247.681 340.789C247.562 340.909 284.875 340.789 284.875 340.789" stroke="#C06520" stroke-width="2.19" stroke-linecap="round" stroke-linejoin="round"/>
<path d="M312.653 355.752V304.523" stroke="#C06520" stroke-width="2.19" stroke-linecap="round" stroke-linejoin="round"/>
<path d="M317.591 374.845H285.504" stroke="#C06520" stroke-width="2.19" stroke-linecap="round" stroke-linejoin="round"/>
<path d="M327.256 374.845H409.334" stroke="#C06520" stroke-width="2.19" stroke-linecap="round" stroke-linejoin="round"/>
<path d="M300.485 394.548V422.733" stroke="#C06520" stroke-width="2.19" stroke-linecap="round" stroke-linejoin="round"/>
<path d="M300.834 408.531H320.224C337.38 408.531 351.284 422.473 351.284 439.676V494.176" stroke="#C06520" stroke-width="2.19" stroke-linecap="round" stroke-linejoin="round"/>
<path d="M203.486 375.555V592.333" stroke="#C06520" stroke-width="2.19" stroke-linecap="round" stroke-linejoin="round"/>
<path d="M203.944 421.343H217.489" stroke="#C06520" stroke-width="2.19" stroke-linejoin="round"/>
<path d="M203.944 441.136H217.489" stroke="#C06520" stroke-width="2.19" stroke-linejoin="round"/>
<path d="M203.944 460.94H217.489" stroke="#C06520" stroke-width="2.19" stroke-linejoin="round"/>
<path d="M203.944 483.264H217.489" stroke="#C06520" stroke-width="2.19" stroke-linejoin="round"/>
<path d="M176.276 281.969V333.558C176.276 335.768 178.061 337.569 180.276 337.569H217.2L233.568 351.841" stroke="#C06520" stroke-width="2.19" stroke-linecap="round" stroke-linejoin="round"/>
<path d="M136.628 382.006H112.251" stroke="#C06520" stroke-width="2.19" stroke-linejoin="round"/>
<path d="M136.628 361.833H112.251" stroke="#C06520" stroke-width="2.19" stroke-linejoin="round"/>
<path d="M158.991 341.649H112.251" stroke="#C06520" stroke-width="2.19" stroke-linejoin="round"/>
<path d="M136.628 321.476H112.251" stroke="#C06520" stroke-width="2.19" stroke-linecap="round" stroke-linejoin="round"/>
<path d="M136.628 311.384H116.77C114.276 311.384 112.251 313.414 112.251 315.915V392.218" stroke="#C06520" stroke-width="2.19" stroke-linejoin="round"/>
<path d="M136.628 291.211H107.843C104.751 291.211 102.247 293.721 102.247 296.821V350.331C102.247 353.431 99.7437 355.942 96.6517 355.942H-15.4585" stroke="#C06520" stroke-width="2.19" stroke-linejoin="round"/>
<path d="M136.449 393.508V282.079" stroke="#C06520" stroke-width="2.19" stroke-linecap="round" stroke-linejoin="round"/>
<path d="M148.388 341.479V397.149" stroke="#C06520" stroke-width="2.19" stroke-linejoin="round"/>
<path d="M179.298 360.102H167C162.801 360.102 159.399 363.513 159.399 367.724V393.968" stroke="#C06520" stroke-width="2.19" stroke-linecap="round" stroke-linejoin="round"/>
<path d="M230.865 494.346V375.725" stroke="#C06520" stroke-width="2.19" stroke-linecap="round" stroke-linejoin="round"/>
<path d="M242.305 368.574V369.364C242.305 372.595 244.918 375.205 248.13 375.205H268.458" stroke="#C06520" stroke-width="2.19" stroke-linecap="round" stroke-linejoin="round"/>
<path d="M300.834 439.386V493.656" stroke="#C06520" stroke-width="2.19" stroke-linecap="round" stroke-linejoin="round"/>
<path d="M283.379 439.386V493.656" stroke="#C06520" stroke-width="2.19" stroke-linecap="round" stroke-linejoin="round"/>
<path d="M265.934 439.556V493.656" stroke="#C06520" stroke-width="2.19" stroke-linecap="round" stroke-linejoin="round"/>
<path d="M244.46 446.927H231.035" stroke="#C06520" stroke-width="2.19" stroke-linecap="round" stroke-linejoin="round"/>
<path d="M174.102 393.508C173.952 393.958 174.002 409.731 174.042 420.743C174.072 426.544 169.384 431.265 163.599 431.265H159.18" stroke="#C06520" stroke-width="2.19" stroke-linejoin="round"/>
<path d="M189.313 444.457H184.894C179.109 444.457 174.421 449.168 174.451 454.979C174.501 465.991 174.391 482.214 174.391 482.214" stroke="#C06520" stroke-width="2.19" stroke-linecap="round" stroke-linejoin="round"/>
<path d="M68.1553 439.786H189.252" stroke="#C06520" stroke-width="2.19" stroke-linecap="round" stroke-linejoin="round"/>
<path d="M182.36 393.968V439.556" stroke="#C06520" stroke-width="2.19" stroke-linecap="round" stroke-linejoin="round"/>
<path d="M159.639 460.04H174.331" stroke="#C06520" stroke-width="2.19" stroke-linecap="round" stroke-linejoin="round"/>
<path d="M66.9487 459.81H124.62C131.023 459.81 136.22 465.021 136.22 471.442V536.683" stroke="#C06520" stroke-width="2.19" stroke-linecap="round" stroke-linejoin="round"/>
<path d="M147.211 424.354H82.8477" stroke="#C06520" stroke-width="2.19" stroke-linecap="round" stroke-linejoin="round"/>
<path d="M160.038 386.137H189.652" stroke="#C06520" stroke-width="2.19" stroke-linecap="round" stroke-linejoin="round"/>
<path d="M160.038 375.605H189.652" stroke="#C06520" stroke-width="2.19" stroke-linecap="round" stroke-linejoin="round"/>
<path d="M240.7 516.07H203.446" stroke="#C06520" stroke-width="2.19" stroke-linecap="round" stroke-linejoin="round"/>
<path d="M136.22 505.998H125.048C119.602 505.998 115.194 510.419 115.194 515.879V583.251" stroke="#C06520" stroke-width="2.19" stroke-linecap="round" stroke-linejoin="round"/>
<path d="M189.312 561.647H180.226C174.78 561.647 170.371 566.068 170.371 571.529V592.343" stroke="#C06520" stroke-width="2.19" stroke-linecap="round" stroke-linejoin="round"/>
<path d="M157.884 537.763H74.8682" stroke="#C06520" stroke-width="2.19" stroke-linecap="round" stroke-linejoin="round"/>
<path d="M107.015 483.894V536.683" stroke="#C06520" stroke-width="2.19" stroke-linecap="round" stroke-linejoin="round"/>
<path d="M203.905 537.763H351.284" stroke="#C06520" stroke-width="2.19" stroke-linecap="round" stroke-linejoin="round"/>
<path d="M394.313 494.436C392.697 494.706 370.584 518.23 370.584 518.23V697.791" stroke="#C06520" stroke-width="2.19" stroke-linecap="round" stroke-linejoin="round"/>
<path d="M158.991 287.1C161.662 287.1 163.828 284.928 163.828 282.249C163.828 279.57 161.662 277.398 158.991 277.398C156.319 277.398 154.153 279.57 154.153 282.249C154.153 284.928 156.319 287.1 158.991 287.1Z" fill="black" stroke="#C06520" stroke-width="2.19" stroke-miterlimit="10"/>
<path d="M409.334 360.603C412.005 360.603 414.171 358.431 414.171 355.752C414.171 353.073 412.005 350.901 409.334 350.901C406.662 350.901 404.496 353.073 404.496 355.752C404.496 358.431 406.662 360.603 409.334 360.603Z" fill="black" stroke="#C06520" stroke-width="2.19" stroke-miterlimit="10"/>
<path d="M322.418 379.696C325.09 379.696 327.256 377.524 327.256 374.845C327.256 372.166 325.09 369.994 322.418 369.994C319.746 369.994 317.581 372.166 317.581 374.845C317.581 377.524 319.746 379.696 322.418 379.696Z" fill="black" stroke="#C06520" stroke-width="2.19" stroke-miterlimit="10"/>
<path d="M368.15 453.499C370.822 453.499 372.988 451.327 372.988 448.648C372.988 445.969 370.822 443.797 368.15 443.797C365.478 443.797 363.312 445.969 363.312 448.648C363.312 451.327 365.478 453.499 368.15 453.499Z" fill="black" stroke="#C06520" stroke-width="2.19" stroke-miterlimit="10"/>
<path d="M266.273 502.117C270.427 502.117 273.794 498.741 273.794 494.576C273.794 490.411 270.427 487.034 266.273 487.034C262.12 487.034 258.753 490.411 258.753 494.576C258.753 498.741 262.12 502.117 266.273 502.117Z" fill="black" stroke="#C06520" stroke-width="2.19" stroke-miterlimit="10"/>
<path d="M248.23 511.929H240.709C241.517 514.379 241.517 517.02 240.709 519.47H248.23C247.422 517.02 247.422 514.379 248.23 511.929Z" fill="black" stroke="#C06520" stroke-width="2.19" stroke-linecap="round" stroke-linejoin="round"/>
<path d="M248.23 508.148H240.7" stroke="#C06520" stroke-width="2.19" stroke-linecap="round" stroke-linejoin="round"/>
<path d="M287.828 511.929H280.307C281.115 514.379 281.115 517.02 280.307 519.47H287.828C287.02 517.02 287.02 514.379 287.828 511.929Z" fill="black" stroke="#C06520" stroke-width="2.19" stroke-linecap="round" stroke-linejoin="round"/>
<path d="M287.828 508.148H280.307" stroke="#C06520" stroke-width="2.19" stroke-linecap="round" stroke-linejoin="round"/>
<path d="M327.435 511.929H319.915C320.722 514.379 320.722 517.02 319.915 519.47H327.435C326.627 517.02 326.627 514.379 327.435 511.929Z" fill="black" stroke="#C06520" stroke-width="2.19" stroke-linecap="round" stroke-linejoin="round"/>
<path d="M327.435 508.148H319.905" stroke="#C06520" stroke-width="2.19" stroke-linecap="round" stroke-linejoin="round"/>
<path d="M242.545 331.918H242.076C239.272 331.918 236.999 334.197 236.999 337.009V342.619C236.999 345.431 239.272 347.71 242.076 347.71H242.545C245.349 347.71 247.622 345.431 247.622 342.619V337.009C247.622 334.197 245.349 331.918 242.545 331.918Z" fill="black" stroke="#C06520" stroke-width="2.19" stroke-miterlimit="10"/>
<path d="M159.22 475.372H158.751C155.947 475.372 153.674 477.652 153.674 480.463V486.074C153.674 488.886 155.947 491.165 158.751 491.165H159.22C162.024 491.165 164.297 488.886 164.297 486.074V480.463C164.297 477.652 162.024 475.372 159.22 475.372Z" fill="black" stroke="#C06520" stroke-width="2.19" stroke-linecap="round" stroke-linejoin="round"/>
<path d="M100.093 561.007H99.6242C96.8204 561.007 94.5474 563.287 94.5474 566.098V571.709C94.5474 574.521 96.8204 576.8 99.6242 576.8H100.093C102.897 576.8 105.17 574.521 105.17 571.709V566.098C105.17 563.287 102.897 561.007 100.093 561.007Z" fill="black" stroke="#C06520" stroke-width="2.19" stroke-linecap="round" stroke-linejoin="round"/>
<path d="M159.23 529.872H158.761C155.958 529.872 153.685 532.151 153.685 534.963V540.574C153.685 543.385 155.958 545.665 158.761 545.665H159.23C162.034 545.665 164.307 543.385 164.307 540.574V534.963C164.307 532.151 162.034 529.872 159.23 529.872Z" fill="black" stroke="#C06520" stroke-width="2.19" stroke-linecap="round" stroke-linejoin="round"/>
<path d="M190.519 345.16H189.572C183.898 345.16 179.298 349.772 179.298 355.462V356.412C179.298 362.101 183.898 366.714 189.572 366.714H190.519C196.193 366.714 200.793 362.101 200.793 356.412V355.462C200.793 349.772 196.193 345.16 190.519 345.16Z" fill="black" stroke="#C06520" stroke-width="2.19" stroke-miterlimit="10"/>
<path d="M190.34 349.331H189.761C186.28 349.331 183.458 352.161 183.458 355.652V356.232C183.458 359.723 186.28 362.553 189.761 362.553H190.34C193.821 362.553 196.643 359.723 196.643 356.232V355.652C196.643 352.161 193.821 349.331 190.34 349.331Z" fill="black" stroke="#C06520" stroke-width="2.19" stroke-miterlimit="10"/>
<path d="M118.525 221.528V297.732C118.525 299.702 120.121 301.302 122.086 301.302H136.629" stroke="#C06520" stroke-width="2.19" stroke-linejoin="round"/>
<path d="M42.9209 515.699H107.015" stroke="#C06520" stroke-width="2.19" stroke-linecap="round" stroke-linejoin="round"/>
<path d="M93.8291 494.576V502.237C93.8291 504.307 95.5048 505.988 97.5694 505.988H107.005" stroke="#C06520" stroke-width="2.19" stroke-linecap="round" stroke-linejoin="round"/>
<path d="M385.196 375.205V394.238" stroke="#C06520" stroke-width="2.19" stroke-miterlimit="10"/>
<path d="M385.196 380.056C387.868 380.056 390.033 377.884 390.033 375.205C390.033 372.526 387.868 370.354 385.196 370.354C382.524 370.354 380.358 372.526 380.358 375.205C380.358 377.884 382.524 380.056 385.196 380.056Z" fill="black" stroke="#C06520" stroke-width="2.19" stroke-miterlimit="10"/>
<path d="M217.15 265.456H347.843" stroke="#C06520" stroke-width="2.19" stroke-linecap="round" stroke-linejoin="round"/>
<path d="M118.525 265.456H189.652" stroke="#C06520" stroke-width="2.19" stroke-linecap="round" stroke-linejoin="round"/>
<path d="M159.18 264.916V245.093" stroke="#C06520" stroke-width="2.19" stroke-linejoin="round"/>
<path d="M158.991 270.667C161.662 270.667 163.828 268.495 163.828 265.816C163.828 263.137 161.662 260.965 158.991 260.965C156.319 260.965 154.153 263.137 154.153 265.816C154.153 268.495 156.319 270.667 158.991 270.667Z" fill="black" stroke="#C06520" stroke-width="2.19" stroke-miterlimit="10"/>
<path d="M242.305 303.633V265.816" stroke="#C06520" stroke-width="2.19" stroke-linecap="round" stroke-linejoin="round"/>
<path d="M296.844 303.633V265.816" stroke="#C06520" stroke-width="2.19" stroke-linecap="round" stroke-linejoin="round"/>
<path d="M196.823 582.091H195.925C190.532 582.091 186.161 586.475 186.161 591.883V592.783C186.161 598.191 190.532 602.574 195.925 602.574H196.823C202.216 602.574 206.588 598.191 206.588 592.783V591.883C206.588 586.475 202.216 582.091 196.823 582.091Z" fill="black" stroke="#C06520" stroke-width="2.19" stroke-miterlimit="10"/>
<path d="M196.364 588.172C198.648 588.172 200.513 590.032 200.513 592.333C200.513 594.623 198.658 596.483 196.364 596.483C194.08 596.483 192.215 594.623 192.215 592.323C192.215 590.032 194.07 588.172 196.364 588.172Z" fill="black" stroke="#C06520" stroke-width="2.19" stroke-miterlimit="10"/>
<path d="M244.46 537.253V560.707" stroke="#C06520" stroke-width="2.19" stroke-linecap="round" stroke-linejoin="round"/>
<path d="M283.379 537.253V560.707" stroke="#C06520" stroke-width="2.19" stroke-linecap="round" stroke-linejoin="round"/>
<path d="M323.685 537.253V560.707" stroke="#C06520" stroke-width="2.19" stroke-linecap="round" stroke-linejoin="round"/>
<path d="M99.8535 561.007V537.803" stroke="#C06520" stroke-width="2.19" stroke-miterlimit="10"/>
<path d="M158.991 545.665V625.859" stroke="#C06520" stroke-width="2.19" stroke-miterlimit="10"/>
<path d="M396.008 268.667H377.526C374.982 268.667 372.928 270.737 372.928 273.277V312.084" stroke="#C06520" stroke-width="2.19" stroke-linecap="round" stroke-linejoin="round"/>
<path d="M391.181 295.011V306.023" stroke="#C06520" stroke-width="2.19" stroke-linecap="round" stroke-linejoin="round"/>
<path d="M394.991 315.505V309.344H396.417V306.113H385.944V309.344H387.371V315.505H379.81V344.77H402.551V315.505H394.991Z" stroke="#C06520" stroke-width="2.19" stroke-linecap="round" stroke-linejoin="round"/>
<path d="M402.551 325.446H379.81V331.728H402.551V325.446Z" stroke="#C06520" stroke-width="2.19" stroke-linecap="round" stroke-linejoin="round"/>
<path d="M248.27 575.82V569.659H249.696V566.428H239.223V569.659H240.65V575.82H233.089V605.095H255.831V575.82H248.27Z" stroke="#C06520" stroke-width="2.19" stroke-linecap="round" stroke-linejoin="round"/>
<path d="M255.831 585.762H233.089V592.043H255.831V585.762Z" stroke="#C06520" stroke-width="2.19" stroke-linecap="round" stroke-linejoin="round"/>
<ellipse cx="236.989" cy="579.06" rx="1.09218" ry="1.09519" fill="#C06520"/>
<ellipse cx="242.225" cy="579.06" rx="1.09218" ry="1.09519" fill="#C06520"/>
<ellipse cx="247.462" cy="579.06" rx="1.09218" ry="1.09519" fill="#C06520"/>
<ellipse cx="252.699" cy="579.06" rx="1.09218" ry="1.09519" fill="#C06520"/>
<ellipse cx="239.612" cy="582.611" rx="1.09218" ry="1.09519" fill="#C06520"/>
<ellipse cx="244.849" cy="582.611" rx="1.09218" ry="1.09519" fill="#C06520"/>
<ellipse cx="250.085" cy="582.611" rx="1.09218" ry="1.09519" fill="#C06520"/>
<ellipse cx="236.989" cy="597.084" rx="1.09218" ry="1.09519" fill="#C06520"/>
<ellipse cx="242.225" cy="597.084" rx="1.09218" ry="1.09519" fill="#C06520"/>
<ellipse cx="247.462" cy="597.084" rx="1.09218" ry="1.09519" fill="#C06520"/>
<ellipse cx="252.699" cy="597.084" rx="1.09218" ry="1.09519" fill="#C06520"/>
<ellipse cx="239.612" cy="600.634" rx="1.09218" ry="1.09519" fill="#C06520"/>
<ellipse cx="244.849" cy="600.634" rx="1.09218" ry="1.09519" fill="#C06520"/>
<ellipse cx="250.085" cy="600.634" rx="1.09218" ry="1.09519" fill="#C06520"/>
<path d="M287.18 575.84V569.679H288.606V566.448H278.123V569.679H279.549V575.84H271.989V605.105H294.73V575.84H287.18Z" stroke="#C06520" stroke-width="2.19" stroke-linecap="round" stroke-linejoin="round"/>
<path d="M294.73 585.782H271.989V592.063H294.73V585.782Z" stroke="#C06520" stroke-width="2.19" stroke-linecap="round" stroke-linejoin="round"/>
<ellipse cx="275.38" cy="579.06" rx="1.09218" ry="1.09519" fill="#C06520"/>
<ellipse cx="280.626" cy="579.06" rx="1.09218" ry="1.09519" fill="#C06520"/>
<ellipse cx="285.863" cy="579.06" rx="1.09218" ry="1.09519" fill="#C06520"/>
<ellipse cx="291.099" cy="579.06" rx="1.09218" ry="1.09519" fill="#C06520"/>
<ellipse cx="278.013" cy="582.611" rx="1.09218" ry="1.09519" fill="#C06520"/>
<ellipse cx="283.249" cy="582.611" rx="1.09218" ry="1.09519" fill="#C06520"/>
<ellipse cx="288.486" cy="582.611" rx="1.09218" ry="1.09519" fill="#C06520"/>
<ellipse cx="275.38" cy="597.084" rx="1.09218" ry="1.09519" fill="#C06520"/>
<ellipse cx="280.626" cy="597.084" rx="1.09218" ry="1.09519" fill="#C06520"/>
<ellipse cx="285.863" cy="597.084" rx="1.09218" ry="1.09519" fill="#C06520"/>
<ellipse cx="291.099" cy="597.084" rx="1.09218" ry="1.09519" fill="#C06520"/>
<ellipse cx="278.013" cy="600.634" rx="1.09218" ry="1.09519" fill="#C06520"/>
<ellipse cx="283.249" cy="600.634" rx="1.09218" ry="1.09519" fill="#C06520"/>
<ellipse cx="288.486" cy="600.634" rx="1.09218" ry="1.09519" fill="#C06520"/>
<path d="M327.495 575.82V569.659H328.922V566.428H318.449V569.659H319.875V575.82H312.314V605.095H335.056V575.82H327.495Z" stroke="#C06520" stroke-width="2.19" stroke-linecap="round" stroke-linejoin="round"/>
<path d="M335.056 585.762H312.314V592.043H335.056V585.762Z" stroke="#C06520" stroke-width="2.19" stroke-linecap="round" stroke-linejoin="round"/>
<ellipse cx="315.826" cy="579.06" rx="1.09218" ry="1.09519" fill="#C06520"/>
<ellipse cx="321.062" cy="579.06" rx="1.09218" ry="1.09519" fill="#C06520"/>
<ellipse cx="326.308" cy="579.06" rx="1.09218" ry="1.09519" fill="#C06520"/>
<ellipse cx="331.545" cy="579.06" rx="1.09218" ry="1.09519" fill="#C06520"/>
<ellipse cx="318.458" cy="582.611" rx="1.09218" ry="1.09519" fill="#C06520"/>
<ellipse cx="323.695" cy="582.611" rx="1.09218" ry="1.09519" fill="#C06520"/>
<ellipse cx="328.932" cy="582.611" rx="1.09218" ry="1.09519" fill="#C06520"/>
<ellipse cx="315.826" cy="597.084" rx="1.09218" ry="1.09519" fill="#C06520"/>
<ellipse cx="321.062" cy="597.084" rx="1.09218" ry="1.09519" fill="#C06520"/>
<ellipse cx="326.308" cy="597.084" rx="1.09218" ry="1.09519" fill="#C06520"/>
<ellipse cx="331.545" cy="597.084" rx="1.09218" ry="1.09519" fill="#C06520"/>
<ellipse cx="318.458" cy="600.634" rx="1.09218" ry="1.09519" fill="#C06520"/>
<ellipse cx="323.695" cy="600.634" rx="1.09218" ry="1.09519" fill="#C06520"/>
<ellipse cx="328.932" cy="600.634" rx="1.09218" ry="1.09519" fill="#C06520"/>
<path d="M217.15 337.569V237.721H190.399" stroke="#C06520" stroke-width="2.19" stroke-linecap="round" stroke-linejoin="round"/>
<path d="M407.379 499.497C405.763 499.767 388.697 518.23 388.697 518.23V703.872H370.574" stroke="#C06520" stroke-width="2.19" stroke-linecap="round" stroke-linejoin="round"/>
<path d="M371.133 499.497C369.517 499.767 352.451 518.23 352.451 518.23V612.636C352.451 620.008 346.496 625.979 339.145 625.979H158.981" stroke="#C06520" stroke-width="2.19" stroke-linecap="round" stroke-linejoin="round"/>
<path d="M352.461 542.614C355.132 542.614 357.298 540.442 357.298 537.763C357.298 535.084 355.132 532.912 352.461 532.912C349.789 532.912 347.623 535.084 347.623 537.763C347.623 540.442 349.789 542.614 352.461 542.614Z" fill="black" stroke="#C06520" stroke-width="2.19" stroke-miterlimit="10"/>
<path d="M370.584 542.614C373.255 542.614 375.421 540.442 375.421 537.763C375.421 535.084 373.255 532.912 370.584 532.912C367.912 532.912 365.746 535.084 365.746 537.763C365.746 540.442 367.912 542.614 370.584 542.614Z" fill="black" stroke="#C06520" stroke-width="2.19" stroke-miterlimit="10"/>
<path d="M370.584 707.493C373.255 707.493 375.421 705.321 375.421 702.642C375.421 699.963 373.255 697.791 370.584 697.791C367.912 697.791 365.746 699.963 365.746 702.642C365.746 705.321 367.912 707.493 370.584 707.493Z" fill="black" stroke="#C06520" stroke-width="2.19" stroke-miterlimit="10"/>
<path d="M407.378 620.378C410.05 620.378 412.216 618.206 412.216 615.527C412.216 612.848 410.05 610.676 407.378 610.676C404.707 610.676 402.541 612.848 402.541 615.527C402.541 618.206 404.707 620.378 407.378 620.378Z" fill="black" stroke="#C06520" stroke-width="2.19" stroke-miterlimit="10"/>
<path d="M371.372 486.674H370.903C368.099 486.674 365.826 488.954 365.826 491.765V497.376C365.826 500.188 368.099 502.467 370.903 502.467H371.372C374.176 502.467 376.449 500.188 376.449 497.376V491.765C376.449 488.954 374.176 486.674 371.372 486.674Z" fill="black" stroke="#C06520" stroke-width="2.19" stroke-miterlimit="10"/>
<path d="M89.0015 537.763V582.611" stroke="#C06520" stroke-width="2.19" stroke-linecap="round" stroke-linejoin="round"/>
<path d="M73.7509 531.152H73.1724C69.6909 531.152 66.8687 533.982 66.8687 537.473V538.053C66.8687 541.544 69.6909 544.374 73.1724 544.374H73.7509C77.2323 544.374 80.0546 541.544 80.0546 538.053V537.473C80.0546 533.982 77.2323 531.152 73.7509 531.152Z" fill="black" stroke="#C06520" stroke-width="2.19" stroke-miterlimit="10"/>
<path d="M139.142 576.8C144.249 576.8 148.388 572.649 148.388 567.528C148.388 562.408 144.249 558.257 139.142 558.257C134.036 558.257 129.896 562.408 129.896 567.528C129.896 572.649 134.036 576.8 139.142 576.8Z" stroke="#C06520" stroke-width="2.19" stroke-linecap="round" stroke-linejoin="round"/>
<path d="M518.282 482.084V488.385H496.578V491.835" stroke="#C06520" stroke-width="2.19" stroke-linejoin="round"/>
<path d="M506.403 536.153H486.753C485.846 536.153 485.088 535.393 484.978 534.373L483.99 525.351C483.322 519.29 483.322 513.159 483.99 507.098L484.978 498.076C485.088 497.056 485.856 496.296 486.753 496.296H506.403C507.31 496.296 508.068 497.056 508.178 498.076L509.165 507.098C509.834 513.159 509.834 519.29 509.165 525.351L508.178 534.373C508.068 535.393 507.3 536.153 506.403 536.153Z" fill="black" stroke="#C06520" stroke-width="1.98" stroke-miterlimit="10"/>
<path d="M485.317 501.267H507.849" stroke="#C06520" stroke-width="1.93" stroke-miterlimit="10"/>
<path d="M485.317 531.772H507.849" stroke="#C06520" stroke-width="1.93" stroke-miterlimit="10"/>
<path d="M509.136 513.479H484.09V517.36H509.136V513.479Z" fill="black" stroke="#C06520" stroke-width="1.93" stroke-miterlimit="10"/>
<path d="M545.213 536.153H525.563C524.656 536.153 523.898 535.393 523.788 534.373L522.801 525.351C522.132 519.29 522.132 513.159 522.801 507.098L523.788 498.076C523.898 497.056 524.666 496.296 525.563 496.296H545.213C546.12 496.296 546.878 497.056 546.988 498.076L547.975 507.098C548.644 513.159 548.644 519.29 547.975 525.351L546.988 534.373C546.878 535.393 546.11 536.153 545.213 536.153Z" fill="black" stroke="#C06520" stroke-width="1.98" stroke-miterlimit="10"/>
<path d="M524.127 501.267H546.659" stroke="#C06520" stroke-width="1.93" stroke-miterlimit="10"/>
<path d="M524.127 531.772H546.659" stroke="#C06520" stroke-width="1.93" stroke-miterlimit="10"/>
<path d="M547.945 513.479H522.9V517.36H547.945V513.479Z" fill="black" stroke="#C06520" stroke-width="1.93" stroke-miterlimit="10"/>
<path d="M518.282 466.291V399.089" stroke="#C06520" stroke-width="2.19" stroke-linejoin="round"/>
<path d="M407.379 574.18V611.456" stroke="#C06520" stroke-width="2.38" stroke-linejoin="round"/>
<path d="M411.348 552.216H387.889C381.846 552.216 376.947 557.128 376.947 563.188V563.198C376.947 569.257 381.846 574.17 387.889 574.17H411.348C417.391 574.17 422.29 569.257 422.29 563.198V563.188C422.29 557.128 417.391 552.216 411.348 552.216Z" fill="black" stroke="#C06520" stroke-width="2.38" stroke-linecap="round" stroke-linejoin="round"/>
<path d="M158.991 630.709C161.662 630.709 163.828 628.538 163.828 625.859C163.828 623.18 161.662 621.008 158.991 621.008C156.319 621.008 154.153 623.18 154.153 625.859C154.153 628.538 156.319 630.709 158.991 630.709Z" fill="black" stroke="#C06520" stroke-width="2.19" stroke-miterlimit="10"/>
<path d="M268.887 270.207C271.558 270.207 273.724 268.035 273.724 265.356C273.724 262.677 271.558 260.505 268.887 260.505C266.215 260.505 264.049 262.677 264.049 265.356C264.049 268.035 266.215 270.207 268.887 270.207Z" fill="black" stroke="#C06520" stroke-width="2.19" stroke-miterlimit="10"/>
<path d="M138.723 245.002V224.559C138.723 213.347 147.81 204.235 158.991 204.235C170.172 204.235 179.258 213.347 179.258 224.559V245.002H138.723Z" stroke="#C06520" stroke-width="2.19" stroke-linejoin="round"/>
<path d="M158.991 208.856C167.629 208.856 174.65 215.887 174.65 224.559V245.003H143.341V224.559C143.341 215.897 150.353 208.856 159.001 208.856H158.991Z" stroke="#C06520" stroke-width="2.19" stroke-linejoin="round"/>
<path d="M154.642 204.716L155.809 209.186" stroke="#C06520" stroke-width="2.19" stroke-linejoin="round"/>
<path d="M162.572 204.716L161.415 209.186" stroke="#C06520" stroke-width="2.19" stroke-linejoin="round"/>
<path d="M158.991 208.856V245.003" stroke="#C06520" stroke-width="2.19" stroke-linejoin="round"/>
<path d="M459.893 195.534H514.631C521.344 195.534 526.78 200.985 526.78 207.716C526.78 214.447 521.344 219.898 514.631 219.898H459.893C453.18 219.898 447.744 214.447 447.744 207.716C447.744 200.985 453.18 195.534 459.893 195.534Z" fill="black" stroke="#C06520" stroke-width="2.19" stroke-miterlimit="10"/>
<path d="M463.873 202.185H464.162" stroke="#C06520" stroke-width="2.19" stroke-linecap="round" stroke-linejoin="round"/>
<path d="M469.728 202.185H469.438" stroke="#C06520" stroke-width="2.19" stroke-linecap="round" stroke-linejoin="round"/>
<path d="M475.004 202.185H475.293" stroke="#C06520" stroke-width="2.19" stroke-linecap="round" stroke-linejoin="round"/>
<path d="M452.741 202.185H453.03" stroke="#C06520" stroke-width="2.19" stroke-linecap="round" stroke-linejoin="round"/>
<path d="M458.307 202.185H458.596" stroke="#C06520" stroke-width="2.19" stroke-linecap="round" stroke-linejoin="round"/>
<path d="M492.13 202.185H492.419" stroke="#C06520" stroke-width="2.19" stroke-linecap="round" stroke-linejoin="round"/>
<path d="M497.695 202.185H497.985" stroke="#C06520" stroke-width="2.19" stroke-linecap="round" stroke-linejoin="round"/>
<path d="M503.261 202.185H503.55" stroke="#C06520" stroke-width="2.19" stroke-linecap="round" stroke-linejoin="round"/>
<path d="M480.999 202.185H481.288" stroke="#C06520" stroke-width="2.19" stroke-linecap="round" stroke-linejoin="round"/>
<path d="M486.564 202.185H486.853" stroke="#C06520" stroke-width="2.19" stroke-linecap="round" stroke-linejoin="round"/>
<path d="M520.167 202.185H520.456" stroke="#C06520" stroke-width="2.19" stroke-linecap="round" stroke-linejoin="round"/>
<path d="M509.036 202.185H509.325" stroke="#C06520" stroke-width="2.19" stroke-linecap="round" stroke-linejoin="round"/>
<path d="M514.602 202.185H514.891" stroke="#C06520" stroke-width="2.19" stroke-linecap="round" stroke-linejoin="round"/>
<path d="M526.181 206.296H447.744" stroke="#C06520" stroke-width="2.19" stroke-linecap="round" stroke-linejoin="round"/>
<mask id="mask0_220_9007" style="mask-type:luminance" maskUnits="userSpaceOnUse" x="322" y="164" width="27" height="89">
<path d="M348.251 164.579H322.708V252.014H348.251V164.579Z" fill="white"/>
</mask>
<g mask="url(#mask0_220_9007)">
<path d="M332.163 173.08L321.022 184.252" stroke="#C06520" stroke-width="2.19" stroke-miterlimit="10" stroke-linecap="round"/>
<path d="M339.843 173.08L328.702 184.252" stroke="#C06520" stroke-width="2.19" stroke-miterlimit="10" stroke-linecap="round"/>
<path d="M347.533 173.08L336.392 184.252" stroke="#C06520" stroke-width="2.19" stroke-miterlimit="10" stroke-linecap="round"/>
<path d="M355.224 173.08L344.083 184.252" stroke="#C06520" stroke-width="2.19" stroke-miterlimit="10" stroke-linecap="round"/>
<path d="M327.784 176.401L316.633 165.229" stroke="#C06520" stroke-width="2.19" stroke-miterlimit="10" stroke-linecap="round"/>
<path d="M335.464 176.401L324.323 165.229" stroke="#C06520" stroke-width="2.19" stroke-miterlimit="10" stroke-linecap="round"/>
<path d="M343.155 176.401L332.014 165.229" stroke="#C06520" stroke-width="2.19" stroke-miterlimit="10" stroke-linecap="round"/>
<path d="M350.845 176.401L339.704 165.229" stroke="#C06520" stroke-width="2.19" stroke-miterlimit="10" stroke-linecap="round"/>
<path d="M358.535 176.401L347.384 165.229" stroke="#C06520" stroke-width="2.19" stroke-miterlimit="10" stroke-linecap="round"/>
</g>
<path d="M322.708 184.632H348.261" stroke="#C06520" stroke-width="2.19" stroke-linecap="round" stroke-linejoin="round"/>
<path d="M348.262 169.249H391.181V268.667" stroke="#C06520" stroke-width="2.19" stroke-miterlimit="10" stroke-linecap="round"/>
<path d="M391.181 228.09H431.935V268.667" stroke="#C06520" stroke-width="2.19" stroke-miterlimit="10" stroke-linecap="round"/>
<path d="M431.935 228.09V221.248C431.935 212.987 438.608 206.296 446.846 206.296H473.747" stroke="#C06520" stroke-width="2.19" stroke-miterlimit="10" stroke-linecap="round"/>
<path d="M518.282 488.385H537.213V491.835" stroke="#C06520" stroke-width="2.19" stroke-linejoin="round"/>
<path d="M95.2553 603.205V654.133H84.6826V603.205" stroke="#C06520" stroke-width="2.19" stroke-linecap="round" stroke-linejoin="round"/>
<path d="M80.0449 654.133H98.966" stroke="#C06520" stroke-width="2.19" stroke-linecap="round" stroke-linejoin="round"/>
<path d="M87.665 609.966H90.3481" stroke="#C06520" stroke-width="2.19" stroke-linecap="round" stroke-linejoin="round"/>
<path d="M87.665 617.437H90.3481" stroke="#C06520" stroke-width="2.19" stroke-linecap="round" stroke-linejoin="round"/>
<path d="M87.665 624.918H90.3481" stroke="#C06520" stroke-width="2.19" stroke-linecap="round" stroke-linejoin="round"/>
<path d="M87.665 632.39H90.3481" stroke="#C06520" stroke-width="2.19" stroke-linecap="round" stroke-linejoin="round"/>
<path d="M87.665 639.871H90.3481" stroke="#C06520" stroke-width="2.19" stroke-linecap="round" stroke-linejoin="round"/>
<path d="M87.665 647.342H90.3481" stroke="#C06520" stroke-width="2.19" stroke-linecap="round" stroke-linejoin="round"/>
<path d="M120.331 617.437V654.134H110.336V617.437" stroke="#C06520" stroke-width="2.19" stroke-linecap="round" stroke-linejoin="round"/>
<path d="M107.015 654.133H122.894" stroke="#C06520" stroke-width="2.19" stroke-linecap="round" stroke-linejoin="round"/>
<path d="M113.309 624.918H115.992" stroke="#C06520" stroke-width="2.19" stroke-linecap="round" stroke-linejoin="round"/>
<path d="M113.309 632.39H115.992" stroke="#C06520" stroke-width="2.19" stroke-linecap="round" stroke-linejoin="round"/>
<path d="M113.309 639.871H115.992" stroke="#C06520" stroke-width="2.19" stroke-linecap="round" stroke-linejoin="round"/>
<path d="M113.309 647.342H115.992" stroke="#C06520" stroke-width="2.19" stroke-linecap="round" stroke-linejoin="round"/>
<path d="M89.0015 594.563V600.634" stroke="#C06520" stroke-width="2.19" stroke-linecap="round" stroke-linejoin="round"/>
<path d="M115.194 594.563V600.634" stroke="#C06520" stroke-width="2.19" stroke-linecap="round" stroke-linejoin="round"/>
<path d="M490.264 267.066V252.694L478.625 241.022" stroke="#C06520" stroke-width="2.19" stroke-linecap="round" stroke-linejoin="round"/>
<path d="M150.891 452.639C150.891 442.577 167.04 442.257 167.04 424.904C167.04 410.051 150.891 407.661 150.891 401.08H145.495C145.495 407.661 129.347 410.051 129.347 424.904C129.347 442.257 145.495 442.577 145.495 452.639H150.891Z" fill="black" stroke="#C06520" stroke-width="2.19" stroke-linecap="round" stroke-linejoin="round"/>
<ellipse cx="132.08" cy="426.104" rx="1.09218" ry="1.09519" fill="#C06520"/>
<ellipse cx="137.317" cy="426.104" rx="1.09218" ry="1.09519" fill="#C06520"/>
<ellipse cx="142.553" cy="426.104" rx="1.09218" ry="1.09519" fill="#C06520"/>
<ellipse cx="147.789" cy="426.104" rx="1.09218" ry="1.09519" fill="#C06520"/>
<ellipse cx="153.266" cy="426.104" rx="1.09218" ry="1.09519" fill="#C06520"/>
<ellipse cx="158.751" cy="426.104" rx="1.09218" ry="1.09519" fill="#C06520"/>
<ellipse cx="164.227" cy="426.104" rx="1.09218" ry="1.09519" fill="#C06520"/>
<path d="M145.176 397.969H151.151" stroke="#C06520" stroke-width="2.19" stroke-linecap="round" stroke-linejoin="round"/>
<path d="M148.388 452.639V483.264" stroke="#C06520" stroke-width="2.19" stroke-linecap="round" stroke-linejoin="round"/>
<path d="M265.675 442.157L264.847 441.737L264.837 440.566L265.974 439.016L267.191 433.545L269.275 434.545L267.43 431.735L267.031 424.684L263.291 417.252L263.51 416.962L261.735 416.862L255.451 412.562L257.476 408.731L261.505 408.161L264.847 409.711L268.019 409.781L267.181 404.16L267.849 403.72L269.435 403.91L270.502 404.9L270.462 405.12L273.844 406.601L277.345 405.31L279.689 399.719L284.466 396.889L290.461 401.3L291.727 403.44L293.423 402.5L293.732 403.32L296.465 405.92L303.946 408.441L303.427 418.843L298.48 424.384L301.502 425.344L301.702 428.364L302.829 430.275L302.52 436.836L305.163 437.706L305.083 439.116L299.477 444.457L296.904 444.537L289.493 441.997L285.494 445.267L285.773 447.858L283.399 448.568L275.928 445.687L274.741 446.097L266.173 443.387L265.475 442.307L265.675 442.157Z" fill="black" stroke="#C06520" stroke-width="2.19" stroke-linecap="round" stroke-linejoin="round"/>
<path d="M197.232 168.499H124.44V245.002H197.232V168.499Z" stroke="#C06520" stroke-width="2.19" stroke-linecap="round" stroke-linejoin="round"/>
<path d="M197.232 180.421H124.44" stroke="#C06520" stroke-width="2.19" stroke-linecap="round" stroke-linejoin="round"/>
</g>
<defs>
<clipPath id="clip0_220_9007">
<rect width="619" height="980" fill="white" transform="translate(-69)"/>
</clipPath>
</defs>
</svg>
