<svg width="621" height="980" viewBox="0 0 621 980" fill="none" xmlns="http://www.w3.org/2000/svg">
<g clip-path="url(#clip0_460_360)">
<path d="M529.28 168.47H577.31V192.67" stroke="#C06520" stroke-width="2.19" stroke-linecap="round" stroke-linejoin="round"/>
<path d="M577.31 22.0601V82.5201H619.43" stroke="#C06520" stroke-width="2.19" stroke-linecap="round" stroke-linejoin="round"/>
<path d="M13.2798 148.35H53.1798V329.16C53.1798 335.9 58.6498 341.37 65.3898 341.37H158.41" stroke="#C06520" stroke-width="2.19" stroke-linecap="round" stroke-linejoin="round"/>
<path d="M53.19 147.58L13.27 107.66V186.17C13.27 186.17 382.28 185.2 382.28 186.17C382.28 187.14 382.28 56.1699 382.28 56.1699H501.36V168.47H536.55V195.51" stroke="#C06520" stroke-width="2.19" stroke-linecap="round" stroke-linejoin="round"/>
<path d="M442.44 78.8599V249.07" stroke="#C06520" stroke-width="2.19" stroke-miterlimit="10"/>
<path d="M392.19 219.86L362.59 249.47" stroke="#C06520" stroke-width="2.19" stroke-miterlimit="10"/>
<path d="M506.21 745.82H520.77V603.27" stroke="#C06520" stroke-width="2.19" stroke-linecap="round" stroke-linejoin="round"/>
<path d="M533.37 558.32H522.08C519.38 558.32 517.19 556.13 517.58 553.04V503.65" stroke="#C06520" stroke-width="2.19" stroke-linecap="round" stroke-linejoin="round"/>
<path d="M517.24 536.94H619.53" stroke="#C06520" stroke-width="2.19" stroke-linecap="round" stroke-linejoin="round"/>
<path d="M533.26 584.24H560.54" stroke="#C06520" stroke-width="2.19" stroke-linecap="round" stroke-linejoin="round"/>
<path d="M533.26 725.62H560.54" stroke="#C06520" stroke-width="2.19" stroke-linecap="round" stroke-linejoin="round"/>
<path d="M588.66 536.94V832.93C584.47 837.1 587.85 840.48 592.02 840.48" stroke="#C06520" stroke-width="2.19" stroke-linecap="round" stroke-linejoin="round"/>
<path d="M560.71 599.42V536.94" stroke="#C06520" stroke-width="2.19" stroke-linecap="round" stroke-linejoin="round"/>
<path d="M560.88 554.59H566.28C570.07 554.59 573.15 557.64 573.17 561.43C573.27 586.39 573.14 968.67 573.14 968.67" stroke="#C06520" stroke-width="2.19" stroke-linecap="round" stroke-linejoin="round"/>
<path d="M506.31 738.3C506.08 737.14 506.31 488.78 506.31 488.78" stroke="#C06520" stroke-width="2.19" stroke-linecap="round" stroke-linejoin="round"/>
<path d="M547.65 537.75V559.85C547.65 562.38 545.6 564.43 543.07 564.43H534.42" stroke="#C06520" stroke-width="2.19" stroke-linecap="round" stroke-linejoin="round"/>
<path d="M547.19 725.74V741.28C547.19 743.81 545.14 745.86 542.61 745.86H520.77" stroke="#C06520" stroke-width="2.19" stroke-linecap="round" stroke-linejoin="round"/>
<path d="M506.21 749.45C508.888 749.45 511.06 747.279 511.06 744.6C511.06 741.921 508.888 739.75 506.21 739.75C503.531 739.75 501.36 741.921 501.36 744.6C501.36 747.279 503.531 749.45 506.21 749.45Z" fill="black" stroke="#C06520" stroke-width="2.19" stroke-miterlimit="10"/>
<path d="M573.19 978.68C575.868 978.68 578.04 976.509 578.04 973.83C578.04 971.151 575.868 968.98 573.19 968.98C570.511 968.98 568.34 971.151 568.34 973.83C568.34 976.509 570.511 978.68 573.19 978.68Z" stroke="#C06520" stroke-width="2.19" stroke-miterlimit="10"/>
<path d="M533.37 508.01V598.51C533.37 601.04 531.32 603.09 528.79 603.09H506.53" stroke="#C06520" stroke-width="2.19" stroke-linejoin="round"/>
<path d="M520.62 608.17C523.299 608.17 525.47 605.998 525.47 603.32C525.47 600.641 523.299 598.47 520.62 598.47C517.941 598.47 515.77 600.641 515.77 603.32C515.77 605.998 517.941 608.17 520.62 608.17Z" fill="black" stroke="#C06520" stroke-width="2.19" stroke-miterlimit="10"/>
<path d="M564.48 603.66H556.94C557.75 606.11 557.75 608.75 556.94 611.2H564.48C563.67 608.75 563.67 606.11 564.48 603.66Z" fill="black" stroke="#C06520" stroke-width="2.19" stroke-linecap="round" stroke-linejoin="round"/>
<path d="M564.48 599.42H556.94" stroke="#C06520" stroke-width="2.19" stroke-linecap="round" stroke-linejoin="round"/>
<path d="M588.66 842.1C591.339 842.1 593.51 839.928 593.51 837.25C593.51 834.571 591.339 832.4 588.66 832.4C585.981 832.4 583.81 834.571 583.81 837.25C583.81 839.928 585.981 842.1 588.66 842.1Z" fill="black" stroke="#C06520" stroke-width="2.19" stroke-miterlimit="10"/>
<path d="M461.09 287.05H533.37V224.36" stroke="#C06520" stroke-width="2.19" stroke-linecap="round" stroke-linejoin="round"/>
<path d="M533.37 205.93V268.62H461.37V287.41" stroke="#C06520" stroke-width="2.19" stroke-linecap="round" stroke-linejoin="round"/>
<path d="M480.03 307.06H502.42" stroke="#C06520" stroke-width="2.19" stroke-linejoin="round"/>
<path d="M480.03 326.62H502.42" stroke="#C06520" stroke-width="2.19" stroke-linejoin="round"/>
<path d="M480.03 346.19H502.42" stroke="#C06520" stroke-width="2.19" stroke-linejoin="round"/>
<path d="M533.26 240.52H572.23" stroke="#C06520" stroke-width="2.19" stroke-linecap="round" stroke-linejoin="round"/>
<path d="M533.26 287.13H560.54" stroke="#C06520" stroke-width="2.19" stroke-linecap="round" stroke-linejoin="round"/>
<path d="M530.45 369.38C532.12 367.9 533.82 366.4 535.51 364.91C548.23 353.67 560.6 342.84 560.6 342.84L560.72 267.02L547.85 254.15" stroke="#C06520" stroke-width="2.19" stroke-linecap="round" stroke-linejoin="round"/>
<path d="M612.41 393.08V362.18C612.41 359.43 610.18 357.2 607.43 357.2H509.22C505.36 357.2 502.23 354.07 502.23 350.21V287.54" stroke="#C06520" stroke-width="2.19" stroke-linecap="round" stroke-linejoin="round"/>
<path d="M547.39 536.9V404.96C547.39 401.68 550.05 399.02 553.33 399.02H601.85C605.13 399.02 607.79 396.36 607.79 393.08" stroke="#C06520" stroke-width="2.19" stroke-linecap="round" stroke-linejoin="round"/>
<path d="M533.37 399.02H455.37" stroke="#C06520" stroke-width="2.19" stroke-linecap="round" stroke-linejoin="round"/>
<path d="M533.37 361.21V500.8" stroke="#C06520" stroke-width="2.19" stroke-linecap="round" stroke-linejoin="round"/>
<path d="M567.39 399.02V474.24H590.97" stroke="#C06520" stroke-width="2.19" stroke-linecap="round" stroke-linejoin="round"/>
<path d="M585.76 350.58V373.85C585.76 377.58 582.74 380.6 579.01 380.6H533.72" stroke="#C06520" stroke-width="2.19" stroke-linecap="round" stroke-linejoin="round"/>
<path d="M547.19 287.25V302.79C547.19 305.32 545.14 307.37 542.61 307.37H533.96" stroke="#C06520" stroke-width="2.19" stroke-linecap="round" stroke-linejoin="round"/>
<path d="M547.19 240.64V254.8C547.19 257.33 545.14 259.38 542.61 259.38H533.96" stroke="#C06520" stroke-width="2.19" stroke-linecap="round" stroke-linejoin="round"/>
<path d="M533.66 417.49H547.24" stroke="#C06520" stroke-width="2.19" stroke-linecap="round" stroke-linejoin="round"/>
<path d="M533.66 437.28H547.24" stroke="#C06520" stroke-width="2.19" stroke-linecap="round" stroke-linejoin="round"/>
<path d="M533.66 457.08H547.24" stroke="#C06520" stroke-width="2.19" stroke-linecap="round" stroke-linejoin="round"/>
<path d="M533.66 476.88H547.24" stroke="#C06520" stroke-width="2.19" stroke-linecap="round" stroke-linejoin="round"/>
<path d="M519.57 287.25V338.83C519.57 341.04 521.36 342.84 523.58 342.84H560.6L577.01 357.11" stroke="#C06520" stroke-width="2.19" stroke-linecap="round" stroke-linejoin="round"/>
<path d="M479.63 398.78V287.37" stroke="#C06520" stroke-width="2.19" stroke-linecap="round" stroke-linejoin="round"/>
<path d="M491.6 346.75V399.24" stroke="#C06520" stroke-width="2.19" stroke-linejoin="round"/>
<path d="M522.59 365.38H510.26C506.05 365.38 502.64 368.79 502.64 373V399.24" stroke="#C06520" stroke-width="2.19" stroke-linecap="round" stroke-linejoin="round"/>
<path d="M585.76 373.84V374.63C585.76 377.86 588.38 380.47 591.6 380.47H611.98" stroke="#C06520" stroke-width="2.19" stroke-linecap="round" stroke-linejoin="round"/>
<path d="M609.45 408.9V474.24H593.51" stroke="#C06520" stroke-width="2.19" stroke-linecap="round" stroke-linejoin="round"/>
<path d="M567.39 445.65H547.39" stroke="#C06520" stroke-width="2.19" stroke-linejoin="round"/>
<path d="M517.38 398.78C517.23 399.23 517.28 415 517.32 426.01C517.35 431.81 512.65 436.53 506.85 436.53H492.68" stroke="#C06520" stroke-width="2.19" stroke-linecap="round" stroke-linejoin="round"/>
<path d="M517.67 509.28C517.82 508.83 517.77 472.56 517.73 461.54C517.7 455.74 522.4 451.02 528.2 451.02H532.63" stroke="#C06520" stroke-width="2.19" stroke-linecap="round" stroke-linejoin="round"/>
<path d="M491.61 445.04H532.57" stroke="#C06520" stroke-width="2.19" stroke-linecap="round" stroke-linejoin="round"/>
<path d="M525.66 399.24V444.81" stroke="#C06520" stroke-width="2.19" stroke-linecap="round" stroke-linejoin="round"/>
<path d="M460.37 465.3H517.61" stroke="#C06520" stroke-width="2.19" stroke-linecap="round" stroke-linejoin="round"/>
<path d="M516.92 417.88H454.71" stroke="#C06520" stroke-width="2.19" stroke-linecap="round" stroke-linejoin="round"/>
<path d="M484.04 465.39C488.11 465.39 491.41 462.09 491.41 458.02V417.88" stroke="#C06520" stroke-width="2.19" stroke-linecap="round" stroke-linejoin="round"/>
<path d="M503.28 391.41H532.97" stroke="#C06520" stroke-width="2.19" stroke-linecap="round" stroke-linejoin="round"/>
<path d="M503.28 380.88H532.97" stroke="#C06520" stroke-width="2.19" stroke-linecap="round" stroke-linejoin="round"/>
<path d="M502.23 292.39C504.908 292.39 507.08 290.219 507.08 287.54C507.08 284.861 504.908 282.69 502.23 282.69C499.551 282.69 497.38 284.861 497.38 287.54C497.38 290.219 499.551 292.39 502.23 292.39Z" fill="black" stroke="#C06520" stroke-width="2.19" stroke-miterlimit="10"/>
<path d="M455.37 403.87C458.049 403.87 460.22 401.698 460.22 399.02C460.22 396.341 458.049 394.17 455.37 394.17C452.691 394.17 450.52 396.341 450.52 399.02C450.52 401.698 452.691 403.87 455.37 403.87Z" fill="black" stroke="#C06520" stroke-width="2.19" stroke-miterlimit="10"/>
<path d="M455.37 422.73C458.049 422.73 460.22 420.558 460.22 417.88C460.22 415.201 458.049 413.03 455.37 413.03C452.691 413.03 450.52 415.201 450.52 417.88C450.52 420.558 452.691 422.73 455.37 422.73Z" fill="black" stroke="#C06520" stroke-width="2.19" stroke-miterlimit="10"/>
<path d="M517.24 541.79C519.919 541.79 522.09 539.618 522.09 536.94C522.09 534.261 519.919 532.09 517.24 532.09C514.562 532.09 512.39 534.261 512.39 536.94C512.39 539.618 514.562 541.79 517.24 541.79Z" fill="black" stroke="#C06520" stroke-width="2.19" stroke-miterlimit="10"/>
<path d="M533.26 508.01C535.939 508.01 538.11 505.839 538.11 503.16C538.11 500.481 535.939 498.31 533.26 498.31C530.582 498.31 528.41 500.481 528.41 503.16C528.41 505.839 530.582 508.01 533.26 508.01Z" fill="black" stroke="#C06520" stroke-width="2.19" stroke-miterlimit="10"/>
<path d="M567.39 450.5C570.069 450.5 572.24 448.328 572.24 445.65C572.24 442.971 570.069 440.8 567.39 440.8C564.711 440.8 562.54 442.971 562.54 445.65C562.54 448.328 564.711 450.5 567.39 450.5Z" fill="black" stroke="#C06520" stroke-width="2.19" stroke-miterlimit="10"/>
<path d="M533.37 264.45C536.049 264.45 538.22 262.279 538.22 259.6C538.22 256.921 536.049 254.75 533.37 254.75C530.691 254.75 528.52 256.921 528.52 259.6C528.52 262.279 530.691 264.45 533.37 264.45Z" fill="black" stroke="#C06520" stroke-width="2.19" stroke-miterlimit="10"/>
<path d="M612.89 389.79H611.94C606.252 389.79 601.64 394.401 601.64 400.09V401.04C601.64 406.729 606.252 411.34 611.94 411.34H612.89C618.579 411.34 623.19 406.729 623.19 401.04V400.09C623.19 394.401 618.579 389.79 612.89 389.79Z" fill="black" stroke="#C06520" stroke-width="2.19" stroke-miterlimit="10"/>
<path d="M618.72 402.17C618.72 398.69 615.89 395.86 612.41 395.86C608.93 395.86 606.1 398.69 606.1 402.17" stroke="#C06520" stroke-width="1.99" stroke-miterlimit="10" stroke-linecap="round"/>
<path d="M586 337.19H585.53C582.719 337.19 580.44 339.469 580.44 342.28V347.89C580.44 350.701 582.719 352.98 585.53 352.98H586C588.811 352.98 591.09 350.701 591.09 347.89V342.28C591.09 339.469 588.811 337.19 586 337.19Z" fill="black" stroke="#C06520" stroke-width="2.19" stroke-miterlimit="10"/>
<path d="M589.03 466.21H588.56C585.749 466.21 583.47 468.489 583.47 471.3V476.91C583.47 479.721 585.749 482 588.56 482H589.03C591.841 482 594.12 479.721 594.12 476.91V471.3C594.12 468.489 591.841 466.21 589.03 466.21Z" fill="black" stroke="#C06520" stroke-width="2.19" stroke-miterlimit="10"/>
<path d="M491.54 433.01H491.07C488.259 433.01 485.98 435.289 485.98 438.1V443.71C485.98 446.521 488.259 448.8 491.07 448.8H491.54C494.351 448.8 496.63 446.521 496.63 443.71V438.1C496.63 435.289 494.351 433.01 491.54 433.01Z" fill="black" stroke="#C06520" stroke-width="2.19" stroke-miterlimit="10"/>
<path d="M510.68 488.01H485.5C481.14 488.01 477.61 491.54 477.61 495.9V570.1" stroke="#C06520" stroke-width="2.19" stroke-linecap="round" stroke-linejoin="round"/>
<path d="M506.55 480.62H506.08C503.269 480.62 500.99 482.899 500.99 485.71V491.32C500.99 494.131 503.269 496.41 506.08 496.41H506.55C509.361 496.41 511.64 494.131 511.64 491.32V485.71C511.64 482.899 509.361 480.62 506.55 480.62Z" fill="black" stroke="#C06520" stroke-width="2.19" stroke-linecap="round" stroke-linejoin="round"/>
<path d="M533.84 350.43H532.89C527.201 350.43 522.59 355.042 522.59 360.73V361.68C522.59 367.369 527.201 371.98 532.89 371.98H533.84C539.528 371.98 544.14 367.369 544.14 361.68V360.73C544.14 355.042 539.528 350.43 533.84 350.43Z" fill="black" stroke="#C06520" stroke-width="2.19" stroke-miterlimit="10"/>
<path d="M533.66 354.6H533.08C529.589 354.6 526.76 357.43 526.76 360.92V361.5C526.76 364.991 529.589 367.82 533.08 367.82H533.66C537.15 367.82 539.98 364.991 539.98 361.5V360.92C539.98 357.43 537.15 354.6 533.66 354.6Z" fill="black" stroke="#C06520" stroke-width="2.19" stroke-miterlimit="10"/>
<path d="M447.05 4.55C443.55 0.639997 442.5 6.66 442.92 9.45C443.34 12.24 446.89 37.28 446.89 37.28H435.33C435.54 36.65 438.22 13.46 438.95 7.82C440.32 -2.69 447.05 4.56 447.05 4.56V4.55Z" fill="black" stroke="#C06520" stroke-width="2.19" stroke-miterlimit="10"/>
<path d="M440.62 65.8999C449.738 65.8999 457.13 58.5081 457.13 49.3899C457.13 40.2717 449.738 32.8799 440.62 32.8799C431.502 32.8799 424.11 40.2717 424.11 49.3899C424.11 58.5081 431.502 65.8999 440.62 65.8999Z" fill="black" stroke="#C06520" stroke-width="2.19" stroke-miterlimit="10"/>
<path d="M460.54 45.98H421.25V78.86H460.54V45.98Z" fill="black" stroke="#C06520" stroke-width="2.19" stroke-miterlimit="10"/>
<path d="M447.1 54.1401H434.7V64.2101H447.1V54.1401Z" fill="black" stroke="#C06520" stroke-width="2.19" stroke-miterlimit="10"/>
<path d="M442.44 2.58984C451.83 2.58984 451.83 21.1298 464.25 21.1298H620.48" stroke="#C06520" stroke-width="2.19" stroke-miterlimit="10"/>
<path d="M457.59 291.19H465.13C464.32 288.74 464.32 286.1 465.13 283.65H457.59C458.4 286.1 458.4 288.74 457.59 291.19Z" fill="black" stroke="#C06520" stroke-width="2.19" stroke-linecap="round" stroke-linejoin="round"/>
<path d="M457.59 294.96H465.14" stroke="#C06520" stroke-width="2.19" stroke-linecap="round" stroke-linejoin="round"/>
<path d="M456.31 468.4H463.85C463.04 465.95 463.04 463.31 463.85 460.86H456.31C457.12 463.31 457.12 465.95 456.31 468.4Z" fill="black" stroke="#C06520" stroke-width="2.19" stroke-linecap="round" stroke-linejoin="round"/>
<path d="M456.31 472.18H463.85" stroke="#C06520" stroke-width="2.19" stroke-linecap="round" stroke-linejoin="round"/>
<path d="M162.18 586.91H154.64C155.45 589.36 155.45 592 154.64 594.45H162.18C161.37 592 161.37 589.36 162.18 586.91Z" fill="black" stroke="#C06520" stroke-width="2.19" stroke-linecap="round" stroke-linejoin="round"/>
<path d="M162.18 583.14H154.64" stroke="#C06520" stroke-width="2.19" stroke-linecap="round" stroke-linejoin="round"/>
<path d="M188.58 586.91H181.04C181.85 589.36 181.85 592 181.04 594.45H188.58C187.77 592 187.77 589.36 188.58 586.91Z" fill="black" stroke="#C06520" stroke-width="2.19" stroke-linecap="round" stroke-linejoin="round"/>
<path d="M188.58 583.14H181.04" stroke="#C06520" stroke-width="2.19" stroke-linecap="round" stroke-linejoin="round"/>
<path d="M53.6899 287.7H148.02C155.98 287.7 157.9 284.22 157.9 277.82V230.33C157.9 230.33 156.85 221.46 166.77 221.46H208.25" stroke="#C06520" stroke-width="2.19" stroke-linejoin="round"/>
<path d="M181.72 361.77H160.29C159.09 361.77 158.12 360.8 158.12 359.6V323.79C158.12 322.59 157.15 321.62 155.95 321.62H96.1902C91.6202 321.62 87.9102 317.91 87.9102 313.34V288.18" stroke="#C06520" stroke-width="2.19" stroke-linecap="round" stroke-linejoin="round"/>
<path d="M258.37 494.49H7.77984C4.49984 494.49 1.83984 491.83 1.83984 488.55V410.45C1.83984 407.17 4.49984 404.51 7.77984 404.51L48.1598 403.86C51.4398 403.86 53.6898 401.88 53.6898 398.6L53.7798 355.87" stroke="#C06520" stroke-width="2.19" stroke-linecap="round" stroke-linejoin="round"/>
<path d="M53.6899 393.68H181.72" stroke="#C06520" stroke-width="2.19" stroke-linecap="round" stroke-linejoin="round"/>
<path d="M190.67 281.75H179.62C171.98 281.75 169.83 276.82 169.83 271.96V256.94C169.83 247.97 162.01 249.12 162.01 249.12H51.9302" stroke="#C06520" stroke-width="2.19" stroke-linejoin="round"/>
<path d="M120.7 287.56V299.71C120.7 303.06 123.42 305.78 126.77 305.78H155.65C157.16 305.78 158.63 306.31 159.8 307.27L175.08 319.92C176.25 320.89 177.71 321.41 179.23 321.41H181.73" stroke="#C06520" stroke-width="2.19" stroke-linecap="round" stroke-linejoin="round"/>
<path d="M112.21 374.78H165.47C165.47 374.78 173.44 373.53 173.44 382.75V458.63" stroke="#C06520" stroke-width="2.19" stroke-linecap="round" stroke-linejoin="round"/>
<path d="M152.18 394.48V493.4" stroke="#C06520" stroke-width="2.19" stroke-linecap="round" stroke-linejoin="round"/>
<path d="M122.77 394.59V394.82C122.77 411.09 135.96 424.28 152.23 424.28" stroke="#C06520" stroke-width="2.19" stroke-linecap="round" stroke-linejoin="round"/>
<path d="M152.01 407.48H126.46" stroke="#C06520" stroke-width="2.19" stroke-linecap="round" stroke-linejoin="round"/>
<path d="M170.9 568.8H199.41" stroke="#C06520" stroke-width="2.19" stroke-linecap="round" stroke-linejoin="round"/>
<path d="M187.44 281.71H259.72V222.26H248.89" stroke="#C06520" stroke-width="2.19" stroke-linecap="round" stroke-linejoin="round"/>
<path d="M205.06 321.29H228.77" stroke="#C06520" stroke-width="2.19" stroke-linejoin="round"/>
<path d="M259.61 281.8H286.89" stroke="#C06520" stroke-width="2.19" stroke-linecap="round" stroke-linejoin="round"/>
<path d="M259.72 254.26V312.31C259.72 317.45 263.89 321.62 269.03 321.62H366.2C368.54 321.62 370.43 323.51 370.43 325.85V346.92C370.43 351.87 374.44 355.88 379.39 355.88H474.73" stroke="#C06520" stroke-width="2.19" stroke-linecap="round" stroke-linejoin="round"/>
<path d="M228.58 393.9V536.59" stroke="#C06520" stroke-width="2.19" stroke-linecap="round" stroke-linejoin="round"/>
<path d="M392.72 393.68V164.55H418.33V299.71C418.33 303.06 421.05 305.78 424.4 305.78H443.06V355.88" stroke="#C06520" stroke-width="2.19" stroke-linecap="round" stroke-linejoin="round"/>
<path d="M392.72 321.62H443.13" stroke="#C06520" stroke-width="2.19" stroke-linecap="round" stroke-linejoin="round"/>
<path d="M477.61 494.49H292.85C289.57 494.49 286.91 491.83 286.91 488.55V420.33C286.91 417.05 289.57 414.39 292.85 414.39H332.82C336.1 414.39 338.76 411.73 338.76 408.45V356.83C338.76 354.08 336.53 351.85 333.78 351.85H235.57C231.71 351.85 228.58 348.72 228.58 344.86V282.19" stroke="#C06520" stroke-width="2.19" stroke-linecap="round" stroke-linejoin="round"/>
<path d="M301.54 438.92H376.75C383.79 438.92 389.49 444.63 389.49 451.66V494.49" stroke="#C06520" stroke-width="2.19" stroke-linecap="round" stroke-linejoin="round"/>
<path d="M354.83 393.67V420.99C354.83 422.08 355.71 422.96 356.8 422.96H383.14C395.52 422.96 405.55 433 405.55 445.37V494.25" stroke="#C06520" stroke-width="2.19" stroke-linecap="round" stroke-linejoin="round"/>
<path d="M339.76 393.68H438.28V443.94" stroke="#C06520" stroke-width="2.19" stroke-linecap="round" stroke-linejoin="round"/>
<path d="M259.72 393.68H181.72" stroke="#C06520" stroke-width="2.19" stroke-linecap="round" stroke-linejoin="round"/>
<path d="M231.18 483.18H153.18" stroke="#C06520" stroke-width="2.19" stroke-linecap="round" stroke-linejoin="round"/>
<path d="M259.72 355.87V483.18" stroke="#C06520" stroke-width="2.19" stroke-linecap="round" stroke-linejoin="round"/>
<path d="M228.58 483.18H259.72L260.07 592.23H188.58" stroke="#C06520" stroke-width="2.19" stroke-linecap="round" stroke-linejoin="round"/>
<path d="M314.27 494.49V415" stroke="#C06520" stroke-width="2.19" stroke-linecap="round" stroke-linejoin="round"/>
<path d="M314.27 494.49V511.83" stroke="#C06520" stroke-width="2.19" stroke-linecap="round" stroke-linejoin="round"/>
<path d="M353.98 494.49V511.83" stroke="#C06520" stroke-width="2.19" stroke-linecap="round" stroke-linejoin="round"/>
<path d="M393.68 494.49V511.83" stroke="#C06520" stroke-width="2.19" stroke-linecap="round" stroke-linejoin="round"/>
<path d="M314.27 519.81V537.15" stroke="#C06520" stroke-width="2.19" stroke-linecap="round" stroke-linejoin="round"/>
<path d="M353.98 519.81V537.15" stroke="#C06520" stroke-width="2.19" stroke-linecap="round" stroke-linejoin="round"/>
<path d="M393.68 519.81V537.15" stroke="#C06520" stroke-width="2.19" stroke-linecap="round" stroke-linejoin="round"/>
<path d="M312.11 333.92V321.62" stroke="#C06520" stroke-width="2.19" stroke-linecap="round" stroke-linejoin="round"/>
<path d="M312.11 345.24V368.51C312.11 372.24 309.09 375.26 305.36 375.26H260.07" stroke="#C06520" stroke-width="2.19" stroke-linecap="round" stroke-linejoin="round"/>
<path d="M286.89 304.36H392.19" stroke="#C06520" stroke-width="2.19" stroke-linecap="round" stroke-linejoin="round"/>
<path d="M338.76 270.16V303.58" stroke="#C06520" stroke-width="2.19" stroke-linecap="round" stroke-linejoin="round"/>
<path d="M393.11 338.66H443.06" stroke="#C06520" stroke-width="2.19" stroke-linecap="round" stroke-linejoin="round"/>
<path d="M355.13 393.67V305.05" stroke="#C06520" stroke-width="2.19" stroke-linecap="round" stroke-linejoin="round"/>
<path d="M273.54 281.92V297.46C273.54 299.99 271.49 302.04 268.96 302.04H260.31" stroke="#C06520" stroke-width="2.19" stroke-linecap="round" stroke-linejoin="round"/>
<path d="M317.5 340.73C317.38 340.85 354.79 340.73 354.79 340.73" stroke="#C06520" stroke-width="2.19" stroke-linecap="round" stroke-linejoin="round"/>
<path d="M382.64 355.69V304.47" stroke="#C06520" stroke-width="2.19" stroke-linecap="round" stroke-linejoin="round"/>
<path d="M387.59 374.78H355.42" stroke="#C06520" stroke-width="2.19" stroke-linecap="round" stroke-linejoin="round"/>
<path d="M397.28 374.78H479.57" stroke="#C06520" stroke-width="2.19" stroke-linecap="round" stroke-linejoin="round"/>
<path d="M370.44 394.48V422.66" stroke="#C06520" stroke-width="2.19" stroke-linecap="round" stroke-linejoin="round"/>
<path d="M370.79 408.46H390.23C407.43 408.46 421.37 422.4 421.37 439.6V494.09" stroke="#C06520" stroke-width="2.19" stroke-linecap="round" stroke-linejoin="round"/>
<path d="M273.19 375.49V592.23" stroke="#C06520" stroke-width="2.19" stroke-linecap="round" stroke-linejoin="round"/>
<path d="M273.65 421.27H287.23" stroke="#C06520" stroke-width="2.19" stroke-linejoin="round"/>
<path d="M273.65 441.06H287.23" stroke="#C06520" stroke-width="2.19" stroke-linejoin="round"/>
<path d="M273.65 460.86H287.23" stroke="#C06520" stroke-width="2.19" stroke-linejoin="round"/>
<path d="M273.65 483.18H287.23" stroke="#C06520" stroke-width="2.19" stroke-linejoin="round"/>
<path d="M245.91 281.92V333.5C245.91 335.71 247.7 337.51 249.92 337.51H286.94L303.35 351.78" stroke="#C06520" stroke-width="2.19" stroke-linecap="round" stroke-linejoin="round"/>
<path d="M206.16 381.94H181.72" stroke="#C06520" stroke-width="2.19" stroke-linejoin="round"/>
<path d="M206.16 361.77H181.72" stroke="#C06520" stroke-width="2.19" stroke-linejoin="round"/>
<path d="M228.58 341.59H181.72" stroke="#C06520" stroke-width="2.19" stroke-linejoin="round"/>
<path d="M206.16 321.42H181.72" stroke="#C06520" stroke-width="2.19" stroke-linecap="round" stroke-linejoin="round"/>
<path d="M206.16 311.33H186.25C183.75 311.33 181.72 313.36 181.72 315.86V392.15" stroke="#C06520" stroke-width="2.19" stroke-linejoin="round"/>
<path d="M206.16 291.16H177.3C174.2 291.16 171.69 293.67 171.69 296.77V350.27C171.69 353.37 169.18 355.88 166.08 355.88H53.6802" stroke="#C06520" stroke-width="2.19" stroke-linejoin="round"/>
<path d="M205.98 393.44V282.03" stroke="#C06520" stroke-width="2.19" stroke-linecap="round" stroke-linejoin="round"/>
<path d="M217.95 341.42V397.08" stroke="#C06520" stroke-width="2.19" stroke-linejoin="round"/>
<path d="M248.94 360.04H236.61C232.4 360.04 228.99 363.45 228.99 367.66V393.9" stroke="#C06520" stroke-width="2.19" stroke-linecap="round" stroke-linejoin="round"/>
<path d="M300.64 494.26V375.66" stroke="#C06520" stroke-width="2.19" stroke-linecap="round" stroke-linejoin="round"/>
<path d="M312.11 368.51V369.3C312.11 372.53 314.73 375.14 317.95 375.14H338.33" stroke="#C06520" stroke-width="2.19" stroke-linecap="round" stroke-linejoin="round"/>
<path d="M370.79 439.31V493.57" stroke="#C06520" stroke-width="2.19" stroke-linecap="round" stroke-linejoin="round"/>
<path d="M353.29 439.31V493.57" stroke="#C06520" stroke-width="2.19" stroke-linecap="round" stroke-linejoin="round"/>
<path d="M335.8 439.48V493.57" stroke="#C06520" stroke-width="2.19" stroke-linecap="round" stroke-linejoin="round"/>
<path d="M314.27 446.85H300.81" stroke="#C06520" stroke-width="2.19" stroke-linecap="round" stroke-linejoin="round"/>
<path d="M243.73 393.44C243.58 393.89 243.63 409.66 243.67 420.67C243.7 426.47 239 431.19 233.2 431.19H228.77" stroke="#C06520" stroke-width="2.19" stroke-linejoin="round"/>
<path d="M258.98 444.38H254.55C248.75 444.38 244.05 449.09 244.08 454.9C244.13 465.91 244.02 482.13 244.02 482.13" stroke="#C06520" stroke-width="2.19" stroke-linecap="round" stroke-linejoin="round"/>
<path d="M137.51 439.71H258.92" stroke="#C06520" stroke-width="2.19" stroke-linecap="round" stroke-linejoin="round"/>
<path d="M252.01 393.9V439.48" stroke="#C06520" stroke-width="2.19" stroke-linecap="round" stroke-linejoin="round"/>
<path d="M229.23 459.96H243.96" stroke="#C06520" stroke-width="2.19" stroke-linecap="round" stroke-linejoin="round"/>
<path d="M136.3 459.73H194.12C200.54 459.73 205.75 464.94 205.75 471.36V536.59" stroke="#C06520" stroke-width="2.19" stroke-linecap="round" stroke-linejoin="round"/>
<path d="M216.77 424.28H152.24" stroke="#C06520" stroke-width="2.19" stroke-linecap="round" stroke-linejoin="round"/>
<path d="M229.63 386.07H259.32" stroke="#C06520" stroke-width="2.19" stroke-linecap="round" stroke-linejoin="round"/>
<path d="M229.63 375.54H259.32" stroke="#C06520" stroke-width="2.19" stroke-linecap="round" stroke-linejoin="round"/>
<path d="M310.5 515.98H273.15" stroke="#C06520" stroke-width="2.19" stroke-linecap="round" stroke-linejoin="round"/>
<path d="M205.75 505.91H194.55C189.09 505.91 184.67 510.33 184.67 515.79V583.15" stroke="#C06520" stroke-width="2.19" stroke-linecap="round" stroke-linejoin="round"/>
<path d="M258.98 561.55H249.87C244.41 561.55 239.99 565.97 239.99 571.43V592.24" stroke="#C06520" stroke-width="2.19" stroke-linecap="round" stroke-linejoin="round"/>
<path d="M227.47 537.67H144.24" stroke="#C06520" stroke-width="2.19" stroke-linecap="round" stroke-linejoin="round"/>
<path d="M176.47 483.81V536.59" stroke="#C06520" stroke-width="2.19" stroke-linecap="round" stroke-linejoin="round"/>
<path d="M273.61 537.67H421.37" stroke="#C06520" stroke-width="2.19" stroke-linecap="round" stroke-linejoin="round"/>
<path d="M464.51 494.35C462.89 494.62 440.72 518.14 440.72 518.14V697.67" stroke="#C06520" stroke-width="2.19" stroke-linecap="round" stroke-linejoin="round"/>
<path d="M228.58 287.05C231.259 287.05 233.43 284.879 233.43 282.2C233.43 279.522 231.259 277.35 228.58 277.35C225.901 277.35 223.73 279.522 223.73 282.2C223.73 284.879 225.901 287.05 228.58 287.05Z" fill="black" stroke="#C06520" stroke-width="2.19" stroke-miterlimit="10"/>
<path d="M479.57 360.54C482.249 360.54 484.42 358.368 484.42 355.69C484.42 353.011 482.249 350.84 479.57 350.84C476.892 350.84 474.72 353.011 474.72 355.69C474.72 358.368 476.892 360.54 479.57 360.54Z" fill="black" stroke="#C06520" stroke-width="2.19" stroke-miterlimit="10"/>
<path d="M392.43 379.63C395.109 379.63 397.28 377.459 397.28 374.78C397.28 372.102 395.109 369.93 392.43 369.93C389.752 369.93 387.58 372.102 387.58 374.78C387.58 377.459 389.752 379.63 392.43 379.63Z" fill="black" stroke="#C06520" stroke-width="2.19" stroke-miterlimit="10"/>
<path d="M438.28 453.42C440.959 453.42 443.13 451.249 443.13 448.57C443.13 445.892 440.959 443.72 438.28 443.72C435.602 443.72 433.43 445.892 433.43 448.57C433.43 451.249 435.602 453.42 438.28 453.42Z" fill="black" stroke="#C06520" stroke-width="2.19" stroke-miterlimit="10"/>
<path d="M336.14 502.03C340.304 502.03 343.68 498.654 343.68 494.49C343.68 490.326 340.304 486.95 336.14 486.95C331.976 486.95 328.6 490.326 328.6 494.49C328.6 498.654 331.976 502.03 336.14 502.03Z" fill="black" stroke="#C06520" stroke-width="2.19" stroke-miterlimit="10"/>
<path d="M318.05 511.84H310.51C311.32 514.29 311.32 516.93 310.51 519.38H318.05C317.24 516.93 317.24 514.29 318.05 511.84Z" fill="black" stroke="#C06520" stroke-width="2.19" stroke-linecap="round" stroke-linejoin="round"/>
<path d="M318.05 508.06H310.5" stroke="#C06520" stroke-width="2.19" stroke-linecap="round" stroke-linejoin="round"/>
<path d="M357.75 511.84H350.21C351.02 514.29 351.02 516.93 350.21 519.38H357.75C356.94 516.93 356.94 514.29 357.75 511.84Z" fill="black" stroke="#C06520" stroke-width="2.19" stroke-linecap="round" stroke-linejoin="round"/>
<path d="M357.75 508.06H350.21" stroke="#C06520" stroke-width="2.19" stroke-linecap="round" stroke-linejoin="round"/>
<path d="M397.46 511.84H389.92C390.73 514.29 390.73 516.93 389.92 519.38H397.46C396.65 516.93 396.65 514.29 397.46 511.84Z" fill="black" stroke="#C06520" stroke-width="2.19" stroke-linecap="round" stroke-linejoin="round"/>
<path d="M397.46 508.06H389.91" stroke="#C06520" stroke-width="2.19" stroke-linecap="round" stroke-linejoin="round"/>
<path d="M312.35 331.86H311.88C309.069 331.86 306.79 334.139 306.79 336.95V342.56C306.79 345.371 309.069 347.65 311.88 347.65H312.35C315.161 347.65 317.44 345.371 317.44 342.56V336.95C317.44 334.139 315.161 331.86 312.35 331.86Z" fill="black" stroke="#C06520" stroke-width="2.19" stroke-miterlimit="10"/>
<path d="M228.81 475.29H228.34C225.529 475.29 223.25 477.569 223.25 480.38V485.99C223.25 488.801 225.529 491.08 228.34 491.08H228.81C231.621 491.08 233.9 488.801 233.9 485.99V480.38C233.9 477.569 231.621 475.29 228.81 475.29Z" fill="black" stroke="#C06520" stroke-width="2.19" stroke-linecap="round" stroke-linejoin="round"/>
<path d="M169.53 560.91H169.06C166.249 560.91 163.97 563.189 163.97 566V571.61C163.97 574.421 166.249 576.7 169.06 576.7H169.53C172.341 576.7 174.62 574.421 174.62 571.61V566C174.62 563.189 172.341 560.91 169.53 560.91Z" fill="black" stroke="#C06520" stroke-width="2.19" stroke-linecap="round" stroke-linejoin="round"/>
<path d="M228.82 529.78H228.35C225.539 529.78 223.26 532.059 223.26 534.87V540.48C223.26 543.291 225.539 545.57 228.35 545.57H228.82C231.631 545.57 233.91 543.291 233.91 540.48V534.87C233.91 532.059 231.631 529.78 228.82 529.78Z" fill="black" stroke="#C06520" stroke-width="2.19" stroke-linecap="round" stroke-linejoin="round"/>
<path d="M260.19 345.1H259.24C253.551 345.1 248.94 349.712 248.94 355.4V356.35C248.94 362.039 253.551 366.65 259.24 366.65H260.19C265.878 366.65 270.49 362.039 270.49 356.35V355.4C270.49 349.712 265.878 345.1 260.19 345.1Z" fill="black" stroke="#C06520" stroke-width="2.19" stroke-miterlimit="10"/>
<path d="M260.01 349.27H259.43C255.939 349.27 253.11 352.1 253.11 355.59V356.17C253.11 359.66 255.939 362.49 259.43 362.49H260.01C263.5 362.49 266.33 359.66 266.33 356.17V355.59C266.33 352.1 263.5 349.27 260.01 349.27Z" fill="black" stroke="#C06520" stroke-width="2.19" stroke-miterlimit="10"/>
<path d="M188.01 221.49V297.68C188.01 299.65 189.61 301.25 191.58 301.25H206.16" stroke="#C06520" stroke-width="2.19" stroke-linejoin="round"/>
<path d="M112.21 515.61H176.47" stroke="#C06520" stroke-width="2.19" stroke-linecap="round" stroke-linejoin="round"/>
<path d="M163.25 494.49V502.15C163.25 504.22 164.93 505.9 167 505.9H176.46" stroke="#C06520" stroke-width="2.19" stroke-linecap="round" stroke-linejoin="round"/>
<path d="M455.37 375.14V394.17" stroke="#C06520" stroke-width="2.19" stroke-miterlimit="10"/>
<path d="M455.37 379.99C458.049 379.99 460.22 377.819 460.22 375.14C460.22 372.461 458.049 370.29 455.37 370.29C452.691 370.29 450.52 372.461 450.52 375.14C450.52 377.819 452.691 379.99 455.37 379.99Z" fill="black" stroke="#C06520" stroke-width="2.19" stroke-miterlimit="10"/>
<path d="M286.89 265.41H417.92" stroke="#C06520" stroke-width="2.19" stroke-linecap="round" stroke-linejoin="round"/>
<path d="M188.01 265.41H259.32" stroke="#C06520" stroke-width="2.19" stroke-linecap="round" stroke-linejoin="round"/>
<path d="M228.77 264.87V245.05" stroke="#C06520" stroke-width="2.19" stroke-linejoin="round"/>
<path d="M228.58 270.62C231.259 270.62 233.43 268.448 233.43 265.77C233.43 263.091 231.259 260.92 228.58 260.92C225.901 260.92 223.73 263.091 223.73 265.77C223.73 268.448 225.901 270.62 228.58 270.62Z" fill="black" stroke="#C06520" stroke-width="2.19" stroke-miterlimit="10"/>
<path d="M312.11 303.58V265.77" stroke="#C06520" stroke-width="2.19" stroke-linecap="round" stroke-linejoin="round"/>
<path d="M366.79 303.58V265.77" stroke="#C06520" stroke-width="2.19" stroke-linecap="round" stroke-linejoin="round"/>
<path d="M266.51 581.99H265.61C260.203 581.99 255.82 586.373 255.82 591.78V592.68C255.82 598.087 260.203 602.47 265.61 602.47H266.51C271.917 602.47 276.3 598.087 276.3 592.68V591.78C276.3 586.373 271.917 581.99 266.51 581.99Z" fill="black" stroke="#C06520" stroke-width="2.19" stroke-miterlimit="10"/>
<path d="M266.05 588.07C268.34 588.07 270.21 589.93 270.21 592.23C270.21 594.52 268.35 596.38 266.05 596.38C263.76 596.38 261.89 594.52 261.89 592.22C261.89 589.93 263.75 588.07 266.05 588.07Z" fill="black" stroke="#C06520" stroke-width="2.19" stroke-miterlimit="10"/>
<path d="M314.27 537.16V560.61" stroke="#C06520" stroke-width="2.19" stroke-linecap="round" stroke-linejoin="round"/>
<path d="M353.29 537.16V560.61" stroke="#C06520" stroke-width="2.19" stroke-linecap="round" stroke-linejoin="round"/>
<path d="M393.7 537.16V560.61" stroke="#C06520" stroke-width="2.19" stroke-linecap="round" stroke-linejoin="round"/>
<path d="M169.29 560.91V537.71" stroke="#C06520" stroke-width="2.19" stroke-miterlimit="10"/>
<path d="M228.58 545.57V625.75" stroke="#C06520" stroke-width="2.19" stroke-miterlimit="10"/>
<path d="M466.21 268.62H447.68C445.13 268.62 443.07 270.69 443.07 273.23V312.03" stroke="#C06520" stroke-width="2.19" stroke-linecap="round" stroke-linejoin="round"/>
<path d="M461.37 294.96V305.97" stroke="#C06520" stroke-width="2.19" stroke-linecap="round" stroke-linejoin="round"/>
<path d="M465.19 315.45V309.29H466.62V306.06H456.12V309.29H457.55V315.45H449.97V344.71H472.77V315.45H465.19Z" stroke="#C06520" stroke-width="2.19" stroke-linecap="round" stroke-linejoin="round"/>
<path d="M472.77 325.39H449.97V331.67H472.77V325.39Z" stroke="#C06520" stroke-width="2.19" stroke-linecap="round" stroke-linejoin="round"/>
<path d="M318.09 575.72V569.56H319.52V566.33H309.02V569.56H310.45V575.72H302.87V604.99H325.67V575.72H318.09Z" stroke="#C06520" stroke-width="2.19" stroke-linecap="round" stroke-linejoin="round"/>
<path d="M325.67 585.66H302.87V591.94H325.67V585.66Z" stroke="#C06520" stroke-width="2.19" stroke-linecap="round" stroke-linejoin="round"/>
<circle cx="306.78" cy="578.96" r="1.095" fill="#C06520"/>
<circle cx="312.03" cy="578.96" r="1.095" fill="#C06520"/>
<circle cx="317.28" cy="578.96" r="1.095" fill="#C06520"/>
<circle cx="322.53" cy="578.96" r="1.095" fill="#C06520"/>
<circle cx="309.41" cy="582.51" r="1.095" fill="#C06520"/>
<circle cx="314.66" cy="582.51" r="1.095" fill="#C06520"/>
<circle cx="319.91" cy="582.51" r="1.095" fill="#C06520"/>
<circle cx="306.78" cy="596.98" r="1.095" fill="#C06520"/>
<circle cx="312.03" cy="596.98" r="1.095" fill="#C06520"/>
<circle cx="317.28" cy="596.98" r="1.095" fill="#C06520"/>
<circle cx="322.53" cy="596.98" r="1.095" fill="#C06520"/>
<circle cx="309.41" cy="600.53" r="1.095" fill="#C06520"/>
<circle cx="314.66" cy="600.53" r="1.095" fill="#C06520"/>
<circle cx="319.91" cy="600.53" r="1.095" fill="#C06520"/>
<path d="M357.1 575.74V569.58H358.53V566.35H348.02V569.58H349.45V575.74H341.87V605H364.67V575.74H357.1Z" stroke="#C06520" stroke-width="2.19" stroke-linecap="round" stroke-linejoin="round"/>
<path d="M364.67 585.68H341.87V591.96H364.67V585.68Z" stroke="#C06520" stroke-width="2.19" stroke-linecap="round" stroke-linejoin="round"/>
<circle cx="345.27" cy="578.96" r="1.095" fill="#C06520"/>
<circle cx="350.53" cy="578.96" r="1.095" fill="#C06520"/>
<circle cx="355.78" cy="578.96" r="1.095" fill="#C06520"/>
<circle cx="361.03" cy="578.96" r="1.095" fill="#C06520"/>
<circle cx="347.91" cy="582.51" r="1.095" fill="#C06520"/>
<circle cx="353.16" cy="582.51" r="1.095" fill="#C06520"/>
<circle cx="358.41" cy="582.51" r="1.095" fill="#C06520"/>
<circle cx="345.27" cy="596.98" r="1.095" fill="#C06520"/>
<circle cx="350.53" cy="596.98" r="1.095" fill="#C06520"/>
<circle cx="355.78" cy="596.98" r="1.095" fill="#C06520"/>
<circle cx="361.03" cy="596.98" r="1.095" fill="#C06520"/>
<circle cx="347.91" cy="600.53" r="1.095" fill="#C06520"/>
<circle cx="353.16" cy="600.53" r="1.095" fill="#C06520"/>
<circle cx="358.41" cy="600.53" r="1.095" fill="#C06520"/>
<path d="M397.52 575.72V569.56H398.95V566.33H388.45V569.56H389.88V575.72H382.3V604.99H405.1V575.72H397.52Z" stroke="#C06520" stroke-width="2.19" stroke-linecap="round" stroke-linejoin="round"/>
<path d="M405.1 585.66H382.3V591.94H405.1V585.66Z" stroke="#C06520" stroke-width="2.19" stroke-linecap="round" stroke-linejoin="round"/>
<circle cx="385.82" cy="578.96" r="1.095" fill="#C06520"/>
<circle cx="391.07" cy="578.96" r="1.095" fill="#C06520"/>
<circle cx="396.33" cy="578.96" r="1.095" fill="#C06520"/>
<circle cx="401.58" cy="578.96" r="1.095" fill="#C06520"/>
<circle cx="388.46" cy="582.51" r="1.095" fill="#C06520"/>
<circle cx="393.71" cy="582.51" r="1.095" fill="#C06520"/>
<circle cx="398.96" cy="582.51" r="1.095" fill="#C06520"/>
<circle cx="385.82" cy="596.98" r="1.095" fill="#C06520"/>
<circle cx="391.07" cy="596.98" r="1.095" fill="#C06520"/>
<circle cx="396.33" cy="596.98" r="1.095" fill="#C06520"/>
<circle cx="401.58" cy="596.98" r="1.095" fill="#C06520"/>
<circle cx="388.46" cy="600.53" r="1.095" fill="#C06520"/>
<circle cx="393.71" cy="600.53" r="1.095" fill="#C06520"/>
<circle cx="398.96" cy="600.53" r="1.095" fill="#C06520"/>
<path d="M286.89 337.51V237.68H260.07" stroke="#C06520" stroke-width="2.19" stroke-linecap="round" stroke-linejoin="round"/>
<path d="M477.61 499.41C475.99 499.68 458.88 518.14 458.88 518.14V703.75H440.71" stroke="#C06520" stroke-width="2.19" stroke-linecap="round" stroke-linejoin="round"/>
<path d="M441.27 499.41C439.65 499.68 422.54 518.14 422.54 518.14V612.53C422.54 619.9 416.57 625.87 409.2 625.87H228.57" stroke="#C06520" stroke-width="2.19" stroke-linecap="round" stroke-linejoin="round"/>
<path d="M422.55 542.52C425.229 542.52 427.4 540.348 427.4 537.67C427.4 534.991 425.229 532.82 422.55 532.82C419.872 532.82 417.7 534.991 417.7 537.67C417.7 540.348 419.872 542.52 422.55 542.52Z" fill="black" stroke="#C06520" stroke-width="2.19" stroke-miterlimit="10"/>
<path d="M440.72 542.52C443.399 542.52 445.57 540.348 445.57 537.67C445.57 534.991 443.399 532.82 440.72 532.82C438.042 532.82 435.87 534.991 435.87 537.67C435.87 540.348 438.042 542.52 440.72 542.52Z" fill="black" stroke="#C06520" stroke-width="2.19" stroke-miterlimit="10"/>
<path d="M440.72 707.37C443.399 707.37 445.57 705.199 445.57 702.52C445.57 699.841 443.399 697.67 440.72 697.67C438.042 697.67 435.87 699.841 435.87 702.52C435.87 705.199 438.042 707.37 440.72 707.37Z" fill="black" stroke="#C06520" stroke-width="2.19" stroke-miterlimit="10"/>
<path d="M477.61 620.27C480.288 620.27 482.46 618.098 482.46 615.42C482.46 612.741 480.288 610.57 477.61 610.57C474.931 610.57 472.76 612.741 472.76 615.42C472.76 618.098 474.931 620.27 477.61 620.27Z" fill="black" stroke="#C06520" stroke-width="2.19" stroke-miterlimit="10"/>
<path d="M441.51 486.59H441.04C438.229 486.59 435.95 488.869 435.95 491.68V497.29C435.95 500.101 438.229 502.38 441.04 502.38H441.51C444.321 502.38 446.6 500.101 446.6 497.29V491.68C446.6 488.869 444.321 486.59 441.51 486.59Z" fill="black" stroke="#C06520" stroke-width="2.19" stroke-miterlimit="10"/>
<path d="M158.41 537.67V582.51" stroke="#C06520" stroke-width="2.19" stroke-linecap="round" stroke-linejoin="round"/>
<path d="M143.12 531.06H142.54C139.05 531.06 136.22 533.89 136.22 537.38V537.96C136.22 541.451 139.05 544.28 142.54 544.28H143.12C146.611 544.28 149.44 541.451 149.44 537.96V537.38C149.44 533.89 146.611 531.06 143.12 531.06Z" fill="black" stroke="#C06520" stroke-width="2.19" stroke-miterlimit="10"/>
<path d="M208.68 576.7C213.8 576.7 217.95 572.55 217.95 567.43C217.95 562.31 213.8 558.16 208.68 558.16C203.56 558.16 199.41 562.31 199.41 567.43C199.41 572.55 203.56 576.7 208.68 576.7Z" stroke="#C06520" stroke-width="2.19" stroke-linecap="round" stroke-linejoin="round"/>
<path d="M588.8 482V488.3H567.04V491.75" stroke="#C06520" stroke-width="2.19" stroke-linejoin="round"/>
<path d="M576.89 536.06H557.19C556.28 536.06 555.52 535.3 555.41 534.28L554.42 525.26C553.75 519.2 553.75 513.07 554.42 507.01L555.41 497.99C555.52 496.97 556.29 496.21 557.19 496.21H576.89C577.8 496.21 578.56 496.97 578.67 497.99L579.66 507.01C580.33 513.07 580.33 519.2 579.66 525.26L578.67 534.28C578.56 535.3 577.79 536.06 576.89 536.06Z" fill="black" stroke="#C06520" stroke-width="1.98" stroke-miterlimit="10"/>
<path d="M555.75 501.18H578.34" stroke="#C06520" stroke-width="1.93" stroke-miterlimit="10"/>
<path d="M555.75 531.68H578.34" stroke="#C06520" stroke-width="1.93" stroke-miterlimit="10"/>
<path d="M579.63 513.39H554.52V517.27H579.63V513.39Z" fill="black" stroke="#C06520" stroke-width="1.93" stroke-miterlimit="10"/>
<path d="M615.8 536.06H596.1C595.19 536.06 594.43 535.3 594.32 534.28L593.33 525.26C592.66 519.2 592.66 513.07 593.33 507.01L594.32 497.99C594.43 496.97 595.2 496.21 596.1 496.21H615.8C616.71 496.21 617.47 496.97 617.58 497.99L618.57 507.01C619.24 513.07 619.24 519.2 618.57 525.26L617.58 534.28C617.47 535.3 616.7 536.06 615.8 536.06Z" fill="black" stroke="#C06520" stroke-width="1.98" stroke-miterlimit="10"/>
<path d="M594.66 501.18H617.25" stroke="#C06520" stroke-width="1.93" stroke-miterlimit="10"/>
<path d="M594.66 531.68H617.25" stroke="#C06520" stroke-width="1.93" stroke-miterlimit="10"/>
<path d="M618.54 513.39H593.43V517.27H618.54V513.39Z" fill="black" stroke="#C06520" stroke-width="1.93" stroke-miterlimit="10"/>
<path d="M588.8 466.21V399.02" stroke="#C06520" stroke-width="2.19" stroke-linejoin="round"/>
<path d="M477.61 574.08V611.35" stroke="#C06520" stroke-width="2.38" stroke-linejoin="round"/>
<path d="M481.59 552.12H458.07C452.012 552.12 447.1 557.032 447.1 563.09V563.1C447.1 569.159 452.012 574.07 458.07 574.07H481.59C487.649 574.07 492.56 569.159 492.56 563.1V563.09C492.56 557.032 487.649 552.12 481.59 552.12Z" fill="black" stroke="#C06520" stroke-width="2.38" stroke-linecap="round" stroke-linejoin="round"/>
<path d="M228.58 630.6C231.259 630.6 233.43 628.428 233.43 625.75C233.43 623.071 231.259 620.9 228.58 620.9C225.901 620.9 223.73 623.071 223.73 625.75C223.73 628.428 225.901 630.6 228.58 630.6Z" fill="black" stroke="#C06520" stroke-width="2.19" stroke-miterlimit="10"/>
<path d="M338.76 270.16C341.439 270.16 343.61 267.989 343.61 265.31C343.61 262.631 341.439 260.46 338.76 260.46C336.082 260.46 333.91 262.631 333.91 265.31C333.91 267.989 336.082 270.16 338.76 270.16Z" fill="black" stroke="#C06520" stroke-width="2.19" stroke-miterlimit="10"/>
<path d="M208.26 244.96V224.52C208.26 213.31 217.37 204.2 228.58 204.2C239.79 204.2 248.9 213.31 248.9 224.52V244.96H208.26Z" stroke="#C06520" stroke-width="2.19" stroke-linejoin="round"/>
<path d="M228.58 208.82C237.24 208.82 244.28 215.85 244.28 224.52V244.96H212.89V224.52C212.89 215.86 219.92 208.82 228.59 208.82H228.58Z" stroke="#C06520" stroke-width="2.19" stroke-linejoin="round"/>
<path d="M224.22 204.68L225.39 209.15" stroke="#C06520" stroke-width="2.19" stroke-linejoin="round"/>
<path d="M232.17 204.68L231.01 209.15" stroke="#C06520" stroke-width="2.19" stroke-linejoin="round"/>
<path d="M228.58 208.82V244.96" stroke="#C06520" stroke-width="2.19" stroke-linejoin="round"/>
<path d="M530.26 195.5H585.14C591.87 195.5 597.32 200.95 597.32 207.68C597.32 214.41 591.87 219.86 585.14 219.86H530.26C523.53 219.86 518.08 214.41 518.08 207.68C518.08 200.95 523.53 195.5 530.26 195.5Z" fill="black" stroke="#C06520" stroke-width="2.19" stroke-miterlimit="10"/>
<path d="M534.25 202.15H534.54" stroke="#C06520" stroke-width="2.19" stroke-linecap="round" stroke-linejoin="round"/>
<path d="M540.12 202.15H539.83" stroke="#C06520" stroke-width="2.19" stroke-linecap="round" stroke-linejoin="round"/>
<path d="M545.41 202.15H545.7" stroke="#C06520" stroke-width="2.19" stroke-linecap="round" stroke-linejoin="round"/>
<path d="M523.09 202.15H523.38" stroke="#C06520" stroke-width="2.19" stroke-linecap="round" stroke-linejoin="round"/>
<path d="M528.67 202.15H528.96" stroke="#C06520" stroke-width="2.19" stroke-linecap="round" stroke-linejoin="round"/>
<path d="M562.58 202.15H562.87" stroke="#C06520" stroke-width="2.19" stroke-linecap="round" stroke-linejoin="round"/>
<path d="M568.16 202.15H568.45" stroke="#C06520" stroke-width="2.19" stroke-linecap="round" stroke-linejoin="round"/>
<path d="M573.74 202.15H574.03" stroke="#C06520" stroke-width="2.19" stroke-linecap="round" stroke-linejoin="round"/>
<path d="M551.42 202.15H551.71" stroke="#C06520" stroke-width="2.19" stroke-linecap="round" stroke-linejoin="round"/>
<path d="M557 202.15H557.29" stroke="#C06520" stroke-width="2.19" stroke-linecap="round" stroke-linejoin="round"/>
<path d="M590.69 202.15H590.98" stroke="#C06520" stroke-width="2.19" stroke-linecap="round" stroke-linejoin="round"/>
<path d="M579.53 202.15H579.82" stroke="#C06520" stroke-width="2.19" stroke-linecap="round" stroke-linejoin="round"/>
<path d="M585.11 202.15H585.4" stroke="#C06520" stroke-width="2.19" stroke-linecap="round" stroke-linejoin="round"/>
<path d="M596.72 206.26H518.08" stroke="#C06520" stroke-width="2.19" stroke-linecap="round" stroke-linejoin="round"/>
<mask id="mask0_460_360" style="mask-type:luminance" maskUnits="userSpaceOnUse" x="392" y="164" width="27" height="88">
<path d="M418.33 164.55H392.72V251.97H418.33V164.55Z" fill="white"/>
</mask>
<g mask="url(#mask0_460_360)">
<path d="M402.2 173.05L391.03 184.22" stroke="#C06520" stroke-width="2.19" stroke-miterlimit="10" stroke-linecap="round"/>
<path d="M409.9 173.05L398.73 184.22" stroke="#C06520" stroke-width="2.19" stroke-miterlimit="10" stroke-linecap="round"/>
<path d="M417.61 173.05L406.44 184.22" stroke="#C06520" stroke-width="2.19" stroke-miterlimit="10" stroke-linecap="round"/>
<path d="M425.32 173.05L414.15 184.22" stroke="#C06520" stroke-width="2.19" stroke-miterlimit="10" stroke-linecap="round"/>
<path d="M397.81 176.37L386.63 165.2" stroke="#C06520" stroke-width="2.19" stroke-miterlimit="10" stroke-linecap="round"/>
<path d="M405.51 176.37L394.34 165.2" stroke="#C06520" stroke-width="2.19" stroke-miterlimit="10" stroke-linecap="round"/>
<path d="M413.22 176.37L402.05 165.2" stroke="#C06520" stroke-width="2.19" stroke-miterlimit="10" stroke-linecap="round"/>
<path d="M420.93 176.37L409.76 165.2" stroke="#C06520" stroke-width="2.19" stroke-miterlimit="10" stroke-linecap="round"/>
<path d="M428.64 176.37L417.46 165.2" stroke="#C06520" stroke-width="2.19" stroke-miterlimit="10" stroke-linecap="round"/>
</g>
<path d="M392.72 184.6H418.34" stroke="#C06520" stroke-width="2.19" stroke-linecap="round" stroke-linejoin="round"/>
<path d="M418.34 169.22H461.37V268.62" stroke="#C06520" stroke-width="2.19" stroke-miterlimit="10" stroke-linecap="round"/>
<path d="M461.37 228.05H502.23V268.62" stroke="#C06520" stroke-width="2.19" stroke-miterlimit="10" stroke-linecap="round"/>
<path d="M502.23 228.05V221.21C502.23 212.95 508.92 206.26 517.18 206.26H544.15" stroke="#C06520" stroke-width="2.19" stroke-miterlimit="10" stroke-linecap="round"/>
<path d="M588.8 488.3H607.78V491.75" stroke="#C06520" stroke-width="2.19" stroke-linejoin="round"/>
<path d="M164.68 603.1V654.02H154.08V603.1" stroke="#C06520" stroke-width="2.19" stroke-linecap="round" stroke-linejoin="round"/>
<path d="M149.43 654.02H168.4" stroke="#C06520" stroke-width="2.19" stroke-linecap="round" stroke-linejoin="round"/>
<path d="M157.07 609.86H159.76" stroke="#C06520" stroke-width="2.19" stroke-linecap="round" stroke-linejoin="round"/>
<path d="M157.07 617.33H159.76" stroke="#C06520" stroke-width="2.19" stroke-linecap="round" stroke-linejoin="round"/>
<path d="M157.07 624.81H159.76" stroke="#C06520" stroke-width="2.19" stroke-linecap="round" stroke-linejoin="round"/>
<path d="M157.07 632.28H159.76" stroke="#C06520" stroke-width="2.19" stroke-linecap="round" stroke-linejoin="round"/>
<path d="M157.07 639.76H159.76" stroke="#C06520" stroke-width="2.19" stroke-linecap="round" stroke-linejoin="round"/>
<path d="M157.07 647.23H159.76" stroke="#C06520" stroke-width="2.19" stroke-linecap="round" stroke-linejoin="round"/>
<path d="M189.82 617.33V654.02H179.8V617.33" stroke="#C06520" stroke-width="2.19" stroke-linecap="round" stroke-linejoin="round"/>
<path d="M176.47 654.02H192.39" stroke="#C06520" stroke-width="2.19" stroke-linecap="round" stroke-linejoin="round"/>
<path d="M182.78 624.81H185.47" stroke="#C06520" stroke-width="2.19" stroke-linecap="round" stroke-linejoin="round"/>
<path d="M182.78 632.28H185.47" stroke="#C06520" stroke-width="2.19" stroke-linecap="round" stroke-linejoin="round"/>
<path d="M182.78 639.76H185.47" stroke="#C06520" stroke-width="2.19" stroke-linecap="round" stroke-linejoin="round"/>
<path d="M182.78 647.23H185.47" stroke="#C06520" stroke-width="2.19" stroke-linecap="round" stroke-linejoin="round"/>
<path d="M158.41 594.46V600.53" stroke="#C06520" stroke-width="2.19" stroke-linecap="round" stroke-linejoin="round"/>
<path d="M184.67 594.46V600.53" stroke="#C06520" stroke-width="2.19" stroke-linecap="round" stroke-linejoin="round"/>
<path d="M560.71 267.02V252.65L549.04 240.98" stroke="#C06520" stroke-width="2.19" stroke-linecap="round" stroke-linejoin="round"/>
<path d="M220.46 452.56C220.46 442.5 236.65 442.18 236.65 424.83C236.65 409.98 220.46 407.59 220.46 401.01H215.05C215.05 407.59 198.86 409.98 198.86 424.83C198.86 442.18 215.05 442.5 215.05 452.56H220.46Z" fill="black" stroke="#C06520" stroke-width="2.19" stroke-linecap="round" stroke-linejoin="round"/>
<circle cx="201.6" cy="426.03" r="1.095" fill="#C06520"/>
<circle cx="206.85" cy="426.03" r="1.095" fill="#C06520"/>
<circle cx="212.1" cy="426.03" r="1.095" fill="#C06520"/>
<circle cx="217.35" cy="426.03" r="1.095" fill="#C06520"/>
<circle cx="222.84" cy="426.03" r="1.095" fill="#C06520"/>
<circle cx="228.34" cy="426.03" r="1.095" fill="#C06520"/>
<circle cx="233.83" cy="426.03" r="1.095" fill="#C06520"/>
<path d="M214.73 397.9H220.72" stroke="#C06520" stroke-width="2.19" stroke-linecap="round" stroke-linejoin="round"/>
<path d="M217.95 452.56V483.18" stroke="#C06520" stroke-width="2.19" stroke-linecap="round" stroke-linejoin="round"/>
<path d="M335.54 442.08L334.71 441.66L334.7 440.49L335.84 438.94L337.06 433.47L339.15 434.47L337.3 431.66L336.9 424.61L333.15 417.18L333.37 416.89L331.59 416.79L325.29 412.49L327.32 408.66L331.36 408.09L334.71 409.64L337.89 409.71L337.05 404.09L337.72 403.65L339.31 403.84L340.38 404.83L340.34 405.05L343.73 406.53L347.24 405.24L349.59 399.65L354.38 396.82L360.39 401.23L361.66 403.37L363.36 402.43L363.67 403.25L366.41 405.85L373.91 408.37L373.39 418.77L368.43 424.31L371.46 425.27L371.66 428.29L372.79 430.2L372.48 436.76L375.13 437.63L375.05 439.04L369.43 444.38L366.85 444.46L359.42 441.92L355.41 445.19L355.69 447.78L353.31 448.49L345.82 445.61L344.63 446.02L336.04 443.31L335.34 442.23L335.54 442.08Z" fill="black" stroke="#C06520" stroke-width="2.19" stroke-linecap="round" stroke-linejoin="round"/>
<path d="M266.92 168.47H193.94V244.96H266.92V168.47Z" stroke="#C06520" stroke-width="2.19" stroke-linecap="round" stroke-linejoin="round"/>
<path d="M266.92 180.39H193.94" stroke="#C06520" stroke-width="2.19" stroke-linecap="round" stroke-linejoin="round"/>
</g>
<defs>
<clipPath id="clip0_460_360">
<rect width="620.6" height="979.83" fill="white"/>
</clipPath>
</defs>
</svg>
