<svg width="382" height="770" viewBox="0 0 382 770" fill="none" xmlns="http://www.w3.org/2000/svg">
<g clip-path="url(#clip0_25_4424)">
<path d="M182.259 174.179H223.029" stroke="#C06520" stroke-width="2.19" stroke-linecap="round" stroke-linejoin="round"/>
<path d="M182.378 158.804V206.917C182.378 212.428 186.738 216.905 192.128 216.905H301.868" stroke="#C06520" stroke-width="2.19" stroke-linecap="round" stroke-linejoin="round"/>
<path d="M149.759 554.907V264.526C149.759 260.982 152.559 258.114 156.019 258.114H171.749" stroke="#C06520" stroke-width="2.19" stroke-linecap="round" stroke-linejoin="round"/>
<path d="M265.148 180.51H363.938C372.268 180.51 374.288 176.781 374.288 169.908V118.967C374.288 118.967 373.188 109.451 383.578 109.451H414.438" stroke="#C06520" stroke-width="2.19" stroke-linejoin="round"/>
<path d="M263.369 178.686V156.602" stroke="#C06520" stroke-width="2.19" stroke-linejoin="round"/>
<path d="M263.369 146.665V47.3861" stroke="#C06520" stroke-width="2.19" stroke-linejoin="round"/>
<path d="M321.658 180.51V294.191" stroke="#C06520" stroke-width="2.19" stroke-linecap="round" stroke-linejoin="round"/>
<path d="M322.708 216.905H372.249C373.499 216.905 374.518 217.95 374.518 219.23V257.643C374.518 258.923 375.538 259.968 376.788 259.968H399.228" stroke="#C06520" stroke-width="2.19" stroke-linecap="round" stroke-linejoin="round"/>
<path d="M413.439 402.342H217.079C213.649 402.342 210.859 399.494 210.859 395.97V312.189C210.859 308.676 213.639 305.818 217.079 305.818L259.359 305.121C262.789 305.121 265.149 303.001 265.149 299.477V254.683C265.149 251.732 262.809 249.335 259.929 249.335H157.079C153.039 249.335 149.759 245.976 149.759 241.837V174.61" stroke="#C06520" stroke-width="2.19" stroke-linecap="round" stroke-linejoin="round"/>
<path d="M265.059 292.317V334.069C265.059 341.106 267.719 342.725 273.519 342.725H304.929C312.299 342.725 318.279 348.84 318.279 356.4V401.358" stroke="#C06520" stroke-width="2.19" stroke-linecap="round" stroke-linejoin="round"/>
<path d="M282.299 294.191H413.439" stroke="#C06520" stroke-width="2.19" stroke-linecap="round" stroke-linejoin="round"/>
<path d="M182.378 253.648V390.203" stroke="#C06520" stroke-width="2.19" stroke-linecap="round" stroke-linejoin="round"/>
<path d="M227.779 402.342V305.603" stroke="#C06520" stroke-width="2.19" stroke-linecap="round" stroke-linejoin="round"/>
<path d="M281.089 343.319V756.232" stroke="#C06520" stroke-width="2.19" stroke-linecap="round" stroke-linejoin="round"/>
<path d="M237.239 230.098V216.905" stroke="#C06520" stroke-width="2.19" stroke-linecap="round" stroke-linejoin="round"/>
<path d="M237.239 242.237V267.2C237.239 271.195 234.079 274.442 230.169 274.442H182.739" stroke="#C06520" stroke-width="2.19" stroke-linecap="round" stroke-linejoin="round"/>
<path d="M414.439 174.128H397.029C389.029 174.128 386.769 168.832 386.769 163.618V147.505C386.769 137.887 378.579 139.116 378.579 139.116H263.309" stroke="#C06520" stroke-width="2.19" stroke-linejoin="round"/>
<path d="M224.049 158.804C224.159 185.58 224.019 216.823 224.019 216.823" stroke="#C06520" stroke-width="2.19" stroke-linecap="round" stroke-linejoin="round"/>
<path d="M224.928 198.385H321.098" stroke="#C06520" stroke-width="2.19" stroke-linecap="round" stroke-linejoin="round"/>
<path d="M263.369 183.88V216.546" stroke="#C06520" stroke-width="2.19" stroke-linejoin="round"/>
<path d="M335.329 180.356V193.396C335.329 196.992 338.169 199.901 341.679 199.901H371.919C373.509 199.901 375.039 200.464 376.259 201.509L392.259 215.081C393.479 216.116 395.019 216.69 396.599 216.69H399.219" stroke="#C06520" stroke-width="2.19" stroke-linecap="round" stroke-linejoin="round"/>
<path d="M322.069 235.179H346.339C350.399 235.179 353.689 231.809 353.689 227.65V160.187C353.689 156.059 350.449 152.709 346.429 152.658L296.649 152.617C292.899 152.617 289.849 155.731 289.849 159.572V180.51" stroke="#C06520" stroke-width="2.19" stroke-linecap="round" stroke-linejoin="round"/>
<path d="M282.299 294.181V199.122" stroke="#C06520" stroke-width="2.19" stroke-linecap="round" stroke-linejoin="round"/>
<path d="M196.849 174.312V190.979C196.849 193.693 194.699 195.895 192.049 195.895H182.989" stroke="#C06520" stroke-width="2.19" stroke-linecap="round" stroke-linejoin="round"/>
<path d="M242.888 237.392C242.768 237.515 281.938 237.392 281.938 237.392" stroke="#C06520" stroke-width="2.19" stroke-linecap="round" stroke-linejoin="round"/>
<path d="M316.279 273.92H282.599" stroke="#C06520" stroke-width="2.19" stroke-linecap="round" stroke-linejoin="round"/>
<path d="M326.428 273.92H382.208C382.208 273.92 390.558 272.578 390.558 282.473V294.202" stroke="#C06520" stroke-width="2.19" stroke-linecap="round" stroke-linejoin="round"/>
<path d="M298.329 295.052C298.509 295.605 298.329 342.725 298.329 342.725" stroke="#C06520" stroke-width="2.19" stroke-linecap="round" stroke-linejoin="round"/>
<path d="M298.688 310.048H319.048C337.058 310.048 351.658 325.004 351.658 343.452V401.348" stroke="#C06520" stroke-width="2.19" stroke-linecap="round" stroke-linejoin="round"/>
<path d="M196.969 312.773H211.189" stroke="#C06520" stroke-width="2.19" stroke-linejoin="round"/>
<path d="M196.969 334.008H211.189" stroke="#C06520" stroke-width="2.19" stroke-linejoin="round"/>
<path d="M196.969 355.242H211.189" stroke="#C06520" stroke-width="2.19" stroke-linejoin="round"/>
<path d="M108.698 248.936V319.267" stroke="#C06520" stroke-width="2.19" stroke-linecap="round" stroke-linejoin="round"/>
<path d="M237.239 267.2V268.05C237.239 271.512 239.979 274.319 243.359 274.319H264.699" stroke="#C06520" stroke-width="2.19" stroke-linecap="round" stroke-linejoin="round"/>
<path d="M231.608 351.227H211.188" stroke="#C06520" stroke-width="2.19" stroke-linecap="round" stroke-linejoin="round"/>
<path d="M149.958 334.428H154.598C160.678 334.428 165.598 329.378 165.568 323.15V287.257" stroke="#C06520" stroke-width="2.19" stroke-linecap="round" stroke-linejoin="round"/>
<path d="M165.928 390.48C166.088 389.998 166.038 373.076 165.988 361.265C165.958 355.037 170.878 349.987 176.958 349.987H181.598" stroke="#C06520" stroke-width="2.19" stroke-linejoin="round"/>
<path d="M149.759 343.565H181.539" stroke="#C06520" stroke-width="2.19" stroke-linecap="round" stroke-linejoin="round"/>
<path d="M150.448 365.301H165.868" stroke="#C06520" stroke-width="2.19" stroke-linecap="round" stroke-linejoin="round"/>
<path d="M148.999 319.687H42.9885" stroke="#C06520" stroke-width="2.19" stroke-linecap="round" stroke-linejoin="round"/>
<path d="M108.709 286.038H7.83862" stroke="#C06520" stroke-width="2.19" stroke-linecap="round" stroke-linejoin="round"/>
<path d="M148.999 334.428H77.2986C74.0186 334.428 71.3586 337.152 71.3586 340.512V359.217" stroke="#C06520" stroke-width="2.19" stroke-linecap="round" stroke-linejoin="round"/>
<path d="M151.169 334.305H130.539C127.959 334.305 125.859 336.446 125.859 339.099V554.897L413.899 555.573" stroke="#C06520" stroke-width="2.19" stroke-linecap="round" stroke-linejoin="round"/>
<path d="M150.869 286.038H181.959" stroke="#C06520" stroke-width="2.19" stroke-linecap="round" stroke-linejoin="round"/>
<path d="M150.869 274.739H181.959" stroke="#C06520" stroke-width="2.19" stroke-linecap="round" stroke-linejoin="round"/>
<path d="M196.479 274.678L196.458 554.907" stroke="#C06520" stroke-width="2.19" stroke-linecap="round" stroke-linejoin="round"/>
<path d="M43.0485 324.891C45.8541 324.891 48.1285 322.561 48.1285 319.687C48.1285 316.813 45.8541 314.484 43.0485 314.484C40.2429 314.484 37.9685 316.813 37.9685 319.687C37.9685 322.561 40.2429 324.891 43.0485 324.891Z" fill="black" stroke="#C06520" stroke-width="2.19" stroke-miterlimit="10"/>
<path d="M2.75854 286.038C2.75854 288.906 5.02854 291.241 7.83854 291.241C10.6485 291.241 12.9185 288.916 12.9185 286.038C12.9185 283.159 10.6485 280.834 7.83854 280.834C5.02854 280.834 2.75854 283.159 2.75854 286.038Z" fill="black" stroke="#C06520" stroke-width="2.19" stroke-miterlimit="10"/>
<path d="M263.369 185.375C266.174 185.375 268.449 183.046 268.449 180.172C268.449 177.298 266.174 174.968 263.369 174.968C260.563 174.968 258.289 177.298 258.289 180.172C258.289 183.046 260.563 185.375 263.369 185.375Z" fill="black" stroke="#C06520" stroke-width="2.19" stroke-miterlimit="10"/>
<path d="M335.329 185.713C338.134 185.713 340.409 183.384 340.409 180.51C340.409 177.636 338.134 175.306 335.329 175.306C332.523 175.306 330.249 177.636 330.249 180.51C330.249 183.384 332.523 185.713 335.329 185.713Z" fill="black" stroke="#C06520" stroke-width="2.19" stroke-miterlimit="10"/>
<path d="M321.359 279.123C324.164 279.123 326.439 276.794 326.439 273.92C326.439 271.046 324.164 268.716 321.359 268.716C318.553 268.716 316.279 271.046 316.279 273.92C316.279 276.794 318.553 279.123 321.359 279.123Z" fill="black" stroke="#C06520" stroke-width="2.19" stroke-miterlimit="10"/>
<path d="M227.778 359.319C232.141 359.319 235.678 355.696 235.678 351.227C235.678 346.758 232.141 343.135 227.778 343.135C223.415 343.135 219.878 346.758 219.878 351.227C219.878 355.696 223.415 359.319 227.778 359.319Z" fill="black" stroke="#C06520" stroke-width="2.19" stroke-miterlimit="10"/>
<path d="M281.088 768.698C285.452 768.698 288.988 765.075 288.988 760.606C288.988 756.137 285.452 752.513 281.088 752.513C276.725 752.513 273.188 756.137 273.188 760.606C273.188 765.075 276.725 768.698 281.088 768.698Z" fill="black" stroke="#C06520" stroke-width="2.19" stroke-miterlimit="10"/>
<path d="M237.728 227.886H236.758C233.947 227.886 231.668 230.22 231.668 233.1V239.614C231.668 242.494 233.947 244.828 236.758 244.828H237.728C240.54 244.828 242.818 242.494 242.818 239.614V233.1C242.818 230.22 240.54 227.886 237.728 227.886Z" fill="black" stroke="#C06520" stroke-width="2.19" stroke-miterlimit="10"/>
<path d="M138.819 326.776H137.849C135.037 326.776 132.759 329.11 132.759 331.99V338.505C132.759 341.384 135.037 343.718 137.849 343.718H138.819C141.63 343.718 143.909 341.384 143.909 338.505V331.99C143.909 329.11 141.63 326.776 138.819 326.776Z" fill="black" stroke="#C06520" stroke-width="2.19" stroke-miterlimit="10"/>
<path d="M183.359 242.083H181.389C175.7 242.083 171.089 246.807 171.089 252.634V254.652C171.089 260.479 175.7 265.203 181.389 265.203H183.359C189.047 265.203 193.659 260.479 193.659 254.652V252.634C193.659 246.807 189.047 242.083 183.359 242.083Z" fill="black" stroke="#C06520" stroke-width="2.19" stroke-miterlimit="10"/>
<path d="M182.979 246.559H181.778C178.288 246.559 175.458 249.458 175.458 253.033V254.263C175.458 257.838 178.288 260.736 181.778 260.736H182.979C186.469 260.736 189.298 257.838 189.298 254.263V253.033C189.298 249.458 186.469 246.559 182.979 246.559Z" fill="black" stroke="#C06520" stroke-width="2.19" stroke-miterlimit="10"/>
<path d="M414.458 184.156L399.228 184.218H394.598C391.358 184.218 388.728 186.912 388.728 190.231V247.615C388.728 250.933 386.098 253.627 382.858 253.627H281.938" stroke="#C06520" stroke-width="2.19" stroke-linejoin="round"/>
<path d="M138.329 319.687V326.776" stroke="#C06520" stroke-width="2.19" stroke-linecap="round" stroke-linejoin="round"/>
<path d="M75.3084 363.273H67.4084C68.2584 365.906 68.2584 368.743 67.4084 371.366H75.3084C74.4584 368.733 74.4584 365.896 75.3084 363.273Z" fill="black" stroke="#C06520" stroke-width="2.19" stroke-linecap="round" stroke-linejoin="round"/>
<path d="M75.3084 359.227H67.4084" stroke="#C06520" stroke-width="2.19" stroke-linecap="round" stroke-linejoin="round"/>
<path d="M120.689 334.428H48.9886C45.7086 334.428 43.0486 337.152 43.0486 340.512V359.217" stroke="#C06520" stroke-width="2.19" stroke-linecap="round" stroke-linejoin="round"/>
<path d="M132.759 334.428H105.459C102.179 334.428 99.5186 337.152 99.5186 340.512V359.217" stroke="#C06520" stroke-width="2.19" stroke-linecap="round" stroke-linejoin="round"/>
<path d="M46.9986 363.273H39.0986C39.9486 365.906 39.9486 368.743 39.0986 371.366H46.9986C46.1486 368.733 46.1486 365.896 46.9986 363.273Z" fill="black" stroke="#C06520" stroke-width="2.19" stroke-linecap="round" stroke-linejoin="round"/>
<path d="M46.9986 359.227H39.0986" stroke="#C06520" stroke-width="2.19" stroke-linecap="round" stroke-linejoin="round"/>
<path d="M103.429 363.273H95.5286C96.3786 365.906 96.3786 368.743 95.5286 371.366H103.429C102.579 368.733 102.579 365.896 103.429 363.273Z" fill="black" stroke="#C06520" stroke-width="2.19" stroke-linecap="round" stroke-linejoin="round"/>
<path d="M103.429 359.227H95.5286" stroke="#C06520" stroke-width="2.19" stroke-linecap="round" stroke-linejoin="round"/>
<path d="M340.249 213.422L321.549 207.573C321.549 207.573 304.099 212.49 303.069 213.422H340.249Z" fill="black" stroke="#C06520" stroke-width="2.19" stroke-linecap="round" stroke-linejoin="round"/>
<path d="M340.249 213.422H303.069V248.188H340.249V213.422Z" fill="black" stroke="#C06520" stroke-width="2.19" stroke-linecap="round" stroke-linejoin="round"/>
<path d="M181.959 152.74H154.639C151.949 152.74 149.769 150.507 149.769 147.751V34.4589H168.709" stroke="#C06520" stroke-width="2.19" stroke-linecap="round" stroke-linejoin="round"/>
<path d="M99.4785 248.844L108.529 258.114H108.869L117.919 248.844" stroke="#C06520" stroke-width="2.19" stroke-miterlimit="10" stroke-linecap="round"/>
<path d="M108.699 181.38C108.699 181.38 96.8286 199.214 86.0586 199.214H131.339C117.919 195.998 108.699 181.38 108.699 181.38Z" fill="black" stroke="#C06520" stroke-width="2.19" stroke-linecap="round" stroke-linejoin="round"/>
<path d="M108.699 248.936C118.609 248.936 127.519 246.119 133.799 241.653H83.5986C89.8786 246.129 98.7886 248.936 108.699 248.936Z" fill="black" stroke="#C06520" stroke-width="2.19" stroke-linecap="round" stroke-linejoin="round"/>
<path d="M143.109 220.992C143.109 214.108 138.539 207.942 131.339 203.732H86.0586C78.8586 207.942 74.2886 214.098 74.2886 220.992C74.2886 227.056 77.8386 232.557 83.5986 236.664H133.799C139.559 232.557 143.109 227.056 143.109 220.992Z" fill="black" stroke="#C06520" stroke-width="2.19" stroke-miterlimit="10"/>
<path d="M108.708 218.933C111.514 218.933 113.788 217.112 113.788 214.866C113.788 212.62 111.514 210.8 108.708 210.8C105.903 210.8 103.628 212.62 103.628 214.866C103.628 217.112 105.903 218.933 108.708 218.933Z" fill="black" stroke="#C06520" stroke-width="1.94" stroke-miterlimit="10"/>
<path d="M108.698 181.38V138.809C108.698 132.355 113.808 127.121 120.108 127.121H149.758" stroke="#C06520" stroke-width="2.19" stroke-linecap="round" stroke-linejoin="round"/>
<path d="M149.758 179.823C152.564 179.823 154.838 177.494 154.838 174.62C154.838 171.746 152.564 169.416 149.758 169.416C146.953 169.416 144.678 171.746 144.678 174.62C144.678 177.494 146.953 179.823 149.758 179.823Z" fill="black" stroke="#C06520" stroke-width="2.19" stroke-miterlimit="10"/>
<path d="M149.758 132.325C152.564 132.325 154.838 129.995 154.838 127.121C154.838 124.247 152.564 121.917 149.758 121.917C146.953 121.917 144.678 124.247 144.678 127.121C144.678 129.995 146.953 132.325 149.758 132.325Z" fill="black" stroke="#C06520" stroke-width="2.19" stroke-miterlimit="10"/>
<path d="M196.189 1.88477H168.729V47.3963H196.189V1.88477Z" fill="black" stroke="#C06520" stroke-width="2.19" stroke-linecap="round" stroke-linejoin="round"/>
<path d="M168.698 11.2678H196.058" stroke="#C06520" stroke-width="2.19" stroke-linecap="round" stroke-linejoin="round"/>
<path d="M172.379 17.926H171.989" stroke="#C06520" stroke-width="2.84" stroke-miterlimit="10" stroke-linecap="round"/>
<path d="M182.518 17.926H182.138" stroke="#C06520" stroke-width="2.84" stroke-miterlimit="10" stroke-linecap="round"/>
<path d="M172.379 29.7572H171.989" stroke="#C06520" stroke-width="2.84" stroke-miterlimit="10" stroke-linecap="round"/>
<path d="M182.518 29.7572H182.138" stroke="#C06520" stroke-width="2.84" stroke-miterlimit="10" stroke-linecap="round"/>
<path d="M172.379 41.5986H171.989" stroke="#C06520" stroke-width="2.84" stroke-miterlimit="10" stroke-linecap="round"/>
<path d="M192.249 17.926H191.869" stroke="#C06520" stroke-width="2.84" stroke-miterlimit="10" stroke-linecap="round"/>
<path d="M192.249 29.7572H191.869" stroke="#C06520" stroke-width="2.84" stroke-miterlimit="10" stroke-linecap="round"/>
<path d="M192.249 41.5986H191.869" stroke="#C06520" stroke-width="2.84" stroke-miterlimit="10" stroke-linecap="round"/>
<path d="M182.518 41.5986H182.138" stroke="#C06520" stroke-width="2.84" stroke-miterlimit="10" stroke-linecap="round"/>
<path d="M177.429 23.7238H177.049" stroke="#C06520" stroke-width="2.84" stroke-miterlimit="10" stroke-linecap="round"/>
<path d="M187.578 23.7238H187.188" stroke="#C06520" stroke-width="2.84" stroke-miterlimit="10" stroke-linecap="round"/>
<path d="M177.429 35.5549H177.049" stroke="#C06520" stroke-width="2.84" stroke-miterlimit="10" stroke-linecap="round"/>
<path d="M187.578 35.5549H187.188" stroke="#C06520" stroke-width="2.84" stroke-miterlimit="10" stroke-linecap="round"/>
<path d="M236.779 1.88477H209.319V47.3963H236.779V1.88477Z" fill="black" stroke="#C06520" stroke-width="2.19" stroke-linecap="round" stroke-linejoin="round"/>
<path d="M209.289 11.2678H236.639" stroke="#C06520" stroke-width="2.19" stroke-linecap="round" stroke-linejoin="round"/>
<path d="M212.959 17.926H212.579" stroke="#C06520" stroke-width="2.84" stroke-miterlimit="10" stroke-linecap="round"/>
<path d="M223.109 17.926H222.719" stroke="#C06520" stroke-width="2.84" stroke-miterlimit="10" stroke-linecap="round"/>
<path d="M212.959 29.7572H212.579" stroke="#C06520" stroke-width="2.84" stroke-miterlimit="10" stroke-linecap="round"/>
<path d="M223.109 29.7572H222.719" stroke="#C06520" stroke-width="2.84" stroke-miterlimit="10" stroke-linecap="round"/>
<path d="M212.959 41.5986H212.579" stroke="#C06520" stroke-width="2.84" stroke-miterlimit="10" stroke-linecap="round"/>
<path d="M232.838 17.926H232.448" stroke="#C06520" stroke-width="2.84" stroke-miterlimit="10" stroke-linecap="round"/>
<path d="M232.838 29.7572H232.448" stroke="#C06520" stroke-width="2.84" stroke-miterlimit="10" stroke-linecap="round"/>
<path d="M232.838 41.5986H232.448" stroke="#C06520" stroke-width="2.84" stroke-miterlimit="10" stroke-linecap="round"/>
<path d="M223.109 41.5986H222.719" stroke="#C06520" stroke-width="2.84" stroke-miterlimit="10" stroke-linecap="round"/>
<path d="M218.018 23.7238H217.628" stroke="#C06520" stroke-width="2.84" stroke-miterlimit="10" stroke-linecap="round"/>
<path d="M228.159 23.7238H227.779" stroke="#C06520" stroke-width="2.84" stroke-miterlimit="10" stroke-linecap="round"/>
<path d="M218.018 35.5549H217.628" stroke="#C06520" stroke-width="2.84" stroke-miterlimit="10" stroke-linecap="round"/>
<path d="M228.159 35.5549H227.779" stroke="#C06520" stroke-width="2.84" stroke-miterlimit="10" stroke-linecap="round"/>
<path d="M277.358 1.88477H249.898V47.3963H277.358V1.88477Z" fill="black" stroke="#C06520" stroke-width="2.19" stroke-linecap="round" stroke-linejoin="round"/>
<path d="M249.878 11.2678H277.228" stroke="#C06520" stroke-width="2.19" stroke-linecap="round" stroke-linejoin="round"/>
<path d="M253.548 17.926H253.168" stroke="#C06520" stroke-width="2.84" stroke-miterlimit="10" stroke-linecap="round"/>
<path d="M263.699 17.926H263.309" stroke="#C06520" stroke-width="2.84" stroke-miterlimit="10" stroke-linecap="round"/>
<path d="M253.548 29.7572H253.168" stroke="#C06520" stroke-width="2.84" stroke-miterlimit="10" stroke-linecap="round"/>
<path d="M263.699 29.7572H263.309" stroke="#C06520" stroke-width="2.84" stroke-miterlimit="10" stroke-linecap="round"/>
<path d="M253.548 41.5986H253.168" stroke="#C06520" stroke-width="2.84" stroke-miterlimit="10" stroke-linecap="round"/>
<path d="M273.419 17.926H273.039" stroke="#C06520" stroke-width="2.84" stroke-miterlimit="10" stroke-linecap="round"/>
<path d="M273.419 29.7572H273.039" stroke="#C06520" stroke-width="2.84" stroke-miterlimit="10" stroke-linecap="round"/>
<path d="M273.419 41.5986H273.039" stroke="#C06520" stroke-width="2.84" stroke-miterlimit="10" stroke-linecap="round"/>
<path d="M263.699 41.5986H263.309" stroke="#C06520" stroke-width="2.84" stroke-miterlimit="10" stroke-linecap="round"/>
<path d="M258.598 23.7238H258.219" stroke="#C06520" stroke-width="2.84" stroke-miterlimit="10" stroke-linecap="round"/>
<path d="M268.748 23.7238H268.358" stroke="#C06520" stroke-width="2.84" stroke-miterlimit="10" stroke-linecap="round"/>
<path d="M258.598 35.5549H258.219" stroke="#C06520" stroke-width="2.84" stroke-miterlimit="10" stroke-linecap="round"/>
<path d="M268.748 35.5549H268.358" stroke="#C06520" stroke-width="2.84" stroke-miterlimit="10" stroke-linecap="round"/>
<path d="M227.969 150.712H220.069C220.919 153.344 220.919 156.182 220.069 158.804H227.969C227.119 156.171 227.119 153.334 227.969 150.712Z" fill="black" stroke="#C06520" stroke-width="2.19" stroke-linecap="round" stroke-linejoin="round"/>
<path d="M227.969 146.666H220.069" stroke="#C06520" stroke-width="2.19" stroke-linecap="round" stroke-linejoin="round"/>
<path d="M185.909 150.712H178.009C178.859 153.344 178.859 156.182 178.009 158.804H185.909C185.059 156.171 185.059 153.334 185.909 150.712Z" fill="black" stroke="#C06520" stroke-width="2.19" stroke-linecap="round" stroke-linejoin="round"/>
<path d="M185.909 146.666H178.009" stroke="#C06520" stroke-width="2.19" stroke-linecap="round" stroke-linejoin="round"/>
<path d="M267.258 150.712H259.358C260.208 153.344 260.208 156.182 259.358 158.804H267.258C266.408 156.171 266.408 153.334 267.258 150.712Z" fill="black" stroke="#C06520" stroke-width="2.19" stroke-linecap="round" stroke-linejoin="round"/>
<path d="M267.258 146.666H259.358" stroke="#C06520" stroke-width="2.19" stroke-linecap="round" stroke-linejoin="round"/>
<path d="M224.019 146.665V47.3861" stroke="#C06520" stroke-width="2.19" stroke-linecap="round" stroke-linejoin="round"/>
<path d="M182.138 146.665V47.3861" stroke="#C06520" stroke-width="2.19" stroke-linecap="round" stroke-linejoin="round"/>
<ellipse cx="83.5984" cy="233.151" rx="1.095" ry="1.12166" fill="#C06520"/>
<ellipse cx="89.0984" cy="233.151" rx="1.095" ry="1.12166" fill="#C06520"/>
<ellipse cx="94.5984" cy="233.151" rx="1.095" ry="1.12166" fill="#C06520"/>
<ellipse cx="100.098" cy="233.151" rx="1.095" ry="1.12166" fill="#C06520"/>
<ellipse cx="105.598" cy="233.151" rx="1.095" ry="1.12166" fill="#C06520"/>
<ellipse cx="111.098" cy="233.151" rx="1.095" ry="1.12166" fill="#C06520"/>
<ellipse cx="116.588" cy="233.151" rx="1.095" ry="1.12166" fill="#C06520"/>
<ellipse cx="122.088" cy="233.151" rx="1.095" ry="1.12166" fill="#C06520"/>
<ellipse cx="127.588" cy="233.151" rx="1.095" ry="1.12166" fill="#C06520"/>
<ellipse cx="133.089" cy="233.151" rx="1.095" ry="1.12166" fill="#C06520"/>
<ellipse cx="86.4986" cy="206.579" rx="1.095" ry="1.12166" fill="#C06520"/>
<ellipse cx="91.9986" cy="206.579" rx="1.095" ry="1.12166" fill="#C06520"/>
<ellipse cx="97.4986" cy="206.579" rx="1.095" ry="1.12166" fill="#C06520"/>
<ellipse cx="102.999" cy="206.579" rx="1.095" ry="1.12166" fill="#C06520"/>
<ellipse cx="108.499" cy="206.579" rx="1.095" ry="1.12166" fill="#C06520"/>
<ellipse cx="113.999" cy="206.579" rx="1.095" ry="1.12166" fill="#C06520"/>
<ellipse cx="119.499" cy="206.579" rx="1.095" ry="1.12166" fill="#C06520"/>
<ellipse cx="124.999" cy="206.579" rx="1.095" ry="1.12166" fill="#C06520"/>
<ellipse cx="130.499" cy="206.579" rx="1.095" ry="1.12166" fill="#C06520"/>
<path d="M344.908 554.907V486.389" stroke="#C06520" stroke-width="2.19" stroke-miterlimit="10" stroke-linecap="round"/>
<path d="M343.149 499.757L339.339 491.275" stroke="#C06520" stroke-width="2.19" stroke-miterlimit="10" stroke-linecap="round"/>
<path d="M342.518 504.387L336.448 497.349" stroke="#C06520" stroke-width="2.19" stroke-miterlimit="10" stroke-linecap="round"/>
<path d="M343.578 512.039L335.918 504.919" stroke="#C06520" stroke-width="2.19" stroke-miterlimit="10" stroke-linecap="round"/>
<path d="M346.678 499.757L350.488 491.275" stroke="#C06520" stroke-width="2.19" stroke-miterlimit="10" stroke-linecap="round"/>
<path d="M347.299 504.387L353.379 497.349" stroke="#C06520" stroke-width="2.19" stroke-miterlimit="10" stroke-linecap="round"/>
<path d="M346.239 512.039L353.899 504.919" stroke="#C06520" stroke-width="2.19" stroke-miterlimit="10" stroke-linecap="round"/>
<path d="M345.399 495.403H344.429C341.617 495.403 339.339 497.738 339.339 500.617V507.132C339.339 510.012 341.617 512.346 344.429 512.346H345.399C348.21 512.346 350.489 510.012 350.489 507.132V500.617C350.489 497.738 348.21 495.403 345.399 495.403Z" fill="black" stroke="#C06520" stroke-width="2.19" stroke-miterlimit="10" stroke-linecap="round"/>
<path d="M339.339 503.362L347.539 511.762" stroke="#C06520" stroke-width="2.19" stroke-miterlimit="10" stroke-linecap="round"/>
<path d="M344.108 507.562L350.318 501.201" stroke="#C06520" stroke-width="2.19" stroke-miterlimit="10" stroke-linecap="round"/>
<path d="M347.468 504.12L340.678 497.165" stroke="#C06520" stroke-width="2.19" stroke-miterlimit="10" stroke-linecap="round"/>
<path d="M317.448 554.907V486.389" stroke="#C06520" stroke-width="2.19" stroke-miterlimit="10" stroke-linecap="round"/>
<path d="M315.688 499.757L311.878 491.275" stroke="#C06520" stroke-width="2.19" stroke-miterlimit="10" stroke-linecap="round"/>
<path d="M315.059 504.387L308.989 497.349" stroke="#C06520" stroke-width="2.19" stroke-miterlimit="10" stroke-linecap="round"/>
<path d="M316.118 512.039L308.458 504.919" stroke="#C06520" stroke-width="2.19" stroke-miterlimit="10" stroke-linecap="round"/>
<path d="M319.219 499.757L323.029 491.275" stroke="#C06520" stroke-width="2.19" stroke-miterlimit="10" stroke-linecap="round"/>
<path d="M319.839 504.387L325.919 497.349" stroke="#C06520" stroke-width="2.19" stroke-miterlimit="10" stroke-linecap="round"/>
<path d="M318.779 512.039L326.449 504.919" stroke="#C06520" stroke-width="2.19" stroke-miterlimit="10" stroke-linecap="round"/>
<path d="M317.938 495.403H316.968C314.157 495.403 311.878 497.738 311.878 500.617V507.132C311.878 510.012 314.157 512.346 316.968 512.346H317.938C320.75 512.346 323.028 510.012 323.028 507.132V500.617C323.028 497.738 320.75 495.403 317.938 495.403Z" fill="black" stroke="#C06520" stroke-width="2.19" stroke-miterlimit="10" stroke-linecap="round"/>
<path d="M311.878 503.362L320.078 511.762" stroke="#C06520" stroke-width="2.19" stroke-miterlimit="10" stroke-linecap="round"/>
<path d="M316.648 507.562L322.858 501.201" stroke="#C06520" stroke-width="2.19" stroke-miterlimit="10" stroke-linecap="round"/>
<path d="M320.008 504.12L313.219 497.165" stroke="#C06520" stroke-width="2.19" stroke-miterlimit="10" stroke-linecap="round"/>
<path d="M374.708 554.907V486.389" stroke="#C06520" stroke-width="2.19" stroke-miterlimit="10" stroke-linecap="round"/>
<path d="M372.938 499.757L369.128 491.275" stroke="#C06520" stroke-width="2.19" stroke-miterlimit="10" stroke-linecap="round"/>
<path d="M372.319 504.387L366.239 497.349" stroke="#C06520" stroke-width="2.19" stroke-miterlimit="10" stroke-linecap="round"/>
<path d="M373.379 512.039L365.719 504.919" stroke="#C06520" stroke-width="2.19" stroke-miterlimit="10" stroke-linecap="round"/>
<path d="M376.469 499.757L380.279 491.275" stroke="#C06520" stroke-width="2.19" stroke-miterlimit="10" stroke-linecap="round"/>
<path d="M377.099 504.387L383.169 497.349" stroke="#C06520" stroke-width="2.19" stroke-miterlimit="10" stroke-linecap="round"/>
<path d="M376.039 512.039L383.699 504.919" stroke="#C06520" stroke-width="2.19" stroke-miterlimit="10" stroke-linecap="round"/>
<path d="M375.188 495.393H374.218C371.407 495.393 369.128 497.727 369.128 500.607V507.122C369.128 510.001 371.407 512.336 374.218 512.336H375.188C378 512.336 380.278 510.001 380.278 507.122V500.607C380.278 497.727 378 495.393 375.188 495.393Z" fill="black" stroke="#C06520" stroke-width="2.19" stroke-miterlimit="10" stroke-linecap="round"/>
<path d="M369.128 503.362L377.328 511.762" stroke="#C06520" stroke-width="2.19" stroke-miterlimit="10" stroke-linecap="round"/>
<path d="M373.908 507.562L380.108 501.201" stroke="#C06520" stroke-width="2.19" stroke-miterlimit="10" stroke-linecap="round"/>
<path d="M377.269 504.12L370.479 497.165" stroke="#C06520" stroke-width="2.19" stroke-miterlimit="10" stroke-linecap="round"/>
</g>
<defs>
<clipPath id="clip0_25_4424">
<path d="M0.988525 0H414.439V744.958C414.439 758.765 403.246 769.958 389.439 769.958H0.988525V0Z" fill="white"/>
</clipPath>
</defs>
</svg>
