<svg width="90" height="86" viewBox="0 0 90 86" fill="none" xmlns="http://www.w3.org/2000/svg">
<path d="M81.8411 2H8.15891C4.75744 2 2 4.62918 2 7.87244V78.1276C2 81.3708 4.75744 84 8.15891 84H81.8411C85.2426 84 88 81.3708 88 78.1276V7.87244C88 4.62918 85.2426 2 81.8411 2Z" stroke="#C06520" stroke-width="2.19" stroke-miterlimit="10"/>
<path d="M28.8809 57.7759C31.8231 57.7759 34.2081 55.5018 34.2081 52.6965C34.2081 49.8912 31.8231 47.6171 28.8809 47.6171C25.9388 47.6171 23.5537 49.8912 23.5537 52.6965C23.5537 55.5018 25.9388 57.7759 28.8809 57.7759Z" fill="black" stroke="#C06520" stroke-width="2.18" stroke-miterlimit="10"/>
<path d="M39.5352 57.7759C42.4774 57.7759 44.8624 55.5018 44.8624 52.6965C44.8624 49.8912 42.4774 47.6171 39.5352 47.6171C36.5931 47.6171 34.208 49.8912 34.208 52.6965C34.208 55.5018 36.5931 57.7759 39.5352 57.7759Z" fill="black" stroke="#C06520" stroke-width="2.18" stroke-miterlimit="10"/>
<path d="M50.1915 57.7759C53.1336 57.7759 55.5187 55.5018 55.5187 52.6965C55.5187 49.8912 53.1336 47.6171 50.1915 47.6171C47.2493 47.6171 44.8643 49.8912 44.8643 52.6965C44.8643 55.5018 47.2493 57.7759 50.1915 57.7759Z" fill="black" stroke="#C06520" stroke-width="2.18" stroke-miterlimit="10"/>
<path d="M60.8467 57.7759C63.7889 57.7759 66.174 55.5018 66.174 52.6965C66.174 49.8912 63.7889 47.6171 60.8467 47.6171C57.9046 47.6171 55.5195 49.8912 55.5195 52.6965C55.5195 55.5018 57.9046 57.7759 60.8467 57.7759Z" fill="black" stroke="#C06520" stroke-width="2.18" stroke-miterlimit="10"/>
<path d="M34.2081 48.8317C37.1502 48.8317 39.5353 46.5576 39.5353 43.7523C39.5353 40.947 37.1502 38.6729 34.2081 38.6729C31.2659 38.6729 28.8809 40.947 28.8809 43.7523C28.8809 46.5576 31.2659 48.8317 34.2081 48.8317Z" fill="black" stroke="#C06520" stroke-width="2.18" stroke-miterlimit="10"/>
<path d="M44.8643 48.8317C47.8065 48.8317 50.1915 46.5576 50.1915 43.7523C50.1915 40.947 47.8065 38.6729 44.8643 38.6729C41.9222 38.6729 39.5371 40.947 39.5371 43.7523C39.5371 46.5576 41.9222 48.8317 44.8643 48.8317Z" fill="black" stroke="#C06520" stroke-width="2.18" stroke-miterlimit="10"/>
<path d="M55.5186 48.8317C58.4608 48.8317 60.8458 46.5576 60.8458 43.7523C60.8458 40.947 58.4608 38.6729 55.5186 38.6729C52.5765 38.6729 50.1914 40.947 50.1914 43.7523C50.1914 46.5576 52.5765 48.8317 55.5186 48.8317Z" fill="black" stroke="#C06520" stroke-width="2.18" stroke-miterlimit="10"/>
<path d="M39.5352 39.8857C42.4774 39.8857 44.8624 37.6115 44.8624 34.8062C44.8624 32.0009 42.4774 29.7268 39.5352 29.7268C36.5931 29.7268 34.208 32.0009 34.208 34.8062C34.208 37.6115 36.5931 39.8857 39.5352 39.8857Z" fill="black" stroke="#C06520" stroke-width="2.18" stroke-miterlimit="10"/>
<path d="M44.8643 30.9413C47.8065 30.9413 50.1915 28.6672 50.1915 25.8619C50.1915 23.0566 47.8065 20.7825 44.8643 20.7825C41.9222 20.7825 39.5371 23.0566 39.5371 25.8619C39.5371 28.6672 41.9222 30.9413 44.8643 30.9413Z" fill="black" stroke="#C06520" stroke-width="2.18" stroke-miterlimit="10"/>
<path d="M50.1915 39.8857C53.1336 39.8857 55.5187 37.6115 55.5187 34.8062C55.5187 32.0009 53.1336 29.7268 50.1915 29.7268C47.2493 29.7268 44.8643 32.0009 44.8643 34.8062C44.8643 37.6115 47.2493 39.8857 50.1915 39.8857Z" fill="black" stroke="#C06520" stroke-width="2.18" stroke-miterlimit="10"/>
</svg>
