<svg width="90" height="86" viewBox="0 0 90 86" fill="none" xmlns="http://www.w3.org/2000/svg">
<path d="M81.9023 2.30136H8.70707C5.32808 2.30136 2.58887 4.91883 2.58887 8.14764V78.0897C2.58887 81.3185 5.32808 83.936 8.70707 83.936H81.9023C85.2813 83.936 88.0205 81.3185 88.0205 78.0897V8.14764C88.0205 4.91883 85.2813 2.30136 81.9023 2.30136Z" stroke="#C06520" stroke-width="2.19" stroke-miterlimit="10"/>
<path d="M29.292 57.8287C32.2147 57.8287 34.584 55.5647 34.584 52.7719C34.584 49.9791 32.2147 47.7151 29.292 47.7151C26.3693 47.7151 24 49.9791 24 52.7719C24 55.5647 26.3693 57.8287 29.292 57.8287Z" fill="black" stroke="#C06520" stroke-width="2.18" stroke-miterlimit="10"/>
<path d="M39.876 57.8287C42.7987 57.8287 45.168 55.5647 45.168 52.7719C45.168 49.9791 42.7987 47.7151 39.876 47.7151C36.9533 47.7151 34.584 49.9791 34.584 52.7719C34.584 55.5647 36.9533 57.8287 39.876 57.8287Z" fill="black" stroke="#C06520" stroke-width="2.18" stroke-miterlimit="10"/>
<path d="M50.4619 57.8287C53.3846 57.8287 55.7539 55.5647 55.7539 52.7719C55.7539 49.9791 53.3846 47.7151 50.4619 47.7151C47.5392 47.7151 45.1699 49.9791 45.1699 52.7719C45.1699 55.5647 47.5392 57.8287 50.4619 57.8287Z" fill="black" stroke="#C06520" stroke-width="2.18" stroke-miterlimit="10"/>
<path d="M61.0469 57.8287C63.9696 57.8287 66.3389 55.5647 66.3389 52.7719C66.3389 49.9791 63.9696 47.7151 61.0469 47.7151C58.1242 47.7151 55.7549 49.9791 55.7549 52.7719C55.7549 55.5647 58.1242 57.8287 61.0469 57.8287Z" fill="black" stroke="#C06520" stroke-width="2.18" stroke-miterlimit="10"/>
<path d="M34.584 48.9243C37.5067 48.9243 39.876 46.6603 39.876 43.8675C39.876 41.0747 37.5067 38.8107 34.584 38.8107C31.6613 38.8107 29.292 41.0747 29.292 43.8675C29.292 46.6603 31.6613 48.9243 34.584 48.9243Z" fill="black" stroke="#C06520" stroke-width="2.18" stroke-miterlimit="10"/>
<path d="M45.1699 48.9243C48.0926 48.9243 50.4619 46.6603 50.4619 43.8675C50.4619 41.0747 48.0926 38.8107 45.1699 38.8107C42.2472 38.8107 39.8779 41.0747 39.8779 43.8675C39.8779 46.6603 42.2472 48.9243 45.1699 48.9243Z" fill="black" stroke="#C06520" stroke-width="2.18" stroke-miterlimit="10"/>
<path d="M55.7539 48.9243C58.6766 48.9243 61.0459 46.6603 61.0459 43.8675C61.0459 41.0747 58.6766 38.8107 55.7539 38.8107C52.8312 38.8107 50.4619 41.0747 50.4619 43.8675C50.4619 46.6603 52.8312 48.9243 55.7539 48.9243Z" fill="black" stroke="#C06520" stroke-width="2.18" stroke-miterlimit="10"/>
<path d="M39.876 40.0181C42.7987 40.0181 45.168 37.7541 45.168 34.9613C45.168 32.1685 42.7987 29.9045 39.876 29.9045C36.9533 29.9045 34.584 32.1685 34.584 34.9613C34.584 37.7541 36.9533 40.0181 39.876 40.0181Z" fill="black" stroke="#C06520" stroke-width="2.18" stroke-miterlimit="10"/>
<path d="M45.1699 31.1136C48.0926 31.1136 50.4619 28.8496 50.4619 26.0568C50.4619 23.264 48.0926 21 45.1699 21C42.2472 21 39.8779 23.264 39.8779 26.0568C39.8779 28.8496 42.2472 31.1136 45.1699 31.1136Z" fill="black" stroke="#C06520" stroke-width="2.18" stroke-miterlimit="10"/>
<path d="M50.4619 40.0181C53.3846 40.0181 55.7539 37.7541 55.7539 34.9613C55.7539 32.1685 53.3846 29.9045 50.4619 29.9045C47.5392 29.9045 45.1699 32.1685 45.1699 34.9613C45.1699 37.7541 47.5392 40.0181 50.4619 40.0181Z" fill="black" stroke="#C06520" stroke-width="2.18" stroke-miterlimit="10"/>
</svg>
