<svg width="292" height="154" viewBox="0 0 292 154" fill="none" xmlns="http://www.w3.org/2000/svg">
<path d="M121.59 137.17V139.52C123.59 145.28 128.5 149.83 134.74 151.69V137.17H121.59Z" fill="#04498F"/>
<path d="M160.73 138.81V137.17H147.58V151.61C153.95 149.62 158.91 144.82 160.73 138.81Z" fill="#C0181D"/>
<path d="M147.59 137.17H134.74V151.69C136.73 152.28 138.84 152.62 141.04 152.62C143.34 152.62 145.53 152.26 147.59 151.61V137.17Z" fill="white"/>
<path d="M45.45 117.15L46.46 124.99C46.61 126.11 46.61 126.57 46.63 127.38H46.78C46.78 126.02 46.82 125.57 46.93 124.5L47.66 117.14H49.65L47.89 129.93H45.58L44.74 122.97C44.66 122.25 44.66 121.54 44.66 120.74H44.47C44.47 121.43 44.47 122.37 44.43 122.77L43.61 129.93H41.34L39.65 117.14H41.6L42.37 125.17C42.48 126.13 42.48 126.6 42.5 127.4H42.63C42.63 126.24 42.65 125.68 42.74 124.99L43.66 117.15H45.46H45.45Z" fill="#C06520"/>
<path d="M60.36 117.15V122.35H62.23V117.15H64.22V129.94H62.2V124H60.36V129.94H58.37V117.15H60.36Z" fill="#C06520"/>
<path d="M75.64 117.15V129.94H73.67V117.15H75.64Z" fill="#C06520"/>
<path d="M86.49 127.6C86.49 128.04 86.49 128.83 87.52 128.83C88.46 128.83 88.48 128.01 88.48 127.34C88.48 126.14 88.22 125.6 86.85 123.9C85.65 122.43 84.77 121.34 84.77 119.7C84.77 119.01 84.94 118.43 85.28 117.94C85.88 117.12 86.8 116.89 87.83 116.89C89.72 116.89 90.38 117.76 90.38 119.08V121.36H88.56V119.1C88.56 118.7 88.5 118.23 87.77 118.23C86.85 118.23 86.76 118.88 86.76 119.52C86.76 120.82 87.23 121.42 88.71 123.24C89.68 124.45 90.51 125.49 90.51 127.13C90.51 127.98 90.25 128.8 89.8 129.32C89.09 130.12 88.09 130.17 87.53 130.17C84.64 130.17 84.64 128.05 84.64 127.4V125.26H86.48V127.6H86.49Z" fill="#C06520"/>
<path d="M103.61 117.15H105.63L103.14 123.49L106.1 129.94H104.06L101.83 124.94C101.77 124.79 101.51 124.12 101.44 123.96V129.94H99.4501V117.15H101.47V122.22C101.47 122.64 101.45 122.85 101.45 123.18C101.58 122.69 101.75 122.2 101.81 122.04L103.61 117.15Z" fill="#C06520"/>
<path d="M115.18 117.15L116.06 120.12C116.34 121.08 116.4 121.82 116.49 122.58H116.64C116.68 122.16 116.77 121.17 117.15 119.97L118.1 117.14H120.11L117.6 124.57V129.93H115.44V124.59L113.13 117.14H115.19L115.18 117.15Z" fill="#C06520"/>
<path d="M139.26 117.13H144.45V118.72H141.26V122.44H144.15V124H141.28V129.94H139.26V117.13Z" fill="#C06520"/>
<path d="M152.8 117.15H156.06C158.5 117.15 158.78 117.71 158.78 120.25C158.78 122.5 158.72 123.42 157.09 123.4V123.47C158.53 123.62 158.72 124.3 158.72 126.01V127.41C158.72 128.95 158.76 129.18 159.11 129.95H157.03C156.86 129.21 156.71 128.57 156.71 127.27V126.36C156.71 125.87 156.69 124.86 156.45 124.44C156.22 124.06 155.98 124.06 154.8 124.06V129.95H152.8V117.16V117.15ZM154.81 118.69V122.64H155.75C156.76 122.64 156.8 122.26 156.8 120.14C156.8 118.73 156.69 118.69 155.84 118.69H154.81Z" fill="#C06520"/>
<path d="M171.51 117.15L173.85 129.94H171.9L171.51 127.59H169.24L168.9 129.94H166.97L169.09 117.15H171.51ZM170.2 119.56C170.14 121.23 170.14 121.41 170.09 121.63L169.45 126.03H171.25L170.5 121.59C170.42 121.1 170.39 120.61 170.37 119.56H170.2Z" fill="#C06520"/>
<path d="M184.28 117.15L186.53 125.34C186.66 125.83 186.74 126.19 186.85 126.61H186.98C186.89 126.01 186.81 125.41 186.77 124.8L186.68 123.6L186.6 117.15H188.47V129.94H186.26L183.77 120.36H183.64L183.75 121.47L183.83 122.57L184 129.95H182.13V117.16H184.27L184.28 117.15Z" fill="#C06520"/>
<path d="M203.52 127.04C203.52 127.69 203.46 129.76 200.78 130.09L200.44 130.62C201.36 130.66 202.18 130.89 202.18 131.63C202.18 132.19 201.69 133.13 198.41 133.04V132.48C200.43 132.57 200.43 132.01 200.43 131.9C200.43 131.41 199.66 131.39 198.84 131.36L199.74 130.09C197.02 129.78 197.02 127.93 197.02 126.86V120.7C197.02 119.56 197.02 117.02 200.41 117.02C203.54 117.02 203.54 119.25 203.54 120.15V121.78H201.55V119.8C201.55 119.38 201.55 118.48 200.31 118.48C199.07 118.48 199.05 119.42 199.05 120.09V127.15C199.05 127.86 199.05 128.64 200.27 128.64C201.49 128.64 201.53 127.77 201.53 127.14V124.64H203.55V127.03L203.52 127.04Z" fill="#C06520"/>
<path d="M215.73 117.15L218.07 129.94H216.12L215.73 127.59H213.46L213.12 129.94H211.19L213.31 117.15H215.73ZM214.42 119.56C214.36 121.23 214.36 121.41 214.31 121.63L213.67 126.03H215.47L214.72 121.59C214.64 121.1 214.61 120.61 214.59 119.56H214.42Z" fill="#C06520"/>
<path d="M228.24 117.15V129.94H226.27V117.15H228.24Z" fill="#C06520"/>
<path d="M239.1 127.6C239.1 128.04 239.1 128.83 240.13 128.83C241.07 128.83 241.09 128.01 241.09 127.34C241.09 126.14 240.83 125.6 239.46 123.9C238.26 122.43 237.38 121.34 237.38 119.7C237.38 119.01 237.55 118.43 237.89 117.94C238.49 117.12 239.41 116.89 240.44 116.89C242.33 116.89 242.99 117.76 242.99 119.08V121.36H241.17V119.1C241.17 118.7 241.11 118.23 240.38 118.23C239.46 118.23 239.37 118.88 239.37 119.52C239.37 120.82 239.84 121.42 241.32 123.24C242.29 124.45 243.12 125.49 243.12 127.13C243.12 127.98 242.86 128.8 242.41 129.32C241.7 130.12 240.7 130.17 240.14 130.17C237.25 130.17 237.25 128.05 237.25 127.4V125.26H239.09V127.6H239.1Z" fill="#C06520"/>
<path d="M244.51 136.4H37.8C37.44 136.4 37.15 136.69 37.15 137.05C37.15 137.41 37.44 137.7 37.8 137.7H120.68C120.96 138.93 121.86 142.1 124.16 145.3C125.62 147.33 127.64 149.37 130.42 150.9C133.2 152.43 136.73 153.44 141.16 153.44C145.59 153.44 149.12 152.43 151.9 150.9C156.08 148.6 158.55 145.17 159.97 142.32C160.99 140.27 161.47 138.54 161.67 137.7H244.51C244.87 137.7 245.16 137.41 245.16 137.05C245.16 136.69 244.87 136.4 244.51 136.4ZM156.86 144.9C155.47 146.74 153.59 148.55 151.03 149.9C148.48 151.25 145.26 152.15 141.16 152.15C136.93 152.15 133.63 151.19 131.05 149.77C127.18 147.64 124.88 144.44 123.54 141.75C122.87 140.41 122.45 139.2 122.19 138.33C122.12 138.1 122.07 137.89 122.02 137.71H160.33C159.98 139.06 159.03 142.03 156.86 144.91V144.9Z" fill="#C06520"/>
<path d="M123.84 0.160004H111.89L117.92 4.63L123.84 0.160004Z" fill="#C06520"/>
<path d="M118.33 5.34V101.24L124.24 95.82L124.51 95.83V96.12V0.160004V0.670004L118.33 5.34Z" fill="#C06520"/>
<path d="M117.52 101.98V5.34L111.21 0.670004V0.160004V108.01V107.48L117.52 101.98Z" fill="#C06520"/>
<path d="M118.96 101.76H146.47L151.27 96.12H124.8L124.79 96.41L118.96 101.76Z" fill="#C06520"/>
<path d="M118.07 102.57L111.82 108.01H151.09L146.38 102.57H118.07Z" fill="#C06520"/>
<path d="M97.14 38.18C98.96 34.69 99.59 30.38 99.59 25.77C99.59 19.7 98 14.96 95.13 11.75C92.26 8.54 88.11 6.81 82.84 6.81H68.25V50.19C69.16 50.03 71.58 49.59 74.64 48.95C77.32 48.4 80.47 47.7 83.48 46.93V46.85H83.85C85.09 46.53 86.3 46.2 87.43 45.86C92.31 44.39 95.31 41.69 97.13 38.2L97.14 38.18ZM74.85 43.25V12.02H84.1C89.15 12.02 93.35 17.56 93.35 25.9C93.35 33.45 91.56 39.05 85.53 40.86C82.44 41.79 74.85 43.26 74.85 43.26V43.25Z" fill="#C06520"/>
<path d="M86.96 47.57C88.43 48.01 90.27 48.66 92.14 49.62C96.21 51.7 100.39 55.22 100.4 60.88V102.85L106.65 107.48V61.63C106.65 54.15 103.75 49.85 98.49 47.33C98.41 47.29 98.34 47.26 98.27 47.22C98.34 47.26 98.42 47.29 98.49 47.33L86.96 47.57Z" fill="#C06520"/>
<path d="M188.05 102.22L192.8 107.7L192.78 108.01H192.95V96.09H192.76L192.8 96.63L188.05 102.22Z" fill="#C06520"/>
<path d="M163.1 102.62L157.08 108.01H192L187.33 102.62H163.1Z" fill="#C06520"/>
<path d="M164 101.81H187.33L192.18 96.1L192.3 96.09H170.07L170.05 96.4L164 101.81Z" fill="#C06520"/>
<path d="M169.78 51.92H169.49C169.49 51.92 165.21 47.48 163.54 42.18V101.15L169.52 95.8H169.79V96.1V51.64V51.93L169.78 51.92Z" fill="#C06520"/>
<path d="M162.72 101.87V6.19L156.48 0.690001V0.150002V108.01V107.47L162.72 101.87Z" fill="#C06520"/>
<path d="M191.03 5.99L196.27 0.150002H157.09L163.72 5.99H191.03Z" fill="#C06520"/>
<path d="M151.7 107.48V96.86L147.14 102.22L151.7 107.48Z" fill="#C06520"/>
<path d="M38.9901 9.91C35.2201 7.68 30.5601 6.8 27.2301 6.81C23.9201 6.81 19.1701 7.86 15.3001 10.29C11.4301 12.73 8.44005 16.48 8.43005 21.99V51.99L45.6501 45.89V21.05C45.6501 15.66 42.7501 12.15 38.9801 9.91H38.9901ZM39.4801 41.42L14.9901 45.42V23.18C14.9901 17.07 20.4701 12.12 27.2301 12.12C33.9901 12.12 39.4701 17.07 39.4701 23.18V41.42H39.4801Z" fill="#C06520"/>
<path d="M82.8401 5.99C88.2801 5.99 92.7001 7.8 95.7401 11.2C98.7701 14.6 100.4 19.55 100.4 25.76C100.4 30.44 99.7701 34.88 97.8601 38.55C95.9501 42.22 92.7301 45.1 87.6701 46.61C87.5101 46.66 87.3401 46.7 87.1801 46.75L98.1801 46.52C98.0801 46.61 97.9801 46.69 97.8801 46.78C97.9801 46.69 98.0701 46.6 98.1801 46.52C107.79 38.47 106.65 25.65 106.65 20.36C106.63 9.13 96.5401 0.01 84.0901 0H61.8101L68.0101 5.99H82.8401Z" fill="#C06520"/>
<path d="M40.15 108H52.1L46.07 103.52L40.15 108Z" fill="#C06520"/>
<path d="M67.14 6.28L61.05 0.39L61.23 0L55.76 12.02L56.02 11.45L67.14 6.28Z" fill="#C06520"/>
<path d="M8.04 134.89L0.85 138.77H0V138.31L7.63 134.19V21.99C7.63 16.16 10.84 12.12 14.88 9.6C18.92 7.07 23.77 6 27.24 5.99C30.7 5.99 35.46 6.88 39.41 9.21C43.35 11.52 46.49 15.34 46.48 21.05V102.82L52.79 107.5V23.18C52.76 10.44 41.34 0.119998 27.23 0.0999985C13.13 0.119998 1.7 10.44 1.68 23.18V134.66C1.66 136.15 0 136.29 0 136.29V138.78H16.69H15.79L8.05 134.9L8.04 134.89Z" fill="#C06520"/>
<path d="M45.6599 46.7L8.43994 52.8V134.18L16.6899 138.32V136.28C16.6899 136.28 14.9999 136.15 14.9999 134.64V134.66V57.43L39.4899 53.43V107.49L45.6799 102.82V46.71L45.6599 46.7Z" fill="#C06520"/>
<path d="M93.99 108.01H105.99L99.94 103.52L93.99 108.01Z" fill="#C06520"/>
<path d="M83.57 47.74C77.7 49.23 71.36 50.44 68.97 50.87L75.07 54.94L75.13 55.22C76.66 54.9 84.41 53.3 84.43 53.3C84.42 53.3 84.32 53.32 84.18 53.35L83.58 47.75L83.57 47.74Z" fill="#C06520"/>
<path d="M84.4301 53.3C84.5301 53.3 84.6201 53.32 84.7101 53.33C84.6201 53.32 84.5201 53.3 84.4301 53.3Z" fill="#C06520"/>
<path d="M67.44 102.82V7.03L56.72 12.02H61.54V108.01V107.27L67.44 102.82Z" fill="#C06520"/>
<path d="M99.59 102.77V60.89C99.59 56.98 97.43 54.16 94.67 52.12C91.91 50.08 88.56 48.87 86.32 48.23C85.47 47.99 84.81 47.83 84.38 47.74L84.99 53.37C89.68 53.79 93.33 57.33 93.34 61.65V108.02V107.5L99.59 102.78V102.77Z" fill="#C06520"/>
<path d="M74.85 55.57L74.62 55.61L68.25 51.37V102.81L74.8 107.67L74.85 107.95V108.01V55.28V55.57Z" fill="#C06520"/>
<path d="M61.91 108.01H73.9L67.85 103.52L61.91 108.01Z" fill="#C06520"/>
<path d="M163.53 6.91V36.75C163.53 40.35 165.94 42.88 169.36 44.56C172.72 46.21 177.01 46.95 180.62 46.97L185.36 41.4H179.03C173.92 41.4 169.77 37.65 169.77 33.03C169.77 29.08 170.01 14.59 170.05 12.4L169.79 12.42L163.53 6.9V6.91Z" fill="#C06520"/>
<path d="M221.54 7.27L215.56 12.66V12.65V107.47L221.54 102.45V7.27Z" fill="#C06520"/>
<path d="M269.87 133.33L278.05 138.15L278.08 138.25V136.34C278.08 136.34 276.39 136.21 276.39 134.7V12.65L269.88 7.25V133.33H269.87Z" fill="#C06520"/>
<path d="M269.05 133.26V7.27L263.07 12.66V134.71C263.06 136.21 261.38 136.34 261.38 136.34V138.83V138.29L269.05 133.26Z" fill="#C06520"/>
<path d="M204.41 6.35L199.96 1.06V0.150002L200.27 0.170002L205.13 5.94H239.38L244.14 0.170002L244.45 0.150002H199.96V12.12V11.63L204.41 6.35Z" fill="#C06520"/>
<path d="M205.13 6.75L200.61 12.12H215L220.9 6.75H205.13Z" fill="#C06520"/>
<path d="M244.45 1.06L240.01 6.45L244.45 11.63V12.12V11.63V1.06V0.310002V0.150002V1.06Z" fill="#C06520"/>
<path d="M223.03 6.75L229.4 12.12H243.8L239.2 6.75H223.03Z" fill="#C06520"/>
<path d="M222.35 102.51L228.86 107.33V108.01V107.33V12.65L228.85 12.63L222.35 7.25V102.51Z" fill="#C06520"/>
<path d="M262.05 138.83H277.6L269.41 134L262.05 138.83Z" fill="#C06520"/>
<path d="M252.64 6.75L248.12 12.12H262.52L268.41 6.75H252.64Z" fill="#C06520"/>
<path d="M186.03 52.81V41.88L181.34 47.39L186.03 52.81Z" fill="#C06520"/>
<path d="M270.54 6.75L276.91 12.12H291.32L286.71 6.75H270.54Z" fill="#C06520"/>
<path d="M251.92 6.35L247.48 1.06V0.150002L247.79 0.170002L252.64 5.94H286.89L291.66 0.170002L291.97 0.150002H247.48V12.12V11.63L251.92 6.35Z" fill="#C06520"/>
<path d="M180.61 47.79C176.89 47.76 172.52 47.01 169.01 45.29C167 44.31 165.27 42.98 164.14 41.3C165.15 45.02 167.65 48.49 169.08 50.21C169.68 50.94 170.08 51.35 170.08 51.35V51.73C170.08 51.73 170.01 51.71 169.98 51.7C170.01 51.71 170.04 51.72 170.07 51.73C172.9 52.84 175.96 53.43 179.05 53.43H185.7L185.48 53.41L180.61 47.79Z" fill="#C06520"/>
<path d="M164.64 6.8L170.33 11.82L170.35 12.12H195.55L190.94 6.8H164.64Z" fill="#C06520"/>
<path d="M291.97 11.63V1.06L287.52 6.45L291.97 11.63Z" fill="#C06520"/>
<path d="M196.46 11.93L196.45 12.12H196.94V0.690002L191.71 6.45L196.46 11.93Z" fill="#C06520"/>
<path d="M216.22 108.01H228.18L221.9 103.18L216.22 108.01Z" fill="#C06520"/>
<path d="M46.48 102.81V21.04C46.48 15.33 43.35 11.51 39.41 9.2C35.46 6.88 30.7 5.99 27.24 5.98C23.77 5.98 18.92 7.06 14.88 9.59C10.85 12.11 7.63 16.15 7.63 21.98V134.19L0 138.31V138.77H0.85L8.04 134.89L15.78 138.77H16.68V138.32L8.43 134.18V52.81L45.65 46.71V102.82L39.46 107.49V108H40.13L46.05 103.53L52.08 108H52.76V107.5L46.45 102.82L46.48 102.81ZM45.67 45.88L8.45 51.98V21.98C8.45 16.47 11.44 12.72 15.32 10.28C19.19 7.85 23.94 6.8 27.25 6.8C30.58 6.8 35.23 7.68 39.01 9.9C42.79 12.14 45.68 15.64 45.68 21.04V45.88H45.67Z" fill="#C06520"/>
<path d="M75.14 55.22C74.97 55.25 74.86 55.27 74.86 55.27C74.87 55.27 74.98 55.25 75.14 55.22Z" fill="#C06520"/>
<path d="M97.71 46.95C97.91 47.03 98.09 47.13 98.27 47.23C98.09 47.13 97.91 47.04 97.71 46.95C97.77 46.9 97.83 46.85 97.89 46.8C97.83 46.85 97.78 46.91 97.71 46.95Z" fill="#C06520"/>
<path d="M97.89 46.79C97.99 46.7 98.08 46.61 98.19 46.53L87.19 46.76C87.35 46.71 87.52 46.67 87.68 46.62C92.74 45.11 95.96 42.23 97.87 38.56C99.78 34.89 100.41 30.46 100.41 25.77C100.41 19.56 98.78 14.61 95.75 11.21C92.72 7.81 88.3 5.99 82.85 6H68.02L61.82 0H61.24L61.06 0.39L67.15 6.28L56.03 11.45L55.77 12.02H56.73L67.45 7.03V102.81L61.55 107.27V108.01H61.92L67.86 103.52L73.91 108.01H74.85V107.95L74.81 107.67L68.26 102.81V51.36L74.63 55.6L74.86 55.55V55.26C74.86 55.26 74.97 55.24 75.14 55.2L75.08 54.92L68.98 50.85C71.37 50.41 77.71 49.21 83.58 47.72L84.18 53.32C84.32 53.29 84.42 53.27 84.43 53.27C84.53 53.27 84.62 53.29 84.71 53.3C84.8 53.31 84.9 53.33 84.99 53.34L84.38 47.71C84.81 47.8 85.46 47.95 86.32 48.2C88.55 48.84 91.91 50.05 94.67 52.09C97.44 54.13 99.59 56.95 99.59 60.86V102.74L93.34 107.46V107.98H93.99L99.93 103.49L105.98 107.98H106.64V107.46L100.39 102.83V60.86C100.39 55.2 96.2 51.67 92.13 49.6C90.26 48.64 88.42 47.99 86.95 47.55L98.48 47.31C98.4 47.27 98.33 47.24 98.26 47.2C98.08 47.1 97.9 47.01 97.7 46.92C97.76 46.87 97.82 46.82 97.88 46.77L97.89 46.79ZM83.86 46.83H83.48V46.92C80.47 47.69 77.32 48.39 74.64 48.94C71.58 49.57 69.17 50.01 68.25 50.18V6.8H82.84C88.11 6.8 92.26 8.53 95.13 11.74C98 14.95 99.59 19.69 99.59 25.76C99.59 30.37 98.96 34.68 97.14 38.17C95.31 41.66 92.31 44.36 87.44 45.83C86.31 46.17 85.09 46.5 83.86 46.82V46.83Z" fill="#C06520"/>
<path d="M151.28 96.12L146.48 101.76H118.97L124.8 96.41L124.81 96.12H124.52V95.83L124.25 95.82L118.34 101.24V5.34L124.52 0.670004V0.160004H123.85L117.93 4.63L111.9 0.160004H111.22V0.670004L117.53 5.34V101.98L111.22 107.48V108.01H111.83L118.08 102.57H146.39L151.1 108.01H151.71V107.48L147.15 102.22L151.71 96.86V96.12H151.28Z" fill="#C06520"/>
<path d="M191.04 5.99H163.73L157.1 0.150002H156.49V0.690001L162.74 6.2V101.88L156.49 107.48V108.02H157.1L163.12 102.63H187.35L192.02 108.02H192.8L192.82 107.71L188.07 102.23L192.82 96.64L192.78 96.11H192.21L187.35 101.83H164.03L170.08 96.41L170.1 96.11H169.81V95.82H169.54L163.56 101.16V42.19C165.24 47.49 169.5 51.9 169.51 51.93H169.8V51.65C169.86 51.68 169.93 51.7 169.99 51.72C170.02 51.73 170.05 51.74 170.08 51.75V51.37C170.08 51.37 169.69 50.96 169.09 50.23C167.67 48.52 165.17 45.04 164.15 41.32C165.29 43.01 167.01 44.34 169.02 45.31C172.53 47.03 176.9 47.78 180.62 47.81L185.49 53.43L185.71 53.45H186.04V52.83L181.35 47.42L186.04 41.91V41.44H185.38L180.64 47.01C177.03 46.99 172.74 46.24 169.38 44.6C165.96 42.92 163.55 40.39 163.55 36.79V6.91L169.81 12.43L170.07 12.41C170.07 12.23 170.07 12.12 170.07 12.12H170.36L170.34 11.82L164.65 6.8H190.95L195.56 12.12H196.45V11.93L191.71 6.45L196.94 0.700001V0.150002H196.27L191.03 5.99H191.04Z" fill="#C06520"/>
<path d="M240.02 6.45L244.46 1.06V0.150002L244.15 0.170002L239.39 5.94H205.14L200.28 0.170002L199.97 0.150002V1.06L204.42 6.35L199.97 11.63V12.12H200.62L205.14 6.75H220.91L215.01 12.12H215.57V12.65V12.66L221.55 7.27V102.45L215.57 107.47L215.56 107.48L215.57 108.01H216.23L221.91 103.18L228.19 108.01H228.87V107.33L222.36 102.51V7.25L228.86 12.63L228.87 12.65V12.12H229.41L223.04 6.75H239.21L243.81 12.12H244.46V11.63L240.02 6.45Z" fill="#C06520"/>
<path d="M215.57 107.47L215.56 107.48L215.57 108.01L215.56 107.48L215.57 107.47Z" fill="#C06520"/>
<path d="M291.67 0.170002L286.9 5.94H252.65L247.8 0.170002L247.49 0.150002V1.06L251.93 6.35L247.49 11.63V12.12H248.13L252.65 6.75H268.42L262.53 12.12H263.08V12.66L269.06 7.27V133.26L261.4 138.29V138.83H262H262.06L269.42 134L277.61 138.83H277.72H278.08V138.26L278.06 138.15L269.88 133.33V7.25L276.39 12.65V12.12H276.92L270.55 6.75H286.72L291.33 12.12H291.98V11.63L287.53 6.45L291.98 1.06V0.150002L291.67 0.170002Z" fill="#C06520"/>
</svg>
