<svg width="184" height="119" viewBox="0 0 184 119" fill="none" xmlns="http://www.w3.org/2000/svg">
<g clip-path="url(#clip0_322_223)">
<mask id="mask0_322_223" style="mask-type:luminance" maskUnits="userSpaceOnUse" x="0" y="0" width="184" height="81">
<path d="M183.989 0H0.988525V81H183.989V0Z" fill="white"/>
</mask>
<g mask="url(#mask0_322_223)">
<path d="M43.4752 54.222H44.6337C45.0198 54.232 45.4037 54.1528 45.7639 53.9889C46.0622 53.8453 46.3317 53.6298 46.555 53.3561C46.7622 53.1056 46.9226 52.8069 47.026 52.479C47.1307 52.1525 47.1849 51.8066 47.1861 51.4576C47.1848 51.1122 47.1306 50.7699 47.026 50.4473C46.9227 50.1161 46.7624 49.8137 46.555 49.5592C46.3311 49.289 46.0617 49.0771 45.7639 48.9375C45.4037 48.7735 45.0198 48.6943 44.6337 48.7043H43.4752V54.2553V54.222ZM42.8913 48.0938H44.775C45.1403 48.0934 45.5032 48.1646 45.8487 48.3047C46.1943 48.442 46.5141 48.6568 46.7905 48.9375C47.099 49.2462 47.3441 49.6334 47.5072 50.0699C47.6704 50.5065 47.7473 50.9809 47.7324 51.4576C47.7449 51.9675 47.6545 52.4736 47.4686 52.9342C47.3064 53.3588 47.0687 53.7374 46.7717 54.0444C46.4953 54.325 46.1755 54.5398 45.8298 54.6772C45.4843 54.8172 45.1215 54.8884 44.7561 54.8881H42.8724V48.0938H42.8913Z" fill="#FF6C0E"/>
<path d="M55.0881 54.8326H54.5042V48.0938H55.0881V54.8326Z" fill="#FF6C0E"/>
<path d="M64.8645 49.1816C64.7432 48.9736 64.5818 48.8024 64.3936 48.682C64.1738 48.5562 63.9314 48.4952 63.6872 48.5044C63.544 48.5047 63.4016 48.5271 63.2634 48.571C63.1211 48.6216 62.9874 48.7004 62.8678 48.8042C62.7486 48.9129 62.6494 49.0489 62.5758 49.2038C62.5042 49.3805 62.4688 49.5744 62.4722 49.77C62.464 49.9556 62.4999 50.1401 62.5758 50.3029C62.646 50.4415 62.7389 50.5622 62.849 50.6582C62.9726 50.757 63.1052 50.8389 63.2445 50.9024L63.706 51.0911L64.3088 51.3354C64.5053 51.42 64.6896 51.5398 64.8551 51.6907C65.0178 51.8328 65.1527 52.0145 65.2507 52.2236C65.3596 52.4817 65.4115 52.7681 65.4014 53.0562C65.4071 53.3593 65.3523 53.6598 65.2412 53.9332C65.1367 54.1656 64.9923 54.3697 64.8174 54.5328C64.6383 54.6968 64.4334 54.8176 64.2146 54.888C63.9976 54.9637 63.7722 55.0011 63.5459 54.999C63.3735 55.016 63.2003 55.016 63.0279 54.999C62.8599 54.9546 62.6959 54.8914 62.5382 54.8103C62.3804 54.7283 62.2317 54.6239 62.0955 54.4995C61.9621 54.3681 61.842 54.2192 61.7375 54.0554L62.2461 53.6224C62.3716 53.872 62.5502 54.0787 62.7642 54.2219C63.0028 54.3905 63.2772 54.4753 63.5553 54.4662C63.7053 54.4667 63.8546 54.4405 63.998 54.3884C64.1443 54.3364 64.2815 54.2537 64.403 54.1442C64.5252 54.0318 64.6276 53.8922 64.7043 53.7334C64.7727 53.5595 64.8081 53.3701 64.8081 53.1784C64.8081 52.9866 64.7727 52.7972 64.7043 52.6232C64.6292 52.4658 64.5225 52.3324 64.3936 52.2347C64.2573 52.1218 64.1083 52.0322 63.9509 51.9682L63.4235 51.7573C63.2348 51.6912 63.0494 51.6134 62.8678 51.5241C62.6873 51.4404 62.5189 51.3243 62.3686 51.18C62.225 51.0298 62.1068 50.849 62.0201 50.6471C61.9285 50.4065 61.8835 50.1448 61.8883 49.8811C61.8806 49.587 61.9391 49.2959 62.0578 49.0373C62.1598 48.8092 62.3048 48.6117 62.4816 48.46C62.6595 48.3052 62.8609 48.1921 63.075 48.127C63.2825 48.0521 63.4984 48.0147 63.7154 48.0159C64.0565 48.008 64.3947 48.0915 64.7043 48.2601C64.9458 48.3948 65.1584 48.5923 65.326 48.8375L64.8645 49.2815V49.1816Z" fill="#FF6C0E"/>
<path d="M73.8303 54.8326H73.2559V48.7043H71.3347V48.0938H75.7522V48.7043H73.8303V54.8326Z" fill="#FF6C0E"/>
<path d="M82.6835 54.8326H82.0999V48.0938H82.6835V54.8326Z" fill="#FF6C0E"/>
<path d="M90.2748 54.222H92.9406V54.8326H89.6912V48.0938H90.2748V54.222Z" fill="#FF6C0E"/>
<path d="M99.8912 54.222H102.557V54.8326H99.3076V48.0938H99.8912V54.222Z" fill="#FF6C0E"/>
<path d="M109.498 54.222H112.559V54.8326H108.924V48.0938H112.465V48.7043H109.498V51.0135H112.276V51.6241H109.498V54.222Z" fill="#FF6C0E"/>
<path d="M119.774 51.069H120.781C121.16 51.0999 121.537 50.9955 121.865 50.7693C121.99 50.6724 122.092 50.5383 122.16 50.3805C122.228 50.2226 122.259 50.0466 122.251 49.87C122.254 49.6743 122.219 49.4804 122.147 49.3038C122.075 49.157 121.975 49.0317 121.855 48.9375C121.718 48.8323 121.564 48.7605 121.403 48.7266C121.208 48.6802 121.009 48.6579 120.81 48.6599H119.774V51.069ZM119.774 54.8104H119.199V48.0938H120.875C121.138 48.0936 121.4 48.1233 121.658 48.1825C121.879 48.2411 122.089 48.3464 122.279 48.4934C122.45 48.6371 122.589 48.8276 122.684 49.0485C122.784 49.3138 122.833 49.6021 122.826 49.8922C122.827 50.1247 122.789 50.3552 122.712 50.5694C122.643 50.7658 122.541 50.9434 122.411 51.0913C122.279 51.248 122.123 51.3725 121.949 51.4576C121.764 51.5496 121.566 51.6058 121.366 51.6241L123.042 54.8326H122.326L120.744 51.6796H119.802V54.8326L119.774 54.8104Z" fill="#FF6C0E"/>
<path d="M130.106 54.8326H129.522V48.0938H130.106V54.8326Z" fill="#FF6C0E"/>
<path d="M137.706 54.222H140.767V54.8326H137.122V48.0938H140.663V48.7043H137.706V51.0135H140.475V51.6241H137.706V54.222Z" fill="#FF6C0E"/>
<path d="M74.6973 8.09329L76.6841 6.02832L76.9201 6.36138L75.2434 8.10439L76.2609 9.45885L77.8337 7.82684L78.0782 8.14879L76.4962 9.79186L77.6168 11.2796L79.3684 9.45885L79.6135 9.78076L77.5511 11.9124L74.6973 8.09329Z" fill="#231F20"/>
<path d="M80.8472 7.77146C80.9885 7.87466 81.1524 7.92499 81.3184 7.91578C81.4838 7.91375 81.6463 7.86013 81.789 7.76035C81.8576 7.71435 81.9211 7.65841 81.9777 7.59383C82.0292 7.52474 82.0702 7.44594 82.0999 7.36069C82.1331 7.28482 82.1522 7.20161 82.1564 7.11645C82.1571 7.02696 82.1373 6.93891 82.0999 6.8611C82.0723 6.80822 82.0349 6.763 81.9911 6.72852C81.9473 6.69404 81.8978 6.6711 81.8455 6.66126C81.7304 6.63404 81.6124 6.63404 81.4972 6.66126C81.3623 6.69721 81.2301 6.74546 81.1015 6.80559C80.968 6.8601 80.8288 6.89369 80.6875 6.9055C80.5638 6.94411 80.4338 6.94411 80.3102 6.9055C80.1731 6.84203 80.0622 6.71882 80 6.56134C79.9322 6.43488 79.8968 6.28873 79.8961 6.13947C79.894 6.00588 79.9166 5.87336 79.9618 5.7509C80.0099 5.62647 80.077 5.51356 80.1597 5.41784C80.2381 5.31499 80.33 5.22864 80.4331 5.16249C80.6105 5.03723 80.8104 4.9613 81.0167 4.94045C81.211 4.93544 81.4018 5.00137 81.5629 5.12919L81.375 5.51776C81.2619 5.43186 81.1319 5.38211 80.9977 5.37343C80.8549 5.36905 80.7136 5.41546 80.5928 5.50666C80.5356 5.54788 80.4819 5.59626 80.4331 5.65098C80.3858 5.71203 80.3448 5.77905 80.3102 5.85082C80.2805 5.92422 80.2614 6.00305 80.2537 6.08395C80.2325 6.1596 80.2325 6.24146 80.2537 6.3171C80.2763 6.37398 80.3102 6.42324 80.3533 6.46017C80.3957 6.4971 80.4458 6.52046 80.4988 6.52803C80.6112 6.5492 80.7256 6.5492 80.838 6.52803C80.9729 6.49209 81.1051 6.44384 81.2337 6.38371C81.3644 6.32704 81.5 6.28974 81.6385 6.27269C81.7699 6.26038 81.9021 6.28315 82.0243 6.3393C82.1691 6.41527 82.2857 6.54899 82.3543 6.71677C82.4228 6.85199 82.4652 7.00382 82.4765 7.16085C82.4786 7.30162 82.456 7.44134 82.4108 7.57162C82.3606 7.70383 82.29 7.82419 82.2038 7.92689C82.1162 8.03731 82.0144 8.13095 81.9021 8.20443C81.7028 8.34025 81.4817 8.42359 81.252 8.44865C81.0351 8.47311 80.8175 8.41474 80.631 8.28215L80.8472 7.77146Z" fill="#231F20"/>
<path d="M85.0292 3.25275L84.2661 3.58581L84.8971 5.61746C84.9105 5.67955 84.9353 5.73749 84.9692 5.78731C85.0038 5.83713 85.0462 5.87767 85.0949 5.90612C85.1917 5.95071 85.2998 5.95071 85.3966 5.90612C85.4631 5.87402 85.5259 5.83305 85.5846 5.784L85.7542 5.62857L85.8955 5.98383C85.8312 6.04703 85.7619 6.1028 85.6884 6.15036L85.4814 6.28359C85.3719 6.32554 85.2574 6.34799 85.1423 6.3502C85.0511 6.34412 84.9614 6.31775 84.8787 6.27249C84.8017 6.2174 84.7346 6.14584 84.6809 6.06154C84.6258 5.96895 84.5813 5.86816 84.5488 5.76179L83.927 3.73013L83.3525 3.97438L83.2395 3.60801L83.8139 3.33046L83.5412 2.4312L83.8705 2.30908L84.1439 3.21944L84.907 2.88638L85.02 3.25275H85.0292Z" fill="#231F20"/>
<path d="M87.638 5.18433C87.6296 5.13985 87.6289 5.09387 87.6359 5.04906C87.643 5.00425 87.6571 4.96151 87.6783 4.92329C87.6995 4.88509 87.7264 4.85218 87.7582 4.82648C87.7907 4.80078 87.826 4.78279 87.8641 4.77356C87.9369 4.74117 88.0175 4.74117 88.0902 4.77356C88.122 4.79921 88.1489 4.83203 88.1701 4.87014C88.1913 4.90826 88.2054 4.95089 88.2125 4.9956C88.228 5.03573 88.2358 5.07926 88.2358 5.12327C88.2358 5.1673 88.228 5.21081 88.2125 5.25094C88.1941 5.28958 88.1687 5.3227 88.1376 5.34773C88.1065 5.37276 88.0712 5.38903 88.0337 5.39527C87.9609 5.42872 87.8804 5.42872 87.8076 5.39527C87.7454 5.34112 87.7016 5.26225 87.6854 5.17323L87.638 5.18433Z" fill="#231F20"/>
<path d="M94.6641 0.599507H94.655L93.817 1.25452L93.6191 0.888161L94.768 0L95.0789 0.0444079L94.6267 5.10691L94.2593 5.0625L94.6641 0.599507Z" fill="#231F20"/>
<path d="M98.7231 2.22025C98.7005 2.34085 98.7005 2.466 98.7231 2.58661C98.7253 2.7019 98.7472 2.81545 98.7896 2.91967C98.8327 3.02537 98.8934 3.11975 98.9683 3.19722C99.051 3.28738 99.1513 3.35219 99.2601 3.38595C99.3654 3.413 99.4749 3.413 99.5802 3.38595C99.6798 3.37646 99.7759 3.34241 99.8628 3.28604C99.9554 3.23481 100.036 3.15874 100.098 3.064C100.165 2.96859 100.216 2.85942 100.249 2.74204C100.292 2.6264 100.314 2.50171 100.314 2.37567C100.314 2.24964 100.292 2.12495 100.249 2.00931C100.201 1.90296 100.136 1.80893 100.056 1.7327C99.9773 1.65647 99.8854 1.59954 99.7879 1.56523C99.6918 1.5182 99.5894 1.49399 99.4862 1.49399C99.3831 1.49399 99.2806 1.5182 99.1845 1.56523C99.0906 1.62219 99.0072 1.70208 98.9408 1.79966C98.8736 1.89724 98.8256 2.01031 98.7987 2.13143L98.7231 2.22025ZM97.9325 4.44064C97.8922 4.57987 97.8767 4.72704 97.8852 4.87361C97.8929 5.01168 97.9219 5.14698 97.9699 5.27329C98.0236 5.39953 98.0971 5.51257 98.1861 5.60635C98.2872 5.71262 98.4059 5.79214 98.5352 5.83949C98.6624 5.87092 98.7938 5.87092 98.921 5.83949C99.0397 5.82249 99.1541 5.78116 99.2601 5.71737C99.3647 5.64974 99.4573 5.55932 99.5336 5.45092C99.6162 5.33835 99.6777 5.20572 99.7123 5.06235C99.7604 4.91385 99.7766 4.75369 99.7597 4.59607C99.7526 4.45643 99.7208 4.32014 99.665 4.1964C99.6155 4.0706 99.5413 3.96033 99.4488 3.87444C99.3534 3.7766 99.2403 3.7046 99.1188 3.6635C99.0008 3.6144 98.8765 3.5918 98.7514 3.59689C98.6306 3.60707 98.5119 3.64476 98.4031 3.70791C98.2985 3.77555 98.2059 3.86596 98.1303 3.97436C98.0399 4.09297 97.9721 4.23307 97.9325 4.38513V4.44064ZM98.3374 2.02041C98.3875 1.84649 98.4638 1.68475 98.5635 1.54303C98.6617 1.41702 98.7797 1.31515 98.9118 1.24327C99.0475 1.16762 99.1951 1.12604 99.3449 1.12115C99.5046 1.10934 99.665 1.13577 99.8162 1.19886C99.9667 1.25231 100.107 1.33897 100.23 1.45421C100.345 1.56817 100.444 1.70311 100.522 1.85388C100.593 2.00436 100.634 2.17102 100.645 2.34236C100.663 2.52642 100.644 2.7129 100.588 2.88637C100.558 3.00067 100.514 3.10912 100.456 3.20832C100.391 3.30792 100.315 3.39743 100.23 3.47477C100.15 3.55339 100.056 3.61361 99.9575 3.6524C99.8536 3.69255 99.7455 3.71133 99.6367 3.70791C99.7512 3.78697 99.8529 3.88833 99.9384 4.00767C100.013 4.12486 100.071 4.25627 100.108 4.39623C100.145 4.5324 100.165 4.67483 100.165 4.81811C100.157 4.96863 100.135 5.11766 100.098 5.26219C100.044 5.46643 99.954 5.6553 99.8346 5.81728C99.7286 5.96353 99.5972 6.08095 99.4488 6.16145C99.2969 6.25091 99.1287 6.29657 98.9591 6.29467C98.7797 6.3027 98.6009 6.27262 98.4313 6.20585C98.2561 6.14433 98.0929 6.04244 97.9509 5.9061C97.8202 5.78944 97.7113 5.642 97.6308 5.47312C97.546 5.30449 97.4973 5.11389 97.4895 4.91802C97.4704 4.70392 97.493 4.48754 97.5552 4.28521C97.5926 4.14184 97.6499 4.00678 97.7248 3.88554C97.7919 3.7633 97.8781 3.65769 97.9791 3.57468C98.0773 3.48694 98.1897 3.42281 98.3091 3.38595C98.4363 3.35209 98.5677 3.35209 98.6949 3.38595C98.6037 3.31881 98.5239 3.23221 98.4596 3.13061C98.4024 3.02364 98.3579 2.90781 98.3275 2.78644C98.3126 2.66497 98.3126 2.54156 98.3275 2.42008C98.314 2.3022 98.314 2.1827 98.3275 2.06482L98.3374 2.02041Z" fill="#231F20"/>
<path d="M103.329 4.37402C103.272 4.47778 103.237 4.59557 103.225 4.71819C103.206 4.8318 103.206 4.94872 103.225 5.06234C103.247 5.17863 103.288 5.28835 103.348 5.3843C103.417 5.4891 103.503 5.57602 103.602 5.63965C103.693 5.70654 103.796 5.74828 103.904 5.76177C104.003 5.78426 104.105 5.78426 104.205 5.76177C104.302 5.73524 104.392 5.68197 104.468 5.60634C104.549 5.52714 104.619 5.43349 104.676 5.32879C104.731 5.22191 104.768 5.10305 104.784 4.97915C104.8 4.85525 104.795 4.72879 104.77 4.60717C104.742 4.48958 104.694 4.37984 104.629 4.28448C104.565 4.18911 104.484 4.11008 104.393 4.05206C104.215 3.92454 104.003 3.88465 103.8 3.94104C103.594 4.01597 103.421 4.18349 103.319 4.40733L103.329 4.37402ZM102.161 6.39458C102.094 6.51874 102.052 6.65923 102.038 6.80535C102.016 6.94468 102.016 7.08789 102.038 7.22723C102.068 7.36314 102.119 7.49123 102.19 7.6047C102.266 7.72956 102.365 7.83209 102.481 7.90445C102.595 7.99011 102.724 8.04333 102.858 8.05988C102.977 8.08228 103.097 8.08228 103.216 8.05988C103.329 8.01563 103.434 7.94795 103.526 7.86004C103.625 7.76781 103.708 7.65489 103.772 7.52698C103.837 7.39421 103.879 7.24677 103.894 7.09401C103.917 6.95467 103.917 6.81147 103.894 6.67213C103.866 6.53354 103.811 6.40441 103.734 6.29466C103.656 6.17869 103.56 6.08082 103.451 6.00601C103.344 5.93126 103.226 5.88221 103.103 5.86169C102.984 5.83472 102.863 5.83472 102.745 5.86169C102.629 5.89988 102.52 5.96396 102.425 6.05042C102.321 6.14794 102.235 6.26868 102.17 6.40568L102.161 6.39458ZM102.98 4.17418C103.059 4.01306 103.165 3.8731 103.291 3.76341C103.405 3.65929 103.537 3.58713 103.678 3.55248C103.823 3.51343 103.974 3.51343 104.12 3.55248C104.277 3.57871 104.428 3.64296 104.563 3.74121C104.703 3.83223 104.827 3.95264 104.93 4.09647C105.022 4.23172 105.093 4.38608 105.137 4.55165C105.166 4.72026 105.166 4.89374 105.137 5.06234C105.114 5.24559 105.063 5.42238 104.987 5.58413C104.931 5.6863 104.865 5.77959 104.789 5.86169C104.713 5.95061 104.623 6.02214 104.525 6.07262C104.431 6.12899 104.329 6.16294 104.224 6.17254C104.121 6.20012 104.015 6.20012 103.913 6.17254C104.012 6.27591 104.096 6.4001 104.158 6.53891C104.207 6.669 104.239 6.80769 104.252 6.94968C104.27 7.09316 104.27 7.23918 104.252 7.38266C104.224 7.52792 104.177 7.66677 104.111 7.79343C104.02 7.98238 103.898 8.14837 103.752 8.28192C103.622 8.4007 103.471 8.48412 103.31 8.52612C103.148 8.55952 102.982 8.55952 102.821 8.52612C102.64 8.49046 102.468 8.41514 102.312 8.30412C102.154 8.19781 102.013 8.05864 101.897 7.89335C101.791 7.74141 101.708 7.56853 101.653 7.38266C101.605 7.18567 101.594 6.97934 101.618 6.77675C101.643 6.57418 101.702 6.37976 101.794 6.20585C101.856 6.07714 101.936 5.96097 102.029 5.86169C102.115 5.75784 102.218 5.67486 102.331 5.61744C102.444 5.55861 102.565 5.52114 102.688 5.50642C102.82 5.4966 102.951 5.51929 103.075 5.57304C102.994 5.48917 102.931 5.38214 102.895 5.26218C102.852 5.15032 102.826 5.02983 102.821 4.90692C102.806 4.78538 102.806 4.66209 102.821 4.54055C102.84 4.41863 102.878 4.30196 102.934 4.19639L102.98 4.17418Z" fill="#231F20"/>
<path d="M106.475 8.43739C106.399 8.53735 106.315 8.64833 106.24 8.77041C106.149 8.90018 106.068 9.03746 105.994 9.18126C105.917 9.32196 105.852 9.4706 105.797 9.62534C105.745 9.77072 105.71 9.92387 105.693 10.0805C105.669 10.2234 105.669 10.3705 105.693 10.5135C105.744 10.6667 105.825 10.8037 105.929 10.9132C106.028 11.0282 106.151 11.109 106.287 11.1463C106.411 11.1739 106.539 11.1739 106.664 11.1463C106.796 11.1095 106.923 11.0496 107.04 10.9686C107.164 10.8904 107.28 10.7973 107.389 10.6911C107.502 10.5912 107.605 10.4802 107.709 10.3691L107.963 10.0472C108.039 9.95836 108.113 9.84738 108.208 9.7141C108.302 9.58091 108.368 9.44764 108.443 9.31445C108.523 9.17099 108.588 9.01851 108.641 8.85926C108.698 8.71563 108.732 8.56165 108.745 8.40408C108.773 8.25789 108.773 8.1062 108.745 7.96001C108.691 7.81188 108.611 7.6793 108.509 7.57144C108.412 7.45566 108.287 7.37809 108.152 7.3494C108.03 7.32098 107.906 7.32098 107.784 7.3494C107.651 7.38225 107.523 7.44236 107.408 7.52703C107.279 7.6025 107.159 7.69568 107.049 7.80458C106.936 7.9045 106.833 8.01552 106.729 8.12654L106.475 8.43739ZM106.174 8.11543C106.283 7.9703 106.399 7.83312 106.522 7.70466C106.645 7.56331 106.777 7.4334 106.918 7.3161C107.055 7.20857 107.2 7.11569 107.351 7.03854C107.493 6.95968 107.646 6.91084 107.803 6.89422C107.958 6.8559 108.118 6.8559 108.274 6.89422C108.445 6.96757 108.602 7.08084 108.735 7.22728C108.87 7.36582 108.98 7.53596 109.055 7.72687C109.122 7.89767 109.157 8.08298 109.159 8.27086C109.161 8.4551 109.138 8.63839 109.093 8.81484C109.041 9.00272 108.975 9.18476 108.896 9.35887C108.81 9.53565 108.716 9.70617 108.613 9.86951C108.509 10.025 108.406 10.1804 108.302 10.3136C108.198 10.4469 108.076 10.5912 107.954 10.7244C107.831 10.8657 107.698 10.9957 107.558 11.113C107.421 11.224 107.276 11.3206 107.125 11.4017C106.981 11.472 106.828 11.5168 106.673 11.5349C106.517 11.5732 106.357 11.5732 106.202 11.5349C106.033 11.4609 105.88 11.3477 105.75 11.2017C105.617 11.0761 105.509 10.9174 105.434 10.737C105.359 10.5566 105.319 10.359 105.317 10.1582C105.314 9.97305 105.339 9.78876 105.392 9.61423C105.441 9.42668 105.504 9.24464 105.58 9.0702C105.663 8.89542 105.758 8.72833 105.863 8.57059C105.966 8.40408 106.07 8.25976 106.174 8.11543Z" fill="#231F20"/>
<path d="M102.218 13.6667C102.209 13.6608 102.199 13.6577 102.19 13.6577C102.18 13.6577 102.17 13.6608 102.161 13.6667C102.004 15.0656 101.422 16.3498 100.522 17.2802C99.6219 18.2104 98.4653 18.7233 97.2684 18.7233C96.0715 18.7233 94.9148 18.2104 94.0147 17.2802C93.1145 16.3498 92.5323 15.0656 92.3754 13.6667C92.3669 13.6608 92.3571 13.6577 92.3472 13.6577C92.3373 13.6577 92.3274 13.6608 92.3189 13.6667H92.2249C92.2143 13.6607 92.203 13.6577 92.1917 13.6577C92.1804 13.6577 92.1691 13.6607 92.1592 13.6667C92.0108 15.0716 91.4322 16.3644 90.532 17.3016C89.6318 18.2389 88.4717 18.7562 87.2705 18.7562C86.07 18.7562 84.9099 18.2389 84.0097 17.3016C83.1095 16.3644 82.5309 15.0716 82.3825 13.6667C82.374 13.6608 82.3641 13.6577 82.3542 13.6577C82.3443 13.6577 82.3344 13.6608 82.326 13.6667C82.326 13.6667 82.2603 13.6666 82.2603 13.7333V26.4783C82.2603 29.623 83.3201 32.6389 85.2066 34.8624C87.0924 37.086 89.6516 38.3352 92.3189 38.3352C94.9869 38.3352 97.5453 37.086 99.4319 34.8624C101.318 32.6389 102.378 29.623 102.378 26.4783V13.7333C102.378 13.7333 102.378 13.6667 102.312 13.6667H102.218Z" fill="#CE1337"/>
<path d="M0.988525 60.1841V62.1047H6.0839V76.6261H7.7227V62.1047H12.8181L11.6973 60.1841H0.988525Z" fill="white"/>
<path d="M15.8886 71.7299H19.6465V69.8093H15.8886V67.2004H22.7357V65.2686H14.2498V76.6259H22.9241V74.6941H15.8886V71.7299Z" fill="white"/>
<path d="M30.7131 69.8093C27.9441 69.8093 27.605 69.4541 27.605 68.355C27.605 67.2559 28.5468 66.8451 30.3081 66.8451C31.7139 66.8071 33.0975 67.2631 34.2826 68.1552L35.0455 66.4233C33.6023 65.479 31.9865 64.9609 30.3363 64.9133C27.0964 64.9133 25.8909 66.6674 25.8909 68.577C25.8909 70.9417 27.4166 71.6856 29.6111 71.7299C33.2183 71.841 33.8494 71.8854 33.8494 73.3397C33.8494 74.6054 32.6438 75.0494 30.9109 75.0494C29.1617 75.1441 27.4354 74.5505 26.0038 73.362L25.2222 75.0494C26.8772 76.4004 28.862 77.075 30.8732 76.9701C33.03 76.9701 35.5824 76.4039 35.5824 73.1399C35.5824 71.3636 35.0738 69.8093 30.7225 69.8093H30.7131Z" fill="white"/>
<path d="M43.6538 69.8093C40.8848 69.8093 40.5457 69.4541 40.5457 68.355C40.5457 67.2559 41.4876 66.8451 43.2488 66.8451C44.6544 66.8091 46.0376 67.2649 47.2234 68.1552L47.9863 66.4233C46.5425 65.4807 44.927 64.9627 43.2771 64.9133C40.0371 64.9133 38.8316 66.6674 38.8316 68.577C38.8316 70.9417 40.3574 71.6856 42.5519 71.7299C46.1591 71.841 46.7901 71.8854 46.7901 73.3397C46.7901 74.6054 45.5846 75.0494 43.8516 75.0494C42.0997 75.1415 40.3712 74.5483 38.9352 73.362L38.1534 75.0494C39.8105 76.3952 41.7939 77.0693 43.8045 76.9701C45.9613 76.9701 48.5137 76.4039 48.5137 73.1399C48.5137 71.3636 48.0051 69.8093 43.6538 69.8093Z" fill="white"/>
<path d="M53.1666 71.7299H56.9246V69.8093H53.1666V67.2004H60.0139V65.2686H51.5278V76.6259H60.2022V74.6941H53.1666V71.7299Z" fill="white"/>
<path d="M71.0614 73.6839L65.0336 65.2686H63.3948V76.6259H65.0336V68.1773L71.0614 76.6259H72.7004V65.2686H71.0614V73.6839Z" fill="white"/>
<path d="M81.8836 74.6939H78.2194V67.2H81.8645C83.5596 67.2 85.1423 68.1104 85.1423 70.9192C85.1691 71.4309 85.1027 71.9436 84.9466 72.4222C84.7904 72.9008 84.5488 73.3341 84.2379 73.6924C83.9263 74.0508 83.5532 74.3257 83.1441 74.4985C82.7343 74.6714 82.2977 74.738 81.8645 74.6939H81.8836ZM81.8836 65.2683H76.6091V76.6034H81.8836C84.4732 76.6034 86.7999 74.8048 86.7999 70.8748C86.7999 66.1897 83.9743 65.2461 81.8836 65.2461V65.2683Z" fill="white"/>
<path d="M90.1243 76.6259H91.7635V65.2686H90.1243V76.6259Z" fill="white"/>
<path d="M97.7347 71.7299H101.493V69.8093H97.7347V67.2004H104.582V65.2686H96.0955V76.6259H104.77V74.6941H97.7347V71.7299Z" fill="white"/>
<path d="M109.714 70.0425V67.2004H114.104C115.347 67.2004 116.053 67.3002 116.053 68.5769C116.053 69.8537 115.272 70.0425 114.169 70.0425H109.714ZM117.692 68.5325C117.692 66.0346 115.968 65.2686 114.029 65.2686H108.076V76.6037H109.714V71.9742H113.068L115.893 76.6037H117.937L115.111 71.9076C115.472 71.8893 115.825 71.7863 116.151 71.6046C116.477 71.423 116.769 71.1663 117.009 70.8497C117.249 70.5332 117.434 70.1631 117.551 69.7614C117.668 69.3596 117.716 68.9343 117.692 68.5104V68.5325Z" fill="white"/>
<path d="M156.75 62.1042L155.63 60.1836H148.217V76.6256H149.856V69.054H154.584V67.1334H149.856V62.1042H156.75Z" fill="white"/>
<path d="M158.06 76.6259H159.698V65.2686H158.06V76.6259Z" fill="white"/>
<path d="M166.112 65.2686H164.473V76.6259H171.99V74.6941H166.112V65.2686Z" fill="white"/>
<path d="M179.138 69.8093C176.313 69.8093 176.03 69.4541 176.03 68.355C176.03 67.2559 176.972 66.8451 178.723 66.8451C180.132 66.8095 181.518 67.2652 182.708 68.1552L183.471 66.4233C182.01 65.4706 180.374 64.9524 178.705 64.9133C175.475 64.9133 174.259 66.6674 174.259 68.577C174.259 70.9417 175.785 71.6856 177.979 71.7299C181.587 71.841 182.227 71.8854 182.227 73.3397C182.227 74.6054 181.013 75.0494 179.279 75.0494C177.53 75.1441 175.804 74.5505 174.372 73.362L173.591 75.0494C175.246 76.3981 177.231 77.0725 179.242 76.9701C181.398 76.9701 183.951 76.4039 183.951 73.1399C183.951 71.3636 183.452 69.8093 179.101 69.8093H179.138Z" fill="white"/>
<path d="M137.65 76.6037C136.988 77.3826 136.18 77.9672 135.291 78.3105C134.403 78.6539 133.458 78.7464 132.533 78.5805C131.608 78.4147 130.73 77.9951 129.968 77.3558C129.206 76.7164 128.582 75.8749 128.147 74.8993C127.711 73.9236 127.476 72.841 127.461 71.7388C127.445 70.6365 127.65 69.5453 128.058 68.5531C128.465 67.561 129.065 66.6956 129.809 66.0268C130.552 65.358 131.418 64.9043 132.338 64.7024L138.497 75.2826C138.26 75.7605 137.975 76.2039 137.65 76.6037ZM141.163 71.6189C141.166 70.7083 141.051 69.8024 140.824 68.9323L140.777 68.7657H138.893L138.997 69.0876C139.261 69.8954 139.398 70.7532 139.402 71.6189C139.4 72.1879 139.34 72.7545 139.223 73.3064L131.481 59.9841H140.814V58.2078H128.571L131.255 62.8373C130.08 63.2387 129.003 63.9627 128.112 64.9499C127.221 65.9371 126.541 67.1593 126.129 68.5161C125.717 69.873 125.583 71.3258 125.739 72.7554C125.895 74.1851 126.337 75.5505 127.028 76.74C127.718 77.9293 128.638 78.9087 129.712 79.5976C130.786 80.2865 131.984 80.6653 133.206 80.703C134.429 80.7405 135.641 80.4359 136.744 79.8141C137.848 79.1922 138.809 78.2708 139.552 77.1255L141.822 81.0445H143.706L140.456 75.4935C140.924 74.2996 141.164 73.0002 141.163 71.6855V71.6189Z" fill="white"/>
</g>
</g>
<g clip-path="url(#clip1_322_223)">
<path d="M83.9885 107.97C88.5805 107.97 92.4885 113.421 92.4885 119C92.4885 113.421 96.3966 107.97 100.989 107.97" stroke="#C06520" stroke-width="2"/>
<path d="M92.4885 116.879V91.0001" stroke="#C06520" stroke-width="2"/>
</g>
<defs>
<clipPath id="clip0_322_223">
<rect width="183" height="81" fill="white" transform="translate(0.988525)"/>
</clipPath>
<clipPath id="clip1_322_223">
<rect x="83.9885" y="119" width="28" height="17" transform="rotate(-90 83.9885 119)" fill="white"/>
</clipPath>
</defs>
</svg>
