<svg width="1048" height="306" viewBox="0 0 1048 306" fill="none" xmlns="http://www.w3.org/2000/svg">
<line x1="0.975891" y1="239.22" x2="1047.95" y2="239.22" stroke="#C06520" stroke-width="3"/>
<g clip-path="url(#clip0_36_4839)">
<path d="M372.525 153.346C372.525 236.302 440.067 303.552 523.384 303.552C606.701 303.552 674.243 236.302 674.243 153.346C674.243 70.3893 606.701 3.13965 523.384 3.13965C440.067 3.13965 372.525 70.3893 372.525 153.346Z" fill="black"/>
<mask id="mask0_36_4839" style="mask-type:luminance" maskUnits="userSpaceOnUse" x="429" y="55" width="189" height="196">
<path d="M617.288 180.672C607.629 176.171 600.846 165.635 600.834 153.349C600.846 141.06 607.626 130.525 617.288 126.023C605.422 85.5303 567.885 55.937 523.384 55.937C478.883 55.937 441.355 85.5272 429.483 126.014C439.157 130.509 445.952 141.051 445.965 153.349C445.952 165.647 439.157 176.189 429.483 180.684C441.352 221.171 478.886 250.761 523.384 250.761C567.882 250.761 605.422 221.168 617.288 180.675V180.672Z" fill="white"/>
</mask>
<g mask="url(#mask0_36_4839)">
<path d="M501.619 407.252V357.549C503.829 357.154 505.58 355.48 506.084 353.317H517.655L517.655 395.603C517.655 396.151 518.101 396.598 518.654 396.598C519.207 396.598 519.653 396.154 519.653 395.603L519.653 353.317H534.085L534.085 401.457C534.085 402.005 534.531 402.451 535.084 402.451C535.637 402.451 536.083 402.008 536.083 401.457L536.083 353.317H550.34L550.34 400.205C550.34 400.753 550.786 401.2 551.339 401.2C551.892 401.2 552.338 400.756 552.338 400.205L552.338 353.317H582.711L582.711 363.73H572.246C568.5 363.73 565.464 366.753 565.46 370.487V400.147C565.46 400.695 565.906 401.142 566.459 401.142C567.013 401.142 567.458 400.698 567.458 400.147V370.487C567.464 367.852 569.603 365.722 572.249 365.719H582.714V395.606C582.714 396.154 583.16 396.601 583.713 396.601C584.266 396.601 584.712 396.157 584.712 395.606V365.193C584.788 365.052 584.844 364.899 584.844 364.728C584.844 364.556 584.788 364.403 584.712 364.262L584.712 324.47H594.752C594.752 324.501 594.749 324.522 594.746 324.559C594.635 326.747 594.598 333.779 594.598 342.69C594.598 364.027 594.817 395.949 594.817 395.952C594.82 396.5 595.271 396.943 595.822 396.937C596.372 396.934 596.817 396.484 596.811 395.937C596.811 395.93 596.799 393.941 596.777 390.615C596.716 380.637 596.593 358.681 596.593 342.69C596.593 337.359 596.605 332.689 596.642 329.351C596.661 327.683 596.682 326.346 596.71 325.431C596.722 325.012 596.737 324.694 596.75 324.47H603.935V327.059C603.935 327.377 604.089 327.677 604.35 327.864C604.608 328.05 604.943 328.102 605.247 328.002C605.994 327.757 606.762 327.628 607.534 327.555V397.448C607.534 397.996 607.979 398.443 608.533 398.443C609.086 398.443 609.532 397.999 609.532 397.448V327.555C610.306 327.628 611.074 327.757 611.821 328.002C612.125 328.102 612.46 328.05 612.719 327.864C612.977 327.677 613.13 327.377 613.13 327.059V319.893C613.13 319.574 612.977 319.274 612.719 319.088C612.46 318.901 612.125 318.849 611.821 318.95C610.755 319.302 609.645 319.476 608.536 319.476C607.426 319.476 606.317 319.302 605.25 318.95C604.946 318.849 604.611 318.901 604.353 319.088C604.095 319.274 603.941 319.574 603.941 319.893V322.481H584.718V314.118L632.354 314.118V322.481L616.729 322.481V319.893C616.729 319.345 616.284 318.898 615.73 318.898C615.177 318.898 614.732 319.342 614.732 319.893V327.059C614.732 327.607 615.177 328.053 615.73 328.053C616.284 328.053 616.729 327.61 616.729 327.059V324.47H619.461C619.461 324.501 619.458 324.522 619.455 324.559C619.345 326.747 619.308 333.779 619.308 342.69C619.308 364.027 619.526 395.949 619.526 395.952C619.529 396.5 619.981 396.943 620.531 396.937C621.081 396.934 621.527 396.484 621.52 395.937C621.52 395.93 621.508 393.941 621.487 390.615C621.425 380.637 621.302 358.681 621.302 342.69C621.302 337.359 621.315 332.689 621.351 329.351C621.37 327.683 621.391 326.346 621.419 325.431C621.431 325.012 621.447 324.694 621.459 324.47L632.354 324.47V394.073C632.354 394.621 632.799 395.068 633.353 395.068C633.906 395.068 634.351 394.624 634.351 394.073V306.361C634.351 302.891 631.527 300.076 628.039 300.076L589.242 300.076C588.827 297.784 587.02 295.985 584.718 295.572V289.409L640.261 289.409L640.261 394.07C640.261 394.618 640.707 395.064 641.26 395.064C641.813 395.064 642.259 394.621 642.259 394.07L642.259 275.519H648.058L648.058 394.07C648.058 394.618 648.504 395.064 649.057 395.064C649.61 395.064 650.056 394.621 650.056 394.07V350.63H659.337C661.476 350.633 663.21 352.359 663.213 354.489V393.804C663.213 394.351 663.658 394.798 664.212 394.798C664.765 394.798 665.21 394.355 665.21 393.804V386.42C665.905 386.399 666.944 386.389 668.148 386.389C671.738 386.389 676.661 386.463 677.934 386.481V393.146C677.934 393.694 678.379 394.14 678.933 394.14C679.486 394.14 679.931 393.697 679.931 393.146V336.055H685.027C687.415 336.058 689.348 337.983 689.351 340.361V392.818C689.351 393.366 689.797 393.813 690.35 393.813C690.903 393.813 691.349 393.369 691.349 392.818V340.361C691.349 336.885 688.521 334.069 685.03 334.069H679.922V320.385H691.023C693.654 320.385 696.029 321.444 697.753 323.161C699.478 324.88 700.541 327.243 700.541 329.862V392.491C700.541 393.039 700.987 393.486 701.54 393.486C702.093 393.486 702.539 393.042 702.539 392.491V354.455H713.252V394.131C713.252 394.679 713.698 395.126 714.251 395.126C714.804 395.126 715.25 394.682 715.25 394.131V299.017C715.25 298.968 715.228 298.928 715.222 298.879V239.105C715.222 238.845 715.114 238.588 714.93 238.405C714.746 238.218 714.488 238.114 714.226 238.114H696.696C694.834 238.111 693.325 236.608 693.322 234.754V226.976H716.347C716.897 226.976 717.346 226.532 717.346 225.981C717.346 225.43 716.9 224.987 716.347 224.987H679.363C679.231 224.922 679.086 224.876 678.926 224.876C678.767 224.876 678.625 224.922 678.49 224.987H659.519V215.253C659.522 213.233 661.163 211.602 663.188 211.599H710.308C710.858 211.599 711.307 211.155 711.307 210.605C711.307 210.054 710.861 209.61 710.308 209.61H663.188C660.06 209.61 657.524 212.135 657.524 215.253V224.987H647.892V201.238C648.181 201.232 648.559 201.226 649.011 201.22C651.866 201.183 657.847 201.171 665.069 201.171C675.008 201.171 687.31 201.195 697.13 201.22C702.038 201.232 706.325 201.244 709.386 201.253C712.447 201.262 714.275 201.269 714.279 201.269C714.829 201.269 715.277 200.828 715.28 200.28C715.28 199.732 714.838 199.286 714.288 199.283C714.288 199.283 713.775 199.283 712.853 199.276V183.193C712.853 182.933 712.745 182.676 712.561 182.492C712.376 182.306 712.118 182.202 711.857 182.202H700.052V166.697H711.857C712.407 166.697 712.856 166.253 712.856 165.702C712.856 165.151 712.41 164.708 711.857 164.708H700.052V157.859C700.052 157.312 699.607 156.865 699.053 156.865C698.5 156.865 698.055 157.309 698.055 157.859V164.708H687.246V161.785C687.246 159.276 687.609 156.779 688.318 154.371L690.181 148.067C690.946 145.479 691.336 142.792 691.336 140.093V135.368H707.112C711.602 135.368 715.244 131.745 715.244 127.272L715.244 28.2225C715.244 28.1735 715.222 28.1338 715.216 28.0848V-31.6862C715.216 -31.9463 715.108 -32.2033 714.924 -32.3869C714.74 -32.5736 714.481 -32.6776 714.22 -32.6776H696.69C694.828 -32.6807 693.319 -34.1831 693.316 -36.0375V-43.816L716.341 -43.816C716.891 -43.816 717.34 -44.2597 717.34 -44.8105C717.34 -45.3613 716.894 -45.805 716.341 -45.805L679.363 -45.805C679.231 -45.8693 679.086 -45.9152 678.926 -45.9152C678.767 -45.9152 678.625 -45.8693 678.49 -45.805H659.519V-55.5389C659.522 -57.5585 661.163 -59.1895 663.188 -59.1925L710.308 -59.1925C710.858 -59.1925 711.307 -59.6362 711.307 -60.187C711.307 -60.7378 710.861 -61.1815 710.308 -61.1815L663.188 -61.1815C660.06 -61.1815 657.524 -58.657 657.524 -55.5389V-45.805H647.892V-69.5537C648.181 -69.5598 648.559 -69.5659 649.011 -69.572C651.866 -69.6088 657.847 -69.621 665.069 -69.621C675.008 -69.621 687.31 -69.5965 697.13 -69.572C702.038 -69.5598 706.325 -69.5476 709.386 -69.5384C712.447 -69.5292 714.275 -69.5231 714.279 -69.5231C714.829 -69.5231 715.277 -69.9637 715.28 -70.5114C715.28 -71.0592 714.838 -71.506 714.288 -71.509C714.288 -71.509 713.775 -71.509 712.853 -71.5151V-87.5985C712.853 -87.8586 712.745 -88.1156 712.561 -88.2992C712.376 -88.4859 712.118 -88.5899 711.857 -88.5899H700.052V-104.095H711.857C712.407 -104.095 712.856 -104.539 712.856 -105.089C712.856 -105.64 712.41 -106.084 711.857 -106.084H700.052V-112.932C700.052 -113.48 699.607 -113.927 699.053 -113.927C698.5 -113.927 698.055 -113.483 698.055 -112.932V-105.775C697.883 -105.597 697.775 -105.359 697.775 -105.093C697.775 -104.826 697.883 -104.588 698.055 -104.41V-88.2839C697.883 -88.1065 697.775 -87.8678 697.775 -87.6016C697.775 -87.3353 697.883 -87.0966 698.055 -86.9192V-71.558C694.702 -71.5672 691.035 -71.5763 687.249 -71.5824V-112.932C687.249 -113.48 686.803 -113.927 686.25 -113.927C685.697 -113.927 685.251 -113.483 685.251 -112.932V-71.5855C681.662 -71.5916 678.004 -71.5978 674.446 -71.6008V-112.932C674.446 -113.48 674 -113.927 673.447 -113.927C672.894 -113.927 672.448 -113.483 672.448 -112.932V-71.6039C669.9 -71.6039 667.414 -71.6069 665.066 -71.6069C663.886 -71.6069 662.746 -71.6069 661.642 -71.6069V-112.932C661.642 -113.48 661.197 -113.927 660.643 -113.927C660.09 -113.927 659.645 -113.483 659.645 -112.932V-71.6039C656.928 -71.6039 654.481 -71.5947 652.527 -71.5855C650.935 -71.5763 649.638 -71.5672 648.716 -71.5549C648.387 -71.5518 648.123 -71.5457 647.889 -71.5396V-113.471C647.889 -114.019 647.444 -114.465 646.89 -114.465C646.337 -114.465 645.892 -114.022 645.892 -113.471V-97.9474C644.49 -97.9413 640.851 -97.9199 636.285 -97.9015C630.424 -97.877 623.1 -97.8526 617.242 -97.8526C616.815 -97.8526 616.416 -97.8526 616.004 -97.8526C615.878 -97.9107 615.736 -97.9474 615.589 -97.9474C615.441 -97.9474 615.3 -97.9107 615.174 -97.8526C613.112 -97.8526 611.308 -97.8617 609.925 -97.874C609.11 -97.8801 608.468 -97.8893 607.983 -97.9015V-113.471C607.983 -114.019 607.537 -114.465 606.984 -114.465C606.431 -114.465 605.985 -114.022 605.985 -113.471V-45.805H599.703V-113.471C599.703 -114.019 599.257 -114.465 598.704 -114.465C598.151 -114.465 597.705 -114.022 597.705 -113.471V-45.805H590.394V-69.0182C592.782 -69.6638 594.549 -71.815 594.549 -74.3977C594.549 -76.9803 592.782 -79.1315 590.394 -79.7771V-113.468C590.394 -114.015 589.948 -114.462 589.395 -114.462C588.842 -114.462 588.396 -114.019 588.396 -113.468V-96.855L581.377 -96.855V-118.902C581.377 -119.45 580.931 -119.897 580.378 -119.897C579.825 -119.897 579.379 -119.453 579.379 -118.902V-96.855H571.752V-118.902C571.752 -119.45 571.306 -119.897 570.753 -119.897C570.2 -119.897 569.754 -119.453 569.754 -118.902V-97.5466C569.52 -97.3905 569.36 -97.1457 569.324 -96.855L562.123 -96.855V-118.902C562.123 -119.45 561.677 -119.897 561.124 -119.897C560.571 -119.897 560.125 -119.453 560.125 -118.902V-96.855H552.599C552.583 -96.9774 552.553 -97.0906 552.497 -97.1947V-118.902C552.497 -119.45 552.052 -119.897 551.499 -119.897C550.945 -119.897 550.5 -119.453 550.5 -118.902V-96.855H542.872V-118.902C542.872 -119.45 542.426 -119.897 541.873 -119.897C541.32 -119.897 540.874 -119.453 540.874 -118.902V-96.855H533.928C533.879 -97.2467 533.612 -97.5588 533.246 -97.672V-118.902C533.246 -119.45 532.801 -119.897 532.247 -119.897C531.694 -119.897 531.249 -119.453 531.249 -118.902V-96.855H523.621V-118.902C523.621 -119.45 523.175 -119.897 522.622 -119.897C522.069 -119.897 521.623 -119.453 521.623 -118.902V-96.855H513.995V-118.902C513.995 -119.45 513.549 -119.897 512.996 -119.897C512.443 -119.897 511.997 -119.453 511.997 -118.902V-96.855H504.37V-118.902C504.37 -119.45 503.924 -119.897 503.371 -119.897C502.818 -119.897 502.372 -119.453 502.372 -118.902V-96.855H494.744V-118.902C494.744 -119.45 494.298 -119.897 493.745 -119.897C493.192 -119.897 492.746 -119.453 492.746 -118.902V-96.855H483.542V-118.902C483.542 -119.45 483.096 -119.897 482.543 -119.897C481.99 -119.897 481.544 -119.453 481.544 -118.902V-85.074C481.421 -84.9087 481.335 -84.7129 481.335 -84.4926C481.335 -84.2723 481.421 -84.0764 481.544 -83.9112V-75.3891H465.542V-130.191C465.542 -130.738 465.096 -131.185 464.543 -131.185C463.99 -131.185 463.544 -130.741 463.544 -130.191V-85.6646H457.729V-138.572H456.534V-85.0067H454.594V-138.572H453.399V-85.6646H451.054C450.845 -87.675 449.61 -89.3702 447.861 -90.2178V-91.8366C447.861 -94.7283 445.507 -97.0723 442.603 -97.0723H439.624V-138.499C439.624 -139.046 439.179 -139.493 438.626 -139.493C438.072 -139.493 437.627 -139.049 437.627 -138.499V-97.0723H420.515V-130.191C420.515 -130.738 420.069 -131.185 419.516 -131.185C418.963 -131.185 418.517 -130.741 418.517 -130.191V-97.0723L398.138 -97.0723V-146.014C398.138 -146.562 397.692 -147.008 397.139 -147.008C396.586 -147.008 396.14 -146.565 396.14 -146.014V-124.885L345.274 -124.885V-154.502C345.274 -155.05 344.829 -155.497 344.276 -155.497C343.722 -155.497 343.277 -155.053 343.277 -154.502V-112.638H337.686C337.136 -112.638 336.688 -112.195 336.688 -111.644C336.688 -111.093 337.133 -110.649 337.686 -110.649H343.277V-97.0692H336.368C335.818 -97.0692 335.369 -96.6255 335.369 -96.0747C335.369 -95.5239 335.815 -95.0802 336.368 -95.0802H343.277V-91.2062H337.686C337.136 -91.2062 336.688 -90.7625 336.688 -90.2117C336.688 -89.6609 337.133 -89.2172 337.686 -89.2172H343.277V-75.3799H335.05C334.499 -75.3799 334.051 -74.9362 334.051 -74.3854C334.051 -73.8346 334.496 -73.3909 335.05 -73.3909H343.317C343.412 -72.9411 343.793 -72.5984 344.272 -72.5984C344.752 -72.5984 345.133 -72.9442 345.228 -73.3909L388.672 -73.3909C389.014 -70.5451 391.417 -68.3327 394.367 -68.3327H396.137V-60.3645C396.054 -60.2696 395.987 -60.1564 395.944 -60.0279C395.83 -59.6913 395.925 -59.3455 396.137 -59.0915V-45.7928H376.453V-51.5242C376.453 -57.2555 371.788 -61.9006 366.031 -61.9006L330.658 -61.9006C330.108 -61.9006 329.659 -61.4569 329.659 -60.9061C329.659 -60.3553 330.105 -59.9116 330.658 -59.9116L366.031 -59.9116C368.361 -59.9116 370.463 -58.9752 371.991 -57.4544C373.518 -55.9336 374.458 -53.8406 374.458 -51.5211V-45.7897L328.021 -45.7897C327.471 -45.7897 327.022 -45.346 327.022 -44.7952C327.022 -44.2444 327.468 -43.8007 328.021 -43.8007L499.105 -43.8007V-32.9897L366.056 -32.9897C365.985 -33.005 365.918 -33.0326 365.844 -33.0326C365.77 -33.0326 365.703 -33.005 365.632 -32.9897L332.413 -32.9897C331.863 -32.9897 331.414 -32.546 331.414 -31.9952C331.414 -31.4444 331.859 -31.0007 332.413 -31.0007H344.153L344.153 190.372H342.382C339.199 190.372 336.62 192.942 336.62 196.109V196.734C336.62 199.904 339.199 202.471 342.382 202.471H347.917C350.868 202.471 353.268 200.259 353.612 197.413H385.347V224.727C385.347 224.827 385.378 224.922 385.405 225.014H376.453V219.283C376.453 213.551 371.788 208.906 366.031 208.906H330.658C330.108 208.906 329.659 209.35 329.659 209.901C329.659 210.452 330.105 210.895 330.658 210.895H366.031C368.361 210.895 370.463 211.832 371.991 213.352C373.518 214.873 374.458 216.966 374.458 219.286V225.017H328.021C327.471 225.017 327.022 225.461 327.022 226.012C327.022 226.563 327.468 227.006 328.021 227.006L499.105 227.006V237.817L366.056 237.817C365.985 237.802 365.918 237.774 365.844 237.774C365.77 237.774 365.703 237.802 365.632 237.817H332.413C331.863 237.817 331.414 238.261 331.414 238.812C331.414 239.362 331.859 239.806 332.413 239.806H344.153V397.95C344.153 398.498 344.598 398.945 345.151 398.945C345.705 398.945 346.15 398.501 346.15 397.95V354.265H361.606V356.854C361.606 357.172 361.76 357.472 362.018 357.659C362.276 357.846 362.611 357.898 362.915 357.797C363.982 357.445 365.091 357.27 366.2 357.27C367.31 357.27 368.419 357.445 369.486 357.797C369.79 357.898 370.125 357.846 370.383 357.659C370.641 357.472 370.798 357.172 370.798 356.854V354.265H372.402V356.854C372.402 357.402 372.848 357.849 373.401 357.849C373.954 357.849 374.4 357.405 374.4 356.854V354.265H385.353V398.706C385.353 399.254 385.799 399.7 386.352 399.7C386.905 399.7 387.351 399.257 387.351 398.706V395.652H453.064C453.153 395.676 453.239 395.707 453.338 395.707C453.436 395.707 453.522 395.676 453.611 395.652H481.541C481.55 396.194 481.99 396.631 482.537 396.631C483.084 396.631 483.536 396.187 483.536 395.637L483.536 353.351H495.107C495.611 355.511 497.362 357.185 499.572 357.582V407.286C499.572 407.834 500.018 408.281 500.571 408.281C501.124 408.281 501.57 407.837 501.57 407.286L501.619 407.252ZM611.117 321.15V325.795C610.586 325.682 610.051 325.609 609.513 325.566C609.181 325.538 608.849 325.486 608.517 325.486C608.185 325.486 607.853 325.538 607.519 325.566C606.981 325.609 606.446 325.682 605.914 325.795V321.15C606.775 321.334 607.641 321.459 608.514 321.459C609.387 321.459 610.257 321.334 611.114 321.15H611.117ZM700.049 -86.604H710.855V-71.5182C708.319 -71.5274 704.536 -71.5366 700.049 -71.5488V-86.604ZM497.236 353.317C497.086 352.922 496.994 352.5 496.994 352.05C496.994 351.802 497.021 351.564 497.067 351.331C497.405 349.682 498.865 348.442 500.62 348.439C502.375 348.439 503.835 349.682 504.173 351.331C504.219 351.564 504.247 351.805 504.247 352.05C504.247 352.497 504.154 352.922 504.004 353.317C503.488 354.682 502.172 355.658 500.62 355.661C499.068 355.661 497.753 354.682 497.236 353.317ZM506.167 351.331C505.851 348.91 504.007 346.983 501.616 346.554V317.613H550.331V327.129C550.331 328.797 548.969 330.15 547.294 330.153H527.198C521.927 330.153 517.655 334.406 517.655 339.654V351.331H506.167ZM387.403 363.528V350.248H427.27C434.535 350.248 440.424 344.385 440.427 337.148V331.943C440.5 331.805 440.553 331.655 440.553 331.487C440.553 331.319 440.5 331.169 440.427 331.031V315.324C440.5 315.186 440.553 315.036 440.553 314.868C440.553 314.7 440.5 314.55 440.427 314.412V309.4C440.427 308.43 440.516 307.634 440.703 307.025C441.001 306.113 441.41 305.602 442.317 305.156C443.229 304.718 444.72 304.455 446.911 304.458H472.426C473.756 308.396 477.291 311.282 481.59 311.679V315.333H456.534C454.945 315.333 453.657 316.615 453.654 318.2V330.428C453.454 330.609 453.325 330.863 453.325 331.15C453.325 331.444 453.454 331.701 453.654 331.882V343.222C453.654 348.831 451.374 353.898 447.683 357.576C443.989 361.251 438.899 363.522 433.266 363.522H387.403V363.528ZM387.403 332.481L438.432 332.481V337.148C438.432 340.22 437.184 342.992 435.162 345.006C433.14 347.019 430.355 348.262 427.27 348.262H387.403V332.481ZM374.455 274.222C374.455 273.674 374.01 273.228 373.457 273.228C372.903 273.228 372.458 273.671 372.458 274.222V276.811H370.853V274.222C370.853 273.904 370.7 273.604 370.439 273.417C370.18 273.231 369.845 273.179 369.541 273.28C368.681 273.564 367.792 273.702 366.898 273.757V239.776H407.303V250.828H392.065C388.387 250.828 385.402 253.797 385.402 257.462V276.814H374.449V274.225L374.455 274.222ZM363.659 280.128V275.483C364.519 275.666 365.386 275.792 366.259 275.792C367.132 275.792 368.001 275.666 368.859 275.483V280.128C367.998 279.944 367.132 279.819 366.259 279.819C365.386 279.819 364.516 279.944 363.659 280.128ZM499.166 265.847V269.341C499.166 271.991 500.574 274.295 502.676 275.605C500.657 276.722 499.277 278.84 499.277 281.303V300.073H493.253C492.774 294.957 488.723 290.923 483.585 290.446V265.847H499.166ZM398.19 202.45H399.961C402.911 202.45 405.311 200.237 405.655 197.392H418.351V210.146C414.377 210.161 410.182 210.173 406.562 210.173C403.901 210.173 401.553 210.167 399.85 210.152C399.177 210.146 398.642 210.139 398.19 210.13V202.453V202.45ZM387.403 82.4426V79.45H427.27C434.535 79.45 440.424 73.587 440.427 66.3501V61.145C440.5 61.0073 440.553 60.8574 440.553 60.6891C440.553 60.5208 440.5 60.3709 440.427 60.2332L440.427 44.5262C440.5 44.3885 440.553 44.2385 440.553 44.0702C440.553 43.9019 440.5 43.752 440.427 43.6143V38.602C440.427 37.632 440.516 36.8364 440.703 36.2275C441.001 35.3156 441.41 34.8046 442.317 34.3578C443.229 33.9202 444.72 33.6571 446.911 33.6601H472.426C473.756 37.5983 477.291 40.4839 481.59 40.8817V44.5354L456.534 44.5354C454.945 44.5354 453.657 45.8175 453.654 47.4026L453.654 59.6303C453.454 59.8109 453.325 60.0649 453.325 60.3525C453.325 60.6463 453.454 60.9033 453.654 61.0838V72.4242C453.654 78.0332 451.374 83.1005 447.683 86.7787C443.989 90.4537 438.899 92.7242 433.266 92.7242H387.403V82.4365V82.4426ZM374.455 3.42426C374.455 2.87652 374.01 2.42975 373.457 2.42975C372.903 2.42975 372.458 2.87345 372.458 3.42426V6.01302H370.853V3.42426C370.853 3.10601 370.7 2.80616 370.439 2.6195C370.18 2.43284 369.845 2.3808 369.541 2.48179C368.681 2.76636 367.792 2.90407 366.898 2.95914V-31.0222H407.303V-19.9694H392.065C388.387 -19.9694 385.402 -17.0012 385.402 -13.3354V6.01609H374.449V3.42731L374.455 3.42426ZM363.659 9.33007V4.68499C364.519 4.8686 365.386 4.99404 366.259 4.99404C367.132 4.99404 368.001 4.8686 368.859 4.68499V9.33007C367.998 9.14647 367.132 9.021 366.259 9.021C365.386 9.021 364.516 9.14647 363.659 9.33007ZM499.166 -4.9479V-1.45338C499.166 1.19658 500.574 3.50077 502.676 4.81045C500.657 5.92734 499.277 8.04487 499.277 10.5082V29.2782H493.253C492.774 24.1619 488.723 20.1288 483.585 19.6514V-4.9479H499.166ZM422.98 -60.6705H422.933C422.107 -60.6674 421.222 -60.6644 420.349 -60.6613V-73.4062H437.679V-45.8081H433.963V-49.731C433.963 -55.7775 429.046 -60.6736 422.98 -60.6736V-60.6705ZM396.196 -70.334H394.426C392.579 -70.337 391.051 -71.6589 390.728 -73.4062C390.688 -73.6265 390.658 -73.853 390.658 -74.0855V-74.7098C390.658 -74.9423 390.685 -75.1688 390.728 -75.3891C391.054 -77.1333 392.579 -78.4552 394.426 -78.4613H399.961C401.808 -78.4583 403.335 -77.1363 403.658 -75.3891C403.698 -75.1688 403.728 -74.9423 403.728 -74.7098V-74.0855C403.728 -73.853 403.701 -73.6265 403.658 -73.4062C403.332 -71.662 401.805 -70.337 399.961 -70.334H396.196ZM447.907 -87.8555C448.534 -87.2955 448.964 -86.5336 449.103 -85.6676C449.133 -85.4749 449.164 -85.2821 449.164 -85.0801V-84.4559C449.164 -84.1896 449.133 -83.9326 449.081 -83.6817C448.912 -82.8922 448.488 -82.2006 447.907 -81.6804C447.363 -81.1908 446.675 -80.8634 445.912 -80.7563C445.743 -80.7319 445.574 -80.7043 445.396 -80.7043H439.861C439.797 -80.7043 439.738 -80.7196 439.674 -80.7227C438.93 -80.7624 438.248 -81.0042 437.679 -81.4081C436.926 -81.9436 436.376 -82.7453 436.176 -83.6817C436.124 -83.9326 436.093 -84.1896 436.093 -84.4559V-85.0801C436.093 -85.2821 436.124 -85.4749 436.155 -85.6676C436.318 -86.6805 436.877 -87.5557 437.679 -88.1279C438.248 -88.5318 438.93 -88.7766 439.674 -88.8133C439.738 -88.8164 439.797 -88.8317 439.861 -88.8317H445.396C445.574 -88.8317 445.743 -88.8011 445.912 -88.7797C446.675 -88.6726 447.363 -88.3451 447.907 -87.8555ZM490.841 -45.805V-73.0053H498.893V-45.805H490.841ZM488.846 -73.0053V-45.805H483.585V-59.3822C483.659 -59.471 483.723 -59.572 483.763 -59.6882C483.874 -60.0187 483.788 -60.3523 483.585 -60.6062V-73.0023H488.846V-73.0053ZM439.671 -45.805V-51.1386L481.587 -51.1386V-45.805L439.671 -45.805ZM445.802 -73.4031V-70.0066C445.802 -63.96 450.719 -59.064 456.786 -59.064H456.832C461.94 -59.0854 468.114 -59.1068 473.16 -59.1068C475.831 -59.1068 478.188 -59.1007 479.9 -59.0854C480.585 -59.0793 481.132 -59.0701 481.587 -59.064V-53.1245L439.671 -53.1245V-73.4031H445.802ZM481.59 -73.4031V-61.0499C479.94 -61.0805 476.857 -61.0928 473.163 -61.0928C468.111 -61.0928 461.934 -61.0713 456.832 -61.0499H456.789C454.303 -61.0499 452.062 -62.0506 450.433 -63.6723C448.804 -65.2972 447.803 -67.528 447.799 -70.0066V-72.6902C447.864 -72.8218 447.91 -72.9656 447.91 -73.1247V-73.4062L481.59 -73.4062V-73.4031ZM439.671 -75.3891V-78.7337C439.735 -78.7337 439.794 -78.7153 439.858 -78.7153H445.393C445.571 -78.7153 445.737 -78.752 445.909 -78.7673V-75.3891H439.668H439.671ZM426.649 -83.6817H434.176C434.458 -81.6254 435.811 -79.9118 437.679 -79.1498V-75.3922H420.567V-86.5153C422.039 -84.7955 424.203 -83.6817 426.649 -83.6817ZM500.888 -45.805V-73.0053L507.412 -73.0053C510.876 -72.9992 513.676 -70.2085 513.682 -66.763V-55.9428C510.126 -55.4532 507.378 -52.4483 507.378 -48.7732V-45.8081L500.888 -45.8081V-45.805ZM520.191 -35.5693H514.677C511.745 -35.5754 509.376 -37.9347 509.37 -40.8539V-48.7732C509.376 -51.6925 511.745 -54.0517 514.677 -54.0578H522.631C522.923 -54.0578 523.203 -54.0181 523.482 -53.9722C526.006 -53.5621 527.933 -51.4017 527.939 -48.7732V-40.8539C527.933 -38.2254 526.006 -36.0681 523.482 -35.655C523.27 -35.6213 523.052 -35.5969 522.831 -35.5877C522.763 -35.5877 522.699 -35.5663 522.631 -35.5663H520.191V-35.5693ZM588.412 -56.9342V-45.805H560.211C554.756 -45.805 550.334 -41.4017 550.334 -35.9702V-19.9266L537.177 -19.948V-54.119C537.177 -55.6735 538.443 -56.9312 540.004 -56.9342L588.415 -56.9342H588.412ZM713.221 18.25V32.4759H684.99C684.544 30.0065 682.476 28.1246 679.922 27.9165V18.2469H713.221V18.25ZM679.47 37.0812C678.917 37.0812 678.398 36.9466 677.931 36.7262C676.701 36.1479 675.847 34.9147 675.844 33.4704C675.844 32.0261 676.701 30.7929 677.931 30.2146C678.401 29.9943 678.917 29.8596 679.47 29.8596C679.627 29.8596 679.775 29.8872 679.925 29.9055C681.373 30.0891 682.544 31.1111 682.94 32.4759C683.032 32.7941 683.097 33.1216 683.097 33.4704C683.097 33.8162 683.032 34.1467 682.94 34.4649C682.544 35.8297 681.373 36.8517 679.925 37.0353C679.775 37.0537 679.627 37.0812 679.47 37.0812ZM677.928 28.1124C675.577 28.7825 673.846 30.9122 673.846 33.4704C673.846 36.0255 675.577 38.1583 677.928 38.8284V47.6045L665.644 47.6045V18.25L677.928 18.25V28.1124ZM700.541 82.666V116.219C700.538 118.694 698.525 120.699 696.039 120.702H691.336V69.5631C691.336 66.0869 688.509 63.2717 685.018 63.2717H679.922V49.5874H691.023C693.654 49.5874 696.029 50.6462 697.753 52.3628C699.478 54.0826 700.541 56.4449 700.541 59.0642V82.663V82.666ZM614.596 220.488C612.294 220.901 610.487 222.701 610.072 224.993H607.989V174.836H614.596V220.491V220.488ZM566.804 264.776V300.471C566.674 300.639 566.585 300.838 566.585 301.064C566.585 301.291 566.674 301.493 566.804 301.658V315.624H552.328V264.751C554.351 264.751 559.609 264.761 566.804 264.77V264.776ZM583.7 297.457C584.048 297.457 584.38 297.521 584.699 297.613C585.895 297.955 586.826 298.883 587.17 300.073C587.262 300.391 587.327 300.719 587.327 301.067C587.327 301.413 587.262 301.744 587.17 302.062C586.826 303.252 585.895 304.179 584.699 304.522C584.38 304.614 584.051 304.678 583.7 304.678C583.353 304.678 583.021 304.614 582.702 304.522C581.19 304.088 580.074 302.717 580.071 301.067C580.071 299.421 581.187 298.047 582.702 297.613C583.021 297.521 583.35 297.457 583.7 297.457ZM519.65 341.756V339.654C519.65 337.576 520.492 335.704 521.86 334.339C523.227 332.977 525.108 332.139 527.198 332.139H547.294C550.073 332.139 552.325 329.896 552.325 327.129V317.613H566.8V341.756H519.647H519.65ZM483.585 311.686C488.723 311.208 492.774 307.175 493.253 302.059H517.732C520.907 302.059 523.482 299.498 523.482 296.334V276.743H525.572C525.913 279.589 528.317 281.802 531.267 281.802H532.109V315.627H483.585V311.686ZM430.863 265.847V269.748C427.144 270.204 424.227 273.108 423.769 276.811H387.403V265.847H430.863ZM431.861 271.636C434.941 271.642 437.473 273.882 437.956 276.814C438.008 277.138 438.057 277.466 438.057 277.808C438.057 278.148 438.008 278.475 437.956 278.803C437.473 281.734 434.941 283.974 431.861 283.98C428.782 283.974 426.25 281.734 425.767 278.803C425.715 278.478 425.666 278.151 425.666 277.808C425.666 277.469 425.715 277.141 425.767 276.814C426.25 273.882 428.782 271.642 431.861 271.636ZM432.86 285.859C436.576 285.403 439.495 282.496 439.95 278.797H481.587V289.17H435.611C434.096 289.17 432.863 287.94 432.86 286.425C432.86 286.217 432.86 286.04 432.86 285.859ZM473.815 301.067C473.815 298.653 474.795 296.474 476.384 294.892C477.752 293.534 479.571 292.665 481.59 292.435C481.922 292.398 482.245 292.334 482.589 292.334C482.933 292.334 483.256 292.395 483.588 292.435C485.607 292.665 487.427 293.534 488.794 294.892C490.159 296.254 491.031 298.066 491.262 300.076C491.299 300.406 491.363 300.728 491.363 301.07C491.363 301.41 491.302 301.734 491.262 302.065C491.031 304.075 490.159 305.887 488.794 307.249C487.202 308.831 485.017 309.807 482.592 309.807C480.167 309.807 477.979 308.831 476.39 307.249C474.801 305.663 473.821 303.488 473.821 301.074L473.815 301.067ZM536.802 271.688C538.649 271.691 540.177 273.013 540.499 274.761C540.539 274.981 540.57 275.207 540.57 275.44V276.064C540.57 276.297 540.542 276.523 540.499 276.743C540.173 278.488 538.646 279.813 536.802 279.816H531.267C529.42 279.813 527.893 278.491 527.57 276.743C527.53 276.523 527.499 276.297 527.499 276.064V275.44C527.499 275.207 527.527 274.981 527.57 274.761C527.896 273.016 529.423 271.691 531.267 271.688H536.802ZM534.101 315.627V281.802H536.802C539.752 281.802 542.153 279.589 542.497 276.743H550.334V315.627H534.101ZM576.226 262.802C569.013 262.793 562.808 262.787 558.407 262.781C555.528 262.778 553.444 262.775 552.328 262.771V252.86L607.519 252.949V255.541C607.519 255.859 607.672 256.159 607.93 256.345C608.188 256.532 608.523 256.584 608.828 256.483C609.894 256.131 611.004 255.957 612.113 255.957C613.223 255.957 614.332 256.131 615.398 256.483C615.703 256.584 616.038 256.532 616.296 256.345C616.554 256.159 616.708 255.859 616.708 255.541V248.374C616.708 248.056 616.554 247.756 616.293 247.569C616.035 247.383 615.7 247.331 615.395 247.432C614.329 247.784 613.219 247.958 612.11 247.958C611.001 247.958 609.891 247.784 608.825 247.432C608.52 247.331 608.185 247.383 607.927 247.569C607.669 247.756 607.515 248.056 607.515 248.374V250.963L590.323 250.935V226.979H610.072C610.5 229.338 612.405 231.165 614.805 231.504V234.76C614.805 237.713 617.209 240.106 620.174 240.106L632.799 240.106V250.966L620.31 250.966V248.377C620.31 247.83 619.864 247.383 619.311 247.383C618.758 247.383 618.312 247.826 618.312 248.377V255.544C618.312 256.091 618.758 256.538 619.311 256.538C619.864 256.538 620.31 256.095 620.31 255.544V252.955L661.086 252.955V257.251C661.086 260.311 658.618 262.79 655.548 262.802C648.873 262.83 637.747 262.839 625.199 262.839C609.098 262.839 590.649 262.823 576.226 262.808V262.802ZM520.191 235.228H514.677C511.745 235.222 509.376 232.863 509.37 229.944V222.025C509.376 219.105 511.745 216.746 514.677 216.74H522.631C522.923 216.74 523.203 216.78 523.482 216.826C526.006 217.236 527.933 219.396 527.939 222.025V229.944C527.933 232.572 526.006 234.73 523.482 235.143C523.27 235.176 523.052 235.201 522.831 235.21C522.763 235.21 522.699 235.231 522.631 235.231H520.191V235.228ZM515.676 204.035C515.676 199.488 511.976 195.806 507.412 195.806H483.585V187.297H531.989V195.406H529.15C524.918 195.406 521.485 198.821 521.485 203.037V214.754H515.673V204.035H515.676ZM422.98 210.127H422.933C422.107 210.13 421.222 210.133 420.349 210.136V197.392L437.679 197.392V224.99L433.963 224.99V221.067C433.963 215.02 429.046 210.124 422.98 210.124V210.127ZM398.19 200.464H394.426C392.579 200.461 391.051 199.139 390.728 197.392C390.688 197.171 390.658 196.945 390.658 196.712V196.088C390.658 195.855 390.685 195.629 390.728 195.409C391.054 193.664 392.582 192.339 394.426 192.336H399.961C401.808 192.339 403.335 193.664 403.658 195.409C403.698 195.629 403.728 195.855 403.728 196.088V196.712C403.728 196.945 403.701 197.171 403.658 197.392C403.332 199.136 401.805 200.461 399.961 200.464H398.19ZM398.19 135.341C398.19 135.341 398.193 135.341 398.197 135.341H418.572V173.719H398.193V135.341H398.19ZM455.649 72.4334V61.3654C457.88 61.3776 462.628 61.4021 467.49 61.4174V79.1623C467.49 87.0602 464.278 94.1992 459.082 99.3767C453.882 104.551 446.712 107.749 438.779 107.749L420.567 107.749V94.7163H433.266C445.627 94.7163 455.649 84.7407 455.649 72.4303V72.4334ZM455.649 47.4087C455.649 46.9222 456.045 46.5305 456.531 46.5305L481.587 46.5305V59.3916C481.483 59.3978 481.265 59.407 480.936 59.4131C479.731 59.4376 477.34 59.4467 474.476 59.4467C470.404 59.4467 465.366 59.4284 461.347 59.41C458.928 59.3978 456.896 59.3886 455.649 59.3794L455.649 47.4087ZM483.585 40.8909C488.723 40.4135 492.774 36.3805 493.253 31.2641H517.732C520.907 31.2641 523.482 28.7029 523.482 25.5389V5.94875H525.572C525.913 8.79456 528.317 11.0069 531.267 11.0069H532.109V44.8322H483.585V40.8909ZM430.863 -4.9479V-1.0464C427.144 -0.590463 424.227 2.31348 423.769 6.01609H387.403V-4.9479H430.863ZM431.861 0.838553C434.941 0.844687 437.473 3.0846 437.956 6.01609C438.008 6.34044 438.057 6.66787 438.057 7.01058C438.057 7.35024 438.008 7.67766 437.956 8.00509C437.473 10.9366 434.941 13.1765 431.861 13.1826C428.782 13.1765 426.25 10.9366 425.767 8.00509C425.715 7.68073 425.666 7.35331 425.666 7.01058C425.666 6.67092 425.715 6.3435 425.767 6.01609C426.25 3.0846 428.782 0.844687 431.861 0.838553ZM432.86 15.0645C436.576 14.6086 439.495 11.7016 439.95 8.00202L481.587 8.00202V18.3754L435.611 18.3754C434.096 18.3754 432.863 17.1453 432.86 15.6306C432.86 15.4225 432.86 15.245 432.86 15.0645ZM473.815 30.2696C473.815 27.8553 474.795 25.6766 476.384 24.0946C477.752 22.7359 479.571 21.8669 481.59 21.6374C481.922 21.6007 482.245 21.5364 482.589 21.5364C482.933 21.5364 483.256 21.5976 483.588 21.6374C485.607 21.8669 487.427 22.7359 488.794 24.0946C490.159 25.4563 491.031 27.2678 491.262 29.2782C491.299 29.6087 491.363 29.93 491.363 30.2727C491.363 30.6124 491.302 30.9367 491.262 31.2672C491.031 33.2776 490.159 35.0891 488.794 36.4509C487.202 38.0329 485.017 39.009 482.592 39.009C480.167 39.009 477.979 38.0329 476.39 36.4509C474.801 34.8658 473.821 32.6901 473.821 30.2757L473.815 30.2696ZM566.804 -6.02195V29.2752H552.328V-6.04031C554.351 -6.04031 559.609 -6.03114 566.804 -6.02195ZM663.649 18.25V31.9343H650.05V18.25H663.649ZM650.05 47.6045V33.9202H663.649V47.6045H650.05ZM648.055 17.2585V120.705H642.256V4.72172H648.055V17.2585ZM677.928 65.2607V97.7396C676.609 97.7182 671.729 97.6478 668.142 97.6478C667.097 97.6478 666.163 97.6539 665.453 97.6692C665.352 97.6692 665.293 97.6753 665.201 97.6784V83.6942C665.201 80.4659 662.573 77.8496 659.331 77.8496H650.05V65.2638L677.928 65.2638V65.2607ZM608.25 150.384C606.713 152.214 606.099 154.548 606.025 156.874H599.712V141.586H613.047C616.671 141.605 618.957 140.277 620.162 138.581C620.943 137.492 621.268 136.351 621.419 135.378L641.014 135.378C641.73 135.543 642.508 135.824 643.203 136.299C644.616 137.278 645.873 138.967 645.895 142.621V147.198L616.167 147.198C612.531 147.186 609.882 148.432 608.247 150.387L608.25 150.384ZM605.994 224.993H599.712V158.86H605.994V224.993ZM615.595 222.373C615.942 222.373 616.274 222.438 616.594 222.529C617.789 222.872 618.721 223.799 619.065 224.99C619.157 225.308 619.222 225.635 619.222 225.984C619.222 226.33 619.157 226.66 619.065 226.979C618.739 228.099 617.897 228.986 616.803 229.375C616.425 229.509 616.022 229.595 615.595 229.598C615.325 229.598 615.06 229.561 614.808 229.506C613.511 229.219 612.491 228.239 612.125 226.979C612.033 226.66 611.969 226.333 611.969 225.984C611.969 225.638 612.033 225.308 612.125 224.99C612.47 223.799 613.401 222.872 614.596 222.529C614.916 222.438 615.245 222.373 615.595 222.373ZM632.799 226.979V238.117L620.174 238.117C618.312 238.114 616.803 236.612 616.8 234.757V231.446C619.003 230.966 620.712 229.2 621.115 226.979L632.799 226.979ZM590.406 201.78C592.794 201.134 594.562 198.983 594.562 196.4C594.562 193.817 592.794 191.666 590.406 191.021V158.86H597.718V224.993H590.406V201.78ZM481.59 217.67H439.674V197.392H445.805V200.788C445.805 206.835 450.722 211.731 456.789 211.731H456.835C461.943 211.709 468.117 211.688 473.163 211.688C475.834 211.688 478.191 211.694 479.903 211.709C480.588 211.715 481.135 211.725 481.59 211.731V217.67ZM420.567 195.406V185.127C420.745 185.289 420.905 185.47 421.102 185.607C422.614 186.675 424.568 187.113 426.649 187.116L434.176 187.116C434.458 189.172 435.811 190.886 437.679 191.648V195.406L420.567 195.406ZM439.631 109.692C456.19 109.239 469.482 95.7598 469.482 79.1623V61.4235C471.212 61.4266 472.914 61.4296 474.476 61.4296C476.513 61.4296 478.314 61.4265 479.626 61.4143C480.284 61.4082 480.819 61.4021 481.206 61.3929C481.363 61.3898 481.477 61.3837 481.587 61.3807V94.906H481.495C465.775 94.906 452.999 107.323 452.44 122.838H439.668V109.891C439.668 109.82 439.64 109.759 439.628 109.692H439.631ZM566.804 31.2611V44.8291H552.328V31.2611H566.804ZM584.696 18.611H640.261V120.705H634.33V35.5604C634.33 32.0903 631.506 29.2752 628.017 29.2752H589.22C588.805 26.9832 586.998 25.1839 584.696 24.7708V18.608V18.611ZM619.507 125.148V133.202H593.129C590.154 133.208 588.061 132.734 586.783 131.592C586.131 131.017 585.627 130.255 585.262 129.154C584.899 128.055 584.696 126.626 584.699 124.805V111.58H594.666C594.684 114.646 594.7 117.213 594.712 118.979C594.724 121.038 596.412 122.691 598.474 122.688H619.495C619.504 124.251 619.51 125.145 619.51 125.145L619.507 125.148ZM588.412 190.855C585.892 191.094 583.86 192.961 583.418 195.406H571.315V175.926H579.859C580.016 176.027 580.191 176.103 580.394 176.103C580.596 176.103 580.772 176.03 580.928 175.926H588.412V190.855ZM588.412 199.956C586.998 199.748 585.861 198.735 585.471 197.392C585.379 197.073 585.314 196.746 585.314 196.397C585.314 196.051 585.379 195.721 585.471 195.403C585.861 194.059 586.995 193.046 588.412 192.838C588.587 192.814 588.759 192.786 588.94 192.783C589.463 192.783 589.958 192.899 590.406 193.098C591.676 193.661 592.564 194.919 592.567 196.394C592.567 197.866 591.676 199.127 590.406 199.69C589.958 199.888 589.463 200.005 588.94 200.005C588.759 200.005 588.587 199.977 588.412 199.95V199.956ZM552.651 195.406V175.926H560.617C560.774 176.027 560.949 176.103 561.152 176.103C561.355 176.103 561.53 176.03 561.686 175.926H569.324V195.406H552.651ZM447.907 195.406V191.483C449.6 190.66 450.814 189.047 451.079 187.113H463.59V195.403H447.907V195.406ZM552.328 56.3317V46.8151H566.804V70.9585H519.65V68.8562C519.65 66.7785 520.492 64.9058 521.86 63.541C523.227 62.1793 525.108 61.3409 527.198 61.3409H547.294C550.073 61.3409 552.325 59.0979 552.325 56.3317H552.328ZM566.804 72.9475V80.5362H519.65V72.9475H566.804ZM584.696 43.3175H632.332V51.6805H616.708V49.0917C616.708 48.5439 616.262 48.0972 615.709 48.0972C615.156 48.0972 614.71 48.5409 614.71 49.0917V56.2582C614.71 56.806 615.156 57.2527 615.709 57.2527C616.262 57.2527 616.708 56.809 616.708 56.2582V53.6695H619.44C619.44 53.7001 619.437 53.7215 619.434 53.7582C619.323 55.9461 619.286 62.978 619.286 71.8887C619.286 88.3851 619.418 111.201 619.477 120.705H598.468C597.49 120.705 596.707 119.934 596.701 118.967C596.688 117.204 596.673 114.64 596.654 111.58H601.778C605.991 111.58 609.421 108.205 609.47 104.01L609.507 100.934C609.507 100.934 609.507 100.931 609.507 100.928C609.507 100.925 609.507 100.925 609.507 100.922V56.7509C610.281 56.8243 611.05 56.9528 611.797 57.1976C612.101 57.2986 612.436 57.2466 612.694 57.0599C612.952 56.8733 613.106 56.5734 613.106 56.2552V49.0886C613.106 48.7704 612.952 48.4705 612.694 48.2839C612.436 48.0972 612.101 48.0452 611.797 48.1462C610.73 48.4981 609.621 48.6725 608.511 48.6725C607.402 48.6725 606.292 48.4981 605.226 48.1462C604.922 48.0452 604.587 48.0972 604.328 48.2839C604.07 48.4705 603.917 48.7704 603.917 49.0886V51.6774H584.693V43.3144L584.696 43.3175ZM583.7 26.6588C584.048 26.6588 584.38 26.7231 584.699 26.8149C585.895 27.1576 586.826 28.0848 587.17 29.2752C587.262 29.5934 587.327 29.9208 587.327 30.2696C587.327 30.6154 587.262 30.9459 587.17 31.2641C586.826 32.4545 585.895 33.3817 584.699 33.7244C584.38 33.8162 584.051 33.8804 583.7 33.8804C583.353 33.8804 583.021 33.8162 582.702 33.7244C581.19 33.2899 580.074 31.919 580.071 30.2696C580.071 28.6234 581.187 27.2494 582.702 26.8149C583.021 26.7231 583.35 26.6588 583.7 26.6588ZM584.696 35.7654C586.998 35.3523 588.805 33.553 589.22 31.2611H628.017C630.402 31.2641 632.329 33.1858 632.335 35.5604V41.3315H584.699V35.7654H584.696ZM611.117 50.3524V54.9975C610.586 54.8843 610.051 54.8108 609.513 54.768C609.181 54.7405 608.849 54.6884 608.517 54.6884C608.185 54.6884 607.853 54.7405 607.519 54.768C606.981 54.8108 606.446 54.8843 605.914 54.9975V50.3524C606.775 50.536 607.641 50.6615 608.514 50.6615C609.387 50.6615 610.257 50.536 611.114 50.3524H611.117ZM596.661 53.6695H603.92V56.2582C603.92 56.5765 604.073 56.8763 604.335 57.063C604.593 57.2497 604.928 57.3017 605.232 57.2007C605.979 56.9559 606.747 56.8274 607.519 56.7539V100.922L607.482 103.985C607.445 107.091 604.903 109.591 601.784 109.591H596.648C596.584 98.8902 596.507 83.1434 596.507 70.9891C596.507 65.9125 596.519 61.4694 596.556 58.2901C596.575 56.7019 596.596 55.429 596.624 54.5599C596.636 54.1713 596.651 53.8745 596.664 53.6664L596.661 53.6695ZM594.663 53.6695C594.663 53.6909 594.663 53.7031 594.66 53.7245C594.549 55.8145 594.512 62.5098 594.512 70.9952C594.512 83.1525 594.592 98.8932 594.654 109.597H584.699V99.4287C587.327 98.9574 589.322 96.6839 589.325 93.9329C589.325 91.182 587.327 88.9054 584.699 88.4372V53.6756H594.663V53.6695ZM587.02 134.111C588.722 134.934 590.763 135.185 593.129 135.188H597.718V139.659C595.576 139.793 593.418 140.35 591.676 141.752C589.657 143.37 588.36 146.063 588.372 149.897V156.874H581.389V147.697C581.389 144.206 578.547 141.375 575.04 141.375H557.734L565.786 131.696C566.856 130.411 567.443 128.792 567.443 127.125V111.58H582.696V124.805C582.696 126.767 582.908 128.401 583.359 129.772C584.023 131.828 585.308 133.294 587.013 134.111H587.02ZM542.899 173.94V152.884H550.527V173.94H542.899ZM533.959 173.94C533.91 173.548 533.643 173.236 533.277 173.123V152.884H540.905V173.94H533.959ZM523.654 173.94V152.884H531.282V173.94H523.654ZM514.029 173.94V152.884H521.657V173.94H514.029ZM504.406 173.94V152.884H512.034V173.94H504.406ZM494.784 173.94V152.884H502.412V173.94H494.784ZM519.65 124.805V82.5191H534.082V103.918C534.082 108.15 537.527 111.577 541.775 111.577H550.331V127.415C550.331 128.003 549.851 128.48 549.261 128.48H519.65V124.802V124.805ZM550.334 82.5222V109.594H541.778C538.631 109.588 536.086 107.054 536.08 103.921V82.5222H550.337H550.334ZM583.7 90.316C584.048 90.316 584.38 90.3803 584.699 90.4721C586.211 90.9066 587.327 92.2805 587.33 93.9268C587.33 95.5731 586.214 96.947 584.699 97.3816C584.38 97.4734 584.051 97.5376 583.7 97.5376C583.353 97.5376 583.021 97.4734 582.702 97.3816C581.506 97.0388 580.575 96.1116 580.231 94.9213C580.139 94.6031 580.074 94.2757 580.074 93.9268C580.074 93.581 580.139 93.2505 580.231 92.9323C580.575 91.742 581.509 90.8148 582.702 90.4721C583.021 90.3803 583.35 90.316 583.7 90.316ZM578.178 94.9213C578.593 97.2133 580.4 99.0125 582.702 99.4256V109.594H567.449V99.6888C567.455 97.0541 569.594 94.9244 572.24 94.9213L578.181 94.9213H578.178ZM565.454 111.58V127.125C565.454 128.333 565.03 129.502 564.259 130.433L555.153 141.378H524.008C521.605 141.375 519.659 139.438 519.653 137.042V130.472H549.264C550.958 130.472 552.328 129.108 552.328 127.422V111.583H565.454V111.58ZM517.655 130.469V137.039C517.655 140.531 520.498 143.361 524.005 143.361H553.496L552.181 144.94C551.111 146.225 550.524 147.844 550.524 149.515V150.901H514.026V131.537C514.026 130.95 514.505 130.472 515.095 130.472H517.652L517.655 130.469ZM569.775 161.256V173.248C569.542 173.404 569.382 173.649 569.345 173.94H562.144V156.195C562.144 153.269 559.766 150.901 556.828 150.901H552.522V149.515C552.522 148.306 552.946 147.137 553.717 146.207L556.084 143.361H575.04C577.443 143.364 579.389 145.301 579.395 147.697V156.874H574.173C571.742 156.874 569.772 158.836 569.772 161.256H569.775ZM552.626 173.94C552.611 173.817 552.58 173.704 552.522 173.6V152.887H556.828C558.662 152.89 560.147 154.368 560.15 156.195V173.94H552.623H552.626ZM571.77 173.94V161.256C571.77 159.934 572.849 158.863 574.176 158.86H579.398V173.94H571.77ZM582.702 88.4311C580.4 88.8442 578.593 90.6434 578.178 92.9354L572.237 92.9354C568.491 92.9354 565.454 95.9587 565.451 99.6919V109.597H552.325V82.5253L582.699 82.5253V88.4341L582.702 88.4311ZM517.655 124.805V128.483H515.098C513.405 128.483 512.034 129.848 512.034 131.534V150.898H484.046C483.877 150.898 483.723 150.95 483.582 151.026L483.582 145.02H493.014C496.689 145.038 499.01 143.719 500.242 142.021C501.478 140.332 501.665 138.453 501.671 137.339C501.671 136.874 501.637 136.54 501.616 136.387V86.7481C503.826 86.3533 505.577 84.6795 506.081 82.5161H517.652V124.802L517.655 124.805ZM500.62 84.8662C499.068 84.8662 497.753 83.8869 497.236 82.5222C497.086 82.1274 496.994 81.7052 496.994 81.2554C496.994 81.0075 497.021 80.7688 497.067 80.5362C497.405 78.8869 498.865 77.6476 500.62 77.6446C502.375 77.6446 503.835 78.8869 504.173 80.5362C504.219 80.7688 504.247 81.0106 504.247 81.2554C504.247 81.7021 504.154 82.1274 504.004 82.5222C503.488 83.8869 502.172 84.8631 500.62 84.8662ZM495.156 82.5222C495.66 84.6825 497.412 86.3564 499.621 86.7542V136.458L499.634 136.611V136.641C499.649 136.73 499.677 136.984 499.677 137.342C499.68 138.226 499.498 139.692 498.635 140.849C497.771 141.993 496.259 143.021 493.014 143.04H483.582V82.5253H495.153L495.156 82.5222ZM445.396 190.093H439.861C439.797 190.093 439.738 190.078 439.674 190.075C438.93 190.035 438.248 189.794 437.679 189.39C436.926 188.854 436.376 188.052 436.176 187.116C436.124 186.865 436.093 186.608 436.093 186.342V185.718C436.093 185.516 436.124 185.323 436.155 185.13C436.318 184.117 436.877 183.242 437.679 182.67C438.248 182.266 438.93 182.021 439.674 181.984C439.738 181.981 439.797 181.966 439.861 181.966H445.396C445.574 181.966 445.743 181.997 445.912 182.018C446.675 182.125 447.363 182.453 447.907 182.942C448.534 183.502 448.964 184.264 449.103 185.13C449.133 185.323 449.164 185.516 449.164 185.718V186.342C449.164 186.608 449.133 186.865 449.081 187.116C448.912 187.906 448.488 188.597 447.907 189.117C447.363 189.607 446.675 189.934 445.912 190.041C445.743 190.066 445.574 190.093 445.396 190.093ZM454.386 185.13V145.023H463.59L463.59 185.13H454.386ZM463.59 143.037H454.386V135.344H458.304C459.662 135.344 460.618 135.628 461.322 136.026C462.37 136.623 462.923 137.52 463.24 138.413C463.553 139.297 463.593 140.148 463.59 140.445V140.537V140.552V140.607V143.04V143.037ZM465.585 143.037V140.604L465.588 140.442C465.582 139.857 465.52 138.181 464.558 136.525C464.076 135.702 463.35 134.888 462.312 134.3C461.273 133.71 459.945 133.355 458.304 133.355H454.386V124.821H481.59V143.034H465.588L465.585 143.037ZM481.59 96.8889V122.835H470.419V99.392C470.419 99.3491 470.4 99.3124 470.394 99.2726C473.787 97.7518 477.537 96.8858 481.498 96.8858H481.59V96.8889ZM468.421 122.835H454.438C454.711 115.797 457.649 109.45 462.327 104.793C464.125 103.003 466.181 101.47 468.421 100.237V122.835ZM452.391 124.821V133.355H439.674V124.821H452.391ZM452.391 135.344V143.037H439.674V135.344H452.391ZM452.391 145.023V185.13H451.1C450.891 183.12 449.656 181.424 447.907 180.577V178.958C447.907 176.066 445.553 173.722 442.649 173.722H439.671V145.023H452.388H452.391ZM442.649 175.708C444.45 175.711 445.909 177.165 445.912 178.958V180.032C445.74 180.017 445.571 179.98 445.396 179.98H439.861C439.797 179.98 439.738 179.995 439.674 179.998V175.708H442.652H442.649ZM465.585 185.13L465.585 145.023H481.587L481.587 185.13H465.585ZM483.585 152.758C483.726 152.832 483.877 152.887 484.049 152.887H492.792V173.943H483.588V152.761L483.585 152.758ZM581.392 173.94V158.86H588.375V160.39C588.375 160.454 588.4 160.512 588.412 160.574V173.94H581.392ZM590.37 156.874V149.897C590.382 146.47 591.442 144.515 592.933 143.294C594.202 142.263 595.908 141.776 597.718 141.644V156.871H590.37V156.874ZM599.712 139.6V135.188H619.434C619.308 135.91 619.059 136.715 618.545 137.422C617.7 138.56 616.234 139.582 613.05 139.6H599.715H599.712ZM621.474 120.705C621.474 120.417 621.471 120.127 621.468 119.814C621.407 109.836 621.284 87.8802 621.284 71.8887C621.284 66.5582 621.296 61.8886 621.333 58.5502C621.351 56.8825 621.373 55.5452 621.401 54.6303C621.413 54.2111 621.428 53.8928 621.441 53.6695H632.335V120.705L621.474 120.705ZM578.178 31.2611C578.593 33.553 580.4 35.3523 582.702 35.7654V80.5332L568.798 80.5332V31.2611L578.178 31.2611ZM550.334 56.3317C550.334 57.9994 548.972 59.3519 547.297 59.3549H527.201C521.93 59.3549 517.658 63.6083 517.658 68.8562V80.5332H506.171C505.854 78.1127 504.01 76.1849 501.619 75.7565V46.8151H550.334V56.3317ZM499.621 46.8181V75.7596C497.23 76.188 495.386 78.1158 495.07 80.5362H483.582V46.8181H499.621ZM437.676 124.821V133.355L420.564 133.355V124.821L437.676 124.821ZM437.676 135.344V143.037L420.616 143.037C420.598 143.037 420.582 143.046 420.564 143.046V135.344L437.676 135.344ZM420.619 145.023L437.679 145.023V173.722L420.567 173.722V145.014C420.585 145.014 420.601 145.023 420.619 145.023ZM437.676 175.708V180.412C435.752 181.198 434.378 182.991 434.154 185.13L426.649 185.13C424.848 185.13 423.29 184.729 422.26 183.989C421.237 183.239 420.638 182.238 420.619 180.574V179.123C420.619 179.032 420.589 178.946 420.567 178.86V175.705L437.679 175.705L437.676 175.708ZM439.671 192.061C439.735 192.061 439.794 192.079 439.858 192.079H445.393C445.571 192.079 445.737 192.043 445.909 192.027V195.406H439.668V192.061H439.671ZM456.829 209.748H456.786C454.299 209.748 452.059 208.747 450.43 207.125C448.801 205.501 447.799 203.27 447.796 200.791V198.108C447.861 197.976 447.907 197.832 447.907 197.673V197.392H481.587V209.745C479.937 209.714 476.854 209.702 473.16 209.702C468.108 209.702 461.93 209.723 456.829 209.745V209.748ZM465.585 195.406V187.116H481.587V195.406H465.585ZM484.587 185.311C484.43 185.207 484.249 185.13 484.046 185.13H483.582V175.926H493.25C493.407 176.027 493.582 176.103 493.785 176.103C493.988 176.103 494.163 176.03 494.32 175.926H502.876C503.033 176.027 503.208 176.103 503.411 176.103C503.614 176.103 503.789 176.03 503.945 175.926H512.501C512.658 176.027 512.833 176.103 513.036 176.103C513.239 176.103 513.414 176.03 513.571 175.926H522.127C522.284 176.027 522.459 176.103 522.662 176.103C522.865 176.103 523.04 176.03 523.197 175.926H531.753C531.829 175.975 531.906 176.014 531.995 176.045V185.311H484.593H484.587ZM533.984 175.926H541.369C541.526 176.027 541.701 176.103 541.904 176.103C542.107 176.103 542.282 176.03 542.438 175.926H550.656V195.406H533.984V175.926ZM588.332 226.979V238.117H574.391C572.529 238.114 571.02 236.612 571.017 234.757V226.979H588.332ZM641.205 133.392C640.378 133.226 639.637 133.174 639.124 133.171C638.731 133.171 638.5 133.193 638.399 133.202L621.514 133.202C621.511 133.168 621.508 133.128 621.505 133.104V125.133C621.505 125.133 621.499 124.242 621.49 122.688L632.338 122.688V123.269C632.338 123.817 632.784 124.264 633.337 124.264C633.89 124.264 634.336 123.82 634.336 123.269V122.688H640.268V123.269C640.268 123.817 640.713 124.264 641.266 124.264C641.82 124.264 642.265 123.82 642.265 123.269V122.688H648.064V123.269C648.064 123.817 648.51 124.264 649.063 124.264C649.616 124.264 650.062 123.82 650.062 123.269V122.688H663.222V123.006C663.222 123.554 663.668 124.001 664.221 124.001C664.774 124.001 665.22 123.557 665.22 123.006V122.688H677.928V133.389H641.202L641.205 133.392ZM668.142 99.6337C671.732 99.6337 676.655 99.7072 677.928 99.7255V113.701C676.609 113.679 671.729 113.609 668.142 113.609C667.097 113.609 666.163 113.615 665.453 113.63C665.352 113.63 665.293 113.636 665.201 113.639V99.6643C665.896 99.6429 666.934 99.6337 668.139 99.6337H668.142ZM665.204 120.705V115.628C665.899 115.607 666.938 115.598 668.142 115.598C671.732 115.598 676.655 115.671 677.928 115.69V120.705H665.204ZM663.21 120.705H650.05V79.8355H659.331C661.47 79.8386 663.203 81.5644 663.207 83.6942V120.705H663.21ZM679.922 120.705V65.2607H685.018C687.406 65.2638 689.339 67.1885 689.342 69.5661V120.705H679.922ZM640.261 4.72172V16.6251H584.696V10.8998C584.702 7.48795 587.474 4.72783 590.901 4.72172H640.261ZM568.896 18.611L582.702 18.611V24.7739C580.4 25.187 578.593 26.9863 578.178 29.2782L568.798 29.2782V18.5927C568.832 18.5957 568.863 18.611 568.896 18.611ZM550.334 44.8322H534.101V11.0069H536.802C539.752 11.0069 542.153 8.79456 542.497 5.94875H550.334V44.8322ZM536.802 0.890585C538.649 0.893637 540.177 2.21555 540.499 3.96282C540.539 4.18314 540.57 4.40958 540.57 4.64214V5.26638C540.57 5.49894 540.542 5.72539 540.499 5.94571C540.173 7.68992 538.646 9.01488 536.802 9.01795H531.267C529.42 9.01488 527.893 7.69297 527.57 5.94571C527.53 5.72539 527.499 5.49894 527.499 5.26638V4.64214C527.499 4.40958 527.527 4.18314 527.57 3.96282C527.896 2.21862 529.423 0.893637 531.267 0.890585H536.802ZM437.71 109.735C437.701 109.787 437.679 109.836 437.679 109.891V122.838L420.567 122.838V109.738L437.71 109.738V109.735ZM418.572 124.821V133.355H398.197C398.197 133.355 398.193 133.355 398.19 133.355V124.818H418.569L418.572 124.821ZM418.572 175.708V195.406H405.658C405.317 192.56 402.914 190.347 399.964 190.347H398.193V175.705H418.572V175.708ZM439.671 224.993V219.659H481.587V224.993H439.671ZM483.585 211.416C483.659 211.327 483.723 211.226 483.763 211.11C483.874 210.779 483.788 210.446 483.585 210.192V197.795H488.846V224.996H483.585V211.419V211.416ZM490.841 224.993V197.792H498.893V224.993H490.841ZM524.395 236.976C527.57 236.186 529.933 233.35 529.933 229.944V222.025C529.933 218.3 527.109 215.265 523.482 214.84V203.037C523.489 199.919 526.021 197.398 529.153 197.392H532.447C532.604 197.496 532.785 197.572 532.988 197.572C533.191 197.572 533.372 197.496 533.529 197.392H551.111C551.268 197.496 551.449 197.572 551.652 197.572C551.855 197.572 552.036 197.496 552.193 197.392H569.775C569.932 197.496 570.113 197.572 570.316 197.572C570.519 197.572 570.7 197.496 570.857 197.392H583.418C583.86 199.836 585.892 201.706 588.412 201.942V211.875H540.001C537.337 211.875 535.179 214.023 535.179 216.676V249.197C533.025 246.752 529.063 242.257 524.392 236.973L524.395 236.976ZM537.177 250.85V216.679C537.177 215.124 538.443 213.867 540.004 213.864H588.415V224.993H560.214C554.759 224.993 550.337 229.396 550.337 234.828V250.871L537.18 250.85H537.177ZM552.328 234.828C552.328 232.658 553.21 230.703 554.636 229.277C556.065 227.854 558.029 226.979 560.211 226.979H569.019V234.757C569.019 237.71 571.423 240.103 574.388 240.103H588.329V250.929L552.325 250.871V234.825L552.328 234.828ZM614.716 249.635V254.28C613.856 254.096 612.989 253.971 612.116 253.971C611.243 253.971 610.374 254.096 609.516 254.28V249.635C610.377 249.818 611.243 249.944 612.116 249.944C612.989 249.944 613.859 249.818 614.716 249.635ZM634.794 250.963V226.979H651.7V234.757C651.7 237.71 654.103 240.103 657.069 240.103H677.928V250.963H634.794ZM657.069 238.117C655.207 238.114 653.698 236.612 653.695 234.757V226.979H677.928V238.117H657.069ZM645.898 174.833V194.056H634.972C632.013 194.05 629.622 191.666 629.615 188.723V174.833H645.898ZM615.595 172.847H607.992V158.86L645.901 158.86V172.847L615.598 172.847H615.595ZM645.898 156.874L608.019 156.874C608.093 154.891 608.628 153.022 609.777 151.663C611.019 150.206 612.958 149.197 616.17 149.184L645.898 149.184V156.874ZM647.892 147.198V142.621C647.911 139.147 646.758 136.813 645.219 135.378H677.928V142.44C677.921 145.069 675.789 147.192 673.149 147.198H647.892ZM679.922 133.392V122.691H689.342V133.392H679.922ZM677.928 63.2748L650.05 63.2748V49.5905L677.928 49.5905V63.2748ZM650.05 16.264V4.72172L677.928 4.72172V16.264L650.05 16.264ZM679.922 2.73575V-17.8489H690.491C693.494 -17.8427 695.922 -15.4253 695.928 -12.4357V2.73575H679.922ZM677.928 2.73575L590.901 2.73575C586.374 2.73575 582.702 6.38941 582.702 10.8998V16.6251L568.896 16.6251C568.863 16.6251 568.832 16.6404 568.798 16.6435V-6.0189C583.857 -6.00054 606.145 -5.97912 625.168 -5.97912C637.732 -5.97912 648.87 -5.98831 655.557 -6.01583C659.728 -6.0342 663.081 -9.40325 663.081 -13.5526V-17.8489L677.928 -17.8489V2.73575ZM634.794 -19.8348V-43.8191L651.7 -43.8191V-36.0406C651.7 -33.0877 654.103 -30.6947 657.069 -30.6947H677.928V-19.8348L634.794 -19.8348ZM615.595 -48.4244C615.942 -48.4244 616.274 -48.3601 616.594 -48.2683C617.789 -47.9256 618.721 -46.9984 619.065 -45.8081C619.157 -45.4898 619.222 -45.1624 619.222 -44.8136C619.222 -44.4678 619.157 -44.1373 619.065 -43.8191C618.739 -42.6991 617.897 -41.8117 616.803 -41.4231C616.425 -41.2885 616.022 -41.2028 615.595 -41.1997C615.325 -41.1997 615.06 -41.2364 614.808 -41.2915C613.511 -41.5792 612.491 -42.5583 612.125 -43.8191C612.033 -44.1373 611.969 -44.4647 611.969 -44.8136C611.969 -45.1593 612.033 -45.4898 612.125 -45.8081C612.47 -46.9984 613.401 -47.9256 614.596 -48.2683C614.916 -48.3601 615.245 -48.4244 615.595 -48.4244ZM616.803 -39.3515C619.006 -39.8319 620.715 -41.5975 621.118 -43.8191H632.802V-32.6807H620.177C618.315 -32.6837 616.806 -34.1862 616.803 -36.0406V-39.3515ZM657.069 -32.6807C655.207 -32.6837 653.698 -34.1862 653.695 -36.0406V-43.8191H677.928V-32.6807H657.069ZM598.717 -43.8191L610.075 -43.8191C610.503 -41.4598 612.408 -39.633 614.808 -39.2933V-36.0375C614.808 -33.0846 617.212 -30.6917 620.177 -30.6917H632.802V-19.8317H620.313V-22.4205C620.313 -22.9682 619.867 -23.415 619.314 -23.415C618.761 -23.415 618.315 -22.9713 618.315 -22.4205V-15.254C618.315 -14.7062 618.761 -14.2595 619.314 -14.2595C619.867 -14.2595 620.313 -14.7032 620.313 -15.254V-17.8427H661.086V-13.5465C661.086 -10.4865 658.618 -8.0079 655.548 -7.99566C648.867 -7.96812 637.732 -7.95893 625.168 -7.95893C609.071 -7.95893 590.628 -7.97424 576.211 -7.98954C569.004 -7.99873 562.799 -8.00483 558.401 -8.01095C555.525 -8.01402 553.441 -8.01707 552.328 -8.02014V-17.9315L607.519 -17.8427V-15.2509C607.519 -14.9327 607.672 -14.6328 607.93 -14.4461C608.188 -14.2595 608.523 -14.2075 608.828 -14.3084C609.894 -14.6603 611.004 -14.8348 612.113 -14.8348C613.223 -14.8348 614.332 -14.6603 615.398 -14.3084C615.703 -14.2075 616.038 -14.2595 616.296 -14.4461C616.554 -14.6328 616.708 -14.9327 616.708 -15.2509V-22.4174C616.708 -22.7357 616.554 -23.0355 616.293 -23.2222C616.035 -23.4089 615.7 -23.4609 615.395 -23.3599C614.329 -23.008 613.219 -22.8336 612.11 -22.8336C611.001 -22.8336 609.891 -23.008 608.825 -23.3599C608.52 -23.4609 608.185 -23.4089 607.927 -23.2222C607.669 -23.0355 607.515 -22.7357 607.515 -22.4174V-19.8287L590.323 -19.8562V-43.8129H598.714L598.717 -43.8191ZM588.332 -43.8191V-32.6807H574.391C572.529 -32.6837 571.02 -34.1862 571.017 -36.0406V-43.8191H588.332ZM569.019 -43.8191V-36.0406C569.019 -33.0877 571.423 -30.6947 574.388 -30.6947H588.329V-19.8684L552.325 -19.9266V-35.9732C552.325 -38.1428 553.207 -40.0981 554.633 -41.5241C556.062 -42.947 558.026 -43.8221 560.208 -43.8221H569.016L569.019 -43.8191ZM614.716 -21.1628V-16.5178C613.856 -16.7014 612.989 -16.8268 612.116 -16.8268C611.243 -16.8268 610.374 -16.7014 609.516 -16.5178V-21.1628C610.377 -20.9792 611.243 -20.8538 612.116 -20.8538C612.989 -20.8538 613.859 -20.9792 614.716 -21.1628ZM534.854 -18.9535L523.479 -5.93627V-31.8484C525.459 -29.6084 527.309 -27.5154 528.922 -25.6855C530.883 -23.4609 532.509 -21.6157 533.646 -20.3274C534.159 -19.7461 534.555 -19.2932 534.854 -18.9566V-18.9535ZM523.482 -2.90994L536.633 -17.9621L550.334 -17.9407V3.96282H542.497C542.156 1.11701 539.752 -1.09535 536.802 -1.09535H531.267C528.317 -1.09535 525.916 1.11701 525.572 3.96282H523.482V-2.90994ZM521.488 25.5389C521.485 27.6044 519.807 29.2721 517.732 29.2782H501.272V10.5082C501.278 7.99283 503.322 5.95487 505.848 5.95182H521.488V25.5419V25.5389ZM481.59 6.01609L439.953 6.01609C439.495 2.31348 436.579 -0.590463 432.86 -1.0464V-4.9479L481.59 -4.9479V6.01609ZM387.403 -6.93383V-13.3354C387.409 -15.9027 389.493 -17.9774 392.071 -17.9835H407.595C407.776 -17.7999 408.025 -17.6836 408.305 -17.6836C408.584 -17.6836 408.833 -17.7999 409.014 -17.9835H426.48C426.661 -17.7999 426.91 -17.6836 427.19 -17.6836C427.47 -17.6836 427.719 -17.7999 427.9 -17.9835H445.365C445.547 -17.7999 445.796 -17.6836 446.075 -17.6836C446.355 -17.6836 446.604 -17.7999 446.785 -17.9835H464.251C464.432 -17.7999 464.681 -17.6836 464.961 -17.6836C465.24 -17.6836 465.489 -17.7999 465.671 -17.9835H476.919C479.497 -17.9774 481.581 -15.9027 481.587 -13.3354V-6.93383L387.4 -6.93383H387.403ZM428.186 -19.9694V-31.0222H445.077V-19.9694H428.186ZM426.191 -31.0222V-19.9694H409.3V-31.0222L426.191 -31.0222ZM447.074 -19.9694V-31.0222L463.965 -31.0222V-19.9694H447.074ZM423.769 8.00202C424.227 11.7046 427.147 14.6116 430.866 15.0645C430.866 15.2481 430.866 15.4225 430.866 15.6306C430.866 18.2408 432.989 20.3583 435.611 20.3583H478.496C475.757 21.4813 473.609 23.6998 472.552 26.463H387.403V8.00202H423.769ZM472.002 28.452C471.9 29.0456 471.817 29.6485 471.817 30.2696C471.817 30.7531 471.897 31.2152 471.962 31.6803H446.911C443.807 31.6895 441.696 32.1148 440.248 33.348C439.535 33.9631 439.062 34.7678 438.795 35.6522C438.524 36.5426 438.432 37.5188 438.432 38.6051V43.0788H387.403V28.4459H472.005L472.002 28.452ZM387.403 45.0678H438.432L438.432 59.7007H387.403L387.403 45.0678ZM438.432 61.6867V66.3532C438.432 69.4254 437.184 72.1978 435.162 74.2112C433.14 76.2247 430.355 77.4671 427.27 77.4671H387.403V61.6867H438.432ZM418.572 94.7163V107.749H387.403V94.7163H418.572ZM418.572 109.735V122.835H387.446C387.446 122.835 387.418 122.844 387.403 122.844V109.735H418.572ZM387.446 124.821H396.199V145.91H387.403V124.814C387.403 124.814 387.431 124.824 387.446 124.824V124.821ZM396.196 147.896V173.722H387.4V147.896H396.196ZM396.196 175.708V190.35H394.426C391.475 190.35 389.075 192.563 388.731 195.409H387.4V175.711H396.196V175.708ZM422.937 212.113H422.976C425.463 212.113 427.703 213.114 429.332 214.736C430.961 216.36 431.966 218.591 431.966 221.07V224.993H398.19V212.116C399.838 212.147 402.893 212.159 406.562 212.159C411.624 212.159 417.816 212.138 422.937 212.113ZM500.888 224.993V197.792H507.412C510.876 197.799 513.676 200.589 513.682 204.035V214.855C510.126 215.345 507.378 218.349 507.378 222.025V224.99H500.888V224.993ZM528.922 245.112C530.883 247.337 532.509 249.182 533.646 250.47C534.159 251.052 534.555 251.505 534.854 251.841L523.479 264.858V238.946C525.459 241.186 527.309 243.279 528.922 245.109V245.112ZM523.482 267.885L536.633 252.833L550.334 252.854V274.758H542.497C542.156 271.912 539.752 269.699 536.802 269.699H531.267C528.317 269.699 525.916 271.912 525.572 274.758H523.482V267.885ZM521.488 296.334C521.485 298.399 519.807 300.067 517.732 300.073H501.272V281.303C501.278 278.788 503.322 276.75 505.848 276.747H521.488V296.337V296.334ZM481.59 276.811H439.953C439.495 273.108 436.579 270.204 432.86 269.748V265.847L481.59 265.847V276.811ZM387.403 263.861V257.459C387.409 254.892 389.493 252.817 392.071 252.811H407.595C407.776 252.995 408.025 253.111 408.305 253.111C408.584 253.111 408.833 252.995 409.014 252.811H426.48C426.661 252.995 426.91 253.111 427.19 253.111C427.47 253.111 427.719 252.995 427.9 252.811L445.365 252.811C445.547 252.995 445.796 253.111 446.075 253.111C446.355 253.111 446.604 252.995 446.785 252.811H464.251C464.432 252.995 464.681 253.111 464.961 253.111C465.24 253.111 465.489 252.995 465.671 252.811H476.919C479.497 252.817 481.581 254.892 481.587 257.459V263.861L387.4 263.861H387.403ZM428.186 250.825V239.773L445.077 239.773V250.825L428.186 250.825ZM426.191 239.773V250.825H409.3V239.773H426.191ZM447.074 250.825V239.773H463.965V250.825H447.074ZM423.769 278.797C424.227 282.499 427.147 285.406 430.866 285.859C430.866 286.043 430.866 286.217 430.866 286.425C430.866 289.035 432.989 291.153 435.611 291.153H478.496C475.757 292.276 473.609 294.494 472.552 297.258L387.403 297.258V278.794H423.769V278.797ZM472.002 299.247C471.9 299.84 471.817 300.443 471.817 301.067C471.817 301.551 471.897 302.013 471.962 302.478H446.911C443.807 302.487 441.696 302.913 440.248 304.146C439.535 304.761 439.062 305.566 438.795 306.45C438.524 307.34 438.432 308.317 438.432 309.403V313.877L387.403 313.877V299.244L472.005 299.244L472.002 299.247ZM387.403 315.866L438.432 315.866V330.498L387.403 330.498V315.866ZM481.59 330.186C481.486 330.192 481.268 330.202 480.939 330.208C479.734 330.232 477.343 330.241 474.479 330.241C470.407 330.241 465.369 330.223 461.35 330.205C458.931 330.192 456.899 330.183 455.652 330.174V318.203C455.652 317.717 456.048 317.325 456.534 317.325H481.59V330.186ZM519.65 343.742H566.804V351.331H519.65V343.742ZM582.702 323.473V351.331H568.798V302.059H578.178C578.593 304.351 580.4 306.15 582.702 306.563V323.473ZM628.017 302.059C630.402 302.062 632.329 303.984 632.335 306.358V312.129L584.699 312.129V306.563C587.001 306.15 588.808 304.351 589.223 302.059L628.02 302.059H628.017ZM582.702 295.569C580.4 295.982 578.593 297.781 578.178 300.073H568.798V264.779C583.866 264.797 606.169 264.819 625.199 264.819C637.75 264.819 648.876 264.809 655.557 264.782C659.728 264.764 663.081 261.394 663.081 257.245V252.949H677.928V273.534L590.901 273.534C586.374 273.534 582.702 277.187 582.702 281.698V287.429C582.167 287.447 581.737 287.879 581.737 288.414C581.737 288.95 582.167 289.384 582.702 289.4V295.569ZM679.922 273.534V252.949H690.491C693.494 252.955 695.922 255.372 695.928 258.362L695.928 273.534H679.922ZM640.261 287.423L584.696 287.423V281.698C584.702 278.286 587.474 275.526 590.901 275.519L640.261 275.519V287.423ZM677.928 275.519L677.928 287.062H650.05V275.519H677.928ZM713.221 289.048V303.274H684.99C684.544 300.804 682.476 298.922 679.922 298.714V289.045H713.221V289.048ZM679.47 307.879C678.917 307.879 678.398 307.744 677.931 307.524C676.701 306.946 675.847 305.712 675.844 304.268C675.844 302.824 676.701 301.591 677.931 301.012C678.401 300.792 678.917 300.657 679.47 300.657C679.627 300.657 679.775 300.685 679.925 300.703C681.373 300.887 682.544 301.909 682.94 303.274C683.032 303.592 683.097 303.919 683.097 304.268C683.097 304.614 683.032 304.944 682.94 305.263C682.544 306.627 681.373 307.649 679.925 307.833C679.775 307.851 679.627 307.879 679.47 307.879ZM677.928 298.91C675.577 299.58 673.846 301.71 673.846 304.268C673.846 306.823 675.577 308.956 677.928 309.626V318.402H665.644V289.048H677.928V298.91ZM663.649 289.048V302.732H650.05V289.048H663.649ZM663.649 304.718V318.402H650.05V304.718H663.649ZM665.456 384.428C665.355 384.428 665.296 384.434 665.204 384.437V370.462C665.899 370.441 666.938 370.431 668.142 370.431C671.732 370.431 676.655 370.505 677.928 370.523V384.498C676.609 384.477 671.729 384.406 668.142 384.406C667.097 384.406 666.163 384.413 665.453 384.428H665.456ZM677.928 368.537C676.609 368.516 671.729 368.446 668.142 368.446C667.097 368.446 666.163 368.452 665.453 368.467C665.352 368.467 665.293 368.473 665.201 368.476V354.492C665.201 351.264 662.573 348.647 659.331 348.647H650.05V336.062H677.928V368.54V368.537ZM677.928 334.073H650.05V320.388H677.928V334.073ZM713.249 352.472H702.536V329.865C702.536 323.534 697.382 318.402 691.023 318.402H679.922V309.819C682.476 309.611 684.544 307.729 684.99 305.26H713.249V352.472ZM679.922 287.062L679.922 275.519H713.221V287.062H679.922ZM691.318 234.757C691.318 237.71 693.721 240.103 696.687 240.103H713.218V273.53H697.922V258.359C697.922 254.271 694.594 250.96 690.491 250.96H679.922V226.976H691.318V234.754V234.757ZM634.232 224.993C634.099 224.928 633.955 224.883 633.795 224.883C633.635 224.883 633.494 224.928 633.359 224.993L621.112 224.993C620.697 222.701 618.89 220.901 616.588 220.488V174.833L627.618 174.833V188.723C627.618 192.765 630.909 196.042 634.969 196.042H645.895V224.99H634.228L634.232 224.993ZM647.892 158.86H669.433C671.099 158.86 672.445 160.203 672.448 161.862V164.714H665.303C662.177 164.714 659.645 167.235 659.645 170.347V199.194C656.928 199.194 654.481 199.203 652.527 199.212C650.935 199.221 649.638 199.231 648.716 199.243C648.387 199.246 648.123 199.252 647.889 199.258V158.86H647.892ZM685.251 166.7V199.212C681.662 199.206 678.004 199.2 674.446 199.197V166.7H685.251ZM672.451 199.194C669.903 199.194 667.417 199.191 665.069 199.191C663.889 199.191 662.749 199.191 661.645 199.191V170.347C661.648 168.334 663.286 166.703 665.309 166.7H672.454V199.194H672.451ZM710.855 184.194V199.28C708.319 199.27 704.536 199.261 700.049 199.249V184.194H710.855ZM698.055 166.7V182.517C697.883 182.694 697.775 182.933 697.775 183.199C697.775 183.465 697.883 183.704 698.055 183.882V199.243C694.702 199.234 691.035 199.224 687.249 199.218V166.7H698.055ZM689.342 140.102C689.342 142.611 688.979 145.108 688.269 147.517L686.407 153.82C685.642 156.409 685.251 159.096 685.251 161.795V164.717H674.446V161.865C674.446 159.108 672.202 156.877 669.436 156.877H647.895V149.187H673.152C676.892 149.187 679.922 146.17 679.925 142.443V135.381H689.345V140.105L689.342 140.102ZM713.249 127.281C713.243 130.656 710.501 133.386 707.112 133.392H691.336V122.691H696.039C699.628 122.691 702.536 119.796 702.536 116.222V83.6636H713.249V127.284V127.281ZM713.249 81.6746H702.536V59.0673C702.536 52.7362 697.382 47.6045 691.023 47.6045H679.922V39.0212C682.476 38.8132 684.544 36.9313 684.99 34.4618H713.249V81.6715V81.6746ZM679.922 16.264V4.72172H713.221V16.264H679.922ZM691.318 -36.0406C691.318 -33.0877 693.721 -30.6947 696.687 -30.6947H713.218V2.73575H697.922V-12.4357C697.922 -16.5239 694.594 -19.8348 690.491 -19.8348H679.922V-43.8191H691.318V-36.0406ZM645.898 -45.805H634.232C634.099 -45.8693 633.955 -45.9152 633.795 -45.9152C633.635 -45.9152 633.494 -45.8693 633.359 -45.805H621.112C620.697 -48.097 618.89 -49.8962 616.588 -50.3093V-95.8666C616.809 -95.8666 617.018 -95.8666 617.245 -95.8666C620.429 -95.8666 624.041 -95.8727 627.618 -95.885V-82.0752C627.618 -78.0329 630.909 -74.7557 634.969 -74.7557H645.895V-45.8081L645.898 -45.805ZM645.898 -76.7416H634.972C632.013 -76.7477 629.622 -79.1315 629.615 -82.0752V-95.8911C637.01 -95.9156 643.836 -95.9492 645.898 -95.9615V-76.7416ZM607.992 -95.9125C609.276 -95.885 611.64 -95.8727 614.599 -95.8697V-50.3093C612.297 -49.8962 610.49 -48.097 610.075 -45.805H607.992V-95.9125ZM535.182 -54.119V-21.5974C533.028 -24.0423 529.067 -28.5374 524.395 -33.8221C527.57 -34.6115 529.933 -37.4482 529.933 -40.8539V-48.7732C529.933 -52.4972 527.109 -55.5328 523.482 -55.9581V-67.7605C523.489 -70.8787 526.021 -73.4001 529.153 -73.4062H532.447C532.604 -73.3022 532.785 -73.2257 532.988 -73.2257C533.191 -73.2257 533.372 -73.3022 533.529 -73.4062H551.111C551.268 -73.3022 551.449 -73.2257 551.652 -73.2257C551.855 -73.2257 552.036 -73.3022 552.193 -73.4062H569.775C569.932 -73.3022 570.113 -73.2257 570.316 -73.2257C570.519 -73.2257 570.7 -73.3022 570.857 -73.4062H583.418C583.86 -70.9613 585.892 -69.0916 588.412 -68.856V-58.9232L540.001 -58.9232C537.337 -58.9232 535.179 -56.7751 535.179 -54.1221L535.182 -54.119ZM533.984 -94.869H541.369C541.526 -94.7681 541.701 -94.6916 541.904 -94.6916C542.107 -94.6916 542.282 -94.765 542.438 -94.869H550.656V-75.3891H533.984V-94.869ZM560.614 -94.869C560.771 -94.7681 560.946 -94.6916 561.149 -94.6916C561.351 -94.6916 561.527 -94.765 561.683 -94.869L569.321 -94.869V-75.3891H552.648V-94.869H560.614ZM588.94 -78.0085C589.463 -78.0085 589.958 -77.8922 590.406 -77.6933C591.676 -77.1302 592.564 -75.8726 592.567 -74.3977C592.567 -72.9258 591.676 -71.6651 590.406 -71.102C589.958 -70.9031 589.463 -70.7868 588.94 -70.7868C588.759 -70.7868 588.587 -70.8144 588.412 -70.8419C586.998 -71.05 585.861 -72.0629 585.471 -73.4062C585.379 -73.7244 585.314 -74.0519 585.314 -74.4007C585.314 -74.7465 585.379 -75.077 585.471 -75.3952C585.861 -76.7385 586.995 -77.7514 588.412 -77.9595C588.587 -77.984 588.759 -78.0115 588.94 -78.0146V-78.0085ZM588.412 -79.9424C585.892 -79.7037 583.86 -77.8371 583.418 -75.3922H571.315V-94.8721H579.859C580.016 -94.7711 580.191 -94.6946 580.394 -94.6946C580.596 -94.6946 580.772 -94.7681 580.928 -94.8721L588.412 -94.8721V-79.9424ZM493.25 -94.869C493.407 -94.7681 493.582 -94.6916 493.785 -94.6916C493.988 -94.6916 494.163 -94.765 494.32 -94.869H502.876C503.033 -94.7681 503.208 -94.6916 503.411 -94.6916C503.614 -94.6916 503.789 -94.765 503.945 -94.869H512.501C512.658 -94.7681 512.833 -94.6916 513.036 -94.6916C513.239 -94.6916 513.414 -94.765 513.571 -94.869H522.127C522.284 -94.7681 522.459 -94.6916 522.662 -94.6916C522.865 -94.6916 523.04 -94.765 523.197 -94.869H531.753C531.829 -94.8201 531.906 -94.7803 531.995 -94.7497V-85.484L483.591 -85.484V-94.869L493.26 -94.869H493.25ZM483.585 -83.5011L531.989 -83.5011V-75.3922H529.15C524.918 -75.3922 521.485 -71.9772 521.485 -67.7605V-56.0438H515.673V-66.763C515.673 -71.3101 511.973 -74.9913 507.409 -74.9913L483.582 -74.9913V-83.5011H483.585ZM463.59 -75.3891L447.907 -75.3891V-79.312C449.6 -80.1352 450.814 -81.7478 451.079 -83.6817L463.59 -83.6817V-75.3922V-75.3891ZM442.649 -95.0894C444.45 -95.0863 445.909 -93.6328 445.912 -91.8397V-90.7656C445.74 -90.7809 445.571 -90.8176 445.396 -90.8176H439.861C439.797 -90.8176 439.738 -90.8023 439.674 -90.7993V-95.0894H442.652H442.649ZM437.676 -95.0894V-90.3862C435.752 -89.5997 434.378 -87.8066 434.154 -85.6676H426.649C423.321 -85.6737 420.625 -88.3574 420.619 -91.6713C420.619 -91.7631 420.589 -91.8488 420.567 -91.9345V-95.0894H437.679H437.676ZM418.572 -95.0894V-75.3922L405.658 -75.3922C405.317 -78.238 402.914 -80.4473 399.964 -80.4503H398.193V-95.0924L418.572 -95.0924V-95.0894ZM345.33 -122.902L396.196 -122.902V-97.0753H376.511V-102.265C376.511 -107.996 371.846 -112.642 366.09 -112.642H345.327V-122.902H345.33ZM345.33 -110.656H366.093C368.422 -110.656 370.525 -109.719 372.052 -108.198C373.579 -106.678 374.52 -104.585 374.52 -102.265V-97.0753H345.33V-110.656ZM345.33 -95.0894H374.981C375.138 -94.9884 375.313 -94.9119 375.516 -94.9119C375.718 -94.9119 375.894 -94.9853 376.05 -95.0894H396.196V-80.4473H394.426C391.478 -80.4473 389.075 -78.2349 388.731 -75.3891H376.511V-80.8359C376.511 -86.5673 371.846 -91.2123 366.09 -91.2123L345.327 -91.2123V-95.0863L345.33 -95.0894ZM345.33 -89.2295L366.093 -89.2295C368.422 -89.2295 370.525 -88.2931 372.052 -86.7723C373.579 -85.2515 374.52 -83.1584 374.52 -80.8389V-75.3922L345.33 -75.3922V-89.2295ZM405.655 -73.4031L418.351 -73.4031V-60.6491C414.377 -60.6338 410.182 -60.6215 406.562 -60.6215C403.901 -60.6215 401.553 -60.6277 399.85 -60.6429C399.177 -60.6491 398.642 -60.6552 398.19 -60.6644V-68.3419H399.961C402.911 -68.3419 405.311 -70.5543 405.655 -73.4001V-73.4031ZM398.19 -58.6815C399.838 -58.6509 402.893 -58.6387 406.562 -58.6387C411.624 -58.6387 417.816 -58.6601 422.937 -58.6846H422.976C425.463 -58.6846 427.703 -57.6839 429.332 -56.0621C430.961 -54.4373 431.966 -52.2065 431.966 -49.7279V-45.805L398.19 -45.805V-58.6815ZM501.161 -43.8191L507.375 -43.8191V-40.8539C507.375 -36.8392 510.645 -33.5834 514.677 -33.5834H521.485V3.96282H506.598C503.595 3.9567 501.164 1.53625 501.158 -1.45338V-43.8191H501.161ZM499.166 -6.93383H483.585V-13.3354C483.585 -16.9982 480.601 -19.9694 476.922 -19.9694H465.96V-31.0222H499.166V-6.93383ZM364.91 -31.0222V2.90101C364.255 2.81533 363.607 2.68987 362.977 2.48179C362.672 2.3808 362.337 2.43284 362.079 2.6195C361.821 2.80616 361.667 3.10601 361.667 3.42426V6.01302H346.212V-31.0252L364.913 -31.0252L364.91 -31.0222ZM353.33 8.00202H361.664V10.5908C361.664 10.909 361.818 11.2089 362.076 11.3956C362.334 11.5822 362.669 11.6342 362.974 11.5333C364.04 11.1814 365.149 11.0069 366.259 11.0069C367.368 11.0069 368.478 11.1814 369.544 11.5333C369.848 11.6342 370.183 11.5822 370.442 11.3956C370.7 11.2089 370.853 10.909 370.853 10.5908V8.00202H372.458V10.5908C372.458 11.1385 372.903 11.5853 373.457 11.5853C374.01 11.5853 374.455 11.1416 374.455 10.5908V8.00202H385.409V43.7336H374.455V41.1449C374.455 40.5971 374.01 40.1504 373.457 40.1504C372.903 40.1504 372.458 40.5941 372.458 41.1449V43.7336H370.853V41.1449C370.853 40.8266 370.7 40.5268 370.442 40.3401C370.183 40.1534 369.848 40.1014 369.544 40.2024C368.478 40.5543 367.368 40.7287 366.259 40.7287C365.149 40.7287 364.04 40.5543 362.974 40.2024C362.669 40.1014 362.334 40.1534 362.076 40.3401C361.818 40.5268 361.664 40.8266 361.664 41.1449V43.7336H346.209V8.00202H353.33ZM363.659 47.0476V42.4025C364.519 42.5861 365.386 42.7116 366.259 42.7116C367.132 42.7116 368.001 42.5861 368.859 42.4025V47.0476C367.998 46.864 367.132 46.7386 366.259 46.7386C365.386 46.7386 364.516 46.864 363.659 47.0476ZM353.33 45.7196H361.664V48.3084C361.664 48.6266 361.818 48.9265 362.076 49.1131C362.334 49.2998 362.669 49.3518 362.974 49.2508C364.04 48.8989 365.149 48.7245 366.259 48.7245C367.368 48.7245 368.478 48.8989 369.544 49.2508C369.848 49.3518 370.183 49.2998 370.442 49.1131C370.7 48.9265 370.857 48.6266 370.857 48.3084V45.7196H372.461V48.3084C372.461 48.8561 372.906 49.3028 373.46 49.3028C374.013 49.3028 374.458 48.8591 374.458 48.3084V45.7196H385.412L385.412 81.4512H374.458V78.8624C374.458 78.3147 374.013 77.8679 373.46 77.8679C372.906 77.8679 372.461 78.3116 372.461 78.8624V81.4512H370.857V78.8624C370.857 78.5442 370.703 78.2443 370.445 78.0576C370.187 77.871 369.852 77.819 369.547 77.92C368.481 78.2719 367.371 78.4463 366.262 78.4463C365.152 78.4463 364.043 78.2719 362.977 77.92C362.672 77.819 362.337 77.871 362.079 78.0576C361.821 78.2443 361.667 78.5442 361.667 78.8624V81.4512H346.212L346.212 45.7196H353.333H353.33ZM363.659 84.7652V80.1201C364.519 80.3037 365.386 80.4292 366.259 80.4292C367.132 80.4292 368.001 80.3037 368.859 80.1201V84.7652C367.998 84.5816 367.132 84.4561 366.259 84.4561C365.386 84.4561 364.516 84.5816 363.659 84.7652ZM346.209 127.119V83.4341H361.664V86.0228C361.664 86.3411 361.818 86.641 362.076 86.8276C362.334 87.0143 362.669 87.0663 362.974 86.9653C364.04 86.6134 365.149 86.439 366.259 86.439C367.368 86.439 368.478 86.6134 369.544 86.9653C369.848 87.0663 370.183 87.0143 370.442 86.8276C370.7 86.641 370.857 86.3411 370.857 86.0228V83.4341H372.461V86.0228C372.461 86.5706 372.906 87.0174 373.46 87.0174C374.013 87.0174 374.458 86.5736 374.458 86.0228V83.4341H385.412V145.907H346.246C346.246 145.907 346.224 145.913 346.212 145.913V127.116L346.209 127.119ZM346.209 147.89C346.209 147.89 346.23 147.896 346.242 147.896H385.409V173.722H376.514V168.533C376.514 162.801 371.849 158.156 366.093 158.156H346.242C346.242 158.156 346.221 158.162 346.209 158.162V147.89ZM346.209 160.133C346.209 160.133 346.23 160.139 346.242 160.139H366.093C368.422 160.139 370.525 161.075 372.052 162.596C373.579 164.117 374.52 166.21 374.52 168.53V173.719H346.242C346.242 173.719 346.221 173.726 346.209 173.726V160.13V160.133ZM346.209 181.562C346.209 181.562 346.23 181.568 346.242 181.568H366.093C368.422 181.568 370.525 182.505 372.052 184.025C373.579 185.546 374.52 187.639 374.52 189.959V195.406H353.674C353.333 192.56 350.929 190.347 347.979 190.347H346.209V181.559V181.562ZM342.444 200.464C340.363 200.461 338.679 198.784 338.676 196.712V196.088C338.679 194.016 340.363 192.339 342.444 192.336H347.979C349.826 192.339 351.353 193.664 351.676 195.409C351.716 195.629 351.747 195.855 351.747 196.088V196.712C351.747 196.945 351.719 197.171 351.676 197.392C351.35 199.136 349.823 200.461 347.979 200.464H342.444ZM376.514 195.406V189.959C376.514 184.227 371.849 179.582 366.093 179.582H346.242C346.242 179.582 346.221 179.588 346.209 179.588V175.699C346.209 175.699 346.23 175.705 346.242 175.705H385.409V195.403H376.514V195.406ZM387.403 224.705V197.392H388.734C389.075 200.237 391.478 202.45 394.429 202.45H396.199V210.418C396.116 210.513 396.048 210.626 396.005 210.755C395.891 211.091 395.987 211.437 396.199 211.691V224.99H387.345C387.372 224.898 387.403 224.803 387.403 224.702V224.705ZM501.161 226.979H507.375V229.944C507.375 233.959 510.645 237.214 514.677 237.214H521.485V274.761H506.598C503.595 274.754 501.164 272.334 501.158 269.344V226.979H501.161ZM499.166 263.861H483.585V257.459C483.585 253.797 480.601 250.825 476.922 250.825H465.96V239.773H499.166V263.861ZM364.91 239.773V273.699C364.255 273.613 363.607 273.488 362.977 273.28C362.672 273.179 362.337 273.231 362.079 273.417C361.821 273.604 361.667 273.904 361.667 274.222V276.811H346.212V239.773H364.913H364.91ZM353.33 278.797H361.664V281.385C361.664 281.704 361.818 282.004 362.076 282.19C362.334 282.377 362.669 282.429 362.974 282.328C364.04 281.976 365.149 281.802 366.259 281.802C367.368 281.802 368.478 281.976 369.544 282.328C369.848 282.429 370.183 282.377 370.442 282.19C370.7 282.004 370.853 281.704 370.853 281.385V278.797H372.458V281.385C372.458 281.933 372.903 282.38 373.457 282.38C374.01 282.38 374.455 281.936 374.455 281.385V278.797H385.409V314.528H374.455V311.94C374.455 311.392 374.01 310.945 373.457 310.945C372.903 310.945 372.458 311.389 372.458 311.94V314.528H370.853V311.94C370.853 311.621 370.7 311.321 370.442 311.135C370.183 310.948 369.848 310.896 369.544 310.997C368.478 311.349 367.368 311.523 366.259 311.523C365.149 311.523 364.04 311.349 362.974 310.997C362.669 310.896 362.334 310.948 362.076 311.135C361.818 311.321 361.664 311.621 361.664 311.94V314.528H346.209V278.797H353.33ZM363.659 317.845V313.2C364.519 313.384 365.386 313.509 366.259 313.509C367.132 313.509 368.001 313.384 368.859 313.2V317.845C367.998 317.662 367.132 317.536 366.259 317.536C365.386 317.536 364.516 317.662 363.659 317.845ZM363.659 355.563V350.918C364.519 351.101 365.386 351.227 366.259 351.227C367.132 351.227 368.001 351.101 368.859 350.918V355.563C367.998 355.379 367.132 355.254 366.259 355.254C365.386 355.254 364.516 355.379 363.659 355.563ZM377.486 352.249H374.455V349.66C374.455 349.112 374.01 348.666 373.457 348.666C372.903 348.666 372.458 349.109 372.458 349.66V352.249H370.853V349.66C370.853 349.342 370.7 349.042 370.442 348.855C370.183 348.669 369.848 348.617 369.544 348.718C368.478 349.07 367.368 349.244 366.259 349.244C365.149 349.244 364.04 349.07 362.974 348.718C362.669 348.617 362.334 348.669 362.076 348.855C361.818 349.042 361.664 349.342 361.664 349.66V352.249H346.209V316.517H361.664V319.106C361.664 319.424 361.818 319.724 362.076 319.911C362.334 320.098 362.669 320.15 362.974 320.049C364.04 319.697 365.149 319.522 366.259 319.522C367.368 319.522 368.478 319.697 369.544 320.049C369.848 320.15 370.183 320.098 370.442 319.911C370.7 319.724 370.857 319.424 370.857 319.106V316.517H372.461V319.106C372.461 319.654 372.906 320.101 373.46 320.101C374.013 320.101 374.458 319.657 374.458 319.106V316.517H385.412V352.249H377.489H377.486ZM455.649 343.228V332.16C457.88 332.172 462.628 332.197 467.49 332.212V349.957C467.49 357.855 464.278 364.994 459.082 370.171C453.882 375.346 446.712 378.543 438.779 378.543H387.403V365.511H433.266C445.627 365.511 455.649 355.535 455.649 343.225V343.228ZM454.438 393.632C454.711 386.594 457.649 380.248 462.327 375.591C464.125 373.801 466.181 372.267 468.421 371.034V393.632H454.438ZM470.416 393.632V370.19C470.416 370.147 470.397 370.11 470.391 370.07C473.784 368.55 477.534 367.684 481.495 367.684H481.587V393.629H470.416V393.632ZM481.59 365.701H481.498C465.778 365.701 453.003 378.118 452.443 393.632H387.403V380.532H438.779C455.738 380.532 469.485 366.845 469.485 349.96V332.221C471.215 332.224 472.917 332.227 474.479 332.227C476.516 332.227 478.317 332.224 479.63 332.212C480.287 332.206 480.822 332.2 481.209 332.191C481.366 332.188 481.48 332.181 481.59 332.178L481.59 365.704V365.701ZM483.585 317.613H499.624V346.554C497.233 346.983 495.389 348.91 495.073 351.331H483.585V317.613Z" fill="#C06520"/>
<path d="M521.488 232.686C522.229 232.374 522.889 231.924 523.482 231.401C524.988 230.07 525.956 228.148 525.956 225.984C525.956 223.821 524.988 221.899 523.482 220.568C522.889 220.045 522.229 219.595 521.488 219.283C520.618 218.919 519.659 218.714 518.654 218.714C515.692 218.714 513.153 220.479 512.01 223.004C511.727 223.625 511.552 224.292 511.454 224.993C511.438 225.106 511.429 225.222 511.42 225.339C511.401 225.556 511.355 225.764 511.355 225.987C511.355 226.327 511.411 226.652 511.457 226.982C511.936 230.449 514.843 233.123 518.427 233.237C518.504 233.237 518.577 233.261 518.657 233.261C519.407 233.261 520.114 233.117 520.793 232.906C521.027 232.836 521.267 232.784 521.488 232.692V232.686ZM513.737 227.946C513.611 227.637 513.513 227.312 513.448 226.979C513.387 226.658 513.347 226.327 513.347 225.984C513.347 225.645 513.387 225.314 513.448 224.99C513.467 224.892 513.497 224.8 513.522 224.705C514.1 222.41 516.168 220.703 518.654 220.697C519.699 220.697 520.667 221.012 521.488 221.529C522.358 222.08 523.055 222.869 523.482 223.815C523.784 224.476 523.962 225.207 523.962 225.981C523.962 226.756 523.784 227.487 523.482 228.148C523.052 229.09 522.358 229.883 521.488 230.434C520.836 230.844 520.09 231.104 519.287 231.202C519.078 231.226 518.869 231.266 518.654 231.266C517.708 231.266 516.832 230.997 516.063 230.562C515.019 229.975 514.189 229.06 513.737 227.943V227.946Z" fill="#C06520"/>
</g>
<path d="M374.2 153.346C374.2 235.381 440.992 301.884 523.384 301.884C605.776 301.884 672.568 235.381 672.568 153.346C672.568 71.3101 605.776 4.80713 523.384 4.80713C440.992 4.80713 374.2 71.3101 374.2 153.346Z" stroke="#C06520" stroke-width="2.31" stroke-miterlimit="10"/>
<path d="M391.306 183.003C404.918 243.126 458.949 288.185 523.387 288.185C587.825 288.185 641.853 243.126 655.465 183.003" stroke="#C06520" stroke-width="2.31" stroke-miterlimit="10"/>
<path d="M655.468 123.691C641.856 63.5683 587.822 18.5098 523.384 18.5098C458.946 18.5098 404.915 63.5652 391.303 123.691" stroke="#C06520" stroke-width="2.31" stroke-miterlimit="10"/>
<path d="M669.608 123.691L627.738 123.691C612.885 123.71 600.853 136.975 600.837 153.349C600.853 169.72 612.888 182.985 627.738 183.003L669.608 183.003" stroke="#C06520" stroke-width="2.31" stroke-miterlimit="10"/>
<path d="M377.163 183.003H419.064C433.914 182.985 445.949 169.72 445.965 153.349C445.949 136.975 433.914 123.713 419.064 123.691H377.27" stroke="#C06520" stroke-width="2.31" stroke-miterlimit="10"/>
<path d="M410.087 107.44L411.916 103.269C412.991 100.827 414.088 101.075 415.106 101.522L423.474 105.169C425.131 105.894 425.389 106.705 424.578 108.56L422.66 112.923L410.087 107.44ZM412.616 105.839L422.107 109.979L422.771 108.468C423.059 107.807 422.804 107.611 422.399 107.43L414.473 103.976C413.996 103.768 413.591 103.624 413.197 104.523L412.619 105.839H412.616Z" fill="#C06520"/>
<path d="M417.819 91.7817L429.753 98.5352L428.542 100.662L416.606 93.9084L417.819 91.7817Z" fill="#C06520"/>
<path d="M432.199 90.0589C432.577 90.3252 433.275 90.8209 434.016 89.7774C434.695 88.8227 433.997 88.2995 433.413 87.8833C432.368 87.1458 431.711 87.0724 429.234 87.4029C427.089 87.715 425.503 87.9322 424.064 86.9163C423.465 86.491 423.081 85.9555 422.903 85.3068C422.62 84.1929 423.081 83.1158 423.822 82.0754C425.177 80.1629 426.416 80.0283 427.574 80.8453L429.569 82.2559L428.253 84.1042L426.277 82.7027C425.93 82.4579 425.472 82.2315 424.946 82.9689C424.28 83.8992 424.79 84.3888 425.346 84.7804C426.483 85.5883 427.347 85.4781 429.993 85.1048C431.748 84.8753 433.254 84.6672 434.692 85.6862C435.436 86.2125 435.961 86.9775 436.096 87.7548C436.287 88.9696 435.608 90.0192 435.205 90.5883C433.121 93.5167 431.271 92.2101 430.703 91.8031L428.834 90.4812L430.162 88.6177L432.203 90.0589H432.199Z" fill="#C06520"/>
<path d="M429.649 74.8631L435.205 68.6758L436.407 69.7498L434.446 71.9316L443.469 79.9764L441.779 81.8583L432.756 73.8135L430.853 75.9341L429.649 74.8631Z" fill="#C06520"/>
<path d="M441.284 62.8525L450.627 72.8649L448.826 74.5356L439.483 64.5202L441.284 62.8525Z" fill="#C06520"/>
<path d="M449.358 56.1206L456.678 65.6739L459.948 63.1953L460.962 64.5203L455.695 68.5167L447.36 57.6353L449.358 56.1206Z" fill="#C06520"/>
<path d="M460.292 48.6753L466.534 58.9661L470.056 56.8486L470.92 58.2745L465.25 61.6864L458.147 49.9697L460.292 48.6753Z" fill="#C06520"/>
<path d="M469.635 43.5405L475.284 40.915L476.018 42.4726L472.675 44.0271L474.368 47.647L477.371 46.2486L478.087 47.7756L475.081 49.174L477.014 53.2958L480.379 51.7291L481.114 53.2866L475.444 55.9274L469.635 43.5405Z" fill="#C06520"/>
<path d="M482.445 38.1062L486.308 36.8516C489.203 35.9122 489.722 36.3773 490.561 38.9507C491.311 41.2304 491.542 42.1943 489.602 42.8033L489.627 42.8767C491.379 42.4728 491.837 43.097 492.399 44.829L492.863 46.2427C493.376 47.8033 493.506 48.0267 494.163 48.6662L491.701 49.468C491.25 48.7795 490.859 48.1919 490.429 46.87L490.128 45.952C489.968 45.4594 489.602 44.4343 489.184 44.1007C488.779 43.807 488.499 43.8988 487.101 44.3516L489.058 50.3278L486.698 51.0959L482.448 38.1123L482.445 38.1062ZM485.343 38.8926L486.658 42.9012L487.774 42.5401C488.972 42.1546 488.896 41.7476 488.192 39.5964C487.722 38.1613 487.583 38.1643 486.563 38.4948L485.343 38.8926Z" fill="#C06520"/>
<path d="M499.296 33.4521L502.181 46.809L499.781 47.3231L496.892 33.9632L499.296 33.4521Z" fill="#C06520"/>
<path d="M507.243 32.1058L513.439 31.4111L513.632 33.1217L509.963 33.5287L510.415 37.4883L513.712 37.115L513.903 38.7888L510.608 39.156L511.118 43.6664L514.816 43.2503L515.009 44.9608L508.789 45.6554L507.246 32.1058H507.243Z" fill="#C06520"/>
<path d="M529.125 31.0929L537.441 31.6743L537.324 33.2747L534.393 33.0666L533.526 45.0771L530.994 44.8966L531.86 32.8891L529.008 32.6872L529.125 31.0898V31.0929Z" fill="#C06520"/>
<path d="M543.643 32.5953L549.768 33.7245L549.455 35.4167L545.822 34.7435L545.091 38.6572L548.348 39.257L548.041 40.9094L544.78 40.3096L543.947 44.7711L547.602 45.4473L547.285 47.1334L541.132 46.0012L543.64 32.5923L543.643 32.5953Z" fill="#C06520"/>
<path d="M555.555 46.7262C555.417 47.1699 555.165 47.9808 556.388 48.3603C557.513 48.7061 557.796 47.8829 558.008 47.2005C558.386 45.9827 558.251 45.3339 557.156 43.0971C556.191 41.1662 555.488 39.7372 556.01 38.0603C556.228 37.3565 556.616 36.8271 557.181 36.4569C558.155 35.8418 559.326 35.9428 560.552 36.3192C562.799 37.0107 563.315 38.1368 562.897 39.4893L562.172 41.8149L560.002 41.1479L560.718 38.8406C560.844 38.4336 560.918 37.9318 560.048 37.6625C558.948 37.3259 558.641 37.9593 558.441 38.6019C558.029 39.933 558.401 40.7164 559.591 43.1001C560.356 44.6913 561.023 46.053 560.503 47.7269C560.233 48.5959 559.67 49.3303 558.967 49.7036C557.873 50.2544 556.656 49.9423 555.992 49.7373C552.543 48.6755 553.217 46.5182 553.422 45.8541L554.099 43.6785L556.293 44.3517L555.555 46.7293V46.7262Z" fill="#C06520"/>
<path d="M567.913 51.1755C567.722 51.5978 567.375 52.3781 568.549 52.8952C569.625 53.3726 570.006 52.5862 570.298 51.9313C570.817 50.7624 570.762 50.1076 569.941 47.7514C569.213 45.7165 568.684 44.211 569.404 42.6045C569.705 41.9313 570.153 41.457 570.756 41.1479C571.795 40.6583 572.947 40.8939 574.121 41.408C576.272 42.3658 576.65 43.5439 576.076 44.8352L575.083 47.0629L573.005 46.1449L573.992 43.9325C574.167 43.55 574.299 43.0512 573.466 42.6871C572.415 42.222 572.034 42.8156 571.758 43.4337C571.189 44.7097 571.466 45.5268 572.36 48.0421C572.929 49.7128 573.433 51.1449 572.713 52.7545C572.345 53.5837 571.693 54.2478 570.952 54.5323C569.8 54.9546 568.626 54.4987 567.99 54.2172C564.689 52.7606 565.617 50.689 565.9 50.0525L566.831 47.9656L568.933 48.8958L567.916 51.1786L567.913 51.1755Z" fill="#C06520"/>
<path d="M583.793 46.5149L589.152 49.6698L588.273 51.1539L585.099 49.2811L583.064 52.7175L585.916 54.3975L585.056 55.8448L582.201 54.168L579.877 58.0786L583.077 59.9636L582.198 61.4446L576.813 58.2745L583.796 46.5088L583.793 46.5149Z" fill="#C06520"/>
<path d="M597.681 55.6063L594.546 64.2324C594.353 64.7465 594.199 65.1107 594.033 65.5482L594.159 65.6431C594.466 65.0739 594.774 64.5048 595.133 63.954L595.831 62.8769L599.964 57.3627L601.808 58.7795L593.44 69.5813L591.258 67.9044L595.072 57.9258L594.943 57.8279L594.325 58.8438L593.689 59.8413L589.036 66.197L587.192 64.7832L595.56 53.9814L597.681 55.6063Z" fill="#C06520"/>
<path d="M608.059 64.2876L611.286 67.5159C613.173 69.4009 612.54 70.3311 611.76 71.1083L605.3 77.5252C604.021 78.8012 603.17 78.743 601.735 77.3079L598.36 73.9327L608.059 64.2876ZM608.631 67.216L601.307 74.5019L602.478 75.6708C602.989 76.1818 603.265 76.0166 603.579 75.7014L609.691 69.6212C610.063 69.254 610.346 68.9327 609.648 68.2319L608.628 67.216H608.631Z" fill="#C06520"/>
<path d="M619.802 77.1029L609.144 85.6893L607.595 83.789L618.254 75.2026L619.802 77.1029Z" fill="#C06520"/>
<path d="M624.658 83.584L628.085 88.7554L626.644 89.707L624.612 86.6379L621.275 88.8319L623.097 91.5828L621.686 92.51L619.864 89.7529L616.056 92.256L618.103 95.3436L616.662 96.2922L613.223 91.0932L624.658 83.587V83.584Z" fill="#C06520"/>
<path d="M631.93 95.3374L633.743 98.9543C635.104 101.665 634.72 102.244 632.289 103.456C630.138 104.533 629.213 104.9 628.325 103.082L628.254 103.119C628.912 104.781 628.362 105.322 626.73 106.136L625.393 106.803C623.914 107.538 623.715 107.7 623.177 108.443L622.018 106.136C622.636 105.591 623.161 105.123 624.409 104.499L625.276 104.065C625.746 103.832 626.705 103.324 626.972 102.859C627.206 102.418 627.074 102.155 626.419 100.848L620.777 103.661L619.667 101.445L631.93 95.3374ZM631.573 98.3087L627.787 100.197L628.312 101.24C628.875 102.36 629.262 102.225 631.293 101.213C632.649 100.539 632.621 100.402 632.145 99.45L631.57 98.3087H631.573Z" fill="#C06520"/>
<path d="M628.214 216.761L620.371 213.487C619.24 213.022 618.825 212.774 618.063 212.343L617.968 212.505C619.212 213.258 619.6 213.551 620.512 214.258L626.788 219.105L625.497 221.223L614.901 212.272L616.394 209.812L623.318 212.777C624.034 213.089 624.683 213.475 625.414 213.918L625.54 213.713C624.907 213.334 624.047 212.811 623.709 212.541L617.67 207.713L619.139 205.295L631.964 210.583L630.707 212.655L622.845 209.032C621.892 208.612 621.462 208.352 620.715 207.933L620.632 208.068C621.696 208.713 622.197 209.044 622.774 209.515L629.373 214.84L628.211 216.755L628.214 216.761Z" fill="#C06520"/>
<path d="M616.388 232.731L612.218 229.056L610.672 230.791L614.842 234.47L613.192 236.324L602.927 227.279L604.599 225.403L609.369 229.604L610.896 227.894L606.126 223.689L607.777 221.838L618.042 230.883L616.388 232.735V232.731Z" fill="#C06520"/>
<path d="M602.106 246.636L593.255 236.214L595.13 234.635L603.984 245.054L602.106 246.636Z" fill="#C06520"/>
<path d="M584.463 245.749C584.214 245.354 583.756 244.638 582.671 245.32C581.678 245.948 582.124 246.694 582.511 247.3C583.196 248.38 583.78 248.702 586.205 249.323C588.31 249.855 589.862 250.253 590.806 251.74C591.202 252.361 591.356 252.995 591.276 253.668C591.113 254.8 590.277 255.626 589.192 256.309C587.207 257.563 586.009 257.217 585.249 256.021L583.934 253.962L585.855 252.75L587.155 254.791C587.385 255.152 587.723 255.538 588.492 255.054C589.463 254.439 589.177 253.793 588.811 253.218C588.062 252.04 587.223 251.814 584.622 251.159C582.911 250.703 581.435 250.329 580.489 248.836C580.003 248.068 579.8 247.162 579.973 246.388C580.261 245.201 581.288 244.488 581.875 244.112C584.921 242.193 586.138 244.108 586.516 244.696L587.745 246.624L585.806 247.848L584.463 245.736V245.749Z" fill="#C06520"/>
<path d="M570.513 265.602L568.202 266.587L568.389 259.148L562.292 254.259L564.625 253.264L569.281 257.089C569.413 257.202 569.991 257.735 570.132 257.86L567.621 251.991L569.908 251.018L575.28 263.576L572.969 264.562L570.839 259.577C570.664 259.17 570.599 258.943 570.461 258.625C570.519 259.17 570.528 259.73 570.525 259.926L570.516 265.602H570.513Z" fill="#C06520"/>
<path d="M555.906 270.55L554.055 267.75C553.462 266.844 553.189 266.095 552.881 265.336L552.7 265.382C552.759 265.825 552.918 266.884 552.771 268.234L552.377 271.447L549.943 272.065L551.007 263.619L549.587 258.074L552.202 257.407L553.619 262.937L558.389 269.923L555.903 270.553L555.906 270.55Z" fill="#C06520"/>
<path d="M524.478 274.812L518.009 274.693L518.043 272.995L522.023 273.065L522.096 269.109L518.488 269.038L518.519 267.377L522.099 267.447L522.216 261.113L524.73 261.156L524.478 274.812Z" fill="#C06520"/>
<path d="M506.524 273.601L502.522 272.918C499.523 272.401 499.286 271.75 499.747 269.087C500.159 266.722 500.405 265.764 502.403 266.122L502.415 266.046C500.675 265.593 500.568 264.828 500.878 263.035L501.13 261.569C501.413 259.947 501.401 259.69 501.121 258.815L503.675 259.259C503.749 260.073 503.816 260.773 503.577 262.144L503.417 263.099C503.325 263.613 503.168 264.684 503.38 265.177C503.601 265.623 503.89 265.672 505.341 265.92L506.416 259.73L508.863 260.146L506.527 273.601H506.524ZM504.333 271.557L505.052 267.398L503.893 267.202C502.661 266.985 502.535 267.383 502.148 269.611C501.889 271.095 502.015 271.159 503.066 271.34L504.33 271.557H504.333Z" fill="#C06520"/>
<path d="M482.838 267.775L484.501 253.91L486.806 254.696L486.449 257.227L489.132 258.142L490.352 255.899L492.63 256.676L485.699 268.751L482.838 267.775ZM485.214 265.865C485.865 264.207 485.927 264.02 486.056 263.824L488.339 259.632L486.216 258.907L485.564 263.696C485.493 264.222 485.349 264.724 485.014 265.795L485.217 265.865H485.214Z" fill="#C06520"/>
<path d="M467.143 260.984L468.818 251.948C468.925 251.413 469.014 251.021 469.11 250.568L468.968 250.492C468.756 251.104 468.547 251.716 468.286 252.318L467.773 253.499L464.595 259.626L462.545 258.53L469.027 246.483L471.458 247.774L469.337 258.261L469.475 258.337L469.918 257.236L470.385 256.143L473.932 249.093L475.985 250.189L469.5 262.242L467.143 260.984Z" fill="#C06520"/>
<path d="M452.585 238.836C453.012 238.288 454.419 236.584 457.287 238.325L457.969 238.135C457.081 237.41 456.426 236.596 456.906 235.966C457.274 235.489 458.378 235.063 461.568 237.612L461.205 238.09C459.266 236.492 458.897 236.97 458.829 237.061C458.51 237.478 459.266 238.074 460.046 238.72L458.332 239.118C460.824 241.431 459.622 242.998 458.925 243.904L454.911 249.124C454.164 250.094 452.514 252.242 449.158 249.687C446.054 247.331 447.507 245.443 448.097 244.675L449.161 243.292L451.137 244.797L449.846 246.471C449.579 246.823 448.986 247.591 450.218 248.53C451.469 249.482 452.084 248.683 452.52 248.117L457.127 242.129C457.588 241.526 458.095 240.865 456.884 239.944C455.633 238.986 455.065 239.727 454.65 240.262L453.018 242.386L451.023 240.865L452.581 238.836H452.585Z" fill="#C06520"/>
<path d="M434.335 236.088L442.212 224.57L443.893 226.324L442.406 228.404L444.37 230.442L446.484 229.013L448.15 230.745L436.431 238.264L434.338 236.088H434.335ZM437.326 235.488C438.672 234.316 438.81 234.182 439.019 234.062L442.977 231.4L441.422 229.781L438.638 233.723C438.334 234.16 437.974 234.54 437.181 235.335L437.326 235.488Z" fill="#C06520"/>
<path d="M423.874 223.377L434.975 215.351L436.422 217.333L425.321 225.357L423.874 223.377Z" fill="#C06520"/>
<path d="M426.12 205.938C426.532 205.721 427.285 205.323 426.686 204.194C426.13 203.16 425.346 203.542 424.713 203.879C423.582 204.475 423.216 205.032 422.405 207.392C421.719 209.439 421.206 210.947 419.645 211.777C418.99 212.122 418.342 212.22 417.678 212.092C416.553 211.844 415.791 210.95 415.189 209.824C414.085 207.753 414.516 206.593 415.767 205.932L417.93 204.785L418.997 206.783L416.854 207.915C416.476 208.117 416.071 208.426 416.498 209.222C417.039 210.234 417.706 209.999 418.305 209.681C419.537 209.029 419.832 208.212 420.678 205.684C421.258 204.023 421.747 202.584 423.311 201.761C424.117 201.333 425.042 201.207 425.801 201.44C426.972 201.816 427.611 202.893 427.937 203.505C429.633 206.682 427.626 207.741 427.012 208.065L424.983 209.139L423.905 207.119L426.117 205.944L426.12 205.938Z" fill="#C06520"/>
</g>
<defs>
<clipPath id="clip0_36_4839">
<rect width="306" height="307.329" fill="white" transform="matrix(0 1 -1 0 678.238 0)"/>
</clipPath>
</defs>
</svg>
