<svg width="270" height="185" viewBox="0 0 270 185" fill="none" xmlns="http://www.w3.org/2000/svg">
<g clip-path="url(#clip0_322_6377)">
<mask id="mask0_322_6377" style="mask-type:luminance" maskUnits="userSpaceOnUse" x="0" y="0" width="270" height="126">
<path d="M270 0H0V125.924H270V0Z" fill="white"/>
</mask>
<g mask="url(#mask0_322_6377)">
<path d="M62.6852 84.2947H64.3945C64.9641 84.3103 65.5306 84.1871 66.062 83.9323C66.5021 83.7091 66.8997 83.3741 67.2293 82.9485C67.5349 82.5591 67.7715 82.0947 67.9241 81.585C68.0786 81.0774 68.1586 80.5397 68.1603 79.9971C68.1584 79.4601 68.0785 78.928 67.9241 78.4265C67.7718 77.9115 67.5352 77.4415 67.2293 77.0458C66.8989 76.6257 66.5013 76.2963 66.062 76.0793C65.5306 75.8243 64.9641 75.7012 64.3945 75.7168H62.6852V84.3465V84.2947ZM61.8237 74.7676H64.603C65.1419 74.7671 65.6773 74.8778 66.1871 75.0955C66.6971 75.3089 67.1689 75.6429 67.5767 76.0793C68.0319 76.5592 68.3934 77.1612 68.6341 77.8397C68.8748 78.5184 68.9883 79.2561 68.9663 79.9971C68.9848 80.7898 68.8514 81.5766 68.5772 82.2927C68.3378 82.9527 67.9871 83.5413 67.5489 84.0186C67.1412 84.4548 66.6692 84.7888 66.1593 85.0024C65.6495 85.22 65.1142 85.3307 64.5751 85.3303H61.7959V74.7676H61.8237Z" fill="#FF6C0E"/>
<path d="M79.8191 85.244H78.9575V74.7676H79.8191V85.244Z" fill="#FF6C0E"/>
<path d="M94.2429 76.4591C94.064 76.1357 93.8259 75.8696 93.5481 75.6824C93.2238 75.4867 92.8662 75.392 92.5059 75.4062C92.2947 75.4066 92.0845 75.4416 91.8806 75.5098C91.6708 75.5884 91.4734 75.7109 91.2969 75.8723C91.1212 76.0413 90.9747 76.2527 90.8662 76.4936C90.7606 76.7682 90.7083 77.0696 90.7134 77.3738C90.7013 77.6622 90.7542 77.9491 90.8662 78.2023C90.9698 78.4177 91.1068 78.6054 91.2692 78.7545C91.4515 78.9081 91.6473 79.0355 91.8528 79.1342L92.5337 79.4276L93.4231 79.8074C93.713 79.9389 93.9848 80.1252 94.229 80.3597C94.4691 80.5807 94.6682 80.8632 94.8127 81.1881C94.9734 81.5894 95.0499 82.0347 95.035 82.4825C95.0435 82.9538 94.9626 83.4209 94.7987 83.846C94.6445 84.2072 94.4315 84.5246 94.1734 84.7781C93.9092 85.0331 93.6069 85.2208 93.2841 85.3304C92.9638 85.448 92.6314 85.5062 92.2975 85.5029C92.0431 85.5293 91.7875 85.5293 91.5332 85.5029C91.2854 85.4338 91.0434 85.3356 90.8106 85.2095C90.5778 85.082 90.3585 84.9198 90.1575 84.7263C89.9607 84.5221 89.7835 84.2905 89.6294 84.036L90.3798 83.3628C90.5649 83.7509 90.8283 84.0722 91.1441 84.2948C91.4962 84.5569 91.901 84.6887 92.3114 84.6745C92.5327 84.6753 92.753 84.6347 92.9645 84.5537C93.1804 84.4728 93.3828 84.3441 93.562 84.174C93.7424 83.9992 93.8934 83.7823 94.0066 83.5354C94.1075 83.265 94.1598 82.9705 94.1598 82.6725C94.1598 82.3744 94.1075 82.08 94.0066 81.8094C93.8957 81.5647 93.7383 81.3574 93.5481 81.2054C93.3471 81.03 93.1272 80.8906 92.8949 80.7911L92.1168 80.4632C91.8385 80.3605 91.5648 80.2395 91.2969 80.1008C91.0307 79.9705 90.7823 79.7901 90.5604 79.5658C90.3486 79.3322 90.1742 79.0512 90.0463 78.7373C89.9111 78.3633 89.8447 77.9564 89.8518 77.5464C89.8404 77.0893 89.9267 76.6368 90.1018 76.2347C90.2524 75.8801 90.4663 75.5731 90.7272 75.3372C90.9896 75.0965 91.2868 74.9207 91.6027 74.8195C91.9089 74.7031 92.2274 74.645 92.5476 74.6468C93.0508 74.6345 93.5497 74.7643 94.0066 75.0265C94.3629 75.2359 94.6765 75.5428 94.9238 75.9241L94.2429 76.6143V76.4591Z" fill="#FF6C0E"/>
<path d="M107.472 85.244H106.624V75.7168H103.79V74.7676H110.307V75.7168H107.472V85.244Z" fill="#FF6C0E"/>
<path d="M120.533 85.244H119.672V74.7676H120.533V85.244Z" fill="#FF6C0E"/>
<path d="M131.734 84.2947H135.667V85.244H130.873V74.7676H131.734V84.2947Z" fill="#FF6C0E"/>
<path d="M145.922 84.2947H149.855V85.244H145.061V74.7676H145.922V84.2947Z" fill="#FF6C0E"/>
<path d="M160.097 84.2947H164.613V85.244H159.249V74.7676H164.474V75.7168H160.097V79.3067H164.196V80.2559H160.097V84.2947Z" fill="#FF6C0E"/>
<path d="M175.257 79.393H176.744C177.303 79.4411 177.859 79.2787 178.342 78.927C178.527 78.7764 178.678 78.5679 178.778 78.3225C178.878 78.0772 178.924 77.8035 178.912 77.529C178.916 77.2248 178.864 76.9234 178.759 76.6488C178.653 76.4206 178.504 76.2257 178.328 76.0793C178.126 75.9157 177.899 75.8042 177.661 75.7513C177.372 75.6793 177.079 75.6446 176.785 75.6478H175.257V79.393ZM175.257 85.2094H174.41V74.7676H176.882C177.27 74.7673 177.656 74.8135 178.036 74.9056C178.363 74.9967 178.673 75.1604 178.954 75.3889C179.206 75.6123 179.41 75.9084 179.551 76.2518C179.698 76.6642 179.77 77.1125 179.76 77.5635C179.762 77.9249 179.705 78.2832 179.593 78.6163C179.491 78.9217 179.34 79.1978 179.148 79.4276C178.954 79.6712 178.722 79.8648 178.467 79.9971C178.193 80.1401 177.902 80.2275 177.606 80.2559L180.079 85.244H179.023L176.689 80.3423H175.299V85.244L175.257 85.2094Z" fill="#FF6C0E"/>
<path d="M190.501 85.244H189.639V74.7676H190.501V85.244Z" fill="#FF6C0E"/>
<path d="M201.715 84.2947H206.231V85.244H200.853V74.7676H206.078V75.7168H201.715V79.3067H205.801V80.2559H201.715V84.2947Z" fill="#FF6C0E"/>
<path d="M108.75 12.5823L111.682 9.37207L112.03 9.88985L109.556 12.5996L111.057 14.7052L113.378 12.1681L113.739 12.6686L111.405 15.223L113.058 17.5358L115.642 14.7052L116.004 15.2057L112.961 18.5196L108.75 12.5823Z" fill="#231F20"/>
<path d="M117.824 12.0817C118.033 12.2422 118.275 12.3204 118.52 12.3061C118.764 12.3029 119.003 12.2196 119.214 12.0645C119.315 11.993 119.409 11.906 119.492 11.8056C119.568 11.6982 119.629 11.5757 119.673 11.4431C119.722 11.3252 119.75 11.1958 119.756 11.0634C119.757 10.9243 119.728 10.7874 119.673 10.6665C119.632 10.5843 119.577 10.514 119.512 10.4604C119.447 10.4068 119.374 10.3711 119.297 10.3558C119.127 10.3135 118.953 10.3135 118.783 10.3558C118.584 10.4117 118.389 10.4867 118.2 10.5802C118.003 10.6649 117.797 10.7171 117.589 10.7355C117.406 10.7955 117.214 10.7955 117.032 10.7355C116.83 10.6368 116.666 10.4453 116.574 10.2005C116.474 10.0039 116.422 9.77666 116.421 9.54461C116.418 9.33692 116.451 9.13091 116.518 8.94053C116.589 8.74709 116.688 8.57156 116.81 8.42275C116.926 8.26285 117.061 8.12861 117.213 8.02578C117.475 7.83105 117.77 7.713 118.074 7.68059C118.361 7.6728 118.643 7.77529 118.88 7.97401L118.603 8.57808C118.436 8.44455 118.244 8.3672 118.046 8.35371C117.836 8.3469 117.627 8.41905 117.449 8.56083C117.365 8.6249 117.285 8.70012 117.213 8.78519C117.144 8.8801 117.083 8.9843 117.032 9.09586C116.988 9.20997 116.96 9.33252 116.949 9.4583C116.917 9.57591 116.917 9.70317 116.949 9.82076C116.982 9.90919 117.032 9.98577 117.096 10.0432C117.158 10.1006 117.232 10.1369 117.31 10.1487C117.476 10.1816 117.645 10.1816 117.811 10.1487C118.01 10.0928 118.205 10.0178 118.394 9.92431C118.587 9.83621 118.788 9.77823 118.992 9.75172C119.186 9.73259 119.381 9.76797 119.561 9.85528C119.775 9.97337 119.947 10.1813 120.048 10.4421C120.149 10.6523 120.212 10.8883 120.228 11.1325C120.231 11.3513 120.198 11.5685 120.131 11.7711C120.057 11.9766 119.953 12.1637 119.826 12.3234C119.697 12.495 119.546 12.6406 119.381 12.7548C119.087 12.966 118.76 13.0956 118.422 13.1345C118.102 13.1725 117.78 13.0818 117.505 12.8757L117.824 12.0817Z" fill="#231F20"/>
<path d="M123.995 5.05689L122.869 5.57467L123.8 8.73313C123.819 8.82965 123.856 8.91972 123.906 8.99717C123.957 9.07463 124.02 9.13764 124.092 9.18187C124.234 9.2512 124.394 9.2512 124.537 9.18187C124.635 9.13197 124.727 9.06828 124.814 8.99202L125.064 8.75039L125.273 9.30269C125.178 9.40094 125.076 9.48764 124.967 9.56158L124.662 9.76869C124.5 9.83391 124.331 9.86882 124.161 9.87225C124.027 9.8628 123.895 9.8218 123.773 9.75144C123.659 9.6658 123.56 9.55456 123.481 9.4235C123.399 9.27956 123.334 9.12286 123.286 8.95751L122.368 5.79904L121.521 6.17874L121.354 5.60919L122.202 5.1777L121.799 3.77969L122.285 3.58984L122.688 5.0051L123.814 4.48732L123.981 5.05689H123.995Z" fill="#231F20"/>
<path d="M127.843 8.05966C127.831 7.99051 127.83 7.91903 127.84 7.84937C127.851 7.77971 127.871 7.71325 127.903 7.65385C127.934 7.59445 127.974 7.54329 128.02 7.50333C128.068 7.46338 128.121 7.43541 128.177 7.42107C128.284 7.37071 128.403 7.37071 128.51 7.42107C128.557 7.46094 128.597 7.51197 128.628 7.57122C128.659 7.63047 128.68 7.69675 128.691 7.76626C128.714 7.82865 128.725 7.89631 128.725 7.96474C128.725 8.03318 128.714 8.10083 128.691 8.16322C128.664 8.22328 128.626 8.27477 128.58 8.31368C128.534 8.3526 128.482 8.37789 128.427 8.3876C128.32 8.43959 128.201 8.43959 128.093 8.3876C128.002 8.30341 127.937 8.18079 127.913 8.04241L127.843 8.05966Z" fill="#231F20"/>
<path d="M138.21 0.932006H138.196L136.96 1.95031L136.668 1.38075L138.363 0L138.822 0.0690374L138.155 7.93931L137.612 7.87027L138.21 0.932006Z" fill="#231F20"/>
<path d="M144.199 3.45171C144.166 3.63921 144.166 3.83377 144.199 4.02127C144.202 4.20049 144.234 4.37702 144.297 4.53905C144.361 4.70337 144.45 4.85009 144.561 4.97054C144.683 5.11071 144.831 5.21146 144.991 5.26394C145.147 5.30599 145.308 5.30599 145.464 5.26394C145.61 5.24918 145.752 5.19626 145.88 5.10862C146.017 5.02897 146.136 4.91072 146.228 4.76343C146.327 4.6151 146.402 4.44538 146.451 4.2629C146.513 4.08312 146.546 3.88928 146.546 3.69334C146.546 3.49741 146.513 3.30356 146.451 3.12379C146.38 2.95845 146.283 2.81227 146.166 2.69376C146.049 2.57525 145.914 2.48675 145.77 2.43341C145.628 2.3603 145.477 2.32266 145.325 2.32266C145.173 2.32266 145.022 2.3603 144.88 2.43341C144.741 2.52196 144.618 2.64616 144.52 2.79786C144.421 2.94956 144.35 3.12533 144.311 3.31364L144.199 3.45171ZM143.032 6.90358C142.973 7.12003 142.95 7.34882 142.963 7.57669C142.974 7.79134 143.017 8.00167 143.088 8.19803C143.167 8.39429 143.275 8.57003 143.407 8.71582C143.556 8.88104 143.731 9.00465 143.922 9.07827C144.109 9.12713 144.303 9.12713 144.491 9.07827C144.666 9.05184 144.835 8.98758 144.991 8.88841C145.146 8.78327 145.282 8.6427 145.395 8.47418C145.517 8.29919 145.607 8.093 145.658 7.87011C145.729 7.63925 145.753 7.39026 145.728 7.14522C145.718 6.92813 145.671 6.71625 145.589 6.52388C145.516 6.3283 145.406 6.15688 145.27 6.02336C145.129 5.87125 144.962 5.75932 144.783 5.69542C144.609 5.61909 144.425 5.58396 144.241 5.59187C144.062 5.60769 143.887 5.66629 143.727 5.76446C143.572 5.86961 143.436 6.01017 143.324 6.17869C143.191 6.36309 143.091 6.58089 143.032 6.81729V6.90358ZM143.63 3.14104C143.704 2.87067 143.816 2.61922 143.963 2.39889C144.108 2.203 144.282 2.04463 144.477 1.93288C144.677 1.81528 144.895 1.75063 145.116 1.74303C145.352 1.72466 145.589 1.76577 145.812 1.86384C146.034 1.94694 146.241 2.08165 146.423 2.26082C146.593 2.43798 146.737 2.64776 146.853 2.88216C146.957 3.11609 147.019 3.37518 147.035 3.64156C147.061 3.92769 147.032 4.2176 146.951 4.48728C146.906 4.66497 146.841 4.83358 146.756 4.98779C146.659 5.14263 146.548 5.28178 146.423 5.40202C146.304 5.52424 146.166 5.61787 146.02 5.67817C145.867 5.74059 145.707 5.76978 145.547 5.76446C145.716 5.88737 145.866 6.04495 145.992 6.23047C146.103 6.41266 146.187 6.61696 146.242 6.83455C146.297 7.04624 146.326 7.26766 146.326 7.4904C146.314 7.72441 146.282 7.95609 146.228 8.18078C146.147 8.49829 146.015 8.79192 145.839 9.04374C145.682 9.2711 145.489 9.45364 145.27 9.57879C145.045 9.71786 144.797 9.78885 144.547 9.7859C144.282 9.79839 144.019 9.75162 143.768 9.64783C143.51 9.55217 143.269 9.39378 143.06 9.18181C142.867 9.00046 142.706 8.77125 142.587 8.5087C142.462 8.24655 142.39 7.95024 142.379 7.64573C142.351 7.31289 142.384 6.9765 142.476 6.66195C142.531 6.43906 142.615 6.2291 142.726 6.04061C142.825 5.85058 142.952 5.68639 143.101 5.55735C143.246 5.42095 143.412 5.32125 143.588 5.26394C143.776 5.2113 143.97 5.2113 144.157 5.26394C144.023 5.15956 143.905 5.02493 143.81 4.86698C143.726 4.70069 143.66 4.52061 143.615 4.33194C143.593 4.14309 143.593 3.95123 143.615 3.76238C143.595 3.57912 143.595 3.39334 143.615 3.21008L143.63 3.14104Z" fill="#231F20"/>
<path d="M150.994 6.80025C150.91 6.96156 150.858 7.14469 150.841 7.3353C150.813 7.51193 150.813 7.69369 150.841 7.87034C150.873 8.05112 150.934 8.22169 151.022 8.37085C151.124 8.53377 151.251 8.6689 151.397 8.76783C151.531 8.87181 151.684 8.93671 151.842 8.95767C151.989 8.99265 152.139 8.99265 152.286 8.95767C152.43 8.91643 152.562 8.83362 152.675 8.71604C152.795 8.59292 152.898 8.44733 152.981 8.28456C153.063 8.11841 153.118 7.93362 153.141 7.741C153.165 7.54838 153.158 7.35179 153.12 7.16271C153.078 6.97991 153.009 6.8093 152.913 6.66105C152.818 6.51279 152.699 6.38992 152.565 6.29973C152.302 6.10147 151.988 6.03946 151.689 6.12714C151.385 6.24363 151.13 6.50406 150.98 6.85204L150.994 6.80025ZM149.271 9.94147C149.172 10.1345 149.111 10.3529 149.09 10.5801C149.057 10.7967 149.057 11.0193 149.09 11.2359C149.134 11.4472 149.209 11.6463 149.313 11.8227C149.426 12.0168 149.573 12.1762 149.744 12.2887C149.911 12.4219 150.101 12.5046 150.299 12.5304C150.474 12.5652 150.653 12.5652 150.828 12.5304C150.994 12.4616 151.149 12.3564 151.285 12.2197C151.431 12.0763 151.553 11.9008 151.647 11.7019C151.744 11.4955 151.806 11.2663 151.827 11.0288C151.862 10.8122 151.862 10.5896 151.827 10.3729C151.786 10.1575 151.706 9.95675 151.592 9.78613C151.476 9.60583 151.334 9.45369 151.175 9.33738C151.016 9.22118 150.842 9.14492 150.661 9.11301C150.486 9.0711 150.307 9.0711 150.132 9.11301C149.961 9.17239 149.801 9.272 149.66 9.40642C149.507 9.55803 149.38 9.74573 149.285 9.95872L149.271 9.94147ZM150.48 6.48958C150.595 6.2391 150.752 6.02151 150.938 5.85099C151.106 5.68912 151.301 5.57694 151.508 5.52307C151.723 5.46236 151.946 5.46236 152.161 5.52307C152.393 5.56384 152.616 5.66374 152.815 5.81647C153.021 5.95797 153.205 6.14516 153.357 6.36877C153.492 6.57903 153.597 6.819 153.662 7.0764C153.704 7.33853 153.704 7.60822 153.662 7.87034C153.628 8.15521 153.553 8.43005 153.44 8.68152C153.358 8.84036 153.26 8.98538 153.148 9.11301C153.036 9.25126 152.903 9.36245 152.758 9.44094C152.62 9.52856 152.47 9.58135 152.314 9.59628C152.163 9.63914 152.007 9.63914 151.856 9.59628C152.003 9.75697 152.126 9.95003 152.217 10.1658C152.29 10.3681 152.337 10.5837 152.356 10.8044C152.383 11.0275 152.383 11.2545 152.356 11.4775C152.315 11.7034 152.246 11.9192 152.148 12.1161C152.013 12.4099 151.834 12.6679 151.619 12.8756C151.427 13.0602 151.204 13.1899 150.966 13.2552C150.728 13.3071 150.483 13.3071 150.244 13.2552C149.978 13.1998 149.724 13.0827 149.493 12.9101C149.26 12.7448 149.052 12.5284 148.881 12.2715C148.725 12.0353 148.602 11.7665 148.521 11.4775C148.451 11.1713 148.434 10.8505 148.47 10.5356C148.506 10.2207 148.594 9.91842 148.729 9.64805C148.821 9.44796 148.939 9.26736 149.076 9.11301C149.204 8.95157 149.355 8.82257 149.522 8.73331C149.688 8.64184 149.867 8.58359 150.049 8.56071C150.243 8.54545 150.437 8.58072 150.619 8.66427C150.499 8.53389 150.408 8.3675 150.354 8.18101C150.29 8.00711 150.252 7.8198 150.244 7.6287C150.222 7.43976 150.222 7.2481 150.244 7.05915C150.272 6.8696 150.328 6.68823 150.411 6.5241L150.48 6.48958Z" fill="#231F20"/>
<path d="M155.636 13.1171C155.524 13.2725 155.399 13.445 155.289 13.6348C155.155 13.8365 155.035 14.05 154.927 14.2735C154.813 14.4922 154.716 14.7233 154.635 14.9639C154.559 15.1899 154.507 15.428 154.483 15.6715C154.447 15.8936 154.447 16.1224 154.483 16.3446C154.557 16.5828 154.677 16.7958 154.83 16.9659C154.976 17.1448 155.158 17.2704 155.358 17.3284C155.542 17.3714 155.731 17.3714 155.914 17.3284C156.109 17.2712 156.297 17.1781 156.47 17.0521C156.652 16.9305 156.824 16.7859 156.984 16.6208C157.15 16.4654 157.304 16.2928 157.456 16.1202L157.831 15.6197C157.943 15.4816 158.053 15.3091 158.193 15.1019C158.332 14.8948 158.428 14.6876 158.54 14.4806C158.657 14.2575 158.754 14.0205 158.832 13.7729C158.915 13.5496 158.966 13.3102 158.985 13.0653C159.026 12.838 159.026 12.6022 158.985 12.3749C158.906 12.1446 158.787 11.9385 158.637 11.7708C158.494 11.5908 158.31 11.4703 158.109 11.4257C157.93 11.3815 157.747 11.3815 157.567 11.4257C157.37 11.4767 157.183 11.5702 157.012 11.7018C156.822 11.8191 156.645 11.964 156.483 12.1333C156.316 12.2886 156.164 12.4612 156.011 12.6338L155.636 13.1171ZM155.192 12.6165C155.352 12.3909 155.523 12.1777 155.706 11.978C155.887 11.7582 156.082 11.5562 156.289 11.3739C156.492 11.2067 156.705 11.0623 156.928 10.9424C157.138 10.8198 157.364 10.7439 157.596 10.718C157.824 10.6584 158.06 10.6584 158.29 10.718C158.542 10.8321 158.775 11.0082 158.971 11.2358C159.17 11.4512 159.331 11.7157 159.443 12.0125C159.541 12.278 159.593 12.5661 159.596 12.8582C159.598 13.1446 159.565 13.4295 159.499 13.7039C159.422 13.9959 159.324 14.279 159.207 14.5496C159.081 14.8245 158.942 15.0895 158.79 15.3435C158.637 15.5852 158.485 15.8268 158.332 16.0338C158.178 16.241 157.998 16.4654 157.818 16.6726C157.636 16.8922 157.44 17.0942 157.234 17.2766C157.032 17.4493 156.818 17.5993 156.595 17.7254C156.382 17.8347 156.157 17.9044 155.928 17.9324C155.698 17.992 155.462 17.992 155.233 17.9324C154.984 17.8176 154.758 17.6415 154.566 17.4146C154.37 17.2192 154.211 16.9726 154.1 16.6922C153.99 16.4116 153.93 16.1045 153.927 15.7923C153.923 15.5044 153.96 15.2179 154.038 14.9466C154.111 14.655 154.203 14.372 154.316 14.1008C154.438 13.8291 154.578 13.5694 154.733 13.3241C154.885 13.0653 155.038 12.8409 155.192 12.6165Z" fill="#231F20"/>
<path d="M149.355 21.2463C149.342 21.2372 149.328 21.2324 149.313 21.2324C149.299 21.2324 149.284 21.2372 149.271 21.2463C149.04 23.4212 148.181 25.4177 146.853 26.864C145.525 28.3102 143.818 29.1075 142.052 29.1075C140.286 29.1075 138.58 28.3102 137.252 26.864C135.924 25.4177 135.065 23.4212 134.833 21.2463C134.821 21.2372 134.806 21.2324 134.791 21.2324C134.777 21.2324 134.762 21.2372 134.75 21.2463H134.611C134.596 21.2371 134.579 21.2324 134.562 21.2324C134.545 21.2324 134.529 21.2371 134.514 21.2463C134.295 23.4305 133.441 25.4402 132.113 26.8973C130.785 28.3544 129.074 29.1586 127.301 29.1586C125.53 29.1586 123.818 28.3544 122.49 26.8973C121.162 25.4402 120.308 23.4305 120.09 21.2463C120.077 21.2372 120.062 21.2324 120.048 21.2324C120.033 21.2324 120.019 21.2372 120.006 21.2463C120.006 21.2463 119.909 21.2463 119.909 21.3499V41.1637C119.909 46.0524 121.473 50.7409 124.256 54.1977C127.039 57.6545 130.814 59.5966 134.75 59.5966C138.686 59.5966 142.461 57.6545 145.244 54.1977C148.028 50.7409 149.591 46.0524 149.591 41.1637V21.3499C149.591 21.3499 149.591 21.2463 149.493 21.2463H149.355Z" fill="#CE1337"/>
<path d="M0 93.5635V96.5493H7.51776V119.125H9.93567V96.5493H17.4535L15.7998 93.5635H0Z" fill="white"/>
<path d="M21.9838 111.513H27.5283V108.527H21.9838V104.471H32.0862V101.468H19.5659V119.124H32.3641V116.121H21.9838V111.513Z" fill="white"/>
<path d="M43.8557 108.527C39.7703 108.527 39.27 107.975 39.27 106.267C39.27 104.558 40.6596 103.919 43.2582 103.919C45.3323 103.86 47.3738 104.569 49.1223 105.956L50.2479 103.263C48.1185 101.795 45.7345 100.99 43.2999 100.916C38.5197 100.916 36.741 103.643 36.741 106.612C36.741 110.288 38.9921 111.444 42.2299 111.513C47.552 111.686 48.4831 111.755 48.4831 114.016C48.4831 115.983 46.7044 116.674 44.1475 116.674C41.5668 116.821 39.0198 115.898 36.9077 114.05L35.7544 116.674C38.1962 118.774 41.1247 119.823 44.092 119.66C47.2741 119.66 51.0399 118.779 51.0399 113.705C51.0399 110.944 50.2896 108.527 43.8696 108.527H43.8557Z" fill="white"/>
<path d="M62.9488 108.527C58.8634 108.527 58.3631 107.975 58.3631 106.267C58.3631 104.558 59.7527 103.919 62.3513 103.919C64.4251 103.863 66.4658 104.572 68.2154 105.956L69.3409 103.263C67.2108 101.798 64.8272 100.993 62.393 100.916C57.6127 100.916 55.8341 103.643 55.8341 106.612C55.8341 110.288 58.0852 111.444 61.323 111.513C66.6451 111.686 67.5761 111.755 67.5761 114.016C67.5761 115.983 65.7975 116.674 63.2406 116.674C60.6559 116.817 58.1056 115.895 55.9869 114.05L54.8335 116.674C57.2784 118.766 60.2047 119.814 63.1712 119.66C66.3533 119.66 70.1191 118.779 70.1191 113.705C70.1191 110.944 69.3688 108.527 62.9488 108.527Z" fill="white"/>
<path d="M76.9843 111.513H82.5289V108.527H76.9843V104.471H87.0868V101.468H74.5664V119.124H87.3647V116.121H76.9843V111.513Z" fill="white"/>
<path d="M103.386 114.55L94.4926 101.468H92.0747V119.124H94.4926V105.99L103.386 119.124H105.804V101.468H103.386V114.55Z" fill="white"/>
<path d="M119.353 116.121H113.947V104.471H119.325C121.826 104.471 124.161 105.886 124.161 110.253C124.201 111.048 124.103 111.845 123.872 112.589C123.642 113.333 123.286 114.007 122.827 114.564C122.367 115.121 121.817 115.548 121.213 115.817C120.608 116.086 119.964 116.189 119.325 116.121H119.353ZM119.353 101.468H111.571V119.089H119.353C123.174 119.089 126.607 116.293 126.607 110.184C126.607 102.9 122.438 101.433 119.353 101.433V101.468Z" fill="white"/>
<path d="M131.512 119.124H133.93V101.468H131.512V119.124Z" fill="white"/>
<path d="M142.74 111.513H148.285V108.527H142.74V104.471H152.843V101.468H140.322V119.124H153.12V116.121H142.74V111.513Z" fill="white"/>
<path d="M160.416 108.889V104.471H166.891C168.726 104.471 169.768 104.626 169.768 106.611C169.768 108.596 168.615 108.889 166.988 108.889H160.416ZM172.186 106.542C172.186 102.659 169.642 101.468 166.781 101.468H157.998V119.09H160.416V111.892H165.363L169.532 119.09H172.547L168.378 111.789C168.91 111.76 169.431 111.6 169.911 111.318C170.393 111.036 170.824 110.636 171.178 110.144C171.532 109.652 171.805 109.077 171.978 108.452C172.151 107.828 172.222 107.167 172.186 106.508V106.542Z" fill="white"/>
<path d="M229.813 96.5488L228.159 93.563H217.223V119.124H219.64V107.353H226.616V104.367H219.64V96.5488H229.813Z" fill="white"/>
<path d="M231.745 119.124H234.162V101.468H231.745V119.124Z" fill="white"/>
<path d="M243.626 101.468H241.207V119.124H252.297V116.121H243.626V101.468Z" fill="white"/>
<path d="M262.844 108.527C258.675 108.527 258.258 107.975 258.258 106.267C258.258 104.558 259.647 103.919 262.232 103.919C264.31 103.864 266.356 104.572 268.11 105.956L269.236 103.263C267.08 101.782 264.667 100.977 262.205 100.916C257.438 100.916 255.645 103.643 255.645 106.612C255.645 110.288 257.897 111.444 261.134 111.513C266.457 111.686 267.401 111.755 267.401 114.016C267.401 115.983 265.609 116.674 263.052 116.674C260.471 116.821 257.924 115.898 255.812 114.05L254.659 116.674C257.102 118.771 260.03 119.819 262.997 119.66C266.178 119.66 269.945 118.779 269.945 113.705C269.945 110.944 269.208 108.527 262.788 108.527H262.844Z" fill="white"/>
<path d="M201.632 119.09C200.655 120.301 199.462 121.21 198.152 121.743C196.84 122.277 195.447 122.421 194.082 122.163C192.717 121.905 191.422 121.253 190.298 120.259C189.173 119.265 188.253 117.957 187.61 116.44C186.968 114.923 186.621 113.24 186.598 111.527C186.575 109.813 186.878 108.117 187.479 106.574C188.081 105.032 188.966 103.687 190.062 102.647C191.159 101.607 192.437 100.902 193.794 100.588L202.882 117.036C202.531 117.779 202.111 118.468 201.632 119.09ZM206.815 111.341C206.819 109.925 206.65 108.516 206.314 107.164L206.245 106.905H203.465L203.619 107.405C204.008 108.661 204.211 109.995 204.216 111.341C204.214 112.225 204.125 113.106 203.952 113.964L192.53 93.2527H206.3V90.4912H188.236L192.196 97.6884C190.463 98.3124 188.874 99.438 187.559 100.973C186.245 102.507 185.242 104.407 184.633 106.517C184.025 108.626 183.827 110.885 184.058 113.107C184.288 115.33 184.94 117.453 185.959 119.302C186.978 121.151 188.336 122.673 189.92 123.744C191.505 124.815 193.272 125.404 195.076 125.463C196.879 125.521 198.668 125.048 200.295 124.081C201.923 123.114 203.342 121.682 204.438 119.901L207.787 125.994H210.567L205.772 117.364C206.461 115.508 206.817 113.488 206.815 111.444V111.341Z" fill="white"/>
</g>
</g>
<g clip-path="url(#clip1_322_6377)">
<path d="M122.459 167.852C129.234 167.852 135 176.327 135 185C135 176.327 140.766 167.852 147.541 167.852" stroke="#C06520" stroke-width="2"/>
<path d="M135 181.702V141.47" stroke="#C06520" stroke-width="2"/>
</g>
<defs>
<clipPath id="clip0_322_6377">
<rect width="270" height="125.924" fill="white"/>
</clipPath>
<clipPath id="clip1_322_6377">
<rect width="43.5294" height="25.082" fill="white" transform="matrix(0 -1 1 0 122.459 185)"/>
</clipPath>
</defs>
</svg>
